<?xml version="1.0" encoding="UTF-8"?>
<svg xmlns="http://www.w3.org/2000/svg" width="811" height="161" viewBox="0 0 811 161">
  <path d="M 7 8.5 L 7.5 8 L 326.5 8 L 327 8.5 L 327 104.5 L 326.5 105 L 7.5 105 L 7 104.5 L 7 8.5 Z M 360 8.5 L 360.5 8 L 485.5 8 L 486 8.5 L 486 143.5 L 485.98 144.5 L 486 145.5 L 486 147.5 L 485.5 148 L 360.5 148 L 360 147.5 L 360 145.5 L 360.02 144.5 L 360 143.5 L 360 8.5 Z M 517 8.5 L 517.5 8 L 803.5 8 L 804 8.5 L 804 142.5 L 803.98 143.5 L 803.98 144.5 L 804 145.5 L 804 146.5 L 803.5 147 L 517.5 147 L 517 146.5 L 517 145.5 L 517.02 144.5 L 517.02 143.5 L 517 142.5 L 517 8.5 Z M 10.5 11 L 10 11.5 L 10 101.5 L 10.5 102 L 44.5 102 L 45 101.5 L 45 11.5 L 44.5 11 L 10.5 11 Z M 176.5 11 L 176 11.5 L 176 95.5 L 175.5 96 L 48.5 96 L 48 96.5 L 48 101.5 L 48.5 102 L 323.5 102 L 324 101.5 L 324 95.5 L 323.5 95 L 197.5 95 L 197 94.5 L 197 11.5 L 196.5 11 L 176.5 11 Z M 200.5 11 L 200 11.5 L 200 87.5 L 200.02 88.5 L 200 89.5 L 200 91.5 L 200.5 92 L 214.5 91.98 L 215.5 91.872 L 215.872 91.5 L 215 90.5 L 214 89.5 L 213.164 88.5 L 212.836 87.5 L 212.5 86.929 L 212.224 86.5 L 212 85.5 L 211.836 84.5 L 211.5 83.783 L 211.333 83.5 L 211.072 82.5 L 211 80.5 L 211.01 74.5 L 211 73.5 L 211.5 73 L 239.5 73 L 240 73.5 L 239.99 74.5 L 240 80.5 L 239.928 82.5 L 239.667 83.5 L 239.5 83.783 L 239.164 84.5 L 239 85.5 L 238.776 86.5 L 238.5 86.929 L 238.164 87.5 L 237.836 88.5 L 237 89.5 L 236 90.5 L 235.175 91.5 L 235.5 91.825 L 236.5 91.928 L 237.5 92 L 323.5 92 L 324 91.5 L 324 89.5 L 323.98 88.5 L 324 87.5 L 324 11.5 L 323.5 11 L 200.5 11 Z M 363.5 11 L 363 11.5 L 363 144.5 L 363.5 145 L 482.5 145 L 483 144.5 L 483 11.5 L 482.5 11 L 363.5 11 Z M 520.5 11 L 520 11.5 L 520 92.5 L 520.5 93 L 643.5 93 L 644 92.5 L 644 11.5 L 643.5 11 L 520.5 11 Z M 647.5 11 L 647 11.5 L 647 95.5 L 646.5 96 L 520.5 96 L 520 96.5 L 520 143.5 L 520.5 144 L 800.5 144 L 801 143.5 L 801 96.5 L 800.5 96 L 673.5 96 L 673 95.5 L 673 11.5 L 672.5 11 L 647.5 11 Z M 676.5 11 L 676 11.5 L 676 92.5 L 676.5 93 L 800.5 93 L 801 92.5 L 801 11.5 L 800.5 11 L 676.5 11 Z M 48.5 12 L 48 12.5 L 48 92.5 L 48.5 93 L 172.5 93 L 173 92.5 L 173 12.5 L 172.5 12 L 48.5 12 Z M 378.071 16.5 L 378.5 16.224 L 379.5 16.072 L 380.5 16 L 385.5 16.02 L 386.5 16.164 L 387.066 16.5 L 387.5 16.78 L 388.5 16.94 L 389.5 17.02 L 390.5 17.164 L 391.5 17.836 L 392.5 18.164 L 393.5 19 L 393.931 19.5 L 394.5 20.466 L 395.5 21.166 L 395.776 21.5 L 396.22 23.5 L 396.5 23.934 L 396.836 24.5 L 396.98 25.5 L 396.98 27.5 L 397 28.5 L 396.667 30.5 L 396.5 30.783 L 396.164 31.5 L 395.836 32.5 L 395.164 33.5 L 395 34.5 L 394.5 35 L 393.5 35.164 L 392.5 36 L 391.796 36.5 L 391.5 36.741 L 390.5 36.741 L 390.204 36.5 L 389.5 35.734 L 389.312 35.5 L 389.077 34.5 L 389 33.5 L 389.5 33 L 390.5 32.836 L 391.5 32 L 392 31.5 L 392.836 30.5 L 393.164 29.5 L 393.5 28.814 L 393.688 28.5 L 393.818 27.5 L 393.836 26.5 L 393.164 25.5 L 392.836 24.5 L 392.5 24.099 L 391.5 23.466 L 390.931 22.5 L 390.5 22 L 389.5 21.164 L 388.5 21.02 L 377.5 21 L 376.5 21.072 L 375.5 21.22 L 375.066 21.5 L 374.5 21.836 L 373.5 22.164 L 372.5 23 L 372 23.5 L 371.164 24.5 L 371.02 25.5 L 371 29.5 L 371.328 31.5 L 372.161 32.5 L 372.5 32.78 L 373.5 32.928 L 374.5 33 L 379.5 33 L 380 32.5 L 380 27.5 L 380.5 27 L 382.5 27 L 383 27.5 L 383 32.5 L 382.98 33.5 L 383 34.5 L 383 36.5 L 382.5 37 L 370.5 37 L 370 36.5 L 369.836 35.5 L 369.164 34.5 L 368.836 33.5 L 368.5 32.861 L 368.277 32.5 L 368.06 31.5 L 367.98 30.5 L 367.836 29.5 L 367.5 28.814 L 367.312 28.5 L 367.182 27.5 L 367.164 26.5 L 367.5 25.861 L 367.723 25.5 L 367.94 24.5 L 368.02 23.5 L 368.164 22.5 L 368.5 22.099 L 369.199 21.5 L 370.5 20.166 L 371 19.5 L 371.5 19 L 372.5 18.164 L 373.5 17.836 L 374.071 17.5 L 374.5 17.224 L 375.5 17.06 L 376.5 16.98 L 377.5 16.836 L 378.071 16.5 Z M 458.071 16.5 L 458.5 16.224 L 459.5 16.072 L 460.5 16 L 464.5 16.02 L 465.5 16.164 L 466.066 16.5 L 466.5 16.78 L 467.5 16.94 L 468.5 17.02 L 469.5 17.164 L 470.5 17.836 L 471.5 18.164 L 472.5 19 L 472.931 19.5 L 473.5 20.466 L 474.5 21.099 L 474.836 21.5 L 475.164 22.5 L 475.836 23.5 L 475.98 24.5 L 476 29.5 L 475.667 31.5 L 475.5 31.783 L 475.164 32.5 L 474.836 33.5 L 474 34.5 L 473.5 35 L 472.5 35.836 L 471.5 36.164 L 470.886 36.5 L 470.5 36.741 L 469.5 36.741 L 469.204 36.5 L 468.5 35.796 L 468.259 35.5 L 468.259 34.5 L 469.099 33.5 L 469.5 33.164 L 470.5 32.836 L 470.901 32.5 L 471.5 31.901 L 471.836 31.5 L 472.164 30.5 L 472.5 29.704 L 472.615 29.5 L 472.776 28.5 L 472.811 27.5 L 472.98 26.5 L 472.836 25.5 L 472.164 24.5 L 471.836 23.5 L 471.5 23.099 L 470.901 22.5 L 470.5 22.164 L 469.5 21.836 L 468.5 21.164 L 467.5 21.02 L 457.5 21 L 456.5 21.072 L 455.5 21.22 L 455.066 21.5 L 454.5 21.836 L 453.5 22.164 L 452.5 23 L 452 23.5 L 451.527 24.5 L 450.5 25.099 L 450.164 25.5 L 450.02 26.5 L 450.189 27.5 L 450.224 28.5 L 450.385 29.5 L 450.5 29.704 L 450.836 30.5 L 451.164 31.5 L 452 32.5 L 452.5 33 L 453.5 33.836 L 454.5 34.164 L 454.901 34.5 L 455.527 35.5 L 455.164 36.5 L 455 37.5 L 454.5 38 L 453.5 37.741 L 453.114 37.5 L 452.5 37.164 L 451.5 36.836 L 451.099 36.5 L 450.5 35.758 L 450.242 35.5 L 449.5 35 L 449 34.5 L 448.164 33.5 L 447.836 32.5 L 447.5 31.783 L 447.333 31.5 L 447 29.5 L 447.02 25.5 L 447.164 24.5 L 447.5 23.934 L 447.78 23.5 L 448.224 21.5 L 448.5 21.166 L 449 20.5 L 449.5 20 L 450.5 19.164 L 451.5 18.836 L 452.5 18.164 L 453.5 17.836 L 454.071 17.5 L 454.5 17.224 L 455.5 17.06 L 456.5 16.98 L 457.5 16.836 L 458.071 16.5 Z M 537.071 16.5 L 537.5 16.224 L 538.5 16.072 L 539.5 16 L 543.5 16.02 L 544.5 16.164 L 545.066 16.5 L 545.5 16.78 L 546.5 16.94 L 547.5 17.02 L 548.5 17.164 L 549.5 17.836 L 550.5 18.164 L 551.5 19 L 551.931 19.5 L 552.5 20.466 L 553.5 21.099 L 553.836 21.5 L 554.164 22.5 L 554.836 23.5 L 554.98 24.5 L 555 29.5 L 554.667 31.5 L 554.5 31.783 L 554.164 32.5 L 553.836 33.5 L 553 34.5 L 552.5 35 L 551.5 35.836 L 550.5 36.164 L 549.886 36.5 L 549.5 36.741 L 548.5 37 L 548 36.5 L 547.836 35.5 L 547.481 34.5 L 548.199 33.5 L 548.5 33.199 L 549.103 32.5 L 549.908 31.5 L 550.5 31 L 551 30.5 L 551.5 29.646 L 551.615 29.5 L 551.776 28.5 L 551.811 27.5 L 551.98 26.5 L 551.836 25.5 L 551.164 24.5 L 550.836 23.5 L 550.5 23.099 L 549.901 22.5 L 549.5 22.164 L 548.5 21.836 L 547.5 21.164 L 546.5 21.02 L 536.5 21 L 535.5 21.072 L 534.5 21.22 L 534.066 21.5 L 533.5 21.836 L 532.5 22.164 L 531.5 22.836 L 530.5 23 L 530 23.5 L 529.836 24.5 L 529.164 25.5 L 529.02 26.5 L 529.175 27.5 L 529.006 28.5 L 529.25 29.5 L 529.328 30.5 L 529.5 30.791 L 529.836 31.5 L 530 32.5 L 530.5 33 L 537.5 33 L 538 32.5 L 538 27.5 L 538.5 27 L 540.5 27 L 541 27.5 L 541 32.5 L 540.98 33.5 L 541 34.5 L 541 36.5 L 540.5 37 L 528.5 37 L 528 36.5 L 527.836 35.5 L 527.164 34.5 L 526.836 33.5 L 526.5 32.783 L 526.333 32.5 L 526 30.5 L 526.02 24.5 L 526.164 23.5 L 526.836 22.5 L 527.164 21.5 L 528 20.5 L 528.5 20 L 529.5 19.164 L 530.5 18.836 L 531.5 18.164 L 532.5 17.836 L 533.071 17.5 L 533.5 17.224 L 534.5 17.06 L 535.5 16.98 L 536.5 16.836 L 537.071 16.5 Z M 618.5 17.481 L 619.5 17.78 L 620.5 17.928 L 621.5 18 L 625.5 18.02 L 626.5 18.164 L 627.5 18.836 L 628.5 19.164 L 630.5 20.836 L 631.5 21 L 632 21.5 L 632.164 22.5 L 632.836 23.5 L 633 24.5 L 633.22 25.5 L 633.5 25.934 L 633.836 26.5 L 633.792 27.5 L 633.792 28.5 L 633.644 29.5 L 633.5 29.75 L 633.164 30.5 L 633 31.5 L 632.776 32.5 L 632.5 32.834 L 632 33.5 L 631.5 34 L 630.908 34.5 L 630.5 35.012 L 629.907 35.5 L 629.5 35.811 L 628.901 36.5 L 628.5 36.836 L 627.5 37 L 626.5 37.22 L 626.066 37.5 L 625.5 37.836 L 624.5 37.98 L 614.5 38 L 613.5 37.928 L 612.5 37.776 L 612.071 37.5 L 611.5 37.164 L 610.5 37 L 609.5 36.776 L 609.071 36.5 L 608.5 36.164 L 607.5 35.836 L 607.099 35.5 L 606.5 34.901 L 606.164 34.5 L 605.836 33.5 L 605.164 32.5 L 604.836 31.5 L 604.5 30.783 L 604.333 30.5 L 604 28.5 L 604.02 27.5 L 604.02 25.5 L 604.164 24.5 L 604.836 23.5 L 605.164 22.5 L 606 21.5 L 606.5 21 L 607.5 20.164 L 608.5 19.836 L 609.5 19.164 L 610.5 18.836 L 611.071 18.5 L 611.5 18.224 L 612.5 18.072 L 613.5 18 L 616.5 17.98 L 617.5 17.836 L 618.5 17.481 Z M 65.071 18.5 L 65.5 18.224 L 66.5 18.072 L 67.5 18 L 70.5 18.02 L 71.5 18.164 L 72.066 18.5 L 72.5 18.78 L 73.5 18.928 L 74.5 19.012 L 75.5 19.02 L 76.5 19.164 L 77.5 19.836 L 78.5 20.164 L 79.5 21 L 79.931 21.5 L 80.5 22.466 L 81.5 23.099 L 81.836 23.5 L 82.164 24.5 L 82.836 25.5 L 82.98 26.5 L 82.936 27.5 L 82.994 28.5 L 83 31.5 L 82.836 32.5 L 82.776 33.5 L 82.5 33.929 L 82.164 34.5 L 81.836 35.5 L 81 36.5 L 80.5 37 L 79.5 37.836 L 78.5 38.164 L 77.886 38.5 L 77.5 38.741 L 76.5 38.741 L 76.204 38.5 L 75.5 37.796 L 75.259 37.5 L 75.259 36.5 L 75.5 36.204 L 76.5 35.199 L 77.103 34.5 L 77.908 33.5 L 78.5 33 L 79 32.5 L 79.5 31.646 L 79.615 31.5 L 79.776 30.5 L 79.988 29.5 L 79.98 28.5 L 79.723 27.5 L 79.5 27.226 L 78.5 26.466 L 77.931 25.5 L 77.5 25 L 76.5 24.164 L 75.5 23.836 L 74.5 23.164 L 73.5 23.02 L 64.5 23 L 63.5 23.072 L 62.5 23.22 L 62.066 23.5 L 61.5 23.836 L 60.5 24.164 L 59.5 24.836 L 58.5 25 L 58 25.5 L 57.836 26.5 L 57.5 27.139 L 57.277 27.5 L 57.02 28.5 L 57 31.5 L 57.164 32.5 L 57.22 33.5 L 57.5 33.839 L 58.161 34.5 L 58.5 34.78 L 59.5 34.928 L 60.5 35 L 65.5 35 L 66 34.5 L 66 29.5 L 66.5 29 L 68.5 29 L 69 29.5 L 69 38.5 L 68.5 39 L 56.5 39 L 56 38.5 L 55.836 37.5 L 55.164 36.5 L 54.836 35.5 L 54.5 34.783 L 54.333 34.5 L 54.072 33.5 L 53.988 32.5 L 53.98 31.5 L 53.836 30.5 L 53.481 29.5 L 53.94 27.5 L 54.02 26.5 L 54.164 25.5 L 54.836 24.5 L 55.164 23.5 L 56 22.5 L 56.5 22 L 57.5 21.164 L 58.5 20.836 L 59.5 20.164 L 60.5 19.836 L 61.071 19.5 L 61.5 19.224 L 62.5 19.06 L 63.5 18.98 L 64.5 18.836 L 65.071 18.5 Z M 695.071 18.5 L 695.5 18.224 L 696.5 18.072 L 697.5 18 L 700.5 18.02 L 701.5 18.164 L 702.066 18.5 L 702.5 18.78 L 703.5 18.94 L 704.5 19.02 L 705.5 19.164 L 706.5 19.836 L 707.5 20.164 L 708.5 20.836 L 709.5 21.164 L 709.901 21.5 L 710.5 22.099 L 710.836 22.5 L 711.164 23.5 L 711.836 24.5 L 712.164 25.5 L 712.836 26.5 L 712.881 27.5 L 712.988 28.5 L 713 30.5 L 712.667 32.5 L 712.5 32.783 L 712.164 33.5 L 711.836 34.5 L 711.164 35.5 L 710.836 36.5 L 710.5 36.901 L 709.901 37.5 L 709.5 37.836 L 708.5 38.164 L 707.886 38.5 L 707.5 38.741 L 706.5 38.741 L 706.204 38.5 L 705.5 37.734 L 705.312 37.5 L 705.077 36.5 L 705 35.5 L 705.5 35 L 706.5 34.836 L 707.5 34 L 708 33.5 L 708.836 32.5 L 709.164 31.5 L 709.5 30.814 L 709.688 30.5 L 709.818 29.5 L 709.836 28.5 L 709.164 27.5 L 708.836 26.5 L 708 25.5 L 707.5 25 L 706.5 24.164 L 705.5 23.836 L 704.5 23.164 L 703.5 23.02 L 694.5 23 L 693.5 23.072 L 692.5 23.22 L 692.066 23.5 L 691.5 23.836 L 690.5 24 L 689.5 24.22 L 689.161 24.5 L 688.5 25 L 688 25.5 L 687.164 26.5 L 687.116 27.5 L 687.012 28.5 L 687 31.5 L 687.164 32.5 L 687.22 33.5 L 687.5 33.839 L 688.161 34.5 L 688.5 34.78 L 689.5 34.928 L 690.5 35 L 694.5 35 L 695 34.5 L 695 29.5 L 695.5 29 L 697.5 29.01 L 698.5 29 L 699 29.5 L 699 38.5 L 698.5 39 L 688.5 39 L 687.5 38.928 L 686.5 38.776 L 686.166 38.5 L 685.5 37.834 L 685.224 37.5 L 685 36.5 L 684.836 35.5 L 684.5 34.929 L 684.224 34.5 L 684 33.5 L 683.836 32.5 L 683.5 31.684 L 683.398 31.5 L 683.224 30.5 L 683.012 29.5 L 683.02 28.5 L 683.277 27.5 L 683.78 26.5 L 684 25.5 L 684.164 24.5 L 684.5 24.099 L 685.199 23.5 L 686.5 22.166 L 687 21.5 L 687.5 21 L 688.166 20.5 L 688.5 20.224 L 689.5 20 L 690.5 19.836 L 691.071 19.5 L 691.5 19.224 L 692.5 19.06 L 693.5 18.98 L 694.5 18.836 L 695.071 18.5 Z M 12 19.5 L 12.5 19 L 40.5 19 L 41 19.5 L 41 38.5 L 40.5 39 L 37.5 39 L 37 38.5 L 37 23.5 L 36.5 23 L 28.5 23 L 28 23.5 L 28 37.5 L 27.5 38 L 25.5 38 L 25 37.5 L 25 23.5 L 24.5 23 L 15.5 23 L 15 23.5 L 15 39.5 L 14.5 40 L 12.5 40 L 12 39.5 L 12.01 20.5 L 12 19.5 Z M 141.5 20.224 L 142.5 20.072 L 143.5 20 L 150.5 20.02 L 151.5 20.164 L 152.066 20.5 L 152.5 20.78 L 153.5 21 L 154.5 21.164 L 155.5 21.836 L 156.5 22.164 L 157.5 23 L 157.931 23.5 L 158.5 24.473 L 159.5 25.099 L 159.836 25.5 L 160.164 26.5 L 160.5 27.139 L 160.723 27.5 L 160.98 28.5 L 161 31.5 L 160.836 32.5 L 160.776 33.5 L 160.5 33.929 L 160.164 34.5 L 159.836 35.5 L 159 36.5 L 158.5 37 L 157.811 37.5 L 157.5 37.811 L 156.901 38.5 L 156.5 38.836 L 155.5 39.164 L 154.5 39.836 L 153.5 40 L 152.5 40.22 L 152.066 40.5 L 151.5 40.836 L 150.5 40.98 L 143.5 41 L 142.5 40.928 L 141.5 40.776 L 140.5 40.277 L 139.5 40.06 L 138.5 39.94 L 137.5 39.776 L 137.071 39.5 L 136.5 39.164 L 135.5 38.836 L 134.5 38 L 134 37.5 L 133.164 36.5 L 132.836 35.5 L 132.164 34.5 L 131.836 33.5 L 131.5 32.704 L 131.385 32.5 L 131.224 31.5 L 131.012 30.5 L 131.02 29.5 L 131.164 28.5 L 131.836 27.5 L 132.164 26.5 L 132.836 25.5 L 133.164 24.5 L 134 23.5 L 134.5 23 L 135.5 22.164 L 136.5 21.836 L 137.071 21.5 L 137.5 21.224 L 138.5 21.06 L 139.5 20.94 L 140.5 20.723 L 141.5 20.224 Z M 220.071 20.5 L 220.5 20.224 L 221.5 20.072 L 222.5 20 L 230.5 20.02 L 231.5 20.164 L 232.066 20.5 L 232.5 20.78 L 233.5 21 L 234.5 21.164 L 236.5 22.836 L 237.5 23 L 238 23.5 L 238.164 24.5 L 239.836 26.5 L 239.881 27.5 L 239.988 28.5 L 240 32.5 L 239.96 33.5 L 239.836 34.5 L 239.667 35.5 L 239.5 35.709 L 239 36.5 L 238.164 37.5 L 238 38.5 L 237.5 39 L 236.5 39.164 L 235.5 40 L 234.796 40.5 L 234.5 40.741 L 233.5 41 L 233 40.5 L 232.836 39.5 L 232.5 38.886 L 232.259 38.5 L 232 37.5 L 232.5 37 L 233.5 36.836 L 233.901 36.5 L 234.5 35.811 L 234.811 35.5 L 235.5 35 L 236 34.5 L 236.5 33.839 L 236.78 33.5 L 236.75 32.5 L 236.994 31.5 L 236.98 29.5 L 236.836 28.5 L 236.5 28.099 L 235.5 27.466 L 234.931 26.5 L 234.5 26 L 233.5 25.164 L 232.5 25.02 L 231.5 24.94 L 230.5 24.776 L 230.071 24.5 L 229.5 24.164 L 228.5 24.02 L 223.5 24 L 222.5 24.072 L 221.5 24.22 L 221.066 24.5 L 220.5 24.836 L 219.5 25 L 218.5 25.22 L 218.066 25.5 L 217.5 25.836 L 216.5 26.164 L 216.099 26.5 L 215.5 27.099 L 215.164 27.5 L 214.836 28.5 L 214.164 29.5 L 214.02 30.5 L 214.006 32.5 L 214.072 33.5 L 214.328 34.5 L 214.5 34.791 L 214.836 35.5 L 215 36.5 L 215.5 37 L 222.5 37 L 223 36.5 L 223.006 34.5 L 222.98 33.5 L 223.01 32.5 L 223 31.5 L 223.5 31 L 225.5 31 L 226 31.5 L 225.99 32.5 L 226 40.5 L 225.5 41 L 216.5 41 L 215.5 40.928 L 214.5 40.776 L 214.166 40.5 L 213.5 39.901 L 213.164 39.5 L 212.836 38.5 L 212.164 37.5 L 211.836 36.5 L 211.5 35.783 L 211.333 35.5 L 211.164 34.5 L 211.04 33.5 L 211 32.5 L 211.02 28.5 L 211.277 27.5 L 211.5 27.139 L 211.836 26.5 L 212.164 25.5 L 212.5 25.099 L 213.527 24.5 L 214 23.5 L 214.5 23 L 215.5 22.164 L 216.5 21.836 L 217.071 21.5 L 217.5 21.224 L 218.5 21 L 219.5 20.836 L 220.071 20.5 Z M 763 20.5 L 763.5 20 L 765.5 20 L 766 20.5 L 766 28.5 L 766.5 29 L 785.5 28.98 L 786.5 28.872 L 786.872 28.5 L 786.164 27.5 L 785.836 26.5 L 785.164 25.5 L 784.836 24.5 L 784.5 23.75 L 784.356 23.5 L 784.208 22.5 L 784 21.5 L 784 20.5 L 784.5 20 L 786.5 20 L 787 20.5 L 787.01 21.5 L 787.22 22.5 L 787.5 22.934 L 787.836 23.5 L 788 24.5 L 788.22 25.5 L 788.5 25.839 L 789 26.5 L 789.5 27 L 789.957 27.5 L 790.5 28.258 L 791.5 29.099 L 791.836 29.5 L 791.98 30.5 L 792 31.5 L 792 32.5 L 791.5 33 L 766.5 33 L 766 33.5 L 766 40.5 L 765.5 41 L 763.5 41 L 763 40.5 L 763 20.5 Z M 291 21.5 L 291.5 21 L 293.5 21 L 294 21.5 L 294 26.5 L 294.02 27.5 L 294 28.5 L 294 30.5 L 294.5 31 L 314.5 30.98 L 315.5 30.836 L 315.836 30.5 L 315.5 30.164 L 314.5 30.02 L 314 29.5 L 313.836 28.5 L 313.164 27.5 L 312.836 26.5 L 312.5 25.704 L 312.385 25.5 L 312.224 24.5 L 312.012 23.5 L 312 21.5 L 312.5 21 L 314.5 21 L 315 21.5 L 314.99 22.5 L 315.06 23.5 L 315.277 24.5 L 315.5 24.861 L 315.836 25.5 L 316.164 26.5 L 316.836 27.5 L 317.164 28.5 L 318 29.5 L 319 30.5 L 319.836 31.5 L 319.98 32.5 L 320 33.5 L 320 34.5 L 319.5 35 L 294.5 35 L 294 35.5 L 294.006 38.5 L 293.98 39.5 L 294 40.5 L 294 41.5 L 293.5 42 L 291.5 42 L 291 41.5 L 291 40.5 L 291.02 39.5 L 291 38.5 L 291 21.5 Z M 616.5 21.22 L 616.066 21.5 L 615.5 21.836 L 614.5 21.98 L 613.5 21.988 L 612.5 22.072 L 611.5 22.22 L 611.066 22.5 L 610.5 22.836 L 609.5 23.164 L 609.099 23.5 L 608.5 24.099 L 608.164 24.5 L 607.836 25.5 L 607.164 26.5 L 607.208 27.5 L 607.208 28.5 L 607.356 29.5 L 607.5 29.75 L 607.836 30.5 L 608.164 31.5 L 608.5 31.901 L 609.099 32.5 L 609.5 32.836 L 610.5 33.164 L 611.066 33.5 L 611.5 33.78 L 612.5 33.928 L 613.5 34 L 616.5 34.02 L 617.5 34.164 L 618.5 34.527 L 619.5 34.224 L 620.5 34.072 L 621.5 34 L 625.5 33.98 L 626.5 33.836 L 626.901 33.5 L 627.5 32.811 L 627.811 32.5 L 628.5 32 L 629 31.5 L 629.5 30.715 L 629.672 30.5 L 629.75 29.5 L 629.994 28.5 L 629.825 27.5 L 629.98 26.5 L 629.836 25.5 L 629.164 24.5 L 629 23.5 L 628.5 23 L 627.5 22.836 L 626.5 22.164 L 625.5 22.02 L 624.5 22.012 L 623.5 21.928 L 622.5 21.776 L 622.071 21.5 L 621.5 21.164 L 620.5 21.02 L 618.5 21 L 617.5 21.072 L 616.5 21.22 Z M 140.5 24.22 L 139.5 24.776 L 137.5 25.22 L 137.161 25.5 L 136.5 26 L 136 26.5 L 135.5 27.161 L 135.22 27.5 L 134.776 29.5 L 134.481 30.5 L 134.836 31.5 L 135 32.5 L 135.22 33.5 L 135.5 33.839 L 136 34.5 L 136.5 35 L 137.161 35.5 L 137.5 35.78 L 139.5 36.224 L 140.5 36.78 L 141.5 36.928 L 143.5 37 L 151.5 36.98 L 152.5 36.836 L 153.5 36.164 L 154.5 35.836 L 155.5 35.164 L 156.5 35 L 157 34.5 L 157.164 33.5 L 157.5 32.704 L 157.615 32.5 L 157.776 31.5 L 157.988 30.5 L 157.98 29.5 L 157.836 28.5 L 157.5 28.099 L 156.5 27.466 L 155.931 26.5 L 155.5 26 L 154.5 25.164 L 153.5 25 L 152.5 24.776 L 152.071 24.5 L 151.5 24.164 L 150.5 24.02 L 143.5 24 L 141.5 24.072 L 140.5 24.22 Z M 616 25.5 L 616.5 25 L 620.5 25 L 621 25.5 L 620.99 26.5 L 621 29.5 L 620.5 30 L 616.5 30 L 616 29.5 L 616.01 26.5 L 616 25.5 Z M 143 28.5 L 143.5 28 L 148.5 28 L 149 28.5 L 149 32.5 L 148.5 33 L 143.5 33 L 143 32.5 L 143 28.5 Z M 368 43.5 L 368.5 43 L 396.5 43 L 397 43.5 L 396.99 44.5 L 396.92 45.5 L 396.928 46.5 L 396.615 47.5 L 395.901 48.5 L 395.5 48.836 L 394.5 49.164 L 393.5 49.836 L 392.5 50.164 L 391.5 50.836 L 390.5 51 L 389.5 51.22 L 389.066 51.5 L 388.5 51.836 L 387.5 52.164 L 386.5 52.836 L 385.5 53.164 L 384.5 53.836 L 383.5 54.164 L 382.5 54.836 L 381.5 55.164 L 380.5 55.836 L 379.5 56.164 L 378.5 56.836 L 377.5 57.164 L 376.5 57.836 L 375.5 58.039 L 374.5 58.22 L 374.22 58.5 L 374.5 58.78 L 375.5 58.941 L 376.5 59 L 396.5 59 L 397 59.5 L 396.99 60.5 L 397 62.5 L 396.5 63 L 368.5 63 L 368 62.5 L 368.02 59.5 L 368.277 58.5 L 369.099 57.5 L 369.5 57.164 L 370.5 56.836 L 371.5 56.164 L 372.5 55.836 L 373.5 55.164 L 374.5 54.836 L 375.5 54.164 L 376.5 53.836 L 377.5 53.164 L 378.5 52.836 L 379.071 52.5 L 379.5 52.224 L 380.5 52 L 381.5 51.836 L 382.5 51.164 L 383.5 50.836 L 384.5 50.164 L 385.5 49.836 L 386.5 49.164 L 387.5 48.836 L 388.5 48.146 L 389.5 47.836 L 389.836 47.5 L 389.5 47.164 L 388.5 47.02 L 368.5 47 L 368 46.5 L 368.01 44.5 L 368 43.5 Z M 447 43.5 L 447.5 43 L 475.5 43 L 476 43.5 L 475.99 44.5 L 475.92 45.5 L 475.928 46.5 L 475.615 47.5 L 474.901 48.5 L 474.5 48.836 L 473.5 49.164 L 472.5 49.836 L 471.5 50.164 L 470.5 50.836 L 469.5 51.164 L 468.5 51.836 L 467.5 52.164 L 466.5 52.836 L 465.5 53 L 464.5 53.22 L 464.066 53.5 L 463.5 53.836 L 462.5 54.164 L 461.5 54.836 L 460.5 55.164 L 459.5 55.836 L 458.5 56.164 L 457.5 56.836 L 456.5 57.164 L 456 57.5 L 455.5 57.903 L 454.5 58.193 L 454.193 58.5 L 454.5 58.807 L 455.5 58.928 L 456.5 59 L 475.5 59 L 476 59.5 L 475.99 60.5 L 476 62.5 L 475.5 63 L 447.5 63 L 447 62.5 L 447.02 59.5 L 447.277 58.5 L 448.099 57.5 L 448.5 57.164 L 449.5 56.836 L 450.5 56.164 L 451.5 55.836 L 452.5 55.164 L 453.5 54.836 L 454.071 54.5 L 454.5 54.224 L 455.5 54 L 456.5 53.836 L 457.5 53.164 L 458.5 52.836 L 459.5 52.164 L 460.5 51.836 L 461.5 51.164 L 462.5 50.836 L 463.5 50.164 L 464.5 49.836 L 465.5 49.164 L 466.5 48.836 L 467.071 48.5 L 467.5 48.215 L 468.5 48.004 L 469.5 47.836 L 469.836 47.5 L 469.5 47.164 L 468.5 47.016 L 447.5 47 L 447 46.5 L 447.01 44.5 L 447 43.5 Z M 526 43.5 L 526.5 43 L 554.5 43 L 555 43.5 L 554.99 44.5 L 554.92 45.5 L 554.928 46.5 L 554.615 47.5 L 553.901 48.5 L 553.5 48.836 L 552.5 49.164 L 551.5 49.836 L 550.5 50.164 L 549.5 50.836 L 548.5 51.164 L 547.5 51.836 L 546.5 52 L 545.5 52.22 L 545.066 52.5 L 544.5 52.836 L 543.5 53.164 L 542.5 53.836 L 541.5 54.164 L 540.5 54.836 L 539.5 55.164 L 538.5 55.836 L 537.5 56.164 L 536.5 56.836 L 535.5 57.164 L 535 57.5 L 534.5 57.903 L 533.5 58.193 L 533.193 58.5 L 533.5 58.807 L 534.5 58.928 L 535.5 59 L 554.5 59 L 555 59.5 L 555 62.5 L 554.5 63 L 526.5 63 L 526 62.5 L 526.02 59.5 L 526.277 58.5 L 527.099 57.5 L 527.5 57.164 L 528.5 56.836 L 529.5 56.164 L 530.5 55.836 L 531.5 55.164 L 532.5 54.836 L 533.5 54.164 L 534.5 53.836 L 535.071 53.5 L 535.5 53.224 L 536.5 53 L 537.5 52.836 L 538.5 52.164 L 539.5 51.836 L 540.5 51.164 L 541.5 50.836 L 542.5 50.164 L 543.5 49.836 L 544.5 49.164 L 545.5 48.836 L 546.5 48.146 L 547.5 47.836 L 547.836 47.5 L 547.5 47.164 L 546.5 47.02 L 526.5 47 L 526 46.5 L 526.01 44.5 L 526 43.5 Z M 12 45.5 L 12.5 45 L 40.5 45 L 41 45.5 L 40.988 47.5 L 40.776 48.5 L 40.615 49.5 L 39.901 50.5 L 39.5 50.836 L 38.5 51.164 L 37.5 51.836 L 36.5 52.164 L 35.5 52.836 L 34.5 53.164 L 33.5 53.836 L 32.5 54 L 31.5 54.22 L 31.066 54.5 L 30.5 54.836 L 29.5 55.164 L 28.5 55.836 L 27.5 56.164 L 26.5 56.836 L 25.5 57.164 L 24.5 57.836 L 23.5 58.164 L 22.5 58.836 L 21.5 59.164 L 21 59.5 L 20.5 59.903 L 19.5 60.193 L 19.193 60.5 L 19.5 60.807 L 20.5 60.928 L 21.5 61 L 40.5 61 L 41 61.5 L 41 64.5 L 40.5 65 L 12.5 65 L 12 64.5 L 12.02 61.5 L 12.164 60.5 L 12.5 60.099 L 13.099 59.5 L 13.5 59.164 L 14.5 58.836 L 15.5 58.164 L 16.5 57.836 L 17.5 57.164 L 18.5 56.836 L 19.5 56.164 L 20.5 55.836 L 21.071 55.5 L 21.5 55.224 L 22.5 55 L 23.5 54.836 L 24.5 54.164 L 25.5 53.836 L 26.5 53.164 L 27.5 52.836 L 28.5 52.164 L 29.5 51.836 L 30.5 51.164 L 31.5 50.836 L 32.5 50.146 L 33.5 49.836 L 33.836 49.5 L 33.5 49.164 L 32.5 49.02 L 12.5 49 L 12 48.5 L 12 45.5 Z M 54 45.5 L 54.5 45 L 82.5 45 L 83 45.5 L 82.988 47.5 L 82.776 48.5 L 82.615 49.5 L 81.901 50.5 L 81.5 50.836 L 80.5 51.164 L 79.5 51.836 L 78.5 52.164 L 77.5 52.836 L 76.5 53.164 L 75.5 53.836 L 74.5 54.164 L 73.5 54.836 L 72.5 55 L 71.5 55.22 L 71.066 55.5 L 70.5 55.836 L 69.5 56.164 L 68.5 56.836 L 67.5 57.164 L 66.5 57.836 L 65.5 58.164 L 64.5 58.836 L 63.5 59.164 L 63 59.5 L 62.5 59.903 L 61.5 60.193 L 61.193 60.5 L 61.5 60.807 L 62.5 60.928 L 63.5 61 L 82.5 61 L 83 61.5 L 82.99 62.5 L 83 64.5 L 82.5 65 L 54.5 65 L 54 64.5 L 54.02 61.5 L 54.164 60.5 L 54.5 60.099 L 55.099 59.5 L 55.5 59.164 L 56.5 58.836 L 57.5 58.164 L 58.5 57.836 L 59.5 57.164 L 60.5 56.836 L 61.5 56.164 L 62.5 55.836 L 63.071 55.5 L 63.5 55.224 L 64.5 55 L 65.5 54.836 L 66.5 54.164 L 67.5 53.836 L 68.5 53.164 L 69.5 52.836 L 70.5 52.164 L 71.5 51.836 L 72.5 51.164 L 73.5 50.836 L 74.5 50.146 L 75.5 49.836 L 75.836 49.5 L 75.5 49.164 L 74.5 49.02 L 54.5 49 L 54 48.5 L 54 45.5 Z M 684 45.5 L 684.5 45 L 712.5 45 L 713 45.5 L 712.988 47.5 L 712.776 48.5 L 712.615 49.5 L 711.901 50.5 L 711.5 50.836 L 710.5 51.164 L 709.5 51.836 L 708.5 52.164 L 707.5 52.836 L 706.5 53.164 L 705.5 53.836 L 704.5 54 L 703.5 54.22 L 703.066 54.5 L 702.5 54.836 L 701.5 55.164 L 700.5 55.836 L 699.5 56.164 L 698.5 56.836 L 697.5 57.164 L 696.5 57.836 L 695.5 58.164 L 694.5 58.836 L 693.5 59.164 L 692.5 59.836 L 691.5 60.039 L 690.5 60.22 L 690.22 60.5 L 690.5 60.78 L 691.5 60.941 L 692.5 61 L 712.5 61 L 713 61.5 L 713 64.5 L 712.5 65 L 684.5 65 L 684 64.5 L 684.02 61.5 L 684.164 60.5 L 684.5 60.099 L 685.099 59.5 L 685.5 59.164 L 686.5 58.836 L 687.5 58.164 L 688.5 57.836 L 689.5 57.164 L 690.5 56.836 L 691.5 56.164 L 692.5 55.836 L 693.5 55.164 L 694.5 54.836 L 695.071 54.5 L 695.5 54.224 L 696.5 54 L 697.5 53.836 L 698.5 53.164 L 699.5 52.836 L 700.5 52.164 L 701.5 51.836 L 702.5 51.164 L 703.5 50.836 L 704.5 50.146 L 705.5 49.836 L 705.836 49.5 L 705.5 49.164 L 704.5 49.02 L 684.5 49 L 684 48.5 L 684 45.5 Z M 211 47.5 L 211.5 47 L 239.5 47 L 240 47.5 L 240 51.5 L 239.5 52 L 238.5 52.164 L 237.5 52.836 L 236.5 53.164 L 235.5 53.836 L 234.5 54.164 L 233.5 54.836 L 232.5 55.164 L 231.5 55.836 L 230.5 56.164 L 229.5 56.836 L 228.5 57.164 L 227.5 57.836 L 226.5 58.164 L 225.5 58.836 L 224.5 59 L 223.5 59.22 L 223.066 59.5 L 222.5 59.836 L 221.5 60.164 L 220.5 60.836 L 219.5 61.164 L 219 61.5 L 218.5 61.903 L 217.5 62.193 L 217.193 62.5 L 217.5 62.807 L 218.5 62.928 L 219.5 63 L 239.5 63 L 240 63.5 L 240 65.5 L 239.5 66 L 211.5 66 L 211 65.5 L 211.01 62.5 L 211 61.5 L 211.5 61 L 212.5 60.836 L 213.5 60.164 L 214.5 59.836 L 215.071 59.5 L 215.5 59.224 L 216.5 59 L 217.5 58.836 L 218.5 58.164 L 219.5 57.836 L 220.5 57.164 L 221.5 56.836 L 222.5 56.164 L 223.5 55.836 L 224.5 55.164 L 225.5 54.836 L 226.5 54.164 L 227.5 53.836 L 228.071 53.5 L 228.5 53.224 L 229.5 53 L 230.5 52.836 L 231.5 52.164 L 232.5 52 L 233.164 51.5 L 233.5 51.164 L 234.5 50.784 L 234.784 50.5 L 234.5 50.216 L 233.5 50 L 232.969 50.5 L 232.5 50.969 L 231.5 51 L 211.5 51 L 211 50.5 L 211.01 48.5 L 211 47.5 Z M 688.5 61.481 L 688.481 61.5 L 688.5 61.519 L 688.519 61.5 L 688.5 61.481 Z M 473 68.5 L 473.5 68 L 475.5 68 L 476 68.5 L 476 87.5 L 475.98 88.5 L 476 89.5 L 476 90.5 L 475.5 91 L 473.5 91 L 473 90.5 L 473 89.5 L 473.02 88.5 L 473 87.5 L 473 81.5 L 472.5 81 L 447.5 81 L 447 80.5 L 447 77.5 L 447.5 77 L 472.5 77 L 473 76.5 L 473 68.5 Z M 368 70.5 L 368.5 70 L 396.5 70 L 397 70.5 L 397 74.5 L 396.928 76.5 L 396.667 77.5 L 396.5 77.783 L 396.164 78.5 L 396.02 79.5 L 396.012 80.5 L 395.928 81.5 L 395.776 82.5 L 395.5 82.929 L 395.164 83.5 L 394.836 84.5 L 394 85.5 L 393.5 86 L 392.908 86.5 L 392.5 87.012 L 391.907 87.5 L 391.5 87.811 L 390.901 88.5 L 390.5 88.836 L 389.5 89 L 388.5 89.22 L 388.066 89.5 L 387.5 89.836 L 386.5 89.98 L 379.5 90 L 378.5 89.928 L 377.5 89.776 L 377.071 89.5 L 376.5 89.164 L 375.5 89 L 374.5 88.776 L 374.071 88.5 L 373.5 88.164 L 372.5 87.836 L 371.5 87 L 371 86.5 L 370.164 85.5 L 369.836 84.5 L 369.164 83.5 L 368.836 82.5 L 368.5 81.929 L 368.224 81.5 L 368.164 80.5 L 368 79.5 L 368 70.5 Z M 526 70.5 L 526.5 70 L 554.5 70 L 555 70.5 L 555 75.5 L 554.98 76.5 L 555 77.5 L 554.667 79.5 L 554.5 79.783 L 554.164 80.5 L 554 81.5 L 553.776 82.5 L 553.5 82.929 L 553.164 83.5 L 552.836 84.5 L 552 85.5 L 551.5 86 L 550.908 86.5 L 550.5 87.012 L 549.907 87.5 L 549.5 87.811 L 548.901 88.5 L 548.5 88.836 L 547.5 89 L 546.5 89.22 L 546.066 89.5 L 545.5 89.836 L 544.5 89.98 L 537.5 90 L 536.5 89.928 L 535.5 89.776 L 535.071 89.5 L 534.5 89.164 L 533.5 89 L 532.5 88.776 L 532.166 88.5 L 531.5 87.758 L 530.5 86.98 L 529.5 85.98 L 529.111 85.5 L 528.5 85 L 528 84.5 L 527.5 83.834 L 527.224 83.5 L 526.78 81.5 L 526.5 80.84 L 526.333 80.5 L 526 78.5 L 526 70.5 Z M 19.071 71.5 L 19.5 71.224 L 20.5 71.072 L 21.5 71 L 32.5 71.02 L 33.5 71.164 L 34.5 71.836 L 35.5 72.164 L 37.5 73.836 L 38.5 74 L 39 74.5 L 39.164 75.5 L 39.836 76.5 L 40.164 77.5 L 40.836 78.5 L 40.98 79.5 L 41 81.5 L 40.98 82.5 L 41 83.5 L 40.667 85.5 L 40.5 85.783 L 40.164 86.5 L 39.836 87.5 L 39 88.5 L 38.5 89 L 37.811 89.5 L 37.5 89.811 L 36.901 90.5 L 36.5 90.836 L 35.5 91.164 L 34.5 91.527 L 33.5 90.901 L 33.164 90.5 L 32.836 89.5 L 32.131 88.5 L 32.5 88.131 L 33.5 87.836 L 34.5 87.164 L 35.5 86.836 L 35.901 86.5 L 36.5 85.901 L 36.836 85.5 L 37.164 84.5 L 37.5 83.75 L 37.644 83.5 L 37.792 82.5 L 37.792 81.5 L 37.836 80.5 L 37.164 79.5 L 36.836 78.5 L 36 77.5 L 35.5 77 L 34.5 76.164 L 33.5 76 L 32.5 75.776 L 32.071 75.5 L 31.5 75.164 L 30.5 75.02 L 23.5 75 L 22.5 75.072 L 21.5 75.22 L 21.066 75.5 L 20.5 75.836 L 19.5 76 L 18.5 76.22 L 18.161 76.5 L 17.5 77 L 17 77.5 L 16.527 78.5 L 15.5 79.099 L 15.164 79.5 L 15.02 80.5 L 15.175 81.5 L 15.04 82.5 L 15.25 83.5 L 15.328 84.5 L 15.5 84.791 L 15.836 85.5 L 16 86.5 L 16.5 87 L 17.5 87.164 L 19.5 88.836 L 20.5 89.131 L 20.869 89.5 L 20.164 90.5 L 20 91.5 L 19.5 92 L 18.5 91.923 L 17.5 91.688 L 17.266 91.5 L 16.5 91 L 15.5 90.164 L 14.5 90 L 14 89.5 L 13.836 88.5 L 13 87.5 L 12.5 86.774 L 12.277 86.5 L 12.06 85.5 L 11.98 84.5 L 11.836 83.5 L 11.5 82.886 L 11.259 82.5 L 11.259 81.5 L 11.723 80.5 L 11.94 79.5 L 12.02 78.5 L 12.164 77.5 L 12.836 76.5 L 13.164 75.5 L 14 74.5 L 14.5 74 L 15.5 73.164 L 16.5 72.836 L 17.5 72.164 L 18.5 71.836 L 19.071 71.5 Z M 54 72.5 L 54.5 72 L 82.5 72 L 83 72.5 L 83 78.5 L 82.667 80.5 L 82.277 81.5 L 82.06 82.5 L 81.94 83.5 L 81.723 84.5 L 81.5 84.861 L 81.164 85.5 L 80.836 86.5 L 80 87.5 L 79.5 88 L 78.908 88.5 L 78.5 89.012 L 77.907 89.5 L 77.5 89.811 L 76.901 90.5 L 76.5 90.836 L 75.5 91 L 74.5 91.22 L 74.066 91.5 L 73.5 91.836 L 72.5 91.98 L 65.5 92 L 64.5 91.928 L 63.5 91.776 L 63.071 91.5 L 62.5 91.164 L 61.5 91 L 60.5 90.776 L 60.166 90.5 L 59.5 90 L 58.5 89.164 L 57.5 88.836 L 57.099 88.5 L 56.5 87.901 L 56.164 87.5 L 55.836 86.5 L 55.164 85.5 L 54.836 84.5 L 54.5 83.783 L 54.333 83.5 L 54.072 82.5 L 54 80.5 L 54 72.5 Z M 684 72.5 L 684.5 72 L 712.5 72 L 713 72.5 L 712.988 74.5 L 712.928 76.5 L 712.667 77.5 L 712.5 77.783 L 712.164 78.5 L 712.02 79.5 L 712.012 80.5 L 711.96 82.5 L 711.836 83.5 L 711.667 84.5 L 711.5 84.783 L 711.164 85.5 L 710.836 86.5 L 710 87.5 L 709.5 88 L 708.908 88.5 L 708.5 89.012 L 707.907 89.5 L 707.5 89.811 L 706.901 90.5 L 706.5 90.836 L 705.5 91 L 704.5 91.22 L 704.066 91.5 L 703.5 91.836 L 702.5 91.98 L 695.5 92 L 694.5 91.928 L 693.5 91.776 L 693.071 91.5 L 692.5 91.164 L 691.5 91 L 690.5 90.776 L 690.071 90.5 L 689.5 90.164 L 688.5 89.836 L 687.5 89 L 687 88.5 L 686.164 87.5 L 685.836 86.5 L 685.164 85.5 L 684.836 84.5 L 684.5 83.783 L 684.333 83.5 L 684.072 82.5 L 684 80.5 L 684 72.5 Z M 371.5 74 L 371 74.5 L 371.006 77.5 L 371.25 78.5 L 371.328 79.5 L 371.5 79.791 L 371.836 80.5 L 372.164 81.5 L 373 82.5 L 373.5 83 L 374.242 83.5 L 374.5 83.758 L 375.161 84.5 L 375.5 84.78 L 376.5 85 L 377.5 85.164 L 378.066 85.5 L 378.5 85.78 L 379.5 85.928 L 380.5 86 L 385.5 85.98 L 386.5 85.836 L 387.071 85.5 L 387.5 85.224 L 388.5 85 L 389.5 84.836 L 390.5 84 L 391 83.5 L 391.836 82.5 L 392.164 81.5 L 392.5 80.791 L 392.672 80.5 L 393 78.5 L 393 74.5 L 392.5 74 L 371.5 74 Z M 529.5 74 L 529 74.5 L 529 75.5 L 529.208 76.5 L 529.356 77.5 L 529.5 77.75 L 529.836 78.5 L 529.98 79.5 L 530.06 80.5 L 530.22 81.5 L 530.5 81.839 L 531 82.5 L 531.5 83 L 532.242 83.5 L 532.5 83.758 L 533.161 84.5 L 533.5 84.78 L 534.5 85 L 535.5 85.164 L 536.066 85.5 L 536.5 85.78 L 537.5 85.928 L 538.5 86 L 543.5 85.98 L 544.5 85.836 L 545.071 85.5 L 545.5 85.224 L 546.5 85 L 547.5 84.836 L 548.5 84 L 549 83.5 L 549.836 82.5 L 550.164 81.5 L 550.5 80.791 L 550.672 80.5 L 551 78.5 L 551 74.5 L 550.5 74 L 529.5 74 Z M 57.5 76 L 57 76.5 L 57.012 78.5 L 57.224 79.5 L 57.385 80.5 L 57.5 80.754 L 57.776 81.5 L 58.22 83.5 L 58.5 83.839 L 59 84.5 L 59.5 85 L 60.242 85.5 L 60.5 85.758 L 61.099 86.5 L 61.5 86.836 L 62.5 87.164 L 63.066 87.5 L 63.5 87.78 L 64.5 87.928 L 65.5 88 L 72.5 87.98 L 73.5 87.836 L 74.5 87.164 L 75.5 86.836 L 76.5 86 L 77 85.5 L 77.836 84.5 L 78.164 83.5 L 78.5 82.934 L 78.78 82.5 L 78.928 81.5 L 79 80.5 L 79 76.5 L 78.5 76 L 57.5 76 Z M 687.5 76 L 687 76.5 L 687.006 79.5 L 687.25 80.5 L 687.22 81.5 L 687.5 81.934 L 687.836 82.5 L 688.164 83.5 L 688.836 84.5 L 689 85.5 L 689.5 86 L 690.5 86.164 L 691.5 86.836 L 692.5 87.164 L 693.066 87.5 L 693.5 87.78 L 694.5 87.928 L 695.5 88 L 701.5 87.98 L 702.5 87.836 L 703.071 87.5 L 703.5 87.224 L 704.5 87 L 705.5 86.836 L 706.5 86 L 707 85.5 L 707.836 84.5 L 708.164 83.5 L 708.5 82.934 L 708.78 82.5 L 708.928 81.5 L 709 80.5 L 709 76.5 L 708.5 76 L 687.5 76 Z M 215.5 77 L 215 77.5 L 215.006 80.5 L 215.04 82.5 L 215.164 83.5 L 215.328 84.5 L 215.5 84.791 L 215.836 85.5 L 216.164 86.5 L 216.5 86.901 L 217.099 87.5 L 217.5 87.836 L 218.5 88.164 L 219.066 88.5 L 219.5 88.78 L 220.5 88.94 L 221.5 89.02 L 222.5 89.164 L 223.066 89.5 L 223.5 89.78 L 224.5 89.928 L 225.5 90 L 227.5 89.98 L 228.5 89.836 L 229.071 89.5 L 229.5 89.224 L 230.5 89 L 231.5 88.836 L 232.5 88.164 L 233.5 87.836 L 233.901 87.5 L 234.5 86.901 L 234.836 86.5 L 235.164 85.5 L 235.5 84.861 L 235.723 84.5 L 235.94 83.5 L 236.06 82.5 L 236.277 81.5 L 236.644 80.5 L 236.792 79.5 L 236.99 78.5 L 237 77.5 L 236.5 77 L 215.5 77 Z M 447 96.5 L 447.5 96 L 475.5 96 L 476 96.5 L 476 105.5 L 475.98 106.5 L 476 107.5 L 475.667 109.5 L 475.5 109.783 L 475.164 110.5 L 475 111.5 L 474.776 112.5 L 474.5 112.834 L 474 113.5 L 473.5 114 L 472.811 114.5 L 472.5 114.811 L 471.901 115.5 L 471.5 115.836 L 470.5 115.98 L 467.5 116 L 466.5 115.928 L 465.5 115.776 L 465.071 115.5 L 464.5 115.164 L 463.5 114.836 L 462.5 114 L 462 113.5 L 461.164 112.5 L 460.836 111.5 L 460.164 110.5 L 459.872 109.5 L 459.5 109.128 L 458.5 110 L 457.5 110.836 L 456.5 111.164 L 454.5 112.836 L 453.5 113.164 L 451.5 114.836 L 450.5 115.164 L 449.5 116 L 448.796 116.5 L 448.5 116.741 L 447.5 117 L 447 116.5 L 447 115.5 L 447.02 114.5 L 447.356 113.5 L 447.5 113.318 L 448 112.5 L 448.5 112 L 449.5 111.164 L 450.5 110.836 L 452.5 109.164 L 453.5 108.836 L 455.5 107.164 L 456.5 106.836 L 457.5 106.164 L 458.5 105.836 L 458.901 105.5 L 459.615 104.5 L 459.776 103.5 L 459.988 102.5 L 460 100.5 L 459.5 100 L 447.5 100 L 447 99.5 L 447 96.5 Z M 463.5 100 L 463 100.5 L 463 105.5 L 463.04 106.5 L 463.164 107.5 L 463.328 108.5 L 463.5 108.791 L 463.836 109.5 L 464.164 110.5 L 464.5 110.901 L 465.161 111.5 L 465.5 111.78 L 466.5 111.928 L 467.5 111.988 L 468.5 111.98 L 469.5 111.836 L 470.5 111 L 471 110.5 L 471.836 109.5 L 472.164 108.5 L 472.5 107.791 L 472.672 107.5 L 472.928 106.5 L 473 105.5 L 473 100.5 L 472.5 100 L 463.5 100 Z M 608 100.5 L 608.5 100 L 614.5 100.02 L 615.5 100.164 L 616.5 101 L 616.978 101.5 L 617.5 102.136 L 617.846 102.5 L 618.5 103.258 L 619.5 104.099 L 619.836 104.5 L 620 105.5 L 620.22 106.5 L 620.5 106.839 L 621.161 107.5 L 621.5 107.78 L 622.5 108 L 623.5 108.164 L 624.5 108.836 L 625.5 109.164 L 626.5 110 L 627 110.5 L 627.836 111.5 L 628.164 112.5 L 628.836 113.5 L 629.164 114.5 L 629.836 115.5 L 629.98 116.5 L 630 127.5 L 629.667 129.5 L 629.5 129.783 L 629.164 130.5 L 628.836 131.5 L 628.164 132.5 L 627.836 133.5 L 627 134.5 L 626.5 135 L 625.5 135.836 L 624.5 136.164 L 623.5 136.836 L 622.5 136.98 L 617.5 137 L 616.5 136.928 L 615.5 136.776 L 615.071 136.5 L 614.5 136.164 L 613.5 135.836 L 612.5 135 L 612 134.5 L 611.164 133.5 L 610.836 132.5 L 610.164 131.5 L 609.836 130.5 L 609.5 129.783 L 609.333 129.5 L 609 127.5 L 609.02 116.5 L 609.164 115.5 L 609.836 114.5 L 610.164 113.5 L 610.836 112.5 L 611.164 111.5 L 612 110.5 L 612.5 110 L 613.5 109.164 L 614.5 108.836 L 615.5 108.164 L 616.5 107.872 L 616.872 107.5 L 616.164 106.5 L 615.836 105.5 L 615.5 105.099 L 614.901 104.5 L 614.5 104.164 L 613.5 103.836 L 612.5 103.164 L 611.5 103.02 L 608.5 103 L 608 102.5 L 608 100.5 Z M 635 108.5 L 635.5 108 L 654.5 108 L 655 108.5 L 655 136.5 L 654.5 137 L 636.5 137 L 636 136.5 L 636 134.5 L 636.5 134 L 650.5 134 L 651 133.5 L 651 132.5 L 650.98 131.5 L 651 130.5 L 651 125.5 L 650.5 125 L 637.5 125 L 637 124.5 L 637.01 122.5 L 637 121.5 L 637.5 121 L 650.5 121 L 651 120.5 L 650.99 112.5 L 651 111.5 L 650.5 111 L 635.5 111 L 635 110.5 L 635 108.5 Z M 660.175 108.5 L 660.5 108.175 L 661.5 108.072 L 662.5 108 L 663.5 108.01 L 664.5 108 L 665 108.5 L 665.164 109.5 L 666.836 111.5 L 667.164 112.5 L 668.836 114.5 L 669.164 115.5 L 669.836 116.5 L 670.164 117.5 L 671 118.5 L 671.5 119 L 672.161 119.5 L 672.5 119.78 L 673.5 119.928 L 674.5 119.988 L 676.5 120 L 677 119.5 L 677 108.5 L 677.5 108 L 679.5 108.01 L 680.5 108 L 681 108.5 L 681 136.5 L 680.5 137 L 670.5 137 L 669.5 136.928 L 668.5 136.776 L 668.071 136.5 L 667.5 136.164 L 666.5 136 L 665.5 135.776 L 665.071 135.5 L 664.5 135.164 L 663.5 134.836 L 663.099 134.5 L 662.5 133.901 L 662.164 133.5 L 661.836 132.5 L 661.5 131.929 L 661.224 131.5 L 661.25 130.5 L 661.006 129.5 L 661.02 127.5 L 661.164 126.5 L 661.836 125.5 L 662.164 124.5 L 663 123.5 L 663.5 123 L 664.5 122.164 L 665.5 121.836 L 666.5 121.164 L 667.5 120.872 L 667.872 120.5 L 667.164 119.5 L 666.836 118.5 L 665.164 116.5 L 664.836 115.5 L 663.164 113.5 L 662.836 112.5 L 661.164 110.5 L 660.836 109.5 L 660.175 108.5 Z M 703 108.5 L 703.5 108 L 705.5 108.01 L 706.5 108 L 707 108.5 L 707 136.5 L 706.5 137 L 688.5 137 L 688 136.5 L 688 134.5 L 688.5 134 L 702.5 134 L 703 133.5 L 703 132.5 L 702.98 131.5 L 703 130.5 L 702.99 124.5 L 703 123.5 L 702.5 123 L 688.5 123 L 688 122.5 L 688 120.5 L 688.5 120 L 702.5 120 L 703 119.5 L 703 108.5 Z M 617.5 111.22 L 617.066 111.5 L 616.5 111.836 L 615.5 112 L 615 112.5 L 614.836 113.5 L 614.164 114.5 L 613.836 115.5 L 613.164 116.5 L 613.02 117.5 L 613 124.5 L 613.04 125.5 L 613.164 126.5 L 613.328 127.5 L 613.5 127.791 L 613.836 128.5 L 614 129.5 L 614.22 130.5 L 614.5 130.839 L 615 131.5 L 615.5 132 L 616.242 132.5 L 616.5 132.758 L 617.161 133.5 L 617.5 133.78 L 618.5 133.928 L 619.5 133.988 L 620.5 133.98 L 621.5 133.836 L 621.901 133.5 L 622.5 132.811 L 622.811 132.5 L 623.5 132 L 624 131.5 L 624.836 130.5 L 625.164 129.5 L 625.5 128.791 L 625.672 128.5 L 626 126.5 L 625.98 125.5 L 626 124.5 L 625.994 120.5 L 625.936 119.5 L 625.98 118.5 L 625.836 117.5 L 625.5 116.929 L 625.224 116.5 L 625 115.5 L 624.836 114.5 L 624.5 114.099 L 623.5 113.466 L 622.931 112.5 L 622.5 112 L 621.5 111.164 L 620.5 111.02 L 619.5 111.012 L 618.5 111.072 L 617.5 111.22 Z M 456.071 121.5 L 456.5 121.224 L 457.5 121.072 L 458.5 121 L 465.5 121.02 L 466.5 121.164 L 467.066 121.5 L 467.5 121.78 L 468.5 121.94 L 469.5 122.02 L 470.5 122.164 L 471.5 122.836 L 472.5 123.164 L 473.5 124 L 474 124.5 L 474.836 125.5 L 475.164 126.5 L 475.836 127.5 L 475.98 128.5 L 476 131.5 L 475.98 132.5 L 476 133.5 L 475.667 135.5 L 475.5 135.783 L 475.164 136.5 L 474.836 137.5 L 474 138.5 L 473.5 139 L 472.5 139.836 L 471.5 140.164 L 470.5 140.836 L 469.5 140.98 L 468.5 141.06 L 467.5 141.22 L 467.066 141.5 L 466.5 141.836 L 465.5 141.98 L 458.5 142 L 457.5 141.928 L 456.5 141.776 L 456.071 141.5 L 455.5 141.164 L 454.5 141 L 453.5 140.776 L 453.071 140.5 L 452.5 140.164 L 451.5 139.836 L 451.099 139.5 L 450.5 138.758 L 449.5 137.98 L 449.111 137.5 L 448.5 137 L 448 136.5 L 447.5 135.709 L 447.333 135.5 L 447 133.5 L 447.02 132.5 L 447 131.5 L 447.02 128.5 L 447.164 127.5 L 447.5 127.099 L 448.199 126.5 L 449.5 125.166 L 450 124.5 L 450.5 124 L 451.5 123.164 L 452.5 122.836 L 453.071 122.5 L 453.5 122.224 L 454.5 122 L 455.5 121.836 L 456.071 121.5 Z M 668.5 124.22 L 668.066 124.5 L 667.5 124.836 L 666.5 125 L 666 125.5 L 665.836 126.5 L 665.164 127.5 L 665.02 128.5 L 665.208 129.5 L 665.356 130.5 L 665.5 130.682 L 666 131.5 L 666.5 132 L 667.161 132.5 L 667.5 132.78 L 668.5 133 L 669.5 133.164 L 670.066 133.5 L 670.5 133.78 L 671.5 133.928 L 672.5 134 L 676.5 134 L 677 133.5 L 677 132.5 L 676.98 131.5 L 677 130.5 L 677 124.5 L 676.5 124 L 670.5 124 L 669.5 124.072 L 668.5 124.22 Z M 456.5 125.22 L 456.066 125.5 L 455.5 125.836 L 454.5 126 L 453.5 126.22 L 453.066 126.5 L 452.5 126.836 L 451.5 127 L 451 127.5 L 450.836 128.5 L 450.164 129.5 L 450.02 130.5 L 450.189 131.5 L 450.072 132.5 L 450.385 133.5 L 450.5 133.704 L 450.836 134.5 L 451 135.5 L 451.5 136 L 452.5 136.164 L 453.066 136.5 L 453.5 136.78 L 454.5 137 L 455.5 137.164 L 456.066 137.5 L 456.5 137.78 L 457.5 137.928 L 458.5 138 L 466.5 137.98 L 467.5 137.836 L 468.071 137.5 L 468.5 137.224 L 469.5 137 L 470.5 136.836 L 471.5 136 L 472 135.5 L 472.5 134.715 L 472.672 134.5 L 472.836 133.5 L 472.96 132.5 L 472.98 129.5 L 472.836 128.5 L 472 127.5 L 471.5 127 L 470.5 126.164 L 469.5 126 L 468.5 125.776 L 468.071 125.5 L 467.5 125.164 L 466.5 125.02 L 458.5 125 L 457.5 125.072 L 456.5 125.22 Z M 459 129.5 L 459.5 129 L 463.5 129 L 464 129.5 L 464 133.5 L 463.5 134 L 459.5 134 L 459 133.5 L 459 129.5 Z" fill="#000000" fill-rule="evenodd"/>
</svg>
