<?xml version="1.0" encoding="UTF-8"?>
<svg xmlns="http://www.w3.org/2000/svg" width="1211" height="128" viewBox="0 0 1211 128">
  <path d="M 809.071 5.5 L 809.5 5.224 L 810.5 5.072 L 811.5 5 L 961.5 5.02 L 962.5 5.164 L 963.066 5.5 L 963.5 5.78 L 964.5 5.928 L 965.5 6 L 1202.5 6.02 L 1203.5 6.164 L 1203.901 6.5 L 1204.723 7.5 L 1204.98 8.5 L 1205 117.5 L 1204.928 118.5 L 1204.667 119.5 L 1203.901 120.5 L 1203.5 120.836 L 1202.5 120.98 L 432.5 121 L 431.5 120.928 L 430.5 120.776 L 430.166 120.5 L 429.333 119.5 L 429.072 118.5 L 429 117.5 L 429.02 8.5 L 429.277 7.5 L 429.5 7.226 L 430.166 6.5 L 430.5 6.224 L 431.5 6.072 L 432.5 6 L 807.5 5.98 L 808.5 5.836 L 809.071 5.5 Z M 7.166 6.5 L 7.5 6.224 L 8.5 6.072 L 9.5 6 L 392.5 6.02 L 393.5 6.164 L 393.901 6.5 L 394.723 7.5 L 394.98 8.5 L 395 117.5 L 394.96 118.5 L 394.836 119.5 L 394.667 120.5 L 393.901 121.5 L 393.5 121.836 L 392.5 121.98 L 9.5 122 L 8.5 121.928 L 7.5 121.776 L 7.166 121.5 L 6.333 120.5 L 6.164 119.5 L 6.04 118.5 L 6 117.5 L 6.02 8.5 L 6.277 7.5 L 6.5 7.226 L 7.166 6.5 Z M 10.5 10 L 10 10.5 L 10 117.5 L 10.5 118 L 49.5 118 L 50 117.5 L 50 10.5 L 49.5 10 L 10.5 10 Z M 54.5 10 L 54 10.5 L 54 107.5 L 54.5 108 L 202.5 108 L 203 107.5 L 203 10.5 L 202.5 10 L 54.5 10 Z M 207.5 10 L 207 10.5 L 207 108.5 L 206.667 110.5 L 205.901 111.5 L 205.5 111.836 L 204.5 111.98 L 54.5 112 L 54 112.5 L 54 117.5 L 54.5 118 L 390.5 118 L 391 117.5 L 391 111.5 L 390.5 111 L 241.5 111 L 240.5 110.928 L 239.5 110.776 L 239.166 110.5 L 238.333 109.5 L 238 107.5 L 238.02 106.5 L 238 105.5 L 238 10.5 L 237.5 10 L 207.5 10 Z M 242.5 10 L 242 10.5 L 242 106.5 L 242.5 107 L 390.5 107 L 391 106.5 L 391 10.5 L 390.5 10 L 242.5 10 Z M 433.5 10 L 433 10.5 L 433 106.5 L 433.5 107 L 581.5 107 L 582 106.5 L 582 10.5 L 581.5 10 L 433.5 10 Z M 586.5 10 L 586 10.5 L 586 105.5 L 585.98 106.5 L 586 107.5 L 585.667 109.5 L 584.901 110.5 L 584.5 110.836 L 583.5 110.98 L 433.5 111 L 433 111.5 L 433 116.5 L 433.5 117 L 1152.5 117 L 1153 116.5 L 1153 111.5 L 1152.5 111 L 1003.5 111 L 1002.5 110.928 L 1001.5 110.776 L 1001.166 110.5 L 1000.333 109.5 L 1000 107.5 L 1000.02 106.5 L 1000 105.5 L 1000 10.5 L 999.5 10 L 964.5 10 L 964 10.5 L 964 105.5 L 963.98 106.5 L 964 107.5 L 963.667 109.5 L 962.901 110.5 L 962.5 110.836 L 961.5 110.98 L 811.5 111 L 810.5 110.928 L 809.5 110.776 L 809.166 110.5 L 808.333 109.5 L 808 107.5 L 808.02 106.5 L 808 105.5 L 808 10.5 L 807.5 10 L 772.5 10 L 772 10.5 L 772 105.5 L 771.98 106.5 L 772 107.5 L 771.667 109.5 L 770.901 110.5 L 770.5 110.836 L 769.5 110.98 L 618.5 111 L 617.5 110.928 L 616.5 110.776 L 616.166 110.5 L 615.333 109.5 L 615 107.5 L 615.02 106.5 L 615 105.5 L 615 10.5 L 614.5 10 L 586.5 10 Z M 619.5 10 L 619 10.5 L 619 106.5 L 619.5 107 L 767.5 107 L 768 106.5 L 768 10.5 L 767.5 10 L 619.5 10 Z M 812.5 10 L 812 10.5 L 812 106.5 L 812.5 107 L 959.5 107 L 960 106.5 L 960 10.5 L 959.5 10 L 812.5 10 Z M 1004.5 10 L 1004 10.5 L 1004 106.5 L 1004.5 107 L 1152.5 107 L 1153 106.5 L 1153 10.5 L 1152.5 10 L 1004.5 10 Z M 1157.5 10 L 1157 10.5 L 1157 116.5 L 1157.5 117 L 1200.5 117 L 1201 116.5 L 1201 10.5 L 1200.5 10 L 1157.5 10 Z M 264.071 12.5 L 264.5 12.224 L 265.5 12.072 L 266.5 12 L 275.5 12.02 L 276.5 12.164 L 277.066 12.5 L 277.5 12.78 L 278.5 13 L 279.5 13.164 L 280.5 13.836 L 281.5 14.164 L 283.5 15.836 L 284.5 16 L 285 16.5 L 285.164 17.5 L 285.836 18.5 L 286.164 19.5 L 286.5 20.139 L 286.723 20.5 L 286.98 21.5 L 287.06 22.5 L 287.277 23.5 L 287.5 23.861 L 287.836 24.5 L 287.818 25.5 L 287.688 26.5 L 287.5 26.814 L 287.164 27.5 L 287.02 28.5 L 286.94 29.5 L 286.723 30.5 L 286.5 30.861 L 286.164 31.5 L 285.836 32.5 L 285 33.5 L 284.5 34 L 283.811 34.5 L 283.5 34.811 L 282.901 35.5 L 282.5 35.836 L 281.5 36.164 L 280.886 36.5 L 280.5 36.741 L 279.5 37 L 279 36.5 L 278.836 35.5 L 278.5 34.886 L 278.259 34.5 L 278.259 33.5 L 278.5 33.204 L 279 32.5 L 279.5 32 L 280.5 31.164 L 281.5 31 L 282 30.5 L 282.164 29.5 L 282.5 28.934 L 282.78 28.5 L 283.224 26.5 L 283.741 25.5 L 283.741 24.5 L 283.224 23.5 L 283 22.5 L 282.836 21.5 L 282 20.5 L 281.5 20 L 280.5 19.164 L 279.5 18.836 L 278.5 18.164 L 277.5 18 L 276.5 17.776 L 276.071 17.5 L 275.5 17.164 L 274.5 17.02 L 266.5 17 L 265.5 17.072 L 264.5 17.22 L 264.066 17.5 L 263.5 17.836 L 262.5 18 L 261.5 18.22 L 261.066 18.5 L 260.5 18.836 L 259.5 19.164 L 258.5 20 L 258 20.5 L 257.164 21.5 L 256.836 22.5 L 256.164 23.5 L 256.02 24.5 L 256.012 25.5 L 256.04 26.5 L 256.25 27.5 L 256.328 28.5 L 256.5 28.791 L 256.836 29.5 L 256.99 30.5 L 257 31.5 L 257.5 32 L 266.5 32 L 267 31.5 L 267 25.5 L 267.5 25 L 269.5 25.01 L 270.5 25 L 271 25.5 L 271 32.5 L 270.98 33.5 L 271 34.5 L 271 36.5 L 270.5 37 L 255.5 37 L 255 36.5 L 254.836 35.5 L 254.164 34.5 L 253.836 33.5 L 253.5 32.929 L 253.224 32.5 L 253 31.5 L 252.836 30.5 L 252.5 29.783 L 252.333 29.5 L 252 27.5 L 252.02 26.5 L 252.006 25.5 L 252.02 23.5 L 252.164 22.5 L 252.5 21.934 L 252.78 21.5 L 253 20.5 L 253.164 19.5 L 254.836 17.5 L 255 16.5 L 255.5 16 L 256.5 15.836 L 258.5 14.164 L 259.5 13.836 L 260.071 13.5 L 260.5 13.224 L 261.5 13.06 L 262.5 12.98 L 263.5 12.836 L 264.071 12.5 Z M 77.071 14.5 L 77.5 14.224 L 78.5 14.072 L 79.5 14 L 81.5 14.02 L 82.5 14.164 L 83.066 14.5 L 83.5 14.78 L 84.5 14.928 L 85.5 15 L 87.5 15.02 L 88.5 15.164 L 89.5 15.836 L 90.5 16.164 L 91.5 16.836 L 92.5 17.164 L 93.5 18 L 93.931 18.5 L 94.5 19.466 L 95.5 20.099 L 95.836 20.5 L 96.164 21.5 L 96.836 22.5 L 97 23.5 L 97.22 24.5 L 97.5 24.934 L 97.836 25.5 L 97.881 26.5 L 97.988 27.5 L 97.994 28.5 L 97.75 29.5 L 97.667 30.5 L 97.5 30.783 L 97.164 31.5 L 97 32.5 L 96.776 33.5 L 96.5 33.834 L 96 34.5 L 95.164 35.5 L 95 36.5 L 94.5 37 L 93.5 37.164 L 91.5 38.836 L 90.5 39.164 L 89.5 39.869 L 89.131 39.5 L 88.836 38.5 L 88.5 37.814 L 88.312 37.5 L 88.077 36.5 L 88 35.5 L 88.5 35 L 89.5 34.836 L 89.901 34.5 L 90.5 33.811 L 90.811 33.5 L 91.5 33 L 92 32.5 L 92.836 31.5 L 93.164 30.5 L 93.5 29.75 L 93.644 29.5 L 93.792 28.5 L 93.98 27.5 L 93.644 26.5 L 93.5 26.25 L 93.164 25.5 L 92.836 24.5 L 92.164 23.5 L 92 22.5 L 91.5 22 L 90.5 21.836 L 89.5 21.164 L 88.5 20.836 L 87.5 20.164 L 86.5 20.02 L 74.5 20 L 73.5 20.072 L 72.5 20.22 L 72.066 20.5 L 71.5 20.836 L 70.5 21.164 L 69.5 22 L 69 22.5 L 68.527 23.5 L 67.5 24.099 L 67.164 24.5 L 66.836 25.5 L 66.5 26.139 L 66.277 26.5 L 66.02 27.5 L 66.012 28.5 L 66.224 29.5 L 66.385 30.5 L 66.5 30.704 L 66.836 31.5 L 67 32.5 L 67.22 33.5 L 67.5 33.839 L 68.161 34.5 L 68.5 34.78 L 69.5 34.928 L 70.5 35 L 76.5 35 L 77 34.5 L 77 33.5 L 76.98 32.5 L 77 27.5 L 77.5 27 L 80.5 27 L 81 27.5 L 81 39.5 L 80.5 40 L 68.5 40 L 67.5 39.928 L 66.5 39.776 L 66.166 39.5 L 65.5 38.901 L 65.164 38.5 L 64.836 37.5 L 64.164 36.5 L 63.836 35.5 L 63.5 34.861 L 63.277 34.5 L 63.06 33.5 L 62.836 31.5 L 62.5 30.783 L 62.333 30.5 L 62.25 29.5 L 62.006 28.5 L 62.012 27.5 L 62.119 26.5 L 62.164 25.5 L 62.5 24.934 L 62.78 24.5 L 63 23.5 L 63.164 22.5 L 63.836 21.5 L 64.164 20.5 L 64.5 20.099 L 65.527 19.5 L 66 18.5 L 66.5 18 L 67.5 17.164 L 68.5 16.836 L 69.071 16.5 L 69.5 16.224 L 70.5 16 L 71.5 15.836 L 72.071 15.5 L 72.5 15.224 L 73.5 15.072 L 74.5 14.988 L 75.5 14.98 L 76.5 14.836 L 77.071 14.5 Z M 168.071 14.5 L 168.5 14.224 L 169.5 14.072 L 170.5 14 L 178.5 14.02 L 179.5 14.164 L 180.066 14.5 L 180.5 14.78 L 181.5 14.94 L 182.5 15.02 L 183.5 15.164 L 184.5 15.836 L 185.5 16.164 L 186.5 16.836 L 187.5 17.164 L 188.5 18 L 189 18.5 L 189.836 19.5 L 190.164 20.5 L 190.836 21.5 L 191 22.5 L 191.22 23.5 L 191.5 23.934 L 191.836 24.5 L 191.98 25.5 L 191.811 26.5 L 191.776 27.5 L 191.615 28.5 L 191.5 28.704 L 191.164 29.5 L 191 30.5 L 190.776 31.5 L 190.5 31.929 L 190.164 32.5 L 189.836 33.5 L 189 34.5 L 188.5 35 L 187.811 35.5 L 187.5 35.811 L 186.901 36.5 L 186.5 36.836 L 185.5 37 L 184.5 37.22 L 184.066 37.5 L 183.5 37.836 L 182.5 38 L 181.5 38.22 L 181.066 38.5 L 180.5 38.836 L 179.5 38.98 L 169.5 39 L 168.5 38.928 L 167.5 38.776 L 167.071 38.5 L 166.5 38.164 L 165.5 38 L 164.5 37.776 L 164.071 37.5 L 163.5 37.164 L 162.5 36.836 L 161.5 36.164 L 160.5 35.836 L 159.5 35 L 159 34.5 L 158.164 33.5 L 157.836 32.5 L 157.164 31.5 L 156.836 30.5 L 156.5 29.783 L 156.333 29.5 L 156 27.5 L 156.02 26.5 L 156.02 24.5 L 156.164 23.5 L 156.836 22.5 L 157.164 21.5 L 157.836 20.5 L 158.164 19.5 L 159 18.5 L 159.5 18 L 160.5 17.164 L 161.5 16.836 L 162.5 16.164 L 163.5 15.836 L 164.071 15.5 L 164.5 15.224 L 165.5 15.06 L 166.5 14.98 L 167.5 14.836 L 168.071 14.5 Z M 451.071 14.5 L 451.5 14.224 L 452.5 14.072 L 453.5 14 L 463.5 14.02 L 464.5 14.164 L 465.066 14.5 L 465.5 14.78 L 466.5 15 L 467.5 15.164 L 468.5 15.836 L 469.5 16.164 L 470.5 16.836 L 471.5 17.164 L 471.901 17.5 L 472.5 18.099 L 472.836 18.5 L 473.164 19.5 L 474.836 21.5 L 474.98 22.5 L 475.06 23.5 L 475.277 24.5 L 475.5 24.861 L 475.836 25.5 L 475.792 26.5 L 475.792 27.5 L 475.644 28.5 L 475.5 28.75 L 475.164 29.5 L 475.02 30.5 L 474.94 31.5 L 474.776 32.5 L 474.5 32.929 L 474.164 33.5 L 473.836 34.5 L 473 35.5 L 472.5 36 L 471.5 36.836 L 470.5 37.164 L 469.5 38 L 468.796 38.5 L 468.5 38.741 L 467.5 39 L 467 38.5 L 466.836 37.5 L 466.5 36.814 L 466.312 36.5 L 466.077 35.5 L 466 34.5 L 466.5 34 L 467.5 33.836 L 467.901 33.5 L 468.5 32.811 L 468.811 32.5 L 469.5 32 L 470 31.5 L 470.836 30.5 L 471.164 29.5 L 471.5 28.814 L 471.688 28.5 L 471.818 27.5 L 471.688 26.5 L 471.5 26.122 L 471.224 25.5 L 471 24.5 L 470.836 23.5 L 470 22.5 L 469.5 22 L 468.5 21.164 L 467.5 20.836 L 466.5 20.164 L 465.5 19.836 L 464.5 19.164 L 463.5 19.02 L 454.5 19 L 453.5 19.072 L 452.5 19.22 L 452.066 19.5 L 451.5 19.836 L 450.5 20 L 449.5 20.22 L 449.066 20.5 L 448.5 20.836 L 447.5 21.164 L 446.5 22 L 446 22.5 L 445.164 23.5 L 444.836 24.5 L 444.164 25.5 L 444.116 26.5 L 444.012 27.5 L 444.006 28.5 L 444.25 29.5 L 444.328 30.5 L 444.5 30.791 L 444.836 31.5 L 444.99 32.5 L 445 33.5 L 445.5 34 L 454.5 34 L 455 33.5 L 455 27.5 L 455.5 27 L 457.5 27.01 L 458.5 27 L 459 27.5 L 459 38.5 L 458.5 39 L 446.5 39 L 445.5 38.928 L 444.5 38.776 L 444.166 38.5 L 443.5 38 L 443 37.5 L 442.5 36.834 L 442.224 36.5 L 442 35.5 L 441.836 34.5 L 441.5 33.929 L 441.224 33.5 L 441 32.5 L 440.836 31.5 L 440.5 30.783 L 440.333 30.5 L 440 28.5 L 440.02 24.5 L 440.164 23.5 L 440.836 22.5 L 441.164 21.5 L 442.836 19.5 L 443 18.5 L 443.5 18 L 444.5 17.836 L 446.5 16.164 L 447.5 15.836 L 448.071 15.5 L 448.5 15.224 L 449.5 15 L 450.5 14.836 L 451.071 14.5 Z M 548.071 15.5 L 548.5 15.224 L 549.5 15.072 L 550.5 15 L 555.5 15.02 L 556.5 15.164 L 557.066 15.5 L 557.5 15.78 L 558.5 15.928 L 559.5 16.012 L 560.5 16.02 L 561.5 16.164 L 562.5 16.836 L 563.5 17.164 L 564.5 17.836 L 565.5 18.164 L 566.5 19 L 566.931 19.5 L 567.5 20.466 L 568.5 21.099 L 568.836 21.5 L 569.164 22.5 L 569.836 23.5 L 569.98 24.5 L 570 30.5 L 569.836 31.5 L 569.776 32.5 L 569.5 32.929 L 569.164 33.5 L 568.836 34.5 L 568 35.5 L 567.5 36 L 566.811 36.5 L 566.5 36.811 L 565.901 37.5 L 565.5 37.836 L 564.5 38.164 L 563.5 38.836 L 562.5 39 L 561.5 39.22 L 561.066 39.5 L 560.5 39.836 L 559.5 39.98 L 547.5 40 L 546.5 39.928 L 545.5 39.776 L 545.071 39.5 L 544.5 39.164 L 543.5 39 L 542.5 38.776 L 542.071 38.5 L 541.5 38.164 L 540.5 37.836 L 539.5 37.164 L 538.5 36.836 L 538.099 36.5 L 537.5 35.901 L 537.164 35.5 L 536.836 34.5 L 536 33.5 L 535.5 32.834 L 535.224 32.5 L 535.164 31.5 L 535 30.5 L 535.02 24.5 L 535.164 23.5 L 535.836 22.5 L 536.164 21.5 L 536.5 21.099 L 537.527 20.5 L 538 19.5 L 538.5 19 L 539.5 18.164 L 540.5 17.836 L 541.5 17.164 L 542.5 16.836 L 543.071 16.5 L 543.5 16.224 L 544.5 16.072 L 545.5 15.988 L 546.5 15.98 L 547.5 15.836 L 548.071 15.5 Z M 372 16.5 L 372.5 16 L 374.5 16.01 L 375.5 16 L 376 16.5 L 375.988 18.5 L 376.22 20.5 L 376.5 20.934 L 376.836 21.5 L 377 22.5 L 377.22 23.5 L 377.5 23.839 L 378 24.5 L 378.836 25.5 L 379.164 26.5 L 379.5 26.901 L 380.099 27.5 L 380.5 27.836 L 381.5 28 L 382 28.5 L 382 32.5 L 381.5 33 L 351.5 33 L 351 33.5 L 350.98 38.5 L 350.98 39.5 L 351 40.5 L 351 41.5 L 350.5 42 L 349.5 41.99 L 347.5 42 L 347 41.5 L 347 40.5 L 347.02 39.5 L 347.02 38.5 L 347 37.5 L 347 17.5 L 347.5 17 L 349.5 17.01 L 350.5 17 L 351 17.5 L 351 27.5 L 351.5 28 L 374.5 27.98 L 375.5 27.872 L 375.872 27.5 L 375.164 26.5 L 374.836 25.5 L 374 24.5 L 373.5 23.774 L 373.277 23.5 L 373.06 22.5 L 372.98 21.5 L 372.723 20.5 L 372.356 19.5 L 372.208 18.5 L 372.01 17.5 L 372 16.5 Z M 642.071 16.5 L 642.5 16.224 L 643.5 16.072 L 644.5 16 L 655.5 16.02 L 656.5 16.164 L 657.066 16.5 L 657.5 16.78 L 658.5 17 L 659.5 17.164 L 660.5 17.836 L 661.5 18.164 L 662.5 19 L 662.931 19.5 L 663.5 20.466 L 664.5 21.099 L 664.836 21.5 L 665.164 22.5 L 665.836 23.5 L 666 24.5 L 666.22 25.5 L 666.723 26.5 L 666.98 27.5 L 666.994 29.5 L 666.75 30.5 L 666.667 31.5 L 666.5 31.84 L 666.22 32.5 L 665.776 34.5 L 665.5 34.929 L 665.164 35.5 L 664.836 36.5 L 664 37.5 L 663.5 38 L 662.5 38.836 L 661.5 39.164 L 660.5 39.836 L 659.5 40.164 L 658.5 40.869 L 658.131 40.5 L 657.836 39.5 L 657.5 38.814 L 657.312 38.5 L 657.077 37.5 L 657 36.5 L 657.5 36 L 658.5 35.836 L 658.901 35.5 L 659.5 34.811 L 659.811 34.5 L 660.5 34 L 661 33.5 L 661.836 32.5 L 662.164 31.5 L 662.5 30.75 L 662.644 30.5 L 662.792 29.5 L 662.98 28.5 L 662.836 27.5 L 662.164 26.5 L 661.836 25.5 L 661.5 25.099 L 660.5 24.466 L 659.931 23.5 L 659.5 23 L 658.5 22.164 L 657.5 22 L 656.5 21.776 L 656.071 21.5 L 655.5 21.164 L 654.5 21.02 L 644.5 21 L 643.5 21.072 L 642.5 21.22 L 642.066 21.5 L 641.5 21.836 L 640.5 22.164 L 639.5 22.836 L 638.5 23.164 L 637.5 24 L 637 24.5 L 636.164 25.5 L 635.836 26.5 L 635.164 27.5 L 635.02 28.5 L 635.012 29.5 L 635.224 30.5 L 635.392 31.5 L 635.5 31.742 L 635.776 32.5 L 636.22 34.5 L 636.5 34.839 L 637.161 35.5 L 637.5 35.78 L 638.5 35.928 L 639.5 36 L 645.5 36 L 646 35.5 L 646 34.5 L 645.98 33.5 L 645.98 32.5 L 646.012 31.5 L 646 29.5 L 646.5 29 L 648.5 29.01 L 649.5 29 L 650 29.5 L 650 37.5 L 649.98 38.5 L 650 39.5 L 650 40.5 L 649.5 41 L 637.5 41 L 636.5 40.928 L 635.5 40.776 L 635.166 40.5 L 634.5 39.901 L 634.164 39.5 L 633.836 38.5 L 633.164 37.5 L 632.836 36.5 L 632.5 35.929 L 632.224 35.5 L 631.78 33.5 L 631.224 32.5 L 631.164 31.5 L 631 30.5 L 631.02 27.5 L 631.277 26.5 L 631.78 25.5 L 632 24.5 L 632.164 23.5 L 633.836 21.5 L 634.164 20.5 L 634.5 20.099 L 635.099 19.5 L 635.5 19.164 L 636.5 18.836 L 637.5 18.164 L 638.5 17.836 L 639.071 17.5 L 639.5 17.224 L 640.5 17 L 641.5 16.836 L 642.071 16.5 Z M 1024.071 16.5 L 1024.5 16.224 L 1025.5 16.072 L 1026.5 16 L 1031.5 16.02 L 1032.5 16.164 L 1033.066 16.5 L 1033.5 16.78 L 1034.5 16.94 L 1035.5 17.02 L 1036.5 17.164 L 1037.066 17.5 L 1037.5 17.78 L 1038.5 18 L 1039.5 18.164 L 1040.5 19 L 1040.978 19.5 L 1041.5 20.136 L 1041.996 20.5 L 1042.5 20.98 L 1042.867 21.5 L 1043.5 22.258 L 1044.5 23.099 L 1044.836 23.5 L 1045 24.5 L 1045.22 25.5 L 1045.723 26.5 L 1045.98 27.5 L 1046 30.5 L 1045.836 31.5 L 1045.776 32.5 L 1045.22 33.5 L 1044.776 35.5 L 1044.5 35.929 L 1044.164 36.5 L 1043.836 37.5 L 1043.5 37.901 L 1042.901 38.5 L 1042.5 38.836 L 1041.5 39.164 L 1039.5 40.836 L 1038.5 41.164 L 1037.5 41.825 L 1037.175 41.5 L 1037 40.5 L 1036.78 39.5 L 1036.259 38.5 L 1036 37.5 L 1036.5 37 L 1037.5 36.836 L 1037.901 36.5 L 1038.5 35.811 L 1038.811 35.5 L 1039.5 35 L 1040 34.5 L 1040.836 33.5 L 1041.164 32.5 L 1041.5 31.704 L 1041.615 31.5 L 1041.776 30.5 L 1041.988 29.5 L 1041.98 28.5 L 1041.836 27.5 L 1041.164 26.5 L 1040.836 25.5 L 1040 24.5 L 1039.5 24 L 1038.5 23.164 L 1037.5 22.836 L 1036.5 22.164 L 1035.5 22.02 L 1033.5 22 L 1032.5 21.928 L 1031.5 21.776 L 1031.071 21.5 L 1030.5 21.164 L 1029.5 21.02 L 1027.5 21 L 1026.5 21.072 L 1025.5 21.22 L 1025.066 21.5 L 1024.5 21.836 L 1023.5 21.98 L 1022.5 21.988 L 1021.5 22.072 L 1020.5 22.22 L 1020.066 22.5 L 1019.5 22.836 L 1018.5 23.164 L 1017.5 24 L 1017 24.5 L 1016.527 25.5 L 1015.5 26.099 L 1015.164 26.5 L 1014.836 27.5 L 1014.164 28.5 L 1014.02 29.5 L 1014.208 30.5 L 1014.361 31.5 L 1014.723 32.5 L 1014.94 33.5 L 1015.06 34.5 L 1015.277 35.5 L 1015.5 35.774 L 1016.161 36.5 L 1016.5 36.78 L 1017.5 36.928 L 1018.5 37 L 1024.5 37 L 1025 36.5 L 1025 34.5 L 1024.98 33.5 L 1025 29.5 L 1025.5 29 L 1027.5 29.01 L 1028.5 29 L 1029 29.5 L 1029 37.5 L 1028.98 38.5 L 1028.98 39.5 L 1029 40.5 L 1029 41.5 L 1028.5 42 L 1014.5 42 L 1014 41.5 L 1013.836 40.5 L 1013 39.5 L 1012.5 38.834 L 1012.224 38.5 L 1012 37.5 L 1011.836 36.5 L 1011.5 35.861 L 1011.277 35.5 L 1011.06 34.5 L 1010.94 33.5 L 1010.723 32.5 L 1010.398 31.5 L 1010.224 30.5 L 1010.012 29.5 L 1010.02 28.5 L 1010.164 27.5 L 1010.5 26.934 L 1010.78 26.5 L 1011 25.5 L 1011.164 24.5 L 1011.836 23.5 L 1012.164 22.5 L 1012.5 22.099 L 1013.527 21.5 L 1014 20.5 L 1014.5 20 L 1015.5 19.164 L 1016.5 18.836 L 1017.5 18.164 L 1018.5 17.836 L 1019.071 17.5 L 1019.5 17.224 L 1020.5 17.072 L 1021.5 16.988 L 1022.5 16.98 L 1023.5 16.836 L 1024.071 16.5 Z M 725 17.5 L 725.5 17 L 727.5 17.01 L 728.5 17 L 729 17.5 L 729 25.5 L 729.02 26.5 L 729 27.5 L 729 28.5 L 729.5 29 L 753.5 28.98 L 754.5 28.836 L 754.836 28.5 L 754.5 28.164 L 753.5 28.02 L 753 27.5 L 752.836 26.5 L 752.164 25.5 L 751.836 24.5 L 751.5 23.929 L 751.224 23.5 L 751 22.5 L 750.836 21.5 L 750.5 20.929 L 750.224 20.5 L 750.208 19.5 L 750.01 18.5 L 750 17.5 L 750.5 17 L 752.5 17.01 L 753.5 17 L 754 17.5 L 753.988 19.5 L 754.072 20.5 L 754.328 21.5 L 754.5 21.791 L 754.836 22.5 L 755.164 23.5 L 755.836 24.5 L 756.164 25.5 L 757 26.5 L 757.5 27 L 757.957 27.5 L 758.5 28.258 L 759.5 29.099 L 759.836 29.5 L 759.98 30.5 L 760 31.5 L 760 32.5 L 759.5 33 L 729.5 33 L 729 33.5 L 728.98 38.5 L 728.98 39.5 L 729 40.5 L 729 41.5 L 728.5 42 L 727.5 41.99 L 725.5 42 L 725 41.5 L 725 40.5 L 725.02 39.5 L 725.02 38.5 L 725 37.5 L 725 17.5 Z M 831.071 17.5 L 831.5 17.224 L 832.5 17.072 L 833.5 17 L 843.5 17.02 L 844.5 17.164 L 845.066 17.5 L 845.5 17.78 L 846.5 18 L 847.5 18.164 L 848.5 18.836 L 849.5 19.164 L 850.5 20 L 850.978 20.5 L 851.5 21.136 L 851.846 21.5 L 852.5 22.258 L 853.5 23.099 L 853.836 23.5 L 854.164 24.5 L 854.836 25.5 L 854.881 26.5 L 854.988 27.5 L 855 31.5 L 854.928 33.5 L 854.667 34.5 L 854.5 34.783 L 854.164 35.5 L 853.836 36.5 L 853.164 37.5 L 852.836 38.5 L 852.5 38.901 L 851.901 39.5 L 851.5 39.836 L 850.5 40.164 L 849.5 41 L 848.796 41.5 L 848.5 41.741 L 847.5 41.741 L 847.204 41.5 L 846.361 40.5 L 846.208 39.5 L 846 38.5 L 846 37.5 L 846.5 37 L 847.5 36.836 L 847.901 36.5 L 848.5 35.811 L 848.811 35.5 L 849.5 35 L 850 34.5 L 850.5 33.839 L 850.78 33.5 L 850.928 32.5 L 851 31.5 L 850.98 28.5 L 850.836 27.5 L 850.164 26.5 L 849.836 25.5 L 849.5 25.099 L 848.901 24.5 L 848.5 24.164 L 847.5 23.836 L 846.5 23.164 L 845.5 23 L 844.5 22.776 L 844.071 22.5 L 843.5 22.164 L 842.5 22.02 L 834.5 22 L 833.5 22.072 L 832.5 22.22 L 832.066 22.5 L 831.5 22.836 L 830.5 23 L 829.5 23.22 L 829.066 23.5 L 828.5 23.836 L 827.5 24.164 L 826.5 25 L 826 25.5 L 825.527 26.5 L 824.5 27.099 L 824.164 27.5 L 824.02 28.5 L 824 31.5 L 824.072 33.5 L 824.328 34.5 L 824.5 34.791 L 824.836 35.5 L 825 36.5 L 825.5 37 L 833.5 37 L 834 36.5 L 834 34.5 L 833.98 33.5 L 834.01 31.5 L 834 30.5 L 834.5 30 L 836.5 30.01 L 837.5 30 L 838 30.5 L 837.99 31.5 L 838 37.5 L 837.98 38.5 L 837.98 39.5 L 838 40.5 L 838 41.5 L 837.5 42 L 823.5 42 L 823 41.5 L 822.836 40.5 L 822.164 39.5 L 821.836 38.5 L 821.5 37.929 L 821.224 37.5 L 821 36.5 L 820.836 35.5 L 820.5 34.783 L 820.333 34.5 L 820.072 33.5 L 820 31.5 L 820.02 27.5 L 820.277 26.5 L 820.5 26.139 L 820.836 25.5 L 821.164 24.5 L 821.836 23.5 L 822.164 22.5 L 823 21.5 L 823.5 21 L 824.5 20.164 L 825.5 19.836 L 826.5 19.164 L 827.5 18.836 L 828.071 18.5 L 828.5 18.224 L 829.5 18 L 830.5 17.836 L 831.071 17.5 Z M 13 19.5 L 13.5 19 L 47.5 19 L 48 19.5 L 48 29.5 L 47.667 31.5 L 47.5 31.84 L 47.22 32.5 L 46.776 34.5 L 46.5 34.929 L 46.164 35.5 L 45.836 36.5 L 45 37.5 L 44.5 38 L 43.908 38.5 L 43.5 39.012 L 42.5 40.012 L 41.907 40.5 L 41.5 40.811 L 40.901 41.5 L 40.5 41.836 L 39.5 42 L 38.5 42.22 L 38.066 42.5 L 37.5 42.836 L 36.5 42.98 L 26.5 43 L 25.5 42.928 L 24.5 42.776 L 24.071 42.5 L 23.5 42.164 L 22.5 42 L 21.5 41.776 L 21.071 41.5 L 20.5 41.164 L 19.5 40.836 L 19.099 40.5 L 18.5 39.758 L 18.242 39.5 L 17.5 39 L 17 38.5 L 16.164 37.5 L 15.836 36.5 L 15.164 35.5 L 14.836 34.5 L 14.5 33.929 L 14.224 33.5 L 14.072 32.5 L 13.988 31.5 L 13.98 30.5 L 13.836 29.5 L 13.5 28.783 L 13.333 28.5 L 13.164 27.5 L 13.04 26.5 L 13 25.5 L 13 19.5 Z M 166.5 19.22 L 166.066 19.5 L 165.5 19.836 L 164.5 20 L 163.5 20.22 L 163.161 20.5 L 162.5 21 L 162 21.5 L 161.164 22.5 L 160.836 23.5 L 160.164 24.5 L 160.02 25.5 L 160.189 26.5 L 160.224 27.5 L 160.385 28.5 L 160.5 28.704 L 160.836 29.5 L 161.164 30.5 L 162 31.5 L 162.5 32 L 163.161 32.5 L 163.5 32.78 L 164.5 33 L 165.5 33.164 L 166.066 33.5 L 166.5 33.78 L 167.5 33.928 L 168.5 34 L 180.5 33.98 L 181.5 33.836 L 182.071 33.5 L 182.5 33.224 L 183.5 33 L 184.5 32.836 L 185.5 32 L 186 31.5 L 186.836 30.5 L 187.164 29.5 L 187.5 28.704 L 187.615 28.5 L 187.776 27.5 L 187.811 26.5 L 187.98 25.5 L 187.836 24.5 L 187.164 23.5 L 186.836 22.5 L 186 21.5 L 185.5 21 L 184.5 20.164 L 183.5 20 L 182.5 19.776 L 182.071 19.5 L 181.5 19.164 L 180.5 19.02 L 168.5 19 L 167.5 19.072 L 166.5 19.22 Z M 915 19.5 L 915.5 19 L 916.5 19 L 917.5 19.02 L 918.5 19.164 L 919.5 19.836 L 920.5 20.164 L 921.5 21 L 921.978 21.5 L 922.5 22.136 L 922.996 22.5 L 927.5 26.98 L 927.867 27.5 L 928.5 28.258 L 929.5 29.099 L 929.836 29.5 L 930.164 30.5 L 931 31.5 L 931.5 32 L 932.111 32.5 L 932.5 32.98 L 933.5 33.98 L 934.5 34.758 L 935.099 35.5 L 935.5 35.836 L 936.5 36.164 L 937.5 36.836 L 938.5 37.164 L 939.186 37.5 L 939.5 37.688 L 940.5 37.818 L 941.5 37.836 L 942.5 37.164 L 943.5 36.836 L 944.5 36 L 945 35.5 L 945.5 34.715 L 945.672 34.5 L 945.928 33.5 L 945.994 31.5 L 945.98 29.5 L 945.836 28.5 L 945.164 27.5 L 944.836 26.5 L 944.5 26.099 L 943.901 25.5 L 943.5 25.164 L 942.5 24.836 L 941.5 24.164 L 940.5 24 L 940 23.5 L 940 22.5 L 940.02 21.5 L 940.356 20.5 L 940.5 20.318 L 941.5 19.481 L 942.5 19.78 L 943.5 20 L 944.5 20.164 L 945.5 21 L 945.978 21.5 L 946.5 22.136 L 946.846 22.5 L 947.5 23.258 L 948.5 24.099 L 948.836 24.5 L 949 25.5 L 949.22 26.5 L 949.5 26.934 L 949.836 27.5 L 949.98 28.5 L 950 31.5 L 949.928 33.5 L 949.667 34.5 L 949.5 34.783 L 949.164 35.5 L 949 36.5 L 948.776 37.5 L 948.5 37.834 L 948 38.5 L 947.5 39 L 946.908 39.5 L 946.5 40.012 L 945.907 40.5 L 945.5 40.811 L 944.901 41.5 L 944.5 41.836 L 943.5 41.98 L 939.5 42 L 938.5 41.928 L 937.5 41.776 L 937.071 41.5 L 936.5 41.164 L 935.5 40.836 L 934.5 40.164 L 933.5 39.836 L 933.099 39.5 L 932.5 38.758 L 931.5 37.98 L 931.111 37.5 L 930.5 37 L 930 36.5 L 929.164 35.5 L 928.836 34.5 L 928.5 34.099 L 927.5 33.258 L 926.957 32.5 L 926.5 32 L 926 31.5 L 925.164 30.5 L 924.836 29.5 L 924.5 29.099 L 923.5 28.466 L 922.931 27.5 L 922.5 27 L 921.5 26.164 L 920.5 25.836 L 919.5 25.128 L 919.128 25.5 L 919.116 26.5 L 919.012 27.5 L 919 38.5 L 918.98 39.5 L 919 40.5 L 919 42.5 L 918.5 43 L 915.5 43 L 915 42.5 L 915 40.5 L 915.02 39.5 L 915 38.5 L 915 19.5 Z M 1114.114 19.5 L 1114.5 19.259 L 1115.5 19 L 1116 19.5 L 1116.01 20.5 L 1116.22 21.5 L 1116.741 22.5 L 1117 23.5 L 1116.5 24 L 1115.5 24.01 L 1114.5 24.22 L 1114.161 24.5 L 1113.5 25 L 1113 25.5 L 1112.5 26.161 L 1111.199 27.5 L 1110.5 28.099 L 1110.164 28.5 L 1110.02 29.5 L 1110.006 31.5 L 1110.072 33.5 L 1110.328 34.5 L 1110.5 34.791 L 1110.836 35.5 L 1111.164 36.5 L 1112 37.5 L 1112.5 38 L 1113.161 38.5 L 1113.5 38.78 L 1114.5 38.928 L 1115.5 39 L 1117.5 38.98 L 1118.5 38.836 L 1119.5 38 L 1120 37.5 L 1120.5 36.839 L 1120.78 36.5 L 1121 35.5 L 1121.164 34.5 L 1121.5 33.934 L 1121.78 33.5 L 1121.928 32.5 L 1122.006 31.5 L 1122 28.5 L 1122.5 28 L 1124.5 28.01 L 1125.5 28 L 1126 28.5 L 1125.988 30.5 L 1126.22 32.5 L 1126.776 33.5 L 1127.22 35.5 L 1127.5 35.839 L 1128 36.5 L 1128.5 37 L 1129.161 37.5 L 1129.5 37.78 L 1130.5 37.928 L 1131.5 38 L 1133.5 37.98 L 1134.5 37.836 L 1134.901 37.5 L 1135.5 36.811 L 1135.811 36.5 L 1136.5 36 L 1137 35.5 L 1137.5 34.715 L 1137.672 34.5 L 1137.928 33.5 L 1137.988 31.5 L 1137.98 30.5 L 1137.836 29.5 L 1137.164 28.5 L 1136.836 27.5 L 1136 26.5 L 1135.5 26 L 1134.5 25.164 L 1133.5 24.836 L 1133.099 24.5 L 1132.361 23.5 L 1132.208 22.5 L 1132.01 21.5 L 1132 20.5 L 1132.5 20 L 1134.5 20.164 L 1135.5 20.836 L 1136.5 21.164 L 1137.5 22 L 1137.978 22.5 L 1138.5 23.136 L 1138.846 23.5 L 1139.5 24.258 L 1140.5 25.099 L 1140.836 25.5 L 1141.06 27.5 L 1141.277 28.5 L 1141.5 28.861 L 1141.836 29.5 L 1141.98 30.5 L 1141.988 31.5 L 1141.928 33.5 L 1141.667 34.5 L 1141.5 34.783 L 1141.164 35.5 L 1141 36.5 L 1140.776 37.5 L 1140.5 37.929 L 1140.164 38.5 L 1139.836 39.5 L 1139 40.5 L 1138.5 41 L 1137.5 41.836 L 1136.5 42.164 L 1135.5 42.836 L 1134.5 42.98 L 1132.5 43 L 1131.5 42.928 L 1130.5 42.776 L 1130.071 42.5 L 1129.5 42.164 L 1128.5 41.836 L 1128.099 41.5 L 1127.5 40.758 L 1127.242 40.5 L 1126.5 40 L 1126 39.5 L 1125.164 38.5 L 1124.872 37.5 L 1124.5 37.128 L 1124.061 37.5 L 1123.5 38.099 L 1123.164 38.5 L 1122.836 39.5 L 1122.164 40.5 L 1122 41.5 L 1121.5 42 L 1120.5 42.164 L 1118.5 43.836 L 1117.5 43.98 L 1115.5 44 L 1114.5 43.928 L 1113.5 43.776 L 1113.071 43.5 L 1112.5 43.164 L 1111.5 42.836 L 1110.5 42.164 L 1109.5 42 L 1109 41.5 L 1108.836 40.5 L 1108 39.5 L 1107.5 38.834 L 1107.224 38.5 L 1107 37.5 L 1106.836 36.5 L 1106.5 35.783 L 1106.333 35.5 L 1106.164 34.5 L 1106.04 33.5 L 1106.006 31.5 L 1106.02 29.5 L 1106.164 28.5 L 1106.5 27.934 L 1106.78 27.5 L 1107 26.5 L 1107.164 25.5 L 1107.836 24.5 L 1108.164 23.5 L 1109 22.5 L 1109.5 22 L 1110.5 21.164 L 1111.5 20.836 L 1112.5 20.164 L 1113.5 19.836 L 1114.114 19.5 Z M 1159 19.5 L 1159.5 19 L 1193.5 19 L 1194 19.5 L 1194 31.5 L 1193.928 33.5 L 1193.667 34.5 L 1193.5 34.783 L 1193.164 35.5 L 1193 36.5 L 1192.776 37.5 L 1192.5 37.834 L 1192 38.5 L 1191.164 39.5 L 1191 40.5 L 1190.5 41 L 1189.5 41.164 L 1187.5 42.836 L 1186.5 42.98 L 1181.5 43 L 1180.5 42.928 L 1179.5 42.776 L 1179.071 42.5 L 1178.5 42.164 L 1177.5 41.836 L 1177.099 41.5 L 1176.5 40.758 L 1176.242 40.5 L 1175.5 40 L 1175 39.5 L 1174.164 38.5 L 1173.836 37.5 L 1173.5 36.861 L 1173.277 36.5 L 1173.06 35.5 L 1172.98 34.5 L 1172.723 33.5 L 1172.224 32.5 L 1172.164 31.5 L 1172 30.5 L 1171.99 25.5 L 1172 24.5 L 1171.5 24 L 1159.5 24 L 1159 23.5 L 1159.012 21.5 L 1159 19.5 Z M 546.5 20.22 L 546.066 20.5 L 545.5 20.836 L 544.5 20.98 L 543.5 21.06 L 542.5 21.22 L 542.161 21.5 L 541.5 22 L 541 22.5 L 540.527 23.5 L 539.5 24.099 L 539.164 24.5 L 539 25.5 L 538.776 26.5 L 538.481 27.5 L 538.836 28.5 L 538.98 29.5 L 539.06 30.5 L 539.277 31.5 L 539.5 31.774 L 540 32.5 L 540.5 33 L 541.161 33.5 L 541.5 33.78 L 542.5 34 L 543.5 34.164 L 544.066 34.5 L 544.5 34.78 L 545.5 34.928 L 546.5 35.012 L 547.5 35.02 L 548.5 35.164 L 549.066 35.5 L 549.5 35.78 L 550.5 35.928 L 551.5 36 L 555.5 35.98 L 556.5 35.836 L 557.071 35.5 L 557.5 35.224 L 558.5 35.072 L 559.5 34.988 L 560.5 34.98 L 561.5 34.836 L 562.5 34.164 L 563.5 33.836 L 564.5 33 L 565 32.5 L 565.5 31.715 L 565.672 31.5 L 566 29.5 L 565.994 27.5 L 565.936 26.5 L 565.98 25.5 L 565.836 24.5 L 565.5 24.099 L 564.5 23.466 L 563.931 22.5 L 563.5 22 L 562.5 21.164 L 561.5 21.02 L 560.5 20.94 L 559.5 20.776 L 559.071 20.5 L 558.5 20.164 L 557.5 20.02 L 548.5 20 L 547.5 20.072 L 546.5 20.22 Z M 17.5 24 L 17 24.5 L 17.01 25.5 L 17.208 26.5 L 17.356 27.5 L 17.5 27.75 L 17.836 28.5 L 17.98 29.5 L 17.988 30.5 L 18.22 32.5 L 18.5 32.839 L 19 33.5 L 19.5 34 L 20.111 34.5 L 20.5 34.98 L 21.5 35.758 L 22.099 36.5 L 22.5 36.836 L 23.5 37.164 L 24.066 37.5 L 24.5 37.78 L 25.5 37.928 L 26.5 38 L 36.5 37.98 L 37.5 37.836 L 38.5 37.164 L 39.5 36.836 L 40.5 36 L 41 35.5 L 41.836 34.5 L 42.164 33.5 L 42.836 32.5 L 43.164 31.5 L 43.5 30.791 L 43.672 30.5 L 44 28.5 L 44 24.5 L 43.5 24 L 17.5 24 Z M 171 24.5 L 171.5 24 L 176.5 24 L 177 24.5 L 176.99 25.5 L 177 29.5 L 176.5 30 L 171.5 30 L 171 29.5 L 171.01 25.5 L 171 24.5 Z M 1176.5 24 L 1176 24.5 L 1176.01 25.5 L 1176 30.5 L 1176.164 31.5 L 1176.22 32.5 L 1176.5 32.934 L 1176.836 33.5 L 1177.164 34.5 L 1178 35.5 L 1178.5 36 L 1179.242 36.5 L 1179.5 36.758 L 1180.161 37.5 L 1180.5 37.78 L 1181.5 37.928 L 1182.5 38 L 1185.5 37.98 L 1186.5 37.836 L 1187.5 37 L 1188 36.5 L 1188.836 35.5 L 1189.164 34.5 L 1189.5 33.934 L 1189.78 33.5 L 1189.928 32.5 L 1190 31.5 L 1189.99 25.5 L 1190 24.5 L 1189.5 24 L 1176.5 24 Z M 549 25.5 L 549.5 25 L 555.5 25 L 556 25.5 L 556 30.5 L 555.5 31 L 549.5 31 L 549 30.5 L 549 25.5 Z M 253 45.5 L 253.5 45 L 286.5 45 L 287 45.5 L 286.988 47.5 L 286.776 48.5 L 286.615 49.5 L 285.901 50.5 L 285.5 50.836 L 284.5 51.164 L 283.5 51.836 L 282.5 52.164 L 281.5 52.836 L 280.5 53.164 L 279.5 53.836 L 278.5 54.164 L 277.5 54.836 L 276.5 55.164 L 275.5 55.836 L 274.5 56.164 L 273.5 56.836 L 272.5 57 L 271.5 57.22 L 271.066 57.5 L 270.5 57.836 L 269.5 58.164 L 268.5 58.836 L 267.5 59.164 L 266.5 59.836 L 265.5 60.164 L 264.5 60.836 L 263.5 61.164 L 263 61.5 L 262.5 61.903 L 261.5 62.193 L 261.193 62.5 L 261.5 62.807 L 262.5 62.928 L 263.5 63 L 286.5 63 L 287 63.5 L 287 67.5 L 286.5 68 L 253.5 68 L 253 67.5 L 253 61.5 L 253.5 61 L 254.5 60.836 L 255.071 60.5 L 255.5 60.224 L 256.5 60 L 257.5 59.836 L 258.5 59.164 L 259.5 58.836 L 260.5 58.164 L 261.5 57.836 L 262.5 57.164 L 263.5 56.836 L 264.5 56.164 L 265.5 55.836 L 266.5 55.164 L 267.5 54.836 L 268.5 54.164 L 269.5 53.836 L 270.071 53.5 L 270.5 53.224 L 271.5 53 L 272.5 52.836 L 273.5 52.164 L 274.5 51.836 L 275.5 51.164 L 276.5 50.836 L 277.5 50.146 L 278.5 49.836 L 278.836 49.5 L 278.5 49.164 L 277.5 49.02 L 253.5 49 L 253 48.5 L 253.01 46.5 L 253 45.5 Z M 13 46.5 L 13.5 46 L 14.5 46.259 L 15.5 46.78 L 16.5 47 L 17.5 47.164 L 18.5 47.836 L 19.5 48.164 L 20.066 48.5 L 20.5 48.78 L 21.5 49 L 22.5 49.164 L 23.066 49.5 L 23.5 49.78 L 24.5 50 L 25.5 50.164 L 26.5 50.836 L 27.5 51.164 L 28.066 51.5 L 28.5 51.78 L 29.5 52 L 30.5 52.164 L 31.5 52.836 L 32.5 53.164 L 33.066 53.5 L 33.5 53.78 L 34.5 54 L 35.5 54.164 L 36.066 54.5 L 36.5 54.78 L 37.5 55 L 38.5 55.164 L 39.5 55.836 L 40.5 56.164 L 41.066 56.5 L 41.5 56.78 L 42.5 57 L 43.5 57.164 L 44.066 57.5 L 44.5 57.78 L 45.5 58 L 46.5 58.164 L 46.901 58.5 L 47.5 59.099 L 47.836 59.5 L 47.98 60.5 L 47.98 62.5 L 48 63.5 L 48 64.5 L 47.5 65 L 46.5 65.01 L 45.5 65.22 L 45.066 65.5 L 44.5 65.836 L 43.5 66.164 L 42.5 66.836 L 41.5 67 L 40.5 67.22 L 40.066 67.5 L 39.5 67.836 L 38.5 68 L 37.5 68.22 L 37.066 68.5 L 36.5 68.836 L 35.5 69.164 L 34.5 69.836 L 33.5 70 L 32.5 70.22 L 32.066 70.5 L 31.5 70.836 L 30.5 71 L 29.5 71.22 L 29.066 71.5 L 28.5 71.836 L 27.5 72.164 L 26.5 72.836 L 25.5 73 L 24.5 73.22 L 24.066 73.5 L 23.5 73.836 L 22.5 74 L 21.5 74.22 L 21.066 74.5 L 20.5 74.836 L 19.5 75.164 L 18.5 75.836 L 17.5 76 L 16.5 76.22 L 16.066 76.5 L 15.5 76.836 L 13.5 77 L 13 76.5 L 13 72.5 L 13.5 72 L 14.5 71.99 L 15.5 71.836 L 16.071 71.5 L 16.5 71.224 L 17.5 71 L 18.5 70.836 L 19.5 70.164 L 20.5 69.836 L 21.5 69.164 L 22.5 69 L 23 68.5 L 23 54.5 L 22.5 54 L 21.5 53.99 L 20.5 53.776 L 20.071 53.5 L 19.5 53.164 L 18.5 52.836 L 17.5 52.164 L 16.5 52 L 15.5 51.776 L 15.071 51.5 L 14.5 51.164 L 13.5 51 L 13 50.5 L 13 46.5 Z M 441 46.5 L 441.5 46 L 474.5 46 L 475 46.5 L 474.994 49.5 L 474.928 50.5 L 474.776 51.5 L 474.5 51.834 L 473.901 52.5 L 473.5 52.836 L 472.5 53.164 L 471.5 53.836 L 470.5 54.164 L 469.5 54.836 L 468.5 55.164 L 467.5 55.836 L 466.5 56.164 L 465.5 56.836 L 464.5 57 L 463.5 57.22 L 463.066 57.5 L 462.5 57.836 L 461.5 58.164 L 460.5 58.836 L 459.5 59.164 L 458.5 59.836 L 457.5 60.164 L 456.5 60.836 L 455.5 61.164 L 454.5 61.836 L 453.5 62.164 L 452.5 62.836 L 451.5 63.164 L 450.5 63.836 L 449.5 64.039 L 448.5 64.22 L 448.22 64.5 L 448.5 64.78 L 449.5 64.941 L 450.5 65 L 474.5 65 L 475 65.5 L 475 69.5 L 474.5 70 L 441.5 70 L 441 69.5 L 441 63.5 L 441.5 63 L 442.5 62.836 L 443.5 62.164 L 444.5 61.836 L 445.5 61.164 L 446.5 60.836 L 447.071 60.5 L 447.5 60.224 L 448.5 60 L 449.5 59.836 L 450.5 59.164 L 451.5 58.836 L 452.5 58.164 L 453.5 57.836 L 454.5 57.164 L 455.5 56.836 L 456.5 56.164 L 457.5 55.836 L 458.5 55.164 L 459.5 54.836 L 460.071 54.5 L 460.5 54.224 L 461.5 54 L 462.5 53.836 L 463.5 53.164 L 464.5 52.836 L 465.5 52.164 L 466.5 52 L 467.164 51.5 L 467.5 51.164 L 468.5 50.784 L 468.784 50.5 L 468.5 50.216 L 467.5 50 L 466.969 50.5 L 466.5 50.969 L 465.5 51 L 441.5 51 L 441 50.5 L 441 46.5 Z M 1190.071 46.5 L 1190.5 46.224 L 1191.5 46.208 L 1192.5 46.01 L 1193.5 46 L 1194 46.5 L 1194 50.5 L 1193.5 51 L 1190.5 51 L 1189.5 51.072 L 1188.5 51.22 L 1188.066 51.5 L 1187.5 51.836 L 1186.5 51.98 L 1183.5 52 L 1182.5 52.072 L 1181.5 52.22 L 1181.066 52.5 L 1180.5 52.836 L 1179.5 52.98 L 1175.5 53 L 1174.5 53.072 L 1173.5 53.22 L 1173.066 53.5 L 1172.5 53.836 L 1171.5 53.98 L 1166.5 54 L 1165.5 54.072 L 1164.5 54.22 L 1164.22 54.5 L 1164.5 54.78 L 1165.5 54.928 L 1166.5 55.012 L 1167.5 55.02 L 1168.5 55.164 L 1169.066 55.5 L 1169.5 55.78 L 1170.5 56 L 1171.5 56.164 L 1172.066 56.5 L 1172.5 56.78 L 1173.5 56.94 L 1174.5 57.02 L 1175.5 57.164 L 1176.066 57.5 L 1176.5 57.78 L 1177.5 57.94 L 1178.5 58.02 L 1179.5 58.164 L 1180.066 58.5 L 1180.5 58.78 L 1181.5 58.99 L 1182.5 59 L 1183 59.5 L 1183 63.5 L 1182.5 64 L 1181.5 64.164 L 1180.5 64.836 L 1179.5 65 L 1178.5 65.22 L 1178.066 65.5 L 1177.5 65.836 L 1176.5 65.98 L 1175.5 66.06 L 1174.5 66.22 L 1174.066 66.5 L 1173.5 66.836 L 1172.5 66.98 L 1171.5 67.06 L 1170.5 67.22 L 1170.066 67.5 L 1169.5 67.836 L 1168.5 67.98 L 1167.5 68.047 L 1166.5 68.22 L 1166.22 68.5 L 1166.5 68.78 L 1167.5 68.961 L 1168.5 69.164 L 1169.066 69.5 L 1169.5 69.78 L 1170.5 69.928 L 1171.5 70 L 1175.5 70.02 L 1176.5 70.164 L 1177.066 70.5 L 1177.5 70.78 L 1178.5 70.928 L 1179.5 71 L 1183.5 71.02 L 1184.5 71.164 L 1185.066 71.5 L 1185.5 71.78 L 1186.5 71.928 L 1187.5 72 L 1191.5 72.02 L 1192.5 72.164 L 1192.901 72.5 L 1193.5 73.099 L 1193.836 73.5 L 1193.792 74.5 L 1194 75.5 L 1194 76.5 L 1193.5 77 L 1190.5 77 L 1189.5 76.928 L 1188.5 76.776 L 1188.071 76.5 L 1187.5 76.164 L 1186.5 76.02 L 1184.5 76 L 1183.5 75.928 L 1182.5 75.776 L 1182.071 75.5 L 1181.5 75.164 L 1180.5 75.02 L 1177.5 75 L 1176.5 74.928 L 1175.5 74.776 L 1175.071 74.5 L 1174.5 74.164 L 1173.5 74.02 L 1171.5 74 L 1170.5 73.928 L 1169.5 73.776 L 1169.071 73.5 L 1168.5 73.164 L 1167.5 73.02 L 1164.5 73 L 1163.5 72.928 L 1162.5 72.776 L 1162.071 72.5 L 1161.5 72.164 L 1160.5 72.01 L 1159.5 72 L 1159 71.5 L 1159 70.5 L 1159.08 69.5 L 1159.224 68.5 L 1159.164 67.5 L 1159.5 67.099 L 1160.166 66.5 L 1160.5 66.224 L 1161.5 66.06 L 1162.5 65.98 L 1163.5 65.836 L 1164.071 65.5 L 1164.5 65.224 L 1165.5 65.06 L 1166.5 64.98 L 1167.5 64.836 L 1168.071 64.5 L 1168.5 64.224 L 1169.5 64 L 1170.5 63.836 L 1171.071 63.5 L 1171.5 63.224 L 1172.5 63.072 L 1173.5 62.988 L 1174.5 62.98 L 1175.5 62.836 L 1176.5 62.146 L 1177.5 61.836 L 1177.836 61.5 L 1177.5 61.164 L 1176.5 61.02 L 1175.5 60.94 L 1174.5 60.776 L 1174.071 60.5 L 1173.5 60.164 L 1172.5 60.02 L 1171.5 59.94 L 1170.5 59.776 L 1170.071 59.5 L 1169.5 59.164 L 1168.5 59.02 L 1167.5 58.94 L 1166.5 58.776 L 1166.071 58.5 L 1165.5 58.164 L 1164.5 58 L 1163.5 57.776 L 1163.071 57.5 L 1162.5 57.164 L 1161.5 57.02 L 1159.5 57 L 1159 56.5 L 1159 51.5 L 1159.5 51 L 1163.5 50.98 L 1164.5 50.836 L 1165.071 50.5 L 1165.5 50.224 L 1166.5 50.072 L 1167.5 50 L 1169.5 49.98 L 1170.5 49.836 L 1171.071 49.5 L 1171.5 49.224 L 1172.5 49.072 L 1173.5 49 L 1175.5 48.98 L 1176.5 48.836 L 1177.071 48.5 L 1177.5 48.224 L 1178.5 48.072 L 1179.5 48 L 1182.5 47.98 L 1183.5 47.836 L 1184.071 47.5 L 1184.5 47.224 L 1185.5 47.072 L 1186.5 47 L 1188.5 46.98 L 1189.5 46.836 L 1190.071 46.5 Z M 63 47.5 L 63.5 47 L 96.5 47 L 97 47.5 L 96.98 50.5 L 97 51.5 L 97 52.5 L 96.5 53 L 95.5 53.164 L 94.5 53.836 L 93.5 54.164 L 92.5 54.836 L 91.5 55.164 L 90.5 55.836 L 89.5 56.164 L 88.5 56.836 L 87.5 57.164 L 86.5 57.836 L 85.5 58.164 L 84.5 58.836 L 83.5 59.164 L 82.5 59.836 L 81.5 60 L 80.5 60.22 L 80.066 60.5 L 79.5 60.836 L 78.5 61.164 L 77.5 61.836 L 76.5 62.164 L 75.5 62.836 L 74.5 63.164 L 73.5 63.836 L 72.5 64.164 L 72 64.5 L 71.5 64.903 L 70.5 65.193 L 70.193 65.5 L 70.5 65.807 L 71.5 65.928 L 72.5 66 L 96.5 66 L 97 66.5 L 96.99 67.5 L 97 69.5 L 96.5 70 L 63.5 70 L 63 69.5 L 63.02 65.5 L 63.164 64.5 L 63.5 64.099 L 64.166 63.5 L 64.5 63.224 L 65.5 63 L 66.5 62.836 L 67.5 62.164 L 68.5 61.836 L 69.5 61.164 L 70.5 60.836 L 71.5 60.164 L 72.5 59.836 L 73.5 59.164 L 74.5 58.836 L 75.5 58.164 L 76.5 57.836 L 77.071 57.5 L 77.5 57.224 L 78.5 57 L 79.5 56.836 L 80.5 56.164 L 81.5 55.836 L 82.5 55.164 L 83.5 54.836 L 84.5 54.164 L 85.5 53.836 L 86.5 53.164 L 87.5 52.836 L 88.5 52.146 L 89.5 51.836 L 89.836 51.5 L 89.5 51.164 L 88.5 51.02 L 63.5 51 L 63 50.5 L 63 47.5 Z M 632 48.5 L 632.5 48 L 665.5 48 L 666 48.5 L 666 50.5 L 665.96 51.5 L 665.75 52.5 L 665.667 53.5 L 664.901 54.5 L 664.5 54.836 L 663.5 55.164 L 662.5 55.836 L 661.5 56.164 L 660.5 56.836 L 659.5 57.164 L 658.5 57.836 L 657.5 58 L 656.5 58.22 L 656.066 58.5 L 655.5 58.836 L 654.5 59.164 L 653.5 59.836 L 652.5 60.164 L 651.5 60.836 L 650.5 61.164 L 649.5 61.836 L 648.5 62.164 L 647.5 62.836 L 646.5 63.164 L 645.5 63.836 L 644.5 64.164 L 643.5 64.836 L 642.5 65 L 641.5 65.22 L 641.066 65.5 L 640.5 65.903 L 639.5 66.193 L 639.193 66.5 L 639.5 66.807 L 640.5 66.928 L 641.5 67 L 665.5 67 L 666 67.5 L 666 70.5 L 665.5 71 L 632.5 71 L 632 70.5 L 632 69.5 L 632.02 68.5 L 632 65.5 L 632.5 65 L 633.5 64.836 L 634.5 64.164 L 635.5 63.836 L 636.5 63.164 L 637.5 62.836 L 638.5 62.164 L 639.5 61.836 L 640.071 61.5 L 640.5 61.224 L 641.5 61 L 642.5 60.836 L 643.5 60.164 L 644.5 59.836 L 645.5 59.164 L 646.5 58.836 L 647.5 58.164 L 648.5 57.836 L 649.5 57.164 L 650.5 56.836 L 651.5 56.164 L 652.5 55.836 L 653.071 55.5 L 653.5 55.224 L 654.5 55 L 655.5 54.836 L 656.5 54.164 L 657.5 53.836 L 658 53.5 L 658.5 52.98 L 659.5 52.836 L 659.836 52.5 L 659.5 52.164 L 658.5 52.182 L 657.5 52.312 L 657.186 52.5 L 656.5 52.836 L 655.5 52.98 L 632.5 53 L 632 52.5 L 632.01 49.5 L 632 48.5 Z M 820 49.5 L 820.5 49 L 854.5 49 L 855 49.5 L 854.994 52.5 L 854.75 53.5 L 854.667 54.5 L 853.901 55.5 L 853.5 55.836 L 852.5 56.164 L 851.5 56.836 L 850.5 57.164 L 849.5 57.836 L 848.5 58.164 L 847.5 58.836 L 846.5 59.164 L 845.5 59.836 L 844.5 60 L 843.5 60.22 L 843.066 60.5 L 842.5 60.836 L 841.5 61.164 L 840.5 61.836 L 839.5 62.164 L 838.5 62.836 L 837.5 63.164 L 836.5 63.836 L 835.5 64.164 L 834.5 64.836 L 833.5 65.164 L 832.5 65.836 L 831.5 66.164 L 830.5 66.836 L 829.5 66.99 L 828.5 67 L 827.836 67.5 L 827.5 67.836 L 826.5 68.216 L 826.216 68.5 L 826.5 68.784 L 827.5 69 L 828.031 68.5 L 828.5 68.031 L 829.5 67.99 L 854.5 68 L 855 68.5 L 854.988 70.5 L 855 72.5 L 854.5 73 L 820.5 73 L 820 72.5 L 820.006 70.5 L 820.175 69.5 L 820.119 68.5 L 820.164 67.5 L 820.5 67.099 L 821.099 66.5 L 821.5 66.164 L 822.5 65.836 L 823.5 65.164 L 824.5 64.836 L 825.5 64.164 L 826.5 63.836 L 827.071 63.5 L 827.5 63.224 L 828.5 63 L 829.5 62.836 L 830.5 62.164 L 831.5 61.836 L 832.5 61.164 L 833.5 60.836 L 834.5 60.164 L 835.5 59.836 L 836.5 59.164 L 837.5 58.836 L 838.5 58.164 L 839.5 57.836 L 840.071 57.5 L 840.5 57.224 L 841.5 57 L 842.5 56.836 L 843.5 56.164 L 844.5 55.836 L 845.5 55.146 L 846.5 54.836 L 846.836 54.5 L 846.5 54.164 L 845.5 54.02 L 820.5 54 L 820 53.5 L 820 49.5 Z M 1011 49.5 L 1011.5 49 L 1044.5 49 L 1045 49.5 L 1045 54.5 L 1044.5 55 L 1043.5 55.164 L 1042.5 55.836 L 1041.5 56.164 L 1040.5 56.836 L 1039.5 57.164 L 1038.5 57.836 L 1037.5 58.164 L 1036.5 58.836 L 1035.5 59.164 L 1034.5 59.836 L 1033.5 60.164 L 1032.5 60.836 L 1031.5 61 L 1030.5 61.22 L 1030.066 61.5 L 1029.5 61.836 L 1028.5 62.164 L 1027.5 62.836 L 1026.5 63.164 L 1025.5 63.836 L 1024.5 64.164 L 1023.5 64.836 L 1022.5 65.164 L 1021.5 65.836 L 1020.5 66.164 L 1020 66.5 L 1019.5 66.903 L 1018.5 67.193 L 1018.193 67.5 L 1018.5 67.807 L 1019.5 67.928 L 1020.5 68 L 1044.5 68 L 1045 68.5 L 1045 71.5 L 1044.5 72 L 1011.5 72 L 1011 71.5 L 1011 70.5 L 1011.02 69.5 L 1011.175 68.5 L 1011.02 67.5 L 1011.164 66.5 L 1011.5 66.099 L 1012.099 65.5 L 1012.5 65.164 L 1013.5 64.836 L 1014.071 64.5 L 1014.5 64.224 L 1015.5 64 L 1016.5 63.836 L 1017.5 63.164 L 1018.5 62.836 L 1019.5 62.164 L 1020.5 61.836 L 1021.5 61.164 L 1022.5 60.836 L 1023.5 60.164 L 1024.5 59.836 L 1025.5 59.164 L 1026.5 58.836 L 1027.071 58.5 L 1027.5 58.224 L 1028.5 58 L 1029.5 57.836 L 1030.5 57.164 L 1031.5 56.836 L 1032.5 56.164 L 1033.5 55.836 L 1034.5 55.164 L 1035.5 54.836 L 1036.5 54.146 L 1037.5 53.836 L 1037.836 53.5 L 1037.5 53.164 L 1036.5 53.02 L 1011.5 53 L 1011 52.5 L 1011 49.5 Z M 848.5 53.481 L 848.481 53.5 L 848.5 53.519 L 848.519 53.5 L 848.5 53.481 Z M 27.5 56 L 27 56.5 L 27 62.5 L 27.02 63.5 L 27 64.5 L 27 66.5 L 27.5 67 L 29.5 66.836 L 30.071 66.5 L 30.5 66.224 L 31.5 66 L 32.5 65.836 L 33.071 65.5 L 33.5 65.224 L 34.5 65 L 35.5 64.836 L 36.071 64.5 L 36.5 64.224 L 37.5 64 L 38.5 63.836 L 39.071 63.5 L 39.5 63.224 L 40.5 63 L 41.5 62.836 L 42.5 62.146 L 43.5 61.836 L 43.836 61.5 L 43.5 61.164 L 42.5 61.02 L 41.5 60.94 L 40.5 60.776 L 40.071 60.5 L 39.5 60.164 L 38.5 60 L 37.5 59.776 L 37.071 59.5 L 36.5 59.164 L 35.5 58.836 L 34.5 58.164 L 33.5 58 L 32.5 57.776 L 32.071 57.5 L 31.5 57.164 L 30.5 57 L 29.5 56.776 L 28.5 56.259 L 27.5 56 Z M 259.5 63.481 L 259.481 63.5 L 259.5 63.519 L 259.519 63.5 L 259.5 63.481 Z M 446.5 65.481 L 446.481 65.5 L 446.5 65.519 L 446.519 65.5 L 446.5 65.481 Z M 253 76.5 L 253.5 76 L 286.5 76 L 287 76.5 L 287 86.5 L 286.928 87.5 L 286.667 88.5 L 286.5 88.783 L 286.164 89.5 L 286 90.5 L 285.776 91.5 L 285.5 91.929 L 285.164 92.5 L 284.836 93.5 L 284.164 94.5 L 283.836 95.5 L 283 96.5 L 282.5 97 L 281.5 97.836 L 280.5 98.164 L 279.5 98.836 L 278.5 99.164 L 277.5 99.836 L 276.5 99.98 L 274.5 100 L 273.5 100.072 L 272.5 100.22 L 272.066 100.5 L 271.5 100.836 L 270.5 100.98 L 269.5 100.792 L 268.5 100.776 L 268.071 100.5 L 267.5 100.164 L 266.5 100.02 L 264.5 100 L 263.5 99.928 L 262.5 99.776 L 262.071 99.5 L 261.5 99.164 L 260.5 98.836 L 259.5 98.164 L 258.5 97.836 L 258.099 97.5 L 257.5 96.758 L 257.242 96.5 L 256.5 96 L 256 95.5 L 255.164 94.5 L 254.836 93.5 L 254.164 92.5 L 253.836 91.5 L 253.5 90.783 L 253.333 90.5 L 253 88.5 L 253.02 87.5 L 253 86.5 L 253 76.5 Z M 63 78.5 L 63.5 78 L 96.5 78 L 97 78.5 L 97 89.5 L 96.667 91.5 L 96.5 91.783 L 96.164 92.5 L 96 93.5 L 95.776 94.5 L 95.5 94.929 L 95.164 95.5 L 94.836 96.5 L 94 97.5 L 93.5 98 L 92.908 98.5 L 92.5 99.012 L 91.907 99.5 L 91.5 99.811 L 90.901 100.5 L 90.5 100.836 L 89.5 101.164 L 88.5 101.836 L 87.5 102 L 86.5 102.22 L 86.066 102.5 L 85.5 102.836 L 84.5 102.98 L 76.5 103 L 75.5 102.928 L 74.5 102.776 L 74.071 102.5 L 73.5 102.164 L 72.5 102 L 71.5 101.776 L 71.071 101.5 L 70.5 101.164 L 69.5 100.836 L 69.099 100.5 L 68.5 99.758 L 67.5 98.98 L 66.5 97.98 L 66.111 97.5 L 65.5 97 L 65 96.5 L 64.5 95.834 L 64.224 95.5 L 63.78 93.5 L 63.5 92.84 L 63.333 92.5 L 63 90.5 L 63 78.5 Z M 441 78.5 L 441.5 78 L 474.5 78 L 475 78.5 L 475 86.5 L 474.98 87.5 L 475 88.5 L 474.667 90.5 L 474.5 90.783 L 474.164 91.5 L 474 92.5 L 473.776 93.5 L 473.5 93.929 L 473.164 94.5 L 472.836 95.5 L 472.164 96.5 L 471.836 97.5 L 471.5 97.901 L 470.901 98.5 L 470.5 98.836 L 469.5 99.164 L 467.5 100.836 L 466.5 101 L 465.5 101.22 L 465.066 101.5 L 464.5 101.836 L 463.5 101.98 L 453.5 102 L 452.5 101.928 L 451.5 101.776 L 451.071 101.5 L 450.5 101.164 L 449.5 101 L 448.5 100.776 L 448.071 100.5 L 447.5 100.164 L 446.5 99.836 L 446.099 99.5 L 445.5 98.758 L 445.242 98.5 L 444.5 98 L 444 97.5 L 443.164 96.5 L 442.836 95.5 L 442.164 94.5 L 441.836 93.5 L 441.5 92.783 L 441.333 92.5 L 441 90.5 L 441 78.5 Z M 26.071 80.5 L 26.5 80.224 L 27.5 80.072 L 28.5 80 L 34.5 80.02 L 35.5 80.164 L 36.066 80.5 L 36.5 80.78 L 37.5 80.94 L 38.5 81.02 L 39.5 81.164 L 40.5 81.836 L 41.5 82.164 L 42.5 82.836 L 43.5 83.164 L 44.5 84 L 44.931 84.5 L 45.5 85.473 L 46.5 86.099 L 46.836 86.5 L 47.164 87.5 L 47.836 88.5 L 47.98 89.5 L 47.988 90.5 L 48.11 91.5 L 48.328 92.5 L 48.527 93.5 L 48.164 94.5 L 48.02 95.5 L 48.012 96.5 L 47.887 97.5 L 47.667 98.5 L 47.5 98.783 L 47.164 99.5 L 46.836 100.5 L 46 101.5 L 45.5 102 L 44.908 102.5 L 44.5 103.012 L 43.907 103.5 L 43.5 103.811 L 42.901 104.5 L 42.5 104.836 L 41.5 105.164 L 40.5 105.527 L 39.5 104.901 L 39.164 104.5 L 38.836 103.5 L 38.5 102.886 L 38.259 102.5 L 38 101.5 L 38.5 101 L 39.5 100.836 L 40.5 100.164 L 41.5 99.836 L 42.5 99 L 43 98.5 L 43.5 97.715 L 43.672 97.5 L 44 95.5 L 43.98 91.5 L 43.836 90.5 L 43.164 89.5 L 43 88.5 L 42.5 88 L 41.5 87.836 L 40.5 87.164 L 39.5 86.836 L 38.5 86.164 L 37.5 86.02 L 36.5 86.012 L 35.5 85.928 L 34.5 85.776 L 34.071 85.5 L 33.5 85.164 L 32.5 85.02 L 30.5 85 L 29.5 85.072 L 28.5 85.22 L 28.066 85.5 L 27.5 85.836 L 26.5 85.98 L 25.5 85.988 L 24.5 86.072 L 23.5 86.22 L 23.066 86.5 L 22.5 86.836 L 21.5 87 L 20.5 87.22 L 20.161 87.5 L 19.5 88 L 19 88.5 L 18.164 89.5 L 17.836 90.5 L 17.164 91.5 L 17.02 92.5 L 17.175 93.5 L 17.006 94.5 L 17.25 95.5 L 17.328 96.5 L 17.5 96.791 L 17.836 97.5 L 18.164 98.5 L 19 99.5 L 19.5 100 L 20.5 100.836 L 21.5 101.164 L 22.5 101.836 L 23.5 102 L 24 102.5 L 23.741 103.5 L 23.5 103.886 L 23.164 104.5 L 23 105.5 L 22.5 106 L 21.5 105.923 L 20.5 105.688 L 20.186 105.5 L 19.5 105.164 L 18.5 104.836 L 18.099 104.5 L 17.5 103.758 L 17.242 103.5 L 16.5 103 L 16 102.5 L 15.164 101.5 L 14.836 100.5 L 14.164 99.5 L 13.836 98.5 L 13.5 97.783 L 13.333 97.5 L 13 95.5 L 13.02 91.5 L 13.164 90.5 L 13.5 89.934 L 13.78 89.5 L 14.224 87.5 L 14.5 87.166 L 16.5 85.166 L 17 84.5 L 17.5 84 L 18.5 83.164 L 19.5 82.836 L 20.5 82.164 L 21.5 81.836 L 22.071 81.5 L 22.5 81.224 L 23.5 81.06 L 24.5 80.98 L 25.5 80.836 L 26.071 80.5 Z M 632 80.5 L 632.5 80 L 665.5 80 L 666 80.5 L 666 91.5 L 665.836 92.5 L 665.776 93.5 L 665.5 93.929 L 665.164 94.5 L 664.836 95.5 L 664.164 96.5 L 663.836 97.5 L 663.164 98.5 L 662.836 99.5 L 662.5 99.901 L 661.901 100.5 L 661.5 100.836 L 660.5 101.164 L 658.5 102.836 L 657.5 103 L 656.5 103.22 L 656.066 103.5 L 655.5 103.836 L 654.5 103.98 L 644.5 104 L 643.5 103.928 L 642.5 103.776 L 642.071 103.5 L 641.5 103.164 L 640.5 102.836 L 639.5 102.164 L 638.5 101.836 L 637.5 101.164 L 636.5 100.836 L 636.099 100.5 L 635.5 99.901 L 635.164 99.5 L 634.836 98.5 L 634 97.5 L 633.5 96.834 L 633.224 96.5 L 633 95.5 L 632.836 94.5 L 632.5 93.929 L 632.224 93.5 L 632.164 92.5 L 632 91.5 L 632 80.5 Z M 1011 80.5 L 1011.5 80 L 1044.5 80 L 1045 80.5 L 1045 92.5 L 1044.928 93.5 L 1044.667 94.5 L 1044.5 94.783 L 1044.164 95.5 L 1043.836 96.5 L 1043.164 97.5 L 1042.836 98.5 L 1042 99.5 L 1041.5 100 L 1040.908 100.5 L 1040.5 101.012 L 1039.907 101.5 L 1039.5 101.811 L 1038.901 102.5 L 1038.5 102.836 L 1037.5 103.164 L 1036.5 103.836 L 1035.5 103.98 L 1034.5 104.06 L 1033.5 104.22 L 1033.066 104.5 L 1032.5 104.836 L 1031.5 104.98 L 1025.5 105 L 1024.5 104.928 L 1023.5 104.776 L 1023.071 104.5 L 1022.5 104.164 L 1021.5 104 L 1020.5 103.776 L 1020.071 103.5 L 1019.5 103.164 L 1018.5 102.836 L 1017.5 102.164 L 1016.5 101.836 L 1016.099 101.5 L 1015.5 100.758 L 1015.242 100.5 L 1014.5 100 L 1014 99.5 L 1013.164 98.5 L 1012.836 97.5 L 1012.164 96.5 L 1011.836 95.5 L 1011.5 94.783 L 1011.333 94.5 L 1011.072 93.5 L 1011 92.5 L 1011 80.5 Z M 257.5 81 L 257 81.5 L 257 86.5 L 257.04 87.5 L 257.164 88.5 L 257.328 89.5 L 257.5 89.715 L 258 90.5 L 258.836 91.5 L 259 92.5 L 259.5 93 L 260.5 93.164 L 261.5 93.836 L 262.5 94.164 L 263.066 94.5 L 263.5 94.78 L 264.5 94.94 L 265.5 95.02 L 266.5 95.164 L 267.066 95.5 L 267.5 95.78 L 268.5 95.928 L 269.5 96 L 271.5 95.98 L 272.5 95.836 L 273.071 95.5 L 273.5 95.224 L 274.5 95.06 L 275.5 94.98 L 276.5 94.836 L 277.5 94.164 L 278.5 93.836 L 278.901 93.5 L 279.5 92.811 L 279.811 92.5 L 280.5 92 L 281 91.5 L 281.5 90.839 L 281.78 90.5 L 282 89.5 L 282.164 88.5 L 282.5 87.934 L 282.78 87.5 L 282.836 86.5 L 283 85.5 L 283 81.5 L 282.5 81 L 257.5 81 Z M 820 81.5 L 820.5 81 L 854.5 81 L 855 81.5 L 855 90.5 L 854.667 92.5 L 854.277 93.5 L 854.02 94.5 L 853.94 95.5 L 853.723 96.5 L 853.5 96.861 L 853.164 97.5 L 852.836 98.5 L 851.164 100.5 L 851 101.5 L 850.5 102 L 849.5 102.164 L 847.5 103.836 L 846.5 104 L 845.5 104.22 L 845.066 104.5 L 844.5 104.836 L 843.5 104.98 L 842.5 104.988 L 841.5 105.072 L 840.5 105.22 L 840.066 105.5 L 839.5 105.836 L 838.5 105.98 L 837.5 105.792 L 836.5 105.776 L 836.071 105.5 L 835.5 105.164 L 834.5 105.02 L 832.5 105 L 831.5 104.928 L 830.5 104.776 L 830.071 104.5 L 829.5 104.164 L 828.5 103.836 L 827.5 103.164 L 826.5 102.836 L 826.099 102.5 L 825.5 101.758 L 824.5 100.98 L 824.111 100.5 L 823.5 100 L 823 99.5 L 822.164 98.5 L 821.836 97.5 L 821.5 96.783 L 821.333 96.5 L 821.113 95.5 L 820.988 94.5 L 820.89 93.5 L 820.836 92.5 L 820.5 91.783 L 820.333 91.5 L 820 89.5 L 820 81.5 Z M 1159 81.5 L 1159.5 81 L 1193.5 81 L 1194 81.5 L 1194 86.5 L 1193.5 87 L 1192.5 87.164 L 1191.5 87.836 L 1190.5 88 L 1189.5 88.22 L 1189.066 88.5 L 1188.5 88.836 L 1187.5 89 L 1186.5 89.22 L 1186.066 89.5 L 1185.5 89.836 L 1184.5 90.164 L 1183.5 90.836 L 1182.5 91 L 1181.5 91.22 L 1181.066 91.5 L 1180.5 91.836 L 1179.5 92 L 1178.5 92.22 L 1178.161 92.5 L 1177.5 93.111 L 1177.175 93.5 L 1177.5 93.825 L 1179.5 94.164 L 1180.066 94.5 L 1180.5 94.78 L 1181.5 95 L 1182.5 95.164 L 1183.5 95.836 L 1184.5 96.164 L 1185.066 96.5 L 1185.5 96.78 L 1186.5 97 L 1187.5 97.164 L 1188.066 97.5 L 1188.5 97.78 L 1189.5 98 L 1190.5 98.164 L 1191.5 98.836 L 1192.5 99.164 L 1192.901 99.5 L 1193.5 100.099 L 1193.836 100.5 L 1193.98 101.5 L 1194 104.5 L 1193.5 105 L 1159.5 105 L 1159 104.5 L 1159.01 102.5 L 1159 101.5 L 1159.5 101 L 1184.5 100.984 L 1185.5 100.836 L 1185.836 100.5 L 1185.5 100.164 L 1184.5 99.996 L 1183.5 99.785 L 1183.071 99.5 L 1182.5 99.164 L 1181.5 99 L 1180.5 98.776 L 1180.071 98.5 L 1179.5 98.164 L 1178.5 97.836 L 1177.5 97.164 L 1176.5 97 L 1175.5 96.776 L 1175.071 96.5 L 1174.5 96.164 L 1173.5 96 L 1172.5 95.776 L 1172.166 95.5 L 1171.356 94.5 L 1171.208 93.5 L 1171.01 92.5 L 1171 91.5 L 1171.5 91 L 1172.5 90.836 L 1173.5 90.164 L 1174.5 89.836 L 1175.071 89.5 L 1175.5 89.224 L 1176.5 89 L 1177.5 88.836 L 1178.071 88.5 L 1178.5 88.224 L 1179.5 88 L 1180.5 87.836 L 1181.5 87.164 L 1182.5 86.836 L 1183.071 86.5 L 1183.5 86.224 L 1184.5 86.06 L 1185.5 85.98 L 1186.5 85.836 L 1186.836 85.5 L 1186.5 85.164 L 1185.5 85.02 L 1159.5 85 L 1159 84.5 L 1159.01 82.5 L 1159 81.5 Z M 67.5 83 L 67 83.5 L 67 89.5 L 67.328 91.5 L 67.5 91.791 L 67.836 92.5 L 68.164 93.5 L 69 94.5 L 69.5 95 L 70.5 95.836 L 71.5 96.164 L 72.5 96.836 L 73.5 97.164 L 74.066 97.5 L 74.5 97.78 L 75.5 97.928 L 76.5 98 L 84.5 97.98 L 85.5 97.836 L 86.5 97.164 L 87.5 96.836 L 88.5 96.164 L 89.5 95.836 L 89.901 95.5 L 90.5 94.901 L 90.836 94.5 L 91.164 93.5 L 91.836 92.5 L 92.164 91.5 L 92.5 90.791 L 92.672 90.5 L 93 88.5 L 92.98 87.5 L 92.994 86.5 L 93 83.5 L 92.5 83 L 67.5 83 Z M 445.5 83 L 445 83.5 L 445 89.5 L 445.328 91.5 L 445.5 91.715 L 446 92.5 L 446.5 93 L 447.111 93.5 L 447.5 93.98 L 448.5 94.758 L 449.099 95.5 L 449.5 95.836 L 450.5 96.164 L 451.066 96.5 L 451.5 96.78 L 452.5 96.928 L 453.5 97 L 455.5 97.02 L 456.5 97.164 L 457.114 97.5 L 457.5 97.741 L 458.5 97.741 L 459.5 97.224 L 460.5 97.072 L 461.5 97 L 463.5 96.98 L 464.5 96.836 L 465.5 96.164 L 466.5 95.836 L 466.901 95.5 L 467.5 94.811 L 467.811 94.5 L 468.5 94 L 469 93.5 L 469.5 92.839 L 469.78 92.5 L 470 91.5 L 470.164 90.5 L 470.5 89.791 L 470.672 89.5 L 470.836 88.5 L 470.96 87.5 L 470.994 86.5 L 471 83.5 L 470.5 83 L 445.5 83 Z M 636.5 85 L 636 85.5 L 636 90.5 L 636.328 92.5 L 636.5 92.791 L 636.836 93.5 L 637.164 94.5 L 638 95.5 L 638.5 96 L 639.242 96.5 L 639.5 96.758 L 640.161 97.5 L 640.5 97.78 L 641.5 98 L 642.5 98.164 L 643.066 98.5 L 643.5 98.78 L 644.5 98.928 L 645.5 99 L 654.5 98.98 L 655.5 98.836 L 656.5 98.164 L 657.5 97.836 L 657.901 97.5 L 658.5 96.811 L 658.811 96.5 L 659.5 96 L 660 95.5 L 660.836 94.5 L 661.164 93.5 L 661.5 92.791 L 661.672 92.5 L 662 90.5 L 662 85.5 L 661.5 85 L 636.5 85 Z M 1015.5 85 L 1015 85.5 L 1015.01 86.5 L 1015 90.5 L 1015.328 92.5 L 1015.5 92.791 L 1015.836 93.5 L 1016.164 94.5 L 1016.836 95.5 L 1017.164 96.5 L 1017.5 96.901 L 1018.099 97.5 L 1018.5 97.836 L 1019.5 98.164 L 1020.066 98.5 L 1020.5 98.78 L 1021.5 99 L 1022.5 99.164 L 1023.066 99.5 L 1023.5 99.78 L 1024.5 99.928 L 1025.5 100 L 1031.5 99.98 L 1032.5 99.836 L 1033.071 99.5 L 1033.5 99.224 L 1034.5 99 L 1035.5 98.836 L 1036.5 98.164 L 1037.5 97.836 L 1038.5 97 L 1039 96.5 L 1039.836 95.5 L 1040.164 94.5 L 1040.5 93.934 L 1040.78 93.5 L 1040.836 92.5 L 1041 91.5 L 1040.99 86.5 L 1041 85.5 L 1040.5 85 L 1015.5 85 Z M 824.5 86 L 824 86.5 L 824.006 89.5 L 824.25 90.5 L 824.328 91.5 L 824.5 91.791 L 824.836 92.5 L 825 93.5 L 825.22 94.5 L 825.5 94.934 L 825.836 95.5 L 826.164 96.5 L 826.5 96.901 L 827.099 97.5 L 827.5 97.836 L 828.5 98.164 L 829.5 98.836 L 830.5 99.164 L 831.066 99.5 L 831.5 99.78 L 832.5 99.94 L 833.5 100.02 L 834.5 100.164 L 835.066 100.5 L 835.5 100.78 L 836.5 100.928 L 837.5 101 L 839.5 100.98 L 840.5 100.836 L 841.071 100.5 L 841.5 100.224 L 842.5 100.06 L 843.5 99.98 L 844.5 99.836 L 845.5 99.164 L 846.5 98.836 L 847.5 98 L 848 97.5 L 848.836 96.5 L 849.164 95.5 L 849.5 94.934 L 849.78 94.5 L 850 93.5 L 850.164 92.5 L 850.5 91.791 L 850.672 91.5 L 850.75 90.5 L 850.994 89.5 L 851 86.5 L 850.5 86 L 824.5 86 Z" fill="#000000" fill-rule="evenodd"/>
</svg>
