<?xml version="1.0" encoding="UTF-8"?>
<svg xmlns="http://www.w3.org/2000/svg" width="1601" height="241" viewBox="0 0 1601 241">
  <path d="M 7.166 6.5 L 7.5 6.224 L 8.5 6.072 L 9.5 6 L 506.5 6.02 L 507.5 6.164 L 507.901 6.5 L 508.5 7.099 L 508.836 7.5 L 508.881 8.5 L 508.988 9.5 L 509 228.5 L 508.928 229.5 L 508.776 230.5 L 508.5 230.834 L 507.901 231.5 L 507.5 231.836 L 506.5 231.98 L 9.5 232 L 8.5 231.928 L 7.5 231.776 L 7.166 231.5 L 6.5 230.834 L 6.224 230.5 L 6.072 229.5 L 6 228.5 L 6.012 9.5 L 6.119 8.5 L 6.164 7.5 L 6.5 7.099 L 7.166 6.5 Z M 554.166 10.5 L 554.5 10.224 L 555.5 10.072 L 556.5 10 L 1043.5 10.02 L 1044.5 10.164 L 1044.901 10.5 L 1045.5 11.099 L 1045.836 11.5 L 1045.98 12.5 L 1046 228.5 L 1045.928 229.5 L 1045.776 230.5 L 1045.5 230.834 L 1044.901 231.5 L 1044.5 231.836 L 1043.5 231.98 L 556.5 232 L 555.5 231.928 L 554.5 231.776 L 554.166 231.5 L 553.5 230.834 L 553.224 230.5 L 553.072 229.5 L 553 228.5 L 553.02 12.5 L 553.164 11.5 L 553.5 11.099 L 554.166 10.5 Z M 1099.166 10.5 L 1099.5 10.224 L 1100.5 10.072 L 1101.5 10 L 1589.5 10.02 L 1590.5 10.164 L 1590.901 10.5 L 1591.5 11.099 L 1591.836 11.5 L 1591.98 12.5 L 1592 228.5 L 1591.928 229.5 L 1591.776 230.5 L 1591.5 230.834 L 1590.901 231.5 L 1590.5 231.836 L 1589.5 231.98 L 1101.5 232 L 1100.5 231.928 L 1099.5 231.776 L 1099.166 231.5 L 1098.5 230.834 L 1098.224 230.5 L 1098.072 229.5 L 1098 228.5 L 1098.02 12.5 L 1098.164 11.5 L 1098.5 11.099 L 1099.166 10.5 Z M 11.5 11 L 11 11.5 L 11 80.5 L 11.5 81 L 228.5 81.02 L 229.5 81.164 L 229.901 81.5 L 230.5 82.099 L 230.836 82.5 L 230.98 83.5 L 231 226.5 L 231.5 227 L 282.5 227 L 283 226.5 L 283.02 83.5 L 283.164 82.5 L 283.5 82.099 L 284.166 81.5 L 284.5 81.224 L 285.5 81.072 L 286.5 81 L 503.5 81 L 504 80.5 L 504 11.5 L 503.5 11 L 11.5 11 Z M 558.5 15 L 558 15.5 L 558 80.5 L 558.5 81 L 775.5 81.02 L 776.5 81.164 L 776.901 81.5 L 777.5 82.099 L 777.836 82.5 L 777.98 83.5 L 778 226.5 L 778.5 227 L 820.5 227 L 821 226.5 L 821.02 83.5 L 821.164 82.5 L 821.5 82.099 L 822.166 81.5 L 822.5 81.224 L 823.5 81.072 L 824.5 81 L 1040.5 81 L 1041 80.5 L 1041 15.5 L 1040.5 15 L 558.5 15 Z M 1103.5 15 L 1103 15.5 L 1103 79.5 L 1103.5 80 L 1320.5 80.02 L 1321.5 80.164 L 1321.901 80.5 L 1322.723 81.5 L 1322.98 82.5 L 1323 226.5 L 1323.5 227 L 1366.5 227 L 1367 226.5 L 1367.02 82.5 L 1367.277 81.5 L 1367.5 81.226 L 1368.166 80.5 L 1368.5 80.224 L 1369.5 80.072 L 1370.5 80 L 1586.5 80 L 1587 79.5 L 1587 15.5 L 1586.5 15 L 1103.5 15 Z M 150.071 16.5 L 150.5 16.224 L 151.5 16.072 L 152.5 16 L 160.5 16.02 L 161.5 16.164 L 162.066 16.5 L 162.5 16.78 L 163.5 17 L 164.5 17.164 L 166.5 18.836 L 167.5 19.164 L 168.5 20 L 169 20.5 L 169.836 21.5 L 170.164 22.5 L 170.836 23.5 L 171.164 24.5 L 171.836 25.5 L 172.164 26.5 L 172.5 27.139 L 172.723 27.5 L 172.98 28.5 L 172.988 29.5 L 173.11 30.5 L 173.328 31.5 L 173.723 32.5 L 173.881 33.5 L 173.988 34.5 L 174 48.5 L 173.836 49.5 L 173.776 50.5 L 173.277 51.5 L 173.02 52.5 L 172.94 53.5 L 172.723 54.5 L 172.5 54.861 L 172.164 55.5 L 171.836 56.5 L 171.164 57.5 L 170.836 58.5 L 170.164 59.5 L 169.836 60.5 L 169 61.5 L 168.5 62 L 167.811 62.5 L 167.5 62.811 L 166.901 63.5 L 166.5 63.836 L 165.5 64.164 L 163.5 65.836 L 162.5 65.98 L 161.5 66.06 L 160.5 66.22 L 160.066 66.5 L 159.5 66.836 L 158.5 66.98 L 154.5 67 L 153.5 66.928 L 152.5 66.776 L 152.071 66.5 L 151.5 66.164 L 150.5 66 L 149.5 65.776 L 149.071 65.5 L 148.5 65.164 L 147.5 64.836 L 146.5 64.164 L 145.5 63.836 L 144.5 63 L 144 62.5 L 143.164 61.5 L 142.836 60.5 L 142.164 59.5 L 141.836 58.5 L 141.164 57.5 L 140.836 56.5 L 140.5 55.929 L 140.224 55.5 L 140 54.5 L 139.836 53.5 L 139.5 52.783 L 139.333 52.5 L 139.072 51.5 L 139 50.5 L 138.98 49.5 L 138.836 48.5 L 138.5 47.783 L 138.333 47.5 L 138.164 46.5 L 138.04 45.5 L 138 43.5 L 138.02 36.5 L 138.164 35.5 L 138.5 34.791 L 138.672 34.5 L 138.928 33.5 L 138.96 32.5 L 139.012 31.5 L 139.02 30.5 L 139.164 29.5 L 139.5 28.934 L 139.78 28.5 L 140.224 26.5 L 140.5 26.071 L 140.836 25.5 L 141.164 24.5 L 141.836 23.5 L 142.164 22.5 L 142.5 22.099 L 143.199 21.5 L 144.5 20.166 L 145 19.5 L 145.5 19 L 146.5 18.164 L 147.5 17.836 L 148.5 17.164 L 149.5 16.836 L 150.071 16.5 Z M 240.071 16.5 L 240.5 16.224 L 241.5 16.072 L 242.5 16 L 251.5 16.02 L 252.5 16.164 L 253.066 16.5 L 253.5 16.78 L 254.5 17 L 255.5 17.164 L 256.5 17.836 L 257.5 18.164 L 258.5 19 L 258.978 19.5 L 259.5 20.136 L 259.846 20.5 L 260.5 21.258 L 261.5 22.099 L 261.836 22.5 L 262 23.5 L 262.22 24.5 L 262.5 24.934 L 262.836 25.5 L 262.994 28.5 L 263 30.5 L 262.836 31.5 L 262.776 32.5 L 262.22 33.5 L 261.776 35.5 L 261.5 35.834 L 261 36.5 L 260.164 37.5 L 259.836 38.5 L 259 39.5 L 258.5 40 L 257.908 40.5 L 257.5 41.012 L 253.5 45.012 L 252.907 45.5 L 252.5 45.811 L 251.901 46.5 L 251.5 46.836 L 250.5 47.164 L 249.5 48 L 249 48.5 L 248.5 49.161 L 248.073 49.5 L 247.5 50.012 L 246.907 50.5 L 246.5 50.811 L 245.901 51.5 L 245.5 51.836 L 244.5 52.164 L 243.5 53 L 243 53.5 L 242.5 54.161 L 242.073 54.5 L 241.5 55.012 L 241.103 55.5 L 240.5 56.199 L 240.199 56.5 L 239.5 57.099 L 239.164 57.5 L 238.836 58.5 L 237.175 60.5 L 237.5 60.825 L 238.5 60.928 L 239.5 61 L 263.5 61 L 264 61.5 L 264 65.5 L 263.5 66 L 229.5 66 L 229 65.5 L 229 64.5 L 229.08 63.5 L 229.224 62.5 L 229.164 61.5 L 229.836 60.5 L 230.164 59.5 L 231 58.5 L 232 57.5 L 232.836 56.5 L 233.164 55.5 L 233.5 55.099 L 234.199 54.5 L 234.5 54.199 L 235.103 53.5 L 235.5 53.012 L 237.5 51.012 L 238.078 50.5 L 238.5 50.166 L 239 49.5 L 239.5 49 L 240.5 48.164 L 241.5 47.836 L 241.901 47.5 L 242.5 46.811 L 242.907 46.5 L 243.5 46.012 L 244.078 45.5 L 244.5 45.166 L 245 44.5 L 245.5 44 L 246.5 43.164 L 247.5 42.836 L 247.901 42.5 L 248.5 41.811 L 248.907 41.5 L 249.5 41.012 L 251.5 39.012 L 251.908 38.5 L 252.5 38 L 253 37.5 L 253.836 36.5 L 254.164 35.5 L 254.836 34.5 L 255.164 33.5 L 255.5 32.934 L 255.78 32.5 L 255.836 31.5 L 256 30.5 L 255.988 28.5 L 255.884 27.5 L 255.723 26.5 L 255.5 26.139 L 255.164 25.5 L 254.836 24.5 L 254.5 24.099 L 253.901 23.5 L 253.5 23.164 L 252.5 22.836 L 251.5 22.164 L 250.5 21.836 L 249.5 21.164 L 248.5 21.02 L 246.5 21 L 245.5 21.072 L 244.5 21.22 L 244.066 21.5 L 243.5 21.836 L 242.5 22 L 241.5 22.22 L 241.161 22.5 L 240.5 23 L 240 23.5 L 239.527 24.5 L 238.5 25.099 L 238.164 25.5 L 237.836 26.5 L 237.5 27.066 L 237.22 27.5 L 237.01 28.5 L 237 29.5 L 236.5 30 L 234.5 29.988 L 233.5 29.928 L 232.5 29.776 L 232.071 29.5 L 231.5 29.164 L 230.5 29 L 230 28.5 L 230.077 27.5 L 230.312 26.5 L 230.5 26.186 L 230.836 25.5 L 231.164 24.5 L 231.836 23.5 L 232.164 22.5 L 232.5 22.099 L 233.199 21.5 L 234.5 20.166 L 235 19.5 L 235.5 19 L 236.5 18.164 L 237.5 17.836 L 238.5 17.164 L 239.5 16.836 L 240.071 16.5 Z M 270 17.5 L 270.5 17 L 275.5 17.02 L 276.5 17.164 L 276.901 17.5 L 277.5 18.099 L 277.836 18.5 L 278 19.5 L 278.22 20.5 L 278.5 20.934 L 278.836 21.5 L 279 22.5 L 279.22 23.5 L 279.5 23.934 L 279.836 24.5 L 280.164 25.5 L 280.5 26.071 L 280.776 26.5 L 281.22 28.5 L 281.5 28.934 L 281.836 29.5 L 282 30.5 L 282.22 31.5 L 282.776 32.5 L 283.22 34.5 L 283.5 34.934 L 283.836 35.5 L 284 36.5 L 284.22 37.5 L 284.5 37.934 L 284.836 38.5 L 285.164 39.5 L 285.836 40.5 L 286 41.5 L 286.22 42.5 L 286.5 42.934 L 286.836 43.5 L 287 44.5 L 287.22 45.5 L 287.5 45.934 L 287.836 46.5 L 288 47.5 L 288.22 48.5 L 288.5 48.934 L 288.836 49.5 L 289 50.5 L 289.22 51.5 L 289.5 51.934 L 289.836 52.5 L 290 53.5 L 290.22 54.5 L 290.5 54.934 L 290.836 55.5 L 291.06 57.5 L 291.212 58.5 L 291.5 58.788 L 291.848 58.5 L 292.5 57.839 L 292.78 57.5 L 292.94 56.5 L 293.02 55.5 L 293.164 54.5 L 293.5 53.934 L 293.78 53.5 L 294.224 51.5 L 294.78 50.5 L 295 49.5 L 295.164 48.5 L 295.5 47.934 L 295.78 47.5 L 296.224 45.5 L 296.5 45.071 L 296.836 44.5 L 297.164 43.5 L 297.5 42.934 L 297.78 42.5 L 298 41.5 L 298.164 40.5 L 298.5 39.934 L 298.78 39.5 L 299 38.5 L 299.164 37.5 L 299.5 36.934 L 299.78 36.5 L 300 35.5 L 300.164 34.5 L 300.5 33.934 L 300.78 33.5 L 301 32.5 L 301.164 31.5 L 301.5 30.934 L 301.78 30.5 L 302 29.5 L 302.164 28.5 L 302.836 27.5 L 303.164 26.5 L 303.5 25.934 L 303.78 25.5 L 304 24.5 L 304.164 23.5 L 304.5 22.934 L 304.78 22.5 L 305.224 20.5 L 305.78 19.5 L 305.99 18.5 L 306 17.5 L 306.5 17 L 312.5 17.02 L 313.5 17.131 L 313.869 17.5 L 313.164 18.5 L 313 19.5 L 312.776 20.5 L 312.5 20.929 L 312.164 21.5 L 312 22.5 L 311.776 23.5 L 311.5 23.929 L 311.164 24.5 L 310.836 25.5 L 310.5 26.066 L 310.22 26.5 L 309.776 28.5 L 309.5 28.929 L 309.164 29.5 L 309 30.5 L 308.776 31.5 L 308.5 31.929 L 308.164 32.5 L 307.836 33.5 L 307.164 34.5 L 307 35.5 L 306.776 36.5 L 306.5 36.929 L 306.164 37.5 L 306 38.5 L 305.776 39.5 L 305.5 39.929 L 305.164 40.5 L 304.836 41.5 L 304.164 42.5 L 304 43.5 L 303.776 44.5 L 303.5 44.929 L 303.164 45.5 L 302.836 46.5 L 302.164 47.5 L 302 48.5 L 301.776 49.5 L 301.22 50.5 L 300.776 52.5 L 300.5 52.929 L 300.164 53.5 L 299.836 54.5 L 299.164 55.5 L 299 56.5 L 298.776 57.5 L 298.5 57.929 L 298.164 58.5 L 298 59.5 L 297.776 60.5 L 297.5 60.929 L 297.164 61.5 L 296.836 62.5 L 296.5 63.066 L 296.22 63.5 L 296.01 64.5 L 296 65.5 L 295.5 66 L 288.5 66 L 288 65.5 L 287.836 64.5 L 287.164 63.5 L 286.836 62.5 L 286.5 61.929 L 286.224 61.5 L 286 60.5 L 285.836 59.5 L 285.5 58.929 L 285.224 58.5 L 284.78 56.5 L 284.5 56.066 L 284.164 55.5 L 283.836 54.5 L 283.5 53.929 L 283.224 53.5 L 282.78 51.5 L 282.224 50.5 L 282 49.5 L 281.836 48.5 L 281.164 47.5 L 280.836 46.5 L 280.5 45.929 L 280.224 45.5 L 280 44.5 L 279.836 43.5 L 279.5 42.929 L 279.224 42.5 L 279 41.5 L 278.836 40.5 L 278.164 39.5 L 277.836 38.5 L 277.5 37.929 L 277.224 37.5 L 277 36.5 L 276.836 35.5 L 276.5 34.929 L 276.224 34.5 L 275.78 32.5 L 275.5 32.066 L 275.164 31.5 L 274.836 30.5 L 274.5 29.929 L 274.224 29.5 L 273.78 27.5 L 273.224 26.5 L 273 25.5 L 272.836 24.5 L 272.164 23.5 L 271.836 22.5 L 271.5 21.929 L 271.224 21.5 L 271 20.5 L 270.836 19.5 L 270.5 18.886 L 270.259 18.5 L 270 17.5 Z M 322 17.5 L 322.5 17 L 351.5 17 L 352 17.5 L 352 21.5 L 351.5 22 L 328.5 22 L 328 22.5 L 328 31.5 L 327.96 33.5 L 327.836 34.5 L 327.667 35.5 L 327.259 36.5 L 327.197 37.5 L 327.5 37.803 L 327.865 37.5 L 328.5 37.038 L 329.136 36.5 L 329.5 36.164 L 330.5 35.836 L 331.071 35.5 L 331.5 35.224 L 332.5 35.06 L 333.5 34.98 L 334.5 34.836 L 335.071 34.5 L 335.5 34.224 L 336.5 34.072 L 337.5 34 L 340.5 34.02 L 341.5 34.164 L 342.066 34.5 L 342.5 34.78 L 343.5 35 L 344.5 35.164 L 345.066 35.5 L 345.5 35.78 L 346.5 36 L 347.5 36.164 L 348.5 37 L 348.978 37.5 L 349.5 38.136 L 349.996 38.5 L 350.5 38.98 L 350.867 39.5 L 351.5 40.258 L 352.5 41.099 L 352.836 41.5 L 353.164 42.5 L 353.836 43.5 L 354 44.5 L 354.22 45.5 L 354.5 45.934 L 354.836 46.5 L 354.98 47.5 L 354.994 49.5 L 354.96 51.5 L 354.836 52.5 L 354.667 53.5 L 354.5 53.783 L 354.164 54.5 L 354 55.5 L 353.776 56.5 L 353.5 56.929 L 353.164 57.5 L 352.836 58.5 L 352.164 59.5 L 351.836 60.5 L 351 61.5 L 350.5 62 L 349.811 62.5 L 349.5 62.811 L 348.901 63.5 L 348.5 63.836 L 347.5 64.164 L 346.5 64.836 L 345.5 65.164 L 344.5 65.836 L 343.5 65.98 L 342.5 66.06 L 341.5 66.22 L 341.066 66.5 L 340.5 66.836 L 339.5 66.98 L 334.5 67 L 333.5 66.928 L 332.5 66.776 L 332.071 66.5 L 331.5 66.164 L 330.5 66.02 L 329.5 65.94 L 328.5 65.776 L 328.071 65.5 L 327.5 65.164 L 326.5 64.836 L 325.5 64.164 L 324.5 63.836 L 323.5 63 L 323 62.5 L 322.164 61.5 L 321.836 60.5 L 321 59.5 L 320.5 58.834 L 320.224 58.5 L 319.78 56.5 L 319.259 55.5 L 319 54.5 L 319.5 54 L 324.5 54.02 L 325.5 54.164 L 325.901 54.5 L 326.5 55.099 L 326.836 55.5 L 327.164 56.5 L 327.836 57.5 L 328 58.5 L 328.5 59 L 329.5 59.164 L 330.5 60 L 331.161 60.5 L 331.5 60.78 L 332.5 60.928 L 333.5 61.012 L 334.5 61.02 L 335.5 61.164 L 336.5 61.527 L 337.5 61.224 L 338.5 61.072 L 339.5 60.988 L 340.5 60.98 L 341.5 60.836 L 342.5 60.164 L 343.5 59.836 L 344.5 59 L 345 58.5 L 345.836 57.5 L 346.164 56.5 L 346.836 55.5 L 347.164 54.5 L 347.5 53.791 L 347.672 53.5 L 347.836 52.5 L 347.96 51.5 L 347.98 48.5 L 347.836 47.5 L 347.5 46.929 L 347.224 46.5 L 346.78 44.5 L 346.5 44.161 L 345.5 43.466 L 344.931 42.5 L 344.5 42 L 343.5 41.164 L 342.5 40.836 L 341.5 40.164 L 340.5 40.02 L 334.5 40 L 333.5 40.072 L 332.5 40.22 L 332.066 40.5 L 331.5 40.836 L 330.5 41.164 L 329.5 41.836 L 328.5 42.164 L 327.5 42.836 L 326.5 42.98 L 321.5 43 L 321 42.5 L 321 40.5 L 321.02 39.5 L 321 38.5 L 321.02 30.5 L 321.164 29.5 L 321.5 28.791 L 321.672 28.5 L 321.928 27.5 L 322 25.5 L 322 17.5 Z M 153.5 21.22 L 153.066 21.5 L 152.5 21.836 L 151.5 22.164 L 149.5 23.836 L 148.5 24 L 148 24.5 L 147.836 25.5 L 147.164 26.5 L 146.836 27.5 L 146.164 28.5 L 146.02 29.5 L 146.012 30.5 L 145.776 32.5 L 145.277 33.5 L 145.02 34.5 L 145 47.5 L 145.328 49.5 L 145.723 50.5 L 145.94 51.5 L 146.06 52.5 L 146.277 53.5 L 146.5 53.861 L 146.836 54.5 L 147.164 55.5 L 147.836 56.5 L 148.164 57.5 L 149 58.5 L 149.5 59 L 150.5 59.836 L 151.5 60.164 L 152.066 60.5 L 152.5 60.78 L 153.5 60.928 L 154.5 61 L 159.5 60.98 L 160.5 60.836 L 160.901 60.5 L 161.5 59.811 L 161.907 59.5 L 162.5 59.012 L 162.908 58.5 L 163.5 58 L 164 57.5 L 164.836 56.5 L 165.164 55.5 L 165.5 54.934 L 165.78 54.5 L 166 53.5 L 166.164 52.5 L 166.5 51.934 L 166.78 51.5 L 166.928 50.5 L 167 49.5 L 167.012 46.5 L 167.119 45.5 L 167.277 44.5 L 167.672 43.5 L 167.75 42.5 L 167.994 41.5 L 167.988 40.5 L 167.884 39.5 L 167.723 38.5 L 167.333 37.5 L 167 35.5 L 167 33.5 L 166.936 32.5 L 166.98 31.5 L 166.836 30.5 L 166.5 29.929 L 166.224 29.5 L 165.78 27.5 L 165.5 27.066 L 165.164 26.5 L 164.836 25.5 L 164.5 25.099 L 163.5 24.466 L 162.931 23.5 L 162.5 23 L 161.5 22.164 L 160.5 22 L 159.5 21.776 L 159.071 21.5 L 158.5 21.164 L 157.5 21.02 L 155.5 21 L 154.5 21.072 L 153.5 21.22 Z M 1249.071 22.5 L 1249.5 22.224 L 1250.5 22.072 L 1251.5 22 L 1258.5 22.02 L 1259.5 22.164 L 1260.066 22.5 L 1260.5 22.78 L 1261.5 23 L 1262.5 23.164 L 1263.5 23.836 L 1264.5 24.164 L 1265.5 24.836 L 1266.5 25.164 L 1267.5 26 L 1268 26.5 L 1268.836 27.5 L 1269.164 28.5 L 1269.836 29.5 L 1270 30.5 L 1270.22 31.5 L 1270.723 32.5 L 1270.881 33.5 L 1270.988 34.5 L 1271 36.5 L 1270.836 37.5 L 1270.776 38.5 L 1270.22 39.5 L 1269.776 41.5 L 1269.5 41.834 L 1269 42.5 L 1268.164 43.5 L 1267.836 44.5 L 1267 45.5 L 1266.5 46 L 1265.908 46.5 L 1265.5 47.012 L 1260.5 52.012 L 1259.907 52.5 L 1259.5 52.811 L 1258.901 53.5 L 1258.5 53.836 L 1257.5 54.164 L 1256.5 55 L 1256 55.5 L 1255.5 56.161 L 1255.073 56.5 L 1254.5 57.012 L 1253.907 57.5 L 1253.5 57.811 L 1252.901 58.5 L 1252.5 58.836 L 1251.5 59.164 L 1250.5 60 L 1250 60.5 L 1249.5 61.161 L 1248.199 62.5 L 1247.5 63.099 L 1247.164 63.5 L 1246.836 64.5 L 1245.175 66.5 L 1245.5 66.825 L 1246.5 66.928 L 1247.5 67 L 1271.5 67 L 1272 67.5 L 1272 71.5 L 1271.5 72 L 1237.5 72 L 1237 71.5 L 1237 70.5 L 1237.08 69.5 L 1237.224 68.5 L 1237.164 67.5 L 1237.836 66.5 L 1238.164 65.5 L 1239 64.5 L 1240 63.5 L 1240.836 62.5 L 1241.164 61.5 L 1241.5 61.099 L 1242.199 60.5 L 1242.5 60.199 L 1243.103 59.5 L 1243.5 59.012 L 1244.5 58.012 L 1245.078 57.5 L 1245.5 57.166 L 1246 56.5 L 1246.5 56 L 1247.5 55.164 L 1248.5 54.836 L 1248.901 54.5 L 1249.5 53.811 L 1249.907 53.5 L 1250.5 53.012 L 1251.078 52.5 L 1251.5 52.166 L 1252 51.5 L 1252.5 51 L 1253.5 50.164 L 1254.5 49.836 L 1254.901 49.5 L 1255.5 48.811 L 1255.907 48.5 L 1256.5 48.012 L 1259.5 45.012 L 1259.908 44.5 L 1260.5 44 L 1261 43.5 L 1261.836 42.5 L 1262.164 41.5 L 1262.836 40.5 L 1263.164 39.5 L 1263.5 38.934 L 1263.78 38.5 L 1263.836 37.5 L 1264 36.5 L 1263.988 34.5 L 1263.884 33.5 L 1263.723 32.5 L 1263.5 32.226 L 1262.774 31.5 L 1262.5 31.258 L 1261.846 30.5 L 1261.5 30.136 L 1260.978 29.5 L 1260.5 29 L 1259.5 28.164 L 1258.5 28.02 L 1257.5 27.94 L 1256.5 27.776 L 1256.071 27.5 L 1255.5 27.164 L 1254.5 27.182 L 1253.5 27.312 L 1253.186 27.5 L 1252.5 27.836 L 1251.5 27.98 L 1250.5 28.06 L 1249.5 28.22 L 1249.161 28.5 L 1248.5 29 L 1248 29.5 L 1247.527 30.5 L 1246.5 31.099 L 1246.164 31.5 L 1245.836 32.5 L 1245.5 33.066 L 1245.22 33.5 L 1245.01 34.5 L 1245 35.5 L 1244.5 36 L 1238.5 36 L 1238 35.5 L 1238 34.5 L 1238.208 33.5 L 1238.356 32.5 L 1238.5 32.25 L 1238.836 31.5 L 1239.164 30.5 L 1239.836 29.5 L 1240.164 28.5 L 1240.5 28.099 L 1241.199 27.5 L 1242.5 26.166 L 1243 25.5 L 1243.5 25 L 1244.5 24.164 L 1245.5 23.836 L 1246.071 23.5 L 1246.5 23.224 L 1247.5 23 L 1248.5 22.836 L 1249.071 22.5 Z M 713.071 23.5 L 713.5 23.224 L 714.5 23.072 L 715.5 23 L 720.5 23.02 L 721.5 23.164 L 722.066 23.5 L 722.5 23.78 L 723.5 23.94 L 724.5 24.02 L 725.5 24.164 L 726.5 24.836 L 727.5 25.164 L 728.5 26 L 728.978 26.5 L 729.5 27.136 L 729.846 27.5 L 730.5 28.258 L 731.5 29.099 L 731.836 29.5 L 732.164 30.5 L 732.836 31.5 L 733.164 32.5 L 733.5 33.071 L 733.776 33.5 L 734.22 35.5 L 734.5 35.934 L 734.836 36.5 L 734.98 37.5 L 735.06 38.5 L 735.22 39.5 L 735.5 39.934 L 735.836 40.5 L 735.98 41.5 L 736 54.5 L 735.836 55.5 L 735.776 56.5 L 735.277 57.5 L 735.02 58.5 L 734.94 59.5 L 734.723 60.5 L 734.5 60.861 L 734.164 61.5 L 734 62.5 L 733.776 63.5 L 733.5 63.929 L 733.164 64.5 L 732.836 65.5 L 732.164 66.5 L 731.836 67.5 L 731 68.5 L 730.5 69 L 729.908 69.5 L 729.5 70.012 L 728.907 70.5 L 728.5 70.811 L 727.901 71.5 L 727.5 71.836 L 726.5 72.164 L 725.5 72.836 L 724.5 73 L 723.5 73.22 L 723.066 73.5 L 722.5 73.836 L 721.5 73.98 L 714.5 74 L 713.5 73.928 L 712.5 73.776 L 712.071 73.5 L 711.5 73.164 L 710.5 72.836 L 709.5 72.164 L 708.5 71.836 L 708.099 71.5 L 707.5 70.758 L 706.5 69.98 L 706.111 69.5 L 705.5 69 L 705 68.5 L 704.164 67.5 L 703.836 66.5 L 703.164 65.5 L 702.836 64.5 L 702.5 63.929 L 702.224 63.5 L 702 62.5 L 701.836 61.5 L 701.5 60.861 L 701.277 60.5 L 701.06 59.5 L 700.98 58.5 L 700.723 57.5 L 700.224 56.5 L 700.164 55.5 L 700 54.5 L 700.02 41.5 L 700.164 40.5 L 700.5 39.934 L 700.78 39.5 L 700.94 38.5 L 701.02 37.5 L 701.164 36.5 L 701.5 35.934 L 701.78 35.5 L 702.224 33.5 L 702.5 33.071 L 702.836 32.5 L 703.164 31.5 L 703.836 30.5 L 704.164 29.5 L 704.5 29.099 L 705.199 28.5 L 706.5 27.166 L 707 26.5 L 707.5 26 L 708.5 25.164 L 709.5 24.836 L 710.071 24.5 L 710.5 24.224 L 711.5 24 L 712.5 23.836 L 713.071 23.5 Z M 1285 23.5 L 1285.5 23 L 1314.5 23 L 1315 23.5 L 1315 27.5 L 1314.5 28 L 1291.5 28 L 1291 28.5 L 1291.006 31.5 L 1290.96 33.5 L 1290.836 34.5 L 1290.667 35.5 L 1290.5 35.783 L 1290.164 36.5 L 1290.02 37.5 L 1290.064 38.5 L 1290 39.5 L 1290 41.5 L 1290.164 42.5 L 1290.25 43.5 L 1290.5 43.75 L 1290.806 43.5 L 1291.5 43 L 1292.5 42.164 L 1293.5 41.836 L 1294.071 41.5 L 1294.5 41.224 L 1295.5 41.072 L 1296.5 41 L 1298.5 40.98 L 1299.5 40.836 L 1300.114 40.5 L 1300.5 40.259 L 1301.5 40.259 L 1302.5 40.78 L 1303.5 40.928 L 1304.5 41.012 L 1305.5 41.02 L 1306.5 41.164 L 1307.066 41.5 L 1307.5 41.78 L 1308.5 42 L 1309.5 42.164 L 1311.5 43.836 L 1312.5 44.164 L 1312.901 44.5 L 1313.5 45.099 L 1313.836 45.5 L 1314.164 46.5 L 1315.836 48.5 L 1316.164 49.5 L 1316.5 50.139 L 1316.723 50.5 L 1316.887 51.5 L 1316.988 52.5 L 1317.11 53.5 L 1317.328 54.5 L 1317.741 55.5 L 1317.741 56.5 L 1317.277 57.5 L 1317.02 58.5 L 1317.012 59.5 L 1316.887 60.5 L 1316.667 61.5 L 1316.5 61.84 L 1316.22 62.5 L 1315.776 64.5 L 1315.5 64.834 L 1315 65.5 L 1314.164 66.5 L 1313.836 67.5 L 1313 68.5 L 1312.5 69 L 1311.5 69.836 L 1310.5 70.164 L 1309.5 70.836 L 1308.5 71.164 L 1307.5 71.836 L 1306.5 72 L 1305.5 72.22 L 1305.066 72.5 L 1304.5 72.836 L 1303.5 72.98 L 1295.5 73 L 1294.5 72.928 L 1293.5 72.776 L 1293.071 72.5 L 1292.5 72.164 L 1291.5 72 L 1290.5 71.776 L 1290.071 71.5 L 1289.5 71.164 L 1288.5 70.836 L 1288.099 70.5 L 1287.5 69.758 L 1286.5 68.98 L 1285.5 67.98 L 1285.111 67.5 L 1284.5 67 L 1284 66.5 L 1283.164 65.5 L 1282.836 64.5 L 1282.5 63.929 L 1282.224 63.5 L 1282.208 62.5 L 1282.01 61.5 L 1282 60.5 L 1282.5 60 L 1288.5 60 L 1289 60.5 L 1289.01 61.5 L 1289.22 62.5 L 1289.5 62.839 L 1290 63.5 L 1290.5 64 L 1291.111 64.5 L 1291.5 64.98 L 1292.5 65.758 L 1293.161 66.5 L 1293.5 66.78 L 1294.5 67 L 1295.5 67.164 L 1296.066 67.5 L 1296.5 67.78 L 1297.5 67.928 L 1298.5 68 L 1300.5 67.98 L 1301.5 67.836 L 1302.071 67.5 L 1302.5 67.224 L 1303.5 67 L 1304.5 66.836 L 1305.5 66.164 L 1306.5 65.836 L 1306.901 65.5 L 1307.5 64.901 L 1307.836 64.5 L 1308.164 63.5 L 1309 62.5 L 1309.5 61.774 L 1309.723 61.5 L 1309.94 60.5 L 1310.02 59.5 L 1310.164 58.5 L 1310.5 57.814 L 1310.688 57.5 L 1310.818 56.5 L 1310.836 55.5 L 1310.5 54.861 L 1310.277 54.5 L 1310.06 53.5 L 1309.98 52.5 L 1309.723 51.5 L 1309.5 51.226 L 1308.774 50.5 L 1308.5 50.258 L 1307.846 49.5 L 1307.5 49.136 L 1306.978 48.5 L 1306.5 48 L 1305.5 47.164 L 1304.5 47 L 1303.5 46.776 L 1303.071 46.5 L 1302.5 46.164 L 1301.5 46.02 L 1297.5 46 L 1296.5 46.072 L 1295.5 46.22 L 1295.066 46.5 L 1294.5 46.836 L 1293.5 47.164 L 1292.5 47.836 L 1291.5 48.164 L 1289.5 49.836 L 1288.5 49.98 L 1283.5 50 L 1283 49.5 L 1283.02 46.5 L 1283.277 45.5 L 1283.78 44.5 L 1283.836 43.5 L 1284 42.5 L 1284.02 30.5 L 1284.164 29.5 L 1284.5 28.791 L 1284.672 28.5 L 1284.928 27.5 L 1284.96 26.5 L 1285.012 25.5 L 1285 23.5 Z M 1373 23.5 L 1373.5 23 L 1406.5 23 L 1407 23.5 L 1406.988 25.5 L 1406.928 26.5 L 1406.776 27.5 L 1406.5 27.929 L 1406.164 28.5 L 1405.836 29.5 L 1404.164 31.5 L 1403.836 32.5 L 1402.164 34.5 L 1401.836 35.5 L 1401.164 36.5 L 1400.836 37.5 L 1400.164 38.5 L 1399.836 39.5 L 1398.164 41.5 L 1397.836 42.5 L 1397.164 43.5 L 1396.836 44.5 L 1396.164 45.5 L 1395.836 46.5 L 1395.164 47.5 L 1395 48.5 L 1394.776 49.5 L 1394.5 49.929 L 1394.164 50.5 L 1393.836 51.5 L 1393.164 52.5 L 1393 53.5 L 1392.776 54.5 L 1392.5 54.929 L 1392.164 55.5 L 1392 56.5 L 1391.776 57.5 L 1391.5 57.929 L 1391.164 58.5 L 1391.02 59.5 L 1390.94 60.5 L 1390.723 61.5 L 1390.277 62.5 L 1390.116 63.5 L 1390.012 64.5 L 1390 66.5 L 1389.836 67.5 L 1389.776 68.5 L 1389.22 69.5 L 1389.01 70.5 L 1389 71.5 L 1388.5 72 L 1382.5 72 L 1382 71.5 L 1382.259 70.5 L 1382.78 69.5 L 1382.928 68.5 L 1383 67.5 L 1383.02 64.5 L 1383.277 63.5 L 1383.78 62.5 L 1383.94 61.5 L 1384.02 60.5 L 1384.164 59.5 L 1384.5 58.861 L 1384.723 58.5 L 1384.94 57.5 L 1385.164 55.5 L 1385.836 54.5 L 1386.164 53.5 L 1386.5 52.934 L 1386.78 52.5 L 1387.224 50.5 L 1387.5 50.071 L 1387.836 49.5 L 1388.164 48.5 L 1388.836 47.5 L 1389.164 46.5 L 1389.836 45.5 L 1390.164 44.5 L 1390.836 43.5 L 1391.164 42.5 L 1391.836 41.5 L 1392.164 40.5 L 1393.836 38.5 L 1394.164 37.5 L 1394.836 36.5 L 1395.164 35.5 L 1396.836 33.5 L 1397.164 32.5 L 1398.836 30.5 L 1399.164 29.5 L 1399.872 28.5 L 1399.5 28.128 L 1398.5 28.02 L 1373.5 28 L 1373 27.5 L 1373 23.5 Z M 808.166 24.5 L 808.5 24.224 L 809.5 24.072 L 810.5 24 L 813.5 24 L 814 24.5 L 813.99 25.5 L 814 67.5 L 814.5 68 L 826.5 68 L 827 68.5 L 826.988 70.5 L 827 72.5 L 826.5 73 L 791.5 73 L 791 72.5 L 791.012 70.5 L 791 68.5 L 791.5 68 L 807.5 68 L 808 67.5 L 807.994 34.5 L 807.884 32.5 L 807.872 31.5 L 807.5 31.128 L 806.5 32 L 805.908 32.5 L 805.5 33.012 L 804.907 33.5 L 804.5 33.811 L 803.901 34.5 L 803.5 34.836 L 802.5 35 L 801.5 35.22 L 801.066 35.5 L 800.5 35.836 L 799.5 36.164 L 798.5 36.836 L 797.5 36.98 L 796.5 36.988 L 795.5 37.072 L 794.5 37.22 L 794.066 37.5 L 793.5 37.836 L 791.5 38 L 791 37.5 L 791 32.5 L 791.5 32 L 795.5 31.98 L 796.5 31.836 L 797.071 31.5 L 797.5 31.224 L 798.5 31 L 799.5 30.836 L 800.5 30.164 L 801.5 29.836 L 802.5 29.164 L 803.5 28.836 L 803.901 28.5 L 804.5 27.811 L 804.907 27.5 L 805.5 27.012 L 806.078 26.5 L 806.5 26.166 L 807 25.5 L 807.5 25 L 808.166 24.5 Z M 839 24.5 L 839.5 24 L 867.5 24 L 868 24.5 L 867.99 25.5 L 868 28.5 L 867.5 29 L 845.5 29 L 845 29.5 L 844.98 33.5 L 845 34.5 L 844.667 36.5 L 844.5 36.783 L 844.164 37.5 L 844.006 40.5 L 844 42.5 L 844.164 43.5 L 844.175 44.5 L 844.5 44.825 L 846.5 43.164 L 847.5 42.836 L 848.071 42.5 L 848.5 42.224 L 849.5 42.072 L 850.5 42 L 859.5 42.02 L 860.5 42.164 L 861.5 42.836 L 862.5 43.164 L 863.5 43.836 L 864.5 44.164 L 865.5 45 L 865.978 45.5 L 866.5 46.136 L 866.996 46.5 L 867.5 46.98 L 867.867 47.5 L 868.5 48.258 L 869.5 49.099 L 869.836 49.5 L 870.164 50.5 L 870.5 51.139 L 870.723 51.5 L 870.98 52.5 L 871 60.5 L 870.836 61.5 L 870.776 62.5 L 870.22 63.5 L 869.776 65.5 L 869.5 65.834 L 869 66.5 L 868.164 67.5 L 867.836 68.5 L 867 69.5 L 866.5 70 L 865.5 70.836 L 864.5 71.164 L 863.5 71.836 L 862.5 72.164 L 861.5 72.836 L 860.5 73 L 859.5 73.22 L 859.066 73.5 L 858.5 73.836 L 857.5 73.98 L 849.5 74 L 848.5 73.928 L 847.5 73.776 L 847.071 73.5 L 846.5 73.164 L 845.5 73 L 844.5 72.776 L 844.071 72.5 L 843.5 72.164 L 842.5 71.836 L 842.099 71.5 L 841.5 70.758 L 840.5 69.98 L 839.5 68.98 L 839.111 68.5 L 838.5 68 L 838 67.5 L 837.164 66.5 L 836.836 65.5 L 836.5 64.814 L 836.312 64.5 L 836.182 63.5 L 836.312 62.5 L 837.166 61.5 L 837.5 61.224 L 838.5 61.072 L 839.5 61 L 842.5 61 L 843 61.5 L 843.01 62.5 L 843.22 63.5 L 843.5 63.839 L 844 64.5 L 844.5 65 L 845.111 65.5 L 845.5 65.98 L 846.5 66.758 L 847.161 67.5 L 847.5 67.78 L 848.5 68 L 849.5 68.164 L 850.066 68.5 L 850.5 68.78 L 851.5 68.928 L 852.5 69 L 854.5 68.98 L 855.5 68.836 L 856.071 68.5 L 856.5 68.224 L 857.5 68 L 858.5 67.836 L 859.5 67.164 L 860.5 66.836 L 860.901 66.5 L 861.5 65.901 L 861.836 65.5 L 862.164 64.5 L 863 63.5 L 863.5 62.839 L 863.78 62.5 L 863.94 61.5 L 864.02 60.5 L 864.164 59.5 L 864.5 58.886 L 864.741 58.5 L 864.741 57.5 L 864.224 56.5 L 864.06 55.5 L 863.98 54.5 L 863.836 53.5 L 863.164 52.5 L 862.836 51.5 L 862.5 51.099 L 861.5 50.466 L 860.931 49.5 L 860.5 49 L 859.5 48.164 L 858.5 48 L 857.5 47.776 L 857.071 47.5 L 856.5 47.164 L 855.5 47.02 L 851.5 47 L 850.5 47.072 L 849.5 47.22 L 849.066 47.5 L 848.5 47.836 L 847.5 48.164 L 846.5 48.836 L 845.5 49.164 L 843.5 50.836 L 842.5 50.98 L 837.5 51 L 837 50.5 L 837.02 46.5 L 837.277 45.5 L 837.78 44.5 L 837.836 43.5 L 838 42.5 L 838 33.5 L 838.064 32.5 L 838.02 31.5 L 838.164 30.5 L 838.5 29.791 L 838.672 29.5 L 838.836 28.5 L 838.96 27.5 L 839.01 25.5 L 839 24.5 Z M 877 24.5 L 877.5 24 L 883.5 24 L 884 24.5 L 884.164 25.5 L 884.836 26.5 L 885.164 27.5 L 885.836 28.5 L 886 29.5 L 886.22 30.5 L 886.5 30.934 L 886.836 31.5 L 887 32.5 L 887.22 33.5 L 887.5 33.934 L 887.836 34.5 L 888 35.5 L 888.22 36.5 L 888.5 36.934 L 888.836 37.5 L 889 38.5 L 889.22 39.5 L 889.5 39.934 L 889.836 40.5 L 890.164 41.5 L 890.836 42.5 L 891 43.5 L 891.22 44.5 L 891.776 45.5 L 892.22 47.5 L 892.5 47.934 L 892.836 48.5 L 893 49.5 L 893.22 50.5 L 893.776 51.5 L 894.22 53.5 L 894.5 53.934 L 894.836 54.5 L 895.164 55.5 L 895.5 56.071 L 895.776 56.5 L 896.22 58.5 L 896.5 58.934 L 896.836 59.5 L 896.98 60.5 L 897.06 61.5 L 897.22 62.5 L 897.776 63.5 L 898 64.5 L 898.175 65.5 L 898.5 65.825 L 898.889 65.5 L 899.723 64.5 L 899.94 63.5 L 900.164 61.5 L 900.5 60.934 L 900.78 60.5 L 901 59.5 L 901.164 58.5 L 901.5 57.934 L 901.78 57.5 L 902 56.5 L 902.164 55.5 L 902.836 54.5 L 903.164 53.5 L 903.5 52.934 L 903.78 52.5 L 904.224 50.5 L 904.78 49.5 L 905 48.5 L 905.164 47.5 L 905.5 46.934 L 905.78 46.5 L 906.224 44.5 L 906.78 43.5 L 907 42.5 L 907.164 41.5 L 907.5 40.934 L 907.78 40.5 L 908.224 38.5 L 908.5 38.071 L 908.836 37.5 L 909.164 36.5 L 909.5 35.934 L 909.78 35.5 L 910.224 33.5 L 910.78 32.5 L 911 31.5 L 911.164 30.5 L 911.5 29.934 L 911.78 29.5 L 912.224 27.5 L 912.78 26.5 L 912.99 25.5 L 913 24.5 L 913.5 24 L 919.5 24.02 L 920.5 24.131 L 920.869 24.5 L 920.164 25.5 L 920 26.5 L 919.776 27.5 L 919.5 27.929 L 919.164 28.5 L 919 29.5 L 918.776 30.5 L 918.5 30.929 L 918.164 31.5 L 917.836 32.5 L 917.5 33.066 L 917.22 33.5 L 916.776 35.5 L 916.5 35.929 L 916.164 36.5 L 916 37.5 L 915.776 38.5 L 915.5 38.929 L 915.164 39.5 L 914.836 40.5 L 914.164 41.5 L 914 42.5 L 913.776 43.5 L 913.22 44.5 L 912.776 46.5 L 912.5 46.929 L 912.164 47.5 L 911.836 48.5 L 911.164 49.5 L 911 50.5 L 910.776 51.5 L 910.5 51.929 L 910.164 52.5 L 910 53.5 L 909.776 54.5 L 909.5 54.929 L 909.164 55.5 L 908.836 56.5 L 908.5 57.066 L 908.22 57.5 L 907.776 59.5 L 907.5 59.929 L 907.164 60.5 L 907 61.5 L 906.776 62.5 L 906.5 62.929 L 906.164 63.5 L 905.836 64.5 L 905.164 65.5 L 905 66.5 L 904.776 67.5 L 904.22 68.5 L 903.776 70.5 L 903.5 70.929 L 903.164 71.5 L 903 72.5 L 902.5 73 L 897.5 73 L 896.5 72.928 L 895.5 72.776 L 895.166 72.5 L 894.5 71.834 L 894.224 71.5 L 893.78 69.5 L 893.5 69.066 L 893.164 68.5 L 892.836 67.5 L 892.5 66.929 L 892.224 66.5 L 892 65.5 L 891.836 64.5 L 891.5 63.929 L 891.224 63.5 L 891 62.5 L 890.836 61.5 L 890.164 60.5 L 889.836 59.5 L 889.5 58.929 L 889.224 58.5 L 888.78 56.5 L 888.224 55.5 L 888 54.5 L 887.836 53.5 L 887.164 52.5 L 886.836 51.5 L 886.5 50.929 L 886.224 50.5 L 886 49.5 L 885.836 48.5 L 885.5 47.929 L 885.224 47.5 L 884.78 45.5 L 884.5 45.066 L 884.164 44.5 L 883.836 43.5 L 883.5 42.929 L 883.224 42.5 L 883 41.5 L 882.836 40.5 L 882.5 39.929 L 882.224 39.5 L 882 38.5 L 881.836 37.5 L 881.164 36.5 L 880.836 35.5 L 880.5 34.929 L 880.224 34.5 L 879.78 32.5 L 879.224 31.5 L 879 30.5 L 878.836 29.5 L 878.164 28.5 L 877.836 27.5 L 877.5 26.814 L 877.312 26.5 L 877.077 25.5 L 877 24.5 Z M 717.5 28.259 L 717.114 28.5 L 716.5 28.836 L 715.5 28.98 L 714.5 29.06 L 713.5 29.22 L 713.161 29.5 L 712.5 30 L 711.5 30.836 L 710.5 31 L 710 31.5 L 709.836 32.5 L 709.164 33.5 L 708.836 34.5 L 708.164 35.5 L 708 36.5 L 707.776 37.5 L 707.277 38.5 L 707.116 39.5 L 707.012 40.5 L 707 55.5 L 707.072 57.5 L 707.328 58.5 L 707.5 58.791 L 707.836 59.5 L 708 60.5 L 708.22 61.5 L 708.5 61.934 L 708.836 62.5 L 709.164 63.5 L 709.836 64.5 L 710.164 65.5 L 710.5 65.901 L 711.099 66.5 L 711.5 66.836 L 712.5 67.164 L 713.5 67.836 L 714.5 68.164 L 715.066 68.5 L 715.5 68.78 L 716.5 68.928 L 717.5 69 L 719.5 68.98 L 720.5 68.836 L 721.5 68.164 L 722.5 67.836 L 722.901 67.5 L 723.5 66.811 L 723.907 66.5 L 724.5 66.012 L 724.908 65.5 L 725.5 65 L 726 64.5 L 726.836 63.5 L 727.164 62.5 L 727.5 61.861 L 727.723 61.5 L 727.94 60.5 L 728.02 59.5 L 728.164 58.5 L 728.5 57.934 L 728.78 57.5 L 728.928 56.5 L 729 55.5 L 728.98 40.5 L 728.723 39.5 L 728.224 38.5 L 728.06 37.5 L 727.98 36.5 L 727.836 35.5 L 727.164 34.5 L 726.836 33.5 L 726.5 33.099 L 725.5 32.258 L 724.846 31.5 L 724.5 31.136 L 723.978 30.5 L 723.5 30 L 722.5 29.164 L 721.5 29.02 L 720.5 28.94 L 719.5 28.776 L 718.5 28.259 L 717.5 28.259 Z M 1417.175 32.5 L 1417.5 32.175 L 1418.5 32.072 L 1419.5 32 L 1422.5 32.02 L 1423.5 32.164 L 1424.5 33 L 1425 33.5 L 1425.836 34.5 L 1426.164 35.5 L 1427 36.5 L 1428 37.5 L 1428.836 38.5 L 1429.164 39.5 L 1430.836 41.5 L 1431.164 42.5 L 1432 43.5 L 1433 44.5 L 1433.836 45.5 L 1434 46.5 L 1434.5 47 L 1435.5 46.741 L 1436.5 45.901 L 1436.836 45.5 L 1437.164 44.5 L 1438.836 42.5 L 1439.164 41.5 L 1440 40.5 L 1441 39.5 L 1441.836 38.5 L 1442.164 37.5 L 1443.836 35.5 L 1444.164 34.5 L 1445 33.5 L 1445.5 33 L 1446.166 32.5 L 1446.5 32.224 L 1447.5 32.072 L 1448.5 32 L 1451.5 32.02 L 1452.5 32.131 L 1452.869 32.5 L 1452.164 33.5 L 1451.836 34.5 L 1451 35.5 L 1450 36.5 L 1449.164 37.5 L 1448.836 38.5 L 1448 39.5 L 1447 40.5 L 1446.164 41.5 L 1445.836 42.5 L 1445 43.5 L 1444 44.5 L 1443.164 45.5 L 1442.836 46.5 L 1442 47.5 L 1441 48.5 L 1440.164 49.5 L 1439.481 51.5 L 1440.164 53.5 L 1441 54.5 L 1442 55.5 L 1442.836 56.5 L 1443.164 57.5 L 1444 58.5 L 1445 59.5 L 1445.836 60.5 L 1446.164 61.5 L 1447 62.5 L 1448 63.5 L 1448.836 64.5 L 1449.164 65.5 L 1450.836 67.5 L 1451.164 68.5 L 1452 69.5 L 1453 70.5 L 1453.869 71.5 L 1453.5 71.869 L 1452.5 71.98 L 1446.5 72 L 1446 71.5 L 1445.836 70.5 L 1445 69.5 L 1444 68.5 L 1443.164 67.5 L 1442.836 66.5 L 1441.164 64.5 L 1440.836 63.5 L 1440 62.5 L 1439 61.5 L 1438.164 60.5 L 1437.836 59.5 L 1436.164 57.5 L 1435.872 56.5 L 1435.5 56.128 L 1434.5 57 L 1434 57.5 L 1433.5 58.199 L 1433.199 58.5 L 1432.5 59.099 L 1432.164 59.5 L 1431.836 60.5 L 1430.164 62.5 L 1429.836 63.5 L 1429 64.5 L 1428 65.5 L 1427.164 66.5 L 1426.836 67.5 L 1425.164 69.5 L 1424.836 70.5 L 1424.5 70.901 L 1423.901 71.5 L 1423.5 71.836 L 1422.5 71.98 L 1417.5 72 L 1417 71.5 L 1417.259 70.5 L 1417.5 70.204 L 1418 69.5 L 1419 68.5 L 1419.836 67.5 L 1420.164 66.5 L 1421 65.5 L 1422 64.5 L 1422.836 63.5 L 1423.164 62.5 L 1424 61.5 L 1425 60.5 L 1425.836 59.5 L 1426.164 58.5 L 1427.836 56.5 L 1428.164 55.5 L 1429 54.5 L 1430 53.5 L 1430.5 52.796 L 1430.741 52.5 L 1430.741 51.5 L 1430.5 51.114 L 1430.164 50.5 L 1429.836 49.5 L 1429 48.5 L 1428 47.5 L 1427.164 46.5 L 1426.836 45.5 L 1425.164 43.5 L 1424.836 42.5 L 1424 41.5 L 1423 40.5 L 1422.164 39.5 L 1421.836 38.5 L 1421 37.5 L 1420 36.5 L 1419.164 35.5 L 1418.836 34.5 L 1417.175 32.5 Z M 152 37.5 L 152.5 37 L 160.5 37 L 161 37.5 L 161 45.5 L 160.5 46 L 152.5 46 L 152 45.5 L 152 37.5 Z M 191 43.5 L 191.5 43 L 211.5 43 L 212 43.5 L 212 48.5 L 211.5 49 L 191.5 49 L 191 48.5 L 191 43.5 Z M 714 44.5 L 714.5 44 L 721.5 44 L 722 44.5 L 722 49.5 L 721.98 50.5 L 722 51.5 L 722 52.5 L 721.5 53 L 714.5 53 L 714 52.5 L 714 51.5 L 714.02 50.5 L 714 49.5 L 714 44.5 Z M 753 51.5 L 753.5 51 L 773.5 51 L 774 51.5 L 774 56.5 L 773.5 57 L 753.5 57 L 753 56.5 L 753 51.5 Z M 1340 61.5 L 1340.5 61 L 1348.5 61 L 1349 61.5 L 1349 67.5 L 1348.98 68.5 L 1348.98 69.5 L 1349 70.5 L 1349 71.5 L 1348.5 72 L 1340.5 72 L 1340 71.5 L 1340 70.5 L 1340.02 69.5 L 1340.02 68.5 L 1340 67.5 L 1340 61.5 Z M 1103.5 85 L 1103 85.5 L 1103.01 86.5 L 1103 226.5 L 1103.5 227 L 1317.5 227 L 1318 226.5 L 1317.99 86.5 L 1318 85.5 L 1317.5 85 L 1103.5 85 Z M 1372.5 85 L 1372 85.5 L 1372.01 86.5 L 1372 226.5 L 1372.5 227 L 1586.5 227 L 1587 226.5 L 1587 85.5 L 1586.5 85 L 1372.5 85 Z M 11.5 86 L 11 86.5 L 11 226.5 L 11.5 227 L 225.5 227 L 226 226.5 L 226 86.5 L 225.5 86 L 11.5 86 Z M 288.5 86 L 288 86.5 L 288 226.5 L 288.5 227 L 503.5 227 L 504 226.5 L 504 86.5 L 503.5 86 L 288.5 86 Z M 558.5 86 L 558 86.5 L 558 226.5 L 558.5 227 L 772.5 227 L 773 226.5 L 773 86.5 L 772.5 86 L 558.5 86 Z M 826.5 86 L 826 86.5 L 826 226.5 L 826.5 227 L 1040.5 227 L 1041 226.5 L 1041 86.5 L 1040.5 86 L 826.5 86 Z M 180.071 91.5 L 180.5 91.224 L 181.5 91.072 L 182.5 91 L 192.5 91.02 L 193.5 91.164 L 194.066 91.5 L 194.5 91.78 L 195.5 91.928 L 196.5 92.012 L 197.5 92.02 L 198.5 92.164 L 199.5 92.836 L 200.5 93.164 L 201.066 93.5 L 201.5 93.78 L 202.5 94 L 203.5 94.164 L 204.5 95 L 204.978 95.5 L 205.5 96.136 L 205.996 96.5 L 207.5 97.98 L 207.867 98.5 L 208.5 99.258 L 209.5 100.099 L 209.836 100.5 L 210.164 101.5 L 210.836 102.5 L 210.98 103.5 L 211.06 104.5 L 211.277 105.5 L 211.723 106.5 L 211.98 107.5 L 212 111.5 L 211.96 112.5 L 211.836 113.5 L 211.667 114.5 L 211.5 114.783 L 211.164 115.5 L 211 116.5 L 210.776 117.5 L 210.5 117.929 L 210.164 118.5 L 209.836 119.5 L 209.164 120.5 L 208.836 121.5 L 208 122.5 L 207.5 123 L 206.811 123.5 L 206.5 123.811 L 205.901 124.5 L 205.5 124.836 L 204.5 125.164 L 203.5 125.836 L 202.5 126.164 L 201.5 126.836 L 199.5 127 L 199 126.5 L 198.99 125.5 L 198.78 124.5 L 198.5 123.873 L 198.312 123.5 L 198.182 122.5 L 198.164 121.5 L 198.5 121.099 L 199.099 120.5 L 199.5 120.164 L 200.5 119.836 L 201.5 119.164 L 202.5 118.836 L 202.901 118.5 L 203.5 117.901 L 203.836 117.5 L 204.164 116.5 L 204.836 115.5 L 205.164 114.5 L 205.5 113.791 L 205.672 113.5 L 205.928 112.5 L 206 111.5 L 205.98 108.5 L 205.836 107.5 L 205.164 106.5 L 204.836 105.5 L 204.164 104.5 L 203.836 103.5 L 203 102.5 L 202.5 102 L 201.5 101.164 L 200.5 100.836 L 199.5 100.164 L 198.5 100 L 197.5 99.776 L 197.071 99.5 L 196.5 99.164 L 195.5 99.02 L 191.5 99 L 190.5 98.928 L 189.5 98.776 L 189.071 98.5 L 188.5 98.164 L 187.5 98.02 L 186.5 98.012 L 185.5 98.072 L 184.5 98.22 L 184.066 98.5 L 183.5 98.836 L 182.5 98.98 L 178.5 99 L 177.5 99.072 L 176.5 99.22 L 176.066 99.5 L 175.5 99.836 L 174.5 100.164 L 173.5 100.836 L 172.5 101.164 L 171.5 101.836 L 170.5 102.164 L 169.5 103 L 169 103.5 L 168.164 104.5 L 167.836 105.5 L 167.5 106.139 L 167.277 106.5 L 167.02 107.5 L 166.94 108.5 L 166.723 109.5 L 166.5 109.861 L 166.164 110.5 L 166.182 111.5 L 166.312 112.5 L 166.5 112.814 L 166.836 113.5 L 166.98 114.5 L 167.06 115.5 L 167.277 116.5 L 167.5 116.861 L 167.836 117.5 L 168 118.5 L 168.22 119.5 L 168.5 119.839 L 169.161 120.5 L 169.5 120.78 L 170.5 120.928 L 171.5 121 L 181.5 121 L 182 120.5 L 182 119.5 L 181.98 118.5 L 182 117.5 L 182.01 111.5 L 182 110.5 L 182.5 110 L 187.5 110 L 188 110.5 L 187.99 111.5 L 188 123.5 L 187.98 124.5 L 187.98 125.5 L 188 126.5 L 188 127.5 L 187.5 128 L 166.5 128 L 166 127.5 L 165.836 126.5 L 164.164 124.5 L 163.836 123.5 L 163.5 122.929 L 163.224 122.5 L 163 121.5 L 162.836 120.5 L 162.5 119.929 L 162.224 119.5 L 162 118.5 L 161.836 117.5 L 161.5 116.783 L 161.333 116.5 L 161 114.5 L 161.006 107.5 L 161.064 106.5 L 161.02 105.5 L 161.164 104.5 L 161.836 103.5 L 162.164 102.5 L 162.836 101.5 L 163.164 100.5 L 163.5 100.099 L 164.199 99.5 L 164.5 99.199 L 165.103 98.5 L 165.5 98.012 L 166.078 97.5 L 166.5 97.166 L 167 96.5 L 167.5 96 L 168.5 95.164 L 169.5 94.836 L 170.5 94.164 L 171.5 93.836 L 172.071 93.5 L 172.5 93.224 L 173.5 93 L 174.5 92.836 L 175.071 92.5 L 175.5 92.224 L 176.5 92.072 L 177.5 91.988 L 178.5 91.98 L 179.5 91.836 L 180.071 91.5 Z M 994.071 91.5 L 994.5 91.224 L 995.5 91.072 L 996.5 91 L 1006.5 91.02 L 1007.5 91.164 L 1008.066 91.5 L 1008.5 91.78 L 1009.5 91.928 L 1010.5 92.012 L 1011.5 92.02 L 1012.5 92.164 L 1013.5 92.836 L 1014.5 93.164 L 1015.066 93.5 L 1015.5 93.78 L 1016.5 94 L 1017.5 94.164 L 1018.5 95 L 1018.978 95.5 L 1019.5 96.136 L 1019.996 96.5 L 1021.5 97.98 L 1021.867 98.5 L 1022.5 99.258 L 1023.5 100.166 L 1023.776 100.5 L 1024.22 102.5 L 1024.5 102.934 L 1024.836 103.5 L 1025 104.5 L 1025.22 105.5 L 1025.723 106.5 L 1025.98 107.5 L 1026 111.5 L 1025.96 112.5 L 1025.836 113.5 L 1025.667 114.5 L 1025.5 114.783 L 1025.164 115.5 L 1025 116.5 L 1024.776 117.5 L 1024.5 117.929 L 1024.164 118.5 L 1023.836 119.5 L 1023.164 120.5 L 1022.836 121.5 L 1022 122.5 L 1021.5 123 L 1020.811 123.5 L 1020.5 123.811 L 1019.901 124.5 L 1019.5 124.836 L 1018.5 125.164 L 1017.5 125.836 L 1016.5 126.164 L 1015.5 126.836 L 1013.5 127 L 1013 126.5 L 1012.99 125.5 L 1012.78 124.5 L 1012.5 123.873 L 1012.312 123.5 L 1012.182 122.5 L 1012.164 121.5 L 1012.5 121.099 L 1013.099 120.5 L 1013.5 120.164 L 1014.5 119.836 L 1015.5 119.164 L 1016.5 118.836 L 1016.901 118.5 L 1017.5 117.901 L 1017.836 117.5 L 1018.164 116.5 L 1018.836 115.5 L 1019.164 114.5 L 1019.5 113.791 L 1019.672 113.5 L 1019.928 112.5 L 1020 111.5 L 1019.98 108.5 L 1019.836 107.5 L 1019.164 106.5 L 1018.836 105.5 L 1018.164 104.5 L 1017.836 103.5 L 1017 102.5 L 1016.5 102 L 1015.5 101.164 L 1014.5 100.836 L 1013.5 100.164 L 1012.5 100 L 1011.5 99.776 L 1011.071 99.5 L 1010.5 99.164 L 1009.5 99.02 L 1005.5 99 L 1004.5 98.928 L 1003.5 98.776 L 1003.071 98.5 L 1002.5 98.164 L 1001.5 98.02 L 1000.5 98.012 L 999.5 98.072 L 998.5 98.22 L 998.066 98.5 L 997.5 98.836 L 996.5 98.98 L 992.5 99 L 991.5 99.072 L 990.5 99.22 L 990.066 99.5 L 989.5 99.836 L 988.5 100.164 L 987.5 100.836 L 986.5 101.164 L 985.5 101.836 L 984.5 102.164 L 983.5 103 L 983 103.5 L 982.164 104.5 L 981.836 105.5 L 981.5 106.139 L 981.277 106.5 L 981.02 107.5 L 980.94 108.5 L 980.723 109.5 L 980.5 109.861 L 980.164 110.5 L 980.182 111.5 L 980.312 112.5 L 980.5 112.814 L 980.836 113.5 L 980.98 114.5 L 981.06 115.5 L 981.277 116.5 L 981.5 116.861 L 981.836 117.5 L 982 118.5 L 982.22 119.5 L 982.5 119.839 L 983.161 120.5 L 983.5 120.78 L 984.5 120.928 L 985.5 121 L 995.5 121 L 996 120.5 L 996 119.5 L 995.98 118.5 L 996 117.5 L 996.01 111.5 L 996 110.5 L 996.5 110 L 1001.5 110 L 1002 110.5 L 1001.99 111.5 L 1002 123.5 L 1001.98 124.5 L 1001.98 125.5 L 1002 126.5 L 1002 127.5 L 1001.5 128 L 980.5 128 L 980 127.5 L 979.836 126.5 L 978.164 124.5 L 977.836 123.5 L 977.5 122.929 L 977.224 122.5 L 977 121.5 L 976.836 120.5 L 976.5 119.929 L 976.224 119.5 L 976 118.5 L 975.836 117.5 L 975.5 116.783 L 975.333 116.5 L 975 114.5 L 975.006 107.5 L 975.064 106.5 L 975.02 105.5 L 975.164 104.5 L 975.836 103.5 L 976.164 102.5 L 976.836 101.5 L 977.164 100.5 L 977.5 100.099 L 978.199 99.5 L 978.5 99.199 L 979.103 98.5 L 979.5 98.012 L 980.078 97.5 L 980.5 97.166 L 981 96.5 L 981.5 96 L 982.5 95.164 L 983.5 94.836 L 984.5 94.164 L 985.5 93.836 L 986.071 93.5 L 986.5 93.224 L 987.5 93 L 988.5 92.836 L 989.071 92.5 L 989.5 92.224 L 990.5 92.072 L 991.5 91.988 L 992.5 91.98 L 993.5 91.836 L 994.071 91.5 Z M 1538.071 91.5 L 1538.5 91.224 L 1539.5 91.072 L 1540.5 91 L 1553.5 91.02 L 1554.5 91.164 L 1555.066 91.5 L 1555.5 91.78 L 1556.5 91.94 L 1557.5 92.02 L 1558.5 92.164 L 1559.5 92.836 L 1560.5 93.164 L 1561.5 93.836 L 1562.5 94.164 L 1563.5 94.836 L 1564.5 95.164 L 1565.5 96 L 1565.931 96.5 L 1566.5 97.473 L 1567.5 98.099 L 1567.836 98.5 L 1568.164 99.5 L 1569.836 101.5 L 1570 102.5 L 1570.22 103.5 L 1570.5 103.934 L 1570.836 104.5 L 1570.98 105.5 L 1570.936 106.5 L 1570.994 107.5 L 1571 111.5 L 1570.98 112.5 L 1571 113.5 L 1570.667 115.5 L 1570.5 115.783 L 1570.164 116.5 L 1570 117.5 L 1569.776 118.5 L 1569.5 118.929 L 1569.164 119.5 L 1568.836 120.5 L 1568 121.5 L 1567.5 122 L 1566.908 122.5 L 1566.5 123.012 L 1565.907 123.5 L 1565.5 123.811 L 1564.901 124.5 L 1564.5 124.836 L 1563.5 125.164 L 1562.5 125.836 L 1561.5 126.164 L 1560.886 126.5 L 1560.5 126.741 L 1559.5 126.741 L 1559.204 126.5 L 1558.5 125.834 L 1558.224 125.5 L 1558 124.5 L 1557.836 123.5 L 1557.5 122.886 L 1557.259 122.5 L 1557.259 121.5 L 1558.099 120.5 L 1558.5 120.164 L 1559.5 119.836 L 1560.5 119.164 L 1561.5 118.836 L 1562.5 118 L 1563 117.5 L 1563.836 116.5 L 1564.164 115.5 L 1564.5 114.861 L 1564.723 114.5 L 1564.94 113.5 L 1565.164 111.5 L 1565.527 110.5 L 1565.333 109.5 L 1565.113 108.5 L 1564.988 107.5 L 1564.89 106.5 L 1564.836 105.5 L 1564.5 105.099 L 1563.5 104.258 L 1562.846 103.5 L 1562.5 103.136 L 1561.978 102.5 L 1561.5 102 L 1560.5 101.164 L 1559.5 100.836 L 1558.5 100.164 L 1557.5 99.836 L 1556.5 99.164 L 1555.5 99.02 L 1553.5 99 L 1552.5 98.928 L 1551.5 98.776 L 1551.071 98.5 L 1550.5 98.164 L 1549.5 98.02 L 1543.5 98 L 1542.5 98.072 L 1541.5 98.22 L 1541.066 98.5 L 1540.5 98.836 L 1539.5 98.98 L 1537.5 99 L 1536.5 99.072 L 1535.5 99.22 L 1535.066 99.5 L 1534.5 99.836 L 1533.5 100.164 L 1532.5 100.836 L 1531.5 101.164 L 1530.5 101.836 L 1529.5 102.164 L 1529.099 102.5 L 1528.5 103.099 L 1528.164 103.5 L 1527.836 104.5 L 1527.164 105.5 L 1526.836 106.5 L 1526.164 107.5 L 1526.02 108.5 L 1526 111.5 L 1526.02 112.5 L 1526 113.5 L 1526.328 115.5 L 1526.5 115.791 L 1526.836 116.5 L 1527 117.5 L 1527.22 118.5 L 1527.5 118.839 L 1528.161 119.5 L 1528.5 119.78 L 1529.5 119.928 L 1530.5 120 L 1540.5 120 L 1541 119.5 L 1541 110.5 L 1541.5 110 L 1546.5 110 L 1547 110.5 L 1547 123.5 L 1546.98 124.5 L 1547 125.5 L 1547 126.5 L 1546.5 127 L 1525.5 127 L 1525 126.5 L 1524.836 125.5 L 1523.164 123.5 L 1522.836 122.5 L 1522.5 121.929 L 1522.224 121.5 L 1521.78 119.5 L 1521.224 118.5 L 1521.06 117.5 L 1520.98 116.5 L 1520.836 115.5 L 1520.5 114.783 L 1520.333 114.5 L 1520.164 113.5 L 1520.04 112.5 L 1520 111.5 L 1520.02 107.5 L 1520.277 106.5 L 1520.78 105.5 L 1521 104.5 L 1521.164 103.5 L 1521.836 102.5 L 1522.164 101.5 L 1522.836 100.5 L 1523.164 99.5 L 1523.5 99.099 L 1524.527 98.5 L 1525 97.5 L 1525.5 97 L 1526.5 96.164 L 1527.5 95.836 L 1529.5 94.164 L 1530.5 93.836 L 1531.071 93.5 L 1531.5 93.224 L 1532.5 93 L 1533.5 92.836 L 1534.071 92.5 L 1534.5 92.224 L 1535.5 92.06 L 1536.5 91.98 L 1537.5 91.836 L 1538.071 91.5 Z M 455.071 93.5 L 455.5 93.224 L 456.5 93.072 L 457.5 93 L 470.5 93.02 L 471.5 93.164 L 472.066 93.5 L 472.5 93.78 L 473.5 93.94 L 474.5 94.02 L 475.5 94.164 L 476.066 94.5 L 476.5 94.78 L 477.5 95 L 478.5 95.164 L 479.5 95.836 L 480.5 96.164 L 481.5 97 L 482.036 97.5 L 482.5 97.964 L 483.099 98.5 L 483.5 98.836 L 484.5 99 L 485 99.5 L 485.164 100.5 L 486.836 102.5 L 487.164 103.5 L 487.836 104.5 L 487.98 105.5 L 488.06 106.5 L 488.277 107.5 L 488.5 107.861 L 488.836 108.5 L 488.98 109.5 L 488.994 111.5 L 488.98 112.5 L 489 113.5 L 488.667 115.5 L 488.5 115.783 L 488.164 116.5 L 488.02 117.5 L 487.94 118.5 L 487.776 119.5 L 487.5 119.929 L 487.164 120.5 L 486.836 121.5 L 485.164 123.5 L 484.836 124.5 L 484.5 124.901 L 483.901 125.5 L 483.5 125.836 L 482.5 126.164 L 480.5 127.836 L 479.5 128.164 L 478.5 128.836 L 476.5 129 L 476 128.5 L 475.99 127.5 L 475.836 126.5 L 475.5 125.814 L 475.312 125.5 L 475.182 124.5 L 475.164 123.5 L 475.5 123.099 L 476.099 122.5 L 476.5 122.164 L 477.5 121.836 L 477.901 121.5 L 478.5 120.811 L 478.907 120.5 L 479.5 120.012 L 479.908 119.5 L 480.5 119 L 481 118.5 L 481.836 117.5 L 482.164 116.5 L 482.5 115.791 L 482.672 115.5 L 483 113.5 L 482.98 112.5 L 482.994 111.5 L 482.98 109.5 L 482.836 108.5 L 482.164 107.5 L 481.836 106.5 L 481.5 106.099 L 480.5 105.466 L 479.931 104.5 L 479.5 104 L 478.5 103.164 L 477.5 102.836 L 476.5 102.164 L 475.5 102 L 474.5 101.776 L 474.071 101.5 L 473.5 101.164 L 472.5 101.02 L 471.5 101.012 L 470.5 100.928 L 469.5 100.776 L 469.071 100.5 L 468.5 100.164 L 467.5 100.02 L 460.5 100 L 459.5 100.072 L 458.5 100.22 L 458.066 100.5 L 457.5 100.836 L 456.5 100.98 L 455.5 100.988 L 454.5 101.072 L 453.5 101.22 L 453.066 101.5 L 452.5 101.836 L 451.5 102 L 450.5 102.22 L 450.066 102.5 L 449.5 102.836 L 448.5 103.164 L 447.5 104 L 447 104.5 L 446.527 105.5 L 445.5 106.099 L 445.164 106.5 L 444.836 107.5 L 444.164 108.5 L 444 109.5 L 443.776 110.5 L 443.5 110.929 L 443.164 111.5 L 443.208 112.5 L 443.208 113.5 L 443.356 114.5 L 443.5 114.75 L 443.836 115.5 L 443.98 116.5 L 444.06 117.5 L 444.22 118.5 L 444.5 118.934 L 444.836 119.5 L 445.164 120.5 L 445.5 120.901 L 446.161 121.5 L 446.5 121.78 L 447.5 121.928 L 448.5 122 L 458.5 122 L 459 121.5 L 459 120.5 L 458.98 119.5 L 458.98 118.5 L 459 117.5 L 459 112.5 L 459.5 112 L 464.5 112 L 465 112.5 L 465 124.5 L 464.98 125.5 L 465 126.5 L 465 128.5 L 464.5 129 L 445.5 129 L 444.5 128.928 L 443.5 128.776 L 443.166 128.5 L 442.5 127.901 L 442.164 127.5 L 441.836 126.5 L 441.164 125.5 L 440.836 124.5 L 440.164 123.5 L 439.836 122.5 L 439.5 121.929 L 439.224 121.5 L 438.78 119.5 L 438.224 118.5 L 438.164 117.5 L 438 116.5 L 438.02 107.5 L 438.277 106.5 L 438.5 106.139 L 438.836 105.5 L 439.164 104.5 L 439.836 103.5 L 440.164 102.5 L 440.5 102.099 L 441.199 101.5 L 441.5 101.199 L 442.103 100.5 L 442.5 100.012 L 443.078 99.5 L 443.5 99.166 L 444 98.5 L 444.5 98 L 445.5 97.164 L 446.5 96.836 L 447.5 96.164 L 448.5 95.836 L 449.5 95.164 L 450.5 94.836 L 451.071 94.5 L 451.5 94.224 L 452.5 94.06 L 453.5 93.98 L 454.5 93.836 L 455.071 93.5 Z M 729.071 93.5 L 729.5 93.224 L 730.5 93.072 L 731.5 93 L 745.5 93.02 L 746.5 93.164 L 747.066 93.5 L 747.5 93.78 L 748.5 93.94 L 749.5 94.02 L 750.5 94.164 L 751.5 94.836 L 752.5 95.164 L 753.5 95.836 L 754.5 96.164 L 755.5 96.836 L 756.5 97.164 L 757.5 98 L 757.931 98.5 L 758.5 99.466 L 759.5 100.099 L 759.836 100.5 L 760.164 101.5 L 760.836 102.5 L 761.164 103.5 L 761.836 104.5 L 762.164 105.5 L 762.5 106.139 L 762.723 106.5 L 762.98 107.5 L 763 115.5 L 762.667 117.5 L 762.5 117.84 L 762.22 118.5 L 761.776 120.5 L 761.5 120.834 L 761 121.5 L 760.164 122.5 L 759.836 123.5 L 759 124.5 L 758.5 125 L 757.811 125.5 L 757.5 125.811 L 756.901 126.5 L 756.5 126.836 L 755.5 127.164 L 754.5 127.836 L 753.5 128.164 L 752.886 128.5 L 752.5 128.741 L 751.5 128.741 L 751.204 128.5 L 750.5 127.834 L 750.224 127.5 L 749.78 125.5 L 749.259 124.5 L 749.259 123.5 L 750.099 122.5 L 750.5 122.164 L 751.5 121.836 L 752.5 121.164 L 753.5 120.836 L 754.5 120 L 755 119.5 L 755.836 118.5 L 756.164 117.5 L 756.5 116.791 L 756.672 116.5 L 757 114.5 L 756.98 109.5 L 756.836 108.5 L 756.164 107.5 L 755.836 106.5 L 755.5 106.099 L 754.5 105.466 L 753.931 104.5 L 753.5 104 L 752.5 103.164 L 751.5 102.836 L 750.5 102.164 L 749.5 101.836 L 748.5 101.164 L 747.5 101.02 L 746.5 101.012 L 745.5 100.928 L 744.5 100.776 L 744.071 100.5 L 743.5 100.164 L 742.5 100.02 L 734.5 100 L 733.5 100.072 L 732.5 100.22 L 732.066 100.5 L 731.5 100.836 L 730.5 100.98 L 729.5 100.988 L 728.5 101.072 L 727.5 101.22 L 727.066 101.5 L 726.5 101.836 L 725.5 102 L 724.5 102.22 L 724.161 102.5 L 723.5 103 L 722.5 103.836 L 721.5 104.164 L 721.099 104.5 L 720.5 105.099 L 720.164 105.5 L 719.836 106.5 L 718.164 108.5 L 718.02 109.5 L 718 115.5 L 718.328 117.5 L 718.5 117.853 L 718.776 118.5 L 719.22 120.5 L 719.5 120.839 L 720.161 121.5 L 720.5 121.78 L 721.5 121.928 L 722.5 122 L 732.5 122 L 733 121.5 L 733 120.5 L 732.98 119.5 L 732.98 118.5 L 733 117.5 L 733 112.5 L 733.5 112 L 738.5 112 L 739 112.5 L 739 124.5 L 738.98 125.5 L 739 126.5 L 739 128.5 L 738.5 129 L 717.5 129 L 717 128.5 L 716.836 127.5 L 715.164 125.5 L 714.836 124.5 L 714.5 123.929 L 714.224 123.5 L 714 122.5 L 713.836 121.5 L 713.5 120.861 L 713.277 120.5 L 713.06 119.5 L 712.836 117.5 L 712.5 116.783 L 712.333 116.5 L 712 114.5 L 712.02 108.5 L 712.164 107.5 L 712.5 106.934 L 712.78 106.5 L 713 105.5 L 713.164 104.5 L 714.836 102.5 L 715.164 101.5 L 715.5 101.099 L 716.199 100.5 L 717.5 99.166 L 718 98.5 L 718.5 98 L 719.5 97.164 L 720.5 96.836 L 721.5 96.164 L 722.5 95.836 L 723.071 95.5 L 723.5 95.224 L 724.5 95 L 725.5 94.836 L 726.071 94.5 L 726.5 94.224 L 727.5 94 L 728.5 93.836 L 729.071 93.5 Z M 1274.071 93.5 L 1274.5 93.224 L 1275.5 93.072 L 1276.5 93 L 1291.5 93.02 L 1292.5 93.164 L 1293.066 93.5 L 1293.5 93.78 L 1294.5 93.94 L 1295.5 94.02 L 1296.5 94.164 L 1297.5 94.836 L 1298.5 95.164 L 1299.5 95.836 L 1300.5 96.164 L 1301.5 97 L 1301.978 97.5 L 1302.5 98.136 L 1302.996 98.5 L 1303.5 98.98 L 1303.867 99.5 L 1304.5 100.258 L 1305.5 101.099 L 1305.836 101.5 L 1306.164 102.5 L 1306.836 103.5 L 1307.164 104.5 L 1307.836 105.5 L 1307.887 106.5 L 1307.988 107.5 L 1308.11 108.5 L 1308.328 109.5 L 1308.5 109.791 L 1308.836 110.5 L 1308.98 111.5 L 1308.811 112.5 L 1308.776 113.5 L 1308.615 114.5 L 1308.5 114.704 L 1308.164 115.5 L 1308.02 116.5 L 1307.94 117.5 L 1307.776 118.5 L 1307.5 118.929 L 1307.164 119.5 L 1306.836 120.5 L 1306.164 121.5 L 1305.836 122.5 L 1305 123.5 L 1304.5 124 L 1303.908 124.5 L 1303.5 125.012 L 1302.907 125.5 L 1302.5 125.811 L 1301.901 126.5 L 1301.5 126.836 L 1300.5 127.164 L 1299.5 127.836 L 1298.5 128.164 L 1297.886 128.5 L 1297.5 128.741 L 1296.5 129 L 1296 128.5 L 1295.99 127.5 L 1295.836 126.5 L 1295.5 125.929 L 1295.224 125.5 L 1295.208 124.5 L 1295.01 123.5 L 1295 122.5 L 1295.5 122 L 1296.5 121.836 L 1297.5 121.164 L 1298.5 120.836 L 1299.5 120 L 1300 119.5 L 1300.836 118.5 L 1301.164 117.5 L 1301.836 116.5 L 1302.164 115.5 L 1302.5 114.791 L 1302.672 114.5 L 1302.75 113.5 L 1302.96 112.5 L 1302.988 111.5 L 1302.98 110.5 L 1302.836 109.5 L 1302.5 108.929 L 1302.224 108.5 L 1301.78 106.5 L 1301.5 106.161 L 1300.5 105.466 L 1299.931 104.5 L 1299.5 104 L 1298.5 103.164 L 1297.5 102.836 L 1296.5 102.164 L 1295.5 101.836 L 1294.5 101.164 L 1293.5 101.02 L 1292.5 101.012 L 1291.5 100.928 L 1290.5 100.776 L 1290.071 100.5 L 1289.5 100.164 L 1288.5 100.02 L 1278.5 100 L 1277.5 100.072 L 1276.5 100.22 L 1276.066 100.5 L 1275.5 100.836 L 1274.5 100.98 L 1273.5 101.06 L 1272.5 101.22 L 1272.066 101.5 L 1271.5 101.836 L 1270.5 102.164 L 1269.5 102.836 L 1268.5 103.164 L 1267.5 103.836 L 1266.5 104 L 1266 104.5 L 1265.836 105.5 L 1264.164 107.5 L 1263.836 108.5 L 1263.164 109.5 L 1263.02 110.5 L 1263.02 112.5 L 1263 113.5 L 1263.328 115.5 L 1263.5 115.791 L 1263.836 116.5 L 1263.98 117.5 L 1264.06 118.5 L 1264.22 119.5 L 1264.5 119.934 L 1264.836 120.5 L 1265 121.5 L 1265.5 122 L 1277.5 122 L 1278 121.5 L 1278 120.5 L 1277.98 119.5 L 1277.98 118.5 L 1278 117.5 L 1278 111.5 L 1278.5 111 L 1283.5 111 L 1284 111.5 L 1284 124.5 L 1283.98 125.5 L 1284 126.5 L 1284 128.5 L 1283.5 129 L 1265.5 129 L 1264.5 128.928 L 1263.5 128.776 L 1263.166 128.5 L 1262.5 128 L 1262 127.5 L 1261.164 126.5 L 1260.836 125.5 L 1260.5 124.929 L 1260.224 124.5 L 1260 123.5 L 1259.836 122.5 L 1259.164 121.5 L 1258.836 120.5 L 1258.5 119.929 L 1258.224 119.5 L 1258.072 118.5 L 1257.994 117.5 L 1257.98 115.5 L 1257.836 114.5 L 1257.5 113.75 L 1257.356 113.5 L 1257.208 112.5 L 1257.02 111.5 L 1257.164 110.5 L 1257.5 109.791 L 1257.672 109.5 L 1257.89 108.5 L 1258.012 107.5 L 1258.113 106.5 L 1258.164 105.5 L 1258.836 104.5 L 1259.164 103.5 L 1259.836 102.5 L 1260.164 101.5 L 1260.5 101.099 L 1261.527 100.5 L 1262 99.5 L 1262.5 99 L 1263.5 98.164 L 1264.5 97.836 L 1266.5 96.164 L 1267.5 95.836 L 1268.071 95.5 L 1268.5 95.224 L 1269.5 95 L 1270.5 94.836 L 1271.071 94.5 L 1271.5 94.224 L 1272.5 94 L 1273.5 93.836 L 1274.071 93.5 Z M 161 138.5 L 161.5 138 L 210.5 138 L 211 138.5 L 210.994 141.5 L 210.96 143.5 L 210.836 144.5 L 210.667 145.5 L 209.901 146.5 L 209.5 146.836 L 208.5 147.164 L 207.5 147.836 L 206.5 148.164 L 205.5 148.836 L 204.5 149.164 L 203.5 149.836 L 202.5 150.164 L 201.5 150.836 L 200.5 151.164 L 199.5 151.836 L 198.5 152.164 L 197.5 152.836 L 196.5 153 L 195.5 153.22 L 195.066 153.5 L 194.5 153.836 L 193.5 154.164 L 192.5 154.836 L 191.5 155.164 L 190.5 155.836 L 189.5 156.164 L 188.5 156.836 L 187.5 157.164 L 186.5 157.836 L 185.5 158.164 L 184.5 158.836 L 183.5 159.164 L 182.5 159.836 L 181.5 160 L 180.5 160.22 L 180.066 160.5 L 179.5 160.836 L 178.5 161.164 L 177.5 161.836 L 176.5 162.164 L 175.5 162.836 L 174.5 163.164 L 174 163.5 L 173.5 163.903 L 172.5 164.193 L 172.193 164.5 L 172.5 164.807 L 173.5 164.928 L 174.5 165 L 210.5 165 L 211 165.5 L 211 170.5 L 210.5 171 L 161.5 171 L 161 170.5 L 161 168.5 L 161.02 167.5 L 161.006 166.5 L 161.02 164.5 L 161.164 163.5 L 161.5 163.099 L 162.099 162.5 L 162.5 162.164 L 163.5 161.836 L 164.071 161.5 L 164.5 161.224 L 165.5 161 L 166.5 160.836 L 167.5 160.164 L 168.5 159.836 L 169.5 159.164 L 170.5 158.836 L 171.5 158.164 L 172.5 157.836 L 173.5 157.164 L 174.5 156.836 L 175.5 156.164 L 176.5 155.836 L 177.071 155.5 L 177.5 155.224 L 178.5 155 L 179.5 154.836 L 180.5 154.164 L 181.5 153.836 L 182.5 153.164 L 183.5 152.836 L 184.5 152.164 L 185.5 151.836 L 186.5 151.164 L 187.5 150.836 L 188.5 150.164 L 189.5 149.836 L 190.071 149.5 L 190.5 149.224 L 191.5 149 L 192.5 148.836 L 193.5 148.164 L 194.5 147.836 L 195.5 147.164 L 196.5 146.836 L 197.5 146.164 L 198.5 145.836 L 199.5 145.146 L 200.5 144.836 L 200.836 144.5 L 200.5 144.164 L 199.5 144.02 L 161.5 144 L 161 143.5 L 161 138.5 Z M 975 138.5 L 975.5 138 L 1024.5 138 L 1025 138.5 L 1024.994 141.5 L 1024.96 143.5 L 1024.836 144.5 L 1024.667 145.5 L 1023.901 146.5 L 1023.5 146.836 L 1022.5 147.164 L 1021.5 147.836 L 1020.5 148.164 L 1019.5 148.836 L 1018.5 149.164 L 1017.5 149.836 L 1016.5 150.164 L 1015.5 150.836 L 1014.5 151.164 L 1013.5 151.836 L 1012.5 152.164 L 1011.5 152.836 L 1010.5 153 L 1009.5 153.22 L 1009.066 153.5 L 1008.5 153.836 L 1007.5 154.164 L 1006.5 154.836 L 1005.5 155.164 L 1004.5 155.836 L 1003.5 156.164 L 1002.5 156.836 L 1001.5 157.164 L 1000.5 157.836 L 999.5 158.164 L 998.5 158.836 L 997.5 159.164 L 996.5 159.836 L 995.5 160 L 994.5 160.22 L 994.066 160.5 L 993.5 160.836 L 992.5 161.164 L 991.5 161.836 L 990.5 162.164 L 989.5 162.836 L 988.5 163.164 L 988 163.5 L 987.5 163.903 L 986.5 164.193 L 986.193 164.5 L 986.5 164.807 L 987.5 164.928 L 988.5 165 L 1024.5 165 L 1025 165.5 L 1025 170.5 L 1024.5 171 L 975.5 171 L 975 170.5 L 975 168.5 L 975.02 167.5 L 975.006 166.5 L 975.02 164.5 L 975.164 163.5 L 975.5 163.099 L 976.099 162.5 L 976.5 162.164 L 977.5 161.836 L 978.071 161.5 L 978.5 161.224 L 979.5 161 L 980.5 160.836 L 981.5 160.164 L 982.5 159.836 L 983.5 159.164 L 984.5 158.836 L 985.5 158.164 L 986.5 157.836 L 987.5 157.164 L 988.5 156.836 L 989.5 156.164 L 990.5 155.836 L 991.071 155.5 L 991.5 155.224 L 992.5 155 L 993.5 154.836 L 994.5 154.164 L 995.5 153.836 L 996.5 153.164 L 997.5 152.836 L 998.5 152.164 L 999.5 151.836 L 1000.5 151.164 L 1001.5 150.836 L 1002.5 150.164 L 1003.5 149.836 L 1004.071 149.5 L 1004.5 149.224 L 1005.5 149 L 1006.5 148.836 L 1007.5 148.164 L 1008.5 147.836 L 1009.5 147.164 L 1010.5 146.836 L 1011.5 146.164 L 1012.5 145.836 L 1013.5 145.146 L 1014.5 144.836 L 1014.836 144.5 L 1014.5 144.164 L 1013.5 144.02 L 975.5 144 L 975 143.5 L 975 138.5 Z M 1521 138.5 L 1521.5 138 L 1569.5 138 L 1570 138.5 L 1569.994 141.5 L 1569.96 143.5 L 1569.836 144.5 L 1569.667 145.5 L 1568.901 146.5 L 1568.5 146.836 L 1567.5 147.164 L 1566.5 147.836 L 1565.5 148.164 L 1564.5 148.836 L 1563.5 149.164 L 1562.5 149.836 L 1561.5 150.164 L 1560.5 150.836 L 1559.5 151.164 L 1558.5 151.836 L 1557.5 152.164 L 1556.5 152.836 L 1555.5 153 L 1554.5 153.22 L 1554.066 153.5 L 1553.5 153.836 L 1552.5 154.164 L 1551.5 154.836 L 1550.5 155.164 L 1549.5 155.836 L 1548.5 156.164 L 1547.5 156.836 L 1546.5 157.164 L 1545.5 157.836 L 1544.5 158.164 L 1543.5 158.836 L 1542.5 159.164 L 1541.5 159.836 L 1540.5 160 L 1539.5 160.22 L 1539.066 160.5 L 1538.5 160.836 L 1537.5 161.164 L 1536.5 161.836 L 1535.5 162.164 L 1534.5 162.836 L 1533.5 163.164 L 1533 163.5 L 1532.5 163.903 L 1531.5 164.193 L 1531.193 164.5 L 1531.5 164.807 L 1532.5 164.928 L 1533.5 165 L 1569.5 165 L 1570 165.5 L 1569.99 166.5 L 1570 170.5 L 1569.5 171 L 1521.5 171 L 1521 170.5 L 1521 168.5 L 1521.02 167.5 L 1521 166.5 L 1521 162.5 L 1521.5 162 L 1522.5 161.99 L 1523.5 161.836 L 1524.5 161.164 L 1525.5 160.836 L 1526.5 160.164 L 1527.5 159.836 L 1528.5 159.164 L 1529.5 158.836 L 1530.5 158.164 L 1531.5 157.836 L 1532.5 157.164 L 1533.5 156.836 L 1534.5 156.164 L 1535.5 155.836 L 1536.071 155.5 L 1536.5 155.224 L 1537.5 155 L 1538.5 154.836 L 1539.5 154.164 L 1540.5 153.836 L 1541.5 153.164 L 1542.5 152.836 L 1543.5 152.164 L 1544.5 151.836 L 1545.5 151.164 L 1546.5 150.836 L 1547.5 150.164 L 1548.5 149.836 L 1549.071 149.5 L 1549.5 149.224 L 1550.5 149 L 1551.5 148.836 L 1552.5 148.164 L 1553.5 147.836 L 1554.5 147.164 L 1555.5 146.836 L 1556.5 146.164 L 1557.5 145.836 L 1558.5 145.146 L 1559.5 144.836 L 1559.836 144.5 L 1559.5 144.164 L 1558.5 144.02 L 1521.5 144 L 1521 143.5 L 1521 138.5 Z M 438 140.5 L 438.5 140 L 487.5 140 L 488 140.5 L 487.99 141.5 L 488 145.5 L 487.667 147.5 L 486.901 148.5 L 486.5 148.836 L 485.5 149.164 L 484.5 149.836 L 483.5 150.164 L 482.5 150.836 L 481.5 151.164 L 480.5 151.836 L 479.5 152 L 478.5 152.22 L 478.066 152.5 L 477.5 152.836 L 476.5 153.164 L 475.5 153.836 L 474.5 154.164 L 473.5 154.836 L 472.5 155.164 L 471.5 155.836 L 470.5 156.164 L 469.5 156.836 L 468.5 157.164 L 467.5 157.836 L 466.5 158.164 L 465.5 158.836 L 464.5 159 L 463.5 159.22 L 463.066 159.5 L 462.5 159.836 L 461.5 160.164 L 460.5 160.836 L 459.5 161.164 L 458.5 161.836 L 457.5 162.164 L 456.5 162.836 L 455.5 163.164 L 454.5 163.836 L 453.5 164.164 L 452.5 164.836 L 451.5 165.164 L 450.5 165.836 L 449.5 166.039 L 448.5 166.22 L 448.22 166.5 L 448.5 166.78 L 449.5 166.941 L 450.5 167 L 487.5 167 L 488 167.5 L 488 172.5 L 487.5 173 L 438.5 173 L 438 172.5 L 438.006 168.5 L 438.064 167.5 L 438.02 166.5 L 438.164 165.5 L 438.5 165.099 L 439.099 164.5 L 439.5 164.164 L 440.5 163.836 L 441.5 163.164 L 442.5 162.836 L 443.5 162.164 L 444.5 161.836 L 445.071 161.5 L 445.5 161.224 L 446.5 161 L 447.5 160.836 L 448.5 160.164 L 449.5 159.836 L 450.5 159.164 L 451.5 158.836 L 452.5 158.164 L 453.5 157.836 L 454.5 157.164 L 455.5 156.836 L 456.5 156.164 L 457.5 155.836 L 458.5 155.164 L 459.5 154.836 L 460.071 154.5 L 460.5 154.224 L 461.5 154 L 462.5 153.836 L 463.5 153.164 L 464.5 152.836 L 465.5 152.164 L 466.5 151.836 L 467.5 151.164 L 468.5 150.836 L 469.5 150.164 L 470.5 149.836 L 471.5 149.164 L 472.5 148.836 L 473.071 148.5 L 473.5 148.224 L 474.5 148 L 475.5 147.836 L 476.5 147.146 L 477.5 146.836 L 477.836 146.5 L 477.5 146.164 L 476.5 146.02 L 438.5 146 L 438 145.5 L 438 144.5 L 438.02 143.5 L 438 142.5 L 438 140.5 Z M 713 140.5 L 713.5 140 L 761.5 140 L 762 140.5 L 761.99 141.5 L 762 145.5 L 761.667 147.5 L 760.901 148.5 L 760.5 148.836 L 759.5 149.164 L 758.5 149.836 L 757.5 150.164 L 756.5 150.836 L 755.5 151.164 L 754.5 151.836 L 753.5 152.164 L 752.5 152.836 L 751.5 153.164 L 750.5 153.836 L 749.5 154 L 748.5 154.22 L 748.066 154.5 L 747.5 154.836 L 746.5 155.164 L 745.5 155.836 L 744.5 156.164 L 743.5 156.836 L 742.5 157.164 L 741.5 157.836 L 740.5 158.164 L 739.5 158.836 L 738.5 159.164 L 737.5 159.836 L 736.5 160.164 L 735.5 160.836 L 734.5 161 L 733.5 161.22 L 733.066 161.5 L 732.5 161.836 L 731.5 162.164 L 730.5 162.836 L 729.5 163.164 L 728.5 163.836 L 727.5 164.164 L 726.5 164.836 L 725.5 165.164 L 725 165.5 L 724.5 165.903 L 723.5 166.193 L 723.193 166.5 L 723.5 166.807 L 724.5 166.928 L 725.5 167 L 761.5 167 L 762 167.5 L 762 172.5 L 761.5 173 L 713.5 173 L 713 172.5 L 713 164.5 L 713.5 164 L 714.5 163.836 L 715.071 163.5 L 715.5 163.224 L 716.5 163 L 717.5 162.836 L 718.5 162.164 L 719.5 161.836 L 720.5 161.164 L 721.5 160.836 L 722.5 160.164 L 723.5 159.836 L 724.5 159.164 L 725.5 158.836 L 726.5 158.164 L 727.5 157.836 L 728.5 157.164 L 729.5 156.836 L 730.071 156.5 L 730.5 156.224 L 731.5 156 L 732.5 155.836 L 733.5 155.164 L 734.5 154.836 L 735.5 154.164 L 736.5 153.836 L 737.5 153.164 L 738.5 152.836 L 739.5 152.164 L 740.5 151.836 L 741.5 151.164 L 742.5 150.836 L 743.071 150.5 L 743.5 150.224 L 744.5 150 L 745.5 149.836 L 746.5 149.164 L 747.5 148.836 L 748.5 148.164 L 749.5 147.836 L 750.5 147.146 L 751.5 146.836 L 751.836 146.5 L 751.5 146.164 L 750.5 146.02 L 713.5 146 L 713 145.5 L 713 144.5 L 713.02 143.5 L 713 142.5 L 713.01 141.5 L 713 140.5 Z M 1258 140.5 L 1258.5 140 L 1307.5 140 L 1308 140.5 L 1308 147.5 L 1307.5 148 L 1306.5 148.164 L 1305.5 148.836 L 1304.5 149.164 L 1303.5 149.836 L 1302.5 150.164 L 1301.5 150.836 L 1300.5 151.164 L 1299.5 151.836 L 1298.5 152.164 L 1297.5 152.836 L 1296.5 153.164 L 1295.5 153.836 L 1294.5 154 L 1293.5 154.22 L 1293.066 154.5 L 1292.5 154.836 L 1291.5 155.164 L 1290.5 155.836 L 1289.5 156.164 L 1288.5 156.836 L 1287.5 157.164 L 1286.5 157.836 L 1285.5 158.164 L 1284.5 158.836 L 1283.5 159.164 L 1282.5 159.836 L 1281.5 160.164 L 1280.5 160.836 L 1279.5 161 L 1278.5 161.22 L 1278.066 161.5 L 1277.5 161.836 L 1276.5 162.164 L 1275.5 162.836 L 1274.5 163.164 L 1273.5 163.836 L 1272.5 164.164 L 1271.5 164.836 L 1270.5 165.164 L 1270 165.5 L 1269.5 165.903 L 1268.5 166.193 L 1268.193 166.5 L 1268.5 166.807 L 1269.5 166.928 L 1270.5 167 L 1307.5 167 L 1308 167.5 L 1308 172.5 L 1307.5 173 L 1258.5 173 L 1258 172.5 L 1258 164.5 L 1258.5 164 L 1259.5 163.836 L 1260.071 163.5 L 1260.5 163.224 L 1261.5 163 L 1262.5 162.836 L 1263.5 162.164 L 1264.5 161.836 L 1265.5 161.164 L 1266.5 160.836 L 1267.5 160.164 L 1268.5 159.836 L 1269.5 159.164 L 1270.5 158.836 L 1271.5 158.164 L 1272.5 157.836 L 1273.071 157.5 L 1273.5 157.224 L 1274.5 157 L 1275.5 156.836 L 1276.5 156.164 L 1277.5 155.836 L 1278.5 155.164 L 1279.5 154.836 L 1280.5 154.164 L 1281.5 153.836 L 1282.5 153.164 L 1283.5 152.836 L 1284.5 152.164 L 1285.5 151.836 L 1286.5 151.164 L 1287.5 150.836 L 1288.071 150.5 L 1288.5 150.224 L 1289.5 150 L 1290.5 149.836 L 1291.5 149.164 L 1292.5 148.836 L 1293.5 148.164 L 1294.5 147.836 L 1295.5 147.164 L 1296.5 147 L 1297.164 146.5 L 1297.5 146.164 L 1298.5 145.784 L 1298.784 145.5 L 1298.5 145.216 L 1297.5 145 L 1296.969 145.5 L 1296.5 145.969 L 1295.5 146 L 1258.5 146 L 1258 145.5 L 1258 144.5 L 1258.02 143.5 L 1258 142.5 L 1258 140.5 Z M 170.5 165.481 L 170.481 165.5 L 170.5 165.519 L 170.519 165.5 L 170.5 165.481 Z M 984.5 165.481 L 984.481 165.5 L 984.5 165.519 L 984.519 165.5 L 984.5 165.481 Z M 35.071 176.5 L 35.5 176.224 L 36.5 176.072 L 37.5 176 L 54.5 176.02 L 55.5 176.164 L 56.066 176.5 L 56.5 176.78 L 57.5 176.94 L 58.5 177.02 L 59.5 177.164 L 60.5 177.836 L 61.5 178.164 L 62.5 178.836 L 63.5 179.164 L 64.5 180 L 64.978 180.5 L 65.5 181.136 L 65.996 181.5 L 66.5 181.98 L 66.867 182.5 L 67.5 183.258 L 68.5 184.099 L 68.836 184.5 L 69.164 185.5 L 69.836 186.5 L 69.98 187.5 L 70.06 188.5 L 70.277 189.5 L 70.5 189.861 L 70.836 190.5 L 70.98 191.5 L 70.936 192.5 L 70.994 193.5 L 71 194.5 L 70.667 196.5 L 70.5 196.783 L 70.164 197.5 L 69.94 199.5 L 69.723 200.5 L 69.5 200.861 L 69.164 201.5 L 68.836 202.5 L 68 203.5 L 67.5 204 L 66.908 204.5 L 66.5 205.012 L 65.5 206.012 L 64.907 206.5 L 64.5 206.811 L 63.901 207.5 L 63.5 207.836 L 62.5 208.164 L 61.5 208.836 L 60.5 209.164 L 59.5 209.836 L 58.5 210 L 57.5 210.22 L 57.066 210.5 L 56.5 210.836 L 55.5 210.98 L 52.5 211 L 51.5 211.072 L 50.5 211.22 L 50.066 211.5 L 49.5 211.836 L 48.5 211.98 L 43.5 212 L 42.5 211.928 L 41.5 211.776 L 41.071 211.5 L 40.5 211.164 L 39.5 211.02 L 36.5 211 L 35.5 210.928 L 34.5 210.776 L 34.071 210.5 L 33.5 210.164 L 32.5 210 L 31.5 209.776 L 31.071 209.5 L 30.5 209.164 L 29.5 208.836 L 28.5 208.164 L 27.5 207.836 L 26.5 207.164 L 25.5 206.836 L 25.099 206.5 L 24.5 205.758 L 24.242 205.5 L 23.5 205 L 23 204.5 L 22.164 203.5 L 21.836 202.5 L 21.164 201.5 L 20.836 200.5 L 20.5 199.783 L 20.333 199.5 L 20.072 198.5 L 20 197.5 L 20.02 188.5 L 20.164 187.5 L 20.836 186.5 L 21.164 185.5 L 21.836 184.5 L 22.164 183.5 L 22.5 183.099 L 23.527 182.5 L 24 181.5 L 24.5 181 L 25.5 180.164 L 26.5 179.836 L 27.5 179.164 L 28.5 178.836 L 29.5 178.164 L 30.5 177.836 L 31.071 177.5 L 31.5 177.224 L 32.5 177.06 L 33.5 176.98 L 34.5 176.836 L 35.071 176.5 Z M 299 177.5 L 299.5 177 L 303.5 177 L 304 177.5 L 304 193.5 L 304.5 194 L 340.5 193.98 L 341.5 193.836 L 341.836 193.5 L 341.5 193.164 L 340.5 192.854 L 340.099 192.5 L 339.5 191.901 L 339.164 191.5 L 338.836 190.5 L 338 189.5 L 337.5 188.834 L 337.224 188.5 L 337 187.5 L 336.836 186.5 L 336.5 185.929 L 336.224 185.5 L 336 184.5 L 335.836 183.5 L 335.5 182.783 L 335.333 182.5 L 335.25 181.5 L 335.006 180.5 L 335 177.5 L 335.5 177 L 339.5 177 L 340 177.5 L 339.99 178.5 L 340.06 179.5 L 340.277 180.5 L 340.5 180.861 L 340.836 181.5 L 340.98 182.5 L 341.06 183.5 L 341.277 184.5 L 341.5 184.861 L 341.836 185.5 L 342.164 186.5 L 342.836 187.5 L 343.164 188.5 L 343.836 189.5 L 344.164 190.5 L 345 191.5 L 345.5 192 L 346.5 192.836 L 347.5 193.164 L 347.901 193.5 L 348.5 194.099 L 348.836 194.5 L 348.98 195.5 L 349 199.5 L 348.5 200 L 304.5 200 L 304 200.5 L 304 212.5 L 303.5 213 L 299.5 213 L 299 212.5 L 299 177.5 Z M 1427 178.5 L 1427.5 178 L 1430.5 178.02 L 1431.5 178.164 L 1431.901 178.5 L 1432.723 179.5 L 1432.98 180.5 L 1432.994 182.5 L 1433.328 184.5 L 1433.5 184.853 L 1433.776 185.5 L 1434.22 187.5 L 1434.5 187.934 L 1434.836 188.5 L 1435.164 189.5 L 1436.836 191.5 L 1437.164 192.5 L 1438 193.5 L 1438.5 194 L 1439.5 194.836 L 1440.5 195 L 1441 195.5 L 1440.98 198.5 L 1441 199.5 L 1441 201.5 L 1440.5 202 L 1397.5 202 L 1397 202.5 L 1397 214.5 L 1396.5 215 L 1391.5 215 L 1391 214.5 L 1391 179.5 L 1391.5 179 L 1396.5 179 L 1397 179.5 L 1397 191.5 L 1397.02 192.5 L 1397 193.5 L 1397 194.5 L 1397.5 195 L 1432.5 194.98 L 1433.5 194.836 L 1433.836 194.5 L 1433.5 194.164 L 1432.5 193.854 L 1432.099 193.5 L 1431.5 192.901 L 1431.164 192.5 L 1430.836 191.5 L 1430.164 190.5 L 1429.836 189.5 L 1429.164 188.5 L 1428.836 187.5 L 1428.5 186.861 L 1428.277 186.5 L 1428.06 185.5 L 1427.98 184.5 L 1427.836 183.5 L 1427.5 182.684 L 1427.398 182.5 L 1427.224 181.5 L 1427.012 180.5 L 1427 178.5 Z M 596.071 179.5 L 596.5 179.224 L 597.5 179.072 L 598.5 179 L 600.5 179.02 L 601.5 179.164 L 602.066 179.5 L 602.5 179.78 L 603.5 179.928 L 604.5 180 L 608.5 180.02 L 609.5 180.164 L 610.066 180.5 L 610.5 180.78 L 611.5 180.94 L 612.5 181.02 L 613.5 181.164 L 614.5 181.836 L 615.5 182.164 L 616.5 182.836 L 617.5 183.164 L 618.5 184 L 618.978 184.5 L 619.5 185.136 L 619.846 185.5 L 620.5 186.258 L 621.5 187.099 L 621.836 187.5 L 622.164 188.5 L 622.836 189.5 L 623.164 190.5 L 623.836 191.5 L 624.06 193.5 L 624.277 194.5 L 624.5 194.861 L 624.836 195.5 L 624.98 196.5 L 624.988 197.5 L 624.928 198.5 L 624.615 199.5 L 624.5 199.704 L 624.164 200.5 L 624.02 201.5 L 623.94 202.5 L 623.723 203.5 L 623.5 203.861 L 623.164 204.5 L 623 205.5 L 622.776 206.5 L 622.5 206.834 L 622 207.5 L 621.5 208 L 620.908 208.5 L 620.5 209.012 L 619.5 210.012 L 618.907 210.5 L 618.5 210.811 L 617.901 211.5 L 617.5 211.836 L 616.5 212.164 L 615.5 212.836 L 614.5 213.164 L 613.5 213.836 L 612.5 213.98 L 611.5 214.06 L 610.5 214.22 L 610.066 214.5 L 609.5 214.836 L 608.5 214.98 L 604.5 215 L 603.5 215.072 L 602.5 215.22 L 602.066 215.5 L 601.5 215.836 L 600.5 215.98 L 598.5 216 L 597.5 215.928 L 596.5 215.776 L 596.071 215.5 L 595.5 215.164 L 594.5 215.02 L 590.5 215 L 589.5 214.928 L 588.5 214.776 L 588.071 214.5 L 587.5 214.164 L 586.5 214 L 585.5 213.776 L 585.071 213.5 L 584.5 213.164 L 583.5 212.836 L 582.5 212.164 L 581.5 211.836 L 580.5 211.164 L 579.5 210.836 L 579.099 210.5 L 578.5 209.758 L 578.242 209.5 L 577.5 209 L 577 208.5 L 576.164 207.5 L 575.836 206.5 L 575.164 205.5 L 574.836 204.5 L 574.5 203.861 L 574.277 203.5 L 574.06 202.5 L 573.98 201.5 L 573.836 200.5 L 573.5 199.704 L 573.385 199.5 L 573.072 198.5 L 573.012 197.5 L 573.02 196.5 L 573.164 195.5 L 573.5 194.861 L 573.723 194.5 L 573.94 193.5 L 574.164 191.5 L 574.836 190.5 L 575.164 189.5 L 575.836 188.5 L 576.164 187.5 L 576.5 187.099 L 577.527 186.5 L 578 185.5 L 578.5 185 L 579.5 184.164 L 580.5 183.836 L 581.5 183 L 582.166 182.5 L 582.5 182.224 L 583.5 182 L 584.5 181.836 L 585.071 181.5 L 585.5 181.224 L 586.5 181 L 587.5 180.836 L 588.071 180.5 L 588.5 180.224 L 589.5 180.072 L 590.5 180 L 594.5 179.98 L 595.5 179.836 L 596.071 179.5 Z M 846 179.5 L 846.5 179 L 850.5 179 L 851 179.5 L 851 191.5 L 851.02 192.5 L 851 193.5 L 851 194.5 L 851.5 195 L 886.5 194.98 L 887.5 194.872 L 887.872 194.5 L 887 193.5 L 886 192.5 L 885.164 191.5 L 884.836 190.5 L 884.164 189.5 L 883.836 188.5 L 883.5 187.929 L 883.224 187.5 L 882.78 185.5 L 882.5 184.84 L 882.333 184.5 L 882.25 183.5 L 882.006 182.5 L 882 179.5 L 882.5 179 L 886.5 179 L 887 179.5 L 886.99 180.5 L 887.06 181.5 L 887.277 182.5 L 887.5 182.861 L 887.836 183.5 L 887.98 184.5 L 888.06 185.5 L 888.277 186.5 L 888.5 186.861 L 888.836 187.5 L 889.164 188.5 L 889.836 189.5 L 890.164 190.5 L 891 191.5 L 891.5 192 L 892.111 192.5 L 892.5 192.98 L 892.867 193.5 L 893.5 194.258 L 894.5 195.099 L 894.836 195.5 L 894.98 196.5 L 894.98 198.5 L 895 199.5 L 895 201.5 L 894.5 202 L 851.5 202 L 851 202.5 L 851 214.5 L 850.5 215 L 846.5 215 L 846 214.5 L 846 179.5 Z M 1139.071 179.5 L 1139.5 179.224 L 1140.5 179.072 L 1141.5 179 L 1148.5 179.02 L 1149.5 179.164 L 1150.066 179.5 L 1150.5 179.78 L 1151.5 179.928 L 1152.5 180 L 1154.5 180.02 L 1155.5 180.164 L 1156.066 180.5 L 1156.5 180.78 L 1157.5 181 L 1158.5 181.164 L 1159.066 181.5 L 1159.5 181.78 L 1160.5 182 L 1161.5 182.164 L 1163.5 183.836 L 1164.5 184.164 L 1165.5 185 L 1166 185.5 L 1166.836 186.5 L 1167.164 187.5 L 1167.836 188.5 L 1168.164 189.5 L 1168.836 190.5 L 1169 191.5 L 1169.22 192.5 L 1169.5 192.934 L 1169.836 193.5 L 1169.98 194.5 L 1170 197.5 L 1169.98 198.5 L 1170 199.5 L 1169.667 201.5 L 1169.5 201.783 L 1169.164 202.5 L 1169 203.5 L 1168.776 204.5 L 1168.5 204.929 L 1168.164 205.5 L 1167.836 206.5 L 1167 207.5 L 1166.5 208 L 1165.908 208.5 L 1165.5 209.012 L 1164.5 210.012 L 1163.907 210.5 L 1163.5 210.811 L 1162.901 211.5 L 1162.5 211.836 L 1161.5 212.164 L 1160.5 212.836 L 1159.5 213.164 L 1158.5 213.836 L 1157.5 213.98 L 1156.5 214.06 L 1155.5 214.22 L 1155.066 214.5 L 1154.5 214.836 L 1153.5 214.98 L 1137.5 215 L 1136.5 214.928 L 1135.5 214.776 L 1135.071 214.5 L 1134.5 214.164 L 1133.5 214.02 L 1132.5 213.94 L 1131.5 213.776 L 1131.071 213.5 L 1130.5 213.164 L 1129.5 213 L 1128.5 212.776 L 1128.071 212.5 L 1127.5 212.164 L 1126.5 211.836 L 1126.099 211.5 L 1125.5 210.758 L 1124.5 209.98 L 1123.5 208.98 L 1123.111 208.5 L 1122.5 208 L 1122 207.5 L 1121.164 206.5 L 1120.836 205.5 L 1120.164 204.5 L 1119.836 203.5 L 1119.5 202.783 L 1119.333 202.5 L 1119 200.5 L 1119.02 193.5 L 1119.277 192.5 L 1119.78 191.5 L 1120 190.5 L 1120.164 189.5 L 1121.836 187.5 L 1122.164 186.5 L 1123 185.5 L 1123.5 185 L 1124.5 184.164 L 1125.5 183.836 L 1126.5 183.164 L 1127.5 182.836 L 1128.5 182.164 L 1129.5 181.836 L 1130.071 181.5 L 1130.5 181.224 L 1131.5 181 L 1132.5 180.836 L 1133.071 180.5 L 1133.5 180.224 L 1134.5 180.072 L 1135.5 180 L 1137.5 179.98 L 1138.5 179.836 L 1139.071 179.5 Z M 39.5 182.22 L 39.066 182.5 L 38.5 182.836 L 37.5 182.98 L 35.5 183 L 34.5 183.072 L 33.5 183.22 L 33.066 183.5 L 32.5 183.836 L 31.5 184.164 L 30.5 184.836 L 29.5 185.164 L 28.5 186 L 28 186.5 L 27.527 187.5 L 26.5 188.099 L 26.164 188.5 L 25.836 189.5 L 25.164 190.5 L 25.02 191.5 L 25.064 192.5 L 25.006 193.5 L 25 194.5 L 25.328 196.5 L 25.5 196.791 L 25.836 197.5 L 26.164 198.5 L 27 199.5 L 27.5 200 L 28.242 200.5 L 28.5 200.758 L 29.099 201.5 L 29.5 201.836 L 30.5 202.164 L 31.5 202.836 L 32.5 203.164 L 33.066 203.5 L 33.5 203.78 L 34.5 203.928 L 35.5 204.012 L 36.5 204.02 L 37.5 204.164 L 38.066 204.5 L 38.5 204.78 L 39.5 204.928 L 40.5 205 L 51.5 204.98 L 52.5 204.836 L 53.071 204.5 L 53.5 204.224 L 54.5 204.072 L 55.5 203.988 L 56.5 203.98 L 57.5 203.836 L 58.5 203.164 L 59.5 202.836 L 60.5 202.164 L 61.5 201.836 L 62.5 201 L 63 200.5 L 63.836 199.5 L 64.164 198.5 L 64.5 197.791 L 64.672 197.5 L 65 195.5 L 64.98 190.5 L 64.836 189.5 L 64.164 188.5 L 63.836 187.5 L 63 186.5 L 62.5 186 L 61.5 185.164 L 60.5 184.836 L 59.5 184.164 L 58.5 184 L 57.5 183.776 L 57.071 183.5 L 56.5 183.164 L 55.5 183.02 L 53.5 183 L 52.5 182.928 L 51.5 182.776 L 51.071 182.5 L 50.5 182.164 L 49.5 182.02 L 41.5 182 L 40.5 182.072 L 39.5 182.22 Z M 161 183.5 L 161.5 183 L 210.5 183 L 211 183.5 L 211 197.5 L 210.96 198.5 L 210.836 199.5 L 210.667 200.5 L 210.5 200.783 L 210.164 201.5 L 210.02 202.5 L 209.94 203.5 L 209.776 204.5 L 209.5 204.929 L 209.164 205.5 L 209 206.5 L 208.776 207.5 L 208.5 207.929 L 208.164 208.5 L 207.836 209.5 L 207 210.5 L 206.5 211 L 205.908 211.5 L 205.5 212.012 L 204.5 213.012 L 203.907 213.5 L 203.5 213.811 L 202.901 214.5 L 202.5 214.836 L 201.5 215.164 L 200.5 215.836 L 199.5 216.164 L 198.5 216.836 L 197.5 217.164 L 196.5 217.836 L 195.5 217.98 L 194.5 217.988 L 193.5 218.072 L 192.5 218.22 L 192.066 218.5 L 191.5 218.836 L 190.5 218.98 L 184.5 219 L 183.5 218.928 L 182.5 218.776 L 182.071 218.5 L 181.5 218.164 L 180.5 218.02 L 179.5 218.012 L 178.5 217.928 L 177.5 217.776 L 177.071 217.5 L 176.5 217.164 L 175.5 217 L 174.5 216.776 L 174.071 216.5 L 173.5 216.164 L 172.5 215.836 L 171.5 215.164 L 170.5 214.836 L 168.5 213.164 L 167.5 212.836 L 167.099 212.5 L 166.5 211.901 L 166.164 211.5 L 165.836 210.5 L 164.164 208.5 L 163.836 207.5 L 163.5 206.929 L 163.224 206.5 L 163 205.5 L 162.836 204.5 L 162.5 203.783 L 162.333 203.5 L 161.994 201.5 L 161.98 199.5 L 161.723 198.5 L 161.333 197.5 L 161 195.5 L 161.01 184.5 L 161 183.5 Z M 975 183.5 L 975.5 183 L 1024.5 183 L 1025 183.5 L 1025 197.5 L 1024.96 198.5 L 1024.836 199.5 L 1024.667 200.5 L 1024.5 200.783 L 1024.164 201.5 L 1024.02 202.5 L 1023.94 203.5 L 1023.776 204.5 L 1023.5 204.929 L 1023.164 205.5 L 1023 206.5 L 1022.776 207.5 L 1022.5 207.929 L 1022.164 208.5 L 1021.836 209.5 L 1021 210.5 L 1020.5 211 L 1019.908 211.5 L 1019.5 212.012 L 1018.5 213.012 L 1017.907 213.5 L 1017.5 213.811 L 1016.901 214.5 L 1016.5 214.836 L 1015.5 215.164 L 1014.5 215.836 L 1013.5 216.164 L 1012.5 216.836 L 1011.5 217.164 L 1010.5 217.836 L 1009.5 217.98 L 1008.5 217.988 L 1007.5 218.072 L 1006.5 218.22 L 1006.066 218.5 L 1005.5 218.836 L 1004.5 218.98 L 998.5 219 L 997.5 218.928 L 996.5 218.776 L 996.071 218.5 L 995.5 218.164 L 994.5 218.02 L 993.5 218.012 L 992.5 217.928 L 991.5 217.776 L 991.071 217.5 L 990.5 217.164 L 989.5 217 L 988.5 216.776 L 988.071 216.5 L 987.5 216.164 L 986.5 215.836 L 985.5 215.164 L 984.5 214.836 L 982.5 213.164 L 981.5 212.836 L 981.099 212.5 L 980.5 211.901 L 980.164 211.5 L 979.836 210.5 L 978.164 208.5 L 977.836 207.5 L 977.5 206.929 L 977.224 206.5 L 977 205.5 L 976.836 204.5 L 976.5 203.783 L 976.333 203.5 L 975.994 201.5 L 975.98 199.5 L 975.723 198.5 L 975.333 197.5 L 975 195.5 L 975 183.5 Z M 1521 183.5 L 1521.5 183 L 1569.5 183 L 1570 183.5 L 1569.99 184.5 L 1570 200.5 L 1569.667 202.5 L 1569.5 202.783 L 1569.164 203.5 L 1569 204.5 L 1568.776 205.5 L 1568.5 205.929 L 1568.164 206.5 L 1567.836 207.5 L 1567.164 208.5 L 1566.836 209.5 L 1565.164 211.5 L 1565 212.5 L 1564.5 213 L 1563.5 213.164 L 1561.5 214.836 L 1560.5 215.164 L 1559.5 215.836 L 1558.5 216.164 L 1557.5 216.836 L 1556.5 217 L 1555.5 217.22 L 1555.066 217.5 L 1554.5 217.836 L 1553.5 217.98 L 1551.5 218 L 1550.5 218.072 L 1549.5 218.22 L 1549.066 218.5 L 1548.5 218.836 L 1547.5 218.98 L 1545.5 219 L 1544.5 218.928 L 1543.5 218.776 L 1543.071 218.5 L 1542.5 218.164 L 1541.5 218.02 L 1539.5 218 L 1538.5 217.928 L 1537.5 217.776 L 1537.071 217.5 L 1536.5 217.164 L 1535.5 217 L 1534.5 216.776 L 1534.071 216.5 L 1533.5 216.164 L 1532.5 216 L 1531.5 215.776 L 1531.166 215.5 L 1530.5 215 L 1529.5 214.164 L 1528.5 213.836 L 1528.099 213.5 L 1527.5 212.758 L 1526.5 211.98 L 1526.111 211.5 L 1525.5 211 L 1525 210.5 L 1524.164 209.5 L 1523.836 208.5 L 1523.164 207.5 L 1522.836 206.5 L 1522.5 205.929 L 1522.224 205.5 L 1522 204.5 L 1521.836 203.5 L 1521.5 202.783 L 1521.333 202.5 L 1521 200.5 L 1521.01 184.5 L 1521 183.5 Z M 438 185.5 L 438.5 185 L 487.5 185 L 488 185.5 L 488 200.5 L 487.667 202.5 L 487.5 202.783 L 487.164 203.5 L 487.02 204.5 L 486.94 205.5 L 486.723 206.5 L 486.5 206.861 L 486.164 207.5 L 486 208.5 L 485.776 209.5 L 485.5 209.834 L 485 210.5 L 484.164 211.5 L 483.836 212.5 L 483 213.5 L 482.5 214 L 481.908 214.5 L 481.5 215.012 L 480.907 215.5 L 480.5 215.811 L 479.901 216.5 L 479.5 216.836 L 478.5 217.164 L 477.5 217.836 L 476.5 218.164 L 475.5 218.836 L 474.5 219 L 473.5 219.22 L 473.066 219.5 L 472.5 219.836 L 471.5 219.98 L 468.5 220 L 467.5 220.072 L 466.5 220.22 L 466.066 220.5 L 465.5 220.836 L 464.5 220.98 L 463.5 220.792 L 462.5 220.776 L 462.071 220.5 L 461.5 220.164 L 460.5 220.02 L 456.5 220 L 455.5 219.928 L 454.5 219.776 L 454.071 219.5 L 453.5 219.164 L 452.5 219 L 451.5 218.776 L 451.071 218.5 L 450.5 218.164 L 449.5 217.836 L 448.5 217.164 L 447.5 216.836 L 447.099 216.5 L 446.5 215.758 L 445.5 214.98 L 443.5 212.98 L 443.111 212.5 L 442.5 212 L 442 211.5 L 441.164 210.5 L 440.836 209.5 L 440.5 208.929 L 440.224 208.5 L 440 207.5 L 439.836 206.5 L 439.5 205.783 L 439.333 205.5 L 439.072 204.5 L 438.994 203.5 L 438.98 201.5 L 438.836 200.5 L 438.5 199.783 L 438.333 199.5 L 438.072 198.5 L 438 197.5 L 438 185.5 Z M 713 185.5 L 713.5 185 L 761.5 185 L 762 185.5 L 762 202.5 L 761.836 203.5 L 761.776 204.5 L 761.5 204.929 L 761.164 205.5 L 761 206.5 L 760.776 207.5 L 760.5 207.929 L 760.164 208.5 L 759.836 209.5 L 759.164 210.5 L 758.836 211.5 L 758 212.5 L 757.5 213 L 756.908 213.5 L 756.5 214.012 L 755.5 215.012 L 754.907 215.5 L 754.5 215.811 L 753.901 216.5 L 753.5 216.836 L 752.5 217.164 L 751.5 217.836 L 750.5 218.164 L 749.5 218.836 L 748.5 219 L 747.5 219.22 L 747.066 219.5 L 746.5 219.836 L 745.5 219.98 L 742.5 220 L 741.5 220.072 L 740.5 220.22 L 740.066 220.5 L 739.5 220.836 L 738.5 220.98 L 737.5 220.792 L 736.5 220.776 L 736.071 220.5 L 735.5 220.164 L 734.5 220.02 L 731.5 220 L 730.5 219.928 L 729.5 219.776 L 729.071 219.5 L 728.5 219.164 L 727.5 219 L 726.5 218.776 L 726.071 218.5 L 725.5 218.164 L 724.5 218 L 723.5 217.776 L 723.071 217.5 L 722.5 217.164 L 721.5 216.836 L 721.099 216.5 L 720.5 215.758 L 719.5 214.98 L 718.5 213.98 L 718.111 213.5 L 717.5 213 L 717 212.5 L 716.164 211.5 L 715.836 210.5 L 715.164 209.5 L 714.836 208.5 L 714.5 207.929 L 714.224 207.5 L 714 206.5 L 713.836 205.5 L 713.5 204.929 L 713.224 204.5 L 713.164 203.5 L 713 202.5 L 713 185.5 Z M 1258 185.5 L 1258.5 185 L 1307.5 185 L 1308 185.5 L 1308 197.5 L 1307.96 198.5 L 1307.836 199.5 L 1307.667 200.5 L 1307.5 200.783 L 1307.164 201.5 L 1307.02 202.5 L 1307.012 203.5 L 1306.928 204.5 L 1306.667 205.5 L 1306.5 205.783 L 1306.164 206.5 L 1306 207.5 L 1305.776 208.5 L 1305.5 208.929 L 1305.164 209.5 L 1304.836 210.5 L 1303.164 212.5 L 1302.836 213.5 L 1302.5 213.901 L 1301.901 214.5 L 1301.5 214.836 L 1300.5 215.164 L 1298.5 216.836 L 1297.5 217.164 L 1296.5 217.836 L 1295.5 218.164 L 1294.5 218.836 L 1293.5 219 L 1292.5 219.22 L 1292.066 219.5 L 1291.5 219.836 L 1290.5 219.98 L 1277.5 220 L 1276.5 219.928 L 1275.5 219.776 L 1275.071 219.5 L 1274.5 219.164 L 1273.5 219.02 L 1272.5 218.94 L 1271.5 218.776 L 1271.071 218.5 L 1270.5 218.164 L 1269.5 217.836 L 1268.5 217.164 L 1267.5 216.836 L 1267.099 216.5 L 1266.5 215.758 L 1265.5 214.98 L 1263.5 212.98 L 1263.111 212.5 L 1262.5 212 L 1262 211.5 L 1261.164 210.5 L 1260.836 209.5 L 1260.164 208.5 L 1259.836 207.5 L 1259.5 206.861 L 1259.277 206.5 L 1259.06 205.5 L 1258.98 204.5 L 1258.836 203.5 L 1258.5 202.783 L 1258.333 202.5 L 1258 200.5 L 1258 185.5 Z M 592.5 186.22 L 592.066 186.5 L 591.5 186.836 L 590.5 186.98 L 589.5 186.988 L 588.5 187.072 L 587.5 187.22 L 587.066 187.5 L 586.5 187.836 L 585.5 188 L 584.5 188.22 L 584.161 188.5 L 583.5 189 L 582.5 189.836 L 581.5 190 L 581 190.5 L 580.836 191.5 L 580.164 192.5 L 579.836 193.5 L 579.164 194.5 L 579.02 195.5 L 579.006 197.5 L 579.04 198.5 L 579.164 199.5 L 579.328 200.5 L 579.5 200.791 L 579.836 201.5 L 580.164 202.5 L 581 203.5 L 581.5 204 L 582.242 204.5 L 582.5 204.758 L 583.099 205.5 L 583.5 205.836 L 584.5 206.164 L 585.5 206.836 L 586.5 207.164 L 587.066 207.5 L 587.5 207.78 L 588.5 207.928 L 589.5 208.012 L 590.5 208.02 L 591.5 208.164 L 592.066 208.5 L 592.5 208.78 L 593.5 208.928 L 594.5 209 L 604.5 208.98 L 605.5 208.836 L 606.071 208.5 L 606.5 208.224 L 607.5 208.072 L 608.5 207.988 L 609.5 207.98 L 610.5 207.836 L 611.071 207.5 L 611.5 207.224 L 612.5 207 L 613.5 206.836 L 615.5 205.164 L 616.5 205 L 617 204.5 L 617.164 203.5 L 618 202.5 L 618.5 201.715 L 618.672 201.5 L 619 199.5 L 618.98 198.5 L 618.994 197.5 L 618.98 195.5 L 618.836 194.5 L 618.164 193.5 L 617.836 192.5 L 617.164 191.5 L 617 190.5 L 616.5 190 L 615.5 189.836 L 613.5 188.164 L 612.5 188 L 611.5 187.776 L 611.071 187.5 L 610.5 187.164 L 609.5 187.02 L 608.5 187.012 L 607.5 186.928 L 606.5 186.776 L 606.071 186.5 L 605.5 186.164 L 604.5 186.02 L 594.5 186 L 593.5 186.072 L 592.5 186.22 Z M 1137.5 186.22 L 1137.066 186.5 L 1136.5 186.836 L 1135.5 186.98 L 1134.5 186.988 L 1133.5 187.072 L 1132.5 187.22 L 1132.066 187.5 L 1131.5 187.836 L 1130.5 188 L 1129.5 188.22 L 1129.161 188.5 L 1128.5 189 L 1128 189.5 L 1127.5 190.161 L 1125.5 192.161 L 1125.22 192.5 L 1124.776 194.5 L 1124.5 194.929 L 1124.164 195.5 L 1124.02 196.5 L 1124.012 197.5 L 1124.072 198.5 L 1124.392 199.5 L 1124.5 199.694 L 1124.836 200.5 L 1125.164 201.5 L 1125.836 202.5 L 1126.164 203.5 L 1126.5 203.901 L 1127.099 204.5 L 1127.5 204.836 L 1128.5 205.164 L 1129.5 206 L 1130.161 206.5 L 1130.5 206.78 L 1131.5 207 L 1132.5 207.164 L 1133.066 207.5 L 1133.5 207.78 L 1134.5 207.928 L 1135.5 208 L 1138.5 208.02 L 1139.5 208.164 L 1140.066 208.5 L 1140.5 208.78 L 1141.5 208.928 L 1142.5 209 L 1147.5 208.98 L 1148.5 208.836 L 1149.071 208.5 L 1149.5 208.224 L 1150.5 208.072 L 1151.5 208 L 1154.5 207.98 L 1155.5 207.836 L 1156.071 207.5 L 1156.5 207.224 L 1157.5 207 L 1158.5 206.836 L 1159.5 206.164 L 1160.5 205.836 L 1161.5 205 L 1162 204.5 L 1162.836 203.5 L 1163.164 202.5 L 1163.5 201.934 L 1163.78 201.5 L 1164 200.5 L 1164.164 199.5 L 1164.5 198.814 L 1164.688 198.5 L 1164.818 197.5 L 1164.836 196.5 L 1164.5 195.861 L 1164.277 195.5 L 1164.06 194.5 L 1163.98 193.5 L 1163.723 192.5 L 1163.5 192.226 L 1162.774 191.5 L 1162.5 191.258 L 1161.846 190.5 L 1161.5 190.136 L 1160.978 189.5 L 1160.5 189 L 1159.5 188.164 L 1158.5 188 L 1157.5 187.776 L 1157.071 187.5 L 1156.5 187.164 L 1155.5 187.02 L 1154.5 186.94 L 1153.5 186.776 L 1153.071 186.5 L 1152.5 186.164 L 1151.5 186.02 L 1139.5 186 L 1138.5 186.072 L 1137.5 186.22 Z M 41 189.5 L 41.5 189 L 49.5 189 L 50 189.5 L 50 197.5 L 49.5 198 L 41.5 198 L 41 197.5 L 41 189.5 Z M 167.5 190 L 167 190.5 L 167.01 191.5 L 167 197.5 L 167.072 198.5 L 167.328 199.5 L 167.5 199.791 L 167.836 200.5 L 168 201.5 L 168.22 202.5 L 168.5 202.934 L 168.836 203.5 L 169.164 204.5 L 170 205.5 L 170.5 206 L 171.111 206.5 L 171.5 206.98 L 172.5 207.758 L 173.099 208.5 L 173.5 208.836 L 174.5 209.164 L 175.5 209.836 L 176.5 210.164 L 177.066 210.5 L 177.5 210.78 L 178.5 210.928 L 179.5 211 L 181.5 211.02 L 182.5 211.164 L 183.066 211.5 L 183.5 211.78 L 184.5 211.928 L 185.5 212 L 188.5 211.98 L 189.5 211.836 L 190.071 211.5 L 190.5 211.224 L 191.5 211.072 L 192.5 211 L 194.5 210.98 L 195.5 210.836 L 196.5 210.164 L 197.5 209.836 L 198.5 209.164 L 199.5 208.836 L 199.901 208.5 L 200.5 207.811 L 200.811 207.5 L 201.5 207 L 202 206.5 L 202.836 205.5 L 203.164 204.5 L 203.5 203.934 L 203.78 203.5 L 204 202.5 L 204.164 201.5 L 204.5 200.791 L 204.672 200.5 L 204.836 199.5 L 204.96 198.5 L 205 197.5 L 205 190.5 L 204.5 190 L 167.5 190 Z M 981.5 190 L 981 190.5 L 981 197.5 L 981.072 198.5 L 981.328 199.5 L 981.5 199.791 L 981.836 200.5 L 982 201.5 L 982.22 202.5 L 982.5 202.934 L 982.836 203.5 L 983.164 204.5 L 984 205.5 L 984.5 206 L 985.111 206.5 L 985.5 206.98 L 986.5 207.758 L 987.099 208.5 L 987.5 208.836 L 988.5 209.164 L 989.5 209.836 L 990.5 210.164 L 991.066 210.5 L 991.5 210.78 L 992.5 210.928 L 993.5 211 L 995.5 211.02 L 996.5 211.164 L 997.066 211.5 L 997.5 211.78 L 998.5 211.928 L 999.5 212 L 1002.5 211.98 L 1003.5 211.836 L 1004.071 211.5 L 1004.5 211.224 L 1005.5 211.072 L 1006.5 211 L 1008.5 210.98 L 1009.5 210.836 L 1010.5 210.164 L 1011.5 209.836 L 1012.5 209.164 L 1013.5 208.836 L 1013.901 208.5 L 1014.5 207.811 L 1014.811 207.5 L 1015.5 207 L 1016 206.5 L 1016.836 205.5 L 1017.164 204.5 L 1017.5 203.934 L 1017.78 203.5 L 1018 202.5 L 1018.164 201.5 L 1018.5 200.791 L 1018.672 200.5 L 1018.836 199.5 L 1018.96 198.5 L 1019 197.5 L 1019 190.5 L 1018.5 190 L 981.5 190 Z M 1527.5 190 L 1527 190.5 L 1527.01 191.5 L 1527 197.5 L 1527.02 198.5 L 1527 199.5 L 1527.328 201.5 L 1527.5 201.791 L 1527.836 202.5 L 1528.164 203.5 L 1528.836 204.5 L 1529.164 205.5 L 1530 206.5 L 1530.5 207 L 1531.5 207.836 L 1532.5 208.164 L 1533.5 208.836 L 1534.5 209.164 L 1535.066 209.5 L 1535.5 209.78 L 1536.5 210 L 1537.5 210.164 L 1538.066 210.5 L 1538.5 210.78 L 1539.5 210.928 L 1540.5 211 L 1552.5 210.98 L 1553.5 210.836 L 1554.071 210.5 L 1554.5 210.224 L 1555.5 210 L 1556.5 209.836 L 1557.5 209.164 L 1558.5 208.836 L 1558.901 208.5 L 1559.5 207.811 L 1559.811 207.5 L 1560.5 207 L 1561 206.5 L 1561.836 205.5 L 1562.164 204.5 L 1562.836 203.5 L 1563.164 202.5 L 1563.5 201.861 L 1563.723 201.5 L 1563.94 200.5 L 1564.02 199.5 L 1564.277 198.5 L 1564.672 197.5 L 1565 195.5 L 1564.99 191.5 L 1565 190.5 L 1564.5 190 L 1527.5 190 Z M 444.5 192 L 444 192.5 L 444 197.5 L 444.04 198.5 L 444.164 199.5 L 444.328 200.5 L 444.5 200.791 L 444.836 201.5 L 444.98 202.5 L 445.06 203.5 L 445.22 204.5 L 445.5 204.934 L 445.836 205.5 L 446.164 206.5 L 447 207.5 L 447.5 208 L 448.111 208.5 L 448.5 208.98 L 449.5 209.758 L 450.099 210.5 L 450.5 210.836 L 451.5 211.164 L 452.066 211.5 L 452.5 211.78 L 453.5 212 L 454.5 212.164 L 455.066 212.5 L 455.5 212.78 L 456.5 212.928 L 457.5 213 L 470.5 212.98 L 471.5 212.836 L 472.071 212.5 L 472.5 212.224 L 473.5 212 L 474.5 211.836 L 476.5 210.164 L 477.5 209.836 L 478.5 209 L 479 208.5 L 479.836 207.5 L 480.164 206.5 L 480.5 205.934 L 480.78 205.5 L 481 204.5 L 481.164 203.5 L 481.5 202.791 L 481.672 202.5 L 482 200.5 L 482 192.5 L 481.5 192 L 444.5 192 Z M 719.5 192 L 719 192.5 L 719 201.5 L 719.328 203.5 L 719.5 203.791 L 719.836 204.5 L 720.164 205.5 L 720.836 206.5 L 721.164 207.5 L 722 208.5 L 722.5 209 L 723.5 209.836 L 724.5 210.164 L 725.5 210.836 L 726.5 211.164 L 727.066 211.5 L 727.5 211.78 L 728.5 212 L 729.5 212.164 L 730.066 212.5 L 730.5 212.78 L 731.5 212.928 L 732.5 213 L 744.5 212.98 L 745.5 212.836 L 746.071 212.5 L 746.5 212.224 L 747.5 212 L 748.5 211.836 L 749.5 211.164 L 750.5 210.836 L 750.901 210.5 L 751.5 209.811 L 751.811 209.5 L 752.5 209 L 753 208.5 L 753.836 207.5 L 754.164 206.5 L 754.836 205.5 L 755.164 204.5 L 755.5 203.791 L 755.672 203.5 L 755.89 202.5 L 756.012 201.5 L 756.02 200.5 L 756.164 199.5 L 756.5 198.934 L 756.78 198.5 L 756.836 197.5 L 757 196.5 L 757 192.5 L 756.5 192 L 719.5 192 Z M 1264.5 192 L 1264 192.5 L 1264 197.5 L 1264.02 198.5 L 1264 199.5 L 1264.328 201.5 L 1264.5 201.791 L 1264.836 202.5 L 1265 203.5 L 1265.22 204.5 L 1265.5 204.934 L 1265.836 205.5 L 1266.164 206.5 L 1267 207.5 L 1267.5 208 L 1268.111 208.5 L 1268.5 208.98 L 1269.5 209.758 L 1270.161 210.5 L 1270.5 210.78 L 1271.5 211 L 1272.5 211.164 L 1273.066 211.5 L 1273.5 211.78 L 1274.5 212 L 1275.5 212.164 L 1276.066 212.5 L 1276.5 212.78 L 1277.5 212.928 L 1278.5 213 L 1289.5 212.98 L 1290.5 212.836 L 1291.071 212.5 L 1291.5 212.224 L 1292.5 212 L 1293.5 211.836 L 1294.5 211.164 L 1295.5 210.836 L 1295.901 210.5 L 1296.5 209.811 L 1296.907 209.5 L 1297.5 209.012 L 1297.908 208.5 L 1298.5 208 L 1299 207.5 L 1299.836 206.5 L 1300.164 205.5 L 1300.5 204.934 L 1300.78 204.5 L 1301 203.5 L 1301.164 202.5 L 1301.5 201.791 L 1301.672 201.5 L 1302 199.5 L 1301.98 198.5 L 1302 197.5 L 1302 192.5 L 1301.5 192 L 1264.5 192 Z M 594 193.5 L 594.5 193 L 603.5 193 L 604 193.5 L 604 197.5 L 603.98 198.5 L 604 199.5 L 604 201.5 L 603.5 202 L 594.5 202 L 594 201.5 L 594 199.5 L 594.02 198.5 L 594 197.5 L 594 193.5 Z M 1140 193.5 L 1140.5 193 L 1148.5 193 L 1149 193.5 L 1149 197.5 L 1148.98 198.5 L 1149 199.5 L 1149 201.5 L 1148.5 202 L 1140.5 202 L 1140 201.5 L 1140 199.5 L 1140.02 198.5 L 1140 197.5 L 1140 193.5 Z" fill="#000000" fill-rule="evenodd"/>
</svg>
