<?xml version="1.0" encoding="UTF-8" standalone="no"?>
<svg
   version="1.0"
   width="2765.8074pt"
   height="3081.1047pt"
   viewBox="0 0 2765.8074 3081.1047"
   preserveAspectRatio="xMidYMid"
   id="svg1"
   sodipodi:docname="logo_minimal.svg"
   inkscape:version="1.4.2 (2aeb623e1d, 2025-05-12)"
   xmlns:inkscape="http://www.inkscape.org/namespaces/inkscape"
   xmlns:sodipodi="http://sodipodi.sourceforge.net/DTD/sodipodi-0.dtd"
   xmlns="http://www.w3.org/2000/svg"
   xmlns:svg="http://www.w3.org/2000/svg">
  <defs
     id="defs1" />
  <sodipodi:namedview
     id="namedview1"
     pagecolor="#ffffff"
     bordercolor="#000000"
     borderopacity="0.25"
     inkscape:showpageshadow="2"
     inkscape:pageopacity="0.0"
     inkscape:pagecheckerboard="0"
     inkscape:deskcolor="#d1d1d1"
     inkscape:document-units="pt"
     inkscape:zoom="0.18015625"
     inkscape:cx="1848.3955"
     inkscape:cy="2056.5481"
     inkscape:window-width="2190"
     inkscape:window-height="1427"
     inkscape:window-x="0"
     inkscape:window-y="0"
     inkscape:window-maximized="1"
     inkscape:current-layer="svg1" />
  <g
     transform="matrix(0.1,0,0,-0.1,-1617.0254,3940.6974)"
     fill="#000000"
     stroke="none"
     id="g1">
    <path
       d="m 19995,39404 c -27,-2 -120,-8 -205,-14 -838,-59 -1560,-300 -2140,-713 -316,-226 -615,-529 -832,-844 -534,-774 -744,-1726 -607,-2758 62,-466 200,-956 410,-1452 81,-190 313,-656 421,-843 710,-1230 1786,-2403 3353,-3657 530,-423 925,-719 2010,-1503 1240,-896 1710,-1277 2174,-1765 412,-433 682,-881 801,-1330 53,-198 64,-290 64,-525 0,-235 -11,-327 -64,-525 -119,-449 -389,-897 -801,-1330 -463,-487 -936,-871 -2174,-1765 -1278,-924 -1768,-1296 -2390,-1814 -1245,-1038 -2190,-2073 -2821,-3091 -190,-306 -444,-794 -573,-1098 -319,-752 -465,-1455 -448,-2157 8,-328 38,-563 112,-865 221,-904 765,-1660 1550,-2154 431,-272 997,-469 1575,-550 308,-43 499,-55 890,-55 384,-1 537,8 835,45 1274,161 2276,737 3121,1794 432,541 834,1246 1197,2100 307,723 432,1028 667,1625 506,1290 565,1437 745,1860 715,1683 1322,2622 2020,3127 714,517 1516,517 2230,0 698,-505 1305,-1444 2020,-3127 180,-423 245,-586 745,-1859 231,-589 390,-975 667,-1626 488,-1144 991,-1943 1623,-2576 761,-762 1620,-1182 2695,-1318 298,-37 451,-46 835,-45 477,0 817,30 1155,100 803,167 1423,489 1935,1004 573,576 911,1294 1016,2155 21,181 29,564 15,760 -44,591 -186,1157 -442,1762 -81,190 -313,656 -421,843 -710,1230 -1786,2403 -3353,3657 -530,423 -925,719 -2010,1503 -1244,898 -1709,1276 -2179,1770 -471,495 -750,1003 -843,1535 -24,140 -24,490 0,630 136,779 638,1461 1712,2324 322,258 647,502 1310,981 1081,781 1482,1081 2010,1503 1567,1254 2643,2427 3353,3657 108,187 340,653 421,843 319,752 465,1455 448,2157 -8,330 -39,566 -113,870 -242,986 -883,1811 -1769,2276 -496,260 -1038,405 -1735,466 -192,17 -851,17 -1040,0 -721,-63 -1276,-209 -1809,-476 -440,-221 -804,-489 -1191,-876 -623,-623 -1132,-1427 -1610,-2545 -279,-654 -444,-1055 -680,-1656 -500,-1273 -565,-1436 -745,-1859 -715,-1683 -1322,-2622 -2020,-3127 -661,-478 -1404,-515 -2075,-103 -762,468 -1410,1430 -2175,3230 -180,423 -239,570 -745,1860 -101,256 -236,593 -300,750 -110,267 -161,388 -363,865 -479,1131 -999,1957 -1627,2585 -324,324 -604,543 -960,750 -575,335 -1201,524 -1970,596 -154,14 -786,27 -905,18 z m 940,-188 c 208,-22 348,-43 500,-72 994,-194 1785,-653 2489,-1444 390,-438 722,-944 1055,-1610 227,-455 409,-877 618,-1433 390,-1041 878,-2620 1153,-3727 225,-908 311,-1492 297,-2015 -7,-244 -22,-370 -68,-555 -76,-306 -205,-541 -401,-725 -198,-186 -419,-294 -728,-356 -104,-21 -143,-24 -395,-24 -297,0 -356,6 -640,61 -621,121 -1397,418 -2258,866 -1698,883 -3312,2116 -4383,3348 -1086,1249 -1702,2520 -1819,3754 -19,203 -19,577 0,777 123,1282 863,2326 2005,2827 395,174 879,289 1385,331 72,6 150,13 175,15 125,10 874,-3 1015,-18 z m 19380,0 c 898,-98 1534,-342 2115,-810 101,-81 325,-301 414,-406 435,-511 698,-1123 792,-1840 25,-192 30,-651 10,-868 -162,-1700 -1259,-3460 -3167,-5078 -1659,-1408 -3879,-2623 -5294,-2898 -284,-55 -343,-61 -640,-61 -252,0 -291,3 -395,24 -309,62 -530,170 -728,356 -196,184 -325,419 -401,725 -46,185 -61,311 -68,555 -11,413 39,845 168,1456 209,991 709,2689 1177,3999 384,1073 799,1956 1229,2610 495,752 1063,1310 1713,1682 589,337 1227,515 2050,572 149,10 882,-3 1025,-18 z M 25855,20720 c 303,-60 526,-170 723,-355 238,-225 387,-541 448,-955 36,-245 29,-668 -17,-1030 -101,-805 -432,-2088 -964,-3740 -380,-1178 -698,-1993 -1066,-2730 -440,-880 -905,-1520 -1479,-2036 -276,-248 -622,-485 -956,-652 -367,-184 -868,-336 -1319,-401 -341,-49 -459,-56 -920,-56 -385,1 -465,3 -640,23 -701,77 -1262,255 -1735,551 -228,142 -377,259 -569,446 -557,542 -883,1214 -997,2060 -25,177 -30,654 -10,863 153,1605 1137,3261 2857,4807 1809,1627 4403,3045 5879,3214 52,6 109,13 125,15 17,2 143,3 280,1 209,-2 268,-6 360,-25 z m 9095,6 c 709,-107 1524,-404 2493,-908 1699,-883 3308,-2112 4383,-3348 1086,-1248 1702,-2519 1819,-3760 21,-211 16,-687 -9,-865 -99,-733 -354,-1328 -791,-1844 -87,-103 -311,-323 -415,-407 -565,-458 -1222,-711 -2095,-806 -175,-20 -255,-22 -640,-23 -461,0 -579,7 -920,56 -368,53 -749,156 -1081,295 -748,311 -1391,840 -1966,1614 -379,510 -785,1267 -1118,2085 -337,827 -710,1935 -1065,3165 -364,1259 -539,2072 -586,2720 -14,198 -7,561 15,710 61,414 210,730 448,955 198,186 429,299 723,354 155,29 161,29 445,26 166,-2 292,-9 360,-19 z"
       id="path1" />
  </g>
</svg>
