  0
SECTION
  2
HEADER
  9
$ACADVER
  1
AC1024
  9
$ACADMAINTVER
 70
6
  9
$DWGCODEPAGE
  3
ANSI_1252
  9
$LASTSAVEDBY
  1
ezdxf
  9
$INSBASE
 10
0.0
 20
0.0
 30
0.0
  9
$EXTMIN
 10
1e+20
 20
1e+20
 30
1e+20
  9
$EXTMAX
 10
-1e+20
 20
-1e+20
 30
-1e+20
  9
$LIMMIN
 10
0.0
 20
0.0
  9
$LIMMAX
 10
420.0
 20
297.0
  9
$ORTHOMODE
 70
0
  9
$REGENMODE
 70
1
  9
$FILLMODE
 70
1
  9
$QTEXTMODE
 70
0
  9
$MIRRTEXT
 70
1
  9
$LTSCALE
 40
1.0
  9
$ATTMODE
 70
1
  9
$TEXTSIZE
 40
2.5
  9
$TRACEWID
 40
1.0
  9
$TEXTSTYLE
  7
Standard
  9
$CLAYER
  8
0
  9
$CELTYPE
  6
ByLayer
  9
$CECOLOR
 62
256
  9
$CELTSCALE
 40
1.0
  9
$DISPSILH
 70
0
  9
$DIMSCALE
 40
1.0
  9
$DIMASZ
 40
2.5
  9
$DIMEXO
 40
0.625
  9
$DIMDLI
 40
3.75
  9
$DIMRND
 40
0.0
  9
$DIMDLE
 40
0.0
  9
$DIMEXE
 40
1.25
  9
$DIMTP
 40
0.0
  9
$DIMTM
 40
0.0
  9
$DIMTXT
 40
2.5
  9
$DIMCEN
 40
2.5
  9
$DIMTSZ
 40
0.0
  9
$DIMTOL
 70
0
  9
$DIMLIM
 70
0
  9
$DIMTIH
 70
0
  9
$DIMTOH
 70
0
  9
$DIMSE1
 70
0
  9
$DIMSE2
 70
0
  9
$DIMTAD
 70
1
  9
$DIMZIN
 70
8
  9
$DIMBLK
  1

  9
$DIMASO
 70
1
  9
$DIMSHO
 70
1
  9
$DIMPOST
  1

  9
$DIMAPOST
  1

  9
$DIMALT
 70
0
  9
$DIMALTD
 70
3
  9
$DIMALTF
 40
0.03937007874
  9
$DIMLFAC
 40
1.0
  9
$DIMTOFL
 70
1
  9
$DIMTVP
 40
0.0
  9
$DIMTIX
 70
0
  9
$DIMSOXD
 70
0
  9
$DIMSAH
 70
0
  9
$DIMBLK1
  1

  9
$DIMBLK2
  1

  9
$DIMSTYLE
  2
ISO-25
  9
$DIMCLRD
 70
0
  9
$DIMCLRE
 70
0
  9
$DIMCLRT
 70
0
  9
$DIMTFAC
 40
1.0
  9
$DIMGAP
 40
0.625
  9
$DIMJUST
 70
0
  9
$DIMSD1
 70
0
  9
$DIMSD2
 70
0
  9
$DIMTOLJ
 70
0
  9
$DIMTZIN
 70
8
  9
$DIMALTZ
 70
0
  9
$DIMALTTZ
 70
0
  9
$DIMUPT
 70
0
  9
$DIMDEC
 70
2
  9
$DIMTDEC
 70
2
  9
$DIMALTU
 70
2
  9
$DIMALTTD
 70
3
  9
$DIMTXSTY
  7
Standard
  9
$DIMAUNIT
 70
0
  9
$DIMADEC
 70
0
  9
$DIMALTRND
 40
0.0
  9
$DIMAZIN
 70
0
  9
$DIMDSEP
 70
44
  9
$DIMATFIT
 70
3
  9
$DIMFRAC
 70
0
  9
$DIMLDRBLK
  1

  9
$DIMLUNIT
 70
2
  9
$DIMLWD
 70
-2
  9
$DIMLWE
 70
-2
  9
$DIMTMOVE
 70
0
  9
$DIMFXL
 40
1.0
  9
$DIMFXLON
 70
0
  9
$DIMJOGANG
 40
0.785398163397
  9
$DIMTFILL
 70
0
  9
$DIMTFILLCLR
 70
0
  9
$DIMARCSYM
 70
0
  9
$DIMLTYPE
  6

  9
$DIMLTEX1
  6

  9
$DIMLTEX2
  6

  9
$DIMTXTDIRECTION
 70
0
  9
$LUNITS
 70
2
  9
$LUPREC
 70
4
  9
$SKETCHINC
 40
1.0
  9
$FILLETRAD
 40
10.0
  9
$AUNITS
 70
0
  9
$AUPREC
 70
2
  9
$MENU
  1
.
  9
$ELEVATION
 40
0.0
  9
$PELEVATION
 40
0.0
  9
$THICKNESS
 40
0.0
  9
$LIMCHECK
 70
0
  9
$CHAMFERA
 40
0.0
  9
$CHAMFERB
 40
0.0
  9
$CHAMFERC
 40
0.0
  9
$CHAMFERD
 40
0.0
  9
$SKPOLY
 70
0
  9
$TDCREATE
 40
2461117.476863426
  9
$TDUCREATE
 40
2458532.153996898
  9
$TDUPDATE
 40
2461117.476863426
  9
$TDUUPDATE
 40
2458532.1544311
  9
$TDINDWG
 40
0.0
  9
$TDUSRTIMER
 40
0.0
  9
$USRTIMER
 70
1
  9
$ANGBASE
 50
0.0
  9
$ANGDIR
 70
0
  9
$PDMODE
 70
0
  9
$PDSIZE
 40
0.0
  9
$PLINEWID
 40
0.0
  9
$SPLFRAME
 70
0
  9
$SPLINETYPE
 70
6
  9
$SPLINESEGS
 70
8
  9
$HANDSEED
  5
35
  9
$SURFTAB1
 70
6
  9
$SURFTAB2
 70
6
  9
$SURFTYPE
 70
6
  9
$SURFU
 70
6
  9
$SURFV
 70
6
  9
$UCSBASE
  2

  9
$UCSNAME
  2

  9
$UCSORG
 10
0.0
 20
0.0
 30
0.0
  9
$UCSXDIR
 10
1.0
 20
0.0
 30
0.0
  9
$UCSYDIR
 10
0.0
 20
1.0
 30
0.0
  9
$UCSORTHOREF
  2

  9
$UCSORTHOVIEW
 70
0
  9
$UCSORGTOP
 10
0.0
 20
0.0
 30
0.0
  9
$UCSORGBOTTOM
 10
0.0
 20
0.0
 30
0.0
  9
$UCSORGLEFT
 10
0.0
 20
0.0
 30
0.0
  9
$UCSORGRIGHT
 10
0.0
 20
0.0
 30
0.0
  9
$UCSORGFRONT
 10
0.0
 20
0.0
 30
0.0
  9
$UCSORGBACK
 10
0.0
 20
0.0
 30
0.0
  9
$PUCSBASE
  2

  9
$PUCSNAME
  2

  9
$PUCSORG
 10
0.0
 20
0.0
 30
0.0
  9
$PUCSXDIR
 10
1.0
 20
0.0
 30
0.0
  9
$PUCSYDIR
 10
0.0
 20
1.0
 30
0.0
  9
$PUCSORTHOREF
  2

  9
$PUCSORTHOVIEW
 70
0
  9
$PUCSORGTOP
 10
0.0
 20
0.0
 30
0.0
  9
$PUCSORGBOTTOM
 10
0.0
 20
0.0
 30
0.0
  9
$PUCSORGLEFT
 10
0.0
 20
0.0
 30
0.0
  9
$PUCSORGRIGHT
 10
0.0
 20
0.0
 30
0.0
  9
$PUCSORGFRONT
 10
0.0
 20
0.0
 30
0.0
  9
$PUCSORGBACK
 10
0.0
 20
0.0
 30
0.0
  9
$USERI1
 70
0
  9
$USERI2
 70
0
  9
$USERI3
 70
0
  9
$USERI4
 70
0
  9
$USERI5
 70
0
  9
$USERR1
 40
0.0
  9
$USERR2
 40
0.0
  9
$USERR3
 40
0.0
  9
$USERR4
 40
0.0
  9
$USERR5
 40
0.0
  9
$WORLDVIEW
 70
1
  9
$SHADEDGE
 70
3
  9
$SHADEDIF
 70
70
  9
$TILEMODE
 70
1
  9
$MAXACTVP
 70
64
  9
$PINSBASE
 10
0.0
 20
0.0
 30
0.0
  9
$PLIMCHECK
 70
0
  9
$PEXTMIN
 10
1e+20
 20
1e+20
 30
1e+20
  9
$PEXTMAX
 10
-1e+20
 20
-1e+20
 30
-1e+20
  9
$PLIMMIN
 10
0.0
 20
0.0
  9
$PLIMMAX
 10
420.0
 20
297.0
  9
$UNITMODE
 70
0
  9
$VISRETAIN
 70
1
  9
$PLINEGEN
 70
0
  9
$PSLTSCALE
 70
1
  9
$TREEDEPTH
 70
3020
  9
$CMLSTYLE
  2
Standard
  9
$CMLJUST
 70
0
  9
$CMLSCALE
 40
20.0
  9
$PROXYGRAPHICS
 70
1
  9
$MEASUREMENT
 70
1
  9
$CELWEIGHT
370
-1
  9
$ENDCAPS
280
0
  9
$JOINSTYLE
280
0
  9
$LWDISPLAY
290
0
  9
$INSUNITS
 70
1
  9
$HYPERLINKBASE
  1

  9
$STYLESHEET
  1

  9
$XEDIT
290
1
  9
$CEPSNTYPE
380
0
  9
$PSTYLEMODE
290
1
  9
$FINGERPRINTGUID
  2
{D7337A25-54DA-4615-86F4-9C77326AE00C}
  9
$VERSIONGUID
  2
{67122B82-52AE-4AB4-8EF9-E9C3A67A9F7F}
  9
$EXTNAMES
290
1
  9
$PSVPSCALE
 40
0.0
  9
$OLESTARTUP
290
0
  9
$SORTENTS
280
127
  9
$INDEXCTL
280
0
  9
$HIDETEXT
280
1
  9
$XCLIPFRAME
280
1
  9
$HALOGAP
280
0
  9
$OBSCOLOR
 70
257
  9
$OBSLTYPE
280
0
  9
$INTERSECTIONDISPLAY
280
0
  9
$INTERSECTIONCOLOR
 70
257
  9
$DIMASSOC
280
2
  9
$PROJECTNAME
  1

  9
$CAMERADISPLAY
290
0
  9
$LENSLENGTH
 40
50.0
  9
$CAMERAHEIGHT
 40
0.0
  9
$STEPSPERSEC
 40
24.0
  9
$STEPSIZE
 40
100.0
  9
$3DDWFPREC
 40
2.0
  9
$PSOLWIDTH
 40
0.005
  9
$PSOLHEIGHT
 40
0.08
  9
$LOFTANG1
 40
1.570796326795
  9
$LOFTANG2
 40
1.570796326795
  9
$LOFTMAG1
 40
0.0
  9
$LOFTMAG2
 40
0.0
  9
$LOFTPARAM
 70
7
  9
$LOFTNORMALS
280
1
  9
$LATITUDE
 40
37.795
  9
$LONGITUDE
 40
-122.394
  9
$NORTHDIRECTION
 40
0.0
  9
$TIMEZONE
 70
-8000
  9
$LIGHTGLYPHDISPLAY
280
1
  9
$TILEMODELIGHTSYNCH
280
1
  9
$CMATERIAL
347
20
  9
$SOLIDHIST
280
0
  9
$SHOWHIST
280
1
  9
$DWFFRAME
280
2
  9
$DGNFRAME
280
2
  9
$REALWORLDSCALE
290
1
  9
$INTERFERECOLOR
 62
256
  9
$CSHADOW
280
0
  9
$SHADOWPLANELOCATION
 40
0.0
  0
ENDSEC
  0
SECTION
  2
CLASSES
  0
CLASS
  1
ACDBDICTIONARYWDFLT
  2
AcDbDictionaryWithDefault
  3
ObjectDBX Classes
 90
0
 91
0
280
0
281
0
  0
CLASS
  1
SUN
  2
AcDbSun
  3
SCENEOE
 90
1153
 91
0
280
0
281
0
  0
CLASS
  1
VISUALSTYLE
  2
AcDbVisualStyle
  3
ObjectDBX Classes
 90
4095
 91
0
280
0
281
0
  0
CLASS
  1
MATERIAL
  2
AcDbMaterial
  3
ObjectDBX Classes
 90
1153
 91
0
280
0
281
0
  0
CLASS
  1
SCALE
  2
AcDbScale
  3
ObjectDBX Classes
 90
1153
 91
0
280
0
281
0
  0
CLASS
  1
TABLESTYLE
  2
AcDbTableStyle
  3
ObjectDBX Classes
 90
4095
 91
0
280
0
281
0
  0
CLASS
  1
MLEADERSTYLE
  2
AcDbMLeaderStyle
  3
ACDB_MLEADERSTYLE_CLASS
 90
4095
 91
0
280
0
281
0
  0
CLASS
  1
DICTIONARYVAR
  2
AcDbDictionaryVar
  3
ObjectDBX Classes
 90
0
 91
0
280
0
281
0
  0
CLASS
  1
CELLSTYLEMAP
  2
AcDbCellStyleMap
  3
ObjectDBX Classes
 90
1152
 91
0
280
0
281
0
  0
CLASS
  1
MENTALRAYRENDERSETTINGS
  2
AcDbMentalRayRenderSettings
  3
SCENEOE
 90
1024
 91
0
280
0
281
0
  0
CLASS
  1
ACDBDETAILVIEWSTYLE
  2
AcDbDetailViewStyle
  3
ObjectDBX Classes
 90
1025
 91
0
280
0
281
0
  0
CLASS
  1
ACDBSECTIONVIEWSTYLE
  2
AcDbSectionViewStyle
  3
ObjectDBX Classes
 90
1025
 91
0
280
0
281
0
  0
CLASS
  1
RASTERVARIABLES
  2
AcDbRasterVariables
  3
ISM
 90
0
 91
0
280
0
281
0
  0
CLASS
  1
LAYOUT
  2
AcDbLayout
  3
ObjectDBX Classes
 90
0
 91
0
280
0
281
0
  0
CLASS
  1
ACDBPLACEHOLDER
  2
AcDbPlaceHolder
  3
ObjectDBX Classes
 90
0
 91
0
280
0
281
0
  0
ENDSEC
  0
SECTION
  2
TABLES
  0
TABLE
  2
VPORT
  5
8
330
0
100
AcDbSymbolTable
 70
1
  0
VPORT
  5
23
330
8
100
AcDbSymbolTableRecord
100
AcDbViewportTableRecord
  2
*Active
 70
0
 10
0.0
 20
0.0
 11
1.0
 21
1.0
 12
0.0
 22
0.0
 13
0.0
 23
0.0
 14
0.5
 24
0.5
 15
0.5
 25
0.5
 16
0.0
 26
0.0
 36
1.0
 17
0.0
 27
0.0
 37
0.0
 40
1000.0
 41
1.34
 42
50.0
 43
0.0
 44
0.0
 50
0.0
 51
0.0
 71
0
 72
1000
 73
1
 74
3
 75
0
 76
0
 77
0
 78
0
281
0
 65
0
146
0.0
  0
ENDTAB
  0
TABLE
  2
LTYPE
  5
2
330
0
100
AcDbSymbolTable
 70
3
  0
LTYPE
  5
24
330
2
100
AcDbSymbolTableRecord
100
AcDbLinetypeTableRecord
  2
ByBlock
 70
0
  3

 72
65
 73
0
 40
0.0
  0
LTYPE
  5
25
330
2
100
AcDbSymbolTableRecord
100
AcDbLinetypeTableRecord
  2
ByLayer
 70
0
  3

 72
65
 73
0
 40
0.0
  0
LTYPE
  5
26
330
2
100
AcDbSymbolTableRecord
100
AcDbLinetypeTableRecord
  2
Continuous
 70
0
  3

 72
65
 73
0
 40
0.0
  0
ENDTAB
  0
TABLE
  2
LAYER
  5
1
330
0
100
AcDbSymbolTable
 70
2
  0
LAYER
  5
27
330
1
100
AcDbSymbolTableRecord
100
AcDbLayerTableRecord
  2
0
 70
0
 62
7
  6
Continuous
370
-3
390
13
347
21
  0
LAYER
  5
28
330
1
100
AcDbSymbolTableRecord
100
AcDbLayerTableRecord
  2
Defpoints
 70
0
 62
7
  6
Continuous
290
0
370
-3
390
13
347
21
  0
ENDTAB
  0
TABLE
  2
STYLE
  5
5
330
0
100
AcDbSymbolTable
 70
1
  0
STYLE
  5
29
330
5
100
AcDbSymbolTableRecord
100
AcDbTextStyleTableRecord
  2
Standard
 70
0
 40
0.0
 41
1.0
 50
0.0
 71
0
 42
2.5
  3
txt
  4

  0
ENDTAB
  0
TABLE
  2
VIEW
  5
7
330
0
100
AcDbSymbolTable
 70
0
  0
ENDTAB
  0
TABLE
  2
UCS
  5
6
330
0
100
AcDbSymbolTable
 70
0
  0
ENDTAB
  0
TABLE
  2
APPID
  5
3
330
0
100
AcDbSymbolTable
 70
3
  0
APPID
  5
2A
330
3
100
AcDbSymbolTableRecord
100
AcDbRegAppTableRecord
  2
ACAD
 70
0
  0
APPID
  5
32
330
3
100
AcDbSymbolTableRecord
100
AcDbRegAppTableRecord
  2
HATCHBACKGROUNDCOLOR
 70
0
  0
APPID
  5
33
330
3
100
AcDbSymbolTableRecord
100
AcDbRegAppTableRecord
  2
EZDXF
 70
0
  0
ENDTAB
  0
TABLE
  2
DIMSTYLE
  5
4
330
0
100
AcDbSymbolTable
 70
1
100
AcDbDimStyleTable
  0
DIMSTYLE
105
2B
330
4
100
AcDbSymbolTableRecord
100
AcDbDimStyleTableRecord
  2
Standard
 70
0
 40
1.0
 41
2.5
 42
0.625
 43
3.75
 44
1.25
 45
0.0
 46
0.0
 47
0.0
 48
0.0
 49
2.5
140
2.5
141
2.5
142
0.0
143
0.03937007874
144
1.0
145
0.0
146
1.0
147
0.625
148
0.0
 69
0
 70
0
 71
0
 72
0
 73
0
 74
0
 75
0
 76
0
 77
1
 78
8
 79
3
170
0
171
3
172
1
173
0
174
0
175
0
176
0
177
0
178
0
179
2
271
2
272
2
273
2
274
3
275
0
276
0
277
2
278
44
279
0
280
0
281
0
282
0
283
0
284
8
285
0
286
0
288
0
289
3
290
0
371
-2
372
-2
  0
ENDTAB
  0
TABLE
  2
BLOCK_RECORD
  5
9
330
0
100
AcDbSymbolTable
 70
2
  0
BLOCK_RECORD
  5
17
330
9
100
AcDbSymbolTableRecord
100
AcDbBlockTableRecord
  2
*Model_Space
340
1A
 70
0
280
1
281
0
  0
BLOCK_RECORD
  5
1B
330
9
100
AcDbSymbolTableRecord
100
AcDbBlockTableRecord
  2
*Paper_Space
340
1E
 70
0
280
1
281
0
  0
ENDTAB
  0
ENDSEC
  0
SECTION
  2
BLOCKS
  0
BLOCK
  5
18
330
17
100
AcDbEntity
  8
0
100
AcDbBlockBegin
  2
*Model_Space
 70
0
 10
0.0
 20
0.0
 30
0.0
  3
*Model_Space
  1

  0
ENDBLK
  5
19
330
17
100
AcDbEntity
  8
0
100
AcDbBlockEnd
  0
BLOCK
  5
1C
330
1B
100
AcDbEntity
  8
0
100
AcDbBlockBegin
  2
*Paper_Space
 70
0
 10
0.0
 20
0.0
 30
0.0
  3
*Paper_Space
  1

  0
ENDBLK
  5
1D
330
1B
100
AcDbEntity
  8
0
100
AcDbBlockEnd
  0
ENDSEC
  0
SECTION
  2
ENTITIES
  0
LWPOLYLINE
  5
2F
330
17
100
AcDbEntity
  8
CUTOUT
100
AcDbPolyline
 90
249
 70
1
 10
-0.6782019291338583
 20
0.17514480314960634
 10
-0.677487283464567
 20
0.17518385826771657
 10
-0.6767716535433073
 20
0.1751968503937008
 10
0.6767716535433073
 20
0.1751968503937008
 10
0.6774157480314962
 20
0.17518629921259846
 10
0.6780591338582679
 20
0.1751546850393701
 10
0.6883367716535435
 20
0.174481062992126
 10
0.6889787795275591
 20
0.1744284251968504
 10
0.6896187007874016
 20
0.17435480314960633
 10
0.690255905511811
 20
0.1742602755905512
 10
0.6908896850393701
 20
0.1741449606299213
 10
0.7009914566929135
 20
0.17213559055118113
 10
0.7016211023622049
 20
0.17199960629921263
 10
0.7022459842519686
 20
0.1718431102362205
 10
0.7028653543307087
 20
0.17166622047244098
 10
0.703478661417323
 20
0.1714691732283465
 10
0.7132317716535435
 20
0.16815842519685043
 10
0.7138382677165356
 20
0.16794141732283466
 10
0.7144373622047245
 20
0.1677046850393701
 10
0.715028346456693
 20
0.16744846456692916
 10
0.7156106692913388
 20
0.16717303149606302
 10
0.724848188976378
 20
0.16261759842519685
 10
0.7254211811023623
 20
0.16232326771653546
 10
0.7259842519685041
 20
0.16201039370078743
 10
0.7265367716535435
 20
0.16167921259842524
 10
0.7270781496062994
 20
0.16133015748031498
 10
0.7356420472440945
 20
0.1556079133858268
 10
0.7361717322834647
 20
0.1552413385826772
 10
0.7366891338582678
 20
0.1548575984251969
 10
0.7371937007874018
 20
0.15445716535433074
 10
0.7376848818897639
 20
0.15404043307086618
 10
0.7454285826771655
 20
0.14724933070866145
 10
0.7459059055118112
 20
0.14681677165354334
 10
0.7463687795275592
 20
0.14636877952755908
 10
0.7468167716535433
 20
0.14590590551181104
 10
0.7472493307086615
 20
0.14542858267716538
 10
0.7540404330708662
 20
0.1376848818897638
 10
0.7544571653543309
 20
0.1371937007874016
 10
0.7548575984251971
 20
0.13668913385826773
 10
0.7552413385826773
 20
0.1361717322834646
 10
0.7556079133858269
 20
0.1356420472440945
 10
0.7613301574803152
 20
0.12707814960629923
 10
0.7616792125984253
 20
0.12653677165354332
 10
0.7620103937007875
 20
0.12598425196850396
 10
0.7623232677165356
 20
0.12542118110236222
 10
0.762617598425197
 20
0.12484818897637798
 10
0.7671730314960631
 20
0.11561066929133859
 10
0.7674484645669293
 20
0.11502834645669294
 10
0.7677046850393702
 20
0.11443736220472443
 10
0.7679414173228347
 20
0.11383826771653545
 10
0.7681584251968505
 20
0.11323177165354333
 10
0.7714691732283466
 20
0.10347866141732286
 10
0.771666220472441
 20
0.10286535433070867
 10
0.7718431102362205
 20
0.10224598425196853
 10
0.7719996062992127
 20
0.10162110236220474
 10
0.7721355905511812
 20
0.10099145669291341
 10
0.7741449606299213
 20
0.09088968503937009
 10
0.7742602755905513
 20
0.09025590551181104
 10
0.7743548031496064
 20
0.08961870078740158
 10
0.7744284251968505
 20
0.08897877952755906
 10
0.774481062992126
 20
0.08833677165354333
 10
0.7751546850393702
 20
0.07805913385826772
 10
0.7751866535433073
 20
0.07740488188976379
 10
0.775196850393701
 20
0.07674996062992127
 10
0.7751852362204725
 20
0.07609507874015749
 10
0.7751518110236222
 20
0.07544094488188977
 10
0.775096692913386
 20
0.07478826771653545
 10
0.7750198425196853
 20
0.07413775590551183
 10
0.7749214173228348
 20
0.07349019685039372
 10
0.7466513385826773
 20
-0.09372618110236222
 10
0.7465340157480316
 20
-0.09435736220472442
 10
0.7463961811023623
 20
-0.09498440944881892
 10
0.7442844881889765
 20
-0.10389425196850396
 10
0.7441443700787403
 20
-0.10444944881889766
 10
0.7439881496062993
 20
-0.10500031496062993
 10
0.74381594488189
 20
-0.10554641732283467
 10
0.7436279527559057
 20
-0.10608728346456694
 10
0.7404961811023624
 20
-0.11469173228346459
 10
0.7402925590551183
 20
-0.11522688976377954
 10
0.7400734251968506
 20
-0.11575586614173229
 10
0.7398390157480316
 20
-0.1162783070866142
 10
0.7395894881889765
 20
-0.11679366141732286
 10
0.7354800000000001
 20
-0.12497637795275592
 10
0.7352155905511811
 20
-0.12548425196850396
 10
0.7349365354330709
 20
-0.12598425196850396
 10
0.7346430708661419
 20
-0.12647590551181104
 10
0.7343353937007875
 20
-0.1269588188976378
 10
0.7293037401574805
 20
-0.13460913385826773
 10
0.7289821653543308
 20
-0.13508287401574806
 10
0.7286469685039371
 20
-0.13554708661417325
 10
0.7282983858267718
 20
-0.13600137795275594
 10
0.7279367322834647
 20
-0.13644531496062995
 10
0.7220509448818899
 20
-0.14345972440944885
 10
0.7216765748031497
 20
-0.14389295275590552
 10
0.7212897244094489
 20
-0.14431511811023626
 10
0.7208907480314962
 20
-0.1447258661417323
 10
0.7204800393700789
 20
-0.14512480314960632
 10
0.713819724409449
 20
-0.1514085039370079
 10
0.7133975590551181
 20
-0.15179531496062995
 10
0.7129643307086615
 20
-0.15216972440944884
 10
0.7125203937007875
 20
-0.15253137795275593
 10
0.7120661023622049
 20
-0.15287992125984254
 10
0.7047213385826773
 20
-0.1583479133858268
 10
0.7042571259842522
 20
-0.15868314960629926
 10
0.703783346456693
 20
-0.15900472440944882
 10
0.7033004330708663
 20
-0.15931236220472444
 10
0.7028087795275592
 20
-0.15960582677165358
 10
0.6948788582677167
 20
-0.16418417322834647
 10
0.6943788582677166
 20
-0.1644632283464567
 10
0.6938709842519686
 20
-0.16472763779527563
 10
0.6933555905511812
 20
-0.16497712598425202
 10
0.692833188976378
 20
-0.1652115354330709
 10
0.6844253937007876
 20
-0.1688383070866142
 10
0.683896377952756
 20
-0.1690574409448819
 10
0.6833612204724411
 20
-0.16926110236220476
 10
0.6828203543307089
 20
-0.169449094488189
 10
0.6822742913385828
 20
-0.1696212598425197
 10
0.673502283464567
 20
-0.17224740157480317
 10
0.6729514173228348
 20
-0.17240366141732286
 10
0.6723962204724411
 20
-0.1725437795275591
 10
0.6718372047244097
 20
-0.1726677165354331
 10
0.6712748425196852
 20
-0.17277535433070867
 10
0.6622572834645671
 20
-0.1743653937007874
 10
0.6616920078740158
 20
-0.17445661417322839
 10
0.6611242913385827
 20
-0.1745313385826772
 10
0.6605546456692915
 20
-0.17458952755905513
 10
0.6599835826771655
 20
-0.1746311417322835
 10
0.6508424015748032
 20
-0.17516354330708664
 10
0.6502703543307088
 20
-0.17518850393700788
 10
0.6496978346456693
 20
-0.1751968503937008
 10
-0.6496978346456693
 20
-0.1751968503937008
 10
-0.6502703543307088
 20
-0.17518850393700788
 10
-0.6508424015748032
 20
-0.17516354330708664
 10
-0.6599835826771655
 20
-0.1746311417322835
 10
-0.6605546456692915
 20
-0.17458952755905513
 10
-0.6611242913385827
 20
-0.1745313385826772
 10
-0.6616920078740158
 20
-0.17445661417322839
 10
-0.6622572834645671
 20
-0.1743653937007874
 10
-0.6712748425196852
 20
-0.17277535433070867
 10
-0.6718372047244097
 20
-0.1726677165354331
 10
-0.6723962204724411
 20
-0.1725437795275591
 10
-0.6729514173228348
 20
-0.17240366141732286
 10
-0.673502283464567
 20
-0.17224740157480317
 10
-0.6822742913385828
 20
-0.1696212598425197
 10
-0.6828203543307089
 20
-0.169449094488189
 10
-0.6833612204724411
 20
-0.16926110236220476
 10
-0.683896377952756
 20
-0.1690574409448819
 10
-0.6844253937007876
 20
-0.1688383070866142
 10
-0.692833188976378
 20
-0.1652115354330709
 10
-0.6933555905511812
 20
-0.16497712598425202
 10
-0.6938709842519686
 20
-0.16472763779527563
 10
-0.6943788582677166
 20
-0.1644632283464567
 10
-0.6948788582677167
 20
-0.16418417322834647
 10
-0.7028087795275592
 20
-0.15960582677165358
 10
-0.7033004330708663
 20
-0.15931236220472444
 10
-0.703783346456693
 20
-0.15900472440944882
 10
-0.7042571259842522
 20
-0.15868314960629926
 10
-0.7047213385826773
 20
-0.1583479133858268
 10
-0.7120661023622049
 20
-0.15287992125984254
 10
-0.7125203937007875
 20
-0.15253137795275593
 10
-0.7129643307086615
 20
-0.15216972440944884
 10
-0.7133975590551181
 20
-0.15179531496062995
 10
-0.713819724409449
 20
-0.1514085039370079
 10
-0.7204800393700789
 20
-0.14512480314960632
 10
-0.7208907480314962
 20
-0.1447258661417323
 10
-0.7212897244094489
 20
-0.14431511811023626
 10
-0.7216765748031497
 20
-0.14389295275590552
 10
-0.7220509448818899
 20
-0.14345972440944885
 10
-0.7279367322834647
 20
-0.13644531496062995
 10
-0.7282983858267718
 20
-0.13600137795275594
 10
-0.7286469685039371
 20
-0.13554708661417325
 10
-0.7289821653543308
 20
-0.13508287401574806
 10
-0.7293037401574805
 20
-0.13460913385826773
 10
-0.7343353937007875
 20
-0.1269588188976378
 10
-0.7346430708661419
 20
-0.12647590551181104
 10
-0.7349365354330709
 20
-0.12598425196850396
 10
-0.7352155905511811
 20
-0.12548425196850396
 10
-0.7354800000000001
 20
-0.12497637795275592
 10
-0.7395894881889765
 20
-0.11679366141732286
 10
-0.7398390157480316
 20
-0.1162783070866142
 10
-0.7400734251968506
 20
-0.11575586614173229
 10
-0.7402925590551183
 20
-0.11522688976377954
 10
-0.7404961811023624
 20
-0.11469173228346459
 10
-0.7436279527559057
 20
-0.10608728346456694
 10
-0.74381594488189
 20
-0.10554641732283467
 10
-0.7439881496062993
 20
-0.10500031496062993
 10
-0.7441443700787403
 20
-0.10444944881889766
 10
-0.7442844881889765
 20
-0.10389425196850396
 10
-0.7463961811023623
 20
-0.09498440944881892
 10
-0.7465201181102364
 20
-0.09442539370078741
 10
-0.7466277165354333
 20
-0.09386299212598426
 10
-0.773701535433071
 20
0.05968031496062993
 10
-0.7738129921259843
 20
0.06038728346456693
 10
-0.7738986614173229
 20
0.061097874015748045
 10
-0.7750616141732285
 20
0.07248082677165356
 10
-0.775121377952756
 20
0.07319405511811025
 10
-0.7751551968503939
 20
0.07390897637795277
 10
-0.7751630314960631
 20
0.07462468503937009
 10
-0.7751448031496064
 20
0.07534015748031497
 10
-0.7746457086614175
 20
0.08677149606299214
 10
-0.7746014960629922
 20
0.08748582677165356
 10
-0.7745313385826773
 20
0.08819811023622048
 10
-0.77443531496063
 20
0.08890740157480316
 10
-0.7743136220472443
 20
0.08961267716535434
 10
-0.7721630314960631
 20
0.10085094488188978
 10
-0.7720157480314962
 20
0.10155137795275591
 10
-0.7718431102362205
 20
0.10224598425196853
 10
-0.77164531496063
 20
0.10293381889763781
 10
-0.7714226377952758
 20
0.10361405511811025
 10
-0.7676659842519687
 20
0.11442196850393703
 10
-0.7674187401574805
 20
0.11509366141732286
 10
-0.7671472440944883
 20
0.11575586614173229
 10
-0.766851850393701
 20
0.11640779527559057
 10
-0.7665329921259844
 20
0.11704858267716538
 10
-0.761249566929134
 20
0.1271979133858268
 10
-0.760907598425197
 20
0.12782669291338586
 10
-0.7605429921259844
 20
0.12844255905511812
 10
-0.760156220472441
 20
0.1290448031496063
 10
-0.7597478346456694
 20
0.12963259842519687
 10
-0.753049251968504
 20
0.13890905511811028
 10
-0.7526197637795277
 20
0.13948161417322835
 10
-0.752169724409449
 20
0.14003814960629923
 10
-0.7516997637795277
 20
0.14057799212598426
 10
-0.7512105118110237
 20
0.1411003543307087
 10
-0.7432381889763782
 20
0.149308031496063
 10
-0.7427302362204726
 20
0.14981228346456696
 10
-0.7422043307086615
 20
0.15029775590551184
 10
-0.7416611023622048
 20
0.15076374015748034
 10
-0.7411012598425198
 20
0.15120972440944883
 10
-0.7320235826771655
 20
0.1581752755905512
 10
-0.7314479133858268
 20
0.15860059055118114
 10
-0.7308571653543309
 20
0.15900472440944882
 10
-0.7302521653543308
 20
0.15938708661417325
 10
-0.7296336220472441
 20
0.15974720472440945
 10
-0.7196422047244095
 20
0.16532354330708665
 10
-0.7190109842519686
 20
0.1656609448818898
 10
-0.7183679527559056
 20
0.165975157480315
 10
-0.7177138582677167
 20
0.16626582677165355
 10
-0.7170496850393703
 20
0.16653248031496065
 10
-0.7063555905511811
 20
0.17060188976377955
 10
-0.7056821259842521
 20
0.17084425196850397
 10
-0.7050003149606301
 20
0.171061968503937
 10
-0.7043110236220474
 20
0.17125472440944886
 10
-0.7036151968503938
 20
0.1714223228346457
 10
-0.692444251968504
 20
0.17389885826771656
 10
-0.6917427559055119
 20
0.17404106299212602
 10
-0.6910366141732285
 20
0.17415763779527563
 10
-0.6903266535433071
 20
0.17424846456692916
 10
-0.6896138976377955
 20
0.17431346456692917
  0
CIRCLE
  5
30
330
17
100
AcDbEntity
  8
CUTOUT
100
AcDbCircle
 10
-0.9259842519685041
 20
0.0
 30
0.0
 40
0.06889763779527561
  0
CIRCLE
  5
31
330
17
100
AcDbEntity
  8
CUTOUT
100
AcDbCircle
 10
0.9259842519685041
 20
0.0
 30
0.0
 40
0.06889763779527561
  0
ENDSEC
  0
SECTION
  2
OBJECTS
  0
DICTIONARY
  5
A
330
0
100
AcDbDictionary
281
1
  3
ACAD_COLOR
350
B
  3
ACAD_GROUP
350
C
  3
ACAD_LAYOUT
350
D
  3
ACAD_MATERIAL
350
E
  3
ACAD_MLEADERSTYLE
350
F
  3
ACAD_MLINESTYLE
350
10
  3
ACAD_PLOTSETTINGS
350
11
  3
ACAD_PLOTSTYLENAME
350
12
  3
ACAD_SCALELIST
350
14
  3
ACAD_TABLESTYLE
350
15
  3
ACAD_VISUALSTYLE
350
16
  3
EZDXF_META
350
2D
  0
DICTIONARY
  5
B
330
A
100
AcDbDictionary
281
1
  0
DICTIONARY
  5
C
330
A
100
AcDbDictionary
281
1
  0
DICTIONARY
  5
D
330
A
100
AcDbDictionary
281
1
  3
Model
350
1A
  3
Layout1
350
1E
  0
DICTIONARY
  5
E
330
A
100
AcDbDictionary
281
1
  3
ByBlock
350
1F
  3
ByLayer
350
20
  3
Global
350
21
  0
DICTIONARY
  5
F
330
A
100
AcDbDictionary
281
1
  3
Standard
350
2C
  0
DICTIONARY
  5
10
330
A
100
AcDbDictionary
281
1
  3
Standard
350
22
  0
DICTIONARY
  5
11
330
A
100
AcDbDictionary
281
1
  0
ACDBDICTIONARYWDFLT
  5
12
330
A
100
AcDbDictionary
281
1
  3
Normal
350
13
100
AcDbDictionaryWithDefault
340
13
  0
ACDBPLACEHOLDER
  5
13
330
12
  0
DICTIONARY
  5
14
330
A
100
AcDbDictionary
281
1
  0
DICTIONARY
  5
15
330
A
100
AcDbDictionary
281
1
  0
DICTIONARY
  5
16
330
A
100
AcDbDictionary
281
1
  0
LAYOUT
  5
1A
330
D
100
AcDbPlotSettings
  1

  4
A3
  6

 40
7.5
 41
20.0
 42
7.5
 43
20.0
 44
420.0
 45
297.0
 46
0.0
 47
0.0
 48
0.0
 49
0.0
140
0.0
141
0.0
142
1.0
143
1.0
 70
1024
 72
1
 73
0
 74
5
  7

 75
16
 76
0
 77
2
 78
300
147
1.0
148
0.0
149
0.0
100
AcDbLayout
  1
Model
 70
1
 71
0
 10
0.0
 20
0.0
 11
420.0
 21
297.0
 12
0.0
 22
0.0
 32
0.0
 14
1e+20
 24
1e+20
 34
1e+20
 15
-1e+20
 25
-1e+20
 35
-1e+20
146
0.0
 13
0.0
 23
0.0
 33
0.0
 16
1.0
 26
0.0
 36
0.0
 17
0.0
 27
1.0
 37
0.0
 76
1
330
17
  0
LAYOUT
  5
1E
330
D
100
AcDbPlotSettings
  1

  4
A3
  6

 40
7.5
 41
20.0
 42
7.5
 43
20.0
 44
420.0
 45
297.0
 46
0.0
 47
0.0
 48
0.0
 49
0.0
140
0.0
141
0.0
142
1.0
143
1.0
 70
0
 72
1
 73
0
 74
5
  7

 75
16
 76
0
 77
2
 78
300
147
1.0
148
0.0
149
0.0
100
AcDbLayout
  1
Layout1
 70
1
 71
1
 10
0.0
 20
0.0
 11
420.0
 21
297.0
 12
0.0
 22
0.0
 32
0.0
 14
1e+20
 24
1e+20
 34
1e+20
 15
-1e+20
 25
-1e+20
 35
-1e+20
146
0.0
 13
0.0
 23
0.0
 33
0.0
 16
1.0
 26
0.0
 36
0.0
 17
0.0
 27
1.0
 37
0.0
 76
1
330
1B
  0
MATERIAL
  5
1F
102
{ACAD_REACTORS
330
E
102
}
330
E
100
AcDbMaterial
  1
ByBlock
  2

 70
0
 40
1.0
 71
1
 41
1.0
 91
-1023410177
 42
1.0
 72
1
  3

 73
1
 74
1
 75
1
 44
0.5
 73
0
 45
1.0
 46
1.0
 77
1
  4

 78
1
 79
1
170
1
 48
1.0
171
1
  6

172
1
173
1
174
1
140
1.0
141
1.0
175
1
  7

176
1
177
1
178
1
143
1.0
179
1
  8

270
1
271
1
272
1
145
1.0
146
1.0
273
1
  9

274
1
275
1
276
1
 42
1.0
 72
1
  3

 73
1
 74
1
 75
1
 94
63
  0
MATERIAL
  5
20
102
{ACAD_REACTORS
330
E
102
}
330
E
100
AcDbMaterial
  1
ByLayer
  2

 70
0
 40
1.0
 71
1
 41
1.0
 91
-1023410177
 42
1.0
 72
1
  3

 73
1
 74
1
 75
1
 44
0.5
 73
0
 45
1.0
 46
1.0
 77
1
  4

 78
1
 79
1
170
1
 48
1.0
171
1
  6

172
1
173
1
174
1
140
1.0
141
1.0
175
1
  7

176
1
177
1
178
1
143
1.0
179
1
  8

270
1
271
1
272
1
145
1.0
146
1.0
273
1
  9

274
1
275
1
276
1
 42
1.0
 72
1
  3

 73
1
 74
1
 75
1
 94
63
  0
MATERIAL
  5
21
102
{ACAD_REACTORS
330
E
102
}
330
E
100
AcDbMaterial
  1
Global
  2

 70
0
 40
1.0
 71
1
 41
1.0
 91
-1023410177
 42
1.0
 72
1
  3

 73
1
 74
1
 75
1
 44
0.5
 73
0
 45
1.0
 46
1.0
 77
1
  4

 78
1
 79
1
170
1
 48
1.0
171
1
  6

172
1
173
1
174
1
140
1.0
141
1.0
175
1
  7

176
1
177
1
178
1
143
1.0
179
1
  8

270
1
271
1
272
1
145
1.0
146
1.0
273
1
  9

274
1
275
1
276
1
 42
1.0
 72
1
  3

 73
1
 74
1
 75
1
 94
63
  0
MLINESTYLE
  5
22
102
{ACAD_REACTORS
330
10
102
}
330
10
100
AcDbMlineStyle
  2
Standard
 70
0
  3

 62
256
 51
90.0
 52
90.0
 71
2
 49
0.5
 62
256
  6
BYLAYER
 49
-0.5
 62
256
  6
BYLAYER
  0
MLEADERSTYLE
  5
2C
102
{ACAD_REACTORS
330
F
102
}
330
F
100
AcDbMLeaderStyle
179
2
170
2
171
1
172
0
 90
2
 40
0.0
 41
0.0
173
1
 91
-1056964608
 92
-2
290
1
 42
2.0
291
1
 43
8.0
  3
Standard
 44
4.0
300

342
29
174
1
175
1
176
0
178
1
 93
-1056964608
 45
4.0
292
0
297
0
 46
4.0
 94
-1056964608
 47
1.0
 49
1.0
140
1.0
294
1
141
0.0
177
0
142
1.0
295
0
296
0
143
3.75
271
0
272
9
273
9
  0
DICTIONARY
  5
2D
330
A
100
AcDbDictionary
280
1
281
1
  3
CREATED_BY_EZDXF
350
2E
  3
WRITTEN_BY_EZDXF
350
34
  0
DICTIONARYVAR
  5
2E
330
2D
100
DictionaryVariables
280
0
  1
1.4.3 @ 2026-03-17T11:26:41.650786+00:00
  0
DICTIONARYVAR
  5
34
330
2D
100
DictionaryVariables
280
0
  1
1.4.3 @ 2026-03-17T11:26:41.656530+00:00
  0
ENDSEC
  0
EOF
