<?xml version="1.0" encoding="utf-8" standalone="no"?>
<!DOCTYPE svg PUBLIC "-//W3C//DTD SVG 1.1//EN"
  "http://www.w3.org/Graphics/SVG/1.1/DTD/svg11.dtd">
<svg xmlns:xlink="http://www.w3.org/1999/xlink" width="576pt" height="288pt" viewBox="0 0 576 288" xmlns="http://www.w3.org/2000/svg" version="1.1">
 <metadata>
  <rdf:RDF xmlns:dc="http://purl.org/dc/elements/1.1/" xmlns:cc="http://creativecommons.org/ns#" xmlns:rdf="http://www.w3.org/1999/02/22-rdf-syntax-ns#">
   <cc:Work>
    <dc:type rdf:resource="http://purl.org/dc/dcmitype/StillImage"/>
    <dc:date>2026-02-13T03:32:15.230712</dc:date>
    <dc:format>image/svg+xml</dc:format>
    <dc:creator>
     <cc:Agent>
      <dc:title>Matplotlib v3.9.0, https://matplotlib.org/</dc:title>
     </cc:Agent>
    </dc:creator>
   </cc:Work>
  </rdf:RDF>
 </metadata>
 <defs>
  <style type="text/css">*{stroke-linejoin: round; stroke-linecap: butt}</style>
 </defs>
 <g id="figure_1">
  <g id="patch_1">
   <path d="M 0 288 
L 576 288 
L 576 0 
L 0 0 
z
" style="fill: #ffffff"/>
  </g>
  <g id="axes_1">
   <g id="patch_2">
    <path d="M 70.4652 234.5448 
L 371.1968 234.5448 
L 371.1968 31.3152 
L 70.4652 31.3152 
z
" style="fill: #ffffff"/>
   </g>
   <g id="matplotlib.axis_1">
    <g id="xtick_1">
     <g id="text_1">
      <!-- −250 -->
      <g style="fill: #262626" transform="translate(68.902638 252.206075) scale(0.1232 -0.1232)">
       <defs>
        <path id="DejaVuSans-2212" d="M 678 2272 
L 4684 2272 
L 4684 1741 
L 678 1741 
L 678 2272 
z
" transform="scale(0.015625)"/>
        <path id="DejaVuSans-32" d="M 1228 531 
L 3431 531 
L 3431 0 
L 469 0 
L 469 531 
Q 828 903 1448 1529 
Q 2069 2156 2228 2338 
Q 2531 2678 2651 2914 
Q 2772 3150 2772 3378 
Q 2772 3750 2511 3984 
Q 2250 4219 1831 4219 
Q 1534 4219 1204 4116 
Q 875 4013 500 3803 
L 500 4441 
Q 881 4594 1212 4672 
Q 1544 4750 1819 4750 
Q 2544 4750 2975 4387 
Q 3406 4025 3406 3419 
Q 3406 3131 3298 2873 
Q 3191 2616 2906 2266 
Q 2828 2175 2409 1742 
Q 1991 1309 1228 531 
z
" transform="scale(0.015625)"/>
        <path id="DejaVuSans-35" d="M 691 4666 
L 3169 4666 
L 3169 4134 
L 1269 4134 
L 1269 2991 
Q 1406 3038 1543 3061 
Q 1681 3084 1819 3084 
Q 2600 3084 3056 2656 
Q 3513 2228 3513 1497 
Q 3513 744 3044 326 
Q 2575 -91 1722 -91 
Q 1428 -91 1123 -41 
Q 819 9 494 109 
L 494 744 
Q 775 591 1075 516 
Q 1375 441 1709 441 
Q 2250 441 2565 725 
Q 2881 1009 2881 1497 
Q 2881 1984 2565 2268 
Q 2250 2553 1709 2553 
Q 1456 2553 1204 2497 
Q 953 2441 691 2322 
L 691 4666 
z
" transform="scale(0.015625)"/>
        <path id="DejaVuSans-30" d="M 2034 4250 
Q 1547 4250 1301 3770 
Q 1056 3291 1056 2328 
Q 1056 1369 1301 889 
Q 1547 409 2034 409 
Q 2525 409 2770 889 
Q 3016 1369 3016 2328 
Q 3016 3291 2770 3770 
Q 2525 4250 2034 4250 
z
M 2034 4750 
Q 2819 4750 3233 4129 
Q 3647 3509 3647 2328 
Q 3647 1150 3233 529 
Q 2819 -91 2034 -91 
Q 1250 -91 836 529 
Q 422 1150 422 2328 
Q 422 3509 836 4129 
Q 1250 4750 2034 4750 
z
" transform="scale(0.015625)"/>
       </defs>
       <use xlink:href="#DejaVuSans-2212"/>
       <use xlink:href="#DejaVuSans-32" x="83.789062"/>
       <use xlink:href="#DejaVuSans-35" x="147.412109"/>
       <use xlink:href="#DejaVuSans-30" x="211.035156"/>
      </g>
     </g>
    </g>
    <g id="xtick_2">
     <g id="text_2">
      <!-- 0 -->
      <g style="fill: #262626" transform="translate(124.093305 252.206075) scale(0.1232 -0.1232)">
       <use xlink:href="#DejaVuSans-30"/>
      </g>
     </g>
    </g>
    <g id="xtick_3">
     <g id="text_3">
      <!-- 250 -->
      <g style="fill: #262626" transform="translate(158.444885 252.206075) scale(0.1232 -0.1232)">
       <use xlink:href="#DejaVuSans-32"/>
       <use xlink:href="#DejaVuSans-35" x="63.623047"/>
       <use xlink:href="#DejaVuSans-30" x="127.246094"/>
      </g>
     </g>
    </g>
    <g id="xtick_4">
     <g id="text_4">
      <!-- 500 -->
      <g style="fill: #262626" transform="translate(200.635064 252.206075) scale(0.1232 -0.1232)">
       <use xlink:href="#DejaVuSans-35"/>
       <use xlink:href="#DejaVuSans-30" x="63.623047"/>
       <use xlink:href="#DejaVuSans-30" x="127.246094"/>
      </g>
     </g>
    </g>
    <g id="xtick_5">
     <g id="text_5">
      <!-- 750 -->
      <g style="fill: #262626" transform="translate(242.825244 252.206075) scale(0.1232 -0.1232)">
       <defs>
        <path id="DejaVuSans-37" d="M 525 4666 
L 3525 4666 
L 3525 4397 
L 1831 0 
L 1172 0 
L 2766 4134 
L 525 4134 
L 525 4666 
z
" transform="scale(0.015625)"/>
       </defs>
       <use xlink:href="#DejaVuSans-37"/>
       <use xlink:href="#DejaVuSans-35" x="63.623047"/>
       <use xlink:href="#DejaVuSans-30" x="127.246094"/>
      </g>
     </g>
    </g>
    <g id="xtick_6">
     <g id="text_6">
      <!-- 1000 -->
      <g style="fill: #262626" transform="translate(281.096123 252.206075) scale(0.1232 -0.1232)">
       <defs>
        <path id="DejaVuSans-31" d="M 794 531 
L 1825 531 
L 1825 4091 
L 703 3866 
L 703 4441 
L 1819 4666 
L 2450 4666 
L 2450 531 
L 3481 531 
L 3481 0 
L 794 0 
L 794 531 
z
" transform="scale(0.015625)"/>
       </defs>
       <use xlink:href="#DejaVuSans-31"/>
       <use xlink:href="#DejaVuSans-30" x="63.623047"/>
       <use xlink:href="#DejaVuSans-30" x="127.246094"/>
       <use xlink:href="#DejaVuSans-30" x="190.869141"/>
      </g>
     </g>
    </g>
    <g id="xtick_7">
     <g id="text_7">
      <!-- 1250 -->
      <g style="fill: #262626" transform="translate(323.286303 252.206075) scale(0.1232 -0.1232)">
       <use xlink:href="#DejaVuSans-31"/>
       <use xlink:href="#DejaVuSans-32" x="63.623047"/>
       <use xlink:href="#DejaVuSans-35" x="127.246094"/>
       <use xlink:href="#DejaVuSans-30" x="190.869141"/>
      </g>
     </g>
    </g>
    <g id="text_8">
     <!-- Hot Junction Temperature (C) -->
     <g style="fill: #262626" transform="translate(123.0571 268.98055) scale(0.1344 -0.1344)">
      <defs>
       <path id="DejaVuSans-48" d="M 628 4666 
L 1259 4666 
L 1259 2753 
L 3553 2753 
L 3553 4666 
L 4184 4666 
L 4184 0 
L 3553 0 
L 3553 2222 
L 1259 2222 
L 1259 0 
L 628 0 
L 628 4666 
z
" transform="scale(0.015625)"/>
       <path id="DejaVuSans-6f" d="M 1959 3097 
Q 1497 3097 1228 2736 
Q 959 2375 959 1747 
Q 959 1119 1226 758 
Q 1494 397 1959 397 
Q 2419 397 2687 759 
Q 2956 1122 2956 1747 
Q 2956 2369 2687 2733 
Q 2419 3097 1959 3097 
z
M 1959 3584 
Q 2709 3584 3137 3096 
Q 3566 2609 3566 1747 
Q 3566 888 3137 398 
Q 2709 -91 1959 -91 
Q 1206 -91 779 398 
Q 353 888 353 1747 
Q 353 2609 779 3096 
Q 1206 3584 1959 3584 
z
" transform="scale(0.015625)"/>
       <path id="DejaVuSans-74" d="M 1172 4494 
L 1172 3500 
L 2356 3500 
L 2356 3053 
L 1172 3053 
L 1172 1153 
Q 1172 725 1289 603 
Q 1406 481 1766 481 
L 2356 481 
L 2356 0 
L 1766 0 
Q 1100 0 847 248 
Q 594 497 594 1153 
L 594 3053 
L 172 3053 
L 172 3500 
L 594 3500 
L 594 4494 
L 1172 4494 
z
" transform="scale(0.015625)"/>
       <path id="DejaVuSans-20" transform="scale(0.015625)"/>
       <path id="DejaVuSans-4a" d="M 628 4666 
L 1259 4666 
L 1259 325 
Q 1259 -519 939 -900 
Q 619 -1281 -91 -1281 
L -331 -1281 
L -331 -750 
L -134 -750 
Q 284 -750 456 -515 
Q 628 -281 628 325 
L 628 4666 
z
" transform="scale(0.015625)"/>
       <path id="DejaVuSans-75" d="M 544 1381 
L 544 3500 
L 1119 3500 
L 1119 1403 
Q 1119 906 1312 657 
Q 1506 409 1894 409 
Q 2359 409 2629 706 
Q 2900 1003 2900 1516 
L 2900 3500 
L 3475 3500 
L 3475 0 
L 2900 0 
L 2900 538 
Q 2691 219 2414 64 
Q 2138 -91 1772 -91 
Q 1169 -91 856 284 
Q 544 659 544 1381 
z
M 1991 3584 
L 1991 3584 
z
" transform="scale(0.015625)"/>
       <path id="DejaVuSans-6e" d="M 3513 2113 
L 3513 0 
L 2938 0 
L 2938 2094 
Q 2938 2591 2744 2837 
Q 2550 3084 2163 3084 
Q 1697 3084 1428 2787 
Q 1159 2491 1159 1978 
L 1159 0 
L 581 0 
L 581 3500 
L 1159 3500 
L 1159 2956 
Q 1366 3272 1645 3428 
Q 1925 3584 2291 3584 
Q 2894 3584 3203 3211 
Q 3513 2838 3513 2113 
z
" transform="scale(0.015625)"/>
       <path id="DejaVuSans-63" d="M 3122 3366 
L 3122 2828 
Q 2878 2963 2633 3030 
Q 2388 3097 2138 3097 
Q 1578 3097 1268 2742 
Q 959 2388 959 1747 
Q 959 1106 1268 751 
Q 1578 397 2138 397 
Q 2388 397 2633 464 
Q 2878 531 3122 666 
L 3122 134 
Q 2881 22 2623 -34 
Q 2366 -91 2075 -91 
Q 1284 -91 818 406 
Q 353 903 353 1747 
Q 353 2603 823 3093 
Q 1294 3584 2113 3584 
Q 2378 3584 2631 3529 
Q 2884 3475 3122 3366 
z
" transform="scale(0.015625)"/>
       <path id="DejaVuSans-69" d="M 603 3500 
L 1178 3500 
L 1178 0 
L 603 0 
L 603 3500 
z
M 603 4863 
L 1178 4863 
L 1178 4134 
L 603 4134 
L 603 4863 
z
" transform="scale(0.015625)"/>
       <path id="DejaVuSans-54" d="M -19 4666 
L 3928 4666 
L 3928 4134 
L 2272 4134 
L 2272 0 
L 1638 0 
L 1638 4134 
L -19 4134 
L -19 4666 
z
" transform="scale(0.015625)"/>
       <path id="DejaVuSans-65" d="M 3597 1894 
L 3597 1613 
L 953 1613 
Q 991 1019 1311 708 
Q 1631 397 2203 397 
Q 2534 397 2845 478 
Q 3156 559 3463 722 
L 3463 178 
Q 3153 47 2828 -22 
Q 2503 -91 2169 -91 
Q 1331 -91 842 396 
Q 353 884 353 1716 
Q 353 2575 817 3079 
Q 1281 3584 2069 3584 
Q 2775 3584 3186 3129 
Q 3597 2675 3597 1894 
z
M 3022 2063 
Q 3016 2534 2758 2815 
Q 2500 3097 2075 3097 
Q 1594 3097 1305 2825 
Q 1016 2553 972 2059 
L 3022 2063 
z
" transform="scale(0.015625)"/>
       <path id="DejaVuSans-6d" d="M 3328 2828 
Q 3544 3216 3844 3400 
Q 4144 3584 4550 3584 
Q 5097 3584 5394 3201 
Q 5691 2819 5691 2113 
L 5691 0 
L 5113 0 
L 5113 2094 
Q 5113 2597 4934 2840 
Q 4756 3084 4391 3084 
Q 3944 3084 3684 2787 
Q 3425 2491 3425 1978 
L 3425 0 
L 2847 0 
L 2847 2094 
Q 2847 2600 2669 2842 
Q 2491 3084 2119 3084 
Q 1678 3084 1418 2786 
Q 1159 2488 1159 1978 
L 1159 0 
L 581 0 
L 581 3500 
L 1159 3500 
L 1159 2956 
Q 1356 3278 1631 3431 
Q 1906 3584 2284 3584 
Q 2666 3584 2933 3390 
Q 3200 3197 3328 2828 
z
" transform="scale(0.015625)"/>
       <path id="DejaVuSans-70" d="M 1159 525 
L 1159 -1331 
L 581 -1331 
L 581 3500 
L 1159 3500 
L 1159 2969 
Q 1341 3281 1617 3432 
Q 1894 3584 2278 3584 
Q 2916 3584 3314 3078 
Q 3713 2572 3713 1747 
Q 3713 922 3314 415 
Q 2916 -91 2278 -91 
Q 1894 -91 1617 61 
Q 1341 213 1159 525 
z
M 3116 1747 
Q 3116 2381 2855 2742 
Q 2594 3103 2138 3103 
Q 1681 3103 1420 2742 
Q 1159 2381 1159 1747 
Q 1159 1113 1420 752 
Q 1681 391 2138 391 
Q 2594 391 2855 752 
Q 3116 1113 3116 1747 
z
" transform="scale(0.015625)"/>
       <path id="DejaVuSans-72" d="M 2631 2963 
Q 2534 3019 2420 3045 
Q 2306 3072 2169 3072 
Q 1681 3072 1420 2755 
Q 1159 2438 1159 1844 
L 1159 0 
L 581 0 
L 581 3500 
L 1159 3500 
L 1159 2956 
Q 1341 3275 1631 3429 
Q 1922 3584 2338 3584 
Q 2397 3584 2469 3576 
Q 2541 3569 2628 3553 
L 2631 2963 
z
" transform="scale(0.015625)"/>
       <path id="DejaVuSans-61" d="M 2194 1759 
Q 1497 1759 1228 1600 
Q 959 1441 959 1056 
Q 959 750 1161 570 
Q 1363 391 1709 391 
Q 2188 391 2477 730 
Q 2766 1069 2766 1631 
L 2766 1759 
L 2194 1759 
z
M 3341 1997 
L 3341 0 
L 2766 0 
L 2766 531 
Q 2569 213 2275 61 
Q 1981 -91 1556 -91 
Q 1019 -91 701 211 
Q 384 513 384 1019 
Q 384 1609 779 1909 
Q 1175 2209 1959 2209 
L 2766 2209 
L 2766 2266 
Q 2766 2663 2505 2880 
Q 2244 3097 1772 3097 
Q 1472 3097 1187 3025 
Q 903 2953 641 2809 
L 641 3341 
Q 956 3463 1253 3523 
Q 1550 3584 1831 3584 
Q 2591 3584 2966 3190 
Q 3341 2797 3341 1997 
z
" transform="scale(0.015625)"/>
       <path id="DejaVuSans-28" d="M 1984 4856 
Q 1566 4138 1362 3434 
Q 1159 2731 1159 2009 
Q 1159 1288 1364 580 
Q 1569 -128 1984 -844 
L 1484 -844 
Q 1016 -109 783 600 
Q 550 1309 550 2009 
Q 550 2706 781 3412 
Q 1013 4119 1484 4856 
L 1984 4856 
z
" transform="scale(0.015625)"/>
       <path id="DejaVuSans-43" d="M 4122 4306 
L 4122 3641 
Q 3803 3938 3442 4084 
Q 3081 4231 2675 4231 
Q 1875 4231 1450 3742 
Q 1025 3253 1025 2328 
Q 1025 1406 1450 917 
Q 1875 428 2675 428 
Q 3081 428 3442 575 
Q 3803 722 4122 1019 
L 4122 359 
Q 3791 134 3420 21 
Q 3050 -91 2638 -91 
Q 1578 -91 968 557 
Q 359 1206 359 2328 
Q 359 3453 968 4101 
Q 1578 4750 2638 4750 
Q 3056 4750 3426 4639 
Q 3797 4528 4122 4306 
z
" transform="scale(0.015625)"/>
       <path id="DejaVuSans-29" d="M 513 4856 
L 1013 4856 
Q 1481 4119 1714 3412 
Q 1947 2706 1947 2009 
Q 1947 1309 1714 600 
Q 1481 -109 1013 -844 
L 513 -844 
Q 928 -128 1133 580 
Q 1338 1288 1338 2009 
Q 1338 2731 1133 3434 
Q 928 4138 513 4856 
z
" transform="scale(0.015625)"/>
      </defs>
      <use xlink:href="#DejaVuSans-48"/>
      <use xlink:href="#DejaVuSans-6f" x="75.195312"/>
      <use xlink:href="#DejaVuSans-74" x="136.376953"/>
      <use xlink:href="#DejaVuSans-20" x="175.585938"/>
      <use xlink:href="#DejaVuSans-4a" x="207.373047"/>
      <use xlink:href="#DejaVuSans-75" x="236.865234"/>
      <use xlink:href="#DejaVuSans-6e" x="300.244141"/>
      <use xlink:href="#DejaVuSans-63" x="363.623047"/>
      <use xlink:href="#DejaVuSans-74" x="418.603516"/>
      <use xlink:href="#DejaVuSans-69" x="457.8125"/>
      <use xlink:href="#DejaVuSans-6f" x="485.595703"/>
      <use xlink:href="#DejaVuSans-6e" x="546.777344"/>
      <use xlink:href="#DejaVuSans-20" x="610.15625"/>
      <use xlink:href="#DejaVuSans-54" x="641.943359"/>
      <use xlink:href="#DejaVuSans-65" x="686.027344"/>
      <use xlink:href="#DejaVuSans-6d" x="747.550781"/>
      <use xlink:href="#DejaVuSans-70" x="844.962891"/>
      <use xlink:href="#DejaVuSans-65" x="908.439453"/>
      <use xlink:href="#DejaVuSans-72" x="969.962891"/>
      <use xlink:href="#DejaVuSans-61" x="1011.076172"/>
      <use xlink:href="#DejaVuSans-74" x="1072.355469"/>
      <use xlink:href="#DejaVuSans-75" x="1111.564453"/>
      <use xlink:href="#DejaVuSans-72" x="1174.943359"/>
      <use xlink:href="#DejaVuSans-65" x="1213.806641"/>
      <use xlink:href="#DejaVuSans-20" x="1275.330078"/>
      <use xlink:href="#DejaVuSans-28" x="1307.117188"/>
      <use xlink:href="#DejaVuSans-43" x="1346.130859"/>
      <use xlink:href="#DejaVuSans-29" x="1415.955078"/>
     </g>
    </g>
   </g>
   <g id="matplotlib.axis_2">
    <g id="ytick_1">
     <g id="text_9">
      <!-- −0.4 -->
      <g style="fill: #262626" transform="translate(32.248775 224.146554) scale(0.1232 -0.1232)">
       <defs>
        <path id="DejaVuSans-2e" d="M 684 794 
L 1344 794 
L 1344 0 
L 684 0 
L 684 794 
z
" transform="scale(0.015625)"/>
        <path id="DejaVuSans-34" d="M 2419 4116 
L 825 1625 
L 2419 1625 
L 2419 4116 
z
M 2253 4666 
L 3047 4666 
L 3047 1625 
L 3713 1625 
L 3713 1100 
L 3047 1100 
L 3047 0 
L 2419 0 
L 2419 1100 
L 313 1100 
L 313 1709 
L 2253 4666 
z
" transform="scale(0.015625)"/>
       </defs>
       <use xlink:href="#DejaVuSans-2212"/>
       <use xlink:href="#DejaVuSans-30" x="83.789062"/>
       <use xlink:href="#DejaVuSans-2e" x="147.412109"/>
       <use xlink:href="#DejaVuSans-34" x="179.199219"/>
      </g>
     </g>
    </g>
    <g id="ytick_2">
     <g id="text_10">
      <!-- −0.2 -->
      <g style="fill: #262626" transform="translate(32.248775 180.878596) scale(0.1232 -0.1232)">
       <use xlink:href="#DejaVuSans-2212"/>
       <use xlink:href="#DejaVuSans-30" x="83.789062"/>
       <use xlink:href="#DejaVuSans-2e" x="147.412109"/>
       <use xlink:href="#DejaVuSans-32" x="179.199219"/>
      </g>
     </g>
    </g>
    <g id="ytick_3">
     <g id="text_11">
      <!-- 0.0 -->
      <g style="fill: #262626" transform="translate(42.57255 137.610637) scale(0.1232 -0.1232)">
       <use xlink:href="#DejaVuSans-30"/>
       <use xlink:href="#DejaVuSans-2e" x="63.623047"/>
       <use xlink:href="#DejaVuSans-30" x="95.410156"/>
      </g>
     </g>
    </g>
    <g id="ytick_4">
     <g id="text_12">
      <!-- 0.2 -->
      <g style="fill: #262626" transform="translate(42.57255 94.342679) scale(0.1232 -0.1232)">
       <use xlink:href="#DejaVuSans-30"/>
       <use xlink:href="#DejaVuSans-2e" x="63.623047"/>
       <use xlink:href="#DejaVuSans-32" x="95.410156"/>
      </g>
     </g>
    </g>
    <g id="ytick_5">
     <g id="text_13">
      <!-- 0.4 -->
      <g style="fill: #262626" transform="translate(42.57255 51.074721) scale(0.1232 -0.1232)">
       <use xlink:href="#DejaVuSans-30"/>
       <use xlink:href="#DejaVuSans-2e" x="63.623047"/>
       <use xlink:href="#DejaVuSans-34" x="95.410156"/>
      </g>
     </g>
    </g>
    <g id="text_14">
     <!-- Error [mV] -->
     <g style="fill: #262626" transform="translate(25.453675 167.82885) rotate(-90) scale(0.1344 -0.1344)">
      <defs>
       <path id="DejaVuSans-45" d="M 628 4666 
L 3578 4666 
L 3578 4134 
L 1259 4134 
L 1259 2753 
L 3481 2753 
L 3481 2222 
L 1259 2222 
L 1259 531 
L 3634 531 
L 3634 0 
L 628 0 
L 628 4666 
z
" transform="scale(0.015625)"/>
       <path id="DejaVuSans-5b" d="M 550 4863 
L 1875 4863 
L 1875 4416 
L 1125 4416 
L 1125 -397 
L 1875 -397 
L 1875 -844 
L 550 -844 
L 550 4863 
z
" transform="scale(0.015625)"/>
       <path id="DejaVuSans-56" d="M 1831 0 
L 50 4666 
L 709 4666 
L 2188 738 
L 3669 4666 
L 4325 4666 
L 2547 0 
L 1831 0 
z
" transform="scale(0.015625)"/>
       <path id="DejaVuSans-5d" d="M 1947 4863 
L 1947 -844 
L 622 -844 
L 622 -397 
L 1369 -397 
L 1369 4416 
L 622 4416 
L 622 4863 
L 1947 4863 
z
" transform="scale(0.015625)"/>
      </defs>
      <use xlink:href="#DejaVuSans-45"/>
      <use xlink:href="#DejaVuSans-72" x="63.183594"/>
      <use xlink:href="#DejaVuSans-72" x="102.546875"/>
      <use xlink:href="#DejaVuSans-6f" x="141.410156"/>
      <use xlink:href="#DejaVuSans-72" x="202.591797"/>
      <use xlink:href="#DejaVuSans-20" x="243.705078"/>
      <use xlink:href="#DejaVuSans-5b" x="275.492188"/>
      <use xlink:href="#DejaVuSans-6d" x="314.505859"/>
      <use xlink:href="#DejaVuSans-56" x="411.917969"/>
      <use xlink:href="#DejaVuSans-5d" x="480.326172"/>
     </g>
    </g>
   </g>
   <g id="line2d_1">
    <path d="M 84.134818 136.607776 
L 85.822425 140.934572 
L 89.19764 150.669863 
L 90.885247 155.429338 
L 92.572854 159.539794 
L 94.260461 164.08293 
L 95.948068 167.760706 
L 97.635676 171.871162 
L 104.386104 185.716909 
L 109.448926 194.80318 
L 111.136533 197.399258 
L 112.82414 200.211675 
L 114.511747 202.807753 
L 116.199355 204.971151 
L 117.886962 207.350888 
L 119.574569 209.514286 
L 121.262176 211.245004 
L 122.949783 213.192063 
L 124.637391 214.706441 
L 126.324998 216.437159 
L 128.012605 217.735198 
L 129.700212 219.682256 
L 133.075426 221.412975 
L 138.138248 222.711013 
L 139.825855 222.927353 
L 144.888677 222.278334 
L 146.576284 221.845654 
L 148.263891 221.196635 
L 149.951498 220.980295 
L 151.639105 220.114936 
L 155.01432 219.682256 
L 156.701927 219.249577 
L 160.077141 219.249577 
L 161.764749 219.682256 
L 163.452356 219.682256 
L 165.139963 220.114936 
L 166.82757 220.331276 
L 171.890392 221.629314 
L 173.577999 221.845654 
L 175.265606 222.278334 
L 182.016035 223.143693 
L 183.703642 223.143693 
L 185.391249 223.576373 
L 187.078856 223.792712 
L 188.766464 223.792712 
L 190.454071 224.009052 
L 192.141678 224.009052 
L 195.516892 224.441732 
L 197.204499 224.441732 
L 198.892107 224.658072 
L 200.579714 224.658072 
L 202.267321 224.874411 
L 205.642535 224.874411 
L 207.330143 225.090751 
L 210.705357 225.090751 
L 212.392964 225.307091 
L 214.080571 225.090751 
L 215.768178 225.307091 
L 217.455786 225.090751 
L 219.143393 225.090751 
L 220.831 225.307091 
L 222.518607 225.090751 
L 224.206214 225.090751 
L 225.893822 224.874411 
L 230.956643 224.874411 
L 234.331857 224.441732 
L 236.019465 224.441732 
L 237.707072 224.225392 
L 239.394679 224.225392 
L 241.082286 223.792712 
L 242.769893 224.009052 
L 244.457501 223.576373 
L 246.145108 223.576373 
L 247.832715 223.143693 
L 249.520322 223.143693 
L 252.895536 222.711013 
L 254.583144 222.711013 
L 256.270751 222.278334 
L 257.958358 222.061994 
L 259.645965 222.061994 
L 261.333572 221.629314 
L 263.02118 221.629314 
L 264.708787 221.196635 
L 266.396394 221.196635 
L 268.084001 220.980295 
L 269.771608 220.547615 
L 271.459215 220.547615 
L 273.146823 220.114936 
L 274.83443 220.114936 
L 276.522037 219.682256 
L 278.209644 219.682256 
L 279.897251 219.249577 
L 281.584859 219.249577 
L 283.272466 219.033237 
L 284.960073 218.600557 
L 286.64768 218.600557 
L 288.335287 218.167878 
L 290.022895 217.951538 
L 291.710502 217.951538 
L 293.398109 217.518858 
L 295.085716 217.518858 
L 296.773323 217.086179 
L 306.898966 215.78814 
L 308.586574 215.355461 
L 310.274181 215.355461 
L 311.961788 214.922781 
L 313.649395 214.706441 
L 315.337002 214.273762 
L 317.024609 214.273762 
L 320.399824 213.408402 
L 322.087431 213.408402 
L 325.462645 212.543043 
L 327.150253 212.543043 
L 328.83786 211.894024 
L 332.213074 211.461344 
L 333.900681 211.028665 
L 335.588288 210.812325 
L 338.963503 209.946966 
L 340.65111 209.730626 
L 342.338717 209.297946 
L 344.026324 209.081607 
L 345.713932 208.648927 
L 347.401539 208.432587 
L 350.776753 207.567228 
L 354.151967 207.134548 
L 355.839575 206.701869 
L 357.527182 206.485529 
L 357.527182 206.485529 
" clip-path="url(#p2b295a82c0)" style="fill: none; stroke: #99c791; stroke-width: 1.2; stroke-linecap: round"/>
   </g>
   <g id="line2d_2">
    <path d="M 84.134818 136.391437 
L 85.822425 140.285553 
L 89.19764 149.155484 
L 92.572854 157.160057 
L 94.260461 161.054173 
L 99.323283 171.222143 
L 102.698497 177.495997 
L 106.073712 183.337171 
L 107.761319 186.149589 
L 109.448926 188.745666 
L 114.511747 195.884879 
L 116.199355 197.831937 
L 117.886962 199.995335 
L 119.574569 201.942393 
L 121.262176 203.673112 
L 124.637391 206.701869 
L 128.012605 209.297946 
L 129.700212 211.028665 
L 131.387819 211.894024 
L 133.075426 212.543043 
L 138.138248 213.841082 
L 139.825855 213.841082 
L 141.513462 213.624742 
L 143.20107 213.624742 
L 144.888677 213.408402 
L 149.951498 212.110364 
L 151.639105 211.461344 
L 155.01432 211.028665 
L 156.701927 210.595985 
L 158.389534 210.595985 
L 161.764749 211.028665 
L 163.452356 211.028665 
L 165.139963 211.245004 
L 168.515177 212.110364 
L 170.202785 212.326703 
L 171.890392 212.759383 
L 187.078856 214.706441 
L 190.454071 214.706441 
L 195.516892 215.355461 
L 198.892107 215.355461 
L 200.579714 215.5718 
L 203.954928 215.5718 
L 207.330143 216.00448 
L 209.01775 215.78814 
L 210.705357 216.00448 
L 212.392964 216.00448 
L 214.080571 215.78814 
L 215.768178 216.00448 
L 217.455786 215.78814 
L 219.143393 216.00448 
L 220.831 216.00448 
L 222.518607 215.78814 
L 229.269036 215.78814 
L 232.64425 215.355461 
L 236.019465 215.355461 
L 241.082286 214.706441 
L 242.769893 214.922781 
L 244.457501 214.490101 
L 246.145108 214.490101 
L 247.832715 214.273762 
L 249.520322 214.273762 
L 257.958358 213.192063 
L 259.645965 213.192063 
L 261.333572 212.759383 
L 263.02118 212.759383 
L 273.146823 211.461344 
L 274.83443 211.461344 
L 276.522037 211.028665 
L 278.209644 211.028665 
L 283.272466 210.379645 
L 284.960073 209.946966 
L 286.64768 209.946966 
L 290.022895 209.514286 
L 291.710502 209.514286 
L 293.398109 209.081607 
L 295.085716 209.081607 
L 296.773323 208.648927 
L 298.46093 208.432587 
L 300.148538 208.432587 
L 306.898966 207.567228 
L 308.586574 207.134548 
L 310.274181 207.134548 
L 311.961788 206.701869 
L 317.024609 206.052849 
L 318.712217 205.62017 
L 320.399824 205.40383 
L 322.087431 205.40383 
L 323.775038 204.971151 
L 327.150253 204.538471 
L 328.83786 204.105791 
L 332.213074 203.673112 
L 333.900681 203.240432 
L 335.588288 203.024092 
L 337.275896 202.591413 
L 340.65111 202.158733 
L 342.338717 201.726054 
L 344.026324 201.509714 
L 345.713932 201.077034 
L 347.401539 200.860694 
L 349.089146 200.428015 
L 354.151967 199.778996 
L 355.839575 199.346316 
L 357.527182 199.129976 
L 357.527182 199.129976 
" clip-path="url(#p2b295a82c0)" style="fill: none; stroke: #8bc191; stroke-width: 1.2; stroke-linecap: round"/>
   </g>
   <g id="line2d_3">
    <path d="M 84.134818 136.175097 
L 85.822425 139.636534 
L 90.885247 151.318882 
L 97.635676 164.29927 
L 99.323283 167.111687 
L 101.01089 170.140444 
L 104.386104 175.332599 
L 106.073712 177.712337 
L 107.761319 180.308414 
L 109.448926 182.688152 
L 111.136533 184.85155 
L 112.82414 186.798608 
L 114.511747 188.962006 
L 116.199355 190.692724 
L 117.886962 192.639782 
L 119.574569 194.370501 
L 121.262176 195.884879 
L 126.324998 199.778996 
L 128.012605 200.860694 
L 129.700212 202.375073 
L 133.075426 203.673112 
L 136.450641 204.538471 
L 139.825855 204.971151 
L 143.20107 204.538471 
L 144.888677 204.538471 
L 151.639105 202.807753 
L 155.01432 202.375073 
L 156.701927 201.942393 
L 158.389534 201.942393 
L 160.077141 202.158733 
L 161.764749 202.158733 
L 166.82757 202.807753 
L 170.202785 203.673112 
L 176.953213 204.538471 
L 178.64082 204.538471 
L 187.078856 205.62017 
L 190.454071 205.62017 
L 193.829285 206.052849 
L 197.204499 206.052849 
L 198.892107 206.269189 
L 200.579714 206.269189 
L 202.267321 206.485529 
L 205.642535 206.485529 
L 207.330143 206.701869 
L 224.206214 206.701869 
L 225.893822 206.485529 
L 230.956643 206.485529 
L 234.331857 206.052849 
L 237.707072 206.052849 
L 241.082286 205.62017 
L 242.769893 205.83651 
L 244.457501 205.40383 
L 246.145108 205.40383 
L 247.832715 205.18749 
L 249.520322 205.18749 
L 252.895536 204.754811 
L 254.583144 204.754811 
L 256.270751 204.322131 
L 259.645965 204.322131 
L 261.333572 203.889452 
L 263.02118 203.889452 
L 264.708787 203.673112 
L 266.396394 203.673112 
L 268.084001 203.240432 
L 269.771608 203.024092 
L 271.459215 203.024092 
L 276.522037 202.375073 
L 278.209644 202.375073 
L 284.960073 201.509714 
L 286.64768 201.509714 
L 288.335287 201.077034 
L 290.022895 201.077034 
L 293.398109 200.644355 
L 295.085716 200.644355 
L 296.773323 200.211675 
L 298.46093 200.211675 
L 308.586574 198.913636 
L 310.274181 198.913636 
L 311.961788 198.480957 
L 315.337002 198.048277 
L 317.024609 198.048277 
L 318.712217 197.615598 
L 320.399824 197.399258 
L 322.087431 197.399258 
L 323.775038 196.966578 
L 327.150253 196.533899 
L 328.83786 196.101219 
L 330.525467 196.101219 
L 332.213074 195.884879 
L 333.900681 195.4522 
L 335.588288 195.23586 
L 337.275896 194.80318 
L 344.026324 193.937821 
L 345.713932 193.505142 
L 349.089146 193.072462 
L 350.776753 192.639782 
L 352.46436 192.639782 
L 354.151967 192.207103 
L 357.527182 191.774423 
L 357.527182 191.774423 
" clip-path="url(#p2b295a82c0)" style="fill: none; stroke: #7fbb91; stroke-width: 1.2; stroke-linecap: round"/>
   </g>
   <g id="line2d_4">
    <path d="M 84.134818 135.958757 
L 85.822425 138.987514 
L 90.885247 149.155484 
L 92.572854 151.967902 
L 94.260461 155.212999 
L 95.948068 157.809076 
L 97.635676 160.621493 
L 99.323283 163.001231 
L 101.01089 165.597308 
L 102.698497 167.760706 
L 104.386104 170.140444 
L 109.448926 176.630638 
L 111.136533 178.361356 
L 112.82414 180.308414 
L 114.511747 182.039133 
L 116.199355 183.553511 
L 117.886962 185.28423 
L 119.574569 186.798608 
L 122.949783 189.394686 
L 124.637391 190.260045 
L 126.324998 191.558083 
L 128.012605 192.423443 
L 129.700212 193.505142 
L 133.075426 194.80318 
L 134.763034 195.01952 
L 138.138248 195.884879 
L 139.825855 195.884879 
L 141.513462 195.668539 
L 143.20107 195.668539 
L 146.576284 195.23586 
L 148.263891 194.80318 
L 149.951498 194.586841 
L 151.639105 193.937821 
L 153.326713 193.937821 
L 155.01432 193.721481 
L 156.701927 193.288802 
L 158.389534 193.288802 
L 160.077141 193.505142 
L 163.452356 193.505142 
L 165.139963 193.937821 
L 168.515177 194.370501 
L 170.202785 194.80318 
L 175.265606 195.4522 
L 176.953213 195.4522 
L 180.328428 195.884879 
L 182.016035 195.884879 
L 187.078856 196.533899 
L 190.454071 196.533899 
L 192.141678 196.750238 
L 193.829285 196.750238 
L 195.516892 196.966578 
L 197.204499 196.966578 
L 198.892107 197.182918 
L 203.954928 197.182918 
L 205.642535 197.399258 
L 210.705357 197.399258 
L 212.392964 197.615598 
L 214.080571 197.399258 
L 215.768178 197.615598 
L 217.455786 197.399258 
L 219.143393 197.615598 
L 220.831 197.615598 
L 222.518607 197.399258 
L 229.269036 197.399258 
L 230.956643 197.182918 
L 232.64425 197.182918 
L 234.331857 196.966578 
L 236.019465 196.966578 
L 237.707072 196.750238 
L 239.394679 196.750238 
L 241.082286 196.533899 
L 242.769893 196.750238 
L 244.457501 196.317559 
L 246.145108 196.317559 
L 247.832715 196.101219 
L 251.207929 196.101219 
L 252.895536 195.884879 
L 254.583144 195.884879 
L 256.270751 195.4522 
L 259.645965 195.4522 
L 261.333572 195.01952 
L 263.02118 195.01952 
L 264.708787 194.80318 
L 266.396394 194.80318 
L 273.146823 193.937821 
L 274.83443 193.937821 
L 276.522037 193.721481 
L 278.209644 193.721481 
L 279.897251 193.505142 
L 281.584859 193.505142 
L 283.272466 193.072462 
L 284.960073 192.856122 
L 286.64768 192.856122 
L 288.335287 192.639782 
L 290.022895 192.639782 
L 293.398109 192.207103 
L 295.085716 192.207103 
L 296.773323 191.774423 
L 298.46093 191.774423 
L 300.148538 191.558083 
L 301.836145 191.558083 
L 308.586574 190.692724 
L 310.274181 190.692724 
L 311.961788 190.260045 
L 315.337002 189.827365 
L 317.024609 189.827365 
L 320.399824 189.394686 
L 322.087431 189.394686 
L 323.775038 188.962006 
L 325.462645 188.745666 
L 327.150253 188.745666 
L 328.83786 188.312987 
L 344.026324 186.365928 
L 345.713932 185.933249 
L 357.527182 184.41887 
L 357.527182 184.41887 
" clip-path="url(#p2b295a82c0)" style="fill: none; stroke: #72b490; stroke-width: 1.2; stroke-linecap: round"/>
   </g>
   <g id="line2d_5">
    <path d="M 84.134818 135.526077 
L 87.510033 141.150912 
L 90.885247 146.992086 
L 92.572854 149.371824 
L 94.260461 152.184241 
L 95.948068 154.347639 
L 97.635676 156.727377 
L 101.01089 161.054173 
L 104.386104 164.948289 
L 106.073712 166.679007 
L 107.761319 168.626066 
L 109.448926 170.356784 
L 111.136533 171.871162 
L 112.82414 173.601881 
L 114.511747 175.116259 
L 117.886962 177.712337 
L 119.574569 179.226715 
L 121.262176 180.092075 
L 122.949783 181.390113 
L 129.700212 184.85155 
L 131.387819 185.500569 
L 133.075426 185.933249 
L 134.763034 186.149589 
L 136.450641 186.582268 
L 138.138248 186.798608 
L 143.20107 186.798608 
L 146.576284 186.365928 
L 148.263891 185.933249 
L 149.951498 185.716909 
L 151.639105 185.28423 
L 153.326713 185.28423 
L 155.01432 185.06789 
L 156.701927 184.63521 
L 158.389534 184.63521 
L 160.077141 184.85155 
L 163.452356 184.85155 
L 166.82757 185.28423 
L 168.515177 185.716909 
L 171.890392 186.149589 
L 173.577999 186.149589 
L 175.265606 186.582268 
L 178.64082 186.582268 
L 182.016035 187.014948 
L 183.703642 187.014948 
L 185.391249 187.447627 
L 192.141678 187.447627 
L 195.516892 187.880307 
L 200.579714 187.880307 
L 202.267321 188.096647 
L 205.642535 188.096647 
L 207.330143 188.312987 
L 212.392964 188.312987 
L 214.080571 188.096647 
L 215.768178 188.312987 
L 217.455786 188.096647 
L 219.143393 188.312987 
L 220.831 188.312987 
L 222.518607 188.096647 
L 230.956643 188.096647 
L 232.64425 187.880307 
L 236.019465 187.880307 
L 237.707072 187.663967 
L 239.394679 187.663967 
L 241.082286 187.447627 
L 242.769893 187.663967 
L 244.457501 187.231288 
L 246.145108 187.231288 
L 247.832715 187.014948 
L 249.520322 187.231288 
L 252.895536 186.798608 
L 254.583144 186.798608 
L 256.270751 186.582268 
L 257.958358 186.582268 
L 261.333572 186.149589 
L 263.02118 186.149589 
L 264.708787 185.933249 
L 266.396394 185.933249 
L 269.771608 185.500569 
L 271.459215 185.500569 
L 273.146823 185.28423 
L 274.83443 185.28423 
L 276.522037 185.06789 
L 278.209644 185.06789 
L 279.897251 184.85155 
L 281.584859 184.85155 
L 288.335287 183.986191 
L 291.710502 183.986191 
L 293.398109 183.769851 
L 295.085716 183.769851 
L 296.773323 183.337171 
L 300.148538 183.337171 
L 303.523752 182.904492 
L 305.211359 182.904492 
L 308.586574 182.471812 
L 310.274181 182.471812 
L 311.961788 182.039133 
L 313.649395 182.039133 
L 315.337002 181.822793 
L 317.024609 181.822793 
L 318.712217 181.390113 
L 320.399824 181.390113 
L 325.462645 180.741094 
L 327.150253 180.741094 
L 328.83786 180.308414 
L 330.525467 180.308414 
L 342.338717 178.794036 
L 344.026324 178.794036 
L 345.713932 178.361356 
L 347.401539 178.361356 
L 349.089146 177.928677 
L 350.776753 177.712337 
L 352.46436 177.712337 
L 357.527182 177.063317 
L 357.527182 177.063317 
" clip-path="url(#p2b295a82c0)" style="fill: none; stroke: #66ae90; stroke-width: 1.2; stroke-linecap: round"/>
   </g>
   <g id="line2d_6">
    <path d="M 84.134818 135.309738 
L 85.822425 137.473136 
L 87.510033 140.069213 
L 90.885247 144.828689 
L 92.572854 146.775747 
L 94.260461 148.939145 
L 97.635676 152.833261 
L 99.323283 154.563979 
L 101.01089 156.511037 
L 102.698497 158.025416 
L 104.386104 159.756134 
L 109.448926 164.29927 
L 114.511747 168.193386 
L 119.574569 171.438483 
L 121.262176 172.303842 
L 122.949783 173.385541 
L 124.637391 174.03456 
L 126.324998 174.89992 
L 129.700212 176.197958 
L 133.075426 177.063317 
L 134.763034 177.279657 
L 136.450641 177.712337 
L 138.138248 177.928677 
L 139.825855 177.928677 
L 141.513462 177.712337 
L 144.888677 177.712337 
L 146.576284 177.495997 
L 148.263891 177.063317 
L 149.951498 177.063317 
L 151.639105 176.630638 
L 153.326713 176.414298 
L 155.01432 176.414298 
L 156.701927 175.981618 
L 158.389534 176.197958 
L 163.452356 176.197958 
L 171.890392 177.279657 
L 173.577999 177.279657 
L 175.265606 177.495997 
L 176.953213 177.495997 
L 178.64082 177.712337 
L 180.328428 177.712337 
L 182.016035 177.928677 
L 183.703642 177.928677 
L 185.391249 178.361356 
L 192.141678 178.361356 
L 193.829285 178.577696 
L 197.204499 178.577696 
L 198.892107 178.794036 
L 203.954928 178.794036 
L 205.642535 179.010376 
L 219.143393 179.010376 
L 220.831 179.226715 
L 222.518607 179.010376 
L 224.206214 179.010376 
L 225.893822 178.794036 
L 227.581429 179.010376 
L 230.956643 179.010376 
L 234.331857 178.577696 
L 236.019465 178.794036 
L 237.707072 178.577696 
L 239.394679 178.577696 
L 241.082286 178.361356 
L 242.769893 178.577696 
L 244.457501 178.145016 
L 249.520322 178.145016 
L 251.207929 177.928677 
L 254.583144 177.928677 
L 256.270751 177.495997 
L 259.645965 177.495997 
L 261.333572 177.279657 
L 263.02118 177.279657 
L 264.708787 177.063317 
L 266.396394 177.063317 
L 269.771608 176.630638 
L 271.459215 176.846978 
L 273.146823 176.630638 
L 274.83443 176.630638 
L 276.522037 176.414298 
L 278.209644 176.414298 
L 279.897251 176.197958 
L 281.584859 176.197958 
L 284.960073 175.765279 
L 286.64768 175.765279 
L 288.335287 175.548939 
L 291.710502 175.548939 
L 293.398109 175.332599 
L 295.085716 175.332599 
L 296.773323 174.89992 
L 300.148538 174.89992 
L 301.836145 174.68358 
L 303.523752 174.68358 
L 305.211359 174.46724 
L 306.898966 174.46724 
L 308.586574 174.2509 
L 310.274181 174.2509 
L 311.961788 173.818221 
L 313.649395 173.818221 
L 315.337002 173.601881 
L 317.024609 173.601881 
L 320.399824 173.169201 
L 322.087431 173.169201 
L 325.462645 172.736522 
L 327.150253 172.736522 
L 328.83786 172.520182 
L 330.525467 172.520182 
L 338.963503 171.438483 
L 340.65111 171.438483 
L 342.338717 171.222143 
L 344.026324 171.222143 
L 345.713932 170.789463 
L 347.401539 170.789463 
L 349.089146 170.356784 
L 350.776753 170.356784 
L 352.46436 170.140444 
L 354.151967 170.140444 
L 355.839575 169.707765 
L 357.527182 169.707765 
L 357.527182 169.707765 
" clip-path="url(#p2b295a82c0)" style="fill: none; stroke: #5ca890; stroke-width: 1.2; stroke-linecap: round"/>
   </g>
   <g id="line2d_7">
    <path d="M 84.134818 134.877058 
L 85.822425 136.607776 
L 90.885247 142.448951 
L 94.260461 145.910387 
L 99.323283 150.453523 
L 107.761319 156.943717 
L 111.136533 159.107115 
L 112.82414 159.972474 
L 114.511747 161.054173 
L 116.199355 161.919532 
L 117.886962 163.001231 
L 119.574569 163.86659 
L 126.324998 166.462668 
L 128.012605 166.895347 
L 129.700212 167.544367 
L 131.387819 167.977046 
L 138.138248 168.842405 
L 144.888677 168.842405 
L 149.951498 168.193386 
L 151.639105 167.760706 
L 155.01432 167.760706 
L 156.701927 167.328027 
L 158.389534 167.544367 
L 163.452356 167.544367 
L 165.139963 167.760706 
L 166.82757 167.760706 
L 171.890392 168.409726 
L 173.577999 168.409726 
L 175.265606 168.626066 
L 178.64082 168.626066 
L 180.328428 168.842405 
L 182.016035 168.842405 
L 185.391249 169.275085 
L 192.141678 169.275085 
L 193.829285 169.491425 
L 197.204499 169.491425 
L 198.892107 169.707765 
L 205.642535 169.707765 
L 207.330143 169.924104 
L 209.01775 169.707765 
L 210.705357 169.924104 
L 212.392964 169.924104 
L 214.080571 169.707765 
L 215.768178 169.924104 
L 217.455786 169.707765 
L 219.143393 169.924104 
L 220.831 169.924104 
L 222.518607 169.707765 
L 230.956643 169.707765 
L 232.64425 169.491425 
L 239.394679 169.491425 
L 241.082286 169.275085 
L 242.769893 169.491425 
L 244.457501 169.058745 
L 246.145108 169.275085 
L 247.832715 169.058745 
L 251.207929 169.058745 
L 252.895536 168.842405 
L 254.583144 168.842405 
L 256.270751 168.626066 
L 259.645965 168.626066 
L 261.333572 168.409726 
L 263.02118 168.409726 
L 264.708787 168.193386 
L 266.396394 168.409726 
L 269.771608 167.977046 
L 271.459215 167.977046 
L 273.146823 167.760706 
L 278.209644 167.760706 
L 279.897251 167.544367 
L 281.584859 167.544367 
L 284.960073 167.111687 
L 286.64768 167.111687 
L 288.335287 166.895347 
L 290.022895 167.111687 
L 291.710502 167.111687 
L 293.398109 166.895347 
L 295.085716 166.895347 
L 296.773323 166.462668 
L 301.836145 166.462668 
L 303.523752 166.246328 
L 305.211359 166.246328 
L 308.586574 165.813648 
L 310.274181 166.029988 
L 311.961788 165.597308 
L 313.649395 165.597308 
L 315.337002 165.380969 
L 317.024609 165.597308 
L 318.712217 165.164629 
L 322.087431 165.164629 
L 325.462645 164.731949 
L 327.150253 164.731949 
L 328.83786 164.51561 
L 332.213074 164.51561 
L 337.275896 163.86659 
L 338.963503 163.86659 
L 340.65111 163.65025 
L 342.338717 163.65025 
L 345.713932 163.217571 
L 347.401539 163.217571 
L 350.776753 162.784891 
L 352.46436 162.784891 
L 355.839575 162.352212 
L 357.527182 162.352212 
L 357.527182 162.352212 
" clip-path="url(#p2b295a82c0)" style="fill: none; stroke: #53a190; stroke-width: 1.2; stroke-linecap: round"/>
   </g>
   <g id="line2d_8">
    <path d="M 84.134818 134.444379 
L 85.822425 135.742417 
L 90.885247 140.285553 
L 92.572854 141.367252 
L 94.260461 142.665291 
L 95.948068 143.74699 
L 97.635676 145.045028 
L 101.01089 147.208426 
L 102.698497 148.073785 
L 104.386104 149.155484 
L 111.136533 152.616921 
L 112.82414 153.26594 
L 114.511747 154.1313 
L 121.262176 156.727377 
L 129.700212 158.890775 
L 131.387819 159.107115 
L 133.075426 159.539794 
L 134.763034 159.539794 
L 138.138248 159.972474 
L 139.825855 159.972474 
L 141.513462 159.756134 
L 146.576284 159.756134 
L 151.639105 159.107115 
L 153.326713 159.107115 
L 156.701927 158.674435 
L 158.389534 158.890775 
L 163.452356 158.890775 
L 165.139963 159.107115 
L 166.82757 159.107115 
L 170.202785 159.539794 
L 173.577999 159.539794 
L 175.265606 159.756134 
L 180.328428 159.756134 
L 182.016035 159.972474 
L 183.703642 159.972474 
L 185.391249 160.188814 
L 192.141678 160.188814 
L 193.829285 160.405154 
L 205.642535 160.405154 
L 207.330143 160.621493 
L 224.206214 160.621493 
L 225.893822 160.405154 
L 227.581429 160.621493 
L 230.956643 160.621493 
L 232.64425 160.405154 
L 239.394679 160.405154 
L 241.082286 160.188814 
L 242.769893 160.405154 
L 244.457501 159.972474 
L 246.145108 160.188814 
L 247.832715 159.972474 
L 254.583144 159.972474 
L 256.270751 159.756134 
L 259.645965 159.756134 
L 261.333572 159.539794 
L 266.396394 159.539794 
L 269.771608 159.107115 
L 271.459215 159.323455 
L 273.146823 159.107115 
L 274.83443 159.107115 
L 276.522037 158.890775 
L 278.209644 159.107115 
L 279.897251 158.890775 
L 281.584859 158.890775 
L 283.272466 158.674435 
L 286.64768 158.674435 
L 288.335287 158.458095 
L 291.710502 158.458095 
L 293.398109 158.241756 
L 296.773323 158.241756 
L 298.46093 158.025416 
L 305.211359 158.025416 
L 308.586574 157.592736 
L 310.274181 157.592736 
L 311.961788 157.376396 
L 317.024609 157.376396 
L 318.712217 157.160057 
L 322.087431 157.160057 
L 323.775038 156.943717 
L 327.150253 156.943717 
L 328.83786 156.511037 
L 330.525467 156.727377 
L 332.213074 156.511037 
L 333.900681 156.511037 
L 337.275896 156.078358 
L 340.65111 156.078358 
L 342.338717 155.862018 
L 344.026324 155.862018 
L 345.713932 155.645678 
L 347.401539 155.645678 
L 349.089146 155.429338 
L 352.46436 155.429338 
L 355.839575 154.996659 
L 357.527182 154.996659 
L 357.527182 154.996659 
" clip-path="url(#p2b295a82c0)" style="fill: none; stroke: #4a9a8f; stroke-width: 1.2; stroke-linecap: round"/>
   </g>
   <g id="line2d_9">
    <path d="M 84.134818 134.011699 
L 85.822425 134.877058 
L 87.510033 135.958757 
L 89.19764 136.824116 
L 90.885247 137.905815 
L 92.572854 138.554835 
L 94.260461 139.636534 
L 95.948068 140.069213 
L 97.635676 141.150912 
L 104.386104 143.74699 
L 106.073712 144.179669 
L 107.761319 145.045028 
L 109.448926 145.694048 
L 111.136533 145.910387 
L 114.511747 147.208426 
L 116.199355 147.424766 
L 117.886962 147.857446 
L 119.574569 148.506465 
L 121.262176 148.722805 
L 122.949783 149.155484 
L 124.637391 149.371824 
L 126.324998 149.804504 
L 133.075426 150.669863 
L 134.763034 150.669863 
L 136.450641 150.886203 
L 144.888677 150.886203 
L 146.576284 150.669863 
L 149.951498 150.669863 
L 151.639105 150.237183 
L 153.326713 150.453523 
L 155.01432 150.237183 
L 166.82757 150.237183 
L 170.202785 150.669863 
L 173.577999 150.669863 
L 175.265606 150.886203 
L 176.953213 150.669863 
L 178.64082 150.669863 
L 180.328428 150.886203 
L 183.703642 150.886203 
L 185.391249 151.102542 
L 193.829285 151.102542 
L 195.516892 151.318882 
L 197.204499 151.102542 
L 198.892107 151.318882 
L 210.705357 151.318882 
L 212.392964 151.535222 
L 214.080571 151.318882 
L 219.143393 151.318882 
L 220.831 151.535222 
L 222.518607 151.318882 
L 232.64425 151.318882 
L 234.331857 151.102542 
L 236.019465 151.318882 
L 237.707072 151.102542 
L 241.082286 151.102542 
L 242.769893 151.318882 
L 244.457501 151.102542 
L 246.145108 151.102542 
L 247.832715 150.886203 
L 249.520322 151.102542 
L 251.207929 151.102542 
L 252.895536 150.886203 
L 254.583144 150.886203 
L 256.270751 150.669863 
L 257.958358 150.886203 
L 259.645965 150.886203 
L 261.333572 150.669863 
L 266.396394 150.669863 
L 268.084001 150.453523 
L 271.459215 150.453523 
L 273.146823 150.237183 
L 274.83443 150.453523 
L 276.522037 150.237183 
L 278.209644 150.453523 
L 279.897251 150.237183 
L 283.272466 150.237183 
L 284.960073 150.020844 
L 291.710502 150.020844 
L 293.398109 149.804504 
L 301.836145 149.804504 
L 303.523752 149.588164 
L 306.898966 149.588164 
L 308.586574 149.371824 
L 311.961788 149.371824 
L 313.649395 149.155484 
L 318.712217 149.155484 
L 320.399824 148.939145 
L 322.087431 149.155484 
L 323.775038 148.939145 
L 327.150253 148.939145 
L 328.83786 148.722805 
L 332.213074 148.722805 
L 333.900681 148.506465 
L 337.275896 148.506465 
L 338.963503 148.290125 
L 344.026324 148.290125 
L 345.713932 148.073785 
L 347.401539 148.073785 
L 349.089146 147.857446 
L 354.151967 147.857446 
L 355.839575 147.641106 
L 357.527182 147.641106 
L 357.527182 147.641106 
" clip-path="url(#p2b295a82c0)" style="fill: none; stroke: #43938f; stroke-width: 1.2; stroke-linecap: round"/>
   </g>
   <g id="line2d_10">
    <path d="M 84.134818 133.579019 
L 85.822425 133.795359 
L 87.510033 134.444379 
L 89.19764 134.877058 
L 90.885247 135.526077 
L 92.572854 135.742417 
L 94.260461 136.391437 
L 95.948068 136.607776 
L 97.635676 137.040456 
L 99.323283 137.256796 
L 101.01089 137.689475 
L 102.698497 137.905815 
L 104.386104 138.338495 
L 106.073712 138.554835 
L 109.448926 139.420194 
L 111.136533 139.420194 
L 112.82414 139.636534 
L 114.511747 140.069213 
L 116.199355 140.069213 
L 117.886962 140.501893 
L 122.949783 141.150912 
L 124.637391 141.150912 
L 126.324998 141.367252 
L 128.012605 141.367252 
L 129.700212 141.583592 
L 131.387819 141.583592 
L 133.075426 141.799931 
L 136.450641 141.799931 
L 138.138248 142.016271 
L 139.825855 142.016271 
L 141.513462 141.799931 
L 143.20107 141.799931 
L 144.888677 142.016271 
L 146.576284 141.799931 
L 149.951498 141.799931 
L 151.639105 141.583592 
L 153.326713 141.799931 
L 155.01432 141.583592 
L 166.82757 141.583592 
L 168.515177 141.799931 
L 183.703642 141.799931 
L 185.391249 142.016271 
L 200.579714 142.016271 
L 202.267321 142.232611 
L 203.954928 142.016271 
L 205.642535 142.016271 
L 207.330143 142.232611 
L 212.392964 142.232611 
L 214.080571 142.016271 
L 215.768178 142.232611 
L 217.455786 142.016271 
L 219.143393 142.232611 
L 220.831 142.232611 
L 222.518607 142.016271 
L 225.893822 142.016271 
L 227.581429 142.232611 
L 230.956643 142.232611 
L 232.64425 142.016271 
L 241.082286 142.016271 
L 242.769893 142.232611 
L 244.457501 142.016271 
L 246.145108 142.016271 
L 247.832715 141.799931 
L 249.520322 142.016271 
L 254.583144 142.016271 
L 256.270751 141.799931 
L 257.958358 141.799931 
L 259.645965 142.016271 
L 261.333572 141.799931 
L 268.084001 141.799931 
L 269.771608 141.583592 
L 271.459215 141.799931 
L 273.146823 141.583592 
L 274.83443 141.799931 
L 276.522037 141.583592 
L 283.272466 141.583592 
L 284.960073 141.367252 
L 286.64768 141.583592 
L 288.335287 141.367252 
L 290.022895 141.367252 
L 291.710502 141.583592 
L 293.398109 141.367252 
L 305.211359 141.367252 
L 306.898966 141.150912 
L 313.649395 141.150912 
L 315.337002 140.934572 
L 317.024609 141.150912 
L 318.712217 140.934572 
L 320.399824 140.934572 
L 322.087431 141.150912 
L 323.775038 140.934572 
L 327.150253 140.934572 
L 328.83786 140.718232 
L 330.525467 140.934572 
L 332.213074 140.934572 
L 333.900681 140.718232 
L 344.026324 140.718232 
L 345.713932 140.501893 
L 349.089146 140.501893 
L 350.776753 140.285553 
L 352.46436 140.501893 
L 354.151967 140.501893 
L 355.839575 140.285553 
L 357.527182 140.285553 
L 357.527182 140.285553 
" clip-path="url(#p2b295a82c0)" style="fill: none; stroke: #3b8c8e; stroke-width: 1.2; stroke-linecap: round"/>
   </g>
   <g id="line2d_11">
    <path d="M 84.134818 132.93 
L 357.527182 132.93 
L 357.527182 132.93 
" clip-path="url(#p2b295a82c0)" style="fill: none; stroke: #33858d; stroke-width: 1.2; stroke-linecap: round"/>
   </g>
   <g id="line2d_12">
    <path d="M 84.134818 132.280981 
L 85.822425 132.064641 
L 87.510033 131.415621 
L 89.19764 130.982942 
L 90.885247 130.333923 
L 92.572854 130.117583 
L 94.260461 129.468563 
L 95.948068 129.252224 
L 97.635676 128.819544 
L 99.323283 128.603204 
L 101.01089 128.170525 
L 102.698497 127.954185 
L 104.386104 127.521505 
L 106.073712 127.305165 
L 109.448926 126.439806 
L 111.136533 126.439806 
L 112.82414 126.223466 
L 114.511747 125.790787 
L 116.199355 125.790787 
L 117.886962 125.358107 
L 122.949783 124.709088 
L 124.637391 124.709088 
L 126.324998 124.492748 
L 128.012605 124.492748 
L 129.700212 124.276408 
L 131.387819 124.276408 
L 133.075426 124.060069 
L 136.450641 124.060069 
L 138.138248 123.843729 
L 139.825855 123.843729 
L 141.513462 124.060069 
L 143.20107 124.060069 
L 144.888677 123.843729 
L 146.576284 124.060069 
L 149.951498 124.060069 
L 151.639105 124.276408 
L 153.326713 124.060069 
L 155.01432 124.276408 
L 166.82757 124.276408 
L 168.515177 124.060069 
L 183.703642 124.060069 
L 185.391249 123.843729 
L 200.579714 123.843729 
L 202.267321 123.627389 
L 203.954928 123.843729 
L 205.642535 123.843729 
L 207.330143 123.627389 
L 212.392964 123.627389 
L 214.080571 123.843729 
L 215.768178 123.627389 
L 217.455786 123.843729 
L 219.143393 123.627389 
L 220.831 123.627389 
L 222.518607 123.843729 
L 225.893822 123.843729 
L 227.581429 123.627389 
L 230.956643 123.627389 
L 232.64425 123.843729 
L 241.082286 123.843729 
L 242.769893 123.627389 
L 244.457501 123.843729 
L 246.145108 123.843729 
L 247.832715 124.060069 
L 249.520322 123.843729 
L 254.583144 123.843729 
L 256.270751 124.060069 
L 257.958358 124.060069 
L 259.645965 123.843729 
L 261.333572 124.060069 
L 268.084001 124.060069 
L 269.771608 124.276408 
L 271.459215 124.060069 
L 273.146823 124.276408 
L 274.83443 124.060069 
L 276.522037 124.276408 
L 283.272466 124.276408 
L 284.960073 124.492748 
L 286.64768 124.276408 
L 288.335287 124.492748 
L 290.022895 124.492748 
L 291.710502 124.276408 
L 293.398109 124.492748 
L 305.211359 124.492748 
L 306.898966 124.709088 
L 313.649395 124.709088 
L 315.337002 124.925428 
L 317.024609 124.709088 
L 318.712217 124.925428 
L 320.399824 124.925428 
L 322.087431 124.709088 
L 323.775038 124.925428 
L 327.150253 124.925428 
L 328.83786 125.141768 
L 330.525467 124.925428 
L 332.213074 124.925428 
L 333.900681 125.141768 
L 344.026324 125.141768 
L 345.713932 125.358107 
L 349.089146 125.358107 
L 350.776753 125.574447 
L 352.46436 125.358107 
L 354.151967 125.358107 
L 355.839575 125.574447 
L 357.527182 125.574447 
L 357.527182 125.574447 
" clip-path="url(#p2b295a82c0)" style="fill: none; stroke: #2c7e8c; stroke-width: 1.2; stroke-linecap: round"/>
   </g>
   <g id="line2d_13">
    <path d="M 84.134818 131.848301 
L 85.822425 130.982942 
L 87.510033 129.901243 
L 89.19764 129.035884 
L 90.885247 127.954185 
L 92.572854 127.305165 
L 94.260461 126.223466 
L 95.948068 125.790787 
L 97.635676 124.709088 
L 104.386104 122.11301 
L 106.073712 121.680331 
L 107.761319 120.814972 
L 109.448926 120.165952 
L 111.136533 119.949613 
L 114.511747 118.651574 
L 116.199355 118.435234 
L 117.886962 118.002554 
L 119.574569 117.353535 
L 121.262176 117.137195 
L 122.949783 116.704516 
L 124.637391 116.488176 
L 126.324998 116.055496 
L 133.075426 115.190137 
L 134.763034 115.190137 
L 136.450641 114.973797 
L 144.888677 114.973797 
L 146.576284 115.190137 
L 149.951498 115.190137 
L 151.639105 115.622817 
L 153.326713 115.406477 
L 155.01432 115.622817 
L 166.82757 115.622817 
L 170.202785 115.190137 
L 173.577999 115.190137 
L 175.265606 114.973797 
L 176.953213 115.190137 
L 178.64082 115.190137 
L 180.328428 114.973797 
L 183.703642 114.973797 
L 185.391249 114.757458 
L 193.829285 114.757458 
L 195.516892 114.541118 
L 197.204499 114.757458 
L 198.892107 114.541118 
L 210.705357 114.541118 
L 212.392964 114.324778 
L 214.080571 114.541118 
L 219.143393 114.541118 
L 220.831 114.324778 
L 222.518607 114.541118 
L 232.64425 114.541118 
L 234.331857 114.757458 
L 236.019465 114.541118 
L 237.707072 114.757458 
L 241.082286 114.757458 
L 242.769893 114.541118 
L 244.457501 114.757458 
L 246.145108 114.757458 
L 247.832715 114.973797 
L 249.520322 114.757458 
L 251.207929 114.757458 
L 252.895536 114.973797 
L 254.583144 114.973797 
L 256.270751 115.190137 
L 257.958358 114.973797 
L 259.645965 114.973797 
L 261.333572 115.190137 
L 266.396394 115.190137 
L 268.084001 115.406477 
L 271.459215 115.406477 
L 273.146823 115.622817 
L 274.83443 115.406477 
L 276.522037 115.622817 
L 278.209644 115.406477 
L 279.897251 115.622817 
L 283.272466 115.622817 
L 284.960073 115.839156 
L 291.710502 115.839156 
L 293.398109 116.055496 
L 301.836145 116.055496 
L 303.523752 116.271836 
L 306.898966 116.271836 
L 308.586574 116.488176 
L 311.961788 116.488176 
L 313.649395 116.704516 
L 318.712217 116.704516 
L 320.399824 116.920855 
L 322.087431 116.704516 
L 323.775038 116.920855 
L 327.150253 116.920855 
L 328.83786 117.137195 
L 332.213074 117.137195 
L 333.900681 117.353535 
L 337.275896 117.353535 
L 338.963503 117.569875 
L 344.026324 117.569875 
L 345.713932 117.786215 
L 347.401539 117.786215 
L 349.089146 118.002554 
L 354.151967 118.002554 
L 355.839575 118.218894 
L 357.527182 118.218894 
L 357.527182 118.218894 
" clip-path="url(#p2b295a82c0)" style="fill: none; stroke: #25778c; stroke-width: 1.2; stroke-linecap: round"/>
   </g>
   <g id="line2d_14">
    <path d="M 84.134818 131.415621 
L 85.822425 130.117583 
L 90.885247 125.574447 
L 92.572854 124.492748 
L 94.260461 123.194709 
L 95.948068 122.11301 
L 97.635676 120.814972 
L 101.01089 118.651574 
L 102.698497 117.786215 
L 104.386104 116.704516 
L 111.136533 113.243079 
L 112.82414 112.59406 
L 114.511747 111.7287 
L 121.262176 109.132623 
L 126.324998 107.834584 
L 128.012605 107.185565 
L 131.387819 106.752885 
L 133.075426 106.320206 
L 134.763034 106.320206 
L 138.138248 105.887526 
L 139.825855 105.887526 
L 141.513462 106.103866 
L 146.576284 106.103866 
L 151.639105 106.752885 
L 153.326713 106.752885 
L 156.701927 107.185565 
L 158.389534 106.969225 
L 163.452356 106.969225 
L 165.139963 106.752885 
L 166.82757 106.752885 
L 170.202785 106.320206 
L 173.577999 106.320206 
L 175.265606 106.103866 
L 180.328428 106.103866 
L 182.016035 105.887526 
L 183.703642 105.887526 
L 185.391249 105.671186 
L 192.141678 105.671186 
L 193.829285 105.454846 
L 205.642535 105.454846 
L 207.330143 105.238507 
L 224.206214 105.238507 
L 225.893822 105.454846 
L 227.581429 105.238507 
L 230.956643 105.238507 
L 232.64425 105.454846 
L 239.394679 105.454846 
L 241.082286 105.671186 
L 242.769893 105.454846 
L 244.457501 105.887526 
L 246.145108 105.671186 
L 247.832715 105.887526 
L 254.583144 105.887526 
L 256.270751 106.103866 
L 259.645965 106.103866 
L 261.333572 106.320206 
L 266.396394 106.320206 
L 269.771608 106.752885 
L 271.459215 106.536545 
L 273.146823 106.752885 
L 274.83443 106.752885 
L 276.522037 106.969225 
L 278.209644 106.752885 
L 279.897251 106.969225 
L 281.584859 106.969225 
L 283.272466 107.185565 
L 286.64768 107.185565 
L 288.335287 107.401905 
L 291.710502 107.401905 
L 293.398109 107.618244 
L 296.773323 107.618244 
L 298.46093 107.834584 
L 305.211359 107.834584 
L 308.586574 108.267264 
L 310.274181 108.267264 
L 311.961788 108.483604 
L 317.024609 108.483604 
L 318.712217 108.699943 
L 322.087431 108.699943 
L 323.775038 108.916283 
L 327.150253 108.916283 
L 328.83786 109.348963 
L 330.525467 109.132623 
L 332.213074 109.348963 
L 333.900681 109.348963 
L 337.275896 109.781642 
L 340.65111 109.781642 
L 342.338717 109.997982 
L 344.026324 109.997982 
L 345.713932 110.214322 
L 347.401539 110.214322 
L 349.089146 110.430662 
L 352.46436 110.430662 
L 355.839575 110.863341 
L 357.527182 110.863341 
L 357.527182 110.863341 
" clip-path="url(#p2b295a82c0)" style="fill: none; stroke: #20718b; stroke-width: 1.2; stroke-linecap: round"/>
   </g>
   <g id="line2d_15">
    <path d="M 84.134818 130.982942 
L 85.822425 129.252224 
L 90.885247 123.411049 
L 94.260461 119.949613 
L 99.323283 115.406477 
L 107.761319 108.916283 
L 111.136533 106.752885 
L 112.82414 105.887526 
L 114.511747 104.805827 
L 116.199355 103.940468 
L 117.886962 102.858769 
L 119.574569 101.99341 
L 128.012605 98.748313 
L 131.387819 97.882954 
L 138.138248 97.017595 
L 144.888677 97.017595 
L 149.951498 97.666614 
L 151.639105 98.099294 
L 155.01432 98.099294 
L 156.701927 98.531973 
L 158.389534 98.315633 
L 163.452356 98.315633 
L 165.139963 98.099294 
L 166.82757 98.099294 
L 171.890392 97.450274 
L 173.577999 97.450274 
L 175.265606 97.233934 
L 178.64082 97.233934 
L 180.328428 97.017595 
L 182.016035 97.017595 
L 185.391249 96.584915 
L 192.141678 96.584915 
L 193.829285 96.368575 
L 197.204499 96.368575 
L 198.892107 96.152235 
L 205.642535 96.152235 
L 207.330143 95.935896 
L 209.01775 96.152235 
L 210.705357 95.935896 
L 212.392964 95.935896 
L 214.080571 96.152235 
L 215.768178 95.935896 
L 217.455786 96.152235 
L 219.143393 95.935896 
L 220.831 95.935896 
L 222.518607 96.152235 
L 230.956643 96.152235 
L 232.64425 96.368575 
L 239.394679 96.368575 
L 241.082286 96.584915 
L 242.769893 96.368575 
L 244.457501 96.801255 
L 246.145108 96.584915 
L 247.832715 96.801255 
L 251.207929 96.801255 
L 252.895536 97.017595 
L 254.583144 97.017595 
L 256.270751 97.233934 
L 259.645965 97.233934 
L 261.333572 97.450274 
L 263.02118 97.450274 
L 264.708787 97.666614 
L 266.396394 97.450274 
L 269.771608 97.882954 
L 271.459215 97.882954 
L 273.146823 98.099294 
L 278.209644 98.099294 
L 279.897251 98.315633 
L 281.584859 98.315633 
L 284.960073 98.748313 
L 286.64768 98.748313 
L 288.335287 98.964653 
L 290.022895 98.748313 
L 291.710502 98.748313 
L 293.398109 98.964653 
L 295.085716 98.964653 
L 296.773323 99.397332 
L 301.836145 99.397332 
L 303.523752 99.613672 
L 305.211359 99.613672 
L 308.586574 100.046352 
L 310.274181 99.830012 
L 311.961788 100.262692 
L 313.649395 100.262692 
L 315.337002 100.479031 
L 317.024609 100.262692 
L 318.712217 100.695371 
L 322.087431 100.695371 
L 325.462645 101.128051 
L 327.150253 101.128051 
L 328.83786 101.34439 
L 332.213074 101.34439 
L 337.275896 101.99341 
L 338.963503 101.99341 
L 340.65111 102.20975 
L 342.338717 102.20975 
L 345.713932 102.642429 
L 347.401539 102.642429 
L 350.776753 103.075109 
L 352.46436 103.075109 
L 355.839575 103.507788 
L 357.527182 103.507788 
L 357.527182 103.507788 
" clip-path="url(#p2b295a82c0)" style="fill: none; stroke: #1c6989; stroke-width: 1.2; stroke-linecap: round"/>
   </g>
   <g id="line2d_16">
    <path d="M 84.134818 130.550262 
L 85.822425 128.386864 
L 87.510033 125.790787 
L 90.885247 121.031311 
L 92.572854 119.084253 
L 94.260461 116.920855 
L 97.635676 113.026739 
L 99.323283 111.296021 
L 101.01089 109.348963 
L 102.698497 107.834584 
L 104.386104 106.103866 
L 109.448926 101.56073 
L 114.511747 97.666614 
L 119.574569 94.421517 
L 121.262176 93.556158 
L 122.949783 92.474459 
L 124.637391 91.82544 
L 128.012605 90.094721 
L 133.075426 88.796683 
L 134.763034 88.580343 
L 136.450641 88.147663 
L 138.138248 87.931323 
L 139.825855 87.931323 
L 141.513462 88.147663 
L 144.888677 88.147663 
L 146.576284 88.364003 
L 148.263891 88.796683 
L 149.951498 88.796683 
L 151.639105 89.229362 
L 153.326713 89.445702 
L 155.01432 89.445702 
L 156.701927 89.878382 
L 158.389534 89.662042 
L 163.452356 89.662042 
L 171.890392 88.580343 
L 173.577999 88.580343 
L 175.265606 88.364003 
L 176.953213 88.364003 
L 178.64082 88.147663 
L 180.328428 88.147663 
L 182.016035 87.931323 
L 183.703642 87.931323 
L 185.391249 87.498644 
L 192.141678 87.498644 
L 193.829285 87.282304 
L 197.204499 87.282304 
L 198.892107 87.065964 
L 203.954928 87.065964 
L 205.642535 86.849624 
L 219.143393 86.849624 
L 220.831 86.633285 
L 222.518607 86.849624 
L 224.206214 86.849624 
L 225.893822 87.065964 
L 227.581429 86.849624 
L 230.956643 86.849624 
L 234.331857 87.282304 
L 236.019465 87.065964 
L 237.707072 87.282304 
L 239.394679 87.282304 
L 241.082286 87.498644 
L 242.769893 87.282304 
L 244.457501 87.714984 
L 249.520322 87.714984 
L 251.207929 87.931323 
L 254.583144 87.931323 
L 256.270751 88.364003 
L 259.645965 88.364003 
L 261.333572 88.580343 
L 263.02118 88.580343 
L 264.708787 88.796683 
L 266.396394 88.796683 
L 269.771608 89.229362 
L 271.459215 89.013022 
L 273.146823 89.229362 
L 274.83443 89.229362 
L 276.522037 89.445702 
L 278.209644 89.445702 
L 279.897251 89.662042 
L 281.584859 89.662042 
L 284.960073 90.094721 
L 286.64768 90.094721 
L 288.335287 90.311061 
L 291.710502 90.311061 
L 293.398109 90.527401 
L 295.085716 90.527401 
L 296.773323 90.96008 
L 300.148538 90.96008 
L 301.836145 91.17642 
L 303.523752 91.17642 
L 305.211359 91.39276 
L 306.898966 91.39276 
L 308.586574 91.6091 
L 310.274181 91.6091 
L 311.961788 92.041779 
L 313.649395 92.041779 
L 315.337002 92.258119 
L 317.024609 92.258119 
L 320.399824 92.690799 
L 322.087431 92.690799 
L 325.462645 93.123478 
L 327.150253 93.123478 
L 328.83786 93.339818 
L 330.525467 93.339818 
L 338.963503 94.421517 
L 340.65111 94.421517 
L 342.338717 94.637857 
L 344.026324 94.637857 
L 345.713932 95.070537 
L 347.401539 95.070537 
L 349.089146 95.503216 
L 350.776753 95.503216 
L 352.46436 95.719556 
L 354.151967 95.719556 
L 355.839575 96.152235 
L 357.527182 96.152235 
L 357.527182 96.152235 
" clip-path="url(#p2b295a82c0)" style="fill: none; stroke: #1d6188; stroke-width: 1.2; stroke-linecap: round"/>
   </g>
   <g id="line2d_17">
    <path d="M 84.134818 130.333923 
L 87.510033 124.709088 
L 90.885247 118.867914 
L 92.572854 116.488176 
L 94.260461 113.675759 
L 95.948068 111.512361 
L 97.635676 109.132623 
L 101.01089 104.805827 
L 104.386104 100.911711 
L 106.073712 99.180993 
L 107.761319 97.233934 
L 109.448926 95.503216 
L 111.136533 93.988838 
L 112.82414 92.258119 
L 114.511747 90.743741 
L 117.886962 88.147663 
L 119.574569 86.633285 
L 121.262176 85.767925 
L 122.949783 84.469887 
L 126.324998 82.739168 
L 128.012605 81.44113 
L 129.700212 81.00845 
L 131.387819 80.359431 
L 133.075426 79.926751 
L 134.763034 79.710411 
L 136.450641 79.277732 
L 138.138248 79.061392 
L 143.20107 79.061392 
L 146.576284 79.494072 
L 148.263891 79.926751 
L 149.951498 80.143091 
L 151.639105 80.57577 
L 153.326713 80.57577 
L 155.01432 80.79211 
L 156.701927 81.22479 
L 158.389534 81.22479 
L 160.077141 81.00845 
L 163.452356 81.00845 
L 166.82757 80.57577 
L 168.515177 80.143091 
L 171.890392 79.710411 
L 173.577999 79.710411 
L 175.265606 79.277732 
L 178.64082 79.277732 
L 182.016035 78.845052 
L 183.703642 78.845052 
L 185.391249 78.412373 
L 192.141678 78.412373 
L 195.516892 77.979693 
L 200.579714 77.979693 
L 202.267321 77.763353 
L 205.642535 77.763353 
L 207.330143 77.547013 
L 212.392964 77.547013 
L 214.080571 77.763353 
L 215.768178 77.547013 
L 217.455786 77.763353 
L 219.143393 77.547013 
L 220.831 77.547013 
L 222.518607 77.763353 
L 230.956643 77.763353 
L 232.64425 77.979693 
L 236.019465 77.979693 
L 237.707072 78.196033 
L 239.394679 78.196033 
L 241.082286 78.412373 
L 242.769893 78.196033 
L 244.457501 78.628712 
L 246.145108 78.628712 
L 247.832715 78.845052 
L 249.520322 78.628712 
L 252.895536 79.061392 
L 254.583144 79.061392 
L 256.270751 79.277732 
L 257.958358 79.277732 
L 261.333572 79.710411 
L 263.02118 79.710411 
L 264.708787 79.926751 
L 266.396394 79.926751 
L 269.771608 80.359431 
L 271.459215 80.359431 
L 273.146823 80.57577 
L 274.83443 80.57577 
L 276.522037 80.79211 
L 278.209644 80.79211 
L 279.897251 81.00845 
L 281.584859 81.00845 
L 288.335287 81.873809 
L 291.710502 81.873809 
L 293.398109 82.090149 
L 295.085716 82.090149 
L 296.773323 82.522829 
L 300.148538 82.522829 
L 303.523752 82.955508 
L 305.211359 82.955508 
L 308.586574 83.388188 
L 310.274181 83.388188 
L 311.961788 83.820867 
L 313.649395 83.820867 
L 315.337002 84.037207 
L 317.024609 84.037207 
L 318.712217 84.469887 
L 320.399824 84.469887 
L 325.462645 85.118906 
L 327.150253 85.118906 
L 328.83786 85.551586 
L 330.525467 85.551586 
L 342.338717 87.065964 
L 344.026324 87.065964 
L 345.713932 87.498644 
L 347.401539 87.498644 
L 349.089146 87.931323 
L 350.776753 88.147663 
L 352.46436 88.147663 
L 357.527182 88.796683 
L 357.527182 88.796683 
" clip-path="url(#p2b295a82c0)" style="fill: none; stroke: #1f5a85; stroke-width: 1.2; stroke-linecap: round"/>
   </g>
   <g id="line2d_18">
    <path d="M 84.134818 129.901243 
L 85.822425 126.872486 
L 90.885247 116.704516 
L 92.572854 113.892098 
L 94.260461 110.647001 
L 95.948068 108.050924 
L 97.635676 105.238507 
L 99.323283 102.858769 
L 101.01089 100.262692 
L 102.698497 98.099294 
L 104.386104 95.719556 
L 109.448926 89.229362 
L 111.136533 87.498644 
L 112.82414 85.551586 
L 114.511747 83.820867 
L 116.199355 82.306489 
L 117.886962 80.57577 
L 119.574569 79.061392 
L 122.949783 76.465314 
L 124.637391 75.599955 
L 128.012605 73.003878 
L 133.075426 71.05682 
L 134.763034 70.84048 
L 138.138248 69.975121 
L 139.825855 69.975121 
L 141.513462 70.191461 
L 143.20107 70.191461 
L 146.576284 70.62414 
L 148.263891 71.05682 
L 149.951498 71.273159 
L 151.639105 71.922179 
L 153.326713 71.922179 
L 155.01432 72.138519 
L 156.701927 72.571198 
L 158.389534 72.571198 
L 160.077141 72.354858 
L 163.452356 72.354858 
L 165.139963 71.922179 
L 168.515177 71.489499 
L 170.202785 71.05682 
L 175.265606 70.4078 
L 176.953213 70.4078 
L 180.328428 69.975121 
L 182.016035 69.975121 
L 187.078856 69.326101 
L 190.454071 69.326101 
L 192.141678 69.109762 
L 193.829285 69.109762 
L 195.516892 68.893422 
L 197.204499 68.893422 
L 198.892107 68.677082 
L 203.954928 68.677082 
L 205.642535 68.460742 
L 210.705357 68.460742 
L 212.392964 68.244402 
L 214.080571 68.460742 
L 215.768178 68.244402 
L 217.455786 68.460742 
L 219.143393 68.244402 
L 220.831 68.244402 
L 222.518607 68.460742 
L 229.269036 68.460742 
L 230.956643 68.677082 
L 232.64425 68.677082 
L 234.331857 68.893422 
L 236.019465 68.893422 
L 237.707072 69.109762 
L 239.394679 69.109762 
L 241.082286 69.326101 
L 242.769893 69.109762 
L 244.457501 69.542441 
L 246.145108 69.542441 
L 247.832715 69.758781 
L 251.207929 69.758781 
L 252.895536 69.975121 
L 254.583144 69.975121 
L 256.270751 70.4078 
L 259.645965 70.4078 
L 261.333572 70.84048 
L 263.02118 70.84048 
L 264.708787 71.05682 
L 266.396394 71.05682 
L 273.146823 71.922179 
L 274.83443 71.922179 
L 276.522037 72.138519 
L 278.209644 72.138519 
L 279.897251 72.354858 
L 281.584859 72.354858 
L 283.272466 72.787538 
L 284.960073 73.003878 
L 286.64768 73.003878 
L 288.335287 73.220218 
L 290.022895 73.220218 
L 293.398109 73.652897 
L 295.085716 73.652897 
L 296.773323 74.085577 
L 298.46093 74.085577 
L 300.148538 74.301917 
L 301.836145 74.301917 
L 308.586574 75.167276 
L 310.274181 75.167276 
L 311.961788 75.599955 
L 315.337002 76.032635 
L 317.024609 76.032635 
L 320.399824 76.465314 
L 322.087431 76.465314 
L 323.775038 76.897994 
L 325.462645 77.114334 
L 327.150253 77.114334 
L 328.83786 77.547013 
L 344.026324 79.494072 
L 345.713932 79.926751 
L 357.527182 81.44113 
L 357.527182 81.44113 
" clip-path="url(#p2b295a82c0)" style="fill: none; stroke: #225282; stroke-width: 1.2; stroke-linecap: round"/>
   </g>
   <g id="line2d_19">
    <path d="M 84.134818 129.684903 
L 85.822425 126.223466 
L 90.885247 114.541118 
L 97.635676 101.56073 
L 99.323283 98.748313 
L 101.01089 95.719556 
L 104.386104 90.527401 
L 106.073712 88.147663 
L 107.761319 85.551586 
L 109.448926 83.171848 
L 111.136533 81.00845 
L 112.82414 79.061392 
L 114.511747 76.897994 
L 116.199355 75.167276 
L 117.886962 73.220218 
L 119.574569 71.489499 
L 121.262176 69.975121 
L 126.324998 66.081004 
L 128.012605 64.350286 
L 129.700212 63.484927 
L 133.075426 62.186888 
L 136.450641 61.321529 
L 139.825855 60.888849 
L 143.20107 61.321529 
L 144.888677 61.321529 
L 151.639105 63.052247 
L 155.01432 63.484927 
L 156.701927 63.917607 
L 158.389534 63.917607 
L 160.077141 63.701267 
L 161.764749 63.701267 
L 166.82757 63.052247 
L 170.202785 62.186888 
L 176.953213 61.321529 
L 178.64082 61.321529 
L 187.078856 60.23983 
L 190.454071 60.23983 
L 193.829285 59.807151 
L 197.204499 59.807151 
L 198.892107 59.590811 
L 200.579714 59.590811 
L 202.267321 59.374471 
L 205.642535 59.374471 
L 207.330143 59.158131 
L 224.206214 59.158131 
L 225.893822 59.374471 
L 230.956643 59.374471 
L 234.331857 59.807151 
L 237.707072 59.807151 
L 241.082286 60.23983 
L 242.769893 60.02349 
L 244.457501 60.45617 
L 246.145108 60.45617 
L 247.832715 60.67251 
L 249.520322 60.67251 
L 252.895536 61.105189 
L 254.583144 61.105189 
L 256.270751 61.537869 
L 259.645965 61.537869 
L 261.333572 61.970548 
L 263.02118 61.970548 
L 264.708787 62.186888 
L 266.396394 62.186888 
L 268.084001 62.619568 
L 269.771608 62.835908 
L 271.459215 62.835908 
L 276.522037 63.484927 
L 278.209644 63.484927 
L 284.960073 64.350286 
L 286.64768 64.350286 
L 288.335287 64.782966 
L 290.022895 64.782966 
L 293.398109 65.215645 
L 295.085716 65.215645 
L 296.773323 65.648325 
L 298.46093 65.648325 
L 308.586574 66.946364 
L 310.274181 66.946364 
L 311.961788 67.379043 
L 315.337002 67.811723 
L 317.024609 67.811723 
L 318.712217 68.244402 
L 320.399824 68.460742 
L 322.087431 68.460742 
L 323.775038 68.893422 
L 327.150253 69.326101 
L 328.83786 69.758781 
L 330.525467 69.758781 
L 332.213074 69.975121 
L 333.900681 70.4078 
L 335.588288 70.62414 
L 337.275896 71.05682 
L 344.026324 71.922179 
L 345.713932 72.354858 
L 349.089146 72.787538 
L 350.776753 73.220218 
L 352.46436 73.220218 
L 354.151967 73.652897 
L 357.527182 74.085577 
L 357.527182 74.085577 
" clip-path="url(#p2b295a82c0)" style="fill: none; stroke: #26497e; stroke-width: 1.2; stroke-linecap: round"/>
   </g>
   <g id="line2d_20">
    <path d="M 84.134818 129.468563 
L 85.822425 125.574447 
L 89.19764 116.704516 
L 92.572854 108.699943 
L 94.260461 104.805827 
L 99.323283 94.637857 
L 102.698497 88.364003 
L 106.073712 82.522829 
L 107.761319 79.710411 
L 109.448926 77.114334 
L 114.511747 69.975121 
L 116.199355 68.028063 
L 117.886962 65.864665 
L 119.574569 63.917607 
L 121.262176 62.186888 
L 124.637391 59.158131 
L 126.324998 57.860092 
L 128.012605 55.696694 
L 131.387819 53.965976 
L 133.075426 53.316957 
L 138.138248 52.018918 
L 139.825855 52.018918 
L 141.513462 52.235258 
L 143.20107 52.235258 
L 144.888677 52.451598 
L 149.951498 53.749636 
L 151.639105 54.398656 
L 155.01432 54.831335 
L 156.701927 55.264015 
L 158.389534 55.264015 
L 161.764749 54.831335 
L 163.452356 54.831335 
L 165.139963 54.614996 
L 168.515177 53.749636 
L 170.202785 53.533297 
L 171.890392 53.100617 
L 187.078856 51.153559 
L 190.454071 51.153559 
L 195.516892 50.504539 
L 198.892107 50.504539 
L 200.579714 50.2882 
L 203.954928 50.2882 
L 207.330143 49.85552 
L 209.01775 50.07186 
L 210.705357 49.85552 
L 212.392964 49.85552 
L 214.080571 50.07186 
L 215.768178 49.85552 
L 217.455786 50.07186 
L 219.143393 49.85552 
L 220.831 49.85552 
L 222.518607 50.07186 
L 229.269036 50.07186 
L 232.64425 50.504539 
L 236.019465 50.504539 
L 241.082286 51.153559 
L 242.769893 50.937219 
L 244.457501 51.369899 
L 246.145108 51.369899 
L 247.832715 51.586238 
L 249.520322 51.586238 
L 257.958358 52.667937 
L 259.645965 52.667937 
L 261.333572 53.100617 
L 263.02118 53.100617 
L 273.146823 54.398656 
L 274.83443 54.398656 
L 276.522037 54.831335 
L 278.209644 54.831335 
L 283.272466 55.480355 
L 284.960073 55.913034 
L 286.64768 55.913034 
L 290.022895 56.345714 
L 291.710502 56.345714 
L 293.398109 56.778393 
L 295.085716 56.778393 
L 296.773323 57.211073 
L 298.46093 57.427413 
L 300.148538 57.427413 
L 306.898966 58.292772 
L 308.586574 58.725452 
L 310.274181 58.725452 
L 311.961788 59.158131 
L 317.024609 59.807151 
L 318.712217 60.23983 
L 320.399824 60.45617 
L 322.087431 60.45617 
L 323.775038 60.888849 
L 327.150253 61.321529 
L 328.83786 61.754209 
L 332.213074 62.186888 
L 333.900681 62.619568 
L 335.588288 62.835908 
L 337.275896 63.268587 
L 340.65111 63.701267 
L 342.338717 64.133946 
L 344.026324 64.350286 
L 345.713932 64.782966 
L 347.401539 64.999306 
L 349.089146 65.431985 
L 354.151967 66.081004 
L 355.839575 66.513684 
L 357.527182 66.730024 
L 357.527182 66.730024 
" clip-path="url(#p2b295a82c0)" style="fill: none; stroke: #29427a; stroke-width: 1.2; stroke-linecap: round"/>
   </g>
   <g id="line2d_21">
    <path d="M 84.134818 129.252224 
L 85.822425 124.925428 
L 89.19764 115.190137 
L 90.885247 110.430662 
L 92.572854 106.320206 
L 94.260461 101.77707 
L 95.948068 98.099294 
L 97.635676 93.988838 
L 104.386104 80.143091 
L 109.448926 71.05682 
L 111.136533 68.460742 
L 112.82414 65.648325 
L 114.511747 63.052247 
L 116.199355 60.888849 
L 117.886962 58.509112 
L 119.574569 56.345714 
L 121.262176 54.614996 
L 122.949783 52.667937 
L 124.637391 51.153559 
L 126.324998 49.422841 
L 128.012605 47.043103 
L 133.075426 44.447025 
L 138.138248 43.148987 
L 139.825855 42.932647 
L 144.888677 43.581666 
L 146.576284 44.014346 
L 148.263891 44.663365 
L 149.951498 44.879705 
L 151.639105 45.745064 
L 155.01432 46.177744 
L 156.701927 46.610423 
L 160.077141 46.610423 
L 161.764749 46.177744 
L 163.452356 46.177744 
L 165.139963 45.745064 
L 166.82757 45.528724 
L 171.890392 44.230686 
L 173.577999 44.014346 
L 175.265606 43.581666 
L 182.016035 42.716307 
L 183.703642 42.716307 
L 185.391249 42.283627 
L 187.078856 42.067288 
L 188.766464 42.067288 
L 190.454071 41.850948 
L 192.141678 41.850948 
L 195.516892 41.418268 
L 197.204499 41.418268 
L 198.892107 41.201928 
L 200.579714 41.201928 
L 202.267321 40.985589 
L 205.642535 40.985589 
L 207.330143 40.769249 
L 210.705357 40.769249 
L 212.392964 40.552909 
L 214.080571 40.769249 
L 215.768178 40.552909 
L 217.455786 40.769249 
L 219.143393 40.769249 
L 220.831 40.552909 
L 222.518607 40.769249 
L 224.206214 40.769249 
L 225.893822 40.985589 
L 230.956643 40.985589 
L 234.331857 41.418268 
L 236.019465 41.418268 
L 237.707072 41.634608 
L 239.394679 41.634608 
L 241.082286 42.067288 
L 242.769893 41.850948 
L 244.457501 42.283627 
L 246.145108 42.283627 
L 247.832715 42.716307 
L 249.520322 42.716307 
L 252.895536 43.148987 
L 254.583144 43.148987 
L 256.270751 43.581666 
L 257.958358 43.798006 
L 259.645965 43.798006 
L 261.333572 44.230686 
L 263.02118 44.230686 
L 264.708787 44.663365 
L 266.396394 44.663365 
L 268.084001 44.879705 
L 269.771608 45.312385 
L 271.459215 45.312385 
L 273.146823 45.745064 
L 274.83443 45.745064 
L 276.522037 46.177744 
L 278.209644 46.177744 
L 279.897251 46.610423 
L 281.584859 46.610423 
L 283.272466 46.826763 
L 284.960073 47.259443 
L 286.64768 47.259443 
L 288.335287 47.692122 
L 290.022895 47.908462 
L 291.710502 47.908462 
L 293.398109 48.341142 
L 295.085716 48.341142 
L 296.773323 48.773821 
L 306.898966 50.07186 
L 308.586574 50.504539 
L 310.274181 50.504539 
L 311.961788 50.937219 
L 313.649395 51.153559 
L 315.337002 51.586238 
L 317.024609 51.586238 
L 320.399824 52.451598 
L 322.087431 52.451598 
L 325.462645 53.316957 
L 327.150253 53.316957 
L 328.83786 53.965976 
L 332.213074 54.398656 
L 333.900681 54.831335 
L 335.588288 55.047675 
L 338.963503 55.913034 
L 340.65111 56.129374 
L 342.338717 56.562054 
L 344.026324 56.778393 
L 345.713932 57.211073 
L 347.401539 57.427413 
L 350.776753 58.292772 
L 354.151967 58.725452 
L 355.839575 59.158131 
L 357.527182 59.374471 
L 357.527182 59.374471 
" clip-path="url(#p2b295a82c0)" style="fill: none; stroke: #2b3975; stroke-width: 1.2; stroke-linecap: round"/>
   </g>
   <g id="patch_3">
    <path d="M 70.4652 234.5448 
L 70.4652 31.3152 
" style="fill: none; stroke: #262626; stroke-linejoin: miter; stroke-linecap: square"/>
   </g>
   <g id="patch_4">
    <path d="M 371.1968 234.5448 
L 371.1968 31.3152 
" style="fill: none; stroke: #262626; stroke-linejoin: miter; stroke-linecap: square"/>
   </g>
   <g id="patch_5">
    <path d="M 70.4652 234.5448 
L 371.1968 234.5448 
" style="fill: none; stroke: #262626; stroke-linejoin: miter; stroke-linecap: square"/>
   </g>
   <g id="patch_6">
    <path d="M 70.4652 31.3152 
L 371.1968 31.3152 
" style="fill: none; stroke: #262626; stroke-linejoin: miter; stroke-linecap: square"/>
   </g>
   <g id="text_15">
    <!-- Cold Junction Error - Anti-Symmetrized Tables -->
    <g style="fill: #262626" transform="translate(68.02135 25.3152) scale(0.1344 -0.1344)">
     <defs>
      <path id="DejaVuSans-6c" d="M 603 4863 
L 1178 4863 
L 1178 0 
L 603 0 
L 603 4863 
z
" transform="scale(0.015625)"/>
      <path id="DejaVuSans-64" d="M 2906 2969 
L 2906 4863 
L 3481 4863 
L 3481 0 
L 2906 0 
L 2906 525 
Q 2725 213 2448 61 
Q 2172 -91 1784 -91 
Q 1150 -91 751 415 
Q 353 922 353 1747 
Q 353 2572 751 3078 
Q 1150 3584 1784 3584 
Q 2172 3584 2448 3432 
Q 2725 3281 2906 2969 
z
M 947 1747 
Q 947 1113 1208 752 
Q 1469 391 1925 391 
Q 2381 391 2643 752 
Q 2906 1113 2906 1747 
Q 2906 2381 2643 2742 
Q 2381 3103 1925 3103 
Q 1469 3103 1208 2742 
Q 947 2381 947 1747 
z
" transform="scale(0.015625)"/>
      <path id="DejaVuSans-2d" d="M 313 2009 
L 1997 2009 
L 1997 1497 
L 313 1497 
L 313 2009 
z
" transform="scale(0.015625)"/>
      <path id="DejaVuSans-41" d="M 2188 4044 
L 1331 1722 
L 3047 1722 
L 2188 4044 
z
M 1831 4666 
L 2547 4666 
L 4325 0 
L 3669 0 
L 3244 1197 
L 1141 1197 
L 716 0 
L 50 0 
L 1831 4666 
z
" transform="scale(0.015625)"/>
      <path id="DejaVuSans-53" d="M 3425 4513 
L 3425 3897 
Q 3066 4069 2747 4153 
Q 2428 4238 2131 4238 
Q 1616 4238 1336 4038 
Q 1056 3838 1056 3469 
Q 1056 3159 1242 3001 
Q 1428 2844 1947 2747 
L 2328 2669 
Q 3034 2534 3370 2195 
Q 3706 1856 3706 1288 
Q 3706 609 3251 259 
Q 2797 -91 1919 -91 
Q 1588 -91 1214 -16 
Q 841 59 441 206 
L 441 856 
Q 825 641 1194 531 
Q 1563 422 1919 422 
Q 2459 422 2753 634 
Q 3047 847 3047 1241 
Q 3047 1584 2836 1778 
Q 2625 1972 2144 2069 
L 1759 2144 
Q 1053 2284 737 2584 
Q 422 2884 422 3419 
Q 422 4038 858 4394 
Q 1294 4750 2059 4750 
Q 2388 4750 2728 4690 
Q 3069 4631 3425 4513 
z
" transform="scale(0.015625)"/>
      <path id="DejaVuSans-79" d="M 2059 -325 
Q 1816 -950 1584 -1140 
Q 1353 -1331 966 -1331 
L 506 -1331 
L 506 -850 
L 844 -850 
Q 1081 -850 1212 -737 
Q 1344 -625 1503 -206 
L 1606 56 
L 191 3500 
L 800 3500 
L 1894 763 
L 2988 3500 
L 3597 3500 
L 2059 -325 
z
" transform="scale(0.015625)"/>
      <path id="DejaVuSans-7a" d="M 353 3500 
L 3084 3500 
L 3084 2975 
L 922 459 
L 3084 459 
L 3084 0 
L 275 0 
L 275 525 
L 2438 3041 
L 353 3041 
L 353 3500 
z
" transform="scale(0.015625)"/>
      <path id="DejaVuSans-62" d="M 3116 1747 
Q 3116 2381 2855 2742 
Q 2594 3103 2138 3103 
Q 1681 3103 1420 2742 
Q 1159 2381 1159 1747 
Q 1159 1113 1420 752 
Q 1681 391 2138 391 
Q 2594 391 2855 752 
Q 3116 1113 3116 1747 
z
M 1159 2969 
Q 1341 3281 1617 3432 
Q 1894 3584 2278 3584 
Q 2916 3584 3314 3078 
Q 3713 2572 3713 1747 
Q 3713 922 3314 415 
Q 2916 -91 2278 -91 
Q 1894 -91 1617 61 
Q 1341 213 1159 525 
L 1159 0 
L 581 0 
L 581 4863 
L 1159 4863 
L 1159 2969 
z
" transform="scale(0.015625)"/>
      <path id="DejaVuSans-73" d="M 2834 3397 
L 2834 2853 
Q 2591 2978 2328 3040 
Q 2066 3103 1784 3103 
Q 1356 3103 1142 2972 
Q 928 2841 928 2578 
Q 928 2378 1081 2264 
Q 1234 2150 1697 2047 
L 1894 2003 
Q 2506 1872 2764 1633 
Q 3022 1394 3022 966 
Q 3022 478 2636 193 
Q 2250 -91 1575 -91 
Q 1294 -91 989 -36 
Q 684 19 347 128 
L 347 722 
Q 666 556 975 473 
Q 1284 391 1588 391 
Q 1994 391 2212 530 
Q 2431 669 2431 922 
Q 2431 1156 2273 1281 
Q 2116 1406 1581 1522 
L 1381 1569 
Q 847 1681 609 1914 
Q 372 2147 372 2553 
Q 372 3047 722 3315 
Q 1072 3584 1716 3584 
Q 2034 3584 2315 3537 
Q 2597 3491 2834 3397 
z
" transform="scale(0.015625)"/>
     </defs>
     <use xlink:href="#DejaVuSans-43"/>
     <use xlink:href="#DejaVuSans-6f" x="69.824219"/>
     <use xlink:href="#DejaVuSans-6c" x="131.005859"/>
     <use xlink:href="#DejaVuSans-64" x="158.789062"/>
     <use xlink:href="#DejaVuSans-20" x="222.265625"/>
     <use xlink:href="#DejaVuSans-4a" x="254.052734"/>
     <use xlink:href="#DejaVuSans-75" x="283.544922"/>
     <use xlink:href="#DejaVuSans-6e" x="346.923828"/>
     <use xlink:href="#DejaVuSans-63" x="410.302734"/>
     <use xlink:href="#DejaVuSans-74" x="465.283203"/>
     <use xlink:href="#DejaVuSans-69" x="504.492188"/>
     <use xlink:href="#DejaVuSans-6f" x="532.275391"/>
     <use xlink:href="#DejaVuSans-6e" x="593.457031"/>
     <use xlink:href="#DejaVuSans-20" x="656.835938"/>
     <use xlink:href="#DejaVuSans-45" x="688.623047"/>
     <use xlink:href="#DejaVuSans-72" x="751.806641"/>
     <use xlink:href="#DejaVuSans-72" x="791.169922"/>
     <use xlink:href="#DejaVuSans-6f" x="830.033203"/>
     <use xlink:href="#DejaVuSans-72" x="891.214844"/>
     <use xlink:href="#DejaVuSans-20" x="932.328125"/>
     <use xlink:href="#DejaVuSans-2d" x="964.115234"/>
     <use xlink:href="#DejaVuSans-20" x="1000.199219"/>
     <use xlink:href="#DejaVuSans-41" x="1031.986328"/>
     <use xlink:href="#DejaVuSans-6e" x="1100.394531"/>
     <use xlink:href="#DejaVuSans-74" x="1163.773438"/>
     <use xlink:href="#DejaVuSans-69" x="1202.982422"/>
     <use xlink:href="#DejaVuSans-2d" x="1230.765625"/>
     <use xlink:href="#DejaVuSans-53" x="1266.849609"/>
     <use xlink:href="#DejaVuSans-79" x="1330.326172"/>
     <use xlink:href="#DejaVuSans-6d" x="1389.505859"/>
     <use xlink:href="#DejaVuSans-6d" x="1486.917969"/>
     <use xlink:href="#DejaVuSans-65" x="1584.330078"/>
     <use xlink:href="#DejaVuSans-74" x="1645.853516"/>
     <use xlink:href="#DejaVuSans-72" x="1685.0625"/>
     <use xlink:href="#DejaVuSans-69" x="1726.175781"/>
     <use xlink:href="#DejaVuSans-7a" x="1753.958984"/>
     <use xlink:href="#DejaVuSans-65" x="1806.449219"/>
     <use xlink:href="#DejaVuSans-64" x="1867.972656"/>
     <use xlink:href="#DejaVuSans-20" x="1931.449219"/>
     <use xlink:href="#DejaVuSans-54" x="1963.236328"/>
     <use xlink:href="#DejaVuSans-61" x="2007.820312"/>
     <use xlink:href="#DejaVuSans-62" x="2069.099609"/>
     <use xlink:href="#DejaVuSans-6c" x="2132.576172"/>
     <use xlink:href="#DejaVuSans-65" x="2160.359375"/>
     <use xlink:href="#DejaVuSans-73" x="2221.882812"/>
    </g>
   </g>
   <g id="legend_1">
    <g id="patch_7">
     <path d="M 379.8208 259.25655 
L 558.443475 259.25655 
Q 560.907475 259.25655 560.907475 256.79255 
L 560.907475 39.9392 
Q 560.907475 37.4752 558.443475 37.4752 
L 379.8208 37.4752 
Q 377.3568 37.4752 377.3568 39.9392 
L 377.3568 256.79255 
Q 377.3568 259.25655 379.8208 259.25655 
z
" style="fill: #ffffff; opacity: 0.8; stroke: #cccccc; stroke-width: 0.8; stroke-linejoin: miter"/>
    </g>
    <g id="text_16">
     <!-- Cold Junc. Temp -->
     <g style="fill: #262626" transform="translate(415.683987 52.6155) scale(0.1344 -0.1344)">
      <use xlink:href="#DejaVuSans-43"/>
      <use xlink:href="#DejaVuSans-6f" x="69.824219"/>
      <use xlink:href="#DejaVuSans-6c" x="131.005859"/>
      <use xlink:href="#DejaVuSans-64" x="158.789062"/>
      <use xlink:href="#DejaVuSans-20" x="222.265625"/>
      <use xlink:href="#DejaVuSans-4a" x="254.052734"/>
      <use xlink:href="#DejaVuSans-75" x="283.544922"/>
      <use xlink:href="#DejaVuSans-6e" x="346.923828"/>
      <use xlink:href="#DejaVuSans-63" x="410.302734"/>
      <use xlink:href="#DejaVuSans-2e" x="465.283203"/>
      <use xlink:href="#DejaVuSans-20" x="497.070312"/>
      <use xlink:href="#DejaVuSans-54" x="528.857422"/>
      <use xlink:href="#DejaVuSans-65" x="572.941406"/>
      <use xlink:href="#DejaVuSans-6d" x="634.464844"/>
      <use xlink:href="#DejaVuSans-70" x="731.876953"/>
     </g>
    </g>
    <g id="line2d_22">
     <path d="M 382.2848 66.619875 
L 394.6048 66.619875 
L 406.9248 66.619875 
" style="fill: none; stroke: #99c791; stroke-width: 1.2; stroke-linecap: round"/>
    </g>
    <g id="text_17">
     <!-- -10 (C) -->
     <g style="fill: #262626" transform="translate(416.7808 70.931875) scale(0.1232 -0.1232)">
      <use xlink:href="#DejaVuSans-2d"/>
      <use xlink:href="#DejaVuSans-31" x="36.083984"/>
      <use xlink:href="#DejaVuSans-30" x="99.707031"/>
      <use xlink:href="#DejaVuSans-20" x="163.330078"/>
      <use xlink:href="#DejaVuSans-28" x="195.117188"/>
      <use xlink:href="#DejaVuSans-43" x="234.130859"/>
      <use xlink:href="#DejaVuSans-29" x="303.955078"/>
     </g>
    </g>
    <g id="line2d_23">
     <path d="M 382.2848 84.703325 
L 394.6048 84.703325 
L 406.9248 84.703325 
" style="fill: none; stroke: #8bc191; stroke-width: 1.2; stroke-linecap: round"/>
    </g>
    <g id="text_18">
     <!-- -9 (C) -->
     <g style="fill: #262626" transform="translate(416.7808 89.015325) scale(0.1232 -0.1232)">
      <defs>
       <path id="DejaVuSans-39" d="M 703 97 
L 703 672 
Q 941 559 1184 500 
Q 1428 441 1663 441 
Q 2288 441 2617 861 
Q 2947 1281 2994 2138 
Q 2813 1869 2534 1725 
Q 2256 1581 1919 1581 
Q 1219 1581 811 2004 
Q 403 2428 403 3163 
Q 403 3881 828 4315 
Q 1253 4750 1959 4750 
Q 2769 4750 3195 4129 
Q 3622 3509 3622 2328 
Q 3622 1225 3098 567 
Q 2575 -91 1691 -91 
Q 1453 -91 1209 -44 
Q 966 3 703 97 
z
M 1959 2075 
Q 2384 2075 2632 2365 
Q 2881 2656 2881 3163 
Q 2881 3666 2632 3958 
Q 2384 4250 1959 4250 
Q 1534 4250 1286 3958 
Q 1038 3666 1038 3163 
Q 1038 2656 1286 2365 
Q 1534 2075 1959 2075 
z
" transform="scale(0.015625)"/>
      </defs>
      <use xlink:href="#DejaVuSans-2d"/>
      <use xlink:href="#DejaVuSans-39" x="36.083984"/>
      <use xlink:href="#DejaVuSans-20" x="99.707031"/>
      <use xlink:href="#DejaVuSans-28" x="131.494141"/>
      <use xlink:href="#DejaVuSans-43" x="170.507812"/>
      <use xlink:href="#DejaVuSans-29" x="240.332031"/>
     </g>
    </g>
    <g id="line2d_24">
     <path d="M 382.2848 102.786775 
L 394.6048 102.786775 
L 406.9248 102.786775 
" style="fill: none; stroke: #7fbb91; stroke-width: 1.2; stroke-linecap: round"/>
    </g>
    <g id="text_19">
     <!-- -8 (C) -->
     <g style="fill: #262626" transform="translate(416.7808 107.098775) scale(0.1232 -0.1232)">
      <defs>
       <path id="DejaVuSans-38" d="M 2034 2216 
Q 1584 2216 1326 1975 
Q 1069 1734 1069 1313 
Q 1069 891 1326 650 
Q 1584 409 2034 409 
Q 2484 409 2743 651 
Q 3003 894 3003 1313 
Q 3003 1734 2745 1975 
Q 2488 2216 2034 2216 
z
M 1403 2484 
Q 997 2584 770 2862 
Q 544 3141 544 3541 
Q 544 4100 942 4425 
Q 1341 4750 2034 4750 
Q 2731 4750 3128 4425 
Q 3525 4100 3525 3541 
Q 3525 3141 3298 2862 
Q 3072 2584 2669 2484 
Q 3125 2378 3379 2068 
Q 3634 1759 3634 1313 
Q 3634 634 3220 271 
Q 2806 -91 2034 -91 
Q 1263 -91 848 271 
Q 434 634 434 1313 
Q 434 1759 690 2068 
Q 947 2378 1403 2484 
z
M 1172 3481 
Q 1172 3119 1398 2916 
Q 1625 2713 2034 2713 
Q 2441 2713 2670 2916 
Q 2900 3119 2900 3481 
Q 2900 3844 2670 4047 
Q 2441 4250 2034 4250 
Q 1625 4250 1398 4047 
Q 1172 3844 1172 3481 
z
" transform="scale(0.015625)"/>
      </defs>
      <use xlink:href="#DejaVuSans-2d"/>
      <use xlink:href="#DejaVuSans-38" x="36.083984"/>
      <use xlink:href="#DejaVuSans-20" x="99.707031"/>
      <use xlink:href="#DejaVuSans-28" x="131.494141"/>
      <use xlink:href="#DejaVuSans-43" x="170.507812"/>
      <use xlink:href="#DejaVuSans-29" x="240.332031"/>
     </g>
    </g>
    <g id="line2d_25">
     <path d="M 382.2848 120.870225 
L 394.6048 120.870225 
L 406.9248 120.870225 
" style="fill: none; stroke: #72b490; stroke-width: 1.2; stroke-linecap: round"/>
    </g>
    <g id="text_20">
     <!-- -7 (C) -->
     <g style="fill: #262626" transform="translate(416.7808 125.182225) scale(0.1232 -0.1232)">
      <use xlink:href="#DejaVuSans-2d"/>
      <use xlink:href="#DejaVuSans-37" x="36.083984"/>
      <use xlink:href="#DejaVuSans-20" x="99.707031"/>
      <use xlink:href="#DejaVuSans-28" x="131.494141"/>
      <use xlink:href="#DejaVuSans-43" x="170.507812"/>
      <use xlink:href="#DejaVuSans-29" x="240.332031"/>
     </g>
    </g>
    <g id="line2d_26">
     <path d="M 382.2848 138.953675 
L 394.6048 138.953675 
L 406.9248 138.953675 
" style="fill: none; stroke: #66ae90; stroke-width: 1.2; stroke-linecap: round"/>
    </g>
    <g id="text_21">
     <!-- -6 (C) -->
     <g style="fill: #262626" transform="translate(416.7808 143.265675) scale(0.1232 -0.1232)">
      <defs>
       <path id="DejaVuSans-36" d="M 2113 2584 
Q 1688 2584 1439 2293 
Q 1191 2003 1191 1497 
Q 1191 994 1439 701 
Q 1688 409 2113 409 
Q 2538 409 2786 701 
Q 3034 994 3034 1497 
Q 3034 2003 2786 2293 
Q 2538 2584 2113 2584 
z
M 3366 4563 
L 3366 3988 
Q 3128 4100 2886 4159 
Q 2644 4219 2406 4219 
Q 1781 4219 1451 3797 
Q 1122 3375 1075 2522 
Q 1259 2794 1537 2939 
Q 1816 3084 2150 3084 
Q 2853 3084 3261 2657 
Q 3669 2231 3669 1497 
Q 3669 778 3244 343 
Q 2819 -91 2113 -91 
Q 1303 -91 875 529 
Q 447 1150 447 2328 
Q 447 3434 972 4092 
Q 1497 4750 2381 4750 
Q 2619 4750 2861 4703 
Q 3103 4656 3366 4563 
z
" transform="scale(0.015625)"/>
      </defs>
      <use xlink:href="#DejaVuSans-2d"/>
      <use xlink:href="#DejaVuSans-36" x="36.083984"/>
      <use xlink:href="#DejaVuSans-20" x="99.707031"/>
      <use xlink:href="#DejaVuSans-28" x="131.494141"/>
      <use xlink:href="#DejaVuSans-43" x="170.507812"/>
      <use xlink:href="#DejaVuSans-29" x="240.332031"/>
     </g>
    </g>
    <g id="line2d_27">
     <path d="M 382.2848 157.037125 
L 394.6048 157.037125 
L 406.9248 157.037125 
" style="fill: none; stroke: #5ca890; stroke-width: 1.2; stroke-linecap: round"/>
    </g>
    <g id="text_22">
     <!-- -5 (C) -->
     <g style="fill: #262626" transform="translate(416.7808 161.349125) scale(0.1232 -0.1232)">
      <use xlink:href="#DejaVuSans-2d"/>
      <use xlink:href="#DejaVuSans-35" x="36.083984"/>
      <use xlink:href="#DejaVuSans-20" x="99.707031"/>
      <use xlink:href="#DejaVuSans-28" x="131.494141"/>
      <use xlink:href="#DejaVuSans-43" x="170.507812"/>
      <use xlink:href="#DejaVuSans-29" x="240.332031"/>
     </g>
    </g>
    <g id="line2d_28">
     <path d="M 382.2848 175.120575 
L 394.6048 175.120575 
L 406.9248 175.120575 
" style="fill: none; stroke: #53a190; stroke-width: 1.2; stroke-linecap: round"/>
    </g>
    <g id="text_23">
     <!-- -4 (C) -->
     <g style="fill: #262626" transform="translate(416.7808 179.432575) scale(0.1232 -0.1232)">
      <use xlink:href="#DejaVuSans-2d"/>
      <use xlink:href="#DejaVuSans-34" x="36.083984"/>
      <use xlink:href="#DejaVuSans-20" x="99.707031"/>
      <use xlink:href="#DejaVuSans-28" x="131.494141"/>
      <use xlink:href="#DejaVuSans-43" x="170.507812"/>
      <use xlink:href="#DejaVuSans-29" x="240.332031"/>
     </g>
    </g>
    <g id="line2d_29">
     <path d="M 382.2848 193.204025 
L 394.6048 193.204025 
L 406.9248 193.204025 
" style="fill: none; stroke: #4a9a8f; stroke-width: 1.2; stroke-linecap: round"/>
    </g>
    <g id="text_24">
     <!-- -3 (C) -->
     <g style="fill: #262626" transform="translate(416.7808 197.516025) scale(0.1232 -0.1232)">
      <defs>
       <path id="DejaVuSans-33" d="M 2597 2516 
Q 3050 2419 3304 2112 
Q 3559 1806 3559 1356 
Q 3559 666 3084 287 
Q 2609 -91 1734 -91 
Q 1441 -91 1130 -33 
Q 819 25 488 141 
L 488 750 
Q 750 597 1062 519 
Q 1375 441 1716 441 
Q 2309 441 2620 675 
Q 2931 909 2931 1356 
Q 2931 1769 2642 2001 
Q 2353 2234 1838 2234 
L 1294 2234 
L 1294 2753 
L 1863 2753 
Q 2328 2753 2575 2939 
Q 2822 3125 2822 3475 
Q 2822 3834 2567 4026 
Q 2313 4219 1838 4219 
Q 1578 4219 1281 4162 
Q 984 4106 628 3988 
L 628 4550 
Q 988 4650 1302 4700 
Q 1616 4750 1894 4750 
Q 2613 4750 3031 4423 
Q 3450 4097 3450 3541 
Q 3450 3153 3228 2886 
Q 3006 2619 2597 2516 
z
" transform="scale(0.015625)"/>
      </defs>
      <use xlink:href="#DejaVuSans-2d"/>
      <use xlink:href="#DejaVuSans-33" x="36.083984"/>
      <use xlink:href="#DejaVuSans-20" x="99.707031"/>
      <use xlink:href="#DejaVuSans-28" x="131.494141"/>
      <use xlink:href="#DejaVuSans-43" x="170.507812"/>
      <use xlink:href="#DejaVuSans-29" x="240.332031"/>
     </g>
    </g>
    <g id="line2d_30">
     <path d="M 382.2848 211.287475 
L 394.6048 211.287475 
L 406.9248 211.287475 
" style="fill: none; stroke: #43938f; stroke-width: 1.2; stroke-linecap: round"/>
    </g>
    <g id="text_25">
     <!-- -2 (C) -->
     <g style="fill: #262626" transform="translate(416.7808 215.599475) scale(0.1232 -0.1232)">
      <use xlink:href="#DejaVuSans-2d"/>
      <use xlink:href="#DejaVuSans-32" x="36.083984"/>
      <use xlink:href="#DejaVuSans-20" x="99.707031"/>
      <use xlink:href="#DejaVuSans-28" x="131.494141"/>
      <use xlink:href="#DejaVuSans-43" x="170.507812"/>
      <use xlink:href="#DejaVuSans-29" x="240.332031"/>
     </g>
    </g>
    <g id="line2d_31">
     <path d="M 382.2848 229.370925 
L 394.6048 229.370925 
L 406.9248 229.370925 
" style="fill: none; stroke: #3b8c8e; stroke-width: 1.2; stroke-linecap: round"/>
    </g>
    <g id="text_26">
     <!-- -1 (C) -->
     <g style="fill: #262626" transform="translate(416.7808 233.682925) scale(0.1232 -0.1232)">
      <use xlink:href="#DejaVuSans-2d"/>
      <use xlink:href="#DejaVuSans-31" x="36.083984"/>
      <use xlink:href="#DejaVuSans-20" x="99.707031"/>
      <use xlink:href="#DejaVuSans-28" x="131.494141"/>
      <use xlink:href="#DejaVuSans-43" x="170.507812"/>
      <use xlink:href="#DejaVuSans-29" x="240.332031"/>
     </g>
    </g>
    <g id="line2d_32">
     <path d="M 382.2848 247.454375 
L 394.6048 247.454375 
L 406.9248 247.454375 
" style="fill: none; stroke: #33858d; stroke-width: 1.2; stroke-linecap: round"/>
    </g>
    <g id="text_27">
     <!-- 0 (C) -->
     <g style="fill: #262626" transform="translate(416.7808 251.766375) scale(0.1232 -0.1232)">
      <use xlink:href="#DejaVuSans-30"/>
      <use xlink:href="#DejaVuSans-20" x="63.623047"/>
      <use xlink:href="#DejaVuSans-28" x="95.410156"/>
      <use xlink:href="#DejaVuSans-43" x="134.423828"/>
      <use xlink:href="#DejaVuSans-29" x="204.248047"/>
     </g>
    </g>
    <g id="line2d_33">
     <path d="M 483.67455 66.619875 
L 495.99455 66.619875 
L 508.31455 66.619875 
" style="fill: none; stroke: #2c7e8c; stroke-width: 1.2; stroke-linecap: round"/>
    </g>
    <g id="text_28">
     <!-- 1 (C) -->
     <g style="fill: #262626" transform="translate(518.17055 70.931875) scale(0.1232 -0.1232)">
      <use xlink:href="#DejaVuSans-31"/>
      <use xlink:href="#DejaVuSans-20" x="63.623047"/>
      <use xlink:href="#DejaVuSans-28" x="95.410156"/>
      <use xlink:href="#DejaVuSans-43" x="134.423828"/>
      <use xlink:href="#DejaVuSans-29" x="204.248047"/>
     </g>
    </g>
    <g id="line2d_34">
     <path d="M 483.67455 84.703325 
L 495.99455 84.703325 
L 508.31455 84.703325 
" style="fill: none; stroke: #25778c; stroke-width: 1.2; stroke-linecap: round"/>
    </g>
    <g id="text_29">
     <!-- 2 (C) -->
     <g style="fill: #262626" transform="translate(518.17055 89.015325) scale(0.1232 -0.1232)">
      <use xlink:href="#DejaVuSans-32"/>
      <use xlink:href="#DejaVuSans-20" x="63.623047"/>
      <use xlink:href="#DejaVuSans-28" x="95.410156"/>
      <use xlink:href="#DejaVuSans-43" x="134.423828"/>
      <use xlink:href="#DejaVuSans-29" x="204.248047"/>
     </g>
    </g>
    <g id="line2d_35">
     <path d="M 483.67455 102.786775 
L 495.99455 102.786775 
L 508.31455 102.786775 
" style="fill: none; stroke: #20718b; stroke-width: 1.2; stroke-linecap: round"/>
    </g>
    <g id="text_30">
     <!-- 3 (C) -->
     <g style="fill: #262626" transform="translate(518.17055 107.098775) scale(0.1232 -0.1232)">
      <use xlink:href="#DejaVuSans-33"/>
      <use xlink:href="#DejaVuSans-20" x="63.623047"/>
      <use xlink:href="#DejaVuSans-28" x="95.410156"/>
      <use xlink:href="#DejaVuSans-43" x="134.423828"/>
      <use xlink:href="#DejaVuSans-29" x="204.248047"/>
     </g>
    </g>
    <g id="line2d_36">
     <path d="M 483.67455 120.870225 
L 495.99455 120.870225 
L 508.31455 120.870225 
" style="fill: none; stroke: #1c6989; stroke-width: 1.2; stroke-linecap: round"/>
    </g>
    <g id="text_31">
     <!-- 4 (C) -->
     <g style="fill: #262626" transform="translate(518.17055 125.182225) scale(0.1232 -0.1232)">
      <use xlink:href="#DejaVuSans-34"/>
      <use xlink:href="#DejaVuSans-20" x="63.623047"/>
      <use xlink:href="#DejaVuSans-28" x="95.410156"/>
      <use xlink:href="#DejaVuSans-43" x="134.423828"/>
      <use xlink:href="#DejaVuSans-29" x="204.248047"/>
     </g>
    </g>
    <g id="line2d_37">
     <path d="M 483.67455 138.953675 
L 495.99455 138.953675 
L 508.31455 138.953675 
" style="fill: none; stroke: #1d6188; stroke-width: 1.2; stroke-linecap: round"/>
    </g>
    <g id="text_32">
     <!-- 5 (C) -->
     <g style="fill: #262626" transform="translate(518.17055 143.265675) scale(0.1232 -0.1232)">
      <use xlink:href="#DejaVuSans-35"/>
      <use xlink:href="#DejaVuSans-20" x="63.623047"/>
      <use xlink:href="#DejaVuSans-28" x="95.410156"/>
      <use xlink:href="#DejaVuSans-43" x="134.423828"/>
      <use xlink:href="#DejaVuSans-29" x="204.248047"/>
     </g>
    </g>
    <g id="line2d_38">
     <path d="M 483.67455 157.037125 
L 495.99455 157.037125 
L 508.31455 157.037125 
" style="fill: none; stroke: #1f5a85; stroke-width: 1.2; stroke-linecap: round"/>
    </g>
    <g id="text_33">
     <!-- 6 (C) -->
     <g style="fill: #262626" transform="translate(518.17055 161.349125) scale(0.1232 -0.1232)">
      <use xlink:href="#DejaVuSans-36"/>
      <use xlink:href="#DejaVuSans-20" x="63.623047"/>
      <use xlink:href="#DejaVuSans-28" x="95.410156"/>
      <use xlink:href="#DejaVuSans-43" x="134.423828"/>
      <use xlink:href="#DejaVuSans-29" x="204.248047"/>
     </g>
    </g>
    <g id="line2d_39">
     <path d="M 483.67455 175.120575 
L 495.99455 175.120575 
L 508.31455 175.120575 
" style="fill: none; stroke: #225282; stroke-width: 1.2; stroke-linecap: round"/>
    </g>
    <g id="text_34">
     <!-- 7 (C) -->
     <g style="fill: #262626" transform="translate(518.17055 179.432575) scale(0.1232 -0.1232)">
      <use xlink:href="#DejaVuSans-37"/>
      <use xlink:href="#DejaVuSans-20" x="63.623047"/>
      <use xlink:href="#DejaVuSans-28" x="95.410156"/>
      <use xlink:href="#DejaVuSans-43" x="134.423828"/>
      <use xlink:href="#DejaVuSans-29" x="204.248047"/>
     </g>
    </g>
    <g id="line2d_40">
     <path d="M 483.67455 193.204025 
L 495.99455 193.204025 
L 508.31455 193.204025 
" style="fill: none; stroke: #26497e; stroke-width: 1.2; stroke-linecap: round"/>
    </g>
    <g id="text_35">
     <!-- 8 (C) -->
     <g style="fill: #262626" transform="translate(518.17055 197.516025) scale(0.1232 -0.1232)">
      <use xlink:href="#DejaVuSans-38"/>
      <use xlink:href="#DejaVuSans-20" x="63.623047"/>
      <use xlink:href="#DejaVuSans-28" x="95.410156"/>
      <use xlink:href="#DejaVuSans-43" x="134.423828"/>
      <use xlink:href="#DejaVuSans-29" x="204.248047"/>
     </g>
    </g>
    <g id="line2d_41">
     <path d="M 483.67455 211.287475 
L 495.99455 211.287475 
L 508.31455 211.287475 
" style="fill: none; stroke: #29427a; stroke-width: 1.2; stroke-linecap: round"/>
    </g>
    <g id="text_36">
     <!-- 9 (C) -->
     <g style="fill: #262626" transform="translate(518.17055 215.599475) scale(0.1232 -0.1232)">
      <use xlink:href="#DejaVuSans-39"/>
      <use xlink:href="#DejaVuSans-20" x="63.623047"/>
      <use xlink:href="#DejaVuSans-28" x="95.410156"/>
      <use xlink:href="#DejaVuSans-43" x="134.423828"/>
      <use xlink:href="#DejaVuSans-29" x="204.248047"/>
     </g>
    </g>
    <g id="line2d_42">
     <path d="M 483.67455 229.370925 
L 495.99455 229.370925 
L 508.31455 229.370925 
" style="fill: none; stroke: #2b3975; stroke-width: 1.2; stroke-linecap: round"/>
    </g>
    <g id="text_37">
     <!-- 10 (C) -->
     <g style="fill: #262626" transform="translate(518.17055 233.682925) scale(0.1232 -0.1232)">
      <use xlink:href="#DejaVuSans-31"/>
      <use xlink:href="#DejaVuSans-30" x="63.623047"/>
      <use xlink:href="#DejaVuSans-20" x="127.246094"/>
      <use xlink:href="#DejaVuSans-28" x="159.033203"/>
      <use xlink:href="#DejaVuSans-43" x="198.046875"/>
      <use xlink:href="#DejaVuSans-29" x="267.871094"/>
     </g>
    </g>
   </g>
  </g>
 </g>
 <defs>
  <clipPath id="p2b295a82c0">
   <rect x="70.4652" y="31.3152" width="300.7316" height="203.2296"/>
  </clipPath>
 </defs>
</svg>
