<?xml version="1.0" encoding="utf-8" standalone="no"?>
<!DOCTYPE svg PUBLIC "-//W3C//DTD SVG 1.1//EN"
  "http://www.w3.org/Graphics/SVG/1.1/DTD/svg11.dtd">
<svg xmlns:xlink="http://www.w3.org/1999/xlink" width="576pt" height="288pt" viewBox="0 0 576 288" xmlns="http://www.w3.org/2000/svg" version="1.1">
 <metadata>
  <rdf:RDF xmlns:dc="http://purl.org/dc/elements/1.1/" xmlns:cc="http://creativecommons.org/ns#" xmlns:rdf="http://www.w3.org/1999/02/22-rdf-syntax-ns#">
   <cc:Work>
    <dc:type rdf:resource="http://purl.org/dc/dcmitype/StillImage"/>
    <dc:date>2026-02-13T03:32:15.363575</dc:date>
    <dc:format>image/svg+xml</dc:format>
    <dc:creator>
     <cc:Agent>
      <dc:title>Matplotlib v3.9.0, https://matplotlib.org/</dc:title>
     </cc:Agent>
    </dc:creator>
   </cc:Work>
  </rdf:RDF>
 </metadata>
 <defs>
  <style type="text/css">*{stroke-linejoin: round; stroke-linecap: butt}</style>
 </defs>
 <g id="figure_1">
  <g id="patch_1">
   <path d="M 0 288 
L 576 288 
L 576 0 
L 0 0 
z
" style="fill: #ffffff"/>
  </g>
  <g id="axes_1">
   <g id="patch_2">
    <path d="M 78.3852 234.5448 
L 347.6168 234.5448 
L 347.6168 31.3152 
L 78.3852 31.3152 
z
" style="fill: #ffffff"/>
   </g>
   <g id="matplotlib.axis_1">
    <g id="xtick_1">
     <g id="text_1">
      <!-- 0 -->
      <g style="fill: #262626" transform="translate(85.772053 252.206075) scale(0.1232 -0.1232)">
       <defs>
        <path id="DejaVuSans-30" d="M 2034 4250 
Q 1547 4250 1301 3770 
Q 1056 3291 1056 2328 
Q 1056 1369 1301 889 
Q 1547 409 2034 409 
Q 2525 409 2770 889 
Q 3016 1369 3016 2328 
Q 3016 3291 2770 3770 
Q 2525 4250 2034 4250 
z
M 2034 4750 
Q 2819 4750 3233 4129 
Q 3647 3509 3647 2328 
Q 3647 1150 3233 529 
Q 2819 -91 2034 -91 
Q 1250 -91 836 529 
Q 422 1150 422 2328 
Q 422 3509 836 4129 
Q 1250 4750 2034 4750 
z
" transform="scale(0.015625)"/>
       </defs>
       <use xlink:href="#DejaVuSans-30"/>
      </g>
     </g>
    </g>
    <g id="xtick_2">
     <g id="text_2">
      <!-- 500 -->
      <g style="fill: #262626" transform="translate(152.243781 252.206075) scale(0.1232 -0.1232)">
       <defs>
        <path id="DejaVuSans-35" d="M 691 4666 
L 3169 4666 
L 3169 4134 
L 1269 4134 
L 1269 2991 
Q 1406 3038 1543 3061 
Q 1681 3084 1819 3084 
Q 2600 3084 3056 2656 
Q 3513 2228 3513 1497 
Q 3513 744 3044 326 
Q 2575 -91 1722 -91 
Q 1428 -91 1123 -41 
Q 819 9 494 109 
L 494 744 
Q 775 591 1075 516 
Q 1375 441 1709 441 
Q 2250 441 2565 725 
Q 2881 1009 2881 1497 
Q 2881 1984 2565 2268 
Q 2250 2553 1709 2553 
Q 1456 2553 1204 2497 
Q 953 2441 691 2322 
L 691 4666 
z
" transform="scale(0.015625)"/>
       </defs>
       <use xlink:href="#DejaVuSans-35"/>
       <use xlink:href="#DejaVuSans-30" x="63.623047"/>
       <use xlink:href="#DejaVuSans-30" x="127.246094"/>
      </g>
     </g>
    </g>
    <g id="xtick_3">
     <g id="text_3">
      <!-- 1000 -->
      <g style="fill: #262626" transform="translate(222.634809 252.206075) scale(0.1232 -0.1232)">
       <defs>
        <path id="DejaVuSans-31" d="M 794 531 
L 1825 531 
L 1825 4091 
L 703 3866 
L 703 4441 
L 1819 4666 
L 2450 4666 
L 2450 531 
L 3481 531 
L 3481 0 
L 794 0 
L 794 531 
z
" transform="scale(0.015625)"/>
       </defs>
       <use xlink:href="#DejaVuSans-31"/>
       <use xlink:href="#DejaVuSans-30" x="63.623047"/>
       <use xlink:href="#DejaVuSans-30" x="127.246094"/>
       <use xlink:href="#DejaVuSans-30" x="190.869141"/>
      </g>
     </g>
    </g>
    <g id="xtick_4">
     <g id="text_4">
      <!-- 1500 -->
      <g style="fill: #262626" transform="translate(296.945137 252.206075) scale(0.1232 -0.1232)">
       <use xlink:href="#DejaVuSans-31"/>
       <use xlink:href="#DejaVuSans-35" x="63.623047"/>
       <use xlink:href="#DejaVuSans-30" x="127.246094"/>
       <use xlink:href="#DejaVuSans-30" x="190.869141"/>
      </g>
     </g>
    </g>
    <g id="text_5">
     <!-- Hot Junction Temp (K) -->
     <g style="fill: #262626" transform="translate(140.16775 268.98055) scale(0.1344 -0.1344)">
      <defs>
       <path id="DejaVuSans-48" d="M 628 4666 
L 1259 4666 
L 1259 2753 
L 3553 2753 
L 3553 4666 
L 4184 4666 
L 4184 0 
L 3553 0 
L 3553 2222 
L 1259 2222 
L 1259 0 
L 628 0 
L 628 4666 
z
" transform="scale(0.015625)"/>
       <path id="DejaVuSans-6f" d="M 1959 3097 
Q 1497 3097 1228 2736 
Q 959 2375 959 1747 
Q 959 1119 1226 758 
Q 1494 397 1959 397 
Q 2419 397 2687 759 
Q 2956 1122 2956 1747 
Q 2956 2369 2687 2733 
Q 2419 3097 1959 3097 
z
M 1959 3584 
Q 2709 3584 3137 3096 
Q 3566 2609 3566 1747 
Q 3566 888 3137 398 
Q 2709 -91 1959 -91 
Q 1206 -91 779 398 
Q 353 888 353 1747 
Q 353 2609 779 3096 
Q 1206 3584 1959 3584 
z
" transform="scale(0.015625)"/>
       <path id="DejaVuSans-74" d="M 1172 4494 
L 1172 3500 
L 2356 3500 
L 2356 3053 
L 1172 3053 
L 1172 1153 
Q 1172 725 1289 603 
Q 1406 481 1766 481 
L 2356 481 
L 2356 0 
L 1766 0 
Q 1100 0 847 248 
Q 594 497 594 1153 
L 594 3053 
L 172 3053 
L 172 3500 
L 594 3500 
L 594 4494 
L 1172 4494 
z
" transform="scale(0.015625)"/>
       <path id="DejaVuSans-20" transform="scale(0.015625)"/>
       <path id="DejaVuSans-4a" d="M 628 4666 
L 1259 4666 
L 1259 325 
Q 1259 -519 939 -900 
Q 619 -1281 -91 -1281 
L -331 -1281 
L -331 -750 
L -134 -750 
Q 284 -750 456 -515 
Q 628 -281 628 325 
L 628 4666 
z
" transform="scale(0.015625)"/>
       <path id="DejaVuSans-75" d="M 544 1381 
L 544 3500 
L 1119 3500 
L 1119 1403 
Q 1119 906 1312 657 
Q 1506 409 1894 409 
Q 2359 409 2629 706 
Q 2900 1003 2900 1516 
L 2900 3500 
L 3475 3500 
L 3475 0 
L 2900 0 
L 2900 538 
Q 2691 219 2414 64 
Q 2138 -91 1772 -91 
Q 1169 -91 856 284 
Q 544 659 544 1381 
z
M 1991 3584 
L 1991 3584 
z
" transform="scale(0.015625)"/>
       <path id="DejaVuSans-6e" d="M 3513 2113 
L 3513 0 
L 2938 0 
L 2938 2094 
Q 2938 2591 2744 2837 
Q 2550 3084 2163 3084 
Q 1697 3084 1428 2787 
Q 1159 2491 1159 1978 
L 1159 0 
L 581 0 
L 581 3500 
L 1159 3500 
L 1159 2956 
Q 1366 3272 1645 3428 
Q 1925 3584 2291 3584 
Q 2894 3584 3203 3211 
Q 3513 2838 3513 2113 
z
" transform="scale(0.015625)"/>
       <path id="DejaVuSans-63" d="M 3122 3366 
L 3122 2828 
Q 2878 2963 2633 3030 
Q 2388 3097 2138 3097 
Q 1578 3097 1268 2742 
Q 959 2388 959 1747 
Q 959 1106 1268 751 
Q 1578 397 2138 397 
Q 2388 397 2633 464 
Q 2878 531 3122 666 
L 3122 134 
Q 2881 22 2623 -34 
Q 2366 -91 2075 -91 
Q 1284 -91 818 406 
Q 353 903 353 1747 
Q 353 2603 823 3093 
Q 1294 3584 2113 3584 
Q 2378 3584 2631 3529 
Q 2884 3475 3122 3366 
z
" transform="scale(0.015625)"/>
       <path id="DejaVuSans-69" d="M 603 3500 
L 1178 3500 
L 1178 0 
L 603 0 
L 603 3500 
z
M 603 4863 
L 1178 4863 
L 1178 4134 
L 603 4134 
L 603 4863 
z
" transform="scale(0.015625)"/>
       <path id="DejaVuSans-54" d="M -19 4666 
L 3928 4666 
L 3928 4134 
L 2272 4134 
L 2272 0 
L 1638 0 
L 1638 4134 
L -19 4134 
L -19 4666 
z
" transform="scale(0.015625)"/>
       <path id="DejaVuSans-65" d="M 3597 1894 
L 3597 1613 
L 953 1613 
Q 991 1019 1311 708 
Q 1631 397 2203 397 
Q 2534 397 2845 478 
Q 3156 559 3463 722 
L 3463 178 
Q 3153 47 2828 -22 
Q 2503 -91 2169 -91 
Q 1331 -91 842 396 
Q 353 884 353 1716 
Q 353 2575 817 3079 
Q 1281 3584 2069 3584 
Q 2775 3584 3186 3129 
Q 3597 2675 3597 1894 
z
M 3022 2063 
Q 3016 2534 2758 2815 
Q 2500 3097 2075 3097 
Q 1594 3097 1305 2825 
Q 1016 2553 972 2059 
L 3022 2063 
z
" transform="scale(0.015625)"/>
       <path id="DejaVuSans-6d" d="M 3328 2828 
Q 3544 3216 3844 3400 
Q 4144 3584 4550 3584 
Q 5097 3584 5394 3201 
Q 5691 2819 5691 2113 
L 5691 0 
L 5113 0 
L 5113 2094 
Q 5113 2597 4934 2840 
Q 4756 3084 4391 3084 
Q 3944 3084 3684 2787 
Q 3425 2491 3425 1978 
L 3425 0 
L 2847 0 
L 2847 2094 
Q 2847 2600 2669 2842 
Q 2491 3084 2119 3084 
Q 1678 3084 1418 2786 
Q 1159 2488 1159 1978 
L 1159 0 
L 581 0 
L 581 3500 
L 1159 3500 
L 1159 2956 
Q 1356 3278 1631 3431 
Q 1906 3584 2284 3584 
Q 2666 3584 2933 3390 
Q 3200 3197 3328 2828 
z
" transform="scale(0.015625)"/>
       <path id="DejaVuSans-70" d="M 1159 525 
L 1159 -1331 
L 581 -1331 
L 581 3500 
L 1159 3500 
L 1159 2969 
Q 1341 3281 1617 3432 
Q 1894 3584 2278 3584 
Q 2916 3584 3314 3078 
Q 3713 2572 3713 1747 
Q 3713 922 3314 415 
Q 2916 -91 2278 -91 
Q 1894 -91 1617 61 
Q 1341 213 1159 525 
z
M 3116 1747 
Q 3116 2381 2855 2742 
Q 2594 3103 2138 3103 
Q 1681 3103 1420 2742 
Q 1159 2381 1159 1747 
Q 1159 1113 1420 752 
Q 1681 391 2138 391 
Q 2594 391 2855 752 
Q 3116 1113 3116 1747 
z
" transform="scale(0.015625)"/>
       <path id="DejaVuSans-28" d="M 1984 4856 
Q 1566 4138 1362 3434 
Q 1159 2731 1159 2009 
Q 1159 1288 1364 580 
Q 1569 -128 1984 -844 
L 1484 -844 
Q 1016 -109 783 600 
Q 550 1309 550 2009 
Q 550 2706 781 3412 
Q 1013 4119 1484 4856 
L 1984 4856 
z
" transform="scale(0.015625)"/>
       <path id="DejaVuSans-4b" d="M 628 4666 
L 1259 4666 
L 1259 2694 
L 3353 4666 
L 4166 4666 
L 1850 2491 
L 4331 0 
L 3500 0 
L 1259 2247 
L 1259 0 
L 628 0 
L 628 4666 
z
" transform="scale(0.015625)"/>
       <path id="DejaVuSans-29" d="M 513 4856 
L 1013 4856 
Q 1481 4119 1714 3412 
Q 1947 2706 1947 2009 
Q 1947 1309 1714 600 
Q 1481 -109 1013 -844 
L 513 -844 
Q 928 -128 1133 580 
Q 1338 1288 1338 2009 
Q 1338 2731 1133 3434 
Q 928 4138 513 4856 
z
" transform="scale(0.015625)"/>
      </defs>
      <use xlink:href="#DejaVuSans-48"/>
      <use xlink:href="#DejaVuSans-6f" x="75.195312"/>
      <use xlink:href="#DejaVuSans-74" x="136.376953"/>
      <use xlink:href="#DejaVuSans-20" x="175.585938"/>
      <use xlink:href="#DejaVuSans-4a" x="207.373047"/>
      <use xlink:href="#DejaVuSans-75" x="236.865234"/>
      <use xlink:href="#DejaVuSans-6e" x="300.244141"/>
      <use xlink:href="#DejaVuSans-63" x="363.623047"/>
      <use xlink:href="#DejaVuSans-74" x="418.603516"/>
      <use xlink:href="#DejaVuSans-69" x="457.8125"/>
      <use xlink:href="#DejaVuSans-6f" x="485.595703"/>
      <use xlink:href="#DejaVuSans-6e" x="546.777344"/>
      <use xlink:href="#DejaVuSans-20" x="610.15625"/>
      <use xlink:href="#DejaVuSans-54" x="641.943359"/>
      <use xlink:href="#DejaVuSans-65" x="686.027344"/>
      <use xlink:href="#DejaVuSans-6d" x="747.550781"/>
      <use xlink:href="#DejaVuSans-70" x="844.962891"/>
      <use xlink:href="#DejaVuSans-20" x="908.439453"/>
      <use xlink:href="#DejaVuSans-28" x="940.226562"/>
      <use xlink:href="#DejaVuSans-4b" x="979.240234"/>
      <use xlink:href="#DejaVuSans-29" x="1044.816406"/>
     </g>
    </g>
   </g>
   <g id="matplotlib.axis_2">
    <g id="ytick_1">
     <g id="text_6">
      <!-- −10 -->
      <g style="fill: #262626" transform="translate(44.084225 229.914057) scale(0.1232 -0.1232)">
       <defs>
        <path id="DejaVuSans-2212" d="M 678 2272 
L 4684 2272 
L 4684 1741 
L 678 1741 
L 678 2272 
z
" transform="scale(0.015625)"/>
       </defs>
       <use xlink:href="#DejaVuSans-2212"/>
       <use xlink:href="#DejaVuSans-31" x="83.789062"/>
       <use xlink:href="#DejaVuSans-30" x="147.412109"/>
      </g>
     </g>
    </g>
    <g id="ytick_2">
     <g id="text_7">
      <!-- −5 -->
      <g style="fill: #262626" transform="translate(51.922825 183.98062) scale(0.1232 -0.1232)">
       <use xlink:href="#DejaVuSans-2212"/>
       <use xlink:href="#DejaVuSans-35" x="83.789062"/>
      </g>
     </g>
    </g>
    <g id="ytick_3">
     <g id="text_8">
      <!-- 0 -->
      <g style="fill: #262626" transform="translate(62.2466 138.047183) scale(0.1232 -0.1232)">
       <use xlink:href="#DejaVuSans-30"/>
      </g>
     </g>
    </g>
    <g id="ytick_4">
     <g id="text_9">
      <!-- 5 -->
      <g style="fill: #262626" transform="translate(62.2466 92.113746) scale(0.1232 -0.1232)">
       <use xlink:href="#DejaVuSans-35"/>
      </g>
     </g>
    </g>
    <g id="ytick_5">
     <g id="text_10">
      <!-- 10 -->
      <g style="fill: #262626" transform="translate(54.408 46.180309) scale(0.1232 -0.1232)">
       <use xlink:href="#DejaVuSans-31"/>
       <use xlink:href="#DejaVuSans-30" x="63.623047"/>
      </g>
     </g>
    </g>
    <g id="text_11">
     <!-- Error (K) -->
     <g style="fill: #262626" transform="translate(37.289125 161.0931) rotate(-90) scale(0.1344 -0.1344)">
      <defs>
       <path id="DejaVuSans-45" d="M 628 4666 
L 3578 4666 
L 3578 4134 
L 1259 4134 
L 1259 2753 
L 3481 2753 
L 3481 2222 
L 1259 2222 
L 1259 531 
L 3634 531 
L 3634 0 
L 628 0 
L 628 4666 
z
" transform="scale(0.015625)"/>
       <path id="DejaVuSans-72" d="M 2631 2963 
Q 2534 3019 2420 3045 
Q 2306 3072 2169 3072 
Q 1681 3072 1420 2755 
Q 1159 2438 1159 1844 
L 1159 0 
L 581 0 
L 581 3500 
L 1159 3500 
L 1159 2956 
Q 1341 3275 1631 3429 
Q 1922 3584 2338 3584 
Q 2397 3584 2469 3576 
Q 2541 3569 2628 3553 
L 2631 2963 
z
" transform="scale(0.015625)"/>
      </defs>
      <use xlink:href="#DejaVuSans-45"/>
      <use xlink:href="#DejaVuSans-72" x="63.183594"/>
      <use xlink:href="#DejaVuSans-72" x="102.546875"/>
      <use xlink:href="#DejaVuSans-6f" x="141.410156"/>
      <use xlink:href="#DejaVuSans-72" x="202.591797"/>
      <use xlink:href="#DejaVuSans-20" x="243.705078"/>
      <use xlink:href="#DejaVuSans-28" x="275.492188"/>
      <use xlink:href="#DejaVuSans-4b" x="314.505859"/>
      <use xlink:href="#DejaVuSans-29" x="380.082031"/>
     </g>
    </g>
   </g>
   <g id="line2d_1">
    <path d="M 90.646141 146.772253 
L 96.484472 208.191551 
L 99.729511 213.89406 
L 104.554533 218.131228 
L 106.568283 219.394324 
L 108.429834 219.604725 
L 110.158623 220.389828 
L 111.792457 220.739376 
L 113.345496 221.480052 
L 116.281366 221.658624 
L 117.666744 222.231466 
L 119.017833 222.482022 
L 120.336403 222.394245 
L 121.616752 222.752572 
L 122.871418 223.228871 
L 124.110571 223.028091 
L 125.321624 223.392708 
L 126.517167 223.468598 
L 127.697022 223.398799 
L 128.854613 223.871841 
L 129.989703 225.029148 
L 131.130016 225.307091 
L 133.394947 225.233419 
L 332.411178 225.230282 
L 332.411178 225.230282 
" clip-path="url(#p4359ec20ce)" style="fill: none; stroke: #99c791; stroke-width: 1.2; stroke-linecap: round"/>
   </g>
   <g id="line2d_2">
    <path d="M 90.638235 147.260962 
L 96.580659 202.245914 
L 99.840798 207.015098 
L 102.439271 208.823426 
L 104.682526 210.219606 
L 106.701007 211.190208 
L 108.560626 211.520041 
L 110.29294 212.08734 
L 111.927236 212.40825 
L 113.482556 213.007967 
L 116.419798 213.101712 
L 117.806782 213.575309 
L 119.159019 213.754891 
L 120.476725 213.720509 
L 123.013247 214.46196 
L 124.249656 214.430822 
L 125.464029 214.590196 
L 127.839426 214.596328 
L 129.000252 214.869425 
L 130.136795 215.936956 
L 131.278586 216.123526 
L 133.541248 216.190172 
L 134.662357 216.053369 
L 140.198698 216.027734 
L 141.301444 215.912413 
L 142.404118 215.946527 
L 143.506633 216.112877 
L 147.95802 216.207983 
L 150.213817 215.96138 
L 151.348261 216.114322 
L 157.066825 216.025954 
L 158.210955 216.23495 
L 161.638954 216.080717 
L 162.777767 215.907832 
L 165.037681 216.201857 
L 166.164208 216.187027 
L 167.288818 216.032438 
L 170.633626 216.074565 
L 171.744462 215.916718 
L 177.255117 215.968049 
L 179.445787 216.221148 
L 180.541035 216.067664 
L 185.987093 215.935614 
L 187.071144 216.097074 
L 191.401476 216.106656 
L 192.483701 215.931146 
L 194.638875 216.113045 
L 195.718315 215.936517 
L 196.795397 215.918433 
L 200.018636 216.186363 
L 201.095643 216.014455 
L 202.169876 216.022383 
L 203.241443 216.185109 
L 205.390343 215.942645 
L 207.53521 215.975711 
L 208.609584 215.941096 
L 210.75431 216.182033 
L 211.828736 216.002486 
L 213.977306 215.956691 
L 215.051575 215.954298 
L 217.201572 216.168767 
L 219.35529 216.16138 
L 221.513828 215.894884 
L 222.593148 215.918656 
L 223.672303 216.082933 
L 225.836365 216.099119 
L 226.921219 216.087303 
L 228.008203 215.899142 
L 229.095314 215.911918 
L 230.182215 216.083817 
L 234.545958 216.017994 
L 235.640839 216.179536 
L 238.937137 216.167096 
L 240.03982 216.166533 
L 242.250055 215.947192 
L 243.356062 216.108445 
L 248.923129 216.027501 
L 251.162431 216.18064 
L 252.287376 215.981246 
L 253.411608 215.953867 
L 254.537729 216.085758 
L 255.667747 216.099305 
L 256.801031 215.912151 
L 257.933664 216.091597 
L 260.207136 216.068219 
L 262.49007 216.049895 
L 263.63343 216.20992 
L 264.781387 216.157844 
L 265.931504 215.993984 
L 270.549642 215.992392 
L 271.709596 216.136771 
L 279.904149 215.97893 
L 282.264601 216.213056 
L 293.039331 215.987031 
L 295.466356 216.185746 
L 296.6871 215.937341 
L 297.910326 215.866846 
L 300.364676 216.121109 
L 302.834799 216.034082 
L 304.074971 216.239358 
L 305.321217 216.024367 
L 310.345179 216.090011 
L 314.161253 215.96783 
L 316.727124 216.200301 
L 321.925248 216.034083 
L 324.553217 215.939132 
L 327.201307 216.171652 
L 332.560016 216.030144 
L 332.560016 216.030144 
" clip-path="url(#p4359ec20ce)" style="fill: none; stroke: #8bc191; stroke-width: 1.2; stroke-linecap: round"/>
   </g>
   <g id="line2d_3">
    <path d="M 90.632022 147.644973 
L 96.684942 195.799915 
L 99.961301 199.566443 
L 102.561004 201.298782 
L 104.813157 202.144919 
L 106.828587 203.304108 
L 108.693074 203.333042 
L 110.431288 203.535589 
L 112.064917 203.897823 
L 113.619815 204.523582 
L 115.117122 204.616664 
L 116.559635 204.457947 
L 117.947164 204.897862 
L 120.617398 205.025093 
L 123.155625 205.661162 
L 124.392925 205.574899 
L 125.608057 205.687418 
L 127.983789 205.672871 
L 129.142698 206.064426 
L 130.284642 206.798073 
L 131.426723 206.966712 
L 133.691156 206.9239 
L 134.811166 206.855051 
L 138.141524 207.006248 
L 139.246357 206.878887 
L 141.447826 206.86407 
L 143.657334 206.797594 
L 144.761968 206.940855 
L 148.10747 206.970004 
L 149.234094 206.738346 
L 150.36273 206.756655 
L 151.49573 206.998807 
L 156.069034 206.804964 
L 157.21556 206.832155 
L 158.359367 207.061189 
L 159.506739 206.821643 
L 160.649024 206.73556 
L 161.786758 206.944522 
L 162.925186 206.795421 
L 165.188248 206.89487 
L 167.434442 207.03093 
L 169.66936 206.89298 
L 170.781683 206.922727 
L 171.892062 206.793116 
L 172.997676 206.831907 
L 175.207257 206.651488 
L 178.500514 206.819261 
L 179.59519 206.986056 
L 180.690185 206.848257 
L 183.959436 206.865416 
L 185.049399 206.703941 
L 188.303457 206.961761 
L 190.47106 206.752623 
L 194.788597 206.858306 
L 203.391636 206.901215 
L 204.465985 206.732758 
L 206.610796 206.886668 
L 207.685018 206.715623 
L 209.830029 206.923552 
L 210.904586 206.892983 
L 211.978834 206.724505 
L 214.123412 206.925458 
L 217.352167 206.860045 
L 227.069195 206.940469 
L 228.156486 206.733301 
L 229.243582 206.747052 
L 230.33037 206.925895 
L 234.695183 206.793944 
L 235.790328 206.939194 
L 237.986438 206.910124 
L 243.507109 206.771778 
L 244.615129 206.93382 
L 245.725085 206.963917 
L 247.955727 206.862704 
L 249.07185 206.83464 
L 251.310467 207.030092 
L 252.433688 206.937288 
L 253.561318 206.699842 
L 258.080928 206.988765 
L 259.219116 206.804366 
L 260.357452 206.776775 
L 261.496776 206.927628 
L 262.638498 206.875126 
L 263.782199 207.01407 
L 267.231225 206.73647 
L 269.538875 206.91922 
L 270.698296 206.80369 
L 271.860118 206.832518 
L 273.02199 206.99706 
L 274.189482 206.778717 
L 275.356748 206.799428 
L 276.525341 206.939017 
L 278.874276 206.787911 
L 280.050203 206.950903 
L 282.414958 206.919032 
L 288.371695 206.756137 
L 289.570506 206.928537 
L 294.401106 206.765503 
L 295.615991 206.936377 
L 298.057467 206.771664 
L 300.51244 206.987367 
L 302.983634 206.834133 
L 304.224382 207.003779 
L 305.471236 206.751215 
L 306.720941 206.752315 
L 307.973215 206.969833 
L 309.230108 207.047858 
L 314.310879 206.719029 
L 316.878123 206.866608 
L 318.16902 206.870288 
L 319.464076 207.006233 
L 323.38532 206.770883 
L 324.699343 206.906661 
L 326.02387 206.834924 
L 327.34982 206.991664 
L 330.021324 206.734262 
L 331.36152 206.915378 
L 332.709285 206.803342 
L 332.709285 206.803342 
" clip-path="url(#p4359ec20ce)" style="fill: none; stroke: #7fbb91; stroke-width: 1.2; stroke-linecap: round"/>
   </g>
   <g id="line2d_4">
    <path d="M 90.623 148.202659 
L 96.786343 189.532023 
L 100.075687 192.495876 
L 106.964555 194.899556 
L 108.829816 194.88064 
L 112.202164 195.414129 
L 113.757392 196.019493 
L 115.259353 195.825002 
L 116.696957 195.969665 
L 118.087022 196.25284 
L 119.442814 196.212676 
L 120.75846 196.305639 
L 123.298641 196.820944 
L 124.53626 196.714992 
L 125.748733 196.991829 
L 126.950352 196.692103 
L 128.127822 196.769732 
L 130.433623 197.589127 
L 134.9602 197.642822 
L 136.076401 197.564026 
L 139.393193 197.802478 
L 141.598685 197.539038 
L 148.256854 197.736163 
L 150.511906 197.535627 
L 152.782977 197.790561 
L 156.218086 197.59159 
L 157.364211 197.643589 
L 158.508111 197.866901 
L 160.799 197.465044 
L 163.072596 197.683603 
L 165.336849 197.709378 
L 172.03977 197.662832 
L 173.148134 197.531691 
L 178.650008 197.57859 
L 179.744627 197.7489 
L 180.839211 197.636521 
L 184.108142 197.67342 
L 185.197802 197.530754 
L 187.368445 197.720041 
L 188.454769 197.608684 
L 192.778287 197.721857 
L 194.937183 197.673761 
L 196.015819 197.54693 
L 197.092394 197.560177 
L 198.166623 197.728432 
L 199.242327 197.774225 
L 200.318952 197.622961 
L 209.977989 197.777672 
L 211.050778 197.856423 
L 212.125307 197.670562 
L 214.27385 197.626446 
L 215.348048 197.628459 
L 216.422323 197.768033 
L 219.652947 197.762321 
L 220.732585 197.571955 
L 223.970569 197.646188 
L 227.220468 197.589848 
L 229.391729 197.589646 
L 230.478522 197.768219 
L 232.659119 197.588056 
L 241.439566 197.785926 
L 242.546198 197.6417 
L 243.654596 197.655135 
L 244.76283 197.803955 
L 245.873087 197.81548 
L 246.987771 197.669902 
L 255.96587 197.671427 
L 257.098901 197.499899 
L 258.231982 197.651704 
L 260.505136 197.647944 
L 261.644965 197.767633 
L 262.786977 197.69722 
L 265.077323 197.865181 
L 267.381114 197.471413 
L 268.533981 197.616191 
L 270.847034 197.609745 
L 273.169603 197.872705 
L 274.337419 197.634261 
L 277.846276 197.640205 
L 279.023259 197.578818 
L 280.199351 197.731596 
L 282.563348 197.746564 
L 283.747657 197.837299 
L 288.519505 197.619533 
L 289.718571 197.776181 
L 294.5509 197.506338 
L 295.766199 197.651573 
L 296.9841 197.57884 
L 300.660268 197.849666 
L 303.132622 197.624771 
L 304.373536 197.784164 
L 306.86692 197.728962 
L 309.382066 197.654847 
L 310.644106 197.612391 
L 311.910032 197.722613 
L 313.181983 197.624367 
L 317.024756 197.802834 
L 320.914353 197.727042 
L 323.53457 197.545327 
L 327.499626 197.731665 
L 330.168672 197.626247 
L 331.510006 197.737028 
L 332.858339 197.589871 
L 332.858339 197.589871 
" clip-path="url(#p4359ec20ce)" style="fill: none; stroke: #72b490; stroke-width: 1.2; stroke-linecap: round"/>
   </g>
   <g id="line2d_5">
    <path d="M 90.673312 145.092695 
L 96.898547 182.59635 
L 100.197825 184.946162 
L 102.820079 185.28456 
L 107.099813 186.538821 
L 110.706811 186.504717 
L 113.900671 187.163041 
L 115.402343 186.986307 
L 118.228779 187.490378 
L 120.903252 187.355634 
L 123.443455 187.869533 
L 124.68364 187.604962 
L 125.89364 188.034665 
L 128.272719 187.813212 
L 130.579415 188.577305 
L 131.726136 188.459125 
L 133.98796 188.577517 
L 135.109348 188.423499 
L 136.22456 188.405876 
L 138.439463 188.589759 
L 140.646402 188.353807 
L 145.060381 188.495056 
L 148.406321 188.497143 
L 149.531127 188.377832 
L 150.660143 188.372652 
L 151.793418 188.597832 
L 152.930996 188.641091 
L 156.367126 188.379008 
L 157.5128 188.458911 
L 158.656972 188.665356 
L 159.804399 188.422377 
L 160.946922 188.321597 
L 162.086721 188.402892 
L 163.22382 188.335978 
L 167.732938 188.579998 
L 171.079804 188.494948 
L 172.187198 188.549866 
L 174.401513 188.317784 
L 176.602944 188.397609 
L 180.98466 188.64587 
L 183.1672 188.478365 
L 184.256756 188.487169 
L 185.346168 188.359765 
L 187.518795 188.426427 
L 190.765754 188.536701 
L 198.316219 188.481489 
L 200.465316 188.575786 
L 203.68813 188.574073 
L 205.836873 188.341303 
L 206.908958 188.456346 
L 209.055998 188.346913 
L 210.127598 188.52992 
L 211.200813 188.582328 
L 212.275323 188.397615 
L 214.423866 188.353499 
L 215.498007 188.359045 
L 216.57252 188.483871 
L 220.879734 188.476181 
L 221.958868 188.385608 
L 227.368328 188.450173 
L 229.540052 188.421334 
L 230.62669 188.609478 
L 232.808137 188.376818 
L 236.088908 188.48306 
L 237.183616 188.646113 
L 242.695052 188.440594 
L 244.910883 188.652364 
L 246.024656 188.446544 
L 247.137918 188.388844 
L 248.25259 188.512723 
L 249.369464 188.438256 
L 251.609383 188.553194 
L 253.857611 188.385088 
L 256.114239 188.500329 
L 257.245733 188.423765 
L 258.379364 188.541583 
L 260.653079 188.50316 
L 261.793191 188.605364 
L 262.935487 188.517347 
L 265.226685 188.632671 
L 267.526632 188.476524 
L 268.680488 188.560165 
L 269.839379 188.344157 
L 270.997716 188.295644 
L 273.320387 188.552276 
L 275.652457 188.520801 
L 276.821727 188.618566 
L 277.99528 188.429822 
L 279.172233 188.370275 
L 281.527487 188.630843 
L 288.667354 188.480551 
L 289.866668 188.621868 
L 292.277373 188.348786 
L 295.912188 188.627557 
L 298.355688 188.337719 
L 299.57891 188.637368 
L 302.044767 188.379902 
L 305.767142 188.460356 
L 307.017612 188.414236 
L 308.27058 188.588785 
L 314.60599 188.4773 
L 315.887539 188.537753 
L 318.467332 188.430786 
L 319.7616 188.615431 
L 322.370937 188.484771 
L 323.67973 188.572556 
L 324.999242 188.369017 
L 326.321738 188.422853 
L 327.647365 188.599484 
L 330.316397 188.494926 
L 331.658578 188.553323 
L 333.007393 188.376401 
L 333.007393 188.376401 
" clip-path="url(#p4359ec20ce)" style="fill: none; stroke: #66ae90; stroke-width: 1.2; stroke-linecap: round"/>
   </g>
   <g id="line2d_6">
    <path d="M 90.638893 147.220294 
L 97.014125 175.452085 
L 100.330809 176.726016 
L 102.951995 177.130454 
L 105.21408 177.362662 
L 107.237979 177.998411 
L 112.480617 178.202162 
L 114.03994 178.554382 
L 115.540954 178.418362 
L 116.981 178.41216 
L 118.371107 178.692703 
L 121.045377 178.57045 
L 123.590391 178.787005 
L 124.827106 178.736899 
L 126.03904 179.047086 
L 127.239674 178.808283 
L 128.416536 178.923453 
L 130.729171 179.320421 
L 136.372565 179.257253 
L 137.480535 179.441541 
L 138.586635 179.492612 
L 142.998427 179.21054 
L 145.208033 179.368258 
L 146.318099 179.364264 
L 147.434688 179.237667 
L 149.67747 179.33192 
L 153.081943 179.310629 
L 154.221489 179.349963 
L 155.369003 179.145073 
L 157.658846 179.431353 
L 158.806182 179.4422 
L 159.953175 179.226082 
L 161.095043 179.165742 
L 162.234675 179.257406 
L 163.371089 179.232858 
L 165.633685 179.361055 
L 169.000239 179.334988 
L 170.116866 179.231295 
L 172.338767 179.180933 
L 173.446217 179.106304 
L 174.548965 179.203366 
L 176.752942 179.12574 
L 177.849886 179.203602 
L 178.947846 179.168312 
L 180.041863 179.375885 
L 181.133678 179.434598 
L 183.315763 179.295266 
L 184.405434 179.296907 
L 185.494578 179.186097 
L 187.666437 179.30027 
L 188.750858 179.306576 
L 190.917119 179.180326 
L 193.07623 179.305149 
L 195.235164 179.254679 
L 196.313182 179.16604 
L 197.389185 179.214634 
L 198.463155 179.398907 
L 203.838358 179.287993 
L 204.911848 179.17268 
L 205.98334 179.287753 
L 210.27696 179.297382 
L 211.349136 179.414007 
L 216.722584 179.207976 
L 217.796556 179.391016 
L 221.026778 179.38695 
L 223.187335 179.190185 
L 224.268482 179.231294 
L 225.347607 179.395294 
L 227.516187 179.310574 
L 229.688363 179.253776 
L 230.774897 179.448363 
L 232.957113 179.168134 
L 235.141063 179.232754 
L 236.23519 179.44093 
L 239.533327 179.314801 
L 240.634118 179.431213 
L 241.737244 179.385569 
L 242.845108 179.165141 
L 248.401183 179.327761 
L 249.518329 179.236412 
L 251.758799 179.317352 
L 254.007667 179.109662 
L 255.135114 179.15963 
L 256.261796 179.379387 
L 257.392657 179.341983 
L 258.526782 179.429232 
L 260.801059 179.356103 
L 261.941453 179.440817 
L 263.084035 179.33519 
L 265.375807 179.414987 
L 267.676481 179.213902 
L 268.830188 179.306778 
L 271.144407 179.228181 
L 273.467794 179.440589 
L 275.800455 179.372587 
L 276.970016 179.452379 
L 278.144348 179.215478 
L 279.321179 179.163509 
L 281.677065 179.384999 
L 284.047186 179.322517 
L 285.23466 179.369629 
L 286.426962 179.271284 
L 287.618343 179.373618 
L 288.815099 179.347991 
L 290.014808 179.464866 
L 292.426353 179.139893 
L 293.63358 179.254733 
L 294.846555 179.231002 
L 296.062604 179.329871 
L 297.28103 179.224742 
L 307.16397 179.367354 
L 308.417322 179.518246 
L 313.479673 179.223252 
L 316.037808 179.249147 
L 317.322777 179.381253 
L 318.614223 179.350976 
L 319.908886 179.511194 
L 322.519347 179.311099 
L 323.829414 179.32011 
L 325.149045 179.109243 
L 326.467973 179.383635 
L 327.798266 179.271883 
L 329.127817 179.395203 
L 330.467576 179.150119 
L 331.81005 179.1904 
L 333.152102 179.431548 
L 333.152102 179.431548 
" clip-path="url(#p4359ec20ce)" style="fill: none; stroke: #5ca890; stroke-width: 1.2; stroke-linecap: round"/>
   </g>
   <g id="line2d_7">
    <path d="M 90.669118 145.351952 
L 97.143868 167.432295 
L 100.458798 168.81461 
L 103.086812 168.797009 
L 105.348156 169.075007 
L 110.985428 169.282569 
L 112.621252 169.509063 
L 114.184917 169.592946 
L 115.685208 169.501599 
L 117.128608 169.288065 
L 118.518481 169.583062 
L 119.875054 169.494622 
L 122.47241 169.861792 
L 123.734629 169.871172 
L 124.97301 169.718158 
L 126.18856 169.804805 
L 127.386318 169.743738 
L 134.286324 170.134749 
L 135.406985 170.025677 
L 138.737483 170.168231 
L 142.042958 170.077189 
L 145.355642 170.24413 
L 147.581108 170.187027 
L 148.701538 170.24893 
L 149.827709 170.045211 
L 150.957838 169.971244 
L 153.229389 170.196514 
L 154.370274 170.153133 
L 155.517932 169.939305 
L 156.661906 170.157784 
L 158.955288 170.225518 
L 160.101788 170.039852 
L 161.243136 170.011724 
L 162.382313 170.131473 
L 164.654013 170.023278 
L 169.149036 170.13745 
L 170.265276 170.057607 
L 171.377028 170.12268 
L 174.699169 169.918788 
L 176.900149 170.026467 
L 177.999505 169.955196 
L 180.18912 170.27348 
L 185.642953 170.014617 
L 197.536506 170.108281 
L 198.613268 170.120005 
L 199.687442 170.260286 
L 201.839456 170.037153 
L 202.910751 170.226694 
L 203.9845 170.254562 
L 205.05906 170.073026 
L 206.133152 170.027408 
L 207.204691 170.176255 
L 208.27825 170.046202 
L 209.352014 170.049235 
L 210.423495 170.239666 
L 211.497453 170.246133 
L 212.571867 170.06737 
L 214.720409 170.023254 
L 221.177398 170.076684 
L 222.25691 169.962767 
L 228.749375 170.085092 
L 229.836652 170.08762 
L 230.923164 170.283565 
L 232.013584 170.044706 
L 233.105564 169.991967 
L 234.19482 170.182246 
L 235.288745 170.104097 
L 238.580055 170.216901 
L 241.88787 170.074928 
L 242.99318 170.012411 
L 245.209785 170.176354 
L 247.434438 170.060055 
L 248.549812 170.140559 
L 249.667362 170.024263 
L 250.786532 170.058135 
L 251.90505 170.277132 
L 255.281747 170.095807 
L 256.411674 170.115002 
L 257.543728 170.003804 
L 262.089627 170.281713 
L 263.232619 170.150743 
L 265.524967 170.194969 
L 267.826222 169.957963 
L 268.980222 170.032693 
L 271.295212 169.906507 
L 273.61498 170.342569 
L 275.948491 170.222041 
L 277.118384 170.281266 
L 278.293457 169.998591 
L 279.470118 169.957136 
L 283.008648 170.221268 
L 285.384442 170.111166 
L 286.574188 170.170808 
L 288.967328 169.938274 
L 290.164587 170.206571 
L 292.575277 169.934497 
L 293.782927 170.023173 
L 294.996761 169.946328 
L 296.209874 170.226675 
L 298.65353 169.927193 
L 299.877908 170.155428 
L 302.341134 170.060537 
L 303.57944 170.005565 
L 304.821592 170.088489 
L 306.066267 169.970568 
L 309.824975 170.277331 
L 314.904373 170.033347 
L 316.183803 170.22479 
L 317.47334 170.074487 
L 318.761703 170.234827 
L 320.05954 170.198861 
L 321.36225 170.041195 
L 323.977846 170.145115 
L 326.618531 170.07715 
L 327.94522 170.1882 
L 330.616728 169.930566 
L 333.301584 170.19157 
L 333.301584 170.19157 
" clip-path="url(#p4359ec20ce)" style="fill: none; stroke: #53a190; stroke-width: 1.2; stroke-linecap: round"/>
   </g>
   <g id="line2d_8">
    <path d="M 90.70005 143.43999 
L 97.262625 160.091567 
L 100.599298 160.129897 
L 109.384295 160.606599 
L 111.128574 160.434266 
L 112.767782 160.45159 
L 114.330101 160.618691 
L 117.271709 160.442534 
L 118.661893 160.718345 
L 121.335812 160.617774 
L 123.880696 160.84235 
L 127.533269 160.660256 
L 128.711587 160.685489 
L 129.872585 160.947961 
L 132.171409 160.93549 
L 133.307952 160.911255 
L 134.432891 161.075032 
L 136.669287 160.916008 
L 138.884527 161.078996 
L 141.090422 160.90761 
L 142.193168 160.792302 
L 148.851468 160.981256 
L 149.977198 160.804868 
L 153.379448 160.920935 
L 154.522229 160.760298 
L 155.666591 160.750253 
L 156.810495 160.97302 
L 159.104404 161.00823 
L 160.250294 160.860266 
L 161.391209 160.858848 
L 162.530141 160.9938 
L 164.801036 160.935332 
L 167.055365 161.101963 
L 175.949432 160.775448 
L 180.338591 161.034256 
L 186.877766 160.880422 
L 187.962157 161.020897 
L 192.294111 160.930185 
L 196.610149 160.809591 
L 198.763444 160.837143 
L 199.837661 160.974809 
L 214.866793 160.974823 
L 215.943529 160.819969 
L 220.246888 161.049005 
L 223.483231 160.899974 
L 227.811786 161.038726 
L 228.89763 160.920993 
L 229.984898 160.92408 
L 231.071511 161.113774 
L 232.16269 160.828012 
L 233.25412 160.809289 
L 234.343737 160.977238 
L 235.438206 160.865442 
L 240.931333 161.059442 
L 243.140501 160.90602 
L 245.357639 161.037025 
L 248.698747 160.934461 
L 249.814691 160.917412 
L 250.932066 161.062291 
L 252.054087 161.064696 
L 254.304182 160.781215 
L 255.431501 160.839057 
L 256.558686 161.027743 
L 257.690841 160.910334 
L 258.825414 160.969871 
L 261.100794 160.828569 
L 262.238708 161.066591 
L 263.381038 160.976542 
L 265.67418 160.971664 
L 266.824146 160.817094 
L 270.283098 160.916597 
L 271.441933 160.837254 
L 273.766502 160.976548 
L 276.100383 160.833135 
L 287.917128 160.904853 
L 289.115027 160.808561 
L 290.315462 160.88057 
L 291.518449 160.735096 
L 293.932121 160.801036 
L 296.359071 161.00438 
L 297.578409 160.842824 
L 298.800142 160.864676 
L 300.025508 161.031813 
L 303.725599 160.971055 
L 304.966472 161.132977 
L 306.213488 160.870429 
L 307.464237 160.807008 
L 308.715222 161.104122 
L 309.976192 160.930169 
L 311.236086 161.020369 
L 312.504242 160.992754 
L 313.777734 160.799223 
L 315.053742 160.800446 
L 316.33356 160.967858 
L 317.619898 161.015313 
L 318.912678 160.902612 
L 320.208302 161.00341 
L 321.51034 160.887289 
L 322.816273 160.957203 
L 325.444042 160.874558 
L 326.764528 161.052679 
L 328.09217 161.104783 
L 330.764628 160.788442 
L 333.449986 161.018451 
L 333.449986 161.018451 
" clip-path="url(#p4359ec20ce)" style="fill: none; stroke: #4a9a8f; stroke-width: 1.2; stroke-linecap: round"/>
   </g>
   <g id="line2d_9">
    <path d="M 90.734345 141.320065 
L 97.398202 151.711137 
L 100.732919 151.870395 
L 107.665432 151.576224 
L 109.530333 151.579556 
L 111.276871 151.267589 
L 112.908449 151.756572 
L 114.473977 151.725254 
L 115.978401 151.378475 
L 118.806814 151.760328 
L 120.166939 151.452305 
L 121.48363 151.480731 
L 122.764672 151.79617 
L 124.029199 151.662973 
L 131.175344 151.74113 
L 134.581956 151.860859 
L 135.702776 151.741973 
L 139.034864 151.786233 
L 141.239619 151.685265 
L 145.654808 151.751731 
L 146.7664 151.653407 
L 148.998616 151.885607 
L 151.255568 151.567659 
L 152.387984 151.845887 
L 154.669249 151.672553 
L 156.959112 151.786591 
L 161.53933 151.703031 
L 164.95166 151.624836 
L 167.204922 151.857429 
L 170.561783 151.729627 
L 171.67234 151.868512 
L 173.892178 151.540111 
L 174.996437 151.543756 
L 176.096375 151.692441 
L 187.026281 151.700299 
L 188.113485 151.666895 
L 189.19579 151.803964 
L 191.362988 151.619861 
L 192.442145 151.779783 
L 198.910509 151.746654 
L 203.210296 151.710928 
L 204.281789 151.878198 
L 206.429832 151.688756 
L 209.649001 151.691629 
L 210.723073 151.721815 
L 211.794529 151.882966 
L 213.942682 151.683033 
L 222.551424 151.757991 
L 223.633657 151.601702 
L 225.794232 151.788062 
L 226.879185 151.639281 
L 230.132926 151.77405 
L 231.220077 151.930451 
L 232.309124 151.776525 
L 234.49296 151.753293 
L 235.587919 151.611248 
L 237.778255 151.88973 
L 238.876493 151.893165 
L 239.979334 151.745776 
L 242.185716 151.664188 
L 243.291383 151.579596 
L 244.396312 151.807467 
L 245.505318 151.90854 
L 247.731263 151.712416 
L 252.203623 151.82144 
L 253.328035 151.655018 
L 254.452024 151.642686 
L 255.578503 151.752403 
L 256.709263 151.720101 
L 257.842091 151.561125 
L 258.97438 151.76184 
L 261.248631 151.690338 
L 262.386746 151.915942 
L 263.529755 151.783882 
L 280.941889 151.833133 
L 283.304824 151.913758 
L 284.493159 151.755576 
L 295.292529 151.664034 
L 301.404242 151.86246 
L 302.638144 151.701476 
L 305.116269 151.873608 
L 306.361656 151.711687 
L 315.2003 151.741209 
L 316.484047 151.665818 
L 320.355871 151.881733 
L 321.658696 151.71699 
L 322.964906 151.769734 
L 325.593817 151.616567 
L 328.242919 151.786539 
L 329.57412 151.80785 
L 330.912571 151.643645 
L 333.598387 151.845332 
L 333.598387 151.845332 
" clip-path="url(#p4359ec20ce)" style="fill: none; stroke: #43938f; stroke-width: 1.2; stroke-linecap: round"/>
   </g>
   <g id="line2d_10">
    <path d="M 90.746715 140.555449 
L 97.537579 143.095876 
L 100.877084 142.959116 
L 105.7804 142.356719 
L 107.815202 142.318531 
L 109.677264 142.497304 
L 111.421126 142.350785 
L 113.055636 142.658495 
L 114.620917 142.642469 
L 116.125019 142.31557 
L 118.956382 142.515077 
L 120.314368 142.339308 
L 121.627692 142.575817 
L 126.628881 142.587205 
L 127.827153 142.494455 
L 129.004849 142.558091 
L 130.171926 142.444769 
L 132.469151 142.531169 
L 133.605794 142.500738 
L 134.731537 142.614811 
L 138.077543 142.538664 
L 139.182145 142.682362 
L 140.285014 142.676338 
L 142.490409 142.418914 
L 143.593155 142.448605 
L 144.695101 142.650081 
L 151.402267 142.499741 
L 152.535546 142.724683 
L 154.817393 142.515357 
L 157.108115 142.576257 
L 162.829131 142.51231 
L 163.965999 142.459668 
L 166.227268 142.669887 
L 172.932547 142.477624 
L 179.542251 142.426372 
L 180.637056 142.585231 
L 194.750245 142.554021 
L 195.827162 142.661518 
L 196.906789 142.473379 
L 197.984468 142.418416 
L 202.28269 142.639493 
L 204.431233 142.640636 
L 205.505757 142.461374 
L 206.578743 142.484097 
L 207.650479 142.620763 
L 208.724997 142.431445 
L 211.94415 142.634456 
L 213.018426 142.464178 
L 215.166969 142.420062 
L 216.24124 142.417547 
L 218.39051 142.676956 
L 221.622518 142.562534 
L 222.702044 142.447659 
L 228.11151 142.511909 
L 229.195768 142.492163 
L 231.368509 142.755472 
L 232.457814 142.585557 
L 234.642217 142.527294 
L 235.73728 142.378799 
L 237.928029 142.631722 
L 242.332735 142.576474 
L 243.438875 142.462677 
L 244.547119 142.485624 
L 245.654697 142.675019 
L 246.765316 142.664142 
L 247.879753 142.533845 
L 253.47425 142.617049 
L 254.600646 142.455908 
L 256.856098 142.643792 
L 257.989267 142.463737 
L 259.12151 142.667314 
L 263.679333 142.53799 
L 267.119209 142.578368 
L 268.272097 142.397058 
L 269.424367 142.578757 
L 270.579917 142.569278 
L 271.739658 142.433959 
L 272.901402 142.467652 
L 274.062386 142.687099 
L 277.567431 142.524356 
L 285.827969 142.695415 
L 288.215594 142.455768 
L 293.017536 142.59713 
L 295.442272 142.407941 
L 296.656021 142.649005 
L 297.875695 142.466685 
L 299.098349 142.431605 
L 301.552266 142.712642 
L 302.786565 142.527135 
L 305.265838 142.62827 
L 306.511742 142.434401 
L 307.76019 142.513242 
L 309.012579 142.723643 
L 310.271091 142.701541 
L 311.535552 142.509475 
L 320.503597 142.75035 
L 321.807082 142.544832 
L 327.06461 142.503681 
L 328.389323 142.736839 
L 329.721611 142.69102 
L 331.060558 142.496151 
L 333.746788 142.672213 
L 333.746788 142.672213 
" clip-path="url(#p4359ec20ce)" style="fill: none; stroke: #3b8c8e; stroke-width: 1.2; stroke-linecap: round"/>
   </g>
   <g id="line2d_11">
    <path d="M 90.863016 133.366546 
L 333.897333 133.366546 
L 333.897333 133.366546 
" clip-path="url(#p4359ec20ce)" style="fill: none; stroke: #33858d; stroke-width: 1.2; stroke-linecap: round"/>
   </g>
   <g id="line2d_12">
    <path d="M 90.985318 125.806686 
L 97.854664 123.495893 
L 108.105595 124.368427 
L 109.973033 124.214962 
L 111.713221 124.295489 
L 113.357929 123.97287 
L 116.415027 124.389307 
L 117.858045 124.199333 
L 120.606131 124.304543 
L 121.926125 124.128799 
L 125.712001 124.038912 
L 128.12315 124.197982 
L 140.585981 124.072674 
L 142.783205 124.32033 
L 143.887545 124.251501 
L 144.9961 124.04443 
L 147.210064 124.229213 
L 149.447932 124.112082 
L 150.568002 124.285508 
L 152.838127 124.021234 
L 153.973385 124.207922 
L 165.396585 124.122682 
L 167.653713 124.116265 
L 178.737247 124.353149 
L 182.027838 124.16394 
L 193.966393 124.28147 
L 195.048455 124.120777 
L 196.127295 124.109358 
L 197.200941 124.290959 
L 198.27745 124.308355 
L 200.434628 124.074502 
L 204.730861 124.119726 
L 205.799336 124.314334 
L 207.949301 124.149642 
L 209.017938 124.323833 
L 211.17052 124.063816 
L 216.534416 124.295513 
L 217.613945 124.110283 
L 219.76836 124.068096 
L 220.845202 124.065444 
L 222.995863 124.285836 
L 228.407386 124.222913 
L 229.491091 124.237364 
L 230.58136 124.054968 
L 231.671829 124.006324 
L 232.755528 124.182946 
L 233.847315 124.142101 
L 236.029171 124.336117 
L 237.130074 124.125509 
L 241.529999 124.054129 
L 243.733078 124.277077 
L 244.842574 124.22268 
L 245.956608 124.012987 
L 248.176368 124.199136 
L 253.773222 124.136708 
L 254.894114 124.315723 
L 256.025239 124.138331 
L 258.283851 124.25461 
L 259.423142 124.02252 
L 261.693085 124.217271 
L 267.416509 124.201377 
L 268.564207 124.340897 
L 269.723313 124.10001 
L 272.032953 124.304493 
L 273.196474 124.228361 
L 274.364444 124.016015 
L 275.525598 124.189385 
L 279.034746 124.177341 
L 286.129763 124.040646 
L 288.509742 124.273564 
L 293.31629 124.130234 
L 294.523023 124.275598 
L 295.735722 124.268942 
L 296.956144 124.097466 
L 298.169517 124.304661 
L 299.391876 124.287842 
L 300.623852 124.046368 
L 305.565288 124.118381 
L 306.804346 124.347709 
L 309.315496 123.999448 
L 313.099587 124.192695 
L 320.806593 124.021282 
L 322.103666 124.212046 
L 324.722319 124.126989 
L 326.035545 124.311991 
L 328.692643 123.98771 
L 331.355777 124.247771 
L 334.048287 124.035642 
L 334.048287 124.035642 
" clip-path="url(#p4359ec20ce)" style="fill: none; stroke: #2c7e8c; stroke-width: 1.2; stroke-linecap: round"/>
   </g>
   <g id="line2d_13">
    <path d="M 91.02421 123.402686 
L 98.002713 114.344558 
L 101.331642 114.861554 
L 103.964306 114.556448 
L 106.223672 114.956733 
L 108.258172 114.937209 
L 110.120696 115.087478 
L 111.861898 115.105352 
L 113.507214 114.745139 
L 115.066672 115.088986 
L 116.565125 115.111322 
L 118.008751 114.883783 
L 120.75348 115.196461 
L 123.362161 114.863596 
L 124.621833 115.030471 
L 125.859219 114.938922 
L 127.074684 115.030809 
L 134.053193 114.845676 
L 136.297388 114.987216 
L 137.414257 114.867195 
L 147.358253 115.069236 
L 149.597349 114.876156 
L 150.714528 115.228294 
L 152.98558 114.9067 
L 154.121238 115.068673 
L 159.849347 114.961054 
L 160.991368 115.052296 
L 163.272603 115.099975 
L 164.407723 115.155386 
L 167.803546 114.854649 
L 170.04067 115.022878 
L 171.157583 114.901501 
L 172.270312 114.906092 
L 173.374701 115.146779 
L 174.48011 115.198267 
L 176.689887 115.005664 
L 178.886872 115.104372 
L 181.08492 114.901397 
L 183.266509 114.999331 
L 189.793095 114.882755 
L 190.871988 115.100189 
L 194.117284 114.954453 
L 199.505192 114.987476 
L 202.729002 115.051653 
L 204.880509 114.869542 
L 205.948984 115.064181 
L 212.393071 114.88529 
L 213.461636 115.068041 
L 218.838374 114.993171 
L 223.144934 115.071312 
L 224.223971 115.112623 
L 225.309162 114.903747 
L 227.470343 115.098031 
L 229.639179 115.083615 
L 230.730593 114.830431 
L 236.179042 115.072198 
L 237.28006 114.854409 
L 239.474574 114.924014 
L 240.573522 115.017275 
L 241.676743 114.983436 
L 242.775996 115.177169 
L 246.104902 114.846508 
L 247.212456 115.025106 
L 252.799246 115.004224 
L 253.919109 115.118993 
L 256.173683 114.96257 
L 257.301309 115.124 
L 258.431536 115.125786 
L 259.57082 114.8941 
L 260.702757 115.096049 
L 261.843634 114.911415 
L 262.986217 114.86086 
L 264.124737 115.006247 
L 266.418934 114.936164 
L 269.870069 115.028609 
L 272.184277 114.950729 
L 274.51187 114.903134 
L 275.672692 115.097036 
L 282.72133 114.835874 
L 286.276405 114.976253 
L 287.468009 114.921047 
L 289.855038 115.066245 
L 292.258164 115.01109 
L 294.670565 115.155617 
L 295.88497 115.043449 
L 299.539631 115.154649 
L 300.772156 114.879281 
L 303.23134 115.034259 
L 305.714529 114.893367 
L 306.953916 115.102327 
L 309.462262 114.92738 
L 311.979124 115.090962 
L 314.519364 114.95682 
L 315.793225 115.090742 
L 320.953756 114.924648 
L 322.251929 115.047496 
L 323.560181 114.974007 
L 324.867318 115.164166 
L 328.839327 114.920743 
L 331.503757 115.1007 
L 334.197115 114.836129 
L 334.197115 114.836129 
" clip-path="url(#p4359ec20ce)" style="fill: none; stroke: #25778c; stroke-width: 1.2; stroke-linecap: round"/>
   </g>
   <g id="line2d_14">
    <path d="M 91.09285 119.159797 
L 98.152738 105.071015 
L 101.477354 105.854658 
L 104.110104 105.544261 
L 108.405505 105.830087 
L 110.272567 105.699846 
L 112.009985 105.951611 
L 115.218332 105.714476 
L 116.712875 105.978434 
L 119.550531 105.788975 
L 122.221072 105.897241 
L 123.509976 105.726728 
L 127.223238 105.848204 
L 128.41845 105.944593 
L 135.32931 105.664668 
L 136.446181 105.789853 
L 139.781351 105.643604 
L 143.080719 105.930122 
L 147.508398 105.788333 
L 149.742837 105.883113 
L 150.863649 106.010697 
L 151.9966 105.76223 
L 154.268806 105.947075 
L 155.406908 106.075661 
L 156.555662 105.794133 
L 158.851193 105.728825 
L 161.139238 105.911972 
L 162.283044 105.731897 
L 165.694938 105.680567 
L 167.953063 105.612565 
L 170.189189 105.842486 
L 171.306085 105.722097 
L 174.631129 105.863331 
L 176.83721 105.899236 
L 177.939447 105.784315 
L 179.036598 105.849374 
L 180.136608 105.68739 
L 182.325393 105.771169 
L 186.680416 105.885939 
L 187.770316 105.70924 
L 189.940794 105.75307 
L 194.264498 105.854752 
L 214.685952 105.739257 
L 215.75782 105.897784 
L 216.83182 105.912033 
L 217.911857 105.695465 
L 221.142 105.719463 
L 222.215809 105.889392 
L 228.705927 105.769213 
L 229.787532 105.913476 
L 230.879911 105.600676 
L 233.049256 106.026754 
L 234.145165 105.73112 
L 235.234951 105.888667 
L 241.82697 105.697459 
L 242.92635 105.883383 
L 246.252633 105.714798 
L 247.360008 105.904472 
L 249.590401 105.818627 
L 251.828747 105.63572 
L 255.190333 106.005589 
L 256.323615 105.694804 
L 257.451629 105.832262 
L 259.718094 105.790673 
L 260.850009 105.993951 
L 261.992536 105.707306 
L 268.864134 105.801498 
L 270.020183 105.749591 
L 271.172222 105.957165 
L 273.494852 105.784739 
L 274.659018 105.807507 
L 275.820074 105.986933 
L 276.989655 105.864551 
L 281.685191 105.887422 
L 286.42703 105.665649 
L 288.805919 105.965991 
L 290.003576 105.884641 
L 292.402746 106.074008 
L 296.035516 105.737733 
L 298.466541 105.944736 
L 300.921149 105.669538 
L 302.147959 105.891085 
L 303.379921 105.850032 
L 304.620127 105.677621 
L 305.863156 105.706313 
L 307.099452 106.106317 
L 308.356217 105.671015 
L 310.868023 105.803435 
L 312.130481 105.735101 
L 314.664086 106.011165 
L 317.227421 105.715598 
L 318.51214 105.863139 
L 319.804318 105.787632 
L 322.400372 105.87176 
L 323.708699 105.793694 
L 325.016518 105.941676 
L 327.661116 105.631869 
L 331.651865 105.945699 
L 334.345943 105.636616 
L 334.345943 105.636616 
" clip-path="url(#p4359ec20ce)" style="fill: none; stroke: #20718b; stroke-width: 1.2; stroke-linecap: round"/>
   </g>
   <g id="line2d_15">
    <path d="M 91.171615 114.2911 
L 98.296621 96.177206 
L 108.552735 96.729402 
L 112.16074 96.632992 
L 115.367048 96.521892 
L 116.860033 96.88216 
L 123.659126 96.507291 
L 124.918908 96.667357 
L 130.913083 96.631636 
L 132.070326 96.419582 
L 133.216053 96.362877 
L 136.595218 96.577489 
L 138.822491 96.491216 
L 142.129039 96.707603 
L 145.441387 96.519911 
L 147.656207 96.651785 
L 148.772027 96.572722 
L 149.891367 96.701995 
L 151.010063 96.960412 
L 152.144033 96.648961 
L 153.28226 96.568055 
L 154.419664 96.622098 
L 155.555413 96.896153 
L 156.705171 96.552496 
L 159.000304 96.511815 
L 161.287452 96.750426 
L 162.431804 96.536554 
L 164.706511 96.686391 
L 166.973344 96.552731 
L 169.222242 96.52166 
L 170.337752 96.659345 
L 171.454723 96.534367 
L 174.778076 96.780084 
L 176.98637 96.67918 
L 178.085958 96.728081 
L 181.383119 96.468828 
L 183.563642 96.632625 
L 185.741879 96.68728 
L 186.828858 96.710293 
L 187.918946 96.522009 
L 191.170015 96.678247 
L 192.254804 96.494066 
L 198.725496 96.613238 
L 199.805535 96.422408 
L 201.951891 96.686091 
L 203.029165 96.497629 
L 204.104196 96.456295 
L 206.245105 96.760057 
L 207.322778 96.493059 
L 208.393144 96.714419 
L 209.46475 96.705046 
L 210.542204 96.480045 
L 211.617075 96.460917 
L 213.757644 96.770914 
L 216.981759 96.643898 
L 220.212635 96.606158 
L 223.441187 96.759058 
L 225.604317 96.659358 
L 229.935816 96.74761 
L 231.029003 96.384855 
L 232.11297 96.73806 
L 233.198388 96.808413 
L 234.294339 96.510216 
L 235.383453 96.709302 
L 237.575893 96.568066 
L 241.97347 96.641835 
L 243.073018 96.817387 
L 245.289712 96.583752 
L 246.400228 96.591473 
L 247.507713 96.774354 
L 248.622814 96.602986 
L 250.852497 96.767501 
L 251.977799 96.422416 
L 254.216908 96.711155 
L 255.340367 96.7315 
L 256.470979 96.585762 
L 257.597743 96.800501 
L 259.865744 96.663945 
L 261.00127 96.644083 
L 262.14238 96.44502 
L 263.281322 96.619489 
L 266.713779 96.71095 
L 267.859178 96.83866 
L 270.166229 96.722088 
L 271.318268 96.929587 
L 272.481237 96.594717 
L 273.646458 96.413524 
L 275.971472 96.628594 
L 277.14234 96.426658 
L 278.307201 96.796916 
L 279.476947 96.843558 
L 283.017158 96.549844 
L 285.384488 96.659895 
L 286.573686 96.600392 
L 288.952833 96.884795 
L 290.154553 96.552305 
L 291.35465 96.645215 
L 292.55123 96.895801 
L 293.759658 96.724323 
L 294.966146 96.88487 
L 296.184616 96.521446 
L 298.613013 96.890887 
L 301.068956 96.533141 
L 302.295636 96.762703 
L 303.526261 96.804311 
L 306.008422 96.726958 
L 307.24934 96.841316 
L 308.50344 96.570748 
L 309.760452 96.495386 
L 314.813134 96.798043 
L 316.092236 96.608013 
L 317.37377 96.669326 
L 319.953538 96.563912 
L 321.247806 96.748557 
L 323.857241 96.611838 
L 326.481161 96.767185 
L 327.80766 96.573547 
L 330.462556 96.890961 
L 331.800101 96.782769 
L 334.494772 96.437103 
L 334.494772 96.437103 
" clip-path="url(#p4359ec20ce)" style="fill: none; stroke: #1c6989; stroke-width: 1.2; stroke-linecap: round"/>
   </g>
   <g id="line2d_16">
    <path d="M 91.263429 108.615831 
L 98.445279 86.988216 
L 101.777023 87.331222 
L 104.403275 87.422496 
L 106.673124 87.174814 
L 108.70255 87.468904 
L 110.569587 87.340167 
L 112.307531 87.55942 
L 113.951301 87.294778 
L 115.516185 87.303293 
L 117.012677 87.446779 
L 119.848382 87.3779 
L 121.20114 87.525251 
L 125.068516 87.419625 
L 126.306608 87.284434 
L 127.521136 87.434251 
L 131.06429 87.28507 
L 133.364236 87.20328 
L 134.500538 87.193946 
L 135.625184 87.375831 
L 138.973764 87.140558 
L 142.275592 87.6487 
L 145.588573 87.421896 
L 147.801044 87.698991 
L 148.91929 87.470013 
L 150.040391 87.490409 
L 151.16004 87.689835 
L 152.292449 87.474921 
L 153.430039 87.433341 
L 155.704059 87.707871 
L 156.854699 87.309728 
L 160.294998 87.414066 
L 161.435767 87.582624 
L 162.580209 87.363218 
L 164.858083 87.317263 
L 167.123625 87.26343 
L 169.370971 87.328278 
L 170.48637 87.472784 
L 171.603242 87.353936 
L 172.713419 87.516295 
L 173.821108 87.553033 
L 174.928834 87.461253 
L 176.031593 87.5577 
L 178.235402 87.490494 
L 179.33253 87.556941 
L 180.436105 87.174594 
L 186.97742 87.527241 
L 188.06747 87.341292 
L 191.317778 87.544546 
L 192.402713 87.351348 
L 196.718518 87.564143 
L 199.95275 87.322628 
L 202.101538 87.435965 
L 204.25032 87.423954 
L 205.32266 87.538836 
L 207.469501 87.423691 
L 208.541276 87.557948 
L 211.766452 87.227435 
L 212.837091 87.439096 
L 213.907651 87.498555 
L 214.982349 87.418078 
L 216.05346 87.623384 
L 219.286005 87.323725 
L 221.438553 87.388615 
L 223.588906 87.628093 
L 225.754933 87.349346 
L 226.833816 87.528267 
L 227.91815 87.417765 
L 229.000615 87.553642 
L 230.084463 87.559281 
L 231.177855 87.183844 
L 232.260437 87.622715 
L 233.346519 87.652019 
L 234.439752 87.521799 
L 235.531552 87.554858 
L 236.627976 87.322197 
L 239.919272 87.435895 
L 241.021808 87.307317 
L 242.122707 87.417074 
L 243.219908 87.737679 
L 245.437694 87.436515 
L 246.5477 87.475821 
L 247.655615 87.632118 
L 248.77161 87.40547 
L 249.88572 87.564071 
L 251.001373 87.565041 
L 252.123732 87.401829 
L 254.362256 87.72673 
L 255.487736 87.6222 
L 256.621337 87.291744 
L 257.747903 87.518642 
L 258.881064 87.339116 
L 261.149076 87.50777 
L 262.290647 87.280189 
L 263.429036 87.488868 
L 265.718633 87.317304 
L 268.008181 87.628379 
L 269.160497 87.482394 
L 270.315932 87.468498 
L 271.468608 87.636671 
L 273.793784 87.306873 
L 276.119355 87.487479 
L 277.290511 87.26773 
L 278.454534 87.689828 
L 284.347949 87.43507 
L 289.104347 87.5193 
L 290.304629 87.27566 
L 291.501517 87.566912 
L 292.700058 87.69631 
L 293.908624 87.516286 
L 295.115704 87.640221 
L 296.332136 87.402767 
L 297.546851 87.584108 
L 299.985777 87.577025 
L 301.216638 87.404517 
L 302.443118 87.646405 
L 303.674553 87.637931 
L 304.914782 87.464079 
L 307.399548 87.55648 
L 308.654298 87.245773 
L 311.164051 87.505038 
L 312.425818 87.479454 
L 314.961348 87.63648 
L 316.237907 87.603642 
L 317.523978 87.384555 
L 318.808791 87.526264 
L 320.103945 87.26682 
L 321.396932 87.530668 
L 324.004243 87.525185 
L 325.310979 87.740156 
L 326.631284 87.48763 
L 327.954181 87.516618 
L 329.284672 87.392667 
L 330.610397 87.752501 
L 331.948013 87.63987 
L 333.296974 87.279177 
L 334.64676 87.042223 
L 334.64676 87.042223 
" clip-path="url(#p4359ec20ce)" style="fill: none; stroke: #1d6188; stroke-width: 1.2; stroke-linecap: round"/>
   </g>
   <g id="line2d_17">
    <path d="M 91.28487 107.290486 
L 98.587921 78.171098 
L 106.820597 78.059067 
L 110.713852 78.422721 
L 112.4552 78.431551 
L 114.097317 78.269094 
L 115.661223 78.338034 
L 118.601222 78.261379 
L 119.995699 78.271766 
L 121.348226 78.43344 
L 122.66982 78.158771 
L 125.21677 78.255627 
L 126.45543 78.085348 
L 128.864817 78.35332 
L 131.213609 78.055212 
L 132.370554 77.861651 
L 133.516271 77.805519 
L 134.651068 77.889227 
L 135.774235 78.162537 
L 139.121241 78.024547 
L 141.325586 78.355494 
L 142.42601 78.350926 
L 143.52895 78.2236 
L 146.841471 78.400554 
L 147.949182 78.542124 
L 149.066504 78.370222 
L 150.185 78.551686 
L 151.306953 78.608737 
L 152.443594 78.132212 
L 153.579259 78.209621 
L 155.852403 78.538281 
L 158.150301 78.155606 
L 159.298737 78.064768 
L 161.584215 78.406652 
L 162.728787 78.17917 
L 163.868438 78.26965 
L 166.144076 77.918023 
L 170.635458 78.257266 
L 171.754999 77.973421 
L 173.97088 78.295172 
L 175.076057 78.36098 
L 178.384989 78.244055 
L 179.482717 78.273455 
L 180.586401 77.884321 
L 182.771493 78.196399 
L 186.03826 78.367036 
L 187.125998 78.343196 
L 189.30351 78.107844 
L 194.71089 78.261892 
L 195.792461 78.131488 
L 196.869146 78.253332 
L 199.023422 78.19759 
L 200.102922 78.040012 
L 202.251555 78.163018 
L 204.400443 78.14437 
L 205.469871 78.439305 
L 206.542317 78.388503 
L 207.619349 78.161169 
L 208.687947 78.491745 
L 210.839082 78.129141 
L 211.913258 78.152943 
L 212.982582 78.445877 
L 216.202908 78.385559 
L 218.356057 78.238117 
L 221.584824 78.347181 
L 222.659876 78.440334 
L 224.821191 78.196675 
L 226.981401 78.405601 
L 228.066146 78.269672 
L 229.147949 78.446461 
L 230.233406 78.352681 
L 231.326383 78.002869 
L 232.407766 78.515859 
L 234.588137 78.349684 
L 235.677219 78.550698 
L 236.776543 78.138821 
L 237.874236 78.126593 
L 240.066234 78.351744 
L 241.168331 78.250307 
L 243.37056 78.425422 
L 244.478918 78.174472 
L 245.587126 78.19966 
L 247.80375 78.475446 
L 248.920346 78.211683 
L 250.033808 78.410296 
L 252.272871 78.183098 
L 253.391514 78.394362 
L 254.511767 78.485007 
L 256.767844 78.235684 
L 257.894395 78.463544 
L 259.028772 78.208802 
L 261.297012 78.363386 
L 262.438914 78.115388 
L 263.576825 78.353607 
L 264.720436 78.184342 
L 265.867279 78.129042 
L 267.011191 78.32702 
L 268.157557 78.394997 
L 269.308726 78.319922 
L 271.615244 78.572664 
L 272.776953 78.315673 
L 273.941349 78.18541 
L 275.103665 78.322499 
L 276.267468 78.332168 
L 277.43847 78.121961 
L 278.602038 78.572173 
L 282.133552 78.172902 
L 284.494854 78.354394 
L 286.870809 78.234356 
L 289.251805 78.404442 
L 290.453002 78.104283 
L 291.648696 78.469391 
L 292.849065 78.485718 
L 294.057504 78.313578 
L 295.265214 78.398575 
L 296.482695 78.096269 
L 297.693587 78.513917 
L 298.911085 78.466147 
L 300.136838 78.239509 
L 301.364 78.29564 
L 302.590731 78.521982 
L 303.822966 78.464082 
L 305.064711 78.196556 
L 306.304257 78.440504 
L 307.545641 78.526062 
L 308.800859 78.186351 
L 311.311182 78.410457 
L 312.573724 78.336973 
L 315.110329 78.427525 
L 317.669914 78.363804 
L 318.95529 78.47075 
L 320.251438 78.149806 
L 321.543762 78.454647 
L 322.846535 78.293128 
L 324.152382 78.368311 
L 325.459322 78.570626 
L 326.777628 78.441617 
L 328.104936 78.198055 
L 330.761372 78.4203 
L 332.098232 78.354381 
L 333.440048 78.435343 
L 334.782054 78.679307 
L 334.782054 78.679307 
" clip-path="url(#p4359ec20ce)" style="fill: none; stroke: #1f5a85; stroke-width: 1.2; stroke-linecap: round"/>
   </g>
   <g id="line2d_18">
    <path d="M 91.4201 98.931499 
L 98.733879 69.14899 
L 102.076101 68.844326 
L 104.701262 69.003015 
L 106.968231 68.933328 
L 108.996982 69.269171 
L 110.864541 69.108161 
L 112.603888 69.24072 
L 114.249181 68.881924 
L 115.811445 69.052337 
L 121.500333 69.031228 
L 122.817744 69.015155 
L 124.106222 68.870969 
L 127.81681 69.1578 
L 129.015521 69.037826 
L 130.193688 69.072386 
L 131.363653 68.780546 
L 132.520022 68.62255 
L 134.801428 68.595036 
L 135.923326 68.946797 
L 139.27228 68.688402 
L 142.572537 69.293619 
L 143.675793 69.146789 
L 148.097289 69.387192 
L 149.215984 69.130449 
L 150.331886 69.472231 
L 151.453857 69.528156 
L 152.591191 69.008788 
L 153.726773 69.091321 
L 154.861358 69.319625 
L 156.001203 69.34053 
L 158.299662 68.923193 
L 159.447734 68.854845 
L 160.591281 69.09989 
L 161.733211 69.196722 
L 162.880791 68.783316 
L 164.020282 68.883677 
L 168.549214 68.762696 
L 170.787734 68.8446 
L 171.90341 68.799697 
L 173.011747 69.075778 
L 175.227206 69.018044 
L 176.332276 68.971554 
L 178.532534 69.123852 
L 180.732905 68.828444 
L 184.009469 69.074731 
L 194.860572 69.009595 
L 197.015778 69.189564 
L 199.173399 68.927036 
L 203.473193 69.05095 
L 204.550156 68.890198 
L 205.619161 69.211234 
L 207.768953 68.9137 
L 208.837292 69.260314 
L 210.98924 68.847418 
L 212.062949 68.900072 
L 213.131801 69.222188 
L 219.583046 68.962739 
L 220.657039 69.136211 
L 223.886854 69.211052 
L 224.968712 69.077942 
L 227.129142 69.273288 
L 228.214069 69.126127 
L 229.295347 69.335381 
L 231.47452 68.846102 
L 232.555275 69.397914 
L 233.644955 69.204799 
L 234.736689 69.167267 
L 235.82642 69.328196 
L 236.923695 69.042913 
L 241.319123 68.929388 
L 243.517563 69.338697 
L 244.626448 69.055213 
L 245.737523 68.903169 
L 247.951897 69.318046 
L 249.068968 69.024889 
L 250.181965 69.252311 
L 252.421916 68.970194 
L 253.540567 69.180937 
L 254.661419 69.23457 
L 255.786478 69.156042 
L 256.913989 69.202036 
L 258.041155 69.391871 
L 259.176463 69.079601 
L 260.309845 69.212749 
L 261.445138 69.207297 
L 262.587033 68.959688 
L 263.724733 69.210979 
L 264.869866 68.947617 
L 266.014801 69.010247 
L 267.156123 69.368335 
L 268.302787 69.417885 
L 269.457367 69.131985 
L 271.765865 69.262279 
L 272.928091 68.973351 
L 274.089616 69.020596 
L 275.250371 69.254215 
L 277.586165 68.992514 
L 278.74978 69.439787 
L 279.924713 69.165779 
L 284.645049 69.070437 
L 289.399496 69.2752 
L 290.60124 68.941278 
L 291.796259 69.34804 
L 295.411027 69.385452 
L 296.628722 69.069919 
L 297.842358 69.31795 
L 299.059884 69.268442 
L 300.285582 69.045168 
L 301.514925 68.96646 
L 302.738461 69.390344 
L 303.971481 69.28391 
L 305.21435 68.946926 
L 306.452792 69.259113 
L 307.694875 69.301454 
L 308.947128 69.145059 
L 311.458409 69.309866 
L 312.721672 69.191869 
L 313.988034 69.275106 
L 320.39903 69.026698 
L 321.690983 69.354477 
L 322.992153 69.292039 
L 325.609151 69.309276 
L 328.251078 69.16458 
L 330.908619 69.318472 
L 332.246275 69.203436 
L 333.588228 69.275907 
L 334.930234 69.519871 
L 334.930234 69.519871 
" clip-path="url(#p4359ec20ce)" style="fill: none; stroke: #225282; stroke-width: 1.2; stroke-linecap: round"/>
   </g>
   <g id="line2d_19">
    <path d="M 91.48058 95.19306 
L 98.883822 59.880531 
L 102.228334 59.434319 
L 104.847468 59.965584 
L 107.118587 59.639388 
L 109.146543 60.024352 
L 111.010589 60.080529 
L 112.753237 60.008994 
L 114.397268 59.728201 
L 115.960721 59.825172 
L 117.455258 60.089524 
L 118.898006 59.916246 
L 121.648403 59.878602 
L 122.965998 59.851091 
L 124.254917 59.679645 
L 125.512624 59.968023 
L 127.966182 59.924658 
L 129.162382 59.959941 
L 130.342531 59.871915 
L 131.517642 59.262039 
L 132.673294 59.148337 
L 134.951906 59.293571 
L 136.075712 59.527344 
L 138.310718 59.454226 
L 140.525238 59.661726 
L 141.623587 59.935157 
L 142.721576 60.08111 
L 143.822722 60.064682 
L 144.928544 59.904213 
L 147.135918 60.199891 
L 148.245459 60.228367 
L 149.36171 60.122663 
L 150.478867 60.386893 
L 151.604062 60.243527 
L 152.738549 59.900154 
L 153.874261 59.974673 
L 155.008768 60.207781 
L 156.15016 60.133034 
L 157.298839 59.856102 
L 158.448943 59.695633 
L 159.596394 59.665714 
L 160.741394 59.821 
L 161.885441 59.786943 
L 163.029234 59.607628 
L 164.167657 59.774035 
L 166.442872 59.448561 
L 167.574158 59.414588 
L 170.936402 59.655006 
L 172.051636 59.637394 
L 175.374122 59.936682 
L 179.782906 59.717827 
L 180.882613 59.574574 
L 184.15809 59.888043 
L 186.337326 59.880903 
L 188.515769 59.63057 
L 190.681848 59.946305 
L 192.84918 59.753874 
L 193.928139 59.926017 
L 196.089985 59.740668 
L 197.166275 59.886927 
L 198.24282 59.889304 
L 200.399975 59.678322 
L 201.473859 59.836513 
L 204.696503 59.844054 
L 205.767996 60.011325 
L 206.841704 59.88251 
L 207.915322 59.866154 
L 208.986841 60.016229 
L 210.060897 59.855451 
L 212.20928 59.854941 
L 213.280735 60.016092 
L 214.354672 59.86681 
L 215.427934 59.875115 
L 216.499671 60.041746 
L 217.576318 59.892407 
L 220.80703 59.86478 
L 222.956456 60.107811 
L 224.034112 60.108585 
L 225.116128 59.965691 
L 228.361905 59.987919 
L 229.442759 60.223395 
L 230.53184 59.905571 
L 231.622306 59.711009 
L 232.703046 60.263707 
L 233.794174 59.981145 
L 235.975723 60.099276 
L 237.073723 59.76923 
L 239.264461 60.022856 
L 240.362714 60.025425 
L 241.465988 59.851274 
L 242.563905 60.145275 
L 243.664895 60.231716 
L 244.77419 59.922852 
L 245.885429 59.760707 
L 246.991476 60.044664 
L 248.100382 60.139696 
L 249.217463 59.845943 
L 250.330233 60.087431 
L 251.449912 59.839518 
L 252.570042 59.814101 
L 253.686019 60.190079 
L 254.806925 60.240394 
L 255.935018 59.974334 
L 257.064289 59.911548 
L 258.191696 60.086476 
L 259.324571 59.924603 
L 260.456643 60.138741 
L 261.593409 60.042205 
L 262.735008 59.812934 
L 263.872974 60.047705 
L 265.016237 59.899952 
L 268.452224 60.180744 
L 269.607927 59.825432 
L 270.758918 60.086191 
L 271.912595 60.192466 
L 273.075206 59.879744 
L 274.236728 59.927174 
L 275.397406 60.165507 
L 277.733633 59.877054 
L 278.897828 60.288503 
L 280.073955 59.940697 
L 282.428095 59.966259 
L 289.54745 60.129726 
L 290.749284 59.790195 
L 291.943663 60.2366 
L 295.561072 60.110703 
L 296.778722 59.797957 
L 297.98873 60.270254 
L 299.206438 60.209484 
L 300.433622 59.89441 
L 301.661834 59.885635 
L 302.886219 60.256978 
L 305.360468 59.914909 
L 306.596679 60.365042 
L 309.098124 59.811528 
L 310.351802 59.942228 
L 311.605744 60.202639 
L 312.869834 60.033494 
L 314.13323 60.300099 
L 315.403966 60.276939 
L 316.682632 60.113864 
L 320.545996 59.942316 
L 321.838195 60.254841 
L 323.140574 60.117659 
L 325.756051 60.228948 
L 328.40094 59.901152 
L 329.724543 60.202928 
L 331.055976 60.209949 
L 332.394402 60.047227 
L 333.736408 60.116471 
L 335.078414 60.360435 
L 335.078414 60.360435 
" clip-path="url(#p4359ec20ce)" style="fill: none; stroke: #26497e; stroke-width: 1.2; stroke-linecap: round"/>
   </g>
   <g id="line2d_20">
    <path d="M 91.554352 90.63299 
L 99.036485 50.443962 
L 102.373026 50.490488 
L 104.996241 50.769477 
L 107.26282 50.723911 
L 109.295467 50.818884 
L 111.163286 50.641847 
L 112.902592 50.776901 
L 114.544616 50.620187 
L 117.605494 50.802959 
L 120.441268 50.729826 
L 123.114728 50.657644 
L 124.403792 50.477259 
L 125.6617 50.753185 
L 126.900272 50.588338 
L 129.309639 50.857526 
L 130.492292 50.614762 
L 131.668843 49.915859 
L 132.825064 49.766998 
L 133.968924 49.825713 
L 136.225047 50.296506 
L 139.57039 50.261314 
L 141.769182 50.935485 
L 142.869817 50.917901 
L 143.973035 50.773406 
L 145.075781 50.803097 
L 147.283319 51.088613 
L 149.510642 50.916765 
L 150.625214 51.34071 
L 151.751006 51.160478 
L 152.885981 50.786932 
L 154.0218 50.85482 
L 155.156311 51.087691 
L 156.299242 50.917839 
L 157.448112 50.629088 
L 159.748742 50.248613 
L 160.89158 50.537517 
L 162.033757 50.619066 
L 163.177701 50.430432 
L 164.318905 50.424919 
L 165.45847 50.205552 
L 168.847934 50.297925 
L 169.967796 50.43677 
L 172.199729 50.483326 
L 173.310074 50.635313 
L 179.933074 50.435511 
L 181.032236 50.3259 
L 184.30671 50.701356 
L 186.485947 50.694216 
L 188.664648 50.427878 
L 189.751186 50.435664 
L 191.91493 50.632829 
L 196.236451 50.687148 
L 197.313353 50.795597 
L 199.47288 50.415214 
L 200.54918 50.455503 
L 201.620354 50.78123 
L 203.773006 50.518608 
L 204.845775 50.617065 
L 205.914314 50.966978 
L 206.990623 50.677381 
L 208.064056 50.672503 
L 209.133219 50.968126 
L 210.210291 50.62098 
L 211.285959 50.506313 
L 212.358367 50.639388 
L 213.427112 50.968105 
L 215.575255 50.768782 
L 216.649918 50.754549 
L 217.726829 50.588897 
L 219.879733 50.623629 
L 222.027515 50.983155 
L 223.104786 50.939112 
L 225.267434 50.613061 
L 227.427323 50.841787 
L 228.50942 50.869587 
L 229.590492 51.091582 
L 230.681163 50.67551 
L 231.769825 50.592421 
L 232.851164 51.108099 
L 233.943368 50.758991 
L 236.125229 50.857894 
L 237.223387 50.518107 
L 239.414236 50.764848 
L 241.6128 50.776352 
L 242.712378 50.967736 
L 243.814928 50.95773 
L 246.033204 50.626274 
L 247.138439 50.960452 
L 248.249044 50.950469 
L 249.365809 50.676258 
L 250.478835 50.901873 
L 251.596837 50.75766 
L 252.715917 50.797117 
L 253.835241 50.966227 
L 254.956787 50.976981 
L 256.083189 50.815491 
L 258.339094 50.975399 
L 259.475423 50.600008 
L 260.604892 50.975012 
L 261.741536 50.886001 
L 262.882873 50.672903 
L 264.021112 50.890858 
L 265.164979 50.705815 
L 267.452888 51.02438 
L 268.597982 51.171005 
L 269.754094 50.790405 
L 270.907001 50.932719 
L 272.062182 50.946035 
L 274.387592 50.601802 
L 275.54545 51.014442 
L 276.712405 50.829303 
L 277.881071 50.763493 
L 279.045959 51.132076 
L 281.398174 50.778186 
L 283.758049 50.753116 
L 287.314752 50.792937 
L 288.502686 50.964556 
L 289.69535 50.987626 
L 290.897084 50.654237 
L 292.091243 51.114234 
L 294.500067 50.957427 
L 296.924216 50.804542 
L 298.134473 51.261474 
L 299.35332 51.130282 
L 300.58169 50.741873 
L 301.808649 50.810505 
L 303.034116 51.115066 
L 305.50949 50.7034 
L 306.745566 51.161889 
L 309.24442 50.768532 
L 311.753056 51.096894 
L 313.017734 50.891368 
L 314.281151 51.156697 
L 315.553154 51.055205 
L 316.832802 50.831394 
L 320.692864 50.863968 
L 321.985614 51.142418 
L 323.289232 50.928678 
L 324.592235 51.17969 
L 325.903679 51.103565 
L 327.223487 50.881765 
L 328.548356 50.788943 
L 331.203093 51.116188 
L 332.542769 50.876241 
L 333.886689 50.827142 
L 335.230609 50.952798 
L 335.230609 50.952798 
" clip-path="url(#p4359ec20ce)" style="fill: none; stroke: #29427a; stroke-width: 1.2; stroke-linecap: round"/>
   </g>
   <g id="line2d_21">
    <path d="M 91.645714 84.985629 
L 99.181185 41.499672 
L 129.460215 41.549964 
L 130.642625 41.322219 
L 131.820295 40.554174 
L 134.118937 40.552909 
L 135.25226 40.7278 
L 136.374364 41.066775 
L 139.7185 41.106191 
L 140.822122 41.310478 
L 141.919117 41.667555 
L 144.119601 41.713664 
L 145.222606 41.727351 
L 147.428595 42.108706 
L 148.539396 42.059263 
L 149.659261 41.730168 
L 150.771045 42.326457 
L 151.898166 42.064075 
L 153.033464 41.670618 
L 154.169283 41.738487 
L 155.304032 41.956637 
L 157.596018 41.4866 
L 158.744153 41.447856 
L 159.897621 41.045952 
L 161.039486 41.395024 
L 162.184354 41.310236 
L 163.329354 41.056317 
L 164.466993 41.271132 
L 165.605906 41.092121 
L 167.871418 41.040084 
L 168.997473 41.05444 
L 170.116342 41.25468 
L 172.351631 41.093771 
L 173.461393 41.281838 
L 177.882582 41.281642 
L 178.979615 41.488438 
L 181.18204 41.066124 
L 183.365662 41.469015 
L 185.548228 41.299932 
L 186.634769 41.495069 
L 188.813034 41.255743 
L 189.899005 41.298531 
L 190.980484 41.486744 
L 193.147272 41.327938 
L 194.226242 41.49937 
L 195.308576 41.317149 
L 198.540202 41.507246 
L 199.619765 41.335817 
L 200.696614 41.34217 
L 201.770355 41.509221 
L 202.84443 41.515599 
L 203.921318 41.351014 
L 204.995287 41.375284 
L 206.063992 41.714903 
L 207.14117 41.37158 
L 208.21334 41.444757 
L 209.282877 41.717311 
L 211.434508 41.324064 
L 212.50788 41.39758 
L 213.576759 41.71801 
L 214.651253 41.534289 
L 216.796488 41.694614 
L 217.873726 41.508717 
L 221.103897 41.514566 
L 222.177874 41.688998 
L 223.253565 41.74261 
L 225.414868 41.499705 
L 226.49378 41.678978 
L 228.660061 41.558012 
L 229.738619 41.935385 
L 230.830306 41.456507 
L 231.91716 41.485162 
L 232.999638 41.930498 
L 234.092679 41.529647 
L 235.179906 41.77069 
L 236.271071 41.842934 
L 237.369344 41.496058 
L 239.560117 41.747495 
L 241.762864 41.500479 
L 242.859706 41.860981 
L 243.961841 41.876572 
L 246.180885 41.497693 
L 247.285518 41.869082 
L 249.513351 41.556248 
L 250.62371 41.946733 
L 251.745 41.599244 
L 252.8653 41.563288 
L 255.102786 41.952339 
L 256.232793 41.568016 
L 258.486296 41.876364 
L 259.622634 41.500444 
L 260.751674 41.901952 
L 261.890262 41.692841 
L 263.029514 41.608631 
L 264.165764 41.949518 
L 265.313285 41.538564 
L 266.458032 41.612807 
L 267.601259 41.853107 
L 268.747743 41.913821 
L 269.904331 41.503781 
L 271.053838 41.856335 
L 272.208645 41.892746 
L 274.534677 41.51007 
L 275.6923 41.937239 
L 276.860932 41.648367 
L 278.028352 41.659594 
L 279.194275 41.964224 
L 280.368445 41.737368 
L 287.461504 41.721731 
L 288.64919 41.908732 
L 289.843667 41.81971 
L 291.044654 41.532526 
L 292.239057 41.977392 
L 293.442965 41.774984 
L 294.646363 41.914428 
L 295.857419 41.792625 
L 297.073896 41.552382 
L 298.284351 41.997037 
L 299.500712 42.019565 
L 300.729595 41.599408 
L 301.955689 41.721558 
L 303.180799 42.048142 
L 304.414024 41.928993 
L 305.658388 41.499584 
L 306.890869 42.180244 
L 309.391046 41.705158 
L 311.900571 41.978516 
L 313.165537 41.755199 
L 314.429413 41.992182 
L 315.699091 42.034406 
L 316.978446 41.828726 
L 319.546193 41.945261 
L 320.83965 41.790661 
L 322.13327 42.015391 
L 323.437523 41.762366 
L 324.740865 41.992411 
L 326.050092 42.053374 
L 328.694863 41.732906 
L 331.350509 42.00398 
L 332.69116 41.703742 
L 334.03508 41.654643 
L 335.379 41.780298 
L 335.379 41.780298 
" clip-path="url(#p4359ec20ce)" style="fill: none; stroke: #2b3975; stroke-width: 1.2; stroke-linecap: round"/>
   </g>
   <g id="patch_3">
    <path d="M 78.3852 234.5448 
L 78.3852 31.3152 
" style="fill: none; stroke: #262626; stroke-linejoin: miter; stroke-linecap: square"/>
   </g>
   <g id="patch_4">
    <path d="M 347.6168 234.5448 
L 347.6168 31.3152 
" style="fill: none; stroke: #262626; stroke-linejoin: miter; stroke-linecap: square"/>
   </g>
   <g id="patch_5">
    <path d="M 78.3852 234.5448 
L 347.6168 234.5448 
" style="fill: none; stroke: #262626; stroke-linejoin: miter; stroke-linecap: square"/>
   </g>
   <g id="patch_6">
    <path d="M 78.3852 31.3152 
L 347.6168 31.3152 
" style="fill: none; stroke: #262626; stroke-linejoin: miter; stroke-linecap: square"/>
   </g>
   <g id="text_12">
    <!-- Final Inverted Table -->
    <g style="fill: #262626" transform="translate(147.7078 25.3152) scale(0.1344 -0.1344)">
     <defs>
      <path id="DejaVuSans-46" d="M 628 4666 
L 3309 4666 
L 3309 4134 
L 1259 4134 
L 1259 2759 
L 3109 2759 
L 3109 2228 
L 1259 2228 
L 1259 0 
L 628 0 
L 628 4666 
z
" transform="scale(0.015625)"/>
      <path id="DejaVuSans-61" d="M 2194 1759 
Q 1497 1759 1228 1600 
Q 959 1441 959 1056 
Q 959 750 1161 570 
Q 1363 391 1709 391 
Q 2188 391 2477 730 
Q 2766 1069 2766 1631 
L 2766 1759 
L 2194 1759 
z
M 3341 1997 
L 3341 0 
L 2766 0 
L 2766 531 
Q 2569 213 2275 61 
Q 1981 -91 1556 -91 
Q 1019 -91 701 211 
Q 384 513 384 1019 
Q 384 1609 779 1909 
Q 1175 2209 1959 2209 
L 2766 2209 
L 2766 2266 
Q 2766 2663 2505 2880 
Q 2244 3097 1772 3097 
Q 1472 3097 1187 3025 
Q 903 2953 641 2809 
L 641 3341 
Q 956 3463 1253 3523 
Q 1550 3584 1831 3584 
Q 2591 3584 2966 3190 
Q 3341 2797 3341 1997 
z
" transform="scale(0.015625)"/>
      <path id="DejaVuSans-6c" d="M 603 4863 
L 1178 4863 
L 1178 0 
L 603 0 
L 603 4863 
z
" transform="scale(0.015625)"/>
      <path id="DejaVuSans-49" d="M 628 4666 
L 1259 4666 
L 1259 0 
L 628 0 
L 628 4666 
z
" transform="scale(0.015625)"/>
      <path id="DejaVuSans-76" d="M 191 3500 
L 800 3500 
L 1894 563 
L 2988 3500 
L 3597 3500 
L 2284 0 
L 1503 0 
L 191 3500 
z
" transform="scale(0.015625)"/>
      <path id="DejaVuSans-64" d="M 2906 2969 
L 2906 4863 
L 3481 4863 
L 3481 0 
L 2906 0 
L 2906 525 
Q 2725 213 2448 61 
Q 2172 -91 1784 -91 
Q 1150 -91 751 415 
Q 353 922 353 1747 
Q 353 2572 751 3078 
Q 1150 3584 1784 3584 
Q 2172 3584 2448 3432 
Q 2725 3281 2906 2969 
z
M 947 1747 
Q 947 1113 1208 752 
Q 1469 391 1925 391 
Q 2381 391 2643 752 
Q 2906 1113 2906 1747 
Q 2906 2381 2643 2742 
Q 2381 3103 1925 3103 
Q 1469 3103 1208 2742 
Q 947 2381 947 1747 
z
" transform="scale(0.015625)"/>
      <path id="DejaVuSans-62" d="M 3116 1747 
Q 3116 2381 2855 2742 
Q 2594 3103 2138 3103 
Q 1681 3103 1420 2742 
Q 1159 2381 1159 1747 
Q 1159 1113 1420 752 
Q 1681 391 2138 391 
Q 2594 391 2855 752 
Q 3116 1113 3116 1747 
z
M 1159 2969 
Q 1341 3281 1617 3432 
Q 1894 3584 2278 3584 
Q 2916 3584 3314 3078 
Q 3713 2572 3713 1747 
Q 3713 922 3314 415 
Q 2916 -91 2278 -91 
Q 1894 -91 1617 61 
Q 1341 213 1159 525 
L 1159 0 
L 581 0 
L 581 4863 
L 1159 4863 
L 1159 2969 
z
" transform="scale(0.015625)"/>
     </defs>
     <use xlink:href="#DejaVuSans-46"/>
     <use xlink:href="#DejaVuSans-69" x="50.269531"/>
     <use xlink:href="#DejaVuSans-6e" x="78.052734"/>
     <use xlink:href="#DejaVuSans-61" x="141.431641"/>
     <use xlink:href="#DejaVuSans-6c" x="202.710938"/>
     <use xlink:href="#DejaVuSans-20" x="230.494141"/>
     <use xlink:href="#DejaVuSans-49" x="262.28125"/>
     <use xlink:href="#DejaVuSans-6e" x="291.773438"/>
     <use xlink:href="#DejaVuSans-76" x="355.152344"/>
     <use xlink:href="#DejaVuSans-65" x="414.332031"/>
     <use xlink:href="#DejaVuSans-72" x="475.855469"/>
     <use xlink:href="#DejaVuSans-74" x="516.96875"/>
     <use xlink:href="#DejaVuSans-65" x="556.177734"/>
     <use xlink:href="#DejaVuSans-64" x="617.701172"/>
     <use xlink:href="#DejaVuSans-20" x="681.177734"/>
     <use xlink:href="#DejaVuSans-54" x="712.964844"/>
     <use xlink:href="#DejaVuSans-61" x="757.548828"/>
     <use xlink:href="#DejaVuSans-62" x="818.828125"/>
     <use xlink:href="#DejaVuSans-6c" x="882.304688"/>
     <use xlink:href="#DejaVuSans-65" x="910.087891"/>
    </g>
   </g>
   <g id="legend_1">
    <g id="patch_7">
     <path d="M 356.2408 259.25655 
L 558.371575 259.25655 
Q 560.835575 259.25655 560.835575 256.79255 
L 560.835575 39.9392 
Q 560.835575 37.4752 558.371575 37.4752 
L 356.2408 37.4752 
Q 353.7768 37.4752 353.7768 39.9392 
L 353.7768 256.79255 
Q 353.7768 259.25655 356.2408 259.25655 
z
" style="fill: #ffffff; opacity: 0.8; stroke: #cccccc; stroke-width: 0.8; stroke-linejoin: miter"/>
    </g>
    <g id="text_13">
     <!-- Cold Junc. Temp -->
     <g style="fill: #262626" transform="translate(403.858038 52.6155) scale(0.1344 -0.1344)">
      <defs>
       <path id="DejaVuSans-43" d="M 4122 4306 
L 4122 3641 
Q 3803 3938 3442 4084 
Q 3081 4231 2675 4231 
Q 1875 4231 1450 3742 
Q 1025 3253 1025 2328 
Q 1025 1406 1450 917 
Q 1875 428 2675 428 
Q 3081 428 3442 575 
Q 3803 722 4122 1019 
L 4122 359 
Q 3791 134 3420 21 
Q 3050 -91 2638 -91 
Q 1578 -91 968 557 
Q 359 1206 359 2328 
Q 359 3453 968 4101 
Q 1578 4750 2638 4750 
Q 3056 4750 3426 4639 
Q 3797 4528 4122 4306 
z
" transform="scale(0.015625)"/>
       <path id="DejaVuSans-2e" d="M 684 794 
L 1344 794 
L 1344 0 
L 684 0 
L 684 794 
z
" transform="scale(0.015625)"/>
      </defs>
      <use xlink:href="#DejaVuSans-43"/>
      <use xlink:href="#DejaVuSans-6f" x="69.824219"/>
      <use xlink:href="#DejaVuSans-6c" x="131.005859"/>
      <use xlink:href="#DejaVuSans-64" x="158.789062"/>
      <use xlink:href="#DejaVuSans-20" x="222.265625"/>
      <use xlink:href="#DejaVuSans-4a" x="254.052734"/>
      <use xlink:href="#DejaVuSans-75" x="283.544922"/>
      <use xlink:href="#DejaVuSans-6e" x="346.923828"/>
      <use xlink:href="#DejaVuSans-63" x="410.302734"/>
      <use xlink:href="#DejaVuSans-2e" x="465.283203"/>
      <use xlink:href="#DejaVuSans-20" x="497.070312"/>
      <use xlink:href="#DejaVuSans-54" x="528.857422"/>
      <use xlink:href="#DejaVuSans-65" x="572.941406"/>
      <use xlink:href="#DejaVuSans-6d" x="634.464844"/>
      <use xlink:href="#DejaVuSans-70" x="731.876953"/>
     </g>
    </g>
    <g id="line2d_22">
     <path d="M 358.7048 66.619875 
L 371.0248 66.619875 
L 383.3448 66.619875 
" style="fill: none; stroke: #99c791; stroke-width: 1.2; stroke-linecap: round"/>
    </g>
    <g id="text_14">
     <!-- -10.0 (C) -->
     <g style="fill: #262626" transform="translate(393.2008 70.931875) scale(0.1232 -0.1232)">
      <defs>
       <path id="DejaVuSans-2d" d="M 313 2009 
L 1997 2009 
L 1997 1497 
L 313 1497 
L 313 2009 
z
" transform="scale(0.015625)"/>
      </defs>
      <use xlink:href="#DejaVuSans-2d"/>
      <use xlink:href="#DejaVuSans-31" x="36.083984"/>
      <use xlink:href="#DejaVuSans-30" x="99.707031"/>
      <use xlink:href="#DejaVuSans-2e" x="163.330078"/>
      <use xlink:href="#DejaVuSans-30" x="195.117188"/>
      <use xlink:href="#DejaVuSans-20" x="258.740234"/>
      <use xlink:href="#DejaVuSans-28" x="290.527344"/>
      <use xlink:href="#DejaVuSans-43" x="329.541016"/>
      <use xlink:href="#DejaVuSans-29" x="399.365234"/>
     </g>
    </g>
    <g id="line2d_23">
     <path d="M 358.7048 84.703325 
L 371.0248 84.703325 
L 383.3448 84.703325 
" style="fill: none; stroke: #8bc191; stroke-width: 1.2; stroke-linecap: round"/>
    </g>
    <g id="text_15">
     <!-- -9.0 (C) -->
     <g style="fill: #262626" transform="translate(393.2008 89.015325) scale(0.1232 -0.1232)">
      <defs>
       <path id="DejaVuSans-39" d="M 703 97 
L 703 672 
Q 941 559 1184 500 
Q 1428 441 1663 441 
Q 2288 441 2617 861 
Q 2947 1281 2994 2138 
Q 2813 1869 2534 1725 
Q 2256 1581 1919 1581 
Q 1219 1581 811 2004 
Q 403 2428 403 3163 
Q 403 3881 828 4315 
Q 1253 4750 1959 4750 
Q 2769 4750 3195 4129 
Q 3622 3509 3622 2328 
Q 3622 1225 3098 567 
Q 2575 -91 1691 -91 
Q 1453 -91 1209 -44 
Q 966 3 703 97 
z
M 1959 2075 
Q 2384 2075 2632 2365 
Q 2881 2656 2881 3163 
Q 2881 3666 2632 3958 
Q 2384 4250 1959 4250 
Q 1534 4250 1286 3958 
Q 1038 3666 1038 3163 
Q 1038 2656 1286 2365 
Q 1534 2075 1959 2075 
z
" transform="scale(0.015625)"/>
      </defs>
      <use xlink:href="#DejaVuSans-2d"/>
      <use xlink:href="#DejaVuSans-39" x="36.083984"/>
      <use xlink:href="#DejaVuSans-2e" x="99.707031"/>
      <use xlink:href="#DejaVuSans-30" x="131.494141"/>
      <use xlink:href="#DejaVuSans-20" x="195.117188"/>
      <use xlink:href="#DejaVuSans-28" x="226.904297"/>
      <use xlink:href="#DejaVuSans-43" x="265.917969"/>
      <use xlink:href="#DejaVuSans-29" x="335.742188"/>
     </g>
    </g>
    <g id="line2d_24">
     <path d="M 358.7048 102.786775 
L 371.0248 102.786775 
L 383.3448 102.786775 
" style="fill: none; stroke: #7fbb91; stroke-width: 1.2; stroke-linecap: round"/>
    </g>
    <g id="text_16">
     <!-- -8.0 (C) -->
     <g style="fill: #262626" transform="translate(393.2008 107.098775) scale(0.1232 -0.1232)">
      <defs>
       <path id="DejaVuSans-38" d="M 2034 2216 
Q 1584 2216 1326 1975 
Q 1069 1734 1069 1313 
Q 1069 891 1326 650 
Q 1584 409 2034 409 
Q 2484 409 2743 651 
Q 3003 894 3003 1313 
Q 3003 1734 2745 1975 
Q 2488 2216 2034 2216 
z
M 1403 2484 
Q 997 2584 770 2862 
Q 544 3141 544 3541 
Q 544 4100 942 4425 
Q 1341 4750 2034 4750 
Q 2731 4750 3128 4425 
Q 3525 4100 3525 3541 
Q 3525 3141 3298 2862 
Q 3072 2584 2669 2484 
Q 3125 2378 3379 2068 
Q 3634 1759 3634 1313 
Q 3634 634 3220 271 
Q 2806 -91 2034 -91 
Q 1263 -91 848 271 
Q 434 634 434 1313 
Q 434 1759 690 2068 
Q 947 2378 1403 2484 
z
M 1172 3481 
Q 1172 3119 1398 2916 
Q 1625 2713 2034 2713 
Q 2441 2713 2670 2916 
Q 2900 3119 2900 3481 
Q 2900 3844 2670 4047 
Q 2441 4250 2034 4250 
Q 1625 4250 1398 4047 
Q 1172 3844 1172 3481 
z
" transform="scale(0.015625)"/>
      </defs>
      <use xlink:href="#DejaVuSans-2d"/>
      <use xlink:href="#DejaVuSans-38" x="36.083984"/>
      <use xlink:href="#DejaVuSans-2e" x="99.707031"/>
      <use xlink:href="#DejaVuSans-30" x="131.494141"/>
      <use xlink:href="#DejaVuSans-20" x="195.117188"/>
      <use xlink:href="#DejaVuSans-28" x="226.904297"/>
      <use xlink:href="#DejaVuSans-43" x="265.917969"/>
      <use xlink:href="#DejaVuSans-29" x="335.742188"/>
     </g>
    </g>
    <g id="line2d_25">
     <path d="M 358.7048 120.870225 
L 371.0248 120.870225 
L 383.3448 120.870225 
" style="fill: none; stroke: #72b490; stroke-width: 1.2; stroke-linecap: round"/>
    </g>
    <g id="text_17">
     <!-- -7.0 (C) -->
     <g style="fill: #262626" transform="translate(393.2008 125.182225) scale(0.1232 -0.1232)">
      <defs>
       <path id="DejaVuSans-37" d="M 525 4666 
L 3525 4666 
L 3525 4397 
L 1831 0 
L 1172 0 
L 2766 4134 
L 525 4134 
L 525 4666 
z
" transform="scale(0.015625)"/>
      </defs>
      <use xlink:href="#DejaVuSans-2d"/>
      <use xlink:href="#DejaVuSans-37" x="36.083984"/>
      <use xlink:href="#DejaVuSans-2e" x="99.707031"/>
      <use xlink:href="#DejaVuSans-30" x="131.494141"/>
      <use xlink:href="#DejaVuSans-20" x="195.117188"/>
      <use xlink:href="#DejaVuSans-28" x="226.904297"/>
      <use xlink:href="#DejaVuSans-43" x="265.917969"/>
      <use xlink:href="#DejaVuSans-29" x="335.742188"/>
     </g>
    </g>
    <g id="line2d_26">
     <path d="M 358.7048 138.953675 
L 371.0248 138.953675 
L 383.3448 138.953675 
" style="fill: none; stroke: #66ae90; stroke-width: 1.2; stroke-linecap: round"/>
    </g>
    <g id="text_18">
     <!-- -6.0 (C) -->
     <g style="fill: #262626" transform="translate(393.2008 143.265675) scale(0.1232 -0.1232)">
      <defs>
       <path id="DejaVuSans-36" d="M 2113 2584 
Q 1688 2584 1439 2293 
Q 1191 2003 1191 1497 
Q 1191 994 1439 701 
Q 1688 409 2113 409 
Q 2538 409 2786 701 
Q 3034 994 3034 1497 
Q 3034 2003 2786 2293 
Q 2538 2584 2113 2584 
z
M 3366 4563 
L 3366 3988 
Q 3128 4100 2886 4159 
Q 2644 4219 2406 4219 
Q 1781 4219 1451 3797 
Q 1122 3375 1075 2522 
Q 1259 2794 1537 2939 
Q 1816 3084 2150 3084 
Q 2853 3084 3261 2657 
Q 3669 2231 3669 1497 
Q 3669 778 3244 343 
Q 2819 -91 2113 -91 
Q 1303 -91 875 529 
Q 447 1150 447 2328 
Q 447 3434 972 4092 
Q 1497 4750 2381 4750 
Q 2619 4750 2861 4703 
Q 3103 4656 3366 4563 
z
" transform="scale(0.015625)"/>
      </defs>
      <use xlink:href="#DejaVuSans-2d"/>
      <use xlink:href="#DejaVuSans-36" x="36.083984"/>
      <use xlink:href="#DejaVuSans-2e" x="99.707031"/>
      <use xlink:href="#DejaVuSans-30" x="131.494141"/>
      <use xlink:href="#DejaVuSans-20" x="195.117188"/>
      <use xlink:href="#DejaVuSans-28" x="226.904297"/>
      <use xlink:href="#DejaVuSans-43" x="265.917969"/>
      <use xlink:href="#DejaVuSans-29" x="335.742188"/>
     </g>
    </g>
    <g id="line2d_27">
     <path d="M 358.7048 157.037125 
L 371.0248 157.037125 
L 383.3448 157.037125 
" style="fill: none; stroke: #5ca890; stroke-width: 1.2; stroke-linecap: round"/>
    </g>
    <g id="text_19">
     <!-- -5.0 (C) -->
     <g style="fill: #262626" transform="translate(393.2008 161.349125) scale(0.1232 -0.1232)">
      <use xlink:href="#DejaVuSans-2d"/>
      <use xlink:href="#DejaVuSans-35" x="36.083984"/>
      <use xlink:href="#DejaVuSans-2e" x="99.707031"/>
      <use xlink:href="#DejaVuSans-30" x="131.494141"/>
      <use xlink:href="#DejaVuSans-20" x="195.117188"/>
      <use xlink:href="#DejaVuSans-28" x="226.904297"/>
      <use xlink:href="#DejaVuSans-43" x="265.917969"/>
      <use xlink:href="#DejaVuSans-29" x="335.742188"/>
     </g>
    </g>
    <g id="line2d_28">
     <path d="M 358.7048 175.120575 
L 371.0248 175.120575 
L 383.3448 175.120575 
" style="fill: none; stroke: #53a190; stroke-width: 1.2; stroke-linecap: round"/>
    </g>
    <g id="text_20">
     <!-- -4.0 (C) -->
     <g style="fill: #262626" transform="translate(393.2008 179.432575) scale(0.1232 -0.1232)">
      <defs>
       <path id="DejaVuSans-34" d="M 2419 4116 
L 825 1625 
L 2419 1625 
L 2419 4116 
z
M 2253 4666 
L 3047 4666 
L 3047 1625 
L 3713 1625 
L 3713 1100 
L 3047 1100 
L 3047 0 
L 2419 0 
L 2419 1100 
L 313 1100 
L 313 1709 
L 2253 4666 
z
" transform="scale(0.015625)"/>
      </defs>
      <use xlink:href="#DejaVuSans-2d"/>
      <use xlink:href="#DejaVuSans-34" x="36.083984"/>
      <use xlink:href="#DejaVuSans-2e" x="99.707031"/>
      <use xlink:href="#DejaVuSans-30" x="131.494141"/>
      <use xlink:href="#DejaVuSans-20" x="195.117188"/>
      <use xlink:href="#DejaVuSans-28" x="226.904297"/>
      <use xlink:href="#DejaVuSans-43" x="265.917969"/>
      <use xlink:href="#DejaVuSans-29" x="335.742188"/>
     </g>
    </g>
    <g id="line2d_29">
     <path d="M 358.7048 193.204025 
L 371.0248 193.204025 
L 383.3448 193.204025 
" style="fill: none; stroke: #4a9a8f; stroke-width: 1.2; stroke-linecap: round"/>
    </g>
    <g id="text_21">
     <!-- -3.0 (C) -->
     <g style="fill: #262626" transform="translate(393.2008 197.516025) scale(0.1232 -0.1232)">
      <defs>
       <path id="DejaVuSans-33" d="M 2597 2516 
Q 3050 2419 3304 2112 
Q 3559 1806 3559 1356 
Q 3559 666 3084 287 
Q 2609 -91 1734 -91 
Q 1441 -91 1130 -33 
Q 819 25 488 141 
L 488 750 
Q 750 597 1062 519 
Q 1375 441 1716 441 
Q 2309 441 2620 675 
Q 2931 909 2931 1356 
Q 2931 1769 2642 2001 
Q 2353 2234 1838 2234 
L 1294 2234 
L 1294 2753 
L 1863 2753 
Q 2328 2753 2575 2939 
Q 2822 3125 2822 3475 
Q 2822 3834 2567 4026 
Q 2313 4219 1838 4219 
Q 1578 4219 1281 4162 
Q 984 4106 628 3988 
L 628 4550 
Q 988 4650 1302 4700 
Q 1616 4750 1894 4750 
Q 2613 4750 3031 4423 
Q 3450 4097 3450 3541 
Q 3450 3153 3228 2886 
Q 3006 2619 2597 2516 
z
" transform="scale(0.015625)"/>
      </defs>
      <use xlink:href="#DejaVuSans-2d"/>
      <use xlink:href="#DejaVuSans-33" x="36.083984"/>
      <use xlink:href="#DejaVuSans-2e" x="99.707031"/>
      <use xlink:href="#DejaVuSans-30" x="131.494141"/>
      <use xlink:href="#DejaVuSans-20" x="195.117188"/>
      <use xlink:href="#DejaVuSans-28" x="226.904297"/>
      <use xlink:href="#DejaVuSans-43" x="265.917969"/>
      <use xlink:href="#DejaVuSans-29" x="335.742188"/>
     </g>
    </g>
    <g id="line2d_30">
     <path d="M 358.7048 211.287475 
L 371.0248 211.287475 
L 383.3448 211.287475 
" style="fill: none; stroke: #43938f; stroke-width: 1.2; stroke-linecap: round"/>
    </g>
    <g id="text_22">
     <!-- -2.0 (C) -->
     <g style="fill: #262626" transform="translate(393.2008 215.599475) scale(0.1232 -0.1232)">
      <defs>
       <path id="DejaVuSans-32" d="M 1228 531 
L 3431 531 
L 3431 0 
L 469 0 
L 469 531 
Q 828 903 1448 1529 
Q 2069 2156 2228 2338 
Q 2531 2678 2651 2914 
Q 2772 3150 2772 3378 
Q 2772 3750 2511 3984 
Q 2250 4219 1831 4219 
Q 1534 4219 1204 4116 
Q 875 4013 500 3803 
L 500 4441 
Q 881 4594 1212 4672 
Q 1544 4750 1819 4750 
Q 2544 4750 2975 4387 
Q 3406 4025 3406 3419 
Q 3406 3131 3298 2873 
Q 3191 2616 2906 2266 
Q 2828 2175 2409 1742 
Q 1991 1309 1228 531 
z
" transform="scale(0.015625)"/>
      </defs>
      <use xlink:href="#DejaVuSans-2d"/>
      <use xlink:href="#DejaVuSans-32" x="36.083984"/>
      <use xlink:href="#DejaVuSans-2e" x="99.707031"/>
      <use xlink:href="#DejaVuSans-30" x="131.494141"/>
      <use xlink:href="#DejaVuSans-20" x="195.117188"/>
      <use xlink:href="#DejaVuSans-28" x="226.904297"/>
      <use xlink:href="#DejaVuSans-43" x="265.917969"/>
      <use xlink:href="#DejaVuSans-29" x="335.742188"/>
     </g>
    </g>
    <g id="line2d_31">
     <path d="M 358.7048 229.370925 
L 371.0248 229.370925 
L 383.3448 229.370925 
" style="fill: none; stroke: #3b8c8e; stroke-width: 1.2; stroke-linecap: round"/>
    </g>
    <g id="text_23">
     <!-- -1.0 (C) -->
     <g style="fill: #262626" transform="translate(393.2008 233.682925) scale(0.1232 -0.1232)">
      <use xlink:href="#DejaVuSans-2d"/>
      <use xlink:href="#DejaVuSans-31" x="36.083984"/>
      <use xlink:href="#DejaVuSans-2e" x="99.707031"/>
      <use xlink:href="#DejaVuSans-30" x="131.494141"/>
      <use xlink:href="#DejaVuSans-20" x="195.117188"/>
      <use xlink:href="#DejaVuSans-28" x="226.904297"/>
      <use xlink:href="#DejaVuSans-43" x="265.917969"/>
      <use xlink:href="#DejaVuSans-29" x="335.742188"/>
     </g>
    </g>
    <g id="line2d_32">
     <path d="M 358.7048 247.454375 
L 371.0248 247.454375 
L 383.3448 247.454375 
" style="fill: none; stroke: #33858d; stroke-width: 1.2; stroke-linecap: round"/>
    </g>
    <g id="text_24">
     <!-- 0.0 (C) -->
     <g style="fill: #262626" transform="translate(393.2008 251.766375) scale(0.1232 -0.1232)">
      <use xlink:href="#DejaVuSans-30"/>
      <use xlink:href="#DejaVuSans-2e" x="63.623047"/>
      <use xlink:href="#DejaVuSans-30" x="95.410156"/>
      <use xlink:href="#DejaVuSans-20" x="159.033203"/>
      <use xlink:href="#DejaVuSans-28" x="190.820312"/>
      <use xlink:href="#DejaVuSans-43" x="229.833984"/>
      <use xlink:href="#DejaVuSans-29" x="299.658203"/>
     </g>
    </g>
    <g id="line2d_33">
     <path d="M 471.8486 66.619875 
L 484.1686 66.619875 
L 496.4886 66.619875 
" style="fill: none; stroke: #2c7e8c; stroke-width: 1.2; stroke-linecap: round"/>
    </g>
    <g id="text_25">
     <!-- 1.0 (C) -->
     <g style="fill: #262626" transform="translate(506.3446 70.931875) scale(0.1232 -0.1232)">
      <use xlink:href="#DejaVuSans-31"/>
      <use xlink:href="#DejaVuSans-2e" x="63.623047"/>
      <use xlink:href="#DejaVuSans-30" x="95.410156"/>
      <use xlink:href="#DejaVuSans-20" x="159.033203"/>
      <use xlink:href="#DejaVuSans-28" x="190.820312"/>
      <use xlink:href="#DejaVuSans-43" x="229.833984"/>
      <use xlink:href="#DejaVuSans-29" x="299.658203"/>
     </g>
    </g>
    <g id="line2d_34">
     <path d="M 471.8486 84.703325 
L 484.1686 84.703325 
L 496.4886 84.703325 
" style="fill: none; stroke: #25778c; stroke-width: 1.2; stroke-linecap: round"/>
    </g>
    <g id="text_26">
     <!-- 2.0 (C) -->
     <g style="fill: #262626" transform="translate(506.3446 89.015325) scale(0.1232 -0.1232)">
      <use xlink:href="#DejaVuSans-32"/>
      <use xlink:href="#DejaVuSans-2e" x="63.623047"/>
      <use xlink:href="#DejaVuSans-30" x="95.410156"/>
      <use xlink:href="#DejaVuSans-20" x="159.033203"/>
      <use xlink:href="#DejaVuSans-28" x="190.820312"/>
      <use xlink:href="#DejaVuSans-43" x="229.833984"/>
      <use xlink:href="#DejaVuSans-29" x="299.658203"/>
     </g>
    </g>
    <g id="line2d_35">
     <path d="M 471.8486 102.786775 
L 484.1686 102.786775 
L 496.4886 102.786775 
" style="fill: none; stroke: #20718b; stroke-width: 1.2; stroke-linecap: round"/>
    </g>
    <g id="text_27">
     <!-- 3.0 (C) -->
     <g style="fill: #262626" transform="translate(506.3446 107.098775) scale(0.1232 -0.1232)">
      <use xlink:href="#DejaVuSans-33"/>
      <use xlink:href="#DejaVuSans-2e" x="63.623047"/>
      <use xlink:href="#DejaVuSans-30" x="95.410156"/>
      <use xlink:href="#DejaVuSans-20" x="159.033203"/>
      <use xlink:href="#DejaVuSans-28" x="190.820312"/>
      <use xlink:href="#DejaVuSans-43" x="229.833984"/>
      <use xlink:href="#DejaVuSans-29" x="299.658203"/>
     </g>
    </g>
    <g id="line2d_36">
     <path d="M 471.8486 120.870225 
L 484.1686 120.870225 
L 496.4886 120.870225 
" style="fill: none; stroke: #1c6989; stroke-width: 1.2; stroke-linecap: round"/>
    </g>
    <g id="text_28">
     <!-- 4.0 (C) -->
     <g style="fill: #262626" transform="translate(506.3446 125.182225) scale(0.1232 -0.1232)">
      <use xlink:href="#DejaVuSans-34"/>
      <use xlink:href="#DejaVuSans-2e" x="63.623047"/>
      <use xlink:href="#DejaVuSans-30" x="95.410156"/>
      <use xlink:href="#DejaVuSans-20" x="159.033203"/>
      <use xlink:href="#DejaVuSans-28" x="190.820312"/>
      <use xlink:href="#DejaVuSans-43" x="229.833984"/>
      <use xlink:href="#DejaVuSans-29" x="299.658203"/>
     </g>
    </g>
    <g id="line2d_37">
     <path d="M 471.8486 138.953675 
L 484.1686 138.953675 
L 496.4886 138.953675 
" style="fill: none; stroke: #1d6188; stroke-width: 1.2; stroke-linecap: round"/>
    </g>
    <g id="text_29">
     <!-- 5.0 (C) -->
     <g style="fill: #262626" transform="translate(506.3446 143.265675) scale(0.1232 -0.1232)">
      <use xlink:href="#DejaVuSans-35"/>
      <use xlink:href="#DejaVuSans-2e" x="63.623047"/>
      <use xlink:href="#DejaVuSans-30" x="95.410156"/>
      <use xlink:href="#DejaVuSans-20" x="159.033203"/>
      <use xlink:href="#DejaVuSans-28" x="190.820312"/>
      <use xlink:href="#DejaVuSans-43" x="229.833984"/>
      <use xlink:href="#DejaVuSans-29" x="299.658203"/>
     </g>
    </g>
    <g id="line2d_38">
     <path d="M 471.8486 157.037125 
L 484.1686 157.037125 
L 496.4886 157.037125 
" style="fill: none; stroke: #1f5a85; stroke-width: 1.2; stroke-linecap: round"/>
    </g>
    <g id="text_30">
     <!-- 6.0 (C) -->
     <g style="fill: #262626" transform="translate(506.3446 161.349125) scale(0.1232 -0.1232)">
      <use xlink:href="#DejaVuSans-36"/>
      <use xlink:href="#DejaVuSans-2e" x="63.623047"/>
      <use xlink:href="#DejaVuSans-30" x="95.410156"/>
      <use xlink:href="#DejaVuSans-20" x="159.033203"/>
      <use xlink:href="#DejaVuSans-28" x="190.820312"/>
      <use xlink:href="#DejaVuSans-43" x="229.833984"/>
      <use xlink:href="#DejaVuSans-29" x="299.658203"/>
     </g>
    </g>
    <g id="line2d_39">
     <path d="M 471.8486 175.120575 
L 484.1686 175.120575 
L 496.4886 175.120575 
" style="fill: none; stroke: #225282; stroke-width: 1.2; stroke-linecap: round"/>
    </g>
    <g id="text_31">
     <!-- 7.0 (C) -->
     <g style="fill: #262626" transform="translate(506.3446 179.432575) scale(0.1232 -0.1232)">
      <use xlink:href="#DejaVuSans-37"/>
      <use xlink:href="#DejaVuSans-2e" x="63.623047"/>
      <use xlink:href="#DejaVuSans-30" x="95.410156"/>
      <use xlink:href="#DejaVuSans-20" x="159.033203"/>
      <use xlink:href="#DejaVuSans-28" x="190.820312"/>
      <use xlink:href="#DejaVuSans-43" x="229.833984"/>
      <use xlink:href="#DejaVuSans-29" x="299.658203"/>
     </g>
    </g>
    <g id="line2d_40">
     <path d="M 471.8486 193.204025 
L 484.1686 193.204025 
L 496.4886 193.204025 
" style="fill: none; stroke: #26497e; stroke-width: 1.2; stroke-linecap: round"/>
    </g>
    <g id="text_32">
     <!-- 8.0 (C) -->
     <g style="fill: #262626" transform="translate(506.3446 197.516025) scale(0.1232 -0.1232)">
      <use xlink:href="#DejaVuSans-38"/>
      <use xlink:href="#DejaVuSans-2e" x="63.623047"/>
      <use xlink:href="#DejaVuSans-30" x="95.410156"/>
      <use xlink:href="#DejaVuSans-20" x="159.033203"/>
      <use xlink:href="#DejaVuSans-28" x="190.820312"/>
      <use xlink:href="#DejaVuSans-43" x="229.833984"/>
      <use xlink:href="#DejaVuSans-29" x="299.658203"/>
     </g>
    </g>
    <g id="line2d_41">
     <path d="M 471.8486 211.287475 
L 484.1686 211.287475 
L 496.4886 211.287475 
" style="fill: none; stroke: #29427a; stroke-width: 1.2; stroke-linecap: round"/>
    </g>
    <g id="text_33">
     <!-- 9.0 (C) -->
     <g style="fill: #262626" transform="translate(506.3446 215.599475) scale(0.1232 -0.1232)">
      <use xlink:href="#DejaVuSans-39"/>
      <use xlink:href="#DejaVuSans-2e" x="63.623047"/>
      <use xlink:href="#DejaVuSans-30" x="95.410156"/>
      <use xlink:href="#DejaVuSans-20" x="159.033203"/>
      <use xlink:href="#DejaVuSans-28" x="190.820312"/>
      <use xlink:href="#DejaVuSans-43" x="229.833984"/>
      <use xlink:href="#DejaVuSans-29" x="299.658203"/>
     </g>
    </g>
    <g id="line2d_42">
     <path d="M 471.8486 229.370925 
L 484.1686 229.370925 
L 496.4886 229.370925 
" style="fill: none; stroke: #2b3975; stroke-width: 1.2; stroke-linecap: round"/>
    </g>
    <g id="text_34">
     <!-- 10.0 (C) -->
     <g style="fill: #262626" transform="translate(506.3446 233.682925) scale(0.1232 -0.1232)">
      <use xlink:href="#DejaVuSans-31"/>
      <use xlink:href="#DejaVuSans-30" x="63.623047"/>
      <use xlink:href="#DejaVuSans-2e" x="127.246094"/>
      <use xlink:href="#DejaVuSans-30" x="159.033203"/>
      <use xlink:href="#DejaVuSans-20" x="222.65625"/>
      <use xlink:href="#DejaVuSans-28" x="254.443359"/>
      <use xlink:href="#DejaVuSans-43" x="293.457031"/>
      <use xlink:href="#DejaVuSans-29" x="363.28125"/>
     </g>
    </g>
   </g>
  </g>
 </g>
 <defs>
  <clipPath id="p4359ec20ce">
   <rect x="78.3852" y="31.3152" width="269.2316" height="203.2296"/>
  </clipPath>
 </defs>
</svg>
