<?xml version="1.0" encoding="utf-8" standalone="no"?>
<!DOCTYPE svg PUBLIC "-//W3C//DTD SVG 1.1//EN"
  "http://www.w3.org/Graphics/SVG/1.1/DTD/svg11.dtd">
<svg xmlns:xlink="http://www.w3.org/1999/xlink" width="576pt" height="288pt" viewBox="0 0 576 288" xmlns="http://www.w3.org/2000/svg" version="1.1">
 <metadata>
  <rdf:RDF xmlns:dc="http://purl.org/dc/elements/1.1/" xmlns:cc="http://creativecommons.org/ns#" xmlns:rdf="http://www.w3.org/1999/02/22-rdf-syntax-ns#">
   <cc:Work>
    <dc:type rdf:resource="http://purl.org/dc/dcmitype/StillImage"/>
    <dc:date>2026-02-13T03:32:15.102900</dc:date>
    <dc:format>image/svg+xml</dc:format>
    <dc:creator>
     <cc:Agent>
      <dc:title>Matplotlib v3.9.0, https://matplotlib.org/</dc:title>
     </cc:Agent>
    </dc:creator>
   </cc:Work>
  </rdf:RDF>
 </metadata>
 <defs>
  <style type="text/css">*{stroke-linejoin: round; stroke-linecap: butt}</style>
 </defs>
 <g id="figure_1">
  <g id="patch_1">
   <path d="M 0 288 
L 576 288 
L 576 0 
L 0 0 
z
" style="fill: #ffffff"/>
  </g>
  <g id="axes_1">
   <g id="patch_2">
    <path d="M 70.4652 234.5448 
L 371.1968 234.5448 
L 371.1968 31.3152 
L 70.4652 31.3152 
z
" style="fill: #ffffff"/>
   </g>
   <g id="matplotlib.axis_1">
    <g id="xtick_1">
     <g id="text_1">
      <!-- −250 -->
      <g style="fill: #262626" transform="translate(68.902638 252.206075) scale(0.1232 -0.1232)">
       <defs>
        <path id="DejaVuSans-2212" d="M 678 2272 
L 4684 2272 
L 4684 1741 
L 678 1741 
L 678 2272 
z
" transform="scale(0.015625)"/>
        <path id="DejaVuSans-32" d="M 1228 531 
L 3431 531 
L 3431 0 
L 469 0 
L 469 531 
Q 828 903 1448 1529 
Q 2069 2156 2228 2338 
Q 2531 2678 2651 2914 
Q 2772 3150 2772 3378 
Q 2772 3750 2511 3984 
Q 2250 4219 1831 4219 
Q 1534 4219 1204 4116 
Q 875 4013 500 3803 
L 500 4441 
Q 881 4594 1212 4672 
Q 1544 4750 1819 4750 
Q 2544 4750 2975 4387 
Q 3406 4025 3406 3419 
Q 3406 3131 3298 2873 
Q 3191 2616 2906 2266 
Q 2828 2175 2409 1742 
Q 1991 1309 1228 531 
z
" transform="scale(0.015625)"/>
        <path id="DejaVuSans-35" d="M 691 4666 
L 3169 4666 
L 3169 4134 
L 1269 4134 
L 1269 2991 
Q 1406 3038 1543 3061 
Q 1681 3084 1819 3084 
Q 2600 3084 3056 2656 
Q 3513 2228 3513 1497 
Q 3513 744 3044 326 
Q 2575 -91 1722 -91 
Q 1428 -91 1123 -41 
Q 819 9 494 109 
L 494 744 
Q 775 591 1075 516 
Q 1375 441 1709 441 
Q 2250 441 2565 725 
Q 2881 1009 2881 1497 
Q 2881 1984 2565 2268 
Q 2250 2553 1709 2553 
Q 1456 2553 1204 2497 
Q 953 2441 691 2322 
L 691 4666 
z
" transform="scale(0.015625)"/>
        <path id="DejaVuSans-30" d="M 2034 4250 
Q 1547 4250 1301 3770 
Q 1056 3291 1056 2328 
Q 1056 1369 1301 889 
Q 1547 409 2034 409 
Q 2525 409 2770 889 
Q 3016 1369 3016 2328 
Q 3016 3291 2770 3770 
Q 2525 4250 2034 4250 
z
M 2034 4750 
Q 2819 4750 3233 4129 
Q 3647 3509 3647 2328 
Q 3647 1150 3233 529 
Q 2819 -91 2034 -91 
Q 1250 -91 836 529 
Q 422 1150 422 2328 
Q 422 3509 836 4129 
Q 1250 4750 2034 4750 
z
" transform="scale(0.015625)"/>
       </defs>
       <use xlink:href="#DejaVuSans-2212"/>
       <use xlink:href="#DejaVuSans-32" x="83.789062"/>
       <use xlink:href="#DejaVuSans-35" x="147.412109"/>
       <use xlink:href="#DejaVuSans-30" x="211.035156"/>
      </g>
     </g>
    </g>
    <g id="xtick_2">
     <g id="text_2">
      <!-- 0 -->
      <g style="fill: #262626" transform="translate(124.093305 252.206075) scale(0.1232 -0.1232)">
       <use xlink:href="#DejaVuSans-30"/>
      </g>
     </g>
    </g>
    <g id="xtick_3">
     <g id="text_3">
      <!-- 250 -->
      <g style="fill: #262626" transform="translate(158.444885 252.206075) scale(0.1232 -0.1232)">
       <use xlink:href="#DejaVuSans-32"/>
       <use xlink:href="#DejaVuSans-35" x="63.623047"/>
       <use xlink:href="#DejaVuSans-30" x="127.246094"/>
      </g>
     </g>
    </g>
    <g id="xtick_4">
     <g id="text_4">
      <!-- 500 -->
      <g style="fill: #262626" transform="translate(200.635064 252.206075) scale(0.1232 -0.1232)">
       <use xlink:href="#DejaVuSans-35"/>
       <use xlink:href="#DejaVuSans-30" x="63.623047"/>
       <use xlink:href="#DejaVuSans-30" x="127.246094"/>
      </g>
     </g>
    </g>
    <g id="xtick_5">
     <g id="text_5">
      <!-- 750 -->
      <g style="fill: #262626" transform="translate(242.825244 252.206075) scale(0.1232 -0.1232)">
       <defs>
        <path id="DejaVuSans-37" d="M 525 4666 
L 3525 4666 
L 3525 4397 
L 1831 0 
L 1172 0 
L 2766 4134 
L 525 4134 
L 525 4666 
z
" transform="scale(0.015625)"/>
       </defs>
       <use xlink:href="#DejaVuSans-37"/>
       <use xlink:href="#DejaVuSans-35" x="63.623047"/>
       <use xlink:href="#DejaVuSans-30" x="127.246094"/>
      </g>
     </g>
    </g>
    <g id="xtick_6">
     <g id="text_6">
      <!-- 1000 -->
      <g style="fill: #262626" transform="translate(281.096123 252.206075) scale(0.1232 -0.1232)">
       <defs>
        <path id="DejaVuSans-31" d="M 794 531 
L 1825 531 
L 1825 4091 
L 703 3866 
L 703 4441 
L 1819 4666 
L 2450 4666 
L 2450 531 
L 3481 531 
L 3481 0 
L 794 0 
L 794 531 
z
" transform="scale(0.015625)"/>
       </defs>
       <use xlink:href="#DejaVuSans-31"/>
       <use xlink:href="#DejaVuSans-30" x="63.623047"/>
       <use xlink:href="#DejaVuSans-30" x="127.246094"/>
       <use xlink:href="#DejaVuSans-30" x="190.869141"/>
      </g>
     </g>
    </g>
    <g id="xtick_7">
     <g id="text_7">
      <!-- 1250 -->
      <g style="fill: #262626" transform="translate(323.286303 252.206075) scale(0.1232 -0.1232)">
       <use xlink:href="#DejaVuSans-31"/>
       <use xlink:href="#DejaVuSans-32" x="63.623047"/>
       <use xlink:href="#DejaVuSans-35" x="127.246094"/>
       <use xlink:href="#DejaVuSans-30" x="190.869141"/>
      </g>
     </g>
    </g>
    <g id="text_8">
     <!-- Hot Junction Temperature (C) -->
     <g style="fill: #262626" transform="translate(123.0571 268.98055) scale(0.1344 -0.1344)">
      <defs>
       <path id="DejaVuSans-48" d="M 628 4666 
L 1259 4666 
L 1259 2753 
L 3553 2753 
L 3553 4666 
L 4184 4666 
L 4184 0 
L 3553 0 
L 3553 2222 
L 1259 2222 
L 1259 0 
L 628 0 
L 628 4666 
z
" transform="scale(0.015625)"/>
       <path id="DejaVuSans-6f" d="M 1959 3097 
Q 1497 3097 1228 2736 
Q 959 2375 959 1747 
Q 959 1119 1226 758 
Q 1494 397 1959 397 
Q 2419 397 2687 759 
Q 2956 1122 2956 1747 
Q 2956 2369 2687 2733 
Q 2419 3097 1959 3097 
z
M 1959 3584 
Q 2709 3584 3137 3096 
Q 3566 2609 3566 1747 
Q 3566 888 3137 398 
Q 2709 -91 1959 -91 
Q 1206 -91 779 398 
Q 353 888 353 1747 
Q 353 2609 779 3096 
Q 1206 3584 1959 3584 
z
" transform="scale(0.015625)"/>
       <path id="DejaVuSans-74" d="M 1172 4494 
L 1172 3500 
L 2356 3500 
L 2356 3053 
L 1172 3053 
L 1172 1153 
Q 1172 725 1289 603 
Q 1406 481 1766 481 
L 2356 481 
L 2356 0 
L 1766 0 
Q 1100 0 847 248 
Q 594 497 594 1153 
L 594 3053 
L 172 3053 
L 172 3500 
L 594 3500 
L 594 4494 
L 1172 4494 
z
" transform="scale(0.015625)"/>
       <path id="DejaVuSans-20" transform="scale(0.015625)"/>
       <path id="DejaVuSans-4a" d="M 628 4666 
L 1259 4666 
L 1259 325 
Q 1259 -519 939 -900 
Q 619 -1281 -91 -1281 
L -331 -1281 
L -331 -750 
L -134 -750 
Q 284 -750 456 -515 
Q 628 -281 628 325 
L 628 4666 
z
" transform="scale(0.015625)"/>
       <path id="DejaVuSans-75" d="M 544 1381 
L 544 3500 
L 1119 3500 
L 1119 1403 
Q 1119 906 1312 657 
Q 1506 409 1894 409 
Q 2359 409 2629 706 
Q 2900 1003 2900 1516 
L 2900 3500 
L 3475 3500 
L 3475 0 
L 2900 0 
L 2900 538 
Q 2691 219 2414 64 
Q 2138 -91 1772 -91 
Q 1169 -91 856 284 
Q 544 659 544 1381 
z
M 1991 3584 
L 1991 3584 
z
" transform="scale(0.015625)"/>
       <path id="DejaVuSans-6e" d="M 3513 2113 
L 3513 0 
L 2938 0 
L 2938 2094 
Q 2938 2591 2744 2837 
Q 2550 3084 2163 3084 
Q 1697 3084 1428 2787 
Q 1159 2491 1159 1978 
L 1159 0 
L 581 0 
L 581 3500 
L 1159 3500 
L 1159 2956 
Q 1366 3272 1645 3428 
Q 1925 3584 2291 3584 
Q 2894 3584 3203 3211 
Q 3513 2838 3513 2113 
z
" transform="scale(0.015625)"/>
       <path id="DejaVuSans-63" d="M 3122 3366 
L 3122 2828 
Q 2878 2963 2633 3030 
Q 2388 3097 2138 3097 
Q 1578 3097 1268 2742 
Q 959 2388 959 1747 
Q 959 1106 1268 751 
Q 1578 397 2138 397 
Q 2388 397 2633 464 
Q 2878 531 3122 666 
L 3122 134 
Q 2881 22 2623 -34 
Q 2366 -91 2075 -91 
Q 1284 -91 818 406 
Q 353 903 353 1747 
Q 353 2603 823 3093 
Q 1294 3584 2113 3584 
Q 2378 3584 2631 3529 
Q 2884 3475 3122 3366 
z
" transform="scale(0.015625)"/>
       <path id="DejaVuSans-69" d="M 603 3500 
L 1178 3500 
L 1178 0 
L 603 0 
L 603 3500 
z
M 603 4863 
L 1178 4863 
L 1178 4134 
L 603 4134 
L 603 4863 
z
" transform="scale(0.015625)"/>
       <path id="DejaVuSans-54" d="M -19 4666 
L 3928 4666 
L 3928 4134 
L 2272 4134 
L 2272 0 
L 1638 0 
L 1638 4134 
L -19 4134 
L -19 4666 
z
" transform="scale(0.015625)"/>
       <path id="DejaVuSans-65" d="M 3597 1894 
L 3597 1613 
L 953 1613 
Q 991 1019 1311 708 
Q 1631 397 2203 397 
Q 2534 397 2845 478 
Q 3156 559 3463 722 
L 3463 178 
Q 3153 47 2828 -22 
Q 2503 -91 2169 -91 
Q 1331 -91 842 396 
Q 353 884 353 1716 
Q 353 2575 817 3079 
Q 1281 3584 2069 3584 
Q 2775 3584 3186 3129 
Q 3597 2675 3597 1894 
z
M 3022 2063 
Q 3016 2534 2758 2815 
Q 2500 3097 2075 3097 
Q 1594 3097 1305 2825 
Q 1016 2553 972 2059 
L 3022 2063 
z
" transform="scale(0.015625)"/>
       <path id="DejaVuSans-6d" d="M 3328 2828 
Q 3544 3216 3844 3400 
Q 4144 3584 4550 3584 
Q 5097 3584 5394 3201 
Q 5691 2819 5691 2113 
L 5691 0 
L 5113 0 
L 5113 2094 
Q 5113 2597 4934 2840 
Q 4756 3084 4391 3084 
Q 3944 3084 3684 2787 
Q 3425 2491 3425 1978 
L 3425 0 
L 2847 0 
L 2847 2094 
Q 2847 2600 2669 2842 
Q 2491 3084 2119 3084 
Q 1678 3084 1418 2786 
Q 1159 2488 1159 1978 
L 1159 0 
L 581 0 
L 581 3500 
L 1159 3500 
L 1159 2956 
Q 1356 3278 1631 3431 
Q 1906 3584 2284 3584 
Q 2666 3584 2933 3390 
Q 3200 3197 3328 2828 
z
" transform="scale(0.015625)"/>
       <path id="DejaVuSans-70" d="M 1159 525 
L 1159 -1331 
L 581 -1331 
L 581 3500 
L 1159 3500 
L 1159 2969 
Q 1341 3281 1617 3432 
Q 1894 3584 2278 3584 
Q 2916 3584 3314 3078 
Q 3713 2572 3713 1747 
Q 3713 922 3314 415 
Q 2916 -91 2278 -91 
Q 1894 -91 1617 61 
Q 1341 213 1159 525 
z
M 3116 1747 
Q 3116 2381 2855 2742 
Q 2594 3103 2138 3103 
Q 1681 3103 1420 2742 
Q 1159 2381 1159 1747 
Q 1159 1113 1420 752 
Q 1681 391 2138 391 
Q 2594 391 2855 752 
Q 3116 1113 3116 1747 
z
" transform="scale(0.015625)"/>
       <path id="DejaVuSans-72" d="M 2631 2963 
Q 2534 3019 2420 3045 
Q 2306 3072 2169 3072 
Q 1681 3072 1420 2755 
Q 1159 2438 1159 1844 
L 1159 0 
L 581 0 
L 581 3500 
L 1159 3500 
L 1159 2956 
Q 1341 3275 1631 3429 
Q 1922 3584 2338 3584 
Q 2397 3584 2469 3576 
Q 2541 3569 2628 3553 
L 2631 2963 
z
" transform="scale(0.015625)"/>
       <path id="DejaVuSans-61" d="M 2194 1759 
Q 1497 1759 1228 1600 
Q 959 1441 959 1056 
Q 959 750 1161 570 
Q 1363 391 1709 391 
Q 2188 391 2477 730 
Q 2766 1069 2766 1631 
L 2766 1759 
L 2194 1759 
z
M 3341 1997 
L 3341 0 
L 2766 0 
L 2766 531 
Q 2569 213 2275 61 
Q 1981 -91 1556 -91 
Q 1019 -91 701 211 
Q 384 513 384 1019 
Q 384 1609 779 1909 
Q 1175 2209 1959 2209 
L 2766 2209 
L 2766 2266 
Q 2766 2663 2505 2880 
Q 2244 3097 1772 3097 
Q 1472 3097 1187 3025 
Q 903 2953 641 2809 
L 641 3341 
Q 956 3463 1253 3523 
Q 1550 3584 1831 3584 
Q 2591 3584 2966 3190 
Q 3341 2797 3341 1997 
z
" transform="scale(0.015625)"/>
       <path id="DejaVuSans-28" d="M 1984 4856 
Q 1566 4138 1362 3434 
Q 1159 2731 1159 2009 
Q 1159 1288 1364 580 
Q 1569 -128 1984 -844 
L 1484 -844 
Q 1016 -109 783 600 
Q 550 1309 550 2009 
Q 550 2706 781 3412 
Q 1013 4119 1484 4856 
L 1984 4856 
z
" transform="scale(0.015625)"/>
       <path id="DejaVuSans-43" d="M 4122 4306 
L 4122 3641 
Q 3803 3938 3442 4084 
Q 3081 4231 2675 4231 
Q 1875 4231 1450 3742 
Q 1025 3253 1025 2328 
Q 1025 1406 1450 917 
Q 1875 428 2675 428 
Q 3081 428 3442 575 
Q 3803 722 4122 1019 
L 4122 359 
Q 3791 134 3420 21 
Q 3050 -91 2638 -91 
Q 1578 -91 968 557 
Q 359 1206 359 2328 
Q 359 3453 968 4101 
Q 1578 4750 2638 4750 
Q 3056 4750 3426 4639 
Q 3797 4528 4122 4306 
z
" transform="scale(0.015625)"/>
       <path id="DejaVuSans-29" d="M 513 4856 
L 1013 4856 
Q 1481 4119 1714 3412 
Q 1947 2706 1947 2009 
Q 1947 1309 1714 600 
Q 1481 -109 1013 -844 
L 513 -844 
Q 928 -128 1133 580 
Q 1338 1288 1338 2009 
Q 1338 2731 1133 3434 
Q 928 4138 513 4856 
z
" transform="scale(0.015625)"/>
      </defs>
      <use xlink:href="#DejaVuSans-48"/>
      <use xlink:href="#DejaVuSans-6f" x="75.195312"/>
      <use xlink:href="#DejaVuSans-74" x="136.376953"/>
      <use xlink:href="#DejaVuSans-20" x="175.585938"/>
      <use xlink:href="#DejaVuSans-4a" x="207.373047"/>
      <use xlink:href="#DejaVuSans-75" x="236.865234"/>
      <use xlink:href="#DejaVuSans-6e" x="300.244141"/>
      <use xlink:href="#DejaVuSans-63" x="363.623047"/>
      <use xlink:href="#DejaVuSans-74" x="418.603516"/>
      <use xlink:href="#DejaVuSans-69" x="457.8125"/>
      <use xlink:href="#DejaVuSans-6f" x="485.595703"/>
      <use xlink:href="#DejaVuSans-6e" x="546.777344"/>
      <use xlink:href="#DejaVuSans-20" x="610.15625"/>
      <use xlink:href="#DejaVuSans-54" x="641.943359"/>
      <use xlink:href="#DejaVuSans-65" x="686.027344"/>
      <use xlink:href="#DejaVuSans-6d" x="747.550781"/>
      <use xlink:href="#DejaVuSans-70" x="844.962891"/>
      <use xlink:href="#DejaVuSans-65" x="908.439453"/>
      <use xlink:href="#DejaVuSans-72" x="969.962891"/>
      <use xlink:href="#DejaVuSans-61" x="1011.076172"/>
      <use xlink:href="#DejaVuSans-74" x="1072.355469"/>
      <use xlink:href="#DejaVuSans-75" x="1111.564453"/>
      <use xlink:href="#DejaVuSans-72" x="1174.943359"/>
      <use xlink:href="#DejaVuSans-65" x="1213.806641"/>
      <use xlink:href="#DejaVuSans-20" x="1275.330078"/>
      <use xlink:href="#DejaVuSans-28" x="1307.117188"/>
      <use xlink:href="#DejaVuSans-43" x="1346.130859"/>
      <use xlink:href="#DejaVuSans-29" x="1415.955078"/>
     </g>
    </g>
   </g>
   <g id="matplotlib.axis_2">
    <g id="ytick_1">
     <g id="text_9">
      <!-- −0.4 -->
      <g style="fill: #262626" transform="translate(32.248775 231.792409) scale(0.1232 -0.1232)">
       <defs>
        <path id="DejaVuSans-2e" d="M 684 794 
L 1344 794 
L 1344 0 
L 684 0 
L 684 794 
z
" transform="scale(0.015625)"/>
        <path id="DejaVuSans-34" d="M 2419 4116 
L 825 1625 
L 2419 1625 
L 2419 4116 
z
M 2253 4666 
L 3047 4666 
L 3047 1625 
L 3713 1625 
L 3713 1100 
L 3047 1100 
L 3047 0 
L 2419 0 
L 2419 1100 
L 313 1100 
L 313 1709 
L 2253 4666 
z
" transform="scale(0.015625)"/>
       </defs>
       <use xlink:href="#DejaVuSans-2212"/>
       <use xlink:href="#DejaVuSans-30" x="83.789062"/>
       <use xlink:href="#DejaVuSans-2e" x="147.412109"/>
       <use xlink:href="#DejaVuSans-34" x="179.199219"/>
      </g>
     </g>
    </g>
    <g id="ytick_2">
     <g id="text_10">
      <!-- −0.2 -->
      <g style="fill: #262626" transform="translate(32.248775 186.675393) scale(0.1232 -0.1232)">
       <use xlink:href="#DejaVuSans-2212"/>
       <use xlink:href="#DejaVuSans-30" x="83.789062"/>
       <use xlink:href="#DejaVuSans-2e" x="147.412109"/>
       <use xlink:href="#DejaVuSans-32" x="179.199219"/>
      </g>
     </g>
    </g>
    <g id="ytick_3">
     <g id="text_11">
      <!-- 0.0 -->
      <g style="fill: #262626" transform="translate(42.57255 141.558376) scale(0.1232 -0.1232)">
       <use xlink:href="#DejaVuSans-30"/>
       <use xlink:href="#DejaVuSans-2e" x="63.623047"/>
       <use xlink:href="#DejaVuSans-30" x="95.410156"/>
      </g>
     </g>
    </g>
    <g id="ytick_4">
     <g id="text_12">
      <!-- 0.2 -->
      <g style="fill: #262626" transform="translate(42.57255 96.44136) scale(0.1232 -0.1232)">
       <use xlink:href="#DejaVuSans-30"/>
       <use xlink:href="#DejaVuSans-2e" x="63.623047"/>
       <use xlink:href="#DejaVuSans-32" x="95.410156"/>
      </g>
     </g>
    </g>
    <g id="ytick_5">
     <g id="text_13">
      <!-- 0.4 -->
      <g style="fill: #262626" transform="translate(42.57255 51.324344) scale(0.1232 -0.1232)">
       <use xlink:href="#DejaVuSans-30"/>
       <use xlink:href="#DejaVuSans-2e" x="63.623047"/>
       <use xlink:href="#DejaVuSans-34" x="95.410156"/>
      </g>
     </g>
    </g>
    <g id="text_14">
     <!-- Error [mV] -->
     <g style="fill: #262626" transform="translate(25.453675 167.82885) rotate(-90) scale(0.1344 -0.1344)">
      <defs>
       <path id="DejaVuSans-45" d="M 628 4666 
L 3578 4666 
L 3578 4134 
L 1259 4134 
L 1259 2753 
L 3481 2753 
L 3481 2222 
L 1259 2222 
L 1259 531 
L 3634 531 
L 3634 0 
L 628 0 
L 628 4666 
z
" transform="scale(0.015625)"/>
       <path id="DejaVuSans-5b" d="M 550 4863 
L 1875 4863 
L 1875 4416 
L 1125 4416 
L 1125 -397 
L 1875 -397 
L 1875 -844 
L 550 -844 
L 550 4863 
z
" transform="scale(0.015625)"/>
       <path id="DejaVuSans-56" d="M 1831 0 
L 50 4666 
L 709 4666 
L 2188 738 
L 3669 4666 
L 4325 4666 
L 2547 0 
L 1831 0 
z
" transform="scale(0.015625)"/>
       <path id="DejaVuSans-5d" d="M 1947 4863 
L 1947 -844 
L 622 -844 
L 622 -397 
L 1369 -397 
L 1369 4416 
L 622 4416 
L 622 4863 
L 1947 4863 
z
" transform="scale(0.015625)"/>
      </defs>
      <use xlink:href="#DejaVuSans-45"/>
      <use xlink:href="#DejaVuSans-72" x="63.183594"/>
      <use xlink:href="#DejaVuSans-72" x="102.546875"/>
      <use xlink:href="#DejaVuSans-6f" x="141.410156"/>
      <use xlink:href="#DejaVuSans-72" x="202.591797"/>
      <use xlink:href="#DejaVuSans-20" x="243.705078"/>
      <use xlink:href="#DejaVuSans-5b" x="275.492188"/>
      <use xlink:href="#DejaVuSans-6d" x="314.505859"/>
      <use xlink:href="#DejaVuSans-56" x="411.917969"/>
      <use xlink:href="#DejaVuSans-5d" x="480.326172"/>
     </g>
    </g>
   </g>
   <g id="line2d_1">
    <path d="M 84.134818 140.712685 
L 85.822425 145.224387 
L 89.19764 155.375716 
L 90.885247 160.338587 
L 92.572854 164.624704 
L 94.260461 169.361991 
L 95.948068 173.196937 
L 97.635676 177.483054 
L 104.386104 191.920499 
L 109.448926 201.395072 
L 111.136533 204.102093 
L 112.82414 207.034699 
L 114.511747 209.74172 
L 116.199355 211.997571 
L 117.886962 214.479007 
L 119.574569 216.734858 
L 121.262176 218.539538 
L 122.949783 220.569804 
L 124.637391 222.1489 
L 126.324998 223.95358 
L 128.012605 225.307091 
L 128.012605 225.307091 
" clip-path="url(#p3921f8fc3f)" style="fill: none; stroke: #99c791; stroke-width: 1.2; stroke-linecap: round"/>
   </g>
   <g id="line2d_2">
    <path d="M 84.134818 140.4871 
L 85.822425 144.547632 
L 89.19764 153.79662 
L 92.572854 162.143268 
L 94.260461 166.2038 
L 99.323283 176.806298 
L 102.698497 183.348266 
L 106.073712 189.439063 
L 107.761319 192.371669 
L 109.448926 195.07869 
L 114.511747 202.522998 
L 116.199355 204.553263 
L 117.886962 206.809114 
L 119.574569 208.83938 
L 121.262176 210.644061 
L 124.637391 213.802252 
L 128.012605 216.509273 
L 128.012605 216.509273 
" clip-path="url(#p3921f8fc3f)" style="fill: none; stroke: #8bc191; stroke-width: 1.2; stroke-linecap: round"/>
   </g>
   <g id="line2d_3">
    <path d="M 84.134818 140.261515 
L 85.822425 143.870876 
L 90.885247 156.052471 
L 97.635676 169.587576 
L 99.323283 172.520182 
L 101.01089 175.678373 
L 104.386104 181.092415 
L 106.073712 183.573851 
L 107.761319 186.280872 
L 109.448926 188.762308 
L 111.136533 191.018159 
L 112.82414 193.048424 
L 114.511747 195.304275 
L 116.199355 197.108956 
L 117.886962 199.139221 
L 119.574569 200.943902 
L 121.262176 202.522998 
L 126.324998 206.583529 
L 128.012605 207.711455 
L 128.012605 207.711455 
" clip-path="url(#p3921f8fc3f)" style="fill: none; stroke: #7fbb91; stroke-width: 1.2; stroke-linecap: round"/>
   </g>
   <g id="line2d_4">
    <path d="M 84.134818 140.03593 
L 85.822425 143.194121 
L 90.885247 153.79662 
L 92.572854 156.729226 
L 94.260461 160.113002 
L 95.948068 162.820023 
L 97.635676 165.752629 
L 99.323283 168.234065 
L 101.01089 170.941086 
L 102.698497 173.196937 
L 104.386104 175.678373 
L 109.448926 182.445925 
L 111.136533 184.250606 
L 112.82414 186.280872 
L 114.511747 188.085552 
L 116.199355 189.664648 
L 117.886962 191.469329 
L 119.574569 193.048424 
L 122.949783 195.755445 
L 124.637391 196.657786 
L 126.324998 198.011296 
L 128.012605 198.913636 
L 128.012605 198.913636 
" clip-path="url(#p3921f8fc3f)" style="fill: none; stroke: #72b490; stroke-width: 1.2; stroke-linecap: round"/>
   </g>
   <g id="line2d_5">
    <path d="M 84.134818 139.58476 
L 87.510033 145.449972 
L 90.885247 151.540769 
L 92.572854 154.022205 
L 94.260461 156.954811 
L 95.948068 159.210662 
L 97.635676 161.692098 
L 101.01089 166.2038 
L 104.386104 170.264331 
L 106.073712 172.069012 
L 107.761319 174.099277 
L 109.448926 175.903958 
L 111.136533 177.483054 
L 112.82414 179.287734 
L 114.511747 180.86683 
L 117.886962 183.573851 
L 119.574569 185.152946 
L 121.262176 186.055287 
L 122.949783 187.408797 
L 128.012605 190.115818 
L 128.012605 190.115818 
" clip-path="url(#p3921f8fc3f)" style="fill: none; stroke: #66ae90; stroke-width: 1.2; stroke-linecap: round"/>
   </g>
   <g id="line2d_6">
    <path d="M 84.134818 139.359175 
L 85.822425 141.615026 
L 87.510033 144.322047 
L 90.885247 149.284918 
L 92.572854 151.315184 
L 94.260461 153.571035 
L 97.635676 157.631566 
L 99.323283 159.436247 
L 101.01089 161.466513 
L 102.698497 163.045608 
L 104.386104 164.850289 
L 109.448926 169.587576 
L 114.511747 173.648107 
L 119.574569 177.031883 
L 121.262176 177.934224 
L 122.949783 179.062149 
L 124.637391 179.738904 
L 126.324998 180.641245 
L 128.012605 181.318 
L 128.012605 181.318 
" clip-path="url(#p3921f8fc3f)" style="fill: none; stroke: #5ca890; stroke-width: 1.2; stroke-linecap: round"/>
   </g>
   <g id="line2d_7">
    <path d="M 84.134818 138.908005 
L 85.822425 140.712685 
L 90.885247 146.803483 
L 94.260461 150.412844 
L 99.323283 155.150131 
L 107.761319 161.917683 
L 111.136533 164.173534 
L 112.82414 165.075874 
L 114.511747 166.2038 
L 116.199355 167.10614 
L 117.886962 168.234065 
L 119.574569 169.136406 
L 126.324998 171.843427 
L 128.012605 172.294597 
L 128.012605 172.294597 
" clip-path="url(#p3921f8fc3f)" style="fill: none; stroke: #53a190; stroke-width: 1.2; stroke-linecap: round"/>
   </g>
   <g id="line2d_8">
    <path d="M 84.134818 138.456834 
L 85.822425 139.810345 
L 90.885247 144.547632 
L 92.572854 145.675557 
L 94.260461 147.029068 
L 95.948068 148.156993 
L 97.635676 149.510503 
L 101.01089 151.766354 
L 102.698497 152.668695 
L 104.386104 153.79662 
L 111.136533 157.405981 
L 112.82414 158.082737 
L 114.511747 158.985077 
L 121.262176 161.692098 
L 128.012605 163.496779 
L 128.012605 163.496779 
" clip-path="url(#p3921f8fc3f)" style="fill: none; stroke: #4a9a8f; stroke-width: 1.2; stroke-linecap: round"/>
   </g>
   <g id="line2d_9">
    <path d="M 84.134818 138.005664 
L 85.822425 138.908005 
L 87.510033 140.03593 
L 89.19764 140.93827 
L 90.885247 142.066196 
L 92.572854 142.742951 
L 94.260461 143.870876 
L 95.948068 144.322047 
L 97.635676 145.449972 
L 104.386104 148.156993 
L 106.073712 148.608163 
L 107.761319 149.510503 
L 109.448926 150.187259 
L 111.136533 150.412844 
L 114.511747 151.766354 
L 116.199355 151.991939 
L 117.886962 152.44311 
L 119.574569 153.119865 
L 121.262176 153.34545 
L 122.949783 153.79662 
L 124.637391 154.022205 
L 126.324998 154.473375 
L 128.012605 154.69896 
L 128.012605 154.69896 
" clip-path="url(#p3921f8fc3f)" style="fill: none; stroke: #43938f; stroke-width: 1.2; stroke-linecap: round"/>
   </g>
   <g id="line2d_10">
    <path d="M 84.134818 137.554494 
L 85.822425 137.780079 
L 87.510033 138.456834 
L 89.19764 138.908005 
L 90.885247 139.58476 
L 92.572854 139.810345 
L 94.260461 140.4871 
L 95.948068 140.712685 
L 97.635676 141.163855 
L 99.323283 141.389441 
L 101.01089 141.840611 
L 102.698497 142.066196 
L 104.386104 142.517366 
L 106.073712 142.742951 
L 109.448926 143.645291 
L 111.136533 143.645291 
L 112.82414 143.870876 
L 114.511747 144.322047 
L 116.199355 144.322047 
L 117.886962 144.773217 
L 122.949783 145.449972 
L 124.637391 145.449972 
L 126.324998 145.675557 
L 128.012605 145.675557 
L 128.012605 145.675557 
" clip-path="url(#p3921f8fc3f)" style="fill: none; stroke: #3b8c8e; stroke-width: 1.2; stroke-linecap: round"/>
   </g>
   <g id="line2d_11">
    <path d="M 84.134818 136.877739 
L 357.527182 136.877739 
L 357.527182 136.877739 
" clip-path="url(#p3921f8fc3f)" style="fill: none; stroke: #33858d; stroke-width: 1.2; stroke-linecap: round"/>
   </g>
   <g id="line2d_12">
    <path d="M 128.012605 128.079921 
L 129.700212 127.854336 
L 131.387819 127.854336 
L 133.075426 127.628751 
L 136.450641 127.628751 
L 138.138248 127.403166 
L 139.825855 127.403166 
L 141.513462 127.628751 
L 143.20107 127.628751 
L 144.888677 127.403166 
L 146.576284 127.628751 
L 149.951498 127.628751 
L 151.639105 127.854336 
L 153.326713 127.628751 
L 155.01432 127.854336 
L 166.82757 127.854336 
L 168.515177 127.628751 
L 183.703642 127.628751 
L 185.391249 127.403166 
L 200.579714 127.403166 
L 202.267321 127.17758 
L 203.954928 127.403166 
L 205.642535 127.403166 
L 207.330143 127.17758 
L 212.392964 127.17758 
L 214.080571 127.403166 
L 215.768178 127.17758 
L 217.455786 127.403166 
L 219.143393 127.17758 
L 220.831 127.17758 
L 222.518607 127.403166 
L 225.893822 127.403166 
L 227.581429 127.17758 
L 230.956643 127.17758 
L 232.64425 127.403166 
L 241.082286 127.403166 
L 242.769893 127.17758 
L 244.457501 127.403166 
L 246.145108 127.403166 
L 247.832715 127.628751 
L 249.520322 127.403166 
L 254.583144 127.403166 
L 256.270751 127.628751 
L 257.958358 127.628751 
L 259.645965 127.403166 
L 261.333572 127.628751 
L 268.084001 127.628751 
L 269.771608 127.854336 
L 271.459215 127.628751 
L 273.146823 127.854336 
L 274.83443 127.628751 
L 276.522037 127.854336 
L 283.272466 127.854336 
L 284.960073 128.079921 
L 286.64768 127.854336 
L 288.335287 128.079921 
L 290.022895 128.079921 
L 291.710502 127.854336 
L 293.398109 128.079921 
L 305.211359 128.079921 
L 306.898966 128.305506 
L 313.649395 128.305506 
L 315.337002 128.531091 
L 317.024609 128.305506 
L 318.712217 128.531091 
L 320.399824 128.531091 
L 322.087431 128.305506 
L 323.775038 128.531091 
L 327.150253 128.531091 
L 328.83786 128.756676 
L 330.525467 128.531091 
L 332.213074 128.531091 
L 333.900681 128.756676 
L 344.026324 128.756676 
L 345.713932 128.982261 
L 349.089146 128.982261 
L 350.776753 129.207846 
L 352.46436 128.982261 
L 354.151967 128.982261 
L 355.839575 129.207846 
L 357.527182 129.207846 
L 357.527182 129.207846 
" clip-path="url(#p3921f8fc3f)" style="fill: none; stroke: #2c7e8c; stroke-width: 1.2; stroke-linecap: round"/>
   </g>
   <g id="line2d_13">
    <path d="M 128.012605 119.056517 
L 133.075426 118.379762 
L 134.763034 118.379762 
L 136.450641 118.154177 
L 144.888677 118.154177 
L 146.576284 118.379762 
L 149.951498 118.379762 
L 151.639105 118.830932 
L 153.326713 118.605347 
L 155.01432 118.830932 
L 166.82757 118.830932 
L 170.202785 118.379762 
L 173.577999 118.379762 
L 175.265606 118.154177 
L 176.953213 118.379762 
L 178.64082 118.379762 
L 180.328428 118.154177 
L 183.703642 118.154177 
L 185.391249 117.928592 
L 193.829285 117.928592 
L 195.516892 117.703007 
L 197.204499 117.928592 
L 198.892107 117.703007 
L 210.705357 117.703007 
L 212.392964 117.477422 
L 214.080571 117.703007 
L 219.143393 117.703007 
L 220.831 117.477422 
L 222.518607 117.703007 
L 232.64425 117.703007 
L 234.331857 117.928592 
L 236.019465 117.703007 
L 237.707072 117.928592 
L 241.082286 117.928592 
L 242.769893 117.703007 
L 244.457501 117.928592 
L 246.145108 117.928592 
L 247.832715 118.154177 
L 249.520322 117.928592 
L 251.207929 117.928592 
L 252.895536 118.154177 
L 254.583144 118.154177 
L 256.270751 118.379762 
L 257.958358 118.154177 
L 259.645965 118.154177 
L 261.333572 118.379762 
L 266.396394 118.379762 
L 268.084001 118.605347 
L 271.459215 118.605347 
L 273.146823 118.830932 
L 274.83443 118.605347 
L 276.522037 118.830932 
L 278.209644 118.605347 
L 279.897251 118.830932 
L 283.272466 118.830932 
L 284.960073 119.056517 
L 291.710502 119.056517 
L 293.398109 119.282103 
L 301.836145 119.282103 
L 303.523752 119.507688 
L 306.898966 119.507688 
L 308.586574 119.733273 
L 311.961788 119.733273 
L 313.649395 119.958858 
L 318.712217 119.958858 
L 320.399824 120.184443 
L 322.087431 119.958858 
L 323.775038 120.184443 
L 327.150253 120.184443 
L 328.83786 120.410028 
L 332.213074 120.410028 
L 333.900681 120.635613 
L 337.275896 120.635613 
L 338.963503 120.861198 
L 344.026324 120.861198 
L 345.713932 121.086783 
L 347.401539 121.086783 
L 349.089146 121.312368 
L 354.151967 121.312368 
L 355.839575 121.537953 
L 357.527182 121.537953 
L 357.527182 121.537953 
" clip-path="url(#p3921f8fc3f)" style="fill: none; stroke: #25778c; stroke-width: 1.2; stroke-linecap: round"/>
   </g>
   <g id="line2d_14">
    <path d="M 128.012605 110.033114 
L 131.387819 109.581944 
L 133.075426 109.130774 
L 134.763034 109.130774 
L 138.138248 108.679604 
L 139.825855 108.679604 
L 141.513462 108.905189 
L 146.576284 108.905189 
L 151.639105 109.581944 
L 153.326713 109.581944 
L 156.701927 110.033114 
L 158.389534 109.807529 
L 163.452356 109.807529 
L 165.139963 109.581944 
L 166.82757 109.581944 
L 170.202785 109.130774 
L 173.577999 109.130774 
L 175.265606 108.905189 
L 180.328428 108.905189 
L 182.016035 108.679604 
L 183.703642 108.679604 
L 185.391249 108.454019 
L 192.141678 108.454019 
L 193.829285 108.228434 
L 205.642535 108.228434 
L 207.330143 108.002848 
L 224.206214 108.002848 
L 225.893822 108.228434 
L 227.581429 108.002848 
L 230.956643 108.002848 
L 232.64425 108.228434 
L 239.394679 108.228434 
L 241.082286 108.454019 
L 242.769893 108.228434 
L 244.457501 108.679604 
L 246.145108 108.454019 
L 247.832715 108.679604 
L 254.583144 108.679604 
L 256.270751 108.905189 
L 259.645965 108.905189 
L 261.333572 109.130774 
L 266.396394 109.130774 
L 269.771608 109.581944 
L 271.459215 109.356359 
L 273.146823 109.581944 
L 274.83443 109.581944 
L 276.522037 109.807529 
L 278.209644 109.581944 
L 279.897251 109.807529 
L 281.584859 109.807529 
L 283.272466 110.033114 
L 286.64768 110.033114 
L 288.335287 110.258699 
L 291.710502 110.258699 
L 293.398109 110.484284 
L 296.773323 110.484284 
L 298.46093 110.709869 
L 305.211359 110.709869 
L 308.586574 111.16104 
L 310.274181 111.16104 
L 311.961788 111.386625 
L 317.024609 111.386625 
L 318.712217 111.61221 
L 322.087431 111.61221 
L 323.775038 111.837795 
L 327.150253 111.837795 
L 328.83786 112.288965 
L 330.525467 112.06338 
L 332.213074 112.288965 
L 333.900681 112.288965 
L 337.275896 112.740135 
L 340.65111 112.740135 
L 342.338717 112.96572 
L 344.026324 112.96572 
L 345.713932 113.191305 
L 347.401539 113.191305 
L 349.089146 113.41689 
L 352.46436 113.41689 
L 355.839575 113.868061 
L 357.527182 113.868061 
L 357.527182 113.868061 
" clip-path="url(#p3921f8fc3f)" style="fill: none; stroke: #20718b; stroke-width: 1.2; stroke-linecap: round"/>
   </g>
   <g id="line2d_15">
    <path d="M 128.012605 101.235296 
L 131.387819 100.332956 
L 138.138248 99.430615 
L 144.888677 99.430615 
L 149.951498 100.107371 
L 151.639105 100.558541 
L 155.01432 100.558541 
L 156.701927 101.009711 
L 158.389534 100.784126 
L 163.452356 100.784126 
L 165.139963 100.558541 
L 166.82757 100.558541 
L 171.890392 99.881786 
L 173.577999 99.881786 
L 175.265606 99.6562 
L 178.64082 99.6562 
L 180.328428 99.430615 
L 182.016035 99.430615 
L 185.391249 98.979445 
L 192.141678 98.979445 
L 193.829285 98.75386 
L 197.204499 98.75386 
L 198.892107 98.528275 
L 205.642535 98.528275 
L 207.330143 98.30269 
L 209.01775 98.528275 
L 210.705357 98.30269 
L 212.392964 98.30269 
L 214.080571 98.528275 
L 215.768178 98.30269 
L 217.455786 98.528275 
L 219.143393 98.30269 
L 220.831 98.30269 
L 222.518607 98.528275 
L 230.956643 98.528275 
L 232.64425 98.75386 
L 239.394679 98.75386 
L 241.082286 98.979445 
L 242.769893 98.75386 
L 244.457501 99.20503 
L 246.145108 98.979445 
L 247.832715 99.20503 
L 251.207929 99.20503 
L 252.895536 99.430615 
L 254.583144 99.430615 
L 256.270751 99.6562 
L 259.645965 99.6562 
L 261.333572 99.881786 
L 263.02118 99.881786 
L 264.708787 100.107371 
L 266.396394 99.881786 
L 269.771608 100.332956 
L 271.459215 100.332956 
L 273.146823 100.558541 
L 278.209644 100.558541 
L 279.897251 100.784126 
L 281.584859 100.784126 
L 284.960073 101.235296 
L 286.64768 101.235296 
L 288.335287 101.460881 
L 290.022895 101.235296 
L 291.710502 101.235296 
L 293.398109 101.460881 
L 295.085716 101.460881 
L 296.773323 101.912051 
L 301.836145 101.912051 
L 303.523752 102.137636 
L 305.211359 102.137636 
L 308.586574 102.588807 
L 310.274181 102.363221 
L 311.961788 102.814392 
L 313.649395 102.814392 
L 315.337002 103.039977 
L 317.024609 102.814392 
L 318.712217 103.265562 
L 322.087431 103.265562 
L 325.462645 103.716732 
L 327.150253 103.716732 
L 328.83786 103.942317 
L 332.213074 103.942317 
L 337.275896 104.619072 
L 338.963503 104.619072 
L 340.65111 104.844657 
L 342.338717 104.844657 
L 345.713932 105.295828 
L 347.401539 105.295828 
L 350.776753 105.746998 
L 352.46436 105.746998 
L 355.839575 106.198168 
L 357.527182 106.198168 
L 357.527182 106.198168 
" clip-path="url(#p3921f8fc3f)" style="fill: none; stroke: #1c6989; stroke-width: 1.2; stroke-linecap: round"/>
   </g>
   <g id="line2d_16">
    <path d="M 128.012605 92.211893 
L 133.075426 90.858382 
L 134.763034 90.632797 
L 136.450641 90.181627 
L 138.138248 89.956042 
L 139.825855 89.956042 
L 141.513462 90.181627 
L 144.888677 90.181627 
L 146.576284 90.407212 
L 148.263891 90.858382 
L 149.951498 90.858382 
L 151.639105 91.309552 
L 153.326713 91.535138 
L 155.01432 91.535138 
L 156.701927 91.986308 
L 158.389534 91.760723 
L 163.452356 91.760723 
L 171.890392 90.632797 
L 173.577999 90.632797 
L 175.265606 90.407212 
L 176.953213 90.407212 
L 178.64082 90.181627 
L 180.328428 90.181627 
L 182.016035 89.956042 
L 183.703642 89.956042 
L 185.391249 89.504872 
L 192.141678 89.504872 
L 193.829285 89.279287 
L 197.204499 89.279287 
L 198.892107 89.053702 
L 203.954928 89.053702 
L 205.642535 88.828117 
L 219.143393 88.828117 
L 220.831 88.602531 
L 222.518607 88.828117 
L 224.206214 88.828117 
L 225.893822 89.053702 
L 227.581429 88.828117 
L 230.956643 88.828117 
L 234.331857 89.279287 
L 236.019465 89.053702 
L 237.707072 89.279287 
L 239.394679 89.279287 
L 241.082286 89.504872 
L 242.769893 89.279287 
L 244.457501 89.730457 
L 249.520322 89.730457 
L 251.207929 89.956042 
L 254.583144 89.956042 
L 256.270751 90.407212 
L 259.645965 90.407212 
L 261.333572 90.632797 
L 263.02118 90.632797 
L 264.708787 90.858382 
L 266.396394 90.858382 
L 269.771608 91.309552 
L 271.459215 91.083967 
L 273.146823 91.309552 
L 274.83443 91.309552 
L 276.522037 91.535138 
L 278.209644 91.535138 
L 279.897251 91.760723 
L 281.584859 91.760723 
L 284.960073 92.211893 
L 286.64768 92.211893 
L 288.335287 92.437478 
L 291.710502 92.437478 
L 293.398109 92.663063 
L 295.085716 92.663063 
L 296.773323 93.114233 
L 300.148538 93.114233 
L 301.836145 93.339818 
L 303.523752 93.339818 
L 305.211359 93.565403 
L 306.898966 93.565403 
L 308.586574 93.790988 
L 310.274181 93.790988 
L 311.961788 94.242159 
L 313.649395 94.242159 
L 315.337002 94.467744 
L 317.024609 94.467744 
L 320.399824 94.918914 
L 322.087431 94.918914 
L 325.462645 95.370084 
L 327.150253 95.370084 
L 328.83786 95.595669 
L 330.525467 95.595669 
L 338.963503 96.723594 
L 340.65111 96.723594 
L 342.338717 96.949179 
L 344.026324 96.949179 
L 345.713932 97.40035 
L 347.401539 97.40035 
L 349.089146 97.85152 
L 350.776753 97.85152 
L 352.46436 98.077105 
L 354.151967 98.077105 
L 355.839575 98.528275 
L 357.527182 98.528275 
L 357.527182 98.528275 
" clip-path="url(#p3921f8fc3f)" style="fill: none; stroke: #1d6188; stroke-width: 1.2; stroke-linecap: round"/>
   </g>
   <g id="line2d_17">
    <path d="M 128.012605 83.18849 
L 129.700212 82.737319 
L 131.387819 82.060564 
L 133.075426 81.609394 
L 134.763034 81.383809 
L 136.450641 80.932639 
L 138.138248 80.707054 
L 143.20107 80.707054 
L 146.576284 81.158224 
L 148.263891 81.609394 
L 149.951498 81.834979 
L 151.639105 82.286149 
L 153.326713 82.286149 
L 155.01432 82.511734 
L 156.701927 82.962904 
L 158.389534 82.962904 
L 160.077141 82.737319 
L 163.452356 82.737319 
L 166.82757 82.286149 
L 168.515177 81.834979 
L 171.890392 81.383809 
L 173.577999 81.383809 
L 175.265606 80.932639 
L 178.64082 80.932639 
L 182.016035 80.481469 
L 183.703642 80.481469 
L 185.391249 80.030298 
L 192.141678 80.030298 
L 195.516892 79.579128 
L 200.579714 79.579128 
L 202.267321 79.353543 
L 205.642535 79.353543 
L 207.330143 79.127958 
L 212.392964 79.127958 
L 214.080571 79.353543 
L 215.768178 79.127958 
L 217.455786 79.353543 
L 219.143393 79.127958 
L 220.831 79.127958 
L 222.518607 79.353543 
L 230.956643 79.353543 
L 232.64425 79.579128 
L 236.019465 79.579128 
L 237.707072 79.804713 
L 239.394679 79.804713 
L 241.082286 80.030298 
L 242.769893 79.804713 
L 244.457501 80.255883 
L 246.145108 80.255883 
L 247.832715 80.481469 
L 249.520322 80.255883 
L 252.895536 80.707054 
L 254.583144 80.707054 
L 256.270751 80.932639 
L 257.958358 80.932639 
L 261.333572 81.383809 
L 263.02118 81.383809 
L 264.708787 81.609394 
L 266.396394 81.609394 
L 269.771608 82.060564 
L 271.459215 82.060564 
L 273.146823 82.286149 
L 274.83443 82.286149 
L 276.522037 82.511734 
L 278.209644 82.511734 
L 279.897251 82.737319 
L 281.584859 82.737319 
L 288.335287 83.63966 
L 291.710502 83.63966 
L 293.398109 83.865245 
L 295.085716 83.865245 
L 296.773323 84.316415 
L 300.148538 84.316415 
L 303.523752 84.767585 
L 305.211359 84.767585 
L 308.586574 85.218755 
L 310.274181 85.218755 
L 311.961788 85.669925 
L 313.649395 85.669925 
L 315.337002 85.89551 
L 317.024609 85.89551 
L 318.712217 86.346681 
L 320.399824 86.346681 
L 325.462645 87.023436 
L 327.150253 87.023436 
L 328.83786 87.474606 
L 330.525467 87.474606 
L 342.338717 89.053702 
L 344.026324 89.053702 
L 345.713932 89.504872 
L 347.401539 89.504872 
L 349.089146 89.956042 
L 350.776753 90.181627 
L 352.46436 90.181627 
L 357.527182 90.858382 
L 357.527182 90.858382 
" clip-path="url(#p3921f8fc3f)" style="fill: none; stroke: #1f5a85; stroke-width: 1.2; stroke-linecap: round"/>
   </g>
   <g id="line2d_18">
    <path d="M 128.012605 74.390671 
L 133.075426 72.360406 
L 134.763034 72.134821 
L 138.138248 71.23248 
L 139.825855 71.23248 
L 141.513462 71.458065 
L 143.20107 71.458065 
L 146.576284 71.909235 
L 148.263891 72.360406 
L 149.951498 72.585991 
L 151.639105 73.262746 
L 153.326713 73.262746 
L 155.01432 73.488331 
L 156.701927 73.939501 
L 158.389534 73.939501 
L 160.077141 73.713916 
L 163.452356 73.713916 
L 165.139963 73.262746 
L 168.515177 72.811576 
L 170.202785 72.360406 
L 175.265606 71.68365 
L 176.953213 71.68365 
L 180.328428 71.23248 
L 182.016035 71.23248 
L 187.078856 70.555725 
L 190.454071 70.555725 
L 192.141678 70.33014 
L 193.829285 70.33014 
L 195.516892 70.104555 
L 197.204499 70.104555 
L 198.892107 69.87897 
L 203.954928 69.87897 
L 205.642535 69.653385 
L 210.705357 69.653385 
L 212.392964 69.4278 
L 214.080571 69.653385 
L 215.768178 69.4278 
L 217.455786 69.653385 
L 219.143393 69.4278 
L 220.831 69.4278 
L 222.518607 69.653385 
L 229.269036 69.653385 
L 230.956643 69.87897 
L 232.64425 69.87897 
L 234.331857 70.104555 
L 236.019465 70.104555 
L 237.707072 70.33014 
L 239.394679 70.33014 
L 241.082286 70.555725 
L 242.769893 70.33014 
L 244.457501 70.78131 
L 246.145108 70.78131 
L 247.832715 71.006895 
L 251.207929 71.006895 
L 252.895536 71.23248 
L 254.583144 71.23248 
L 256.270751 71.68365 
L 259.645965 71.68365 
L 261.333572 72.134821 
L 263.02118 72.134821 
L 264.708787 72.360406 
L 266.396394 72.360406 
L 273.146823 73.262746 
L 274.83443 73.262746 
L 276.522037 73.488331 
L 278.209644 73.488331 
L 279.897251 73.713916 
L 281.584859 73.713916 
L 283.272466 74.165086 
L 284.960073 74.390671 
L 286.64768 74.390671 
L 288.335287 74.616256 
L 290.022895 74.616256 
L 293.398109 75.067427 
L 295.085716 75.067427 
L 296.773323 75.518597 
L 298.46093 75.518597 
L 300.148538 75.744182 
L 301.836145 75.744182 
L 308.586574 76.646522 
L 310.274181 76.646522 
L 311.961788 77.097692 
L 315.337002 77.548862 
L 317.024609 77.548862 
L 320.399824 78.000033 
L 322.087431 78.000033 
L 323.775038 78.451203 
L 325.462645 78.676788 
L 327.150253 78.676788 
L 328.83786 79.127958 
L 344.026324 81.158224 
L 345.713932 81.609394 
L 357.527182 83.18849 
L 357.527182 83.18849 
" clip-path="url(#p3921f8fc3f)" style="fill: none; stroke: #225282; stroke-width: 1.2; stroke-linecap: round"/>
   </g>
   <g id="line2d_19">
    <path d="M 128.012605 65.367268 
L 129.700212 64.464928 
L 133.075426 63.111417 
L 136.450641 62.209077 
L 139.825855 61.757907 
L 143.20107 62.209077 
L 144.888677 62.209077 
L 151.639105 64.013758 
L 155.01432 64.464928 
L 156.701927 64.916098 
L 158.389534 64.916098 
L 160.077141 64.690513 
L 161.764749 64.690513 
L 166.82757 64.013758 
L 170.202785 63.111417 
L 176.953213 62.209077 
L 178.64082 62.209077 
L 187.078856 61.081152 
L 190.454071 61.081152 
L 193.829285 60.629981 
L 197.204499 60.629981 
L 198.892107 60.404396 
L 200.579714 60.404396 
L 202.267321 60.178811 
L 205.642535 60.178811 
L 207.330143 59.953226 
L 224.206214 59.953226 
L 225.893822 60.178811 
L 230.956643 60.178811 
L 234.331857 60.629981 
L 237.707072 60.629981 
L 241.082286 61.081152 
L 242.769893 60.855566 
L 244.457501 61.306737 
L 246.145108 61.306737 
L 247.832715 61.532322 
L 249.520322 61.532322 
L 252.895536 61.983492 
L 254.583144 61.983492 
L 256.270751 62.434662 
L 259.645965 62.434662 
L 261.333572 62.885832 
L 263.02118 62.885832 
L 264.708787 63.111417 
L 266.396394 63.111417 
L 268.084001 63.562587 
L 269.771608 63.788172 
L 271.459215 63.788172 
L 276.522037 64.464928 
L 278.209644 64.464928 
L 284.960073 65.367268 
L 286.64768 65.367268 
L 288.335287 65.818438 
L 290.022895 65.818438 
L 293.398109 66.269608 
L 295.085716 66.269608 
L 296.773323 66.720779 
L 298.46093 66.720779 
L 308.586574 68.074289 
L 310.274181 68.074289 
L 311.961788 68.525459 
L 315.337002 68.976629 
L 317.024609 68.976629 
L 318.712217 69.4278 
L 320.399824 69.653385 
L 322.087431 69.653385 
L 323.775038 70.104555 
L 327.150253 70.555725 
L 328.83786 71.006895 
L 330.525467 71.006895 
L 332.213074 71.23248 
L 333.900681 71.68365 
L 335.588288 71.909235 
L 337.275896 72.360406 
L 344.026324 73.262746 
L 345.713932 73.713916 
L 349.089146 74.165086 
L 350.776753 74.616256 
L 352.46436 74.616256 
L 354.151967 75.067427 
L 357.527182 75.518597 
L 357.527182 75.518597 
" clip-path="url(#p3921f8fc3f)" style="fill: none; stroke: #26497e; stroke-width: 1.2; stroke-linecap: round"/>
   </g>
   <g id="line2d_20">
    <path d="M 128.012605 56.343865 
L 131.387819 54.539184 
L 133.075426 53.862429 
L 138.138248 52.508918 
L 139.825855 52.508918 
L 141.513462 52.734503 
L 143.20107 52.734503 
L 144.888677 52.960089 
L 149.951498 54.313599 
L 151.639105 54.990354 
L 155.01432 55.441524 
L 156.701927 55.892695 
L 158.389534 55.892695 
L 161.764749 55.441524 
L 163.452356 55.441524 
L 165.139963 55.215939 
L 168.515177 54.313599 
L 170.202785 54.088014 
L 171.890392 53.636844 
L 187.078856 51.606578 
L 190.454071 51.606578 
L 195.516892 50.929823 
L 198.892107 50.929823 
L 200.579714 50.704238 
L 203.954928 50.704238 
L 207.330143 50.253068 
L 209.01775 50.478653 
L 210.705357 50.253068 
L 212.392964 50.253068 
L 214.080571 50.478653 
L 215.768178 50.253068 
L 217.455786 50.478653 
L 219.143393 50.253068 
L 220.831 50.253068 
L 222.518607 50.478653 
L 229.269036 50.478653 
L 232.64425 50.929823 
L 236.019465 50.929823 
L 241.082286 51.606578 
L 242.769893 51.380993 
L 244.457501 51.832163 
L 246.145108 51.832163 
L 247.832715 52.057748 
L 249.520322 52.057748 
L 257.958358 53.185674 
L 259.645965 53.185674 
L 261.333572 53.636844 
L 263.02118 53.636844 
L 273.146823 54.990354 
L 274.83443 54.990354 
L 276.522037 55.441524 
L 278.209644 55.441524 
L 283.272466 56.11828 
L 284.960073 56.56945 
L 286.64768 56.56945 
L 290.022895 57.02062 
L 291.710502 57.02062 
L 293.398109 57.47179 
L 295.085716 57.47179 
L 296.773323 57.92296 
L 298.46093 58.148545 
L 300.148538 58.148545 
L 306.898966 59.050886 
L 308.586574 59.502056 
L 310.274181 59.502056 
L 311.961788 59.953226 
L 317.024609 60.629981 
L 318.712217 61.081152 
L 320.399824 61.306737 
L 322.087431 61.306737 
L 323.775038 61.757907 
L 327.150253 62.209077 
L 328.83786 62.660247 
L 332.213074 63.111417 
L 333.900681 63.562587 
L 335.588288 63.788172 
L 337.275896 64.239343 
L 340.65111 64.690513 
L 342.338717 65.141683 
L 344.026324 65.367268 
L 345.713932 65.818438 
L 347.401539 66.044023 
L 349.089146 66.495193 
L 354.151967 67.171949 
L 355.839575 67.623119 
L 357.527182 67.848704 
L 357.527182 67.848704 
" clip-path="url(#p3921f8fc3f)" style="fill: none; stroke: #29427a; stroke-width: 1.2; stroke-linecap: round"/>
   </g>
   <g id="line2d_21">
    <path d="M 128.012605 47.320462 
L 133.075426 44.613441 
L 138.138248 43.25993 
L 139.825855 43.034345 
L 144.888677 43.7111 
L 146.576284 44.16227 
L 148.263891 44.839026 
L 149.951498 45.064611 
L 151.639105 45.966951 
L 155.01432 46.418121 
L 156.701927 46.869291 
L 160.077141 46.869291 
L 161.764749 46.418121 
L 163.452356 46.418121 
L 165.139963 45.966951 
L 166.82757 45.741366 
L 171.890392 44.387855 
L 173.577999 44.16227 
L 175.265606 43.7111 
L 182.016035 42.80876 
L 183.703642 42.80876 
L 185.391249 42.35759 
L 187.078856 42.132005 
L 188.766464 42.132005 
L 190.454071 41.90642 
L 192.141678 41.90642 
L 195.516892 41.455249 
L 197.204499 41.455249 
L 198.892107 41.229664 
L 200.579714 41.229664 
L 202.267321 41.004079 
L 205.642535 41.004079 
L 207.330143 40.778494 
L 210.705357 40.778494 
L 212.392964 40.552909 
L 214.080571 40.778494 
L 215.768178 40.552909 
L 217.455786 40.778494 
L 219.143393 40.778494 
L 220.831 40.552909 
L 222.518607 40.778494 
L 224.206214 40.778494 
L 225.893822 41.004079 
L 230.956643 41.004079 
L 234.331857 41.455249 
L 236.019465 41.455249 
L 237.707072 41.680834 
L 239.394679 41.680834 
L 241.082286 42.132005 
L 242.769893 41.90642 
L 244.457501 42.35759 
L 246.145108 42.35759 
L 247.832715 42.80876 
L 249.520322 42.80876 
L 252.895536 43.25993 
L 254.583144 43.25993 
L 256.270751 43.7111 
L 257.958358 43.936685 
L 259.645965 43.936685 
L 261.333572 44.387855 
L 263.02118 44.387855 
L 264.708787 44.839026 
L 266.396394 44.839026 
L 268.084001 45.064611 
L 269.771608 45.515781 
L 271.459215 45.515781 
L 273.146823 45.966951 
L 274.83443 45.966951 
L 276.522037 46.418121 
L 278.209644 46.418121 
L 279.897251 46.869291 
L 281.584859 46.869291 
L 283.272466 47.094876 
L 284.960073 47.546047 
L 286.64768 47.546047 
L 288.335287 47.997217 
L 290.022895 48.222802 
L 291.710502 48.222802 
L 293.398109 48.673972 
L 295.085716 48.673972 
L 296.773323 49.125142 
L 306.898966 50.478653 
L 308.586574 50.929823 
L 310.274181 50.929823 
L 311.961788 51.380993 
L 313.649395 51.606578 
L 315.337002 52.057748 
L 317.024609 52.057748 
L 320.399824 52.960089 
L 322.087431 52.960089 
L 325.462645 53.862429 
L 327.150253 53.862429 
L 328.83786 54.539184 
L 332.213074 54.990354 
L 333.900681 55.441524 
L 335.588288 55.66711 
L 338.963503 56.56945 
L 340.65111 56.795035 
L 342.338717 57.246205 
L 344.026324 57.47179 
L 345.713932 57.92296 
L 347.401539 58.148545 
L 350.776753 59.050886 
L 354.151967 59.502056 
L 355.839575 59.953226 
L 357.527182 60.178811 
L 357.527182 60.178811 
" clip-path="url(#p3921f8fc3f)" style="fill: none; stroke: #2b3975; stroke-width: 1.2; stroke-linecap: round"/>
   </g>
   <g id="patch_3">
    <path d="M 70.4652 234.5448 
L 70.4652 31.3152 
" style="fill: none; stroke: #262626; stroke-linejoin: miter; stroke-linecap: square"/>
   </g>
   <g id="patch_4">
    <path d="M 371.1968 234.5448 
L 371.1968 31.3152 
" style="fill: none; stroke: #262626; stroke-linejoin: miter; stroke-linecap: square"/>
   </g>
   <g id="patch_5">
    <path d="M 70.4652 234.5448 
L 371.1968 234.5448 
" style="fill: none; stroke: #262626; stroke-linejoin: miter; stroke-linecap: square"/>
   </g>
   <g id="patch_6">
    <path d="M 70.4652 31.3152 
L 371.1968 31.3152 
" style="fill: none; stroke: #262626; stroke-linejoin: miter; stroke-linecap: square"/>
   </g>
   <g id="text_15">
    <!-- Cold Junction Error - Original Tables -->
    <g style="fill: #262626" transform="translate(102.1684 25.3152) scale(0.1344 -0.1344)">
     <defs>
      <path id="DejaVuSans-6c" d="M 603 4863 
L 1178 4863 
L 1178 0 
L 603 0 
L 603 4863 
z
" transform="scale(0.015625)"/>
      <path id="DejaVuSans-64" d="M 2906 2969 
L 2906 4863 
L 3481 4863 
L 3481 0 
L 2906 0 
L 2906 525 
Q 2725 213 2448 61 
Q 2172 -91 1784 -91 
Q 1150 -91 751 415 
Q 353 922 353 1747 
Q 353 2572 751 3078 
Q 1150 3584 1784 3584 
Q 2172 3584 2448 3432 
Q 2725 3281 2906 2969 
z
M 947 1747 
Q 947 1113 1208 752 
Q 1469 391 1925 391 
Q 2381 391 2643 752 
Q 2906 1113 2906 1747 
Q 2906 2381 2643 2742 
Q 2381 3103 1925 3103 
Q 1469 3103 1208 2742 
Q 947 2381 947 1747 
z
" transform="scale(0.015625)"/>
      <path id="DejaVuSans-2d" d="M 313 2009 
L 1997 2009 
L 1997 1497 
L 313 1497 
L 313 2009 
z
" transform="scale(0.015625)"/>
      <path id="DejaVuSans-4f" d="M 2522 4238 
Q 1834 4238 1429 3725 
Q 1025 3213 1025 2328 
Q 1025 1447 1429 934 
Q 1834 422 2522 422 
Q 3209 422 3611 934 
Q 4013 1447 4013 2328 
Q 4013 3213 3611 3725 
Q 3209 4238 2522 4238 
z
M 2522 4750 
Q 3503 4750 4090 4092 
Q 4678 3434 4678 2328 
Q 4678 1225 4090 567 
Q 3503 -91 2522 -91 
Q 1538 -91 948 565 
Q 359 1222 359 2328 
Q 359 3434 948 4092 
Q 1538 4750 2522 4750 
z
" transform="scale(0.015625)"/>
      <path id="DejaVuSans-67" d="M 2906 1791 
Q 2906 2416 2648 2759 
Q 2391 3103 1925 3103 
Q 1463 3103 1205 2759 
Q 947 2416 947 1791 
Q 947 1169 1205 825 
Q 1463 481 1925 481 
Q 2391 481 2648 825 
Q 2906 1169 2906 1791 
z
M 3481 434 
Q 3481 -459 3084 -895 
Q 2688 -1331 1869 -1331 
Q 1566 -1331 1297 -1286 
Q 1028 -1241 775 -1147 
L 775 -588 
Q 1028 -725 1275 -790 
Q 1522 -856 1778 -856 
Q 2344 -856 2625 -561 
Q 2906 -266 2906 331 
L 2906 616 
Q 2728 306 2450 153 
Q 2172 0 1784 0 
Q 1141 0 747 490 
Q 353 981 353 1791 
Q 353 2603 747 3093 
Q 1141 3584 1784 3584 
Q 2172 3584 2450 3431 
Q 2728 3278 2906 2969 
L 2906 3500 
L 3481 3500 
L 3481 434 
z
" transform="scale(0.015625)"/>
      <path id="DejaVuSans-62" d="M 3116 1747 
Q 3116 2381 2855 2742 
Q 2594 3103 2138 3103 
Q 1681 3103 1420 2742 
Q 1159 2381 1159 1747 
Q 1159 1113 1420 752 
Q 1681 391 2138 391 
Q 2594 391 2855 752 
Q 3116 1113 3116 1747 
z
M 1159 2969 
Q 1341 3281 1617 3432 
Q 1894 3584 2278 3584 
Q 2916 3584 3314 3078 
Q 3713 2572 3713 1747 
Q 3713 922 3314 415 
Q 2916 -91 2278 -91 
Q 1894 -91 1617 61 
Q 1341 213 1159 525 
L 1159 0 
L 581 0 
L 581 4863 
L 1159 4863 
L 1159 2969 
z
" transform="scale(0.015625)"/>
      <path id="DejaVuSans-73" d="M 2834 3397 
L 2834 2853 
Q 2591 2978 2328 3040 
Q 2066 3103 1784 3103 
Q 1356 3103 1142 2972 
Q 928 2841 928 2578 
Q 928 2378 1081 2264 
Q 1234 2150 1697 2047 
L 1894 2003 
Q 2506 1872 2764 1633 
Q 3022 1394 3022 966 
Q 3022 478 2636 193 
Q 2250 -91 1575 -91 
Q 1294 -91 989 -36 
Q 684 19 347 128 
L 347 722 
Q 666 556 975 473 
Q 1284 391 1588 391 
Q 1994 391 2212 530 
Q 2431 669 2431 922 
Q 2431 1156 2273 1281 
Q 2116 1406 1581 1522 
L 1381 1569 
Q 847 1681 609 1914 
Q 372 2147 372 2553 
Q 372 3047 722 3315 
Q 1072 3584 1716 3584 
Q 2034 3584 2315 3537 
Q 2597 3491 2834 3397 
z
" transform="scale(0.015625)"/>
     </defs>
     <use xlink:href="#DejaVuSans-43"/>
     <use xlink:href="#DejaVuSans-6f" x="69.824219"/>
     <use xlink:href="#DejaVuSans-6c" x="131.005859"/>
     <use xlink:href="#DejaVuSans-64" x="158.789062"/>
     <use xlink:href="#DejaVuSans-20" x="222.265625"/>
     <use xlink:href="#DejaVuSans-4a" x="254.052734"/>
     <use xlink:href="#DejaVuSans-75" x="283.544922"/>
     <use xlink:href="#DejaVuSans-6e" x="346.923828"/>
     <use xlink:href="#DejaVuSans-63" x="410.302734"/>
     <use xlink:href="#DejaVuSans-74" x="465.283203"/>
     <use xlink:href="#DejaVuSans-69" x="504.492188"/>
     <use xlink:href="#DejaVuSans-6f" x="532.275391"/>
     <use xlink:href="#DejaVuSans-6e" x="593.457031"/>
     <use xlink:href="#DejaVuSans-20" x="656.835938"/>
     <use xlink:href="#DejaVuSans-45" x="688.623047"/>
     <use xlink:href="#DejaVuSans-72" x="751.806641"/>
     <use xlink:href="#DejaVuSans-72" x="791.169922"/>
     <use xlink:href="#DejaVuSans-6f" x="830.033203"/>
     <use xlink:href="#DejaVuSans-72" x="891.214844"/>
     <use xlink:href="#DejaVuSans-20" x="932.328125"/>
     <use xlink:href="#DejaVuSans-2d" x="964.115234"/>
     <use xlink:href="#DejaVuSans-20" x="1000.199219"/>
     <use xlink:href="#DejaVuSans-4f" x="1031.986328"/>
     <use xlink:href="#DejaVuSans-72" x="1110.697266"/>
     <use xlink:href="#DejaVuSans-69" x="1151.810547"/>
     <use xlink:href="#DejaVuSans-67" x="1179.59375"/>
     <use xlink:href="#DejaVuSans-69" x="1243.070312"/>
     <use xlink:href="#DejaVuSans-6e" x="1270.853516"/>
     <use xlink:href="#DejaVuSans-61" x="1334.232422"/>
     <use xlink:href="#DejaVuSans-6c" x="1395.511719"/>
     <use xlink:href="#DejaVuSans-20" x="1423.294922"/>
     <use xlink:href="#DejaVuSans-54" x="1455.082031"/>
     <use xlink:href="#DejaVuSans-61" x="1499.666016"/>
     <use xlink:href="#DejaVuSans-62" x="1560.945312"/>
     <use xlink:href="#DejaVuSans-6c" x="1624.421875"/>
     <use xlink:href="#DejaVuSans-65" x="1652.205078"/>
     <use xlink:href="#DejaVuSans-73" x="1713.728516"/>
    </g>
   </g>
   <g id="legend_1">
    <g id="patch_7">
     <path d="M 379.8208 259.25655 
L 558.443475 259.25655 
Q 560.907475 259.25655 560.907475 256.79255 
L 560.907475 39.9392 
Q 560.907475 37.4752 558.443475 37.4752 
L 379.8208 37.4752 
Q 377.3568 37.4752 377.3568 39.9392 
L 377.3568 256.79255 
Q 377.3568 259.25655 379.8208 259.25655 
z
" style="fill: #ffffff; opacity: 0.8; stroke: #cccccc; stroke-width: 0.8; stroke-linejoin: miter"/>
    </g>
    <g id="text_16">
     <!-- Cold Junc. Temp -->
     <g style="fill: #262626" transform="translate(415.683987 52.6155) scale(0.1344 -0.1344)">
      <use xlink:href="#DejaVuSans-43"/>
      <use xlink:href="#DejaVuSans-6f" x="69.824219"/>
      <use xlink:href="#DejaVuSans-6c" x="131.005859"/>
      <use xlink:href="#DejaVuSans-64" x="158.789062"/>
      <use xlink:href="#DejaVuSans-20" x="222.265625"/>
      <use xlink:href="#DejaVuSans-4a" x="254.052734"/>
      <use xlink:href="#DejaVuSans-75" x="283.544922"/>
      <use xlink:href="#DejaVuSans-6e" x="346.923828"/>
      <use xlink:href="#DejaVuSans-63" x="410.302734"/>
      <use xlink:href="#DejaVuSans-2e" x="465.283203"/>
      <use xlink:href="#DejaVuSans-20" x="497.070312"/>
      <use xlink:href="#DejaVuSans-54" x="528.857422"/>
      <use xlink:href="#DejaVuSans-65" x="572.941406"/>
      <use xlink:href="#DejaVuSans-6d" x="634.464844"/>
      <use xlink:href="#DejaVuSans-70" x="731.876953"/>
     </g>
    </g>
    <g id="line2d_22">
     <path d="M 382.2848 66.619875 
L 394.6048 66.619875 
L 406.9248 66.619875 
" style="fill: none; stroke: #99c791; stroke-width: 1.2; stroke-linecap: round"/>
    </g>
    <g id="text_17">
     <!-- -10 (C) -->
     <g style="fill: #262626" transform="translate(416.7808 70.931875) scale(0.1232 -0.1232)">
      <use xlink:href="#DejaVuSans-2d"/>
      <use xlink:href="#DejaVuSans-31" x="36.083984"/>
      <use xlink:href="#DejaVuSans-30" x="99.707031"/>
      <use xlink:href="#DejaVuSans-20" x="163.330078"/>
      <use xlink:href="#DejaVuSans-28" x="195.117188"/>
      <use xlink:href="#DejaVuSans-43" x="234.130859"/>
      <use xlink:href="#DejaVuSans-29" x="303.955078"/>
     </g>
    </g>
    <g id="line2d_23">
     <path d="M 382.2848 84.703325 
L 394.6048 84.703325 
L 406.9248 84.703325 
" style="fill: none; stroke: #8bc191; stroke-width: 1.2; stroke-linecap: round"/>
    </g>
    <g id="text_18">
     <!-- -9 (C) -->
     <g style="fill: #262626" transform="translate(416.7808 89.015325) scale(0.1232 -0.1232)">
      <defs>
       <path id="DejaVuSans-39" d="M 703 97 
L 703 672 
Q 941 559 1184 500 
Q 1428 441 1663 441 
Q 2288 441 2617 861 
Q 2947 1281 2994 2138 
Q 2813 1869 2534 1725 
Q 2256 1581 1919 1581 
Q 1219 1581 811 2004 
Q 403 2428 403 3163 
Q 403 3881 828 4315 
Q 1253 4750 1959 4750 
Q 2769 4750 3195 4129 
Q 3622 3509 3622 2328 
Q 3622 1225 3098 567 
Q 2575 -91 1691 -91 
Q 1453 -91 1209 -44 
Q 966 3 703 97 
z
M 1959 2075 
Q 2384 2075 2632 2365 
Q 2881 2656 2881 3163 
Q 2881 3666 2632 3958 
Q 2384 4250 1959 4250 
Q 1534 4250 1286 3958 
Q 1038 3666 1038 3163 
Q 1038 2656 1286 2365 
Q 1534 2075 1959 2075 
z
" transform="scale(0.015625)"/>
      </defs>
      <use xlink:href="#DejaVuSans-2d"/>
      <use xlink:href="#DejaVuSans-39" x="36.083984"/>
      <use xlink:href="#DejaVuSans-20" x="99.707031"/>
      <use xlink:href="#DejaVuSans-28" x="131.494141"/>
      <use xlink:href="#DejaVuSans-43" x="170.507812"/>
      <use xlink:href="#DejaVuSans-29" x="240.332031"/>
     </g>
    </g>
    <g id="line2d_24">
     <path d="M 382.2848 102.786775 
L 394.6048 102.786775 
L 406.9248 102.786775 
" style="fill: none; stroke: #7fbb91; stroke-width: 1.2; stroke-linecap: round"/>
    </g>
    <g id="text_19">
     <!-- -8 (C) -->
     <g style="fill: #262626" transform="translate(416.7808 107.098775) scale(0.1232 -0.1232)">
      <defs>
       <path id="DejaVuSans-38" d="M 2034 2216 
Q 1584 2216 1326 1975 
Q 1069 1734 1069 1313 
Q 1069 891 1326 650 
Q 1584 409 2034 409 
Q 2484 409 2743 651 
Q 3003 894 3003 1313 
Q 3003 1734 2745 1975 
Q 2488 2216 2034 2216 
z
M 1403 2484 
Q 997 2584 770 2862 
Q 544 3141 544 3541 
Q 544 4100 942 4425 
Q 1341 4750 2034 4750 
Q 2731 4750 3128 4425 
Q 3525 4100 3525 3541 
Q 3525 3141 3298 2862 
Q 3072 2584 2669 2484 
Q 3125 2378 3379 2068 
Q 3634 1759 3634 1313 
Q 3634 634 3220 271 
Q 2806 -91 2034 -91 
Q 1263 -91 848 271 
Q 434 634 434 1313 
Q 434 1759 690 2068 
Q 947 2378 1403 2484 
z
M 1172 3481 
Q 1172 3119 1398 2916 
Q 1625 2713 2034 2713 
Q 2441 2713 2670 2916 
Q 2900 3119 2900 3481 
Q 2900 3844 2670 4047 
Q 2441 4250 2034 4250 
Q 1625 4250 1398 4047 
Q 1172 3844 1172 3481 
z
" transform="scale(0.015625)"/>
      </defs>
      <use xlink:href="#DejaVuSans-2d"/>
      <use xlink:href="#DejaVuSans-38" x="36.083984"/>
      <use xlink:href="#DejaVuSans-20" x="99.707031"/>
      <use xlink:href="#DejaVuSans-28" x="131.494141"/>
      <use xlink:href="#DejaVuSans-43" x="170.507812"/>
      <use xlink:href="#DejaVuSans-29" x="240.332031"/>
     </g>
    </g>
    <g id="line2d_25">
     <path d="M 382.2848 120.870225 
L 394.6048 120.870225 
L 406.9248 120.870225 
" style="fill: none; stroke: #72b490; stroke-width: 1.2; stroke-linecap: round"/>
    </g>
    <g id="text_20">
     <!-- -7 (C) -->
     <g style="fill: #262626" transform="translate(416.7808 125.182225) scale(0.1232 -0.1232)">
      <use xlink:href="#DejaVuSans-2d"/>
      <use xlink:href="#DejaVuSans-37" x="36.083984"/>
      <use xlink:href="#DejaVuSans-20" x="99.707031"/>
      <use xlink:href="#DejaVuSans-28" x="131.494141"/>
      <use xlink:href="#DejaVuSans-43" x="170.507812"/>
      <use xlink:href="#DejaVuSans-29" x="240.332031"/>
     </g>
    </g>
    <g id="line2d_26">
     <path d="M 382.2848 138.953675 
L 394.6048 138.953675 
L 406.9248 138.953675 
" style="fill: none; stroke: #66ae90; stroke-width: 1.2; stroke-linecap: round"/>
    </g>
    <g id="text_21">
     <!-- -6 (C) -->
     <g style="fill: #262626" transform="translate(416.7808 143.265675) scale(0.1232 -0.1232)">
      <defs>
       <path id="DejaVuSans-36" d="M 2113 2584 
Q 1688 2584 1439 2293 
Q 1191 2003 1191 1497 
Q 1191 994 1439 701 
Q 1688 409 2113 409 
Q 2538 409 2786 701 
Q 3034 994 3034 1497 
Q 3034 2003 2786 2293 
Q 2538 2584 2113 2584 
z
M 3366 4563 
L 3366 3988 
Q 3128 4100 2886 4159 
Q 2644 4219 2406 4219 
Q 1781 4219 1451 3797 
Q 1122 3375 1075 2522 
Q 1259 2794 1537 2939 
Q 1816 3084 2150 3084 
Q 2853 3084 3261 2657 
Q 3669 2231 3669 1497 
Q 3669 778 3244 343 
Q 2819 -91 2113 -91 
Q 1303 -91 875 529 
Q 447 1150 447 2328 
Q 447 3434 972 4092 
Q 1497 4750 2381 4750 
Q 2619 4750 2861 4703 
Q 3103 4656 3366 4563 
z
" transform="scale(0.015625)"/>
      </defs>
      <use xlink:href="#DejaVuSans-2d"/>
      <use xlink:href="#DejaVuSans-36" x="36.083984"/>
      <use xlink:href="#DejaVuSans-20" x="99.707031"/>
      <use xlink:href="#DejaVuSans-28" x="131.494141"/>
      <use xlink:href="#DejaVuSans-43" x="170.507812"/>
      <use xlink:href="#DejaVuSans-29" x="240.332031"/>
     </g>
    </g>
    <g id="line2d_27">
     <path d="M 382.2848 157.037125 
L 394.6048 157.037125 
L 406.9248 157.037125 
" style="fill: none; stroke: #5ca890; stroke-width: 1.2; stroke-linecap: round"/>
    </g>
    <g id="text_22">
     <!-- -5 (C) -->
     <g style="fill: #262626" transform="translate(416.7808 161.349125) scale(0.1232 -0.1232)">
      <use xlink:href="#DejaVuSans-2d"/>
      <use xlink:href="#DejaVuSans-35" x="36.083984"/>
      <use xlink:href="#DejaVuSans-20" x="99.707031"/>
      <use xlink:href="#DejaVuSans-28" x="131.494141"/>
      <use xlink:href="#DejaVuSans-43" x="170.507812"/>
      <use xlink:href="#DejaVuSans-29" x="240.332031"/>
     </g>
    </g>
    <g id="line2d_28">
     <path d="M 382.2848 175.120575 
L 394.6048 175.120575 
L 406.9248 175.120575 
" style="fill: none; stroke: #53a190; stroke-width: 1.2; stroke-linecap: round"/>
    </g>
    <g id="text_23">
     <!-- -4 (C) -->
     <g style="fill: #262626" transform="translate(416.7808 179.432575) scale(0.1232 -0.1232)">
      <use xlink:href="#DejaVuSans-2d"/>
      <use xlink:href="#DejaVuSans-34" x="36.083984"/>
      <use xlink:href="#DejaVuSans-20" x="99.707031"/>
      <use xlink:href="#DejaVuSans-28" x="131.494141"/>
      <use xlink:href="#DejaVuSans-43" x="170.507812"/>
      <use xlink:href="#DejaVuSans-29" x="240.332031"/>
     </g>
    </g>
    <g id="line2d_29">
     <path d="M 382.2848 193.204025 
L 394.6048 193.204025 
L 406.9248 193.204025 
" style="fill: none; stroke: #4a9a8f; stroke-width: 1.2; stroke-linecap: round"/>
    </g>
    <g id="text_24">
     <!-- -3 (C) -->
     <g style="fill: #262626" transform="translate(416.7808 197.516025) scale(0.1232 -0.1232)">
      <defs>
       <path id="DejaVuSans-33" d="M 2597 2516 
Q 3050 2419 3304 2112 
Q 3559 1806 3559 1356 
Q 3559 666 3084 287 
Q 2609 -91 1734 -91 
Q 1441 -91 1130 -33 
Q 819 25 488 141 
L 488 750 
Q 750 597 1062 519 
Q 1375 441 1716 441 
Q 2309 441 2620 675 
Q 2931 909 2931 1356 
Q 2931 1769 2642 2001 
Q 2353 2234 1838 2234 
L 1294 2234 
L 1294 2753 
L 1863 2753 
Q 2328 2753 2575 2939 
Q 2822 3125 2822 3475 
Q 2822 3834 2567 4026 
Q 2313 4219 1838 4219 
Q 1578 4219 1281 4162 
Q 984 4106 628 3988 
L 628 4550 
Q 988 4650 1302 4700 
Q 1616 4750 1894 4750 
Q 2613 4750 3031 4423 
Q 3450 4097 3450 3541 
Q 3450 3153 3228 2886 
Q 3006 2619 2597 2516 
z
" transform="scale(0.015625)"/>
      </defs>
      <use xlink:href="#DejaVuSans-2d"/>
      <use xlink:href="#DejaVuSans-33" x="36.083984"/>
      <use xlink:href="#DejaVuSans-20" x="99.707031"/>
      <use xlink:href="#DejaVuSans-28" x="131.494141"/>
      <use xlink:href="#DejaVuSans-43" x="170.507812"/>
      <use xlink:href="#DejaVuSans-29" x="240.332031"/>
     </g>
    </g>
    <g id="line2d_30">
     <path d="M 382.2848 211.287475 
L 394.6048 211.287475 
L 406.9248 211.287475 
" style="fill: none; stroke: #43938f; stroke-width: 1.2; stroke-linecap: round"/>
    </g>
    <g id="text_25">
     <!-- -2 (C) -->
     <g style="fill: #262626" transform="translate(416.7808 215.599475) scale(0.1232 -0.1232)">
      <use xlink:href="#DejaVuSans-2d"/>
      <use xlink:href="#DejaVuSans-32" x="36.083984"/>
      <use xlink:href="#DejaVuSans-20" x="99.707031"/>
      <use xlink:href="#DejaVuSans-28" x="131.494141"/>
      <use xlink:href="#DejaVuSans-43" x="170.507812"/>
      <use xlink:href="#DejaVuSans-29" x="240.332031"/>
     </g>
    </g>
    <g id="line2d_31">
     <path d="M 382.2848 229.370925 
L 394.6048 229.370925 
L 406.9248 229.370925 
" style="fill: none; stroke: #3b8c8e; stroke-width: 1.2; stroke-linecap: round"/>
    </g>
    <g id="text_26">
     <!-- -1 (C) -->
     <g style="fill: #262626" transform="translate(416.7808 233.682925) scale(0.1232 -0.1232)">
      <use xlink:href="#DejaVuSans-2d"/>
      <use xlink:href="#DejaVuSans-31" x="36.083984"/>
      <use xlink:href="#DejaVuSans-20" x="99.707031"/>
      <use xlink:href="#DejaVuSans-28" x="131.494141"/>
      <use xlink:href="#DejaVuSans-43" x="170.507812"/>
      <use xlink:href="#DejaVuSans-29" x="240.332031"/>
     </g>
    </g>
    <g id="line2d_32">
     <path d="M 382.2848 247.454375 
L 394.6048 247.454375 
L 406.9248 247.454375 
" style="fill: none; stroke: #33858d; stroke-width: 1.2; stroke-linecap: round"/>
    </g>
    <g id="text_27">
     <!-- 0 (C) -->
     <g style="fill: #262626" transform="translate(416.7808 251.766375) scale(0.1232 -0.1232)">
      <use xlink:href="#DejaVuSans-30"/>
      <use xlink:href="#DejaVuSans-20" x="63.623047"/>
      <use xlink:href="#DejaVuSans-28" x="95.410156"/>
      <use xlink:href="#DejaVuSans-43" x="134.423828"/>
      <use xlink:href="#DejaVuSans-29" x="204.248047"/>
     </g>
    </g>
    <g id="line2d_33">
     <path d="M 483.67455 66.619875 
L 495.99455 66.619875 
L 508.31455 66.619875 
" style="fill: none; stroke: #2c7e8c; stroke-width: 1.2; stroke-linecap: round"/>
    </g>
    <g id="text_28">
     <!-- 1 (C) -->
     <g style="fill: #262626" transform="translate(518.17055 70.931875) scale(0.1232 -0.1232)">
      <use xlink:href="#DejaVuSans-31"/>
      <use xlink:href="#DejaVuSans-20" x="63.623047"/>
      <use xlink:href="#DejaVuSans-28" x="95.410156"/>
      <use xlink:href="#DejaVuSans-43" x="134.423828"/>
      <use xlink:href="#DejaVuSans-29" x="204.248047"/>
     </g>
    </g>
    <g id="line2d_34">
     <path d="M 483.67455 84.703325 
L 495.99455 84.703325 
L 508.31455 84.703325 
" style="fill: none; stroke: #25778c; stroke-width: 1.2; stroke-linecap: round"/>
    </g>
    <g id="text_29">
     <!-- 2 (C) -->
     <g style="fill: #262626" transform="translate(518.17055 89.015325) scale(0.1232 -0.1232)">
      <use xlink:href="#DejaVuSans-32"/>
      <use xlink:href="#DejaVuSans-20" x="63.623047"/>
      <use xlink:href="#DejaVuSans-28" x="95.410156"/>
      <use xlink:href="#DejaVuSans-43" x="134.423828"/>
      <use xlink:href="#DejaVuSans-29" x="204.248047"/>
     </g>
    </g>
    <g id="line2d_35">
     <path d="M 483.67455 102.786775 
L 495.99455 102.786775 
L 508.31455 102.786775 
" style="fill: none; stroke: #20718b; stroke-width: 1.2; stroke-linecap: round"/>
    </g>
    <g id="text_30">
     <!-- 3 (C) -->
     <g style="fill: #262626" transform="translate(518.17055 107.098775) scale(0.1232 -0.1232)">
      <use xlink:href="#DejaVuSans-33"/>
      <use xlink:href="#DejaVuSans-20" x="63.623047"/>
      <use xlink:href="#DejaVuSans-28" x="95.410156"/>
      <use xlink:href="#DejaVuSans-43" x="134.423828"/>
      <use xlink:href="#DejaVuSans-29" x="204.248047"/>
     </g>
    </g>
    <g id="line2d_36">
     <path d="M 483.67455 120.870225 
L 495.99455 120.870225 
L 508.31455 120.870225 
" style="fill: none; stroke: #1c6989; stroke-width: 1.2; stroke-linecap: round"/>
    </g>
    <g id="text_31">
     <!-- 4 (C) -->
     <g style="fill: #262626" transform="translate(518.17055 125.182225) scale(0.1232 -0.1232)">
      <use xlink:href="#DejaVuSans-34"/>
      <use xlink:href="#DejaVuSans-20" x="63.623047"/>
      <use xlink:href="#DejaVuSans-28" x="95.410156"/>
      <use xlink:href="#DejaVuSans-43" x="134.423828"/>
      <use xlink:href="#DejaVuSans-29" x="204.248047"/>
     </g>
    </g>
    <g id="line2d_37">
     <path d="M 483.67455 138.953675 
L 495.99455 138.953675 
L 508.31455 138.953675 
" style="fill: none; stroke: #1d6188; stroke-width: 1.2; stroke-linecap: round"/>
    </g>
    <g id="text_32">
     <!-- 5 (C) -->
     <g style="fill: #262626" transform="translate(518.17055 143.265675) scale(0.1232 -0.1232)">
      <use xlink:href="#DejaVuSans-35"/>
      <use xlink:href="#DejaVuSans-20" x="63.623047"/>
      <use xlink:href="#DejaVuSans-28" x="95.410156"/>
      <use xlink:href="#DejaVuSans-43" x="134.423828"/>
      <use xlink:href="#DejaVuSans-29" x="204.248047"/>
     </g>
    </g>
    <g id="line2d_38">
     <path d="M 483.67455 157.037125 
L 495.99455 157.037125 
L 508.31455 157.037125 
" style="fill: none; stroke: #1f5a85; stroke-width: 1.2; stroke-linecap: round"/>
    </g>
    <g id="text_33">
     <!-- 6 (C) -->
     <g style="fill: #262626" transform="translate(518.17055 161.349125) scale(0.1232 -0.1232)">
      <use xlink:href="#DejaVuSans-36"/>
      <use xlink:href="#DejaVuSans-20" x="63.623047"/>
      <use xlink:href="#DejaVuSans-28" x="95.410156"/>
      <use xlink:href="#DejaVuSans-43" x="134.423828"/>
      <use xlink:href="#DejaVuSans-29" x="204.248047"/>
     </g>
    </g>
    <g id="line2d_39">
     <path d="M 483.67455 175.120575 
L 495.99455 175.120575 
L 508.31455 175.120575 
" style="fill: none; stroke: #225282; stroke-width: 1.2; stroke-linecap: round"/>
    </g>
    <g id="text_34">
     <!-- 7 (C) -->
     <g style="fill: #262626" transform="translate(518.17055 179.432575) scale(0.1232 -0.1232)">
      <use xlink:href="#DejaVuSans-37"/>
      <use xlink:href="#DejaVuSans-20" x="63.623047"/>
      <use xlink:href="#DejaVuSans-28" x="95.410156"/>
      <use xlink:href="#DejaVuSans-43" x="134.423828"/>
      <use xlink:href="#DejaVuSans-29" x="204.248047"/>
     </g>
    </g>
    <g id="line2d_40">
     <path d="M 483.67455 193.204025 
L 495.99455 193.204025 
L 508.31455 193.204025 
" style="fill: none; stroke: #26497e; stroke-width: 1.2; stroke-linecap: round"/>
    </g>
    <g id="text_35">
     <!-- 8 (C) -->
     <g style="fill: #262626" transform="translate(518.17055 197.516025) scale(0.1232 -0.1232)">
      <use xlink:href="#DejaVuSans-38"/>
      <use xlink:href="#DejaVuSans-20" x="63.623047"/>
      <use xlink:href="#DejaVuSans-28" x="95.410156"/>
      <use xlink:href="#DejaVuSans-43" x="134.423828"/>
      <use xlink:href="#DejaVuSans-29" x="204.248047"/>
     </g>
    </g>
    <g id="line2d_41">
     <path d="M 483.67455 211.287475 
L 495.99455 211.287475 
L 508.31455 211.287475 
" style="fill: none; stroke: #29427a; stroke-width: 1.2; stroke-linecap: round"/>
    </g>
    <g id="text_36">
     <!-- 9 (C) -->
     <g style="fill: #262626" transform="translate(518.17055 215.599475) scale(0.1232 -0.1232)">
      <use xlink:href="#DejaVuSans-39"/>
      <use xlink:href="#DejaVuSans-20" x="63.623047"/>
      <use xlink:href="#DejaVuSans-28" x="95.410156"/>
      <use xlink:href="#DejaVuSans-43" x="134.423828"/>
      <use xlink:href="#DejaVuSans-29" x="204.248047"/>
     </g>
    </g>
    <g id="line2d_42">
     <path d="M 483.67455 229.370925 
L 495.99455 229.370925 
L 508.31455 229.370925 
" style="fill: none; stroke: #2b3975; stroke-width: 1.2; stroke-linecap: round"/>
    </g>
    <g id="text_37">
     <!-- 10 (C) -->
     <g style="fill: #262626" transform="translate(518.17055 233.682925) scale(0.1232 -0.1232)">
      <use xlink:href="#DejaVuSans-31"/>
      <use xlink:href="#DejaVuSans-30" x="63.623047"/>
      <use xlink:href="#DejaVuSans-20" x="127.246094"/>
      <use xlink:href="#DejaVuSans-28" x="159.033203"/>
      <use xlink:href="#DejaVuSans-43" x="198.046875"/>
      <use xlink:href="#DejaVuSans-29" x="267.871094"/>
     </g>
    </g>
   </g>
  </g>
 </g>
 <defs>
  <clipPath id="p3921f8fc3f">
   <rect x="70.4652" y="31.3152" width="300.7316" height="203.2296"/>
  </clipPath>
 </defs>
</svg>
