M48
; DRILL file {KiCad 8.0.9-8.0.9-0~ubuntu24.04.1} date 2025-10-26T13:13:23-0400
; FORMAT={-:-/ absolute / metric / decimal}
; #@! TF.CreationDate,2025-10-26T13:13:23-04:00
; #@! TF.GenerationSoftware,Kicad,Pcbnew,8.0.9-8.0.9-0~ubuntu24.04.1
; #@! TF.FileFunction,Plated,1,4,PTH
FMAT,2
METRIC
; #@! TA.AperFunction,Plated,PTH,ComponentDrill
T1C0.200
; #@! TA.AperFunction,Plated,PTH,ViaDrill
T2C0.400
; #@! TA.AperFunction,Plated,PTH,ComponentDrill
T3C0.900
; #@! TA.AperFunction,Plated,PTH,ComponentDrill
T4C1.000
; #@! TA.AperFunction,Plated,PTH,ComponentDrill
T5C1.200
; #@! TA.AperFunction,Plated,PTH,ComponentDrill
T6C1.500
; #@! TA.AperFunction,Plated,PTH,ComponentDrill
T7C1.600
%
G90
G05
T1
X67.967Y-108.896
X67.967Y-109.896
X67.967Y-110.896
X68.967Y-108.896
X68.967Y-109.896
X68.967Y-110.896
X69.967Y-108.896
X69.967Y-109.896
X69.967Y-110.896
T2
X38.401Y-115.047
X39.254Y-111.552
X40.585Y-114.097
X40.64Y-113.147
X40.654Y-115.052
X43.266Y-117.127
X43.72Y-96.518
X45.046Y-88.856
X45.116Y-87.356
X46.039Y-111.902
X47.541Y-73.209
X47.656Y-64.887
X48.246Y-89.906
X48.275Y-98.078
X49.029Y-73.059
X49.066Y-111.917
X49.086Y-115.707
X49.089Y-114.427
X49.355Y-99.158
X49.841Y-78.681
X50.666Y-77.816
X50.991Y-66.699
X51.199Y-68.869
X52.166Y-112.276
X53.549Y-101.786
X53.549Y-102.786
X53.776Y-115.996
X54.216Y-107.497
X55.101Y-65.829
X55.121Y-67.799
X55.631Y-74.819
X55.936Y-70.256
X55.936Y-71.446
X55.936Y-72.596
X56.499Y-80.012
X56.706Y-107.246
X57.981Y-66.922
X59.116Y-116.136
X59.939Y-72.985
X60.213Y-64.911
X60.891Y-104.366
X60.942Y-105.596
X61.579Y-72.925
X61.658Y-81.625
X62.319Y-65.755
X62.758Y-81.615
X63.046Y-104.996
X63.166Y-109.906
X63.489Y-68.755
X63.945Y-113.098
X63.985Y-114.258
X64.058Y-112.105
X65.058Y-86.505
X65.144Y-107.651
X65.218Y-92.855
X65.646Y-117.716
X66.106Y-104.481
X66.255Y-103.258
X66.668Y-86.506
X66.708Y-92.855
X66.747Y-115.134
X66.927Y-111.984
X66.936Y-107.556
X67.424Y-66.015
X67.449Y-68.04
X68.139Y-74.835
X68.287Y-70.081
X68.287Y-71.425
X68.293Y-72.651
X68.697Y-116.174
X69.548Y-81.625
X69.553Y-88.317
X69.553Y-94.896
X70.249Y-66.965
X70.391Y-84.558
X70.398Y-85.535
X70.417Y-91.061
X70.418Y-82.625
X70.418Y-92.055
X70.985Y-111.928
X71.197Y-104.294
X72.053Y-64.111
X72.053Y-65.091
X72.053Y-66.121
X72.186Y-106.754
X72.417Y-115.524
X72.436Y-108.226
X72.513Y-72.921
X72.677Y-113.054
X73.007Y-111.824
X73.151Y-105.578
X73.793Y-73.761
X73.807Y-115.694
X73.885Y-109.058
X74.505Y-114.288
X75.065Y-110.528
X76.183Y-65.121
X76.245Y-112.498
X76.287Y-109.824
X76.529Y-111.242
X77.48Y-116.658
X77.666Y-76.026
X77.983Y-66.941
X78.255Y-118.848
X78.756Y-77.276
X79.885Y-109.168
X80.085Y-106.67
X80.515Y-95.448
X80.523Y-74.671
X80.655Y-99.068
X80.823Y-71.121
X81.215Y-93.328
X81.465Y-98.178
X81.805Y-112.318
X82.133Y-65.561
X82.371Y-109.21
X84.035Y-93.878
X84.535Y-92.308
X85.441Y-65.171
X85.441Y-69.221
X85.515Y-97.428
X85.525Y-108.578
X86.426Y-96.266
X86.766Y-69.246
X86.945Y-107.928
X86.956Y-79.966
X87.108Y-119.838
X87.133Y-122.078
X87.203Y-124.368
X87.205Y-126.648
X87.585Y-103.228
X87.725Y-95.628
X87.855Y-108.688
X88.016Y-69.206
X88.385Y-88.428
X88.586Y-93.676
X88.675Y-94.828
X89.266Y-69.221
X89.696Y-98.816
X90.145Y-113.478
X90.405Y-86.158
X90.516Y-69.221
X90.586Y-65.256
X91.355Y-85.208
X91.415Y-106.718
X91.791Y-69.196
X92.185Y-84.368
X92.295Y-90.138
X92.335Y-115.658
X92.496Y-105.646
X92.565Y-101.658
X92.595Y-100.258
X92.595Y-103.238
X92.656Y-74.676
X93.056Y-78.926
X93.175Y-83.568
X94.066Y-118.336
X94.516Y-108.066
X95.075Y-109.218
X95.235Y-87.918
X95.245Y-110.518
X95.515Y-95.628
X95.786Y-77.286
X95.926Y-66.326
X96.08Y-115.033
X96.175Y-118.438
X96.53Y-116.258
X96.655Y-102.368
X96.675Y-100.988
X96.725Y-96.508
X96.725Y-99.558
X96.745Y-98.078
X96.755Y-93.268
X96.761Y-126.102
X96.765Y-94.848
X97.475Y-118.538
X97.556Y-76.436
X97.605Y-116.733
X97.685Y-106.788
X98.056Y-66.296
X98.245Y-105.598
X98.386Y-71.536
X98.396Y-67.856
X98.506Y-128.336
X98.615Y-118.598
X98.845Y-104.548
X98.885Y-98.868
X98.985Y-89.818
X99.081Y-124.717
X99.435Y-114.788
X99.695Y-118.648
X99.736Y-77.246
X99.885Y-102.858
X99.975Y-90.968
X99.981Y-122.022
X99.995Y-93.798
X100.275Y-113.008
X100.675Y-101.758
X100.855Y-115.718
X100.885Y-114.608
X101.025Y-94.718
X101.165Y-105.658
X101.295Y-83.248
X101.585Y-102.578
X101.805Y-80.058
X101.865Y-92.828
X101.895Y-95.578
X101.905Y-100.608
X102.052Y-121.074
X102.055Y-112.133
X102.225Y-106.487
X102.395Y-101.888
X102.435Y-103.378
X102.695Y-116.598
X102.895Y-118.43
X102.895Y-119.725
X103.275Y-104.018
X103.355Y-102.528
X103.605Y-88.068
X103.657Y-78.654
X103.775Y-86.658
X104.375Y-111.308
X104.785Y-95.428
X104.785Y-102.928
X104.845Y-100.878
X105.105Y-110.633
X105.241Y-111.948
X105.715Y-101.498
X105.735Y-98.838
X105.916Y-125.407
X106.305Y-111.183
X106.48Y-107.483
X106.578Y-86.807
X106.625Y-98.138
X106.628Y-81.651
X106.725Y-100.718
X106.856Y-124.332
X107.06Y-83.327
X107.565Y-99.838
X108.625Y-98.578
X108.735Y-90.128
X108.885Y-91.648
X109.016Y-67.266
X109.056Y-63.546
X109.076Y-74.276
X109.088Y-71.144
X109.105Y-111.958
X109.626Y-92.547
X110.136Y-120.742
X110.495Y-98.608
X110.53Y-111.958
X110.565Y-93.148
X110.905Y-109.008
X111.055Y-110.658
X111.275Y-104.078
X111.334Y-121.053
X111.346Y-118.816
X111.632Y-92.598
X111.893Y-126.387
X112.445Y-88.534
X112.47Y-93.589
X112.556Y-106.836
X113.283Y-105.12
X113.385Y-100.718
X113.475Y-102.228
X113.485Y-97.768
X113.555Y-96.188
X114.03Y-106.983
X116.407Y-80.965
X116.938Y-82.992
X116.948Y-85.104
X116.948Y-86.629
X116.973Y-88.179
X116.973Y-89.654
X116.998Y-91.204
X117.046Y-95.341
X117.046Y-96.866
X117.046Y-98.441
X117.046Y-99.916
X117.096Y-101.516
X117.096Y-102.991
X117.096Y-104.566
X117.096Y-106.116
X117.121Y-107.616
X117.146Y-109.166
X117.146Y-110.666
X117.146Y-112.191
X117.171Y-113.716
X117.931Y-80.965
X118.084Y-82.997
X119.024Y-80.94
X119.201Y-82.972
X120.243Y-80.914
X120.319Y-82.972
X121.226Y-78.176
X121.259Y-75.836
X121.266Y-77.046
X121.284Y-79.238
X121.349Y-80.914
X121.36Y-82.972
X121.403Y-91.219
X121.411Y-93.995
X121.412Y-92.673
X121.416Y-95.346
X121.416Y-112.226
X121.423Y-85.109
X121.423Y-88.159
X121.426Y-104.566
X121.426Y-113.746
X121.433Y-86.629
X121.433Y-89.679
X121.436Y-99.926
X121.436Y-109.176
X121.436Y-110.706
X121.437Y-115.103
X121.446Y-101.486
X121.446Y-106.136
X121.447Y-116.223
X121.456Y-103.026
X121.456Y-107.656
X121.466Y-96.866
X121.466Y-98.406
X124.2Y-81.75
X124.21Y-80.63
X124.21Y-82.9
X124.22Y-84.06
X124.227Y-86.338
X124.245Y-85.223
X124.25Y-87.488
X124.275Y-88.673
X124.297Y-73.531
X124.3Y-102.04
X124.301Y-118.324
X124.305Y-89.753
X124.307Y-71.881
X124.31Y-97.45
X124.31Y-98.96
X124.31Y-111.26
X124.32Y-106.62
X124.32Y-115.87
X124.327Y-75.211
X124.33Y-91.34
X124.33Y-94.39
X124.33Y-108.18
X124.33Y-112.83
X124.335Y-100.485
X124.34Y-92.86
X124.34Y-95.91
X124.34Y-109.72
X124.34Y-114.35
X124.35Y-103.56
X124.35Y-105.1
X124.35Y-121.63
X124.36Y-122.75
X124.4Y-77.0
X127.517Y-90.421
X128.842Y-85.471
X130.092Y-94.671
X130.097Y-118.601
X130.527Y-106.851
X130.592Y-83.785
X131.054Y-121.559
X131.092Y-71.201
X131.212Y-80.883
X131.952Y-108.991
X131.962Y-115.361
X132.122Y-97.063
X132.465Y-77.994
X132.51Y-105.261
X132.719Y-93.391
X133.092Y-80.803
X133.237Y-90.461
X133.282Y-109.201
X133.452Y-97.273
X134.227Y-121.571
X134.232Y-112.441
X134.312Y-113.731
X134.37Y-80.867
X134.402Y-100.513
X134.482Y-101.803
X135.72Y-83.617
X136.402Y-114.621
X136.572Y-102.693
X137.492Y-83.596
X138.134Y-80.837
X138.272Y-111.461
X138.272Y-112.561
X138.347Y-106.141
X138.442Y-71.201
X138.442Y-99.533
X138.442Y-100.633
X138.557Y-94.701
X138.877Y-114.09
X139.047Y-102.161
X139.367Y-77.971
X139.767Y-108.93
X139.937Y-97.001
X140.014Y-80.757
X140.292Y-88.646
X140.532Y-111.581
X140.702Y-99.653
X141.292Y-80.821
X141.517Y-88.646
X142.367Y-100.546
X142.367Y-102.996
X142.367Y-112.871
X142.367Y-114.471
X142.617Y-82.096
X143.017Y-88.721
X143.142Y-103.921
X143.142Y-105.346
X143.142Y-115.146
X143.592Y-84.371
X143.817Y-94.821
X144.042Y-104.621
X144.042Y-105.971
X144.042Y-115.671
X144.327Y-80.624
X145.317Y-82.075
X145.847Y-108.941
X145.857Y-115.311
X145.987Y-97.091
X146.117Y-86.996
X146.117Y-88.871
X146.419Y-105.271
X146.689Y-93.471
X147.117Y-82.121
X147.137Y-121.571
X147.177Y-109.151
X147.317Y-97.301
X148.077Y-90.498
X148.127Y-112.391
X148.207Y-113.681
X148.267Y-100.541
X148.347Y-101.831
X148.757Y-80.571
X149.777Y-82.071
X150.297Y-114.571
X150.437Y-102.721
X151.567Y-82.071
X152.167Y-111.411
X152.167Y-112.511
X152.257Y-106.061
X152.307Y-99.561
X152.307Y-100.661
X152.547Y-94.181
X152.772Y-114.04
X152.912Y-102.19
X153.237Y-80.541
X153.662Y-108.88
X153.802Y-97.03
X154.237Y-82.031
X154.427Y-111.531
X154.567Y-99.681
X156.617Y-82.146
X157.025Y-107.139
X157.127Y-110.879
X157.358Y-97.317
X158.041Y-112.803
X158.271Y-80.23
X158.517Y-99.111
X158.982Y-109.074
X159.01Y-101.86
X159.058Y-103.029
X159.327Y-82.051
X159.327Y-94.551
X159.967Y-105.891
X160.267Y-90.506
X160.692Y-113.108
X160.817Y-99.769
X160.911Y-110.873
X160.962Y-106.936
X161.851Y-103.304
X162.077Y-98.191
X162.088Y-93.649
X162.423Y-82.442
X162.611Y-99.732
X163.558Y-94.629
X163.667Y-116.741
X163.806Y-111.025
X164.645Y-107.571
X164.757Y-97.329
X164.938Y-93.609
X164.963Y-78.53
X165.141Y-82.075
X165.356Y-109.328
X165.407Y-98.503
X166.817Y-87.846
X167.783Y-82.416
X168.297Y-97.227
X168.417Y-86.996
X168.442Y-88.821
X168.978Y-112.719
X169.457Y-98.991
X169.587Y-93.751
X169.919Y-108.989
X169.947Y-101.775
X169.994Y-102.944
X170.297Y-78.479
X170.541Y-82.065
X170.817Y-105.811
X171.167Y-90.514
X171.592Y-113.023
X171.848Y-110.788
X171.899Y-106.851
X172.267Y-99.971
X172.697Y-97.731
X172.788Y-103.219
X172.939Y-82.467
X173.024Y-93.564
X173.548Y-99.647
X174.227Y-116.761
X174.494Y-94.544
X174.717Y-86.996
X174.717Y-89.146
X174.743Y-110.941
X175.377Y-78.555
X175.582Y-107.486
X175.617Y-87.846
X175.617Y-89.671
X175.631Y-82.145
X175.695Y-97.244
X175.874Y-93.524
X176.293Y-109.243
X176.344Y-98.418
X177.994Y-82.442
X179.767Y-97.257
X180.432Y-112.723
X180.508Y-78.53
X180.706Y-82.052
X180.897Y-99.021
X181.374Y-108.993
X181.401Y-101.78
X181.449Y-102.948
X182.347Y-105.811
X182.392Y-90.522
X182.457Y-94.121
X182.921Y-82.442
X183.067Y-113.028
X183.209Y-99.688
X183.302Y-110.792
X183.353Y-106.855
X184.127Y-97.911
X184.192Y-86.996
X184.192Y-88.696
X184.242Y-103.223
X184.479Y-93.568
X184.587Y-117.041
X185.003Y-99.651
X185.537Y-78.505
X185.782Y-82.092
X185.949Y-94.548
X185.967Y-87.846
X186.198Y-110.945
X187.036Y-107.49
X187.149Y-97.248
X187.329Y-93.528
X187.747Y-109.247
X187.798Y-98.423
X189.217Y-89.171
X189.237Y-101.641
X190.167Y-93.946
X190.617Y-109.221
X191.242Y-88.746
X191.242Y-95.771
X191.267Y-86.996
X191.377Y-120.721
X192.417Y-119.996
X192.492Y-122.971
X192.984Y-110.049
X194.544Y-109.929
X194.567Y-116.646
X195.037Y-106.061
X195.667Y-92.196
X196.067Y-90.546
X196.617Y-97.846
X196.692Y-117.571
X196.704Y-91.584
X196.784Y-112.647
X196.794Y-110.127
X197.247Y-107.481
X198.177Y-110.128
X198.259Y-91.455
X198.323Y-82.0
X198.492Y-116.646
X198.667Y-93.347
X198.844Y-90.157
X199.697Y-109.998
X200.027Y-87.561
X200.207Y-106.091
X200.584Y-95.387
X200.717Y-83.521
X201.237Y-114.431
X201.557Y-82.681
X201.717Y-117.571
X201.894Y-95.397
X201.918Y-112.722
X201.938Y-110.142
X202.06Y-81.761
X202.327Y-107.511
X202.844Y-95.971
X203.095Y-109.702
X204.487Y-104.681
X204.499Y-107.971
X204.57Y-109.542
X204.667Y-116.646
X205.015Y-106.942
X205.484Y-96.597
X206.175Y-112.412
X206.592Y-117.571
X206.696Y-96.564
X207.317Y-114.441
X207.991Y-93.389
X208.065Y-112.119
X208.257Y-109.651
X209.097Y-104.451
X209.542Y-116.646
X209.668Y-91.967
X209.683Y-107.96
X209.765Y-109.556
X209.866Y-82.025
X210.176Y-97.479
X210.275Y-106.927
X210.457Y-92.621
X210.887Y-96.615
X211.167Y-112.384
X211.227Y-102.411
X211.627Y-90.619
X211.742Y-117.571
X211.889Y-100.201
X212.378Y-105.868
X212.507Y-104.841
X212.627Y-91.394
X212.842Y-98.471
X213.197Y-82.891
X213.327Y-112.324
X213.35Y-109.566
X213.4Y-81.651
X213.857Y-104.005
X214.216Y-105.746
X215.277Y-88.494
X215.919Y-109.62
X216.042Y-116.646
X216.151Y-86.961
X216.997Y-100.181
X217.161Y-97.479
X217.542Y-109.603
X217.846Y-96.564
X218.092Y-105.563
X218.192Y-117.571
X218.207Y-91.244
X218.552Y-110.063
X218.817Y-92.496
X219.307Y-102.321
X219.912Y-100.161
X220.585Y-105.746
X220.717Y-104.451
X221.292Y-98.471
X221.512Y-112.349
X221.517Y-109.631
X222.134Y-103.929
X222.355Y-105.644
X222.717Y-116.646
X222.857Y-100.901
X222.967Y-98.471
X224.279Y-84.434
X224.461Y-109.552
X224.754Y-86.284
X225.042Y-117.571
X225.575Y-109.576
X226.355Y-105.536
X226.647Y-118.811
X226.695Y-109.986
X227.107Y-98.471
X228.167Y-100.096
X228.942Y-99.321
X228.957Y-102.771
X229.547Y-101.671
X229.637Y-82.391
X229.907Y-79.821
X230.087Y-113.541
X230.137Y-77.151
X230.177Y-110.861
X230.227Y-91.601
X230.262Y-117.281
X230.316Y-102.54
X230.381Y-83.275
X231.001Y-114.054
X231.009Y-94.802
X231.242Y-91.646
X231.407Y-86.571
X231.567Y-105.746
X231.998Y-99.733
X232.006Y-80.481
X232.417Y-82.191
X232.587Y-101.461
X232.659Y-98.844
X232.667Y-79.592
X232.742Y-114.971
X233.242Y-95.821
X233.763Y-98.795
X233.771Y-79.543
X233.787Y-114.104
X233.795Y-94.853
X233.957Y-122.071
X234.195Y-124.496
X234.881Y-109.629
X234.889Y-90.378
X235.314Y-77.151
X235.319Y-111.133
X235.327Y-91.881
X235.417Y-117.231
X236.188Y-103.191
X236.196Y-83.939
T3
X41.166Y-84.666
X41.166Y-86.706
X41.166Y-88.746
X41.166Y-90.786
X42.946Y-83.646
X42.946Y-85.686
X42.946Y-87.726
X42.946Y-89.766
T5
X129.686Y-69.404
X129.686Y-74.484
X132.226Y-69.404
X132.226Y-74.484
X133.14Y-119.086
X133.14Y-124.166
X134.766Y-69.404
X134.766Y-74.484
X135.68Y-119.086
X135.68Y-124.166
X137.306Y-69.404
X137.306Y-74.484
X138.22Y-119.086
X138.22Y-124.166
X139.846Y-69.404
X139.846Y-74.484
X140.76Y-119.086
X140.76Y-124.166
X142.386Y-69.404
X142.386Y-74.484
X143.3Y-119.086
X143.3Y-124.166
X144.926Y-69.404
X144.926Y-74.484
X145.84Y-119.086
X145.84Y-124.166
X147.466Y-69.404
X147.466Y-74.484
X148.38Y-119.086
X148.38Y-124.166
X150.006Y-69.404
X150.006Y-74.484
X150.92Y-119.086
X150.92Y-124.166
X152.546Y-69.404
X152.546Y-74.484
X153.46Y-119.086
X153.46Y-124.166
X155.086Y-69.404
X155.086Y-74.484
X156.0Y-119.086
X156.0Y-124.166
X157.626Y-69.404
X157.626Y-74.484
X158.54Y-119.086
X158.54Y-124.166
X161.08Y-119.086
X161.08Y-124.166
X163.287Y-69.411
X163.287Y-74.491
X165.827Y-69.411
X165.827Y-74.491
X166.827Y-119.091
X166.827Y-124.171
X168.367Y-69.411
X168.367Y-74.491
X169.367Y-119.091
X169.367Y-124.171
X170.907Y-69.411
X170.907Y-74.491
X171.907Y-119.091
X171.907Y-124.171
X173.447Y-69.411
X173.447Y-74.491
X174.447Y-119.091
X174.447Y-124.171
X175.987Y-69.411
X175.987Y-74.491
X176.987Y-119.091
X176.987Y-124.171
X178.527Y-69.411
X178.527Y-74.491
X179.527Y-119.091
X179.527Y-124.171
X181.067Y-69.411
X181.067Y-74.491
X182.067Y-119.091
X182.067Y-124.171
X183.607Y-69.411
X183.607Y-74.491
X184.607Y-119.091
X184.607Y-124.171
X186.147Y-69.411
X186.147Y-74.491
X187.147Y-119.091
X187.147Y-124.171
X189.687Y-119.091
X189.687Y-124.171
X191.807Y-69.401
X191.807Y-74.481
X194.347Y-69.401
X194.347Y-74.481
X195.425Y-119.088
X195.425Y-124.168
X196.887Y-69.401
X196.887Y-74.481
X197.965Y-119.088
X197.965Y-124.168
X199.427Y-69.401
X199.427Y-74.481
X200.505Y-119.088
X200.505Y-124.168
X201.967Y-69.401
X201.967Y-74.481
X203.045Y-119.088
X203.045Y-124.168
X204.507Y-69.401
X204.507Y-74.481
X205.585Y-119.088
X205.585Y-124.168
X207.047Y-69.401
X207.047Y-74.481
X208.125Y-119.088
X208.125Y-124.168
X209.587Y-69.401
X209.587Y-74.481
X210.665Y-119.088
X210.665Y-124.168
X212.127Y-69.401
X212.127Y-74.481
X213.205Y-119.088
X213.205Y-124.168
X214.667Y-69.401
X214.667Y-74.481
X215.745Y-119.088
X215.745Y-124.168
X217.207Y-69.401
X217.207Y-74.481
X218.285Y-119.088
X218.285Y-124.168
X219.747Y-69.401
X219.747Y-74.481
X220.825Y-119.088
X220.825Y-124.168
X223.365Y-119.088
X223.365Y-124.168
T6
X242.609Y-102.793
X242.609Y-110.693
X242.617Y-83.541
X242.617Y-91.441
T7
X42.056Y-79.166
X42.056Y-95.266
T4
G00X41.136Y-102.979
M15
G01X41.136Y-104.979
M16
G05
G00X43.136Y-108.679
M15
G01X45.136Y-108.679
M16
G05
G00X47.136Y-102.979
M15
G01X47.136Y-104.979
M16
G05
M30
