%TF.GenerationSoftware,KiCad,Pcbnew,8.0.9-8.0.9-0~ubuntu24.04.1*%
%TF.CreationDate,2025-10-26T13:13:23-04:00*%
%TF.ProjectId,analog_i,616e616c-6f67-45f6-992e-6b696361645f,rev?*%
%TF.SameCoordinates,Original*%
%TF.FileFunction,Drillmap*%
%TF.FilePolarity,Positive*%
%FSLAX45Y45*%
G04 Gerber Fmt 4.5, Leading zero omitted, Abs format (unit mm)*
G04 Created by KiCad (PCBNEW 8.0.9-8.0.9-0~ubuntu24.04.1) date 2025-10-26 13:13:23*
%MOMM*%
%LPD*%
G01*
G04 APERTURE LIST*
%ADD10C,0.100000*%
%ADD11C,0.050000*%
%ADD12C,0.200000*%
%ADD13C,0.270000*%
%ADD14C,0.325000*%
%ADD15C,0.500000*%
G04 APERTURE END LIST*
D10*
X25377000Y-4900000D02*
G75*
G02*
X25577000Y-5100000I0J-200000D01*
G01*
X3675000Y-5100000D02*
G75*
G02*
X3875000Y-4900000I200000J0D01*
G01*
D11*
X3875000Y-4900000D02*
X25375000Y-4900000D01*
D10*
X25575000Y-14200000D02*
G75*
G02*
X25375000Y-14400000I-200000J0D01*
G01*
D11*
X3875000Y-14400000D02*
X25375000Y-14400000D01*
X25577500Y-5100000D02*
X25575000Y-14200000D01*
X3675000Y-5100000D02*
X3675000Y-14200000D01*
D10*
X3875000Y-14400000D02*
G75*
G02*
X3675000Y-14200000I0J200000D01*
G01*
D12*
D13*
X25150885Y-10539325D02*
X25420885Y-10809325D01*
X25420885Y-10539325D02*
X25150885Y-10809325D01*
X25151700Y-8614140D02*
X25421700Y-8884140D01*
X25421700Y-8614140D02*
X25151700Y-8884140D01*
D14*
X4025127Y-8091630D02*
G75*
G02*
X3700127Y-8091630I-162500J0D01*
G01*
X3700127Y-8091630D02*
G75*
G02*
X4025127Y-8091630I162500J0D01*
G01*
X4025127Y-9351630D02*
G75*
G02*
X3700127Y-9351630I-162500J0D01*
G01*
X3700127Y-9351630D02*
G75*
G02*
X4025127Y-9351630I162500J0D01*
G01*
D15*
X4069000Y-6894000D02*
X4069000Y-7394000D01*
X3819000Y-7144000D02*
X4319000Y-7144000D01*
X4071540Y-11994320D02*
X4071540Y-12494320D01*
X3821540Y-12244320D02*
X4321540Y-12244320D01*
X25173700Y-6894140D02*
X25173700Y-7394140D01*
X24923700Y-7144140D02*
X25423700Y-7144140D01*
X25173700Y-11999540D02*
X25173700Y-12499540D01*
X24923700Y-12249540D02*
X25423700Y-12249540D01*
D12*
X3930777Y-14716484D02*
X3930777Y-14516484D01*
X3930777Y-14516484D02*
X3978396Y-14516484D01*
X3978396Y-14516484D02*
X4006967Y-14526008D01*
X4006967Y-14526008D02*
X4026015Y-14545055D01*
X4026015Y-14545055D02*
X4035539Y-14564103D01*
X4035539Y-14564103D02*
X4045062Y-14602198D01*
X4045062Y-14602198D02*
X4045062Y-14630769D01*
X4045062Y-14630769D02*
X4035539Y-14668865D01*
X4035539Y-14668865D02*
X4026015Y-14687912D01*
X4026015Y-14687912D02*
X4006967Y-14706960D01*
X4006967Y-14706960D02*
X3978396Y-14716484D01*
X3978396Y-14716484D02*
X3930777Y-14716484D01*
X4130777Y-14716484D02*
X4130777Y-14583150D01*
X4130777Y-14621246D02*
X4140301Y-14602198D01*
X4140301Y-14602198D02*
X4149824Y-14592674D01*
X4149824Y-14592674D02*
X4168872Y-14583150D01*
X4168872Y-14583150D02*
X4187920Y-14583150D01*
X4254586Y-14716484D02*
X4254586Y-14583150D01*
X4254586Y-14516484D02*
X4245063Y-14526008D01*
X4245063Y-14526008D02*
X4254586Y-14535531D01*
X4254586Y-14535531D02*
X4264110Y-14526008D01*
X4264110Y-14526008D02*
X4254586Y-14516484D01*
X4254586Y-14516484D02*
X4254586Y-14535531D01*
X4378396Y-14716484D02*
X4359348Y-14706960D01*
X4359348Y-14706960D02*
X4349824Y-14687912D01*
X4349824Y-14687912D02*
X4349824Y-14516484D01*
X4483158Y-14716484D02*
X4464110Y-14706960D01*
X4464110Y-14706960D02*
X4454586Y-14687912D01*
X4454586Y-14687912D02*
X4454586Y-14516484D01*
X4711729Y-14716484D02*
X4711729Y-14516484D01*
X4711729Y-14516484D02*
X4778396Y-14659341D01*
X4778396Y-14659341D02*
X4845063Y-14516484D01*
X4845063Y-14516484D02*
X4845063Y-14716484D01*
X5026015Y-14716484D02*
X5026015Y-14611722D01*
X5026015Y-14611722D02*
X5016491Y-14592674D01*
X5016491Y-14592674D02*
X4997444Y-14583150D01*
X4997444Y-14583150D02*
X4959348Y-14583150D01*
X4959348Y-14583150D02*
X4940301Y-14592674D01*
X5026015Y-14706960D02*
X5006967Y-14716484D01*
X5006967Y-14716484D02*
X4959348Y-14716484D01*
X4959348Y-14716484D02*
X4940301Y-14706960D01*
X4940301Y-14706960D02*
X4930777Y-14687912D01*
X4930777Y-14687912D02*
X4930777Y-14668865D01*
X4930777Y-14668865D02*
X4940301Y-14649817D01*
X4940301Y-14649817D02*
X4959348Y-14640293D01*
X4959348Y-14640293D02*
X5006967Y-14640293D01*
X5006967Y-14640293D02*
X5026015Y-14630769D01*
X5121253Y-14583150D02*
X5121253Y-14783150D01*
X5121253Y-14592674D02*
X5140301Y-14583150D01*
X5140301Y-14583150D02*
X5178396Y-14583150D01*
X5178396Y-14583150D02*
X5197444Y-14592674D01*
X5197444Y-14592674D02*
X5206967Y-14602198D01*
X5206967Y-14602198D02*
X5216491Y-14621246D01*
X5216491Y-14621246D02*
X5216491Y-14678388D01*
X5216491Y-14678388D02*
X5206967Y-14697436D01*
X5206967Y-14697436D02*
X5197444Y-14706960D01*
X5197444Y-14706960D02*
X5178396Y-14716484D01*
X5178396Y-14716484D02*
X5140301Y-14716484D01*
X5140301Y-14716484D02*
X5121253Y-14706960D01*
X5302205Y-14697436D02*
X5311729Y-14706960D01*
X5311729Y-14706960D02*
X5302205Y-14716484D01*
X5302205Y-14716484D02*
X5292682Y-14706960D01*
X5292682Y-14706960D02*
X5302205Y-14697436D01*
X5302205Y-14697436D02*
X5302205Y-14716484D01*
X5302205Y-14592674D02*
X5311729Y-14602198D01*
X5311729Y-14602198D02*
X5302205Y-14611722D01*
X5302205Y-14611722D02*
X5292682Y-14602198D01*
X5292682Y-14602198D02*
X5302205Y-14592674D01*
X5302205Y-14592674D02*
X5302205Y-14611722D01*
X3470000Y-14945000D02*
X3670000Y-15145000D01*
X3670000Y-14945000D02*
X3470000Y-15145000D01*
X3921253Y-14955531D02*
X3930777Y-14946008D01*
X3930777Y-14946008D02*
X3949824Y-14936484D01*
X3949824Y-14936484D02*
X3997443Y-14936484D01*
X3997443Y-14936484D02*
X4016491Y-14946008D01*
X4016491Y-14946008D02*
X4026015Y-14955531D01*
X4026015Y-14955531D02*
X4035539Y-14974579D01*
X4035539Y-14974579D02*
X4035539Y-14993627D01*
X4035539Y-14993627D02*
X4026015Y-15022198D01*
X4026015Y-15022198D02*
X3911729Y-15136484D01*
X3911729Y-15136484D02*
X4035539Y-15136484D01*
X4121253Y-15117436D02*
X4130777Y-15126960D01*
X4130777Y-15126960D02*
X4121253Y-15136484D01*
X4121253Y-15136484D02*
X4111729Y-15126960D01*
X4111729Y-15126960D02*
X4121253Y-15117436D01*
X4121253Y-15117436D02*
X4121253Y-15136484D01*
X4197444Y-14936484D02*
X4330777Y-14936484D01*
X4330777Y-14936484D02*
X4245063Y-15136484D01*
X4445063Y-14936484D02*
X4464110Y-14936484D01*
X4464110Y-14936484D02*
X4483158Y-14946008D01*
X4483158Y-14946008D02*
X4492682Y-14955531D01*
X4492682Y-14955531D02*
X4502205Y-14974579D01*
X4502205Y-14974579D02*
X4511729Y-15012674D01*
X4511729Y-15012674D02*
X4511729Y-15060293D01*
X4511729Y-15060293D02*
X4502205Y-15098388D01*
X4502205Y-15098388D02*
X4492682Y-15117436D01*
X4492682Y-15117436D02*
X4483158Y-15126960D01*
X4483158Y-15126960D02*
X4464110Y-15136484D01*
X4464110Y-15136484D02*
X4445063Y-15136484D01*
X4445063Y-15136484D02*
X4426015Y-15126960D01*
X4426015Y-15126960D02*
X4416491Y-15117436D01*
X4416491Y-15117436D02*
X4406967Y-15098388D01*
X4406967Y-15098388D02*
X4397444Y-15060293D01*
X4397444Y-15060293D02*
X4397444Y-15012674D01*
X4397444Y-15012674D02*
X4406967Y-14974579D01*
X4406967Y-14974579D02*
X4416491Y-14955531D01*
X4416491Y-14955531D02*
X4426015Y-14946008D01*
X4426015Y-14946008D02*
X4445063Y-14936484D01*
X4635539Y-14936484D02*
X4654586Y-14936484D01*
X4654586Y-14936484D02*
X4673634Y-14946008D01*
X4673634Y-14946008D02*
X4683158Y-14955531D01*
X4683158Y-14955531D02*
X4692682Y-14974579D01*
X4692682Y-14974579D02*
X4702205Y-15012674D01*
X4702205Y-15012674D02*
X4702205Y-15060293D01*
X4702205Y-15060293D02*
X4692682Y-15098388D01*
X4692682Y-15098388D02*
X4683158Y-15117436D01*
X4683158Y-15117436D02*
X4673634Y-15126960D01*
X4673634Y-15126960D02*
X4654586Y-15136484D01*
X4654586Y-15136484D02*
X4635539Y-15136484D01*
X4635539Y-15136484D02*
X4616491Y-15126960D01*
X4616491Y-15126960D02*
X4606967Y-15117436D01*
X4606967Y-15117436D02*
X4597444Y-15098388D01*
X4597444Y-15098388D02*
X4587920Y-15060293D01*
X4587920Y-15060293D02*
X4587920Y-15012674D01*
X4587920Y-15012674D02*
X4597444Y-14974579D01*
X4597444Y-14974579D02*
X4606967Y-14955531D01*
X4606967Y-14955531D02*
X4616491Y-14946008D01*
X4616491Y-14946008D02*
X4635539Y-14936484D01*
X4787920Y-15136484D02*
X4787920Y-15003150D01*
X4787920Y-15022198D02*
X4797444Y-15012674D01*
X4797444Y-15012674D02*
X4816491Y-15003150D01*
X4816491Y-15003150D02*
X4845063Y-15003150D01*
X4845063Y-15003150D02*
X4864110Y-15012674D01*
X4864110Y-15012674D02*
X4873634Y-15031722D01*
X4873634Y-15031722D02*
X4873634Y-15136484D01*
X4873634Y-15031722D02*
X4883158Y-15012674D01*
X4883158Y-15012674D02*
X4902205Y-15003150D01*
X4902205Y-15003150D02*
X4930777Y-15003150D01*
X4930777Y-15003150D02*
X4949825Y-15012674D01*
X4949825Y-15012674D02*
X4959348Y-15031722D01*
X4959348Y-15031722D02*
X4959348Y-15136484D01*
X5054586Y-15136484D02*
X5054586Y-15003150D01*
X5054586Y-15022198D02*
X5064110Y-15012674D01*
X5064110Y-15012674D02*
X5083158Y-15003150D01*
X5083158Y-15003150D02*
X5111729Y-15003150D01*
X5111729Y-15003150D02*
X5130777Y-15012674D01*
X5130777Y-15012674D02*
X5140301Y-15031722D01*
X5140301Y-15031722D02*
X5140301Y-15136484D01*
X5140301Y-15031722D02*
X5149825Y-15012674D01*
X5149825Y-15012674D02*
X5168872Y-15003150D01*
X5168872Y-15003150D02*
X5197444Y-15003150D01*
X5197444Y-15003150D02*
X5216491Y-15012674D01*
X5216491Y-15012674D02*
X5226015Y-15031722D01*
X5226015Y-15031722D02*
X5226015Y-15136484D01*
X5616491Y-14926960D02*
X5445063Y-15184103D01*
X5873634Y-14936484D02*
X5892682Y-14936484D01*
X5892682Y-14936484D02*
X5911729Y-14946008D01*
X5911729Y-14946008D02*
X5921253Y-14955531D01*
X5921253Y-14955531D02*
X5930777Y-14974579D01*
X5930777Y-14974579D02*
X5940301Y-15012674D01*
X5940301Y-15012674D02*
X5940301Y-15060293D01*
X5940301Y-15060293D02*
X5930777Y-15098388D01*
X5930777Y-15098388D02*
X5921253Y-15117436D01*
X5921253Y-15117436D02*
X5911729Y-15126960D01*
X5911729Y-15126960D02*
X5892682Y-15136484D01*
X5892682Y-15136484D02*
X5873634Y-15136484D01*
X5873634Y-15136484D02*
X5854586Y-15126960D01*
X5854586Y-15126960D02*
X5845063Y-15117436D01*
X5845063Y-15117436D02*
X5835539Y-15098388D01*
X5835539Y-15098388D02*
X5826015Y-15060293D01*
X5826015Y-15060293D02*
X5826015Y-15012674D01*
X5826015Y-15012674D02*
X5835539Y-14974579D01*
X5835539Y-14974579D02*
X5845063Y-14955531D01*
X5845063Y-14955531D02*
X5854586Y-14946008D01*
X5854586Y-14946008D02*
X5873634Y-14936484D01*
X6026015Y-15117436D02*
X6035539Y-15126960D01*
X6035539Y-15126960D02*
X6026015Y-15136484D01*
X6026015Y-15136484D02*
X6016491Y-15126960D01*
X6016491Y-15126960D02*
X6026015Y-15117436D01*
X6026015Y-15117436D02*
X6026015Y-15136484D01*
X6226015Y-15136484D02*
X6111729Y-15136484D01*
X6168872Y-15136484D02*
X6168872Y-14936484D01*
X6168872Y-14936484D02*
X6149825Y-14965055D01*
X6149825Y-14965055D02*
X6130777Y-14984103D01*
X6130777Y-14984103D02*
X6111729Y-14993627D01*
X6349825Y-14936484D02*
X6368872Y-14936484D01*
X6368872Y-14936484D02*
X6387920Y-14946008D01*
X6387920Y-14946008D02*
X6397444Y-14955531D01*
X6397444Y-14955531D02*
X6406967Y-14974579D01*
X6406967Y-14974579D02*
X6416491Y-15012674D01*
X6416491Y-15012674D02*
X6416491Y-15060293D01*
X6416491Y-15060293D02*
X6406967Y-15098388D01*
X6406967Y-15098388D02*
X6397444Y-15117436D01*
X6397444Y-15117436D02*
X6387920Y-15126960D01*
X6387920Y-15126960D02*
X6368872Y-15136484D01*
X6368872Y-15136484D02*
X6349825Y-15136484D01*
X6349825Y-15136484D02*
X6330777Y-15126960D01*
X6330777Y-15126960D02*
X6321253Y-15117436D01*
X6321253Y-15117436D02*
X6311729Y-15098388D01*
X6311729Y-15098388D02*
X6302206Y-15060293D01*
X6302206Y-15060293D02*
X6302206Y-15012674D01*
X6302206Y-15012674D02*
X6311729Y-14974579D01*
X6311729Y-14974579D02*
X6321253Y-14955531D01*
X6321253Y-14955531D02*
X6330777Y-14946008D01*
X6330777Y-14946008D02*
X6349825Y-14936484D01*
X6587920Y-14936484D02*
X6549825Y-14936484D01*
X6549825Y-14936484D02*
X6530777Y-14946008D01*
X6530777Y-14946008D02*
X6521253Y-14955531D01*
X6521253Y-14955531D02*
X6502206Y-14984103D01*
X6502206Y-14984103D02*
X6492682Y-15022198D01*
X6492682Y-15022198D02*
X6492682Y-15098388D01*
X6492682Y-15098388D02*
X6502206Y-15117436D01*
X6502206Y-15117436D02*
X6511729Y-15126960D01*
X6511729Y-15126960D02*
X6530777Y-15136484D01*
X6530777Y-15136484D02*
X6568872Y-15136484D01*
X6568872Y-15136484D02*
X6587920Y-15126960D01*
X6587920Y-15126960D02*
X6597444Y-15117436D01*
X6597444Y-15117436D02*
X6606967Y-15098388D01*
X6606967Y-15098388D02*
X6606967Y-15050769D01*
X6606967Y-15050769D02*
X6597444Y-15031722D01*
X6597444Y-15031722D02*
X6587920Y-15022198D01*
X6587920Y-15022198D02*
X6568872Y-15012674D01*
X6568872Y-15012674D02*
X6530777Y-15012674D01*
X6530777Y-15012674D02*
X6511729Y-15022198D01*
X6511729Y-15022198D02*
X6502206Y-15031722D01*
X6502206Y-15031722D02*
X6492682Y-15050769D01*
X6673634Y-14936484D02*
X6797444Y-14936484D01*
X6797444Y-14936484D02*
X6730777Y-15012674D01*
X6730777Y-15012674D02*
X6759348Y-15012674D01*
X6759348Y-15012674D02*
X6778396Y-15022198D01*
X6778396Y-15022198D02*
X6787920Y-15031722D01*
X6787920Y-15031722D02*
X6797444Y-15050769D01*
X6797444Y-15050769D02*
X6797444Y-15098388D01*
X6797444Y-15098388D02*
X6787920Y-15117436D01*
X6787920Y-15117436D02*
X6778396Y-15126960D01*
X6778396Y-15126960D02*
X6759348Y-15136484D01*
X6759348Y-15136484D02*
X6702206Y-15136484D01*
X6702206Y-15136484D02*
X6683158Y-15126960D01*
X6683158Y-15126960D02*
X6673634Y-15117436D01*
X6873634Y-14936484D02*
X6873634Y-14974579D01*
X6949825Y-14936484D02*
X6949825Y-14974579D01*
X7245063Y-15212674D02*
X7235539Y-15203150D01*
X7235539Y-15203150D02*
X7216491Y-15174579D01*
X7216491Y-15174579D02*
X7206968Y-15155531D01*
X7206968Y-15155531D02*
X7197444Y-15126960D01*
X7197444Y-15126960D02*
X7187920Y-15079341D01*
X7187920Y-15079341D02*
X7187920Y-15041246D01*
X7187920Y-15041246D02*
X7197444Y-14993627D01*
X7197444Y-14993627D02*
X7206968Y-14965055D01*
X7206968Y-14965055D02*
X7216491Y-14946008D01*
X7216491Y-14946008D02*
X7235539Y-14917436D01*
X7235539Y-14917436D02*
X7245063Y-14907912D01*
X7311729Y-14955531D02*
X7321253Y-14946008D01*
X7321253Y-14946008D02*
X7340301Y-14936484D01*
X7340301Y-14936484D02*
X7387920Y-14936484D01*
X7387920Y-14936484D02*
X7406968Y-14946008D01*
X7406968Y-14946008D02*
X7416491Y-14955531D01*
X7416491Y-14955531D02*
X7426015Y-14974579D01*
X7426015Y-14974579D02*
X7426015Y-14993627D01*
X7426015Y-14993627D02*
X7416491Y-15022198D01*
X7416491Y-15022198D02*
X7302206Y-15136484D01*
X7302206Y-15136484D02*
X7426015Y-15136484D01*
X7664110Y-15136484D02*
X7664110Y-14936484D01*
X7749825Y-15136484D02*
X7749825Y-15031722D01*
X7749825Y-15031722D02*
X7740301Y-15012674D01*
X7740301Y-15012674D02*
X7721253Y-15003150D01*
X7721253Y-15003150D02*
X7692682Y-15003150D01*
X7692682Y-15003150D02*
X7673634Y-15012674D01*
X7673634Y-15012674D02*
X7664110Y-15022198D01*
X7873634Y-15136484D02*
X7854587Y-15126960D01*
X7854587Y-15126960D02*
X7845063Y-15117436D01*
X7845063Y-15117436D02*
X7835539Y-15098388D01*
X7835539Y-15098388D02*
X7835539Y-15041246D01*
X7835539Y-15041246D02*
X7845063Y-15022198D01*
X7845063Y-15022198D02*
X7854587Y-15012674D01*
X7854587Y-15012674D02*
X7873634Y-15003150D01*
X7873634Y-15003150D02*
X7902206Y-15003150D01*
X7902206Y-15003150D02*
X7921253Y-15012674D01*
X7921253Y-15012674D02*
X7930777Y-15022198D01*
X7930777Y-15022198D02*
X7940301Y-15041246D01*
X7940301Y-15041246D02*
X7940301Y-15098388D01*
X7940301Y-15098388D02*
X7930777Y-15117436D01*
X7930777Y-15117436D02*
X7921253Y-15126960D01*
X7921253Y-15126960D02*
X7902206Y-15136484D01*
X7902206Y-15136484D02*
X7873634Y-15136484D01*
X8054587Y-15136484D02*
X8035539Y-15126960D01*
X8035539Y-15126960D02*
X8026015Y-15107912D01*
X8026015Y-15107912D02*
X8026015Y-14936484D01*
X8206968Y-15126960D02*
X8187920Y-15136484D01*
X8187920Y-15136484D02*
X8149825Y-15136484D01*
X8149825Y-15136484D02*
X8130777Y-15126960D01*
X8130777Y-15126960D02*
X8121253Y-15107912D01*
X8121253Y-15107912D02*
X8121253Y-15031722D01*
X8121253Y-15031722D02*
X8130777Y-15012674D01*
X8130777Y-15012674D02*
X8149825Y-15003150D01*
X8149825Y-15003150D02*
X8187920Y-15003150D01*
X8187920Y-15003150D02*
X8206968Y-15012674D01*
X8206968Y-15012674D02*
X8216491Y-15031722D01*
X8216491Y-15031722D02*
X8216491Y-15050769D01*
X8216491Y-15050769D02*
X8121253Y-15069817D01*
X8292682Y-15126960D02*
X8311730Y-15136484D01*
X8311730Y-15136484D02*
X8349825Y-15136484D01*
X8349825Y-15136484D02*
X8368872Y-15126960D01*
X8368872Y-15126960D02*
X8378396Y-15107912D01*
X8378396Y-15107912D02*
X8378396Y-15098388D01*
X8378396Y-15098388D02*
X8368872Y-15079341D01*
X8368872Y-15079341D02*
X8349825Y-15069817D01*
X8349825Y-15069817D02*
X8321253Y-15069817D01*
X8321253Y-15069817D02*
X8302206Y-15060293D01*
X8302206Y-15060293D02*
X8292682Y-15041246D01*
X8292682Y-15041246D02*
X8292682Y-15031722D01*
X8292682Y-15031722D02*
X8302206Y-15012674D01*
X8302206Y-15012674D02*
X8321253Y-15003150D01*
X8321253Y-15003150D02*
X8349825Y-15003150D01*
X8349825Y-15003150D02*
X8368872Y-15012674D01*
X8445063Y-15212674D02*
X8454587Y-15203150D01*
X8454587Y-15203150D02*
X8473634Y-15174579D01*
X8473634Y-15174579D02*
X8483158Y-15155531D01*
X8483158Y-15155531D02*
X8492682Y-15126960D01*
X8492682Y-15126960D02*
X8502206Y-15079341D01*
X8502206Y-15079341D02*
X8502206Y-15041246D01*
X8502206Y-15041246D02*
X8492682Y-14993627D01*
X8492682Y-14993627D02*
X8483158Y-14965055D01*
X8483158Y-14965055D02*
X8473634Y-14946008D01*
X8473634Y-14946008D02*
X8454587Y-14917436D01*
X8454587Y-14917436D02*
X8445063Y-14907912D01*
X8806968Y-15212674D02*
X8797444Y-15203150D01*
X8797444Y-15203150D02*
X8778396Y-15174579D01*
X8778396Y-15174579D02*
X8768873Y-15155531D01*
X8768873Y-15155531D02*
X8759349Y-15126960D01*
X8759349Y-15126960D02*
X8749825Y-15079341D01*
X8749825Y-15079341D02*
X8749825Y-15041246D01*
X8749825Y-15041246D02*
X8759349Y-14993627D01*
X8759349Y-14993627D02*
X8768873Y-14965055D01*
X8768873Y-14965055D02*
X8778396Y-14946008D01*
X8778396Y-14946008D02*
X8797444Y-14917436D01*
X8797444Y-14917436D02*
X8806968Y-14907912D01*
X8883158Y-15003150D02*
X8883158Y-15136484D01*
X8883158Y-15022198D02*
X8892682Y-15012674D01*
X8892682Y-15012674D02*
X8911730Y-15003150D01*
X8911730Y-15003150D02*
X8940301Y-15003150D01*
X8940301Y-15003150D02*
X8959349Y-15012674D01*
X8959349Y-15012674D02*
X8968873Y-15031722D01*
X8968873Y-15031722D02*
X8968873Y-15136484D01*
X9092682Y-15136484D02*
X9073634Y-15126960D01*
X9073634Y-15126960D02*
X9064111Y-15117436D01*
X9064111Y-15117436D02*
X9054587Y-15098388D01*
X9054587Y-15098388D02*
X9054587Y-15041246D01*
X9054587Y-15041246D02*
X9064111Y-15022198D01*
X9064111Y-15022198D02*
X9073634Y-15012674D01*
X9073634Y-15012674D02*
X9092682Y-15003150D01*
X9092682Y-15003150D02*
X9121254Y-15003150D01*
X9121254Y-15003150D02*
X9140301Y-15012674D01*
X9140301Y-15012674D02*
X9149825Y-15022198D01*
X9149825Y-15022198D02*
X9159349Y-15041246D01*
X9159349Y-15041246D02*
X9159349Y-15098388D01*
X9159349Y-15098388D02*
X9149825Y-15117436D01*
X9149825Y-15117436D02*
X9140301Y-15126960D01*
X9140301Y-15126960D02*
X9121254Y-15136484D01*
X9121254Y-15136484D02*
X9092682Y-15136484D01*
X9216492Y-15003150D02*
X9292682Y-15003150D01*
X9245063Y-14936484D02*
X9245063Y-15107912D01*
X9245063Y-15107912D02*
X9254587Y-15126960D01*
X9254587Y-15126960D02*
X9273634Y-15136484D01*
X9273634Y-15136484D02*
X9292682Y-15136484D01*
X9511730Y-15003150D02*
X9511730Y-15203150D01*
X9511730Y-15012674D02*
X9530777Y-15003150D01*
X9530777Y-15003150D02*
X9568873Y-15003150D01*
X9568873Y-15003150D02*
X9587920Y-15012674D01*
X9587920Y-15012674D02*
X9597444Y-15022198D01*
X9597444Y-15022198D02*
X9606968Y-15041246D01*
X9606968Y-15041246D02*
X9606968Y-15098388D01*
X9606968Y-15098388D02*
X9597444Y-15117436D01*
X9597444Y-15117436D02*
X9587920Y-15126960D01*
X9587920Y-15126960D02*
X9568873Y-15136484D01*
X9568873Y-15136484D02*
X9530777Y-15136484D01*
X9530777Y-15136484D02*
X9511730Y-15126960D01*
X9721254Y-15136484D02*
X9702206Y-15126960D01*
X9702206Y-15126960D02*
X9692682Y-15107912D01*
X9692682Y-15107912D02*
X9692682Y-14936484D01*
X9883158Y-15136484D02*
X9883158Y-15031722D01*
X9883158Y-15031722D02*
X9873635Y-15012674D01*
X9873635Y-15012674D02*
X9854587Y-15003150D01*
X9854587Y-15003150D02*
X9816492Y-15003150D01*
X9816492Y-15003150D02*
X9797444Y-15012674D01*
X9883158Y-15126960D02*
X9864111Y-15136484D01*
X9864111Y-15136484D02*
X9816492Y-15136484D01*
X9816492Y-15136484D02*
X9797444Y-15126960D01*
X9797444Y-15126960D02*
X9787920Y-15107912D01*
X9787920Y-15107912D02*
X9787920Y-15088865D01*
X9787920Y-15088865D02*
X9797444Y-15069817D01*
X9797444Y-15069817D02*
X9816492Y-15060293D01*
X9816492Y-15060293D02*
X9864111Y-15060293D01*
X9864111Y-15060293D02*
X9883158Y-15050769D01*
X9949825Y-15003150D02*
X10026015Y-15003150D01*
X9978396Y-14936484D02*
X9978396Y-15107912D01*
X9978396Y-15107912D02*
X9987920Y-15126960D01*
X9987920Y-15126960D02*
X10006968Y-15136484D01*
X10006968Y-15136484D02*
X10026015Y-15136484D01*
X10168873Y-15126960D02*
X10149825Y-15136484D01*
X10149825Y-15136484D02*
X10111730Y-15136484D01*
X10111730Y-15136484D02*
X10092682Y-15126960D01*
X10092682Y-15126960D02*
X10083158Y-15107912D01*
X10083158Y-15107912D02*
X10083158Y-15031722D01*
X10083158Y-15031722D02*
X10092682Y-15012674D01*
X10092682Y-15012674D02*
X10111730Y-15003150D01*
X10111730Y-15003150D02*
X10149825Y-15003150D01*
X10149825Y-15003150D02*
X10168873Y-15012674D01*
X10168873Y-15012674D02*
X10178396Y-15031722D01*
X10178396Y-15031722D02*
X10178396Y-15050769D01*
X10178396Y-15050769D02*
X10083158Y-15069817D01*
X10349825Y-15136484D02*
X10349825Y-14936484D01*
X10349825Y-15126960D02*
X10330777Y-15136484D01*
X10330777Y-15136484D02*
X10292682Y-15136484D01*
X10292682Y-15136484D02*
X10273635Y-15126960D01*
X10273635Y-15126960D02*
X10264111Y-15117436D01*
X10264111Y-15117436D02*
X10254587Y-15098388D01*
X10254587Y-15098388D02*
X10254587Y-15041246D01*
X10254587Y-15041246D02*
X10264111Y-15022198D01*
X10264111Y-15022198D02*
X10273635Y-15012674D01*
X10273635Y-15012674D02*
X10292682Y-15003150D01*
X10292682Y-15003150D02*
X10330777Y-15003150D01*
X10330777Y-15003150D02*
X10349825Y-15012674D01*
X10426016Y-15212674D02*
X10435539Y-15203150D01*
X10435539Y-15203150D02*
X10454587Y-15174579D01*
X10454587Y-15174579D02*
X10464111Y-15155531D01*
X10464111Y-15155531D02*
X10473635Y-15126960D01*
X10473635Y-15126960D02*
X10483158Y-15079341D01*
X10483158Y-15079341D02*
X10483158Y-15041246D01*
X10483158Y-15041246D02*
X10473635Y-14993627D01*
X10473635Y-14993627D02*
X10464111Y-14965055D01*
X10464111Y-14965055D02*
X10454587Y-14946008D01*
X10454587Y-14946008D02*
X10435539Y-14917436D01*
X10435539Y-14917436D02*
X10426016Y-14907912D01*
X3670000Y-15365000D02*
G75*
G02*
X3470000Y-15365000I-100000J0D01*
G01*
X3470000Y-15365000D02*
G75*
G02*
X3670000Y-15365000I100000J0D01*
G01*
X3911729Y-15256484D02*
X4035539Y-15256484D01*
X4035539Y-15256484D02*
X3968872Y-15332674D01*
X3968872Y-15332674D02*
X3997443Y-15332674D01*
X3997443Y-15332674D02*
X4016491Y-15342198D01*
X4016491Y-15342198D02*
X4026015Y-15351722D01*
X4026015Y-15351722D02*
X4035539Y-15370769D01*
X4035539Y-15370769D02*
X4035539Y-15418388D01*
X4035539Y-15418388D02*
X4026015Y-15437436D01*
X4026015Y-15437436D02*
X4016491Y-15446960D01*
X4016491Y-15446960D02*
X3997443Y-15456484D01*
X3997443Y-15456484D02*
X3940301Y-15456484D01*
X3940301Y-15456484D02*
X3921253Y-15446960D01*
X3921253Y-15446960D02*
X3911729Y-15437436D01*
X4121253Y-15437436D02*
X4130777Y-15446960D01*
X4130777Y-15446960D02*
X4121253Y-15456484D01*
X4121253Y-15456484D02*
X4111729Y-15446960D01*
X4111729Y-15446960D02*
X4121253Y-15437436D01*
X4121253Y-15437436D02*
X4121253Y-15456484D01*
X4206967Y-15275531D02*
X4216491Y-15266008D01*
X4216491Y-15266008D02*
X4235539Y-15256484D01*
X4235539Y-15256484D02*
X4283158Y-15256484D01*
X4283158Y-15256484D02*
X4302205Y-15266008D01*
X4302205Y-15266008D02*
X4311729Y-15275531D01*
X4311729Y-15275531D02*
X4321253Y-15294579D01*
X4321253Y-15294579D02*
X4321253Y-15313627D01*
X4321253Y-15313627D02*
X4311729Y-15342198D01*
X4311729Y-15342198D02*
X4197444Y-15456484D01*
X4197444Y-15456484D02*
X4321253Y-15456484D01*
X4502205Y-15256484D02*
X4406967Y-15256484D01*
X4406967Y-15256484D02*
X4397444Y-15351722D01*
X4397444Y-15351722D02*
X4406967Y-15342198D01*
X4406967Y-15342198D02*
X4426015Y-15332674D01*
X4426015Y-15332674D02*
X4473634Y-15332674D01*
X4473634Y-15332674D02*
X4492682Y-15342198D01*
X4492682Y-15342198D02*
X4502205Y-15351722D01*
X4502205Y-15351722D02*
X4511729Y-15370769D01*
X4511729Y-15370769D02*
X4511729Y-15418388D01*
X4511729Y-15418388D02*
X4502205Y-15437436D01*
X4502205Y-15437436D02*
X4492682Y-15446960D01*
X4492682Y-15446960D02*
X4473634Y-15456484D01*
X4473634Y-15456484D02*
X4426015Y-15456484D01*
X4426015Y-15456484D02*
X4406967Y-15446960D01*
X4406967Y-15446960D02*
X4397444Y-15437436D01*
X4635539Y-15256484D02*
X4654586Y-15256484D01*
X4654586Y-15256484D02*
X4673634Y-15266008D01*
X4673634Y-15266008D02*
X4683158Y-15275531D01*
X4683158Y-15275531D02*
X4692682Y-15294579D01*
X4692682Y-15294579D02*
X4702205Y-15332674D01*
X4702205Y-15332674D02*
X4702205Y-15380293D01*
X4702205Y-15380293D02*
X4692682Y-15418388D01*
X4692682Y-15418388D02*
X4683158Y-15437436D01*
X4683158Y-15437436D02*
X4673634Y-15446960D01*
X4673634Y-15446960D02*
X4654586Y-15456484D01*
X4654586Y-15456484D02*
X4635539Y-15456484D01*
X4635539Y-15456484D02*
X4616491Y-15446960D01*
X4616491Y-15446960D02*
X4606967Y-15437436D01*
X4606967Y-15437436D02*
X4597444Y-15418388D01*
X4597444Y-15418388D02*
X4587920Y-15380293D01*
X4587920Y-15380293D02*
X4587920Y-15332674D01*
X4587920Y-15332674D02*
X4597444Y-15294579D01*
X4597444Y-15294579D02*
X4606967Y-15275531D01*
X4606967Y-15275531D02*
X4616491Y-15266008D01*
X4616491Y-15266008D02*
X4635539Y-15256484D01*
X4787920Y-15456484D02*
X4787920Y-15323150D01*
X4787920Y-15342198D02*
X4797444Y-15332674D01*
X4797444Y-15332674D02*
X4816491Y-15323150D01*
X4816491Y-15323150D02*
X4845063Y-15323150D01*
X4845063Y-15323150D02*
X4864110Y-15332674D01*
X4864110Y-15332674D02*
X4873634Y-15351722D01*
X4873634Y-15351722D02*
X4873634Y-15456484D01*
X4873634Y-15351722D02*
X4883158Y-15332674D01*
X4883158Y-15332674D02*
X4902205Y-15323150D01*
X4902205Y-15323150D02*
X4930777Y-15323150D01*
X4930777Y-15323150D02*
X4949825Y-15332674D01*
X4949825Y-15332674D02*
X4959348Y-15351722D01*
X4959348Y-15351722D02*
X4959348Y-15456484D01*
X5054586Y-15456484D02*
X5054586Y-15323150D01*
X5054586Y-15342198D02*
X5064110Y-15332674D01*
X5064110Y-15332674D02*
X5083158Y-15323150D01*
X5083158Y-15323150D02*
X5111729Y-15323150D01*
X5111729Y-15323150D02*
X5130777Y-15332674D01*
X5130777Y-15332674D02*
X5140301Y-15351722D01*
X5140301Y-15351722D02*
X5140301Y-15456484D01*
X5140301Y-15351722D02*
X5149825Y-15332674D01*
X5149825Y-15332674D02*
X5168872Y-15323150D01*
X5168872Y-15323150D02*
X5197444Y-15323150D01*
X5197444Y-15323150D02*
X5216491Y-15332674D01*
X5216491Y-15332674D02*
X5226015Y-15351722D01*
X5226015Y-15351722D02*
X5226015Y-15456484D01*
X5616491Y-15246960D02*
X5445063Y-15504103D01*
X5873634Y-15256484D02*
X5892682Y-15256484D01*
X5892682Y-15256484D02*
X5911729Y-15266008D01*
X5911729Y-15266008D02*
X5921253Y-15275531D01*
X5921253Y-15275531D02*
X5930777Y-15294579D01*
X5930777Y-15294579D02*
X5940301Y-15332674D01*
X5940301Y-15332674D02*
X5940301Y-15380293D01*
X5940301Y-15380293D02*
X5930777Y-15418388D01*
X5930777Y-15418388D02*
X5921253Y-15437436D01*
X5921253Y-15437436D02*
X5911729Y-15446960D01*
X5911729Y-15446960D02*
X5892682Y-15456484D01*
X5892682Y-15456484D02*
X5873634Y-15456484D01*
X5873634Y-15456484D02*
X5854586Y-15446960D01*
X5854586Y-15446960D02*
X5845063Y-15437436D01*
X5845063Y-15437436D02*
X5835539Y-15418388D01*
X5835539Y-15418388D02*
X5826015Y-15380293D01*
X5826015Y-15380293D02*
X5826015Y-15332674D01*
X5826015Y-15332674D02*
X5835539Y-15294579D01*
X5835539Y-15294579D02*
X5845063Y-15275531D01*
X5845063Y-15275531D02*
X5854586Y-15266008D01*
X5854586Y-15266008D02*
X5873634Y-15256484D01*
X6026015Y-15437436D02*
X6035539Y-15446960D01*
X6035539Y-15446960D02*
X6026015Y-15456484D01*
X6026015Y-15456484D02*
X6016491Y-15446960D01*
X6016491Y-15446960D02*
X6026015Y-15437436D01*
X6026015Y-15437436D02*
X6026015Y-15456484D01*
X6226015Y-15456484D02*
X6111729Y-15456484D01*
X6168872Y-15456484D02*
X6168872Y-15256484D01*
X6168872Y-15256484D02*
X6149825Y-15285055D01*
X6149825Y-15285055D02*
X6130777Y-15304103D01*
X6130777Y-15304103D02*
X6111729Y-15313627D01*
X6302206Y-15275531D02*
X6311729Y-15266008D01*
X6311729Y-15266008D02*
X6330777Y-15256484D01*
X6330777Y-15256484D02*
X6378396Y-15256484D01*
X6378396Y-15256484D02*
X6397444Y-15266008D01*
X6397444Y-15266008D02*
X6406967Y-15275531D01*
X6406967Y-15275531D02*
X6416491Y-15294579D01*
X6416491Y-15294579D02*
X6416491Y-15313627D01*
X6416491Y-15313627D02*
X6406967Y-15342198D01*
X6406967Y-15342198D02*
X6292682Y-15456484D01*
X6292682Y-15456484D02*
X6416491Y-15456484D01*
X6530777Y-15342198D02*
X6511729Y-15332674D01*
X6511729Y-15332674D02*
X6502206Y-15323150D01*
X6502206Y-15323150D02*
X6492682Y-15304103D01*
X6492682Y-15304103D02*
X6492682Y-15294579D01*
X6492682Y-15294579D02*
X6502206Y-15275531D01*
X6502206Y-15275531D02*
X6511729Y-15266008D01*
X6511729Y-15266008D02*
X6530777Y-15256484D01*
X6530777Y-15256484D02*
X6568872Y-15256484D01*
X6568872Y-15256484D02*
X6587920Y-15266008D01*
X6587920Y-15266008D02*
X6597444Y-15275531D01*
X6597444Y-15275531D02*
X6606967Y-15294579D01*
X6606967Y-15294579D02*
X6606967Y-15304103D01*
X6606967Y-15304103D02*
X6597444Y-15323150D01*
X6597444Y-15323150D02*
X6587920Y-15332674D01*
X6587920Y-15332674D02*
X6568872Y-15342198D01*
X6568872Y-15342198D02*
X6530777Y-15342198D01*
X6530777Y-15342198D02*
X6511729Y-15351722D01*
X6511729Y-15351722D02*
X6502206Y-15361246D01*
X6502206Y-15361246D02*
X6492682Y-15380293D01*
X6492682Y-15380293D02*
X6492682Y-15418388D01*
X6492682Y-15418388D02*
X6502206Y-15437436D01*
X6502206Y-15437436D02*
X6511729Y-15446960D01*
X6511729Y-15446960D02*
X6530777Y-15456484D01*
X6530777Y-15456484D02*
X6568872Y-15456484D01*
X6568872Y-15456484D02*
X6587920Y-15446960D01*
X6587920Y-15446960D02*
X6597444Y-15437436D01*
X6597444Y-15437436D02*
X6606967Y-15418388D01*
X6606967Y-15418388D02*
X6606967Y-15380293D01*
X6606967Y-15380293D02*
X6597444Y-15361246D01*
X6597444Y-15361246D02*
X6587920Y-15351722D01*
X6587920Y-15351722D02*
X6568872Y-15342198D01*
X6730777Y-15256484D02*
X6749825Y-15256484D01*
X6749825Y-15256484D02*
X6768872Y-15266008D01*
X6768872Y-15266008D02*
X6778396Y-15275531D01*
X6778396Y-15275531D02*
X6787920Y-15294579D01*
X6787920Y-15294579D02*
X6797444Y-15332674D01*
X6797444Y-15332674D02*
X6797444Y-15380293D01*
X6797444Y-15380293D02*
X6787920Y-15418388D01*
X6787920Y-15418388D02*
X6778396Y-15437436D01*
X6778396Y-15437436D02*
X6768872Y-15446960D01*
X6768872Y-15446960D02*
X6749825Y-15456484D01*
X6749825Y-15456484D02*
X6730777Y-15456484D01*
X6730777Y-15456484D02*
X6711729Y-15446960D01*
X6711729Y-15446960D02*
X6702206Y-15437436D01*
X6702206Y-15437436D02*
X6692682Y-15418388D01*
X6692682Y-15418388D02*
X6683158Y-15380293D01*
X6683158Y-15380293D02*
X6683158Y-15332674D01*
X6683158Y-15332674D02*
X6692682Y-15294579D01*
X6692682Y-15294579D02*
X6702206Y-15275531D01*
X6702206Y-15275531D02*
X6711729Y-15266008D01*
X6711729Y-15266008D02*
X6730777Y-15256484D01*
X6873634Y-15256484D02*
X6873634Y-15294579D01*
X6949825Y-15256484D02*
X6949825Y-15294579D01*
X7245063Y-15532674D02*
X7235539Y-15523150D01*
X7235539Y-15523150D02*
X7216491Y-15494579D01*
X7216491Y-15494579D02*
X7206968Y-15475531D01*
X7206968Y-15475531D02*
X7197444Y-15446960D01*
X7197444Y-15446960D02*
X7187920Y-15399341D01*
X7187920Y-15399341D02*
X7187920Y-15361246D01*
X7187920Y-15361246D02*
X7197444Y-15313627D01*
X7197444Y-15313627D02*
X7206968Y-15285055D01*
X7206968Y-15285055D02*
X7216491Y-15266008D01*
X7216491Y-15266008D02*
X7235539Y-15237436D01*
X7235539Y-15237436D02*
X7245063Y-15227912D01*
X7311729Y-15275531D02*
X7321253Y-15266008D01*
X7321253Y-15266008D02*
X7340301Y-15256484D01*
X7340301Y-15256484D02*
X7387920Y-15256484D01*
X7387920Y-15256484D02*
X7406968Y-15266008D01*
X7406968Y-15266008D02*
X7416491Y-15275531D01*
X7416491Y-15275531D02*
X7426015Y-15294579D01*
X7426015Y-15294579D02*
X7426015Y-15313627D01*
X7426015Y-15313627D02*
X7416491Y-15342198D01*
X7416491Y-15342198D02*
X7302206Y-15456484D01*
X7302206Y-15456484D02*
X7426015Y-15456484D01*
X7664110Y-15456484D02*
X7664110Y-15256484D01*
X7749825Y-15456484D02*
X7749825Y-15351722D01*
X7749825Y-15351722D02*
X7740301Y-15332674D01*
X7740301Y-15332674D02*
X7721253Y-15323150D01*
X7721253Y-15323150D02*
X7692682Y-15323150D01*
X7692682Y-15323150D02*
X7673634Y-15332674D01*
X7673634Y-15332674D02*
X7664110Y-15342198D01*
X7873634Y-15456484D02*
X7854587Y-15446960D01*
X7854587Y-15446960D02*
X7845063Y-15437436D01*
X7845063Y-15437436D02*
X7835539Y-15418388D01*
X7835539Y-15418388D02*
X7835539Y-15361246D01*
X7835539Y-15361246D02*
X7845063Y-15342198D01*
X7845063Y-15342198D02*
X7854587Y-15332674D01*
X7854587Y-15332674D02*
X7873634Y-15323150D01*
X7873634Y-15323150D02*
X7902206Y-15323150D01*
X7902206Y-15323150D02*
X7921253Y-15332674D01*
X7921253Y-15332674D02*
X7930777Y-15342198D01*
X7930777Y-15342198D02*
X7940301Y-15361246D01*
X7940301Y-15361246D02*
X7940301Y-15418388D01*
X7940301Y-15418388D02*
X7930777Y-15437436D01*
X7930777Y-15437436D02*
X7921253Y-15446960D01*
X7921253Y-15446960D02*
X7902206Y-15456484D01*
X7902206Y-15456484D02*
X7873634Y-15456484D01*
X8054587Y-15456484D02*
X8035539Y-15446960D01*
X8035539Y-15446960D02*
X8026015Y-15427912D01*
X8026015Y-15427912D02*
X8026015Y-15256484D01*
X8206968Y-15446960D02*
X8187920Y-15456484D01*
X8187920Y-15456484D02*
X8149825Y-15456484D01*
X8149825Y-15456484D02*
X8130777Y-15446960D01*
X8130777Y-15446960D02*
X8121253Y-15427912D01*
X8121253Y-15427912D02*
X8121253Y-15351722D01*
X8121253Y-15351722D02*
X8130777Y-15332674D01*
X8130777Y-15332674D02*
X8149825Y-15323150D01*
X8149825Y-15323150D02*
X8187920Y-15323150D01*
X8187920Y-15323150D02*
X8206968Y-15332674D01*
X8206968Y-15332674D02*
X8216491Y-15351722D01*
X8216491Y-15351722D02*
X8216491Y-15370769D01*
X8216491Y-15370769D02*
X8121253Y-15389817D01*
X8292682Y-15446960D02*
X8311730Y-15456484D01*
X8311730Y-15456484D02*
X8349825Y-15456484D01*
X8349825Y-15456484D02*
X8368872Y-15446960D01*
X8368872Y-15446960D02*
X8378396Y-15427912D01*
X8378396Y-15427912D02*
X8378396Y-15418388D01*
X8378396Y-15418388D02*
X8368872Y-15399341D01*
X8368872Y-15399341D02*
X8349825Y-15389817D01*
X8349825Y-15389817D02*
X8321253Y-15389817D01*
X8321253Y-15389817D02*
X8302206Y-15380293D01*
X8302206Y-15380293D02*
X8292682Y-15361246D01*
X8292682Y-15361246D02*
X8292682Y-15351722D01*
X8292682Y-15351722D02*
X8302206Y-15332674D01*
X8302206Y-15332674D02*
X8321253Y-15323150D01*
X8321253Y-15323150D02*
X8349825Y-15323150D01*
X8349825Y-15323150D02*
X8368872Y-15332674D01*
X8445063Y-15532674D02*
X8454587Y-15523150D01*
X8454587Y-15523150D02*
X8473634Y-15494579D01*
X8473634Y-15494579D02*
X8483158Y-15475531D01*
X8483158Y-15475531D02*
X8492682Y-15446960D01*
X8492682Y-15446960D02*
X8502206Y-15399341D01*
X8502206Y-15399341D02*
X8502206Y-15361246D01*
X8502206Y-15361246D02*
X8492682Y-15313627D01*
X8492682Y-15313627D02*
X8483158Y-15285055D01*
X8483158Y-15285055D02*
X8473634Y-15266008D01*
X8473634Y-15266008D02*
X8454587Y-15237436D01*
X8454587Y-15237436D02*
X8445063Y-15227912D01*
X8806968Y-15532674D02*
X8797444Y-15523150D01*
X8797444Y-15523150D02*
X8778396Y-15494579D01*
X8778396Y-15494579D02*
X8768873Y-15475531D01*
X8768873Y-15475531D02*
X8759349Y-15446960D01*
X8759349Y-15446960D02*
X8749825Y-15399341D01*
X8749825Y-15399341D02*
X8749825Y-15361246D01*
X8749825Y-15361246D02*
X8759349Y-15313627D01*
X8759349Y-15313627D02*
X8768873Y-15285055D01*
X8768873Y-15285055D02*
X8778396Y-15266008D01*
X8778396Y-15266008D02*
X8797444Y-15237436D01*
X8797444Y-15237436D02*
X8806968Y-15227912D01*
X8883158Y-15323150D02*
X8883158Y-15456484D01*
X8883158Y-15342198D02*
X8892682Y-15332674D01*
X8892682Y-15332674D02*
X8911730Y-15323150D01*
X8911730Y-15323150D02*
X8940301Y-15323150D01*
X8940301Y-15323150D02*
X8959349Y-15332674D01*
X8959349Y-15332674D02*
X8968873Y-15351722D01*
X8968873Y-15351722D02*
X8968873Y-15456484D01*
X9092682Y-15456484D02*
X9073634Y-15446960D01*
X9073634Y-15446960D02*
X9064111Y-15437436D01*
X9064111Y-15437436D02*
X9054587Y-15418388D01*
X9054587Y-15418388D02*
X9054587Y-15361246D01*
X9054587Y-15361246D02*
X9064111Y-15342198D01*
X9064111Y-15342198D02*
X9073634Y-15332674D01*
X9073634Y-15332674D02*
X9092682Y-15323150D01*
X9092682Y-15323150D02*
X9121254Y-15323150D01*
X9121254Y-15323150D02*
X9140301Y-15332674D01*
X9140301Y-15332674D02*
X9149825Y-15342198D01*
X9149825Y-15342198D02*
X9159349Y-15361246D01*
X9159349Y-15361246D02*
X9159349Y-15418388D01*
X9159349Y-15418388D02*
X9149825Y-15437436D01*
X9149825Y-15437436D02*
X9140301Y-15446960D01*
X9140301Y-15446960D02*
X9121254Y-15456484D01*
X9121254Y-15456484D02*
X9092682Y-15456484D01*
X9216492Y-15323150D02*
X9292682Y-15323150D01*
X9245063Y-15256484D02*
X9245063Y-15427912D01*
X9245063Y-15427912D02*
X9254587Y-15446960D01*
X9254587Y-15446960D02*
X9273634Y-15456484D01*
X9273634Y-15456484D02*
X9292682Y-15456484D01*
X9511730Y-15323150D02*
X9511730Y-15523150D01*
X9511730Y-15332674D02*
X9530777Y-15323150D01*
X9530777Y-15323150D02*
X9568873Y-15323150D01*
X9568873Y-15323150D02*
X9587920Y-15332674D01*
X9587920Y-15332674D02*
X9597444Y-15342198D01*
X9597444Y-15342198D02*
X9606968Y-15361246D01*
X9606968Y-15361246D02*
X9606968Y-15418388D01*
X9606968Y-15418388D02*
X9597444Y-15437436D01*
X9597444Y-15437436D02*
X9587920Y-15446960D01*
X9587920Y-15446960D02*
X9568873Y-15456484D01*
X9568873Y-15456484D02*
X9530777Y-15456484D01*
X9530777Y-15456484D02*
X9511730Y-15446960D01*
X9721254Y-15456484D02*
X9702206Y-15446960D01*
X9702206Y-15446960D02*
X9692682Y-15427912D01*
X9692682Y-15427912D02*
X9692682Y-15256484D01*
X9883158Y-15456484D02*
X9883158Y-15351722D01*
X9883158Y-15351722D02*
X9873635Y-15332674D01*
X9873635Y-15332674D02*
X9854587Y-15323150D01*
X9854587Y-15323150D02*
X9816492Y-15323150D01*
X9816492Y-15323150D02*
X9797444Y-15332674D01*
X9883158Y-15446960D02*
X9864111Y-15456484D01*
X9864111Y-15456484D02*
X9816492Y-15456484D01*
X9816492Y-15456484D02*
X9797444Y-15446960D01*
X9797444Y-15446960D02*
X9787920Y-15427912D01*
X9787920Y-15427912D02*
X9787920Y-15408865D01*
X9787920Y-15408865D02*
X9797444Y-15389817D01*
X9797444Y-15389817D02*
X9816492Y-15380293D01*
X9816492Y-15380293D02*
X9864111Y-15380293D01*
X9864111Y-15380293D02*
X9883158Y-15370769D01*
X9949825Y-15323150D02*
X10026015Y-15323150D01*
X9978396Y-15256484D02*
X9978396Y-15427912D01*
X9978396Y-15427912D02*
X9987920Y-15446960D01*
X9987920Y-15446960D02*
X10006968Y-15456484D01*
X10006968Y-15456484D02*
X10026015Y-15456484D01*
X10168873Y-15446960D02*
X10149825Y-15456484D01*
X10149825Y-15456484D02*
X10111730Y-15456484D01*
X10111730Y-15456484D02*
X10092682Y-15446960D01*
X10092682Y-15446960D02*
X10083158Y-15427912D01*
X10083158Y-15427912D02*
X10083158Y-15351722D01*
X10083158Y-15351722D02*
X10092682Y-15332674D01*
X10092682Y-15332674D02*
X10111730Y-15323150D01*
X10111730Y-15323150D02*
X10149825Y-15323150D01*
X10149825Y-15323150D02*
X10168873Y-15332674D01*
X10168873Y-15332674D02*
X10178396Y-15351722D01*
X10178396Y-15351722D02*
X10178396Y-15370769D01*
X10178396Y-15370769D02*
X10083158Y-15389817D01*
X10349825Y-15456484D02*
X10349825Y-15256484D01*
X10349825Y-15446960D02*
X10330777Y-15456484D01*
X10330777Y-15456484D02*
X10292682Y-15456484D01*
X10292682Y-15456484D02*
X10273635Y-15446960D01*
X10273635Y-15446960D02*
X10264111Y-15437436D01*
X10264111Y-15437436D02*
X10254587Y-15418388D01*
X10254587Y-15418388D02*
X10254587Y-15361246D01*
X10254587Y-15361246D02*
X10264111Y-15342198D01*
X10264111Y-15342198D02*
X10273635Y-15332674D01*
X10273635Y-15332674D02*
X10292682Y-15323150D01*
X10292682Y-15323150D02*
X10330777Y-15323150D01*
X10330777Y-15323150D02*
X10349825Y-15332674D01*
X10426016Y-15532674D02*
X10435539Y-15523150D01*
X10435539Y-15523150D02*
X10454587Y-15494579D01*
X10454587Y-15494579D02*
X10464111Y-15475531D01*
X10464111Y-15475531D02*
X10473635Y-15446960D01*
X10473635Y-15446960D02*
X10483158Y-15399341D01*
X10483158Y-15399341D02*
X10483158Y-15361246D01*
X10483158Y-15361246D02*
X10473635Y-15313627D01*
X10473635Y-15313627D02*
X10464111Y-15285055D01*
X10464111Y-15285055D02*
X10454587Y-15266008D01*
X10454587Y-15266008D02*
X10435539Y-15237436D01*
X10435539Y-15237436D02*
X10426016Y-15227912D01*
X3570000Y-15585000D02*
X3570000Y-15785000D01*
X3470000Y-15685000D02*
X3670000Y-15685000D01*
X4026015Y-15576484D02*
X3930777Y-15576484D01*
X3930777Y-15576484D02*
X3921253Y-15671722D01*
X3921253Y-15671722D02*
X3930777Y-15662198D01*
X3930777Y-15662198D02*
X3949824Y-15652674D01*
X3949824Y-15652674D02*
X3997443Y-15652674D01*
X3997443Y-15652674D02*
X4016491Y-15662198D01*
X4016491Y-15662198D02*
X4026015Y-15671722D01*
X4026015Y-15671722D02*
X4035539Y-15690769D01*
X4035539Y-15690769D02*
X4035539Y-15738388D01*
X4035539Y-15738388D02*
X4026015Y-15757436D01*
X4026015Y-15757436D02*
X4016491Y-15766960D01*
X4016491Y-15766960D02*
X3997443Y-15776484D01*
X3997443Y-15776484D02*
X3949824Y-15776484D01*
X3949824Y-15776484D02*
X3930777Y-15766960D01*
X3930777Y-15766960D02*
X3921253Y-15757436D01*
X4121253Y-15757436D02*
X4130777Y-15766960D01*
X4130777Y-15766960D02*
X4121253Y-15776484D01*
X4121253Y-15776484D02*
X4111729Y-15766960D01*
X4111729Y-15766960D02*
X4121253Y-15757436D01*
X4121253Y-15757436D02*
X4121253Y-15776484D01*
X4254586Y-15576484D02*
X4273634Y-15576484D01*
X4273634Y-15576484D02*
X4292682Y-15586008D01*
X4292682Y-15586008D02*
X4302205Y-15595531D01*
X4302205Y-15595531D02*
X4311729Y-15614579D01*
X4311729Y-15614579D02*
X4321253Y-15652674D01*
X4321253Y-15652674D02*
X4321253Y-15700293D01*
X4321253Y-15700293D02*
X4311729Y-15738388D01*
X4311729Y-15738388D02*
X4302205Y-15757436D01*
X4302205Y-15757436D02*
X4292682Y-15766960D01*
X4292682Y-15766960D02*
X4273634Y-15776484D01*
X4273634Y-15776484D02*
X4254586Y-15776484D01*
X4254586Y-15776484D02*
X4235539Y-15766960D01*
X4235539Y-15766960D02*
X4226015Y-15757436D01*
X4226015Y-15757436D02*
X4216491Y-15738388D01*
X4216491Y-15738388D02*
X4206967Y-15700293D01*
X4206967Y-15700293D02*
X4206967Y-15652674D01*
X4206967Y-15652674D02*
X4216491Y-15614579D01*
X4216491Y-15614579D02*
X4226015Y-15595531D01*
X4226015Y-15595531D02*
X4235539Y-15586008D01*
X4235539Y-15586008D02*
X4254586Y-15576484D01*
X4445063Y-15576484D02*
X4464110Y-15576484D01*
X4464110Y-15576484D02*
X4483158Y-15586008D01*
X4483158Y-15586008D02*
X4492682Y-15595531D01*
X4492682Y-15595531D02*
X4502205Y-15614579D01*
X4502205Y-15614579D02*
X4511729Y-15652674D01*
X4511729Y-15652674D02*
X4511729Y-15700293D01*
X4511729Y-15700293D02*
X4502205Y-15738388D01*
X4502205Y-15738388D02*
X4492682Y-15757436D01*
X4492682Y-15757436D02*
X4483158Y-15766960D01*
X4483158Y-15766960D02*
X4464110Y-15776484D01*
X4464110Y-15776484D02*
X4445063Y-15776484D01*
X4445063Y-15776484D02*
X4426015Y-15766960D01*
X4426015Y-15766960D02*
X4416491Y-15757436D01*
X4416491Y-15757436D02*
X4406967Y-15738388D01*
X4406967Y-15738388D02*
X4397444Y-15700293D01*
X4397444Y-15700293D02*
X4397444Y-15652674D01*
X4397444Y-15652674D02*
X4406967Y-15614579D01*
X4406967Y-15614579D02*
X4416491Y-15595531D01*
X4416491Y-15595531D02*
X4426015Y-15586008D01*
X4426015Y-15586008D02*
X4445063Y-15576484D01*
X4635539Y-15576484D02*
X4654586Y-15576484D01*
X4654586Y-15576484D02*
X4673634Y-15586008D01*
X4673634Y-15586008D02*
X4683158Y-15595531D01*
X4683158Y-15595531D02*
X4692682Y-15614579D01*
X4692682Y-15614579D02*
X4702205Y-15652674D01*
X4702205Y-15652674D02*
X4702205Y-15700293D01*
X4702205Y-15700293D02*
X4692682Y-15738388D01*
X4692682Y-15738388D02*
X4683158Y-15757436D01*
X4683158Y-15757436D02*
X4673634Y-15766960D01*
X4673634Y-15766960D02*
X4654586Y-15776484D01*
X4654586Y-15776484D02*
X4635539Y-15776484D01*
X4635539Y-15776484D02*
X4616491Y-15766960D01*
X4616491Y-15766960D02*
X4606967Y-15757436D01*
X4606967Y-15757436D02*
X4597444Y-15738388D01*
X4597444Y-15738388D02*
X4587920Y-15700293D01*
X4587920Y-15700293D02*
X4587920Y-15652674D01*
X4587920Y-15652674D02*
X4597444Y-15614579D01*
X4597444Y-15614579D02*
X4606967Y-15595531D01*
X4606967Y-15595531D02*
X4616491Y-15586008D01*
X4616491Y-15586008D02*
X4635539Y-15576484D01*
X4787920Y-15776484D02*
X4787920Y-15643150D01*
X4787920Y-15662198D02*
X4797444Y-15652674D01*
X4797444Y-15652674D02*
X4816491Y-15643150D01*
X4816491Y-15643150D02*
X4845063Y-15643150D01*
X4845063Y-15643150D02*
X4864110Y-15652674D01*
X4864110Y-15652674D02*
X4873634Y-15671722D01*
X4873634Y-15671722D02*
X4873634Y-15776484D01*
X4873634Y-15671722D02*
X4883158Y-15652674D01*
X4883158Y-15652674D02*
X4902205Y-15643150D01*
X4902205Y-15643150D02*
X4930777Y-15643150D01*
X4930777Y-15643150D02*
X4949825Y-15652674D01*
X4949825Y-15652674D02*
X4959348Y-15671722D01*
X4959348Y-15671722D02*
X4959348Y-15776484D01*
X5054586Y-15776484D02*
X5054586Y-15643150D01*
X5054586Y-15662198D02*
X5064110Y-15652674D01*
X5064110Y-15652674D02*
X5083158Y-15643150D01*
X5083158Y-15643150D02*
X5111729Y-15643150D01*
X5111729Y-15643150D02*
X5130777Y-15652674D01*
X5130777Y-15652674D02*
X5140301Y-15671722D01*
X5140301Y-15671722D02*
X5140301Y-15776484D01*
X5140301Y-15671722D02*
X5149825Y-15652674D01*
X5149825Y-15652674D02*
X5168872Y-15643150D01*
X5168872Y-15643150D02*
X5197444Y-15643150D01*
X5197444Y-15643150D02*
X5216491Y-15652674D01*
X5216491Y-15652674D02*
X5226015Y-15671722D01*
X5226015Y-15671722D02*
X5226015Y-15776484D01*
X5616491Y-15566960D02*
X5445063Y-15824103D01*
X5873634Y-15576484D02*
X5892682Y-15576484D01*
X5892682Y-15576484D02*
X5911729Y-15586008D01*
X5911729Y-15586008D02*
X5921253Y-15595531D01*
X5921253Y-15595531D02*
X5930777Y-15614579D01*
X5930777Y-15614579D02*
X5940301Y-15652674D01*
X5940301Y-15652674D02*
X5940301Y-15700293D01*
X5940301Y-15700293D02*
X5930777Y-15738388D01*
X5930777Y-15738388D02*
X5921253Y-15757436D01*
X5921253Y-15757436D02*
X5911729Y-15766960D01*
X5911729Y-15766960D02*
X5892682Y-15776484D01*
X5892682Y-15776484D02*
X5873634Y-15776484D01*
X5873634Y-15776484D02*
X5854586Y-15766960D01*
X5854586Y-15766960D02*
X5845063Y-15757436D01*
X5845063Y-15757436D02*
X5835539Y-15738388D01*
X5835539Y-15738388D02*
X5826015Y-15700293D01*
X5826015Y-15700293D02*
X5826015Y-15652674D01*
X5826015Y-15652674D02*
X5835539Y-15614579D01*
X5835539Y-15614579D02*
X5845063Y-15595531D01*
X5845063Y-15595531D02*
X5854586Y-15586008D01*
X5854586Y-15586008D02*
X5873634Y-15576484D01*
X6026015Y-15757436D02*
X6035539Y-15766960D01*
X6035539Y-15766960D02*
X6026015Y-15776484D01*
X6026015Y-15776484D02*
X6016491Y-15766960D01*
X6016491Y-15766960D02*
X6026015Y-15757436D01*
X6026015Y-15757436D02*
X6026015Y-15776484D01*
X6226015Y-15776484D02*
X6111729Y-15776484D01*
X6168872Y-15776484D02*
X6168872Y-15576484D01*
X6168872Y-15576484D02*
X6149825Y-15605055D01*
X6149825Y-15605055D02*
X6130777Y-15624103D01*
X6130777Y-15624103D02*
X6111729Y-15633627D01*
X6321253Y-15776484D02*
X6359348Y-15776484D01*
X6359348Y-15776484D02*
X6378396Y-15766960D01*
X6378396Y-15766960D02*
X6387920Y-15757436D01*
X6387920Y-15757436D02*
X6406967Y-15728865D01*
X6406967Y-15728865D02*
X6416491Y-15690769D01*
X6416491Y-15690769D02*
X6416491Y-15614579D01*
X6416491Y-15614579D02*
X6406967Y-15595531D01*
X6406967Y-15595531D02*
X6397444Y-15586008D01*
X6397444Y-15586008D02*
X6378396Y-15576484D01*
X6378396Y-15576484D02*
X6340301Y-15576484D01*
X6340301Y-15576484D02*
X6321253Y-15586008D01*
X6321253Y-15586008D02*
X6311729Y-15595531D01*
X6311729Y-15595531D02*
X6302206Y-15614579D01*
X6302206Y-15614579D02*
X6302206Y-15662198D01*
X6302206Y-15662198D02*
X6311729Y-15681246D01*
X6311729Y-15681246D02*
X6321253Y-15690769D01*
X6321253Y-15690769D02*
X6340301Y-15700293D01*
X6340301Y-15700293D02*
X6378396Y-15700293D01*
X6378396Y-15700293D02*
X6397444Y-15690769D01*
X6397444Y-15690769D02*
X6406967Y-15681246D01*
X6406967Y-15681246D02*
X6416491Y-15662198D01*
X6587920Y-15576484D02*
X6549825Y-15576484D01*
X6549825Y-15576484D02*
X6530777Y-15586008D01*
X6530777Y-15586008D02*
X6521253Y-15595531D01*
X6521253Y-15595531D02*
X6502206Y-15624103D01*
X6502206Y-15624103D02*
X6492682Y-15662198D01*
X6492682Y-15662198D02*
X6492682Y-15738388D01*
X6492682Y-15738388D02*
X6502206Y-15757436D01*
X6502206Y-15757436D02*
X6511729Y-15766960D01*
X6511729Y-15766960D02*
X6530777Y-15776484D01*
X6530777Y-15776484D02*
X6568872Y-15776484D01*
X6568872Y-15776484D02*
X6587920Y-15766960D01*
X6587920Y-15766960D02*
X6597444Y-15757436D01*
X6597444Y-15757436D02*
X6606967Y-15738388D01*
X6606967Y-15738388D02*
X6606967Y-15690769D01*
X6606967Y-15690769D02*
X6597444Y-15671722D01*
X6597444Y-15671722D02*
X6587920Y-15662198D01*
X6587920Y-15662198D02*
X6568872Y-15652674D01*
X6568872Y-15652674D02*
X6530777Y-15652674D01*
X6530777Y-15652674D02*
X6511729Y-15662198D01*
X6511729Y-15662198D02*
X6502206Y-15671722D01*
X6502206Y-15671722D02*
X6492682Y-15690769D01*
X6702206Y-15776484D02*
X6740301Y-15776484D01*
X6740301Y-15776484D02*
X6759348Y-15766960D01*
X6759348Y-15766960D02*
X6768872Y-15757436D01*
X6768872Y-15757436D02*
X6787920Y-15728865D01*
X6787920Y-15728865D02*
X6797444Y-15690769D01*
X6797444Y-15690769D02*
X6797444Y-15614579D01*
X6797444Y-15614579D02*
X6787920Y-15595531D01*
X6787920Y-15595531D02*
X6778396Y-15586008D01*
X6778396Y-15586008D02*
X6759348Y-15576484D01*
X6759348Y-15576484D02*
X6721253Y-15576484D01*
X6721253Y-15576484D02*
X6702206Y-15586008D01*
X6702206Y-15586008D02*
X6692682Y-15595531D01*
X6692682Y-15595531D02*
X6683158Y-15614579D01*
X6683158Y-15614579D02*
X6683158Y-15662198D01*
X6683158Y-15662198D02*
X6692682Y-15681246D01*
X6692682Y-15681246D02*
X6702206Y-15690769D01*
X6702206Y-15690769D02*
X6721253Y-15700293D01*
X6721253Y-15700293D02*
X6759348Y-15700293D01*
X6759348Y-15700293D02*
X6778396Y-15690769D01*
X6778396Y-15690769D02*
X6787920Y-15681246D01*
X6787920Y-15681246D02*
X6797444Y-15662198D01*
X6873634Y-15576484D02*
X6873634Y-15614579D01*
X6949825Y-15576484D02*
X6949825Y-15614579D01*
X7245063Y-15852674D02*
X7235539Y-15843150D01*
X7235539Y-15843150D02*
X7216491Y-15814579D01*
X7216491Y-15814579D02*
X7206968Y-15795531D01*
X7206968Y-15795531D02*
X7197444Y-15766960D01*
X7197444Y-15766960D02*
X7187920Y-15719341D01*
X7187920Y-15719341D02*
X7187920Y-15681246D01*
X7187920Y-15681246D02*
X7197444Y-15633627D01*
X7197444Y-15633627D02*
X7206968Y-15605055D01*
X7206968Y-15605055D02*
X7216491Y-15586008D01*
X7216491Y-15586008D02*
X7235539Y-15557436D01*
X7235539Y-15557436D02*
X7245063Y-15547912D01*
X7406968Y-15643150D02*
X7406968Y-15776484D01*
X7359348Y-15566960D02*
X7311729Y-15709817D01*
X7311729Y-15709817D02*
X7435539Y-15709817D01*
X7664110Y-15776484D02*
X7664110Y-15576484D01*
X7749825Y-15776484D02*
X7749825Y-15671722D01*
X7749825Y-15671722D02*
X7740301Y-15652674D01*
X7740301Y-15652674D02*
X7721253Y-15643150D01*
X7721253Y-15643150D02*
X7692682Y-15643150D01*
X7692682Y-15643150D02*
X7673634Y-15652674D01*
X7673634Y-15652674D02*
X7664110Y-15662198D01*
X7873634Y-15776484D02*
X7854587Y-15766960D01*
X7854587Y-15766960D02*
X7845063Y-15757436D01*
X7845063Y-15757436D02*
X7835539Y-15738388D01*
X7835539Y-15738388D02*
X7835539Y-15681246D01*
X7835539Y-15681246D02*
X7845063Y-15662198D01*
X7845063Y-15662198D02*
X7854587Y-15652674D01*
X7854587Y-15652674D02*
X7873634Y-15643150D01*
X7873634Y-15643150D02*
X7902206Y-15643150D01*
X7902206Y-15643150D02*
X7921253Y-15652674D01*
X7921253Y-15652674D02*
X7930777Y-15662198D01*
X7930777Y-15662198D02*
X7940301Y-15681246D01*
X7940301Y-15681246D02*
X7940301Y-15738388D01*
X7940301Y-15738388D02*
X7930777Y-15757436D01*
X7930777Y-15757436D02*
X7921253Y-15766960D01*
X7921253Y-15766960D02*
X7902206Y-15776484D01*
X7902206Y-15776484D02*
X7873634Y-15776484D01*
X8054587Y-15776484D02*
X8035539Y-15766960D01*
X8035539Y-15766960D02*
X8026015Y-15747912D01*
X8026015Y-15747912D02*
X8026015Y-15576484D01*
X8206968Y-15766960D02*
X8187920Y-15776484D01*
X8187920Y-15776484D02*
X8149825Y-15776484D01*
X8149825Y-15776484D02*
X8130777Y-15766960D01*
X8130777Y-15766960D02*
X8121253Y-15747912D01*
X8121253Y-15747912D02*
X8121253Y-15671722D01*
X8121253Y-15671722D02*
X8130777Y-15652674D01*
X8130777Y-15652674D02*
X8149825Y-15643150D01*
X8149825Y-15643150D02*
X8187920Y-15643150D01*
X8187920Y-15643150D02*
X8206968Y-15652674D01*
X8206968Y-15652674D02*
X8216491Y-15671722D01*
X8216491Y-15671722D02*
X8216491Y-15690769D01*
X8216491Y-15690769D02*
X8121253Y-15709817D01*
X8292682Y-15766960D02*
X8311730Y-15776484D01*
X8311730Y-15776484D02*
X8349825Y-15776484D01*
X8349825Y-15776484D02*
X8368872Y-15766960D01*
X8368872Y-15766960D02*
X8378396Y-15747912D01*
X8378396Y-15747912D02*
X8378396Y-15738388D01*
X8378396Y-15738388D02*
X8368872Y-15719341D01*
X8368872Y-15719341D02*
X8349825Y-15709817D01*
X8349825Y-15709817D02*
X8321253Y-15709817D01*
X8321253Y-15709817D02*
X8302206Y-15700293D01*
X8302206Y-15700293D02*
X8292682Y-15681246D01*
X8292682Y-15681246D02*
X8292682Y-15671722D01*
X8292682Y-15671722D02*
X8302206Y-15652674D01*
X8302206Y-15652674D02*
X8321253Y-15643150D01*
X8321253Y-15643150D02*
X8349825Y-15643150D01*
X8349825Y-15643150D02*
X8368872Y-15652674D01*
X8445063Y-15852674D02*
X8454587Y-15843150D01*
X8454587Y-15843150D02*
X8473634Y-15814579D01*
X8473634Y-15814579D02*
X8483158Y-15795531D01*
X8483158Y-15795531D02*
X8492682Y-15766960D01*
X8492682Y-15766960D02*
X8502206Y-15719341D01*
X8502206Y-15719341D02*
X8502206Y-15681246D01*
X8502206Y-15681246D02*
X8492682Y-15633627D01*
X8492682Y-15633627D02*
X8483158Y-15605055D01*
X8483158Y-15605055D02*
X8473634Y-15586008D01*
X8473634Y-15586008D02*
X8454587Y-15557436D01*
X8454587Y-15557436D02*
X8445063Y-15547912D01*
X8806968Y-15852674D02*
X8797444Y-15843150D01*
X8797444Y-15843150D02*
X8778396Y-15814579D01*
X8778396Y-15814579D02*
X8768873Y-15795531D01*
X8768873Y-15795531D02*
X8759349Y-15766960D01*
X8759349Y-15766960D02*
X8749825Y-15719341D01*
X8749825Y-15719341D02*
X8749825Y-15681246D01*
X8749825Y-15681246D02*
X8759349Y-15633627D01*
X8759349Y-15633627D02*
X8768873Y-15605055D01*
X8768873Y-15605055D02*
X8778396Y-15586008D01*
X8778396Y-15586008D02*
X8797444Y-15557436D01*
X8797444Y-15557436D02*
X8806968Y-15547912D01*
X8883158Y-15643150D02*
X8883158Y-15776484D01*
X8883158Y-15662198D02*
X8892682Y-15652674D01*
X8892682Y-15652674D02*
X8911730Y-15643150D01*
X8911730Y-15643150D02*
X8940301Y-15643150D01*
X8940301Y-15643150D02*
X8959349Y-15652674D01*
X8959349Y-15652674D02*
X8968873Y-15671722D01*
X8968873Y-15671722D02*
X8968873Y-15776484D01*
X9092682Y-15776484D02*
X9073634Y-15766960D01*
X9073634Y-15766960D02*
X9064111Y-15757436D01*
X9064111Y-15757436D02*
X9054587Y-15738388D01*
X9054587Y-15738388D02*
X9054587Y-15681246D01*
X9054587Y-15681246D02*
X9064111Y-15662198D01*
X9064111Y-15662198D02*
X9073634Y-15652674D01*
X9073634Y-15652674D02*
X9092682Y-15643150D01*
X9092682Y-15643150D02*
X9121254Y-15643150D01*
X9121254Y-15643150D02*
X9140301Y-15652674D01*
X9140301Y-15652674D02*
X9149825Y-15662198D01*
X9149825Y-15662198D02*
X9159349Y-15681246D01*
X9159349Y-15681246D02*
X9159349Y-15738388D01*
X9159349Y-15738388D02*
X9149825Y-15757436D01*
X9149825Y-15757436D02*
X9140301Y-15766960D01*
X9140301Y-15766960D02*
X9121254Y-15776484D01*
X9121254Y-15776484D02*
X9092682Y-15776484D01*
X9216492Y-15643150D02*
X9292682Y-15643150D01*
X9245063Y-15576484D02*
X9245063Y-15747912D01*
X9245063Y-15747912D02*
X9254587Y-15766960D01*
X9254587Y-15766960D02*
X9273634Y-15776484D01*
X9273634Y-15776484D02*
X9292682Y-15776484D01*
X9511730Y-15643150D02*
X9511730Y-15843150D01*
X9511730Y-15652674D02*
X9530777Y-15643150D01*
X9530777Y-15643150D02*
X9568873Y-15643150D01*
X9568873Y-15643150D02*
X9587920Y-15652674D01*
X9587920Y-15652674D02*
X9597444Y-15662198D01*
X9597444Y-15662198D02*
X9606968Y-15681246D01*
X9606968Y-15681246D02*
X9606968Y-15738388D01*
X9606968Y-15738388D02*
X9597444Y-15757436D01*
X9597444Y-15757436D02*
X9587920Y-15766960D01*
X9587920Y-15766960D02*
X9568873Y-15776484D01*
X9568873Y-15776484D02*
X9530777Y-15776484D01*
X9530777Y-15776484D02*
X9511730Y-15766960D01*
X9721254Y-15776484D02*
X9702206Y-15766960D01*
X9702206Y-15766960D02*
X9692682Y-15747912D01*
X9692682Y-15747912D02*
X9692682Y-15576484D01*
X9883158Y-15776484D02*
X9883158Y-15671722D01*
X9883158Y-15671722D02*
X9873635Y-15652674D01*
X9873635Y-15652674D02*
X9854587Y-15643150D01*
X9854587Y-15643150D02*
X9816492Y-15643150D01*
X9816492Y-15643150D02*
X9797444Y-15652674D01*
X9883158Y-15766960D02*
X9864111Y-15776484D01*
X9864111Y-15776484D02*
X9816492Y-15776484D01*
X9816492Y-15776484D02*
X9797444Y-15766960D01*
X9797444Y-15766960D02*
X9787920Y-15747912D01*
X9787920Y-15747912D02*
X9787920Y-15728865D01*
X9787920Y-15728865D02*
X9797444Y-15709817D01*
X9797444Y-15709817D02*
X9816492Y-15700293D01*
X9816492Y-15700293D02*
X9864111Y-15700293D01*
X9864111Y-15700293D02*
X9883158Y-15690769D01*
X9949825Y-15643150D02*
X10026015Y-15643150D01*
X9978396Y-15576484D02*
X9978396Y-15747912D01*
X9978396Y-15747912D02*
X9987920Y-15766960D01*
X9987920Y-15766960D02*
X10006968Y-15776484D01*
X10006968Y-15776484D02*
X10026015Y-15776484D01*
X10168873Y-15766960D02*
X10149825Y-15776484D01*
X10149825Y-15776484D02*
X10111730Y-15776484D01*
X10111730Y-15776484D02*
X10092682Y-15766960D01*
X10092682Y-15766960D02*
X10083158Y-15747912D01*
X10083158Y-15747912D02*
X10083158Y-15671722D01*
X10083158Y-15671722D02*
X10092682Y-15652674D01*
X10092682Y-15652674D02*
X10111730Y-15643150D01*
X10111730Y-15643150D02*
X10149825Y-15643150D01*
X10149825Y-15643150D02*
X10168873Y-15652674D01*
X10168873Y-15652674D02*
X10178396Y-15671722D01*
X10178396Y-15671722D02*
X10178396Y-15690769D01*
X10178396Y-15690769D02*
X10083158Y-15709817D01*
X10349825Y-15776484D02*
X10349825Y-15576484D01*
X10349825Y-15766960D02*
X10330777Y-15776484D01*
X10330777Y-15776484D02*
X10292682Y-15776484D01*
X10292682Y-15776484D02*
X10273635Y-15766960D01*
X10273635Y-15766960D02*
X10264111Y-15757436D01*
X10264111Y-15757436D02*
X10254587Y-15738388D01*
X10254587Y-15738388D02*
X10254587Y-15681246D01*
X10254587Y-15681246D02*
X10264111Y-15662198D01*
X10264111Y-15662198D02*
X10273635Y-15652674D01*
X10273635Y-15652674D02*
X10292682Y-15643150D01*
X10292682Y-15643150D02*
X10330777Y-15643150D01*
X10330777Y-15643150D02*
X10349825Y-15652674D01*
X10426016Y-15852674D02*
X10435539Y-15843150D01*
X10435539Y-15843150D02*
X10454587Y-15814579D01*
X10454587Y-15814579D02*
X10464111Y-15795531D01*
X10464111Y-15795531D02*
X10473635Y-15766960D01*
X10473635Y-15766960D02*
X10483158Y-15719341D01*
X10483158Y-15719341D02*
X10483158Y-15681246D01*
X10483158Y-15681246D02*
X10473635Y-15633627D01*
X10473635Y-15633627D02*
X10464111Y-15605055D01*
X10464111Y-15605055D02*
X10454587Y-15586008D01*
X10454587Y-15586008D02*
X10435539Y-15557436D01*
X10435539Y-15557436D02*
X10426016Y-15547912D01*
M02*
