G04 #@! TF.GenerationSoftware,KiCad,Pcbnew,8.0.9-8.0.9-0~ubuntu24.04.1*
G04 #@! TF.CreationDate,2025-10-26T13:13:23-04:00*
G04 #@! TF.ProjectId,analog_i,616e616c-6f67-45f6-992e-6b696361645f,rev?*
G04 #@! TF.SameCoordinates,Original*
G04 #@! TF.FileFunction,Soldermask,Bot*
G04 #@! TF.FilePolarity,Negative*
%FSLAX46Y46*%
G04 Gerber Fmt 4.6, Leading zero omitted, Abs format (unit mm)*
G04 Created by KiCad (PCBNEW 8.0.9-8.0.9-0~ubuntu24.04.1) date 2025-10-26 13:13:23*
%MOMM*%
%LPD*%
G01*
G04 APERTURE LIST*
G04 Aperture macros list*
%AMRoundRect*
0 Rectangle with rounded corners*
0 $1 Rounding radius*
0 $2 $3 $4 $5 $6 $7 $8 $9 X,Y pos of 4 corners*
0 Add a 4 corners polygon primitive as box body*
4,1,4,$2,$3,$4,$5,$6,$7,$8,$9,$2,$3,0*
0 Add four circle primitives for the rounded corners*
1,1,$1+$1,$2,$3*
1,1,$1+$1,$4,$5*
1,1,$1+$1,$6,$7*
1,1,$1+$1,$8,$9*
0 Add four rect primitives between the rounded corners*
20,1,$1+$1,$2,$3,$4,$5,0*
20,1,$1+$1,$4,$5,$6,$7,0*
20,1,$1+$1,$6,$7,$8,$9,0*
20,1,$1+$1,$8,$9,$2,$3,0*%
G04 Aperture macros list end*
%ADD10R,1.900000X1.900000*%
%ADD11O,1.900000X1.900000*%
%ADD12C,5.000000*%
%ADD13C,3.250000*%
%ADD14R,1.400000X1.400000*%
%ADD15C,1.400000*%
%ADD16C,2.400000*%
%ADD17C,2.700000*%
%ADD18C,3.000000*%
%ADD19R,3.500000X3.500000*%
%ADD20RoundRect,0.750000X-0.750000X-1.000000X0.750000X-1.000000X0.750000X1.000000X-0.750000X1.000000X0*%
%ADD21RoundRect,0.875000X-0.875000X-0.875000X0.875000X-0.875000X0.875000X0.875000X-0.875000X0.875000X0*%
G04 APERTURE END LIST*
D10*
G04 #@! TO.C,J3001*
X191807000Y-74481400D03*
X191807000Y-69401400D03*
D11*
X194347000Y-74481400D03*
X194347000Y-69401400D03*
X196887000Y-74481400D03*
X196887000Y-69401400D03*
X199427000Y-74481400D03*
X199427000Y-69401400D03*
X201967000Y-74481400D03*
X201967000Y-69401400D03*
X204507000Y-74481400D03*
X204507000Y-69401400D03*
X207047000Y-74481400D03*
X207047000Y-69401400D03*
X209587000Y-74481400D03*
X209587000Y-69401400D03*
X212127000Y-74481400D03*
X212127000Y-69401400D03*
X214667000Y-74481400D03*
X214667000Y-69401400D03*
X217207000Y-74481400D03*
X217207000Y-69401400D03*
X219747000Y-74481400D03*
X219747000Y-69401400D03*
G04 #@! TD*
D10*
G04 #@! TO.C,J3003*
X161080000Y-119086000D03*
X161080000Y-124166000D03*
D11*
X158540000Y-119086000D03*
X158540000Y-124166000D03*
X156000000Y-119086000D03*
X156000000Y-124166000D03*
X153460000Y-119086000D03*
X153460000Y-124166000D03*
X150920000Y-119086000D03*
X150920000Y-124166000D03*
X148380000Y-119086000D03*
X148380000Y-124166000D03*
X145840000Y-119086000D03*
X145840000Y-124166000D03*
X143300000Y-119086000D03*
X143300000Y-124166000D03*
X140760000Y-119086000D03*
X140760000Y-124166000D03*
X138220000Y-119086000D03*
X138220000Y-124166000D03*
X135680000Y-119086000D03*
X135680000Y-124166000D03*
X133140000Y-119086000D03*
X133140000Y-124166000D03*
G04 #@! TD*
D12*
G04 #@! TO.C,H3002*
X251737000Y-71441400D03*
G04 #@! TD*
D13*
G04 #@! TO.C,J13001*
X38626273Y-93516301D03*
X38626273Y-80916301D03*
D14*
X41166273Y-90786301D03*
D15*
X42946273Y-89766301D03*
X41166273Y-88746301D03*
X42946273Y-87726301D03*
X41166273Y-86706301D03*
X42946273Y-85686301D03*
X41166273Y-84666301D03*
X42946273Y-83646301D03*
D16*
X42056273Y-95266301D03*
X42056273Y-79166301D03*
G04 #@! TD*
D12*
G04 #@! TO.C,H2001*
X40690000Y-71440000D03*
G04 #@! TD*
D17*
G04 #@! TO.C,J9001*
X252858850Y-106743250D03*
D18*
X242608850Y-110693250D03*
X242608850Y-102793250D03*
G04 #@! TD*
D12*
G04 #@! TO.C,H2002*
X40715400Y-122443200D03*
G04 #@! TD*
G04 #@! TO.C,H3001*
X251737000Y-122495400D03*
G04 #@! TD*
D10*
G04 #@! TO.C,J3006*
X129685600Y-74483600D03*
X129685600Y-69403600D03*
D11*
X132225600Y-74483600D03*
X132225600Y-69403600D03*
X134765600Y-74483600D03*
X134765600Y-69403600D03*
X137305600Y-74483600D03*
X137305600Y-69403600D03*
X139845600Y-74483600D03*
X139845600Y-69403600D03*
X142385600Y-74483600D03*
X142385600Y-69403600D03*
X144925600Y-74483600D03*
X144925600Y-69403600D03*
X147465600Y-74483600D03*
X147465600Y-69403600D03*
X150005600Y-74483600D03*
X150005600Y-69403600D03*
X152545600Y-74483600D03*
X152545600Y-69403600D03*
X155085600Y-74483600D03*
X155085600Y-69403600D03*
X157625600Y-74483600D03*
X157625600Y-69403600D03*
G04 #@! TD*
D17*
G04 #@! TO.C,J15001*
X252867000Y-87491400D03*
D18*
X242617000Y-91441400D03*
X242617000Y-83541400D03*
G04 #@! TD*
D10*
G04 #@! TO.C,J3005*
X163287000Y-74491400D03*
X163287000Y-69411400D03*
D11*
X165827000Y-74491400D03*
X165827000Y-69411400D03*
X168367000Y-74491400D03*
X168367000Y-69411400D03*
X170907000Y-74491400D03*
X170907000Y-69411400D03*
X173447000Y-74491400D03*
X173447000Y-69411400D03*
X175987000Y-74491400D03*
X175987000Y-69411400D03*
X178527000Y-74491400D03*
X178527000Y-69411400D03*
X181067000Y-74491400D03*
X181067000Y-69411400D03*
X183607000Y-74491400D03*
X183607000Y-69411400D03*
X186147000Y-74491400D03*
X186147000Y-69411400D03*
G04 #@! TD*
D10*
G04 #@! TO.C,J3004*
X223365200Y-119088300D03*
X223365200Y-124168300D03*
D11*
X220825200Y-119088300D03*
X220825200Y-124168300D03*
X218285200Y-119088300D03*
X218285200Y-124168300D03*
X215745200Y-119088300D03*
X215745200Y-124168300D03*
X213205200Y-119088300D03*
X213205200Y-124168300D03*
X210665200Y-119088300D03*
X210665200Y-124168300D03*
X208125200Y-119088300D03*
X208125200Y-124168300D03*
X205585200Y-119088300D03*
X205585200Y-124168300D03*
X203045200Y-119088300D03*
X203045200Y-124168300D03*
X200505200Y-119088300D03*
X200505200Y-124168300D03*
X197965200Y-119088300D03*
X197965200Y-124168300D03*
X195425200Y-119088300D03*
X195425200Y-124168300D03*
G04 #@! TD*
D19*
G04 #@! TO.C,J8001*
X47136273Y-103978801D03*
D20*
X41136273Y-103978801D03*
D21*
X44136273Y-108678801D03*
G04 #@! TD*
D10*
G04 #@! TO.C,J3002*
X189687000Y-119091400D03*
X189687000Y-124171400D03*
D11*
X187147000Y-119091400D03*
X187147000Y-124171400D03*
X184607000Y-119091400D03*
X184607000Y-124171400D03*
X182067000Y-119091400D03*
X182067000Y-124171400D03*
X179527000Y-119091400D03*
X179527000Y-124171400D03*
X176987000Y-119091400D03*
X176987000Y-124171400D03*
X174447000Y-119091400D03*
X174447000Y-124171400D03*
X171907000Y-119091400D03*
X171907000Y-124171400D03*
X169367000Y-119091400D03*
X169367000Y-124171400D03*
X166827000Y-119091400D03*
X166827000Y-124171400D03*
G04 #@! TD*
M02*
