G04 #@! TF.GenerationSoftware,KiCad,Pcbnew,8.0.9-8.0.9-0~ubuntu24.04.1*
G04 #@! TF.CreationDate,2025-10-26T13:13:23-04:00*
G04 #@! TF.ProjectId,analog_i,616e616c-6f67-45f6-992e-6b696361645f,rev?*
G04 #@! TF.SameCoordinates,Original*
G04 #@! TF.FileFunction,Soldermask,Top*
G04 #@! TF.FilePolarity,Negative*
%FSLAX46Y46*%
G04 Gerber Fmt 4.6, Leading zero omitted, Abs format (unit mm)*
G04 Created by KiCad (PCBNEW 8.0.9-8.0.9-0~ubuntu24.04.1) date 2025-10-26 13:13:23*
%MOMM*%
%LPD*%
G01*
G04 APERTURE LIST*
G04 Aperture macros list*
%AMRoundRect*
0 Rectangle with rounded corners*
0 $1 Rounding radius*
0 $2 $3 $4 $5 $6 $7 $8 $9 X,Y pos of 4 corners*
0 Add a 4 corners polygon primitive as box body*
4,1,4,$2,$3,$4,$5,$6,$7,$8,$9,$2,$3,0*
0 Add four circle primitives for the rounded corners*
1,1,$1+$1,$2,$3*
1,1,$1+$1,$4,$5*
1,1,$1+$1,$6,$7*
1,1,$1+$1,$8,$9*
0 Add four rect primitives between the rounded corners*
20,1,$1+$1,$2,$3,$4,$5,0*
20,1,$1+$1,$4,$5,$6,$7,0*
20,1,$1+$1,$6,$7,$8,$9,0*
20,1,$1+$1,$8,$9,$2,$3,0*%
%AMRotRect*
0 Rectangle, with rotation*
0 The origin of the aperture is its center*
0 $1 length*
0 $2 width*
0 $3 Rotation angle, in degrees counterclockwise*
0 Add horizontal line*
21,1,$1,$2,0,0,$3*%
G04 Aperture macros list end*
%ADD10RoundRect,0.150000X0.587500X0.150000X-0.587500X0.150000X-0.587500X-0.150000X0.587500X-0.150000X0*%
%ADD11RoundRect,0.250000X0.262500X0.450000X-0.262500X0.450000X-0.262500X-0.450000X0.262500X-0.450000X0*%
%ADD12RoundRect,0.140000X-0.170000X0.140000X-0.170000X-0.140000X0.170000X-0.140000X0.170000X0.140000X0*%
%ADD13R,0.740000X2.400000*%
%ADD14C,1.000000*%
%ADD15R,1.525000X0.700000*%
%ADD16RoundRect,0.225000X0.225000X0.250000X-0.225000X0.250000X-0.225000X-0.250000X0.225000X-0.250000X0*%
%ADD17RoundRect,0.200000X-0.200000X-0.275000X0.200000X-0.275000X0.200000X0.275000X-0.200000X0.275000X0*%
%ADD18RoundRect,0.140000X0.170000X-0.140000X0.170000X0.140000X-0.170000X0.140000X-0.170000X-0.140000X0*%
%ADD19RoundRect,0.150000X-0.512500X-0.150000X0.512500X-0.150000X0.512500X0.150000X-0.512500X0.150000X0*%
%ADD20RoundRect,0.135000X-0.185000X0.135000X-0.185000X-0.135000X0.185000X-0.135000X0.185000X0.135000X0*%
%ADD21RoundRect,0.150000X-0.150000X0.512500X-0.150000X-0.512500X0.150000X-0.512500X0.150000X0.512500X0*%
%ADD22RoundRect,0.200000X0.275000X-0.200000X0.275000X0.200000X-0.275000X0.200000X-0.275000X-0.200000X0*%
%ADD23RoundRect,0.135000X0.185000X-0.135000X0.185000X0.135000X-0.185000X0.135000X-0.185000X-0.135000X0*%
%ADD24RoundRect,0.150000X-0.587500X-0.150000X0.587500X-0.150000X0.587500X0.150000X-0.587500X0.150000X0*%
%ADD25RoundRect,0.200000X-0.275000X0.200000X-0.275000X-0.200000X0.275000X-0.200000X0.275000X0.200000X0*%
%ADD26RoundRect,0.135000X0.135000X0.185000X-0.135000X0.185000X-0.135000X-0.185000X0.135000X-0.185000X0*%
%ADD27RoundRect,0.112500X0.187500X0.112500X-0.187500X0.112500X-0.187500X-0.112500X0.187500X-0.112500X0*%
%ADD28RoundRect,0.140000X0.140000X0.170000X-0.140000X0.170000X-0.140000X-0.170000X0.140000X-0.170000X0*%
%ADD29RoundRect,0.140000X-0.021213X0.219203X-0.219203X0.021213X0.021213X-0.219203X0.219203X-0.021213X0*%
%ADD30RoundRect,0.135000X-0.135000X-0.185000X0.135000X-0.185000X0.135000X0.185000X-0.135000X0.185000X0*%
%ADD31RoundRect,0.140000X0.021213X-0.219203X0.219203X-0.021213X-0.021213X0.219203X-0.219203X0.021213X0*%
%ADD32RoundRect,0.135000X-0.035355X0.226274X-0.226274X0.035355X0.035355X-0.226274X0.226274X-0.035355X0*%
%ADD33RoundRect,0.200000X0.200000X0.275000X-0.200000X0.275000X-0.200000X-0.275000X0.200000X-0.275000X0*%
%ADD34RoundRect,0.140000X-0.140000X-0.170000X0.140000X-0.170000X0.140000X0.170000X-0.140000X0.170000X0*%
%ADD35R,0.700000X1.525000*%
%ADD36RoundRect,0.218750X-0.218750X-0.256250X0.218750X-0.256250X0.218750X0.256250X-0.218750X0.256250X0*%
%ADD37RoundRect,0.225000X0.250000X-0.225000X0.250000X0.225000X-0.250000X0.225000X-0.250000X-0.225000X0*%
%ADD38RoundRect,0.225000X-0.250000X0.225000X-0.250000X-0.225000X0.250000X-0.225000X0.250000X0.225000X0*%
%ADD39RoundRect,0.250000X-0.250000X-0.475000X0.250000X-0.475000X0.250000X0.475000X-0.250000X0.475000X0*%
%ADD40RoundRect,0.140000X-0.219203X-0.021213X-0.021213X-0.219203X0.219203X0.021213X0.021213X0.219203X0*%
%ADD41RoundRect,0.250000X0.250000X0.475000X-0.250000X0.475000X-0.250000X-0.475000X0.250000X-0.475000X0*%
%ADD42RotRect,0.300000X1.475000X225.000000*%
%ADD43RotRect,0.300000X1.475000X135.000000*%
%ADD44RoundRect,0.150000X0.512500X0.150000X-0.512500X0.150000X-0.512500X-0.150000X0.512500X-0.150000X0*%
%ADD45RoundRect,0.250000X-0.450000X0.262500X-0.450000X-0.262500X0.450000X-0.262500X0.450000X0.262500X0*%
%ADD46RoundRect,0.225000X-0.225000X-0.250000X0.225000X-0.250000X0.225000X0.250000X-0.225000X0.250000X0*%
%ADD47RoundRect,0.150000X0.150000X-0.512500X0.150000X0.512500X-0.150000X0.512500X-0.150000X-0.512500X0*%
%ADD48RoundRect,0.112500X-0.187500X-0.112500X0.187500X-0.112500X0.187500X0.112500X-0.187500X0.112500X0*%
%ADD49R,1.900000X1.900000*%
%ADD50O,1.900000X1.900000*%
%ADD51RoundRect,0.250000X1.000000X0.650000X-1.000000X0.650000X-1.000000X-0.650000X1.000000X-0.650000X0*%
%ADD52RoundRect,0.140000X0.219203X0.021213X0.021213X0.219203X-0.219203X-0.021213X-0.021213X-0.219203X0*%
%ADD53C,5.000000*%
%ADD54R,1.900000X3.400000*%
%ADD55RoundRect,0.250000X-1.000000X-0.650000X1.000000X-0.650000X1.000000X0.650000X-1.000000X0.650000X0*%
%ADD56C,3.250000*%
%ADD57R,1.400000X1.400000*%
%ADD58C,1.400000*%
%ADD59C,2.400000*%
%ADD60RoundRect,0.150000X-0.150000X0.587500X-0.150000X-0.587500X0.150000X-0.587500X0.150000X0.587500X0*%
%ADD61RoundRect,0.250000X-1.425000X0.362500X-1.425000X-0.362500X1.425000X-0.362500X1.425000X0.362500X0*%
%ADD62R,0.600000X1.200000*%
%ADD63RoundRect,0.100000X0.225000X0.100000X-0.225000X0.100000X-0.225000X-0.100000X0.225000X-0.100000X0*%
%ADD64RoundRect,0.100000X-0.225000X-0.100000X0.225000X-0.100000X0.225000X0.100000X-0.225000X0.100000X0*%
%ADD65RoundRect,0.150000X0.825000X0.150000X-0.825000X0.150000X-0.825000X-0.150000X0.825000X-0.150000X0*%
%ADD66R,1.200000X1.400000*%
%ADD67C,2.700000*%
%ADD68C,3.000000*%
%ADD69RoundRect,0.150000X-0.825000X-0.150000X0.825000X-0.150000X0.825000X0.150000X-0.825000X0.150000X0*%
%ADD70RoundRect,0.225000X0.335876X0.017678X0.017678X0.335876X-0.335876X-0.017678X-0.017678X-0.335876X0*%
%ADD71RoundRect,0.250000X0.450000X-0.262500X0.450000X0.262500X-0.450000X0.262500X-0.450000X-0.262500X0*%
%ADD72RoundRect,0.218750X0.256250X-0.218750X0.256250X0.218750X-0.256250X0.218750X-0.256250X-0.218750X0*%
%ADD73RoundRect,0.062500X-0.375000X-0.062500X0.375000X-0.062500X0.375000X0.062500X-0.375000X0.062500X0*%
%ADD74RoundRect,0.062500X-0.062500X-0.375000X0.062500X-0.375000X0.062500X0.375000X-0.062500X0.375000X0*%
%ADD75R,2.500000X2.500000*%
%ADD76RoundRect,0.135000X0.035355X-0.226274X0.226274X-0.035355X-0.035355X0.226274X-0.226274X0.035355X0*%
%ADD77R,0.800000X0.900000*%
%ADD78R,3.500000X3.500000*%
%ADD79RoundRect,0.750000X-0.750000X-1.000000X0.750000X-1.000000X0.750000X1.000000X-0.750000X1.000000X0*%
%ADD80RoundRect,0.875000X-0.875000X-0.875000X0.875000X-0.875000X0.875000X0.875000X-0.875000X0.875000X0*%
%ADD81R,1.000000X0.750000*%
%ADD82RoundRect,0.218750X0.218750X0.381250X-0.218750X0.381250X-0.218750X-0.381250X0.218750X-0.381250X0*%
%ADD83R,1.645000X0.800000*%
%ADD84RoundRect,0.225000X0.017678X-0.335876X0.335876X-0.017678X-0.017678X0.335876X-0.335876X0.017678X0*%
G04 APERTURE END LIST*
D10*
G04 #@! TO.C,Q43002*
X205164500Y-105633900D03*
X205164500Y-103733900D03*
X203289500Y-104683900D03*
G04 #@! TD*
D11*
G04 #@! TO.C,R55002*
X145460300Y-78564400D03*
X143635300Y-78564400D03*
G04 #@! TD*
D12*
G04 #@! TO.C,C47004*
X196784500Y-108288900D03*
X196784500Y-109248900D03*
G04 #@! TD*
G04 #@! TO.C,R26001*
X188838750Y-111078050D03*
X188838750Y-112038050D03*
G04 #@! TD*
D13*
G04 #@! TO.C,J6001*
X93076273Y-66996301D03*
X93076273Y-70896301D03*
X91806273Y-66996301D03*
X91806273Y-70896301D03*
X90536273Y-66996301D03*
X90536273Y-70896301D03*
X89266273Y-66996301D03*
X89266273Y-70896301D03*
X87996273Y-66996301D03*
X87996273Y-70896301D03*
X86726273Y-66996301D03*
X86726273Y-70896301D03*
X85456273Y-66996301D03*
X85456273Y-70896301D03*
G04 #@! TD*
D10*
G04 #@! TO.C,Q37002*
X225677000Y-101083900D03*
X225677000Y-99183900D03*
X223802000Y-100133900D03*
G04 #@! TD*
D14*
G04 #@! TO.C,TP7003*
X110146273Y-118806301D03*
G04 #@! TD*
D15*
G04 #@! TO.C,IC17004*
X130055600Y-109919600D03*
X130055600Y-111189600D03*
X130055600Y-112459600D03*
X130055600Y-113729600D03*
X135479600Y-113729600D03*
X135479600Y-112459600D03*
X135479600Y-111189600D03*
X135479600Y-109919600D03*
G04 #@! TD*
D16*
G04 #@! TO.C,C11002*
X63669473Y-73984501D03*
X62119473Y-73984501D03*
G04 #@! TD*
G04 #@! TO.C,C8001*
X41957046Y-111546597D03*
X40407046Y-111546597D03*
G04 #@! TD*
D17*
G04 #@! TO.C,R5006*
X162473400Y-108383900D03*
X164123400Y-108383900D03*
G04 #@! TD*
D18*
G04 #@! TO.C,C23003*
X172054500Y-105963900D03*
X172054500Y-105003900D03*
G04 #@! TD*
D19*
G04 #@! TO.C,IC5002*
X162719700Y-109923100D03*
X162719700Y-110873100D03*
X162719700Y-111823100D03*
X164994700Y-111823100D03*
X164994700Y-109923100D03*
G04 #@! TD*
D20*
G04 #@! TO.C,R7017*
X67105400Y-103262800D03*
X67105400Y-104282800D03*
G04 #@! TD*
D21*
G04 #@! TO.C,IC4003*
X218564500Y-93741900D03*
X217614500Y-93741900D03*
X216664500Y-93741900D03*
X216664500Y-96016900D03*
X218564500Y-96016900D03*
G04 #@! TD*
D14*
G04 #@! TO.C,TP7002*
X109098177Y-76253701D03*
G04 #@! TD*
D22*
G04 #@! TO.C,R3002*
X238835000Y-123466400D03*
X238835000Y-121816400D03*
G04 #@! TD*
D23*
G04 #@! TO.C,R8005*
X43264273Y-116346597D03*
X43264273Y-115326597D03*
G04 #@! TD*
D24*
G04 #@! TO.C,Q39001*
X211889500Y-99221400D03*
X211889500Y-101121400D03*
X213764500Y-100171400D03*
G04 #@! TD*
D18*
G04 #@! TO.C,C47002*
X192700100Y-113479100D03*
X192700100Y-112519100D03*
G04 #@! TD*
D25*
G04 #@! TO.C,R7021*
X59522273Y-78664301D03*
X59522273Y-80314301D03*
G04 #@! TD*
D26*
G04 #@! TO.C,R38002*
X217748200Y-106558400D03*
X216728200Y-106558400D03*
G04 #@! TD*
D27*
G04 #@! TO.C,D55001*
X145617000Y-80596400D03*
X143517000Y-80596400D03*
G04 #@! TD*
D28*
G04 #@! TO.C,C29001*
X153001600Y-97019601D03*
X152041600Y-97019601D03*
G04 #@! TD*
D29*
G04 #@! TO.C,C6001*
X101425400Y-111407800D03*
X100746578Y-112086622D03*
G04 #@! TD*
D23*
G04 #@! TO.C,R28001*
X143767001Y-96591400D03*
X143767001Y-95571400D03*
G04 #@! TD*
D30*
G04 #@! TO.C,R33002*
X138157000Y-96001401D03*
X139177000Y-96001401D03*
G04 #@! TD*
D28*
G04 #@! TO.C,R4001*
X214047000Y-97196400D03*
X213087000Y-97196400D03*
G04 #@! TD*
D10*
G04 #@! TO.C,Q19001*
X235314500Y-78073900D03*
X235314500Y-76173900D03*
X233439500Y-77123900D03*
G04 #@! TD*
D31*
G04 #@! TO.C,C6013*
X111265989Y-97207211D03*
X111944811Y-96528389D03*
G04 #@! TD*
D32*
G04 #@! TO.C,R6022*
X91599963Y-112111538D03*
X90878715Y-112832786D03*
G04 #@! TD*
D33*
G04 #@! TO.C,R6017*
X120322800Y-89679200D03*
X118672800Y-89679200D03*
G04 #@! TD*
D14*
G04 #@! TO.C,TP8002*
X109056273Y-64996301D03*
G04 #@! TD*
D23*
G04 #@! TO.C,R8007*
X43264273Y-114421597D03*
X43264273Y-113401597D03*
G04 #@! TD*
D34*
G04 #@! TO.C,C17004*
X184046950Y-94528050D03*
X185006950Y-94528050D03*
G04 #@! TD*
D35*
G04 #@! TO.C,IC4001*
X208007000Y-89607400D03*
X206737000Y-89607400D03*
X205467000Y-89607400D03*
X204197000Y-89607400D03*
X204197000Y-95031400D03*
X205467000Y-95031400D03*
X206737000Y-95031400D03*
X208007000Y-95031400D03*
G04 #@! TD*
D18*
G04 #@! TO.C,C5010*
X160860000Y-108688700D03*
X160860000Y-107728700D03*
G04 #@! TD*
D33*
G04 #@! TO.C,R6002*
X120346200Y-112216400D03*
X118696200Y-112216400D03*
G04 #@! TD*
D26*
G04 #@! TO.C,R57001*
X153347000Y-82031400D03*
X152327000Y-82031400D03*
G04 #@! TD*
D36*
G04 #@! TO.C,D6004*
X86342900Y-120652800D03*
X87917900Y-120652800D03*
G04 #@! TD*
D28*
G04 #@! TO.C,C21004*
X160267500Y-99098700D03*
X159307500Y-99098700D03*
G04 #@! TD*
D18*
G04 #@! TO.C,C17006*
X230042450Y-104985450D03*
X230042450Y-104025450D03*
G04 #@! TD*
D21*
G04 #@! TO.C,U47001*
X195497300Y-108790500D03*
X194547300Y-108790500D03*
X193597300Y-108790500D03*
X193597300Y-111065500D03*
X195497300Y-111065500D03*
G04 #@! TD*
D37*
G04 #@! TO.C,C3001*
X202054000Y-80554800D03*
X202054000Y-79004800D03*
G04 #@! TD*
D12*
G04 #@! TO.C,C31002*
X150931600Y-107889600D03*
X150931600Y-108849600D03*
G04 #@! TD*
G04 #@! TO.C,C9002*
X234527850Y-100749550D03*
X234527850Y-101709550D03*
G04 #@! TD*
D18*
G04 #@! TO.C,C7007*
X71337773Y-83574805D03*
X71337773Y-82614805D03*
G04 #@! TD*
D38*
G04 #@! TO.C,C28001*
X154847000Y-100856400D03*
X154847000Y-102406400D03*
G04 #@! TD*
D33*
G04 #@! TO.C,R3001*
X241662000Y-97191400D03*
X240012000Y-97191400D03*
G04 #@! TD*
D20*
G04 #@! TO.C,R8006*
X43264273Y-111481597D03*
X43264273Y-112501597D03*
G04 #@! TD*
D12*
G04 #@! TO.C,C47001*
X195771700Y-112488100D03*
X195771700Y-113448100D03*
G04 #@! TD*
D11*
G04 #@! TO.C,R51001*
X181114000Y-80587400D03*
X179289000Y-80587400D03*
G04 #@! TD*
D23*
G04 #@! TO.C,R7016*
X69553073Y-90148101D03*
X69553073Y-89128101D03*
G04 #@! TD*
G04 #@! TO.C,R7015*
X61641273Y-104376301D03*
X61641273Y-103356301D03*
G04 #@! TD*
D34*
G04 #@! TO.C,C17003*
X181669800Y-97010501D03*
X182629800Y-97010501D03*
G04 #@! TD*
D30*
G04 #@! TO.C,R12005*
X69053073Y-63871301D03*
X70073073Y-63871301D03*
G04 #@! TD*
G04 #@! TO.C,R6026*
X89265400Y-122927800D03*
X90285400Y-122927800D03*
G04 #@! TD*
D36*
G04 #@! TO.C,D12004*
X47658773Y-63946597D03*
X49233773Y-63946597D03*
G04 #@! TD*
D18*
G04 #@! TO.C,C13010*
X171797000Y-108603900D03*
X171797000Y-107643900D03*
G04 #@! TD*
D35*
G04 #@! TO.C,IC53001*
X130567000Y-84979100D03*
X131837000Y-84979100D03*
X133107000Y-84979100D03*
X134377000Y-84979100D03*
X134377000Y-79555100D03*
X133107000Y-79555100D03*
X131837000Y-79555100D03*
X130567000Y-79555100D03*
G04 #@! TD*
D12*
G04 #@! TO.C,R5004*
X158297700Y-96023800D03*
X158297700Y-96983800D03*
G04 #@! TD*
D39*
G04 #@! TO.C,C8003*
X51366273Y-108006597D03*
X53266273Y-108006597D03*
G04 #@! TD*
D33*
G04 #@! TO.C,R18002*
X146552000Y-108141400D03*
X144902000Y-108141400D03*
G04 #@! TD*
D30*
G04 #@! TO.C,R7008*
X70577400Y-113063800D03*
X71597400Y-113063800D03*
G04 #@! TD*
D20*
G04 #@! TO.C,R22001*
X148947000Y-95621401D03*
X148947000Y-96641401D03*
G04 #@! TD*
D12*
G04 #@! TO.C,C36003*
X226714600Y-110846200D03*
X226714600Y-111806200D03*
G04 #@! TD*
D34*
G04 #@! TO.C,C15006*
X231738800Y-94877600D03*
X232698800Y-94877600D03*
G04 #@! TD*
D20*
G04 #@! TO.C,R18001*
X148807000Y-107471400D03*
X148807000Y-108491400D03*
G04 #@! TD*
D17*
G04 #@! TO.C,R38001*
X214482800Y-115372200D03*
X216132800Y-115372200D03*
G04 #@! TD*
D23*
G04 #@! TO.C,R17001*
X230067850Y-106950450D03*
X230067850Y-105930450D03*
G04 #@! TD*
D39*
G04 #@! TO.C,C14007*
X73352473Y-64080501D03*
X75252473Y-64080501D03*
G04 #@! TD*
D40*
G04 #@! TO.C,C6038*
X85235552Y-91642127D03*
X85914374Y-92320949D03*
G04 #@! TD*
D30*
G04 #@! TO.C,R7007*
X73097400Y-110603800D03*
X74117400Y-110603800D03*
G04 #@! TD*
D41*
G04 #@! TO.C,C11007*
X70229473Y-65984501D03*
X68329473Y-65984501D03*
G04 #@! TD*
D17*
G04 #@! TO.C,R12007*
X63188073Y-63931301D03*
X64838073Y-63931301D03*
G04 #@! TD*
D35*
G04 #@! TO.C,IC9001*
X235325650Y-107155450D03*
X234055650Y-107155450D03*
X232785650Y-107155450D03*
X231515650Y-107155450D03*
X231515650Y-112579450D03*
X232785650Y-112579450D03*
X234055650Y-112579450D03*
X235325650Y-112579450D03*
G04 #@! TD*
D42*
G04 #@! TO.C,IC6001*
X97561128Y-113157897D03*
X97914682Y-112804344D03*
X98268235Y-112450790D03*
X98621788Y-112097237D03*
X98975342Y-111743683D03*
X99328895Y-111390130D03*
X99682449Y-111036577D03*
X100036002Y-110683023D03*
X100389555Y-110329470D03*
X100743109Y-109975916D03*
X101096662Y-109622363D03*
X101450216Y-109268810D03*
X101803769Y-108915256D03*
X102157322Y-108561703D03*
X102510876Y-108208149D03*
X102864429Y-107854596D03*
X103217983Y-107501043D03*
X103571536Y-107147489D03*
X103925089Y-106793936D03*
X104278643Y-106440383D03*
X104632196Y-106086829D03*
X104985749Y-105733276D03*
X105339303Y-105379722D03*
X105692856Y-105026169D03*
X106046410Y-104672616D03*
X106399963Y-104319062D03*
X106753516Y-103965509D03*
X107107070Y-103611955D03*
X107460623Y-103258402D03*
X107814177Y-102904849D03*
X108167730Y-102551295D03*
X108521283Y-102197742D03*
X108874837Y-101844188D03*
X109228390Y-101490635D03*
X109581944Y-101137082D03*
X109935497Y-100783528D03*
D43*
X109935497Y-97972072D03*
X109581944Y-97618518D03*
X109228390Y-97264965D03*
X108874837Y-96911412D03*
X108521283Y-96557858D03*
X108167730Y-96204305D03*
X107814177Y-95850751D03*
X107460623Y-95497198D03*
X107107070Y-95143645D03*
X106753516Y-94790091D03*
X106399963Y-94436538D03*
X106046410Y-94082984D03*
X105692856Y-93729431D03*
X105339303Y-93375878D03*
X104985749Y-93022324D03*
X104632196Y-92668771D03*
X104278643Y-92315217D03*
X103925089Y-91961664D03*
X103571536Y-91608111D03*
X103217983Y-91254557D03*
X102864429Y-90901004D03*
X102510876Y-90547451D03*
X102157322Y-90193897D03*
X101803769Y-89840344D03*
X101450216Y-89486790D03*
X101096662Y-89133237D03*
X100743109Y-88779684D03*
X100389555Y-88426130D03*
X100036002Y-88072577D03*
X99682449Y-87719023D03*
X99328895Y-87365470D03*
X98975342Y-87011917D03*
X98621788Y-86658363D03*
X98268235Y-86304810D03*
X97914682Y-85951256D03*
X97561128Y-85597703D03*
D42*
X94749672Y-85597703D03*
X94396118Y-85951256D03*
X94042565Y-86304810D03*
X93689012Y-86658363D03*
X93335458Y-87011917D03*
X92981905Y-87365470D03*
X92628351Y-87719023D03*
X92274798Y-88072577D03*
X91921245Y-88426130D03*
X91567691Y-88779684D03*
X91214138Y-89133237D03*
X90860584Y-89486790D03*
X90507031Y-89840344D03*
X90153478Y-90193897D03*
X89799924Y-90547451D03*
X89446371Y-90901004D03*
X89092817Y-91254557D03*
X88739264Y-91608111D03*
X88385711Y-91961664D03*
X88032157Y-92315217D03*
X87678604Y-92668771D03*
X87325051Y-93022324D03*
X86971497Y-93375878D03*
X86617944Y-93729431D03*
X86264390Y-94082984D03*
X85910837Y-94436538D03*
X85557284Y-94790091D03*
X85203730Y-95143645D03*
X84850177Y-95497198D03*
X84496623Y-95850751D03*
X84143070Y-96204305D03*
X83789517Y-96557858D03*
X83435963Y-96911412D03*
X83082410Y-97264965D03*
X82728856Y-97618518D03*
X82375303Y-97972072D03*
D43*
X82375303Y-100783528D03*
X82728856Y-101137082D03*
X83082410Y-101490635D03*
X83435963Y-101844188D03*
X83789517Y-102197742D03*
X84143070Y-102551295D03*
X84496623Y-102904849D03*
X84850177Y-103258402D03*
X85203730Y-103611955D03*
X85557284Y-103965509D03*
X85910837Y-104319062D03*
X86264390Y-104672616D03*
X86617944Y-105026169D03*
X86971497Y-105379722D03*
X87325051Y-105733276D03*
X87678604Y-106086829D03*
X88032157Y-106440383D03*
X88385711Y-106793936D03*
X88739264Y-107147489D03*
X89092817Y-107501043D03*
X89446371Y-107854596D03*
X89799924Y-108208149D03*
X90153478Y-108561703D03*
X90507031Y-108915256D03*
X90860584Y-109268810D03*
X91214138Y-109622363D03*
X91567691Y-109975916D03*
X91921245Y-110329470D03*
X92274798Y-110683023D03*
X92628351Y-111036577D03*
X92981905Y-111390130D03*
X93335458Y-111743683D03*
X93689012Y-112097237D03*
X94042565Y-112450790D03*
X94396118Y-112804344D03*
X94749672Y-113157897D03*
G04 #@! TD*
D44*
G04 #@! TO.C,U15001*
X202371700Y-93346800D03*
X202371700Y-92396800D03*
X202371700Y-91446800D03*
X200096700Y-91446800D03*
X200096700Y-93346800D03*
G04 #@! TD*
D31*
G04 #@! TO.C,C6012*
X110675400Y-102207800D03*
X111354222Y-101528978D03*
G04 #@! TD*
D28*
G04 #@! TO.C,C17008*
X231922050Y-98798550D03*
X230962050Y-98798550D03*
G04 #@! TD*
D23*
G04 #@! TO.C,R29001*
X149987000Y-96651401D03*
X149987000Y-95631401D03*
G04 #@! TD*
D18*
G04 #@! TO.C,R9006*
X162117500Y-106058700D03*
X162117500Y-105098700D03*
G04 #@! TD*
D12*
G04 #@! TO.C,C17009*
X229947000Y-80581400D03*
X229947000Y-81541400D03*
G04 #@! TD*
D26*
G04 #@! TO.C,R7003*
X65847400Y-113063800D03*
X64827400Y-113063800D03*
G04 #@! TD*
D12*
G04 #@! TO.C,C14001*
X134082400Y-95633200D03*
X134082400Y-96593200D03*
G04 #@! TD*
D45*
G04 #@! TO.C,R17003*
X187848650Y-113359750D03*
X187848650Y-115184750D03*
G04 #@! TD*
D46*
G04 #@! TO.C,C34001*
X132817000Y-115361400D03*
X134367000Y-115361400D03*
G04 #@! TD*
D23*
G04 #@! TO.C,R6028*
X97016273Y-65616301D03*
X97016273Y-64596301D03*
G04 #@! TD*
D28*
G04 #@! TO.C,C4010*
X218882600Y-97478800D03*
X217922600Y-97478800D03*
G04 #@! TD*
G04 #@! TO.C,C41003*
X209457000Y-106943900D03*
X208497000Y-106943900D03*
G04 #@! TD*
D18*
G04 #@! TO.C,R23002*
X173054500Y-105973900D03*
X173054500Y-105013900D03*
G04 #@! TD*
D35*
G04 #@! TO.C,IC13001*
X172660600Y-101491900D03*
X173930600Y-101491900D03*
X175200600Y-101491900D03*
X176470600Y-101491900D03*
X176470600Y-96067900D03*
X175200600Y-96067900D03*
X173930600Y-96067900D03*
X172660600Y-96067900D03*
G04 #@! TD*
D12*
G04 #@! TO.C,R4004*
X213322000Y-89329401D03*
X213322000Y-90289401D03*
G04 #@! TD*
D34*
G04 #@! TO.C,C9003*
X234512850Y-102719550D03*
X235472850Y-102719550D03*
G04 #@! TD*
D18*
G04 #@! TO.C,C26002*
X188808750Y-106608050D03*
X188808750Y-105648050D03*
G04 #@! TD*
D35*
G04 #@! TO.C,IC15001*
X235333800Y-87903600D03*
X234063800Y-87903600D03*
X232793800Y-87903600D03*
X231523800Y-87903600D03*
X231523800Y-93327600D03*
X232793800Y-93327600D03*
X234063800Y-93327600D03*
X235333800Y-93327600D03*
G04 #@! TD*
D21*
G04 #@! TO.C,U29001*
X153271600Y-98482101D03*
X152321600Y-98482101D03*
X151371600Y-98482101D03*
X151371600Y-100757101D03*
X153271600Y-100757101D03*
G04 #@! TD*
D33*
G04 #@! TO.C,R6013*
X120326200Y-95341400D03*
X118676200Y-95341400D03*
G04 #@! TD*
D21*
G04 #@! TO.C,U27001*
X182361150Y-100460150D03*
X181411150Y-100460150D03*
X180461150Y-100460150D03*
X180461150Y-102735150D03*
X182361150Y-102735150D03*
G04 #@! TD*
D34*
G04 #@! TO.C,C15003*
X234521000Y-83467700D03*
X235481000Y-83467700D03*
G04 #@! TD*
D31*
G04 #@! TO.C,C6032*
X84905552Y-106775949D03*
X85584374Y-106097127D03*
G04 #@! TD*
D26*
G04 #@! TO.C,R55001*
X144407200Y-82114500D03*
X143387200Y-82114500D03*
G04 #@! TD*
D10*
G04 #@! TO.C,Q39002*
X217702000Y-101131400D03*
X217702000Y-99231400D03*
X215827000Y-100181400D03*
G04 #@! TD*
D12*
G04 #@! TO.C,C18001*
X147807000Y-107511400D03*
X147807000Y-108471400D03*
G04 #@! TD*
D26*
G04 #@! TO.C,R46001*
X193695700Y-114463500D03*
X192675700Y-114463500D03*
G04 #@! TD*
D47*
G04 #@! TO.C,U41001*
X208814800Y-110693900D03*
X209764800Y-110693900D03*
X210714800Y-110693900D03*
X210714800Y-108418900D03*
X208814800Y-108418900D03*
G04 #@! TD*
D23*
G04 #@! TO.C,R19002*
X231041200Y-85766200D03*
X231041200Y-84746200D03*
G04 #@! TD*
D28*
G04 #@! TO.C,C4007*
X211897600Y-97504200D03*
X210937600Y-97504200D03*
G04 #@! TD*
D19*
G04 #@! TO.C,IC13002*
X173656700Y-109838300D03*
X173656700Y-110788300D03*
X173656700Y-111738300D03*
X175931700Y-111738300D03*
X175931700Y-109838300D03*
G04 #@! TD*
D18*
G04 #@! TO.C,C27002*
X180176750Y-105153950D03*
X180176750Y-104193950D03*
G04 #@! TD*
D48*
G04 #@! TO.C,D51001*
X179153400Y-78530000D03*
X181253400Y-78530000D03*
G04 #@! TD*
D30*
G04 #@! TO.C,R7002*
X66747400Y-114293800D03*
X67767400Y-114293800D03*
G04 #@! TD*
D28*
G04 #@! TO.C,C5002*
X160217500Y-96061400D03*
X159257500Y-96061400D03*
G04 #@! TD*
D34*
G04 #@! TO.C,C5003*
X159260300Y-97070501D03*
X160220300Y-97070501D03*
G04 #@! TD*
D26*
G04 #@! TO.C,R36002*
X225915200Y-106558000D03*
X224895200Y-106558000D03*
G04 #@! TD*
D12*
G04 #@! TO.C,C37004*
X220177000Y-102311400D03*
X220177000Y-103271400D03*
G04 #@! TD*
D17*
G04 #@! TO.C,R17002*
X185753650Y-103350250D03*
X187403650Y-103350250D03*
G04 #@! TD*
D20*
G04 #@! TO.C,R7013*
X69553073Y-86435701D03*
X69553073Y-87455701D03*
G04 #@! TD*
D28*
G04 #@! TO.C,C15004*
X235695000Y-94878000D03*
X234735000Y-94878000D03*
G04 #@! TD*
D14*
G04 #@! TO.C,TP7004*
X109016273Y-68716301D03*
G04 #@! TD*
D30*
G04 #@! TO.C,R35002*
X137986600Y-107929600D03*
X139006600Y-107929600D03*
G04 #@! TD*
D28*
G04 #@! TO.C,C7008*
X71427400Y-106773800D03*
X70467400Y-106773800D03*
G04 #@! TD*
D12*
G04 #@! TO.C,C35002*
X137036600Y-107939600D03*
X137036600Y-108899600D03*
G04 #@! TD*
D21*
G04 #@! TO.C,U24001*
X170906900Y-100456000D03*
X169956900Y-100456000D03*
X169006900Y-100456000D03*
X169006900Y-102731000D03*
X170906900Y-102731000D03*
G04 #@! TD*
D49*
G04 #@! TO.C,J3001*
X191807000Y-74481400D03*
X191807000Y-69401400D03*
D50*
X194347000Y-74481400D03*
X194347000Y-69401400D03*
X196887000Y-74481400D03*
X196887000Y-69401400D03*
X199427000Y-74481400D03*
X199427000Y-69401400D03*
X201967000Y-74481400D03*
X201967000Y-69401400D03*
X204507000Y-74481400D03*
X204507000Y-69401400D03*
X207047000Y-74481400D03*
X207047000Y-69401400D03*
X209587000Y-74481400D03*
X209587000Y-69401400D03*
X212127000Y-74481400D03*
X212127000Y-69401400D03*
X214667000Y-74481400D03*
X214667000Y-69401400D03*
X217207000Y-74481400D03*
X217207000Y-69401400D03*
X219747000Y-74481400D03*
X219747000Y-69401400D03*
G04 #@! TD*
D17*
G04 #@! TO.C,R5002*
X163362400Y-103430900D03*
X165012400Y-103430900D03*
G04 #@! TD*
D40*
G04 #@! TO.C,C6039*
X89110552Y-87747127D03*
X89789374Y-88425949D03*
G04 #@! TD*
D24*
G04 #@! TO.C,Q35002*
X136429500Y-104371400D03*
X136429500Y-106271400D03*
X138304500Y-105321400D03*
G04 #@! TD*
D23*
G04 #@! TO.C,R7011*
X69553073Y-83645701D03*
X69553073Y-82625701D03*
G04 #@! TD*
D22*
G04 #@! TO.C,R4009*
X215042000Y-93079401D03*
X215042000Y-91429401D03*
G04 #@! TD*
D49*
G04 #@! TO.C,J3003*
X161080000Y-119086000D03*
X161080000Y-124166000D03*
D50*
X158540000Y-119086000D03*
X158540000Y-124166000D03*
X156000000Y-119086000D03*
X156000000Y-124166000D03*
X153460000Y-119086000D03*
X153460000Y-124166000D03*
X150920000Y-119086000D03*
X150920000Y-124166000D03*
X148380000Y-119086000D03*
X148380000Y-124166000D03*
X145840000Y-119086000D03*
X145840000Y-124166000D03*
X143300000Y-119086000D03*
X143300000Y-124166000D03*
X140760000Y-119086000D03*
X140760000Y-124166000D03*
X138220000Y-119086000D03*
X138220000Y-124166000D03*
X135680000Y-119086000D03*
X135680000Y-124166000D03*
X133140000Y-119086000D03*
X133140000Y-124166000D03*
G04 #@! TD*
D20*
G04 #@! TO.C,R43002*
X205072000Y-113132000D03*
X205072000Y-114152000D03*
G04 #@! TD*
D34*
G04 #@! TO.C,C31003*
X150921600Y-114049600D03*
X151881600Y-114049600D03*
G04 #@! TD*
D47*
G04 #@! TO.C,U43001*
X203620100Y-110679500D03*
X204570100Y-110679500D03*
X205520100Y-110679500D03*
X205520100Y-108404500D03*
X203620100Y-108404500D03*
G04 #@! TD*
D51*
G04 #@! TO.C,D17001*
X185225850Y-114323050D03*
X181225850Y-114323050D03*
G04 #@! TD*
D10*
G04 #@! TO.C,Q45002*
X200914500Y-107028900D03*
X200914500Y-105128900D03*
X199039500Y-106078900D03*
G04 #@! TD*
D20*
G04 #@! TO.C,R21001*
X158828000Y-104190900D03*
X158828000Y-105210900D03*
G04 #@! TD*
D47*
G04 #@! TO.C,U17002*
X231251450Y-102552250D03*
X232201450Y-102552250D03*
X233151450Y-102552250D03*
X233151450Y-100277250D03*
X231251450Y-100277250D03*
G04 #@! TD*
D19*
G04 #@! TO.C,IC17003*
X180620650Y-109866450D03*
X180620650Y-110816450D03*
X180620650Y-111766450D03*
X182895650Y-111766450D03*
X182895650Y-109866450D03*
G04 #@! TD*
D29*
G04 #@! TO.C,C6006*
X106294222Y-109448978D03*
X105615400Y-110127800D03*
G04 #@! TD*
D18*
G04 #@! TO.C,C21002*
X157785500Y-105234600D03*
X157785500Y-104274600D03*
G04 #@! TD*
G04 #@! TO.C,C24002*
X168725100Y-107054800D03*
X168725100Y-106094800D03*
G04 #@! TD*
D27*
G04 #@! TO.C,D56001*
X150082700Y-80554200D03*
X147982700Y-80554200D03*
G04 #@! TD*
D52*
G04 #@! TO.C,C6024*
X111444811Y-105657211D03*
X110765989Y-104978389D03*
G04 #@! TD*
D33*
G04 #@! TO.C,R4002*
X206555600Y-87776000D03*
X204905600Y-87776000D03*
G04 #@! TD*
D34*
G04 #@! TO.C,C54002*
X140374200Y-77977400D03*
X141334200Y-77977400D03*
G04 #@! TD*
D37*
G04 #@! TO.C,C3003*
X237275000Y-123406400D03*
X237275000Y-121856400D03*
G04 #@! TD*
D28*
G04 #@! TO.C,C37002*
X225652000Y-102468600D03*
X224692000Y-102468600D03*
G04 #@! TD*
D22*
G04 #@! TO.C,R4006*
X213522000Y-93079401D03*
X213522000Y-91429401D03*
G04 #@! TD*
D12*
G04 #@! TO.C,C38003*
X218592000Y-111023400D03*
X218592000Y-111983400D03*
G04 #@! TD*
D24*
G04 #@! TO.C,Q31001*
X146419500Y-104318900D03*
X146419500Y-106218900D03*
X148294500Y-105268900D03*
G04 #@! TD*
D12*
G04 #@! TO.C,C16001*
X230147000Y-92331400D03*
X230147000Y-93291400D03*
G04 #@! TD*
D29*
G04 #@! TO.C,C6002*
X102794811Y-110108389D03*
X102115989Y-110787211D03*
G04 #@! TD*
D53*
G04 #@! TO.C,H3002*
X251737000Y-71441400D03*
G04 #@! TD*
D34*
G04 #@! TO.C,C8005*
X49326273Y-110506301D03*
X50286273Y-110506301D03*
G04 #@! TD*
D23*
G04 #@! TO.C,R47001*
X193714300Y-113526900D03*
X193714300Y-112506900D03*
G04 #@! TD*
D16*
G04 #@! TO.C,C10005*
X51196073Y-73979197D03*
X49646073Y-73979197D03*
G04 #@! TD*
D24*
G04 #@! TO.C,Q21002*
X157899500Y-92841400D03*
X157899500Y-94741400D03*
X159774500Y-93791400D03*
G04 #@! TD*
D38*
G04 #@! TO.C,C6049*
X101417473Y-121974997D03*
X101417473Y-123524997D03*
G04 #@! TD*
D46*
G04 #@! TO.C,C14006*
X79420273Y-67890501D03*
X80970273Y-67890501D03*
G04 #@! TD*
D34*
G04 #@! TO.C,R4005*
X216292000Y-89379401D03*
X217252000Y-89379401D03*
G04 #@! TD*
D28*
G04 #@! TO.C,C39003*
X215787800Y-106583800D03*
X214827800Y-106583800D03*
G04 #@! TD*
D15*
G04 #@! TO.C,IC20001*
X130226000Y-97991400D03*
X130226000Y-99261400D03*
X130226000Y-100531400D03*
X130226000Y-101801400D03*
X135650000Y-101801400D03*
X135650000Y-100531400D03*
X135650000Y-99261400D03*
X135650000Y-97991400D03*
G04 #@! TD*
D29*
G04 #@! TO.C,C6031*
X106354222Y-90948978D03*
X105675400Y-91627800D03*
G04 #@! TD*
D30*
G04 #@! TO.C,R6030*
X90971273Y-73757800D03*
X91991273Y-73757800D03*
G04 #@! TD*
D31*
G04 #@! TO.C,C6021*
X103025400Y-112657800D03*
X103704222Y-111978978D03*
G04 #@! TD*
D21*
G04 #@! TO.C,IC4002*
X211582000Y-93761900D03*
X210632000Y-93761900D03*
X209682000Y-93761900D03*
X209682000Y-96036900D03*
X211582000Y-96036900D03*
G04 #@! TD*
D54*
G04 #@! TO.C,L14001*
X78926273Y-71116301D03*
X82226273Y-71116301D03*
G04 #@! TD*
D28*
G04 #@! TO.C,C5009*
X98046273Y-127621597D03*
X97086273Y-127621597D03*
G04 #@! TD*
D55*
G04 #@! TO.C,D4001*
X213802000Y-86969401D03*
X217802000Y-86969401D03*
G04 #@! TD*
D23*
G04 #@! TO.C,R35001*
X135952000Y-108551400D03*
X135952000Y-107531400D03*
G04 #@! TD*
D17*
G04 #@! TO.C,R13009*
X168914600Y-108324500D03*
X170564600Y-108324500D03*
G04 #@! TD*
D52*
G04 #@! TO.C,C6022*
X110744811Y-106357211D03*
X110065989Y-105678389D03*
G04 #@! TD*
D35*
G04 #@! TO.C,IC5001*
X161723600Y-101576700D03*
X162993600Y-101576700D03*
X164263600Y-101576700D03*
X165533600Y-101576700D03*
X165533600Y-96152700D03*
X164263600Y-96152700D03*
X162993600Y-96152700D03*
X161723600Y-96152700D03*
G04 #@! TD*
D17*
G04 #@! TO.C,R36001*
X222534000Y-115397200D03*
X224184000Y-115397200D03*
G04 #@! TD*
D39*
G04 #@! TO.C,C10002*
X52781073Y-74829197D03*
X54681073Y-74829197D03*
G04 #@! TD*
D24*
G04 #@! TO.C,Q24002*
X168859500Y-92801400D03*
X168859500Y-94701400D03*
X170734500Y-93751400D03*
G04 #@! TD*
D48*
G04 #@! TO.C,D49001*
X168951200Y-78504600D03*
X171051200Y-78504600D03*
G04 #@! TD*
D12*
G04 #@! TO.C,C45004*
X201917601Y-108322227D03*
X201917601Y-109282227D03*
G04 #@! TD*
D26*
G04 #@! TO.C,R56001*
X148877000Y-82071400D03*
X147857000Y-82071400D03*
G04 #@! TD*
D56*
G04 #@! TO.C,J13001*
X38626273Y-93516301D03*
X38626273Y-80916301D03*
D57*
X41166273Y-90786301D03*
D58*
X42946273Y-89766301D03*
X41166273Y-88746301D03*
X42946273Y-87726301D03*
X41166273Y-86706301D03*
X42946273Y-85686301D03*
X41166273Y-84666301D03*
X42946273Y-83646301D03*
D59*
X42056273Y-95266301D03*
X42056273Y-79166301D03*
G04 #@! TD*
D36*
G04 #@! TO.C,D12003*
X60215573Y-63931301D03*
X61790573Y-63931301D03*
G04 #@! TD*
D60*
G04 #@! TO.C,Q27001*
X186789500Y-91143900D03*
X184889500Y-91143900D03*
X185839500Y-93018900D03*
G04 #@! TD*
D24*
G04 #@! TO.C,Q27002*
X180629500Y-92308900D03*
X180629500Y-94208900D03*
X182504500Y-93258900D03*
G04 #@! TD*
D61*
G04 #@! TO.C,R8004*
X53546273Y-100133801D03*
X53546273Y-106058801D03*
G04 #@! TD*
D23*
G04 #@! TO.C,R19001*
X230076000Y-87698600D03*
X230076000Y-86678600D03*
G04 #@! TD*
D34*
G04 #@! TO.C,C35003*
X137026600Y-114099600D03*
X137986600Y-114099600D03*
G04 #@! TD*
D33*
G04 #@! TO.C,R6001*
X120346200Y-113741400D03*
X118696200Y-113741400D03*
G04 #@! TD*
D21*
G04 #@! TO.C,U39001*
X215140200Y-102880900D03*
X214190200Y-102880900D03*
X213240200Y-102880900D03*
X213240200Y-105155900D03*
X215140200Y-105155900D03*
G04 #@! TD*
D18*
G04 #@! TO.C,C24003*
X168722500Y-105149800D03*
X168722500Y-104189800D03*
G04 #@! TD*
D39*
G04 #@! TO.C,C11004*
X65306870Y-74847428D03*
X67206870Y-74847428D03*
G04 #@! TD*
D16*
G04 #@! TO.C,C10001*
X53951073Y-68239197D03*
X52401073Y-68239197D03*
G04 #@! TD*
D33*
G04 #@! TO.C,R6006*
X120346200Y-103016400D03*
X118696200Y-103016400D03*
G04 #@! TD*
D23*
G04 #@! TO.C,R53001*
X135819800Y-85426700D03*
X135819800Y-84406700D03*
G04 #@! TD*
D21*
G04 #@! TO.C,IC14001*
X76866773Y-69724801D03*
X75916773Y-69724801D03*
X74966773Y-69724801D03*
X74966773Y-71999801D03*
X75916773Y-71999801D03*
X76866773Y-71999801D03*
G04 #@! TD*
D20*
G04 #@! TO.C,R24002*
X169739600Y-106011100D03*
X169739600Y-107031100D03*
G04 #@! TD*
D28*
G04 #@! TO.C,C9004*
X235686850Y-114129850D03*
X234726850Y-114129850D03*
G04 #@! TD*
G04 #@! TO.C,C15008*
X200574200Y-94626800D03*
X199614200Y-94626800D03*
G04 #@! TD*
D29*
G04 #@! TO.C,C6003*
X103494222Y-110798978D03*
X102815400Y-111477800D03*
G04 #@! TD*
D12*
G04 #@! TO.C,C7011*
X69553073Y-84560701D03*
X69553073Y-85520701D03*
G04 #@! TD*
D29*
G04 #@! TO.C,C6037*
X99114811Y-83712389D03*
X98435989Y-84391211D03*
G04 #@! TD*
D24*
G04 #@! TO.C,Q41001*
X207909500Y-99991400D03*
X207909500Y-101891400D03*
X209784500Y-100941400D03*
G04 #@! TD*
D22*
G04 #@! TO.C,R7020*
X57966273Y-80331301D03*
X57966273Y-78681301D03*
G04 #@! TD*
D34*
G04 #@! TO.C,R17005*
X181695000Y-98029200D03*
X182655000Y-98029200D03*
G04 #@! TD*
D24*
G04 #@! TO.C,Q17001*
X230262000Y-116321400D03*
X230262000Y-118221400D03*
X232137000Y-117271400D03*
G04 #@! TD*
D41*
G04 #@! TO.C,C11003*
X63625470Y-75761828D03*
X61725470Y-75761828D03*
G04 #@! TD*
D28*
G04 #@! TO.C,C39002*
X217362600Y-102494400D03*
X216402600Y-102494400D03*
G04 #@! TD*
D12*
G04 #@! TO.C,C6048*
X102716273Y-121686597D03*
X102716273Y-122646597D03*
G04 #@! TD*
D33*
G04 #@! TO.C,R14002*
X132827401Y-96263200D03*
X131177401Y-96263200D03*
G04 #@! TD*
D31*
G04 #@! TO.C,C6020*
X106375400Y-92317800D03*
X107054222Y-91638978D03*
G04 #@! TD*
D34*
G04 #@! TO.C,C13004*
X172592700Y-94523900D03*
X173552700Y-94523900D03*
G04 #@! TD*
G04 #@! TO.C,C9006*
X231730650Y-114129450D03*
X232690650Y-114129450D03*
G04 #@! TD*
D25*
G04 #@! TO.C,R7022*
X51656273Y-78681301D03*
X51656273Y-80331301D03*
G04 #@! TD*
D24*
G04 #@! TO.C,Q29001*
X146689500Y-92461400D03*
X146689500Y-94361400D03*
X148564500Y-93411400D03*
G04 #@! TD*
D29*
G04 #@! TO.C,C6041*
X81828785Y-94232716D03*
X81149963Y-94911538D03*
G04 #@! TD*
D16*
G04 #@! TO.C,C11005*
X66429473Y-68259501D03*
X64879473Y-68259501D03*
G04 #@! TD*
D24*
G04 #@! TO.C,Q15002*
X197267000Y-85801400D03*
X197267000Y-87701400D03*
X199142000Y-86751400D03*
G04 #@! TD*
D18*
G04 #@! TO.C,C4008*
X219842000Y-96151400D03*
X219842000Y-95191400D03*
G04 #@! TD*
D40*
G04 #@! TO.C,C6010*
X108025400Y-104807800D03*
X108704222Y-105486622D03*
G04 #@! TD*
D62*
G04 #@! TO.C,IC5004*
X99581273Y-123721597D03*
X98631273Y-123721597D03*
X97681273Y-123721597D03*
X97681273Y-126221597D03*
X98631273Y-126221597D03*
X99581273Y-126221597D03*
G04 #@! TD*
D33*
G04 #@! TO.C,R10002*
X53966073Y-66659197D03*
X52316073Y-66659197D03*
G04 #@! TD*
D18*
G04 #@! TO.C,C47003*
X196784500Y-111958900D03*
X196784500Y-110998900D03*
G04 #@! TD*
D30*
G04 #@! TO.C,R37002*
X224613800Y-104475200D03*
X225633800Y-104475200D03*
G04 #@! TD*
D33*
G04 #@! TO.C,R15005*
X234239200Y-86064200D03*
X232589200Y-86064200D03*
G04 #@! TD*
D28*
G04 #@! TO.C,C53001*
X131492001Y-77982700D03*
X130532001Y-77982700D03*
G04 #@! TD*
D26*
G04 #@! TO.C,R44001*
X198919601Y-114452827D03*
X197899601Y-114452827D03*
G04 #@! TD*
D30*
G04 #@! TO.C,R12008*
X50466273Y-64006597D03*
X51486273Y-64006597D03*
G04 #@! TD*
D15*
G04 #@! TO.C,IC8001*
X44852273Y-111896597D03*
X44852273Y-113166597D03*
X44852273Y-114436597D03*
X44852273Y-115706597D03*
X50276273Y-115706597D03*
X50276273Y-114436597D03*
X50276273Y-113166597D03*
X50276273Y-111896597D03*
G04 #@! TD*
D34*
G04 #@! TO.C,C38001*
X212925400Y-106583800D03*
X213885400Y-106583800D03*
G04 #@! TD*
G04 #@! TO.C,C29003*
X151061600Y-102199600D03*
X152021600Y-102199600D03*
G04 #@! TD*
D18*
G04 #@! TO.C,C7003*
X65827400Y-112113800D03*
X65827400Y-111153800D03*
G04 #@! TD*
D17*
G04 #@! TO.C,R42001*
X204272000Y-115381400D03*
X205922000Y-115381400D03*
G04 #@! TD*
D29*
G04 #@! TO.C,C6008*
X104835400Y-109467800D03*
X104156578Y-110146622D03*
G04 #@! TD*
D23*
G04 #@! TO.C,R15002*
X235611000Y-82507700D03*
X235611000Y-81487700D03*
G04 #@! TD*
D31*
G04 #@! TO.C,C6019*
X107075400Y-93017800D03*
X107754222Y-92338978D03*
G04 #@! TD*
D26*
G04 #@! TO.C,R37001*
X225661200Y-103459200D03*
X224641200Y-103459200D03*
G04 #@! TD*
D34*
G04 #@! TO.C,R5005*
X159285500Y-98089200D03*
X160245500Y-98089200D03*
G04 #@! TD*
D20*
G04 #@! TO.C,R7014*
X67117400Y-105183800D03*
X67117400Y-106203800D03*
G04 #@! TD*
D23*
G04 #@! TO.C,R6024*
X95916273Y-65626301D03*
X95916273Y-64606301D03*
G04 #@! TD*
D30*
G04 #@! TO.C,R51002*
X178950600Y-82074600D03*
X179970600Y-82074600D03*
G04 #@! TD*
D29*
G04 #@! TO.C,C6026*
X112774811Y-102918389D03*
X112095989Y-103597211D03*
G04 #@! TD*
D16*
G04 #@! TO.C,C5012*
X99096273Y-122021597D03*
X97546273Y-122021597D03*
G04 #@! TD*
D35*
G04 #@! TO.C,IC54001*
X137489200Y-84933800D03*
X138759200Y-84933800D03*
X140029200Y-84933800D03*
X141299200Y-84933800D03*
X141299200Y-79509800D03*
X140029200Y-79509800D03*
X138759200Y-79509800D03*
X137489200Y-79509800D03*
G04 #@! TD*
D33*
G04 #@! TO.C,R6007*
X120336200Y-109171400D03*
X118686200Y-109171400D03*
G04 #@! TD*
D36*
G04 #@! TO.C,D6003*
X86435400Y-122927800D03*
X88010400Y-122927800D03*
G04 #@! TD*
D34*
G04 #@! TO.C,C4005*
X203784200Y-96586800D03*
X204744200Y-96586800D03*
G04 #@! TD*
D28*
G04 #@! TO.C,C15007*
X200712500Y-89173000D03*
X199752500Y-89173000D03*
G04 #@! TD*
D53*
G04 #@! TO.C,H2001*
X40690000Y-71440000D03*
G04 #@! TD*
D47*
G04 #@! TO.C,U19001*
X231259600Y-83300400D03*
X232209600Y-83300400D03*
X233159600Y-83300400D03*
X233159600Y-81025400D03*
X231259600Y-81025400D03*
G04 #@! TD*
D60*
G04 #@! TO.C,Q21001*
X164509500Y-91223900D03*
X162609500Y-91223900D03*
X163559500Y-93098900D03*
G04 #@! TD*
D21*
G04 #@! TO.C,IC11001*
X64463670Y-69976128D03*
X63513670Y-69976128D03*
X62563670Y-69976128D03*
X62563670Y-72251128D03*
X63513670Y-72251128D03*
X64463670Y-72251128D03*
G04 #@! TD*
D63*
G04 #@! TO.C,U17001*
X187579450Y-106299550D03*
X187579450Y-105649550D03*
X187579450Y-104999550D03*
X185679450Y-104999550D03*
X185679450Y-105649550D03*
X185679450Y-106299550D03*
G04 #@! TD*
D23*
G04 #@! TO.C,R31001*
X149847000Y-108501400D03*
X149847000Y-107481400D03*
G04 #@! TD*
D17*
G04 #@! TO.C,R13006*
X173410400Y-108299100D03*
X175060400Y-108299100D03*
G04 #@! TD*
D40*
G04 #@! TO.C,C6036*
X80646141Y-96232716D03*
X81324963Y-96911538D03*
G04 #@! TD*
D33*
G04 #@! TO.C,R6018*
X120317800Y-88154200D03*
X118667800Y-88154200D03*
G04 #@! TD*
D18*
G04 #@! TO.C,C9001*
X234527850Y-99724550D03*
X234527850Y-98764550D03*
G04 #@! TD*
D31*
G04 #@! TO.C,C6018*
X107784811Y-93728389D03*
X108463633Y-93049567D03*
G04 #@! TD*
D64*
G04 #@! TO.C,U4001*
X213312000Y-94569400D03*
X213312000Y-95219400D03*
X213312000Y-95869400D03*
X215212000Y-95869400D03*
X215212000Y-95219400D03*
X215212000Y-94569400D03*
G04 #@! TD*
D65*
G04 #@! TO.C,D7003*
X56759273Y-90531301D03*
X56759273Y-89261301D03*
X56759273Y-87991301D03*
X56759273Y-86721301D03*
X51809273Y-86721301D03*
X51809273Y-87991301D03*
X51809273Y-89261301D03*
X51809273Y-90531301D03*
G04 #@! TD*
D23*
G04 #@! TO.C,R34001*
X129732000Y-108491400D03*
X129732000Y-107471400D03*
G04 #@! TD*
D41*
G04 #@! TO.C,C11006*
X70219473Y-68024501D03*
X68319473Y-68024501D03*
G04 #@! TD*
D38*
G04 #@! TO.C,C32001*
X140937000Y-100786400D03*
X140937000Y-102336400D03*
G04 #@! TD*
D30*
G04 #@! TO.C,R6023*
X89297900Y-127567800D03*
X90317900Y-127567800D03*
G04 #@! TD*
D12*
G04 #@! TO.C,C4002*
X214302000Y-89309401D03*
X214302000Y-90269401D03*
G04 #@! TD*
D36*
G04 #@! TO.C,D7002*
X62984273Y-106430301D03*
X64559273Y-106430301D03*
G04 #@! TD*
D18*
G04 #@! TO.C,C35004*
X140532000Y-110861400D03*
X140532000Y-109901400D03*
G04 #@! TD*
D34*
G04 #@! TO.C,C5004*
X161655700Y-94608700D03*
X162615700Y-94608700D03*
G04 #@! TD*
D26*
G04 #@! TO.C,R7010*
X71627400Y-115523800D03*
X70607400Y-115523800D03*
G04 #@! TD*
D54*
G04 #@! TO.C,L11001*
X69789473Y-71424501D03*
X66489473Y-71424501D03*
G04 #@! TD*
D41*
G04 #@! TO.C,C10006*
X57953573Y-65899197D03*
X56053573Y-65899197D03*
G04 #@! TD*
D17*
G04 #@! TO.C,R17009*
X180368850Y-108328650D03*
X182018850Y-108328650D03*
G04 #@! TD*
D29*
G04 #@! TO.C,C6033*
X102814811Y-87357389D03*
X102135989Y-88036211D03*
G04 #@! TD*
D31*
G04 #@! TO.C,C6030*
X88405552Y-110300949D03*
X89084374Y-109622127D03*
G04 #@! TD*
D26*
G04 #@! TO.C,R7012*
X64846273Y-105026301D03*
X63826273Y-105026301D03*
G04 #@! TD*
D66*
G04 #@! TO.C,Y6001*
X109505400Y-110357800D03*
X109505400Y-108157800D03*
X107805400Y-108157800D03*
X107805400Y-110357800D03*
G04 #@! TD*
D33*
G04 #@! TO.C,R14005*
X77997673Y-67890501D03*
X76347673Y-67890501D03*
G04 #@! TD*
D18*
G04 #@! TO.C,C33004*
X140702400Y-98933201D03*
X140702400Y-97973201D03*
G04 #@! TD*
D20*
G04 #@! TO.C,R47002*
X194755700Y-112483500D03*
X194755700Y-113503500D03*
G04 #@! TD*
D18*
G04 #@! TO.C,C38002*
X218552000Y-109133400D03*
X218552000Y-108173400D03*
G04 #@! TD*
D22*
G04 #@! TO.C,R11005*
X62279473Y-68334501D03*
X62279473Y-66684501D03*
G04 #@! TD*
G04 #@! TO.C,R12001*
X56716273Y-103221301D03*
X56716273Y-101571301D03*
G04 #@! TD*
D10*
G04 #@! TO.C,Q41002*
X209774500Y-105413900D03*
X209774500Y-103513900D03*
X207899500Y-104463900D03*
G04 #@! TD*
D26*
G04 #@! TO.C,R6029*
X94295400Y-73787800D03*
X93275400Y-73787800D03*
G04 #@! TD*
D67*
G04 #@! TO.C,J9001*
X252858850Y-106743250D03*
D68*
X242608850Y-110693250D03*
X242608850Y-102793250D03*
G04 #@! TD*
D11*
G04 #@! TO.C,R49001*
X170911800Y-80562000D03*
X169086800Y-80562000D03*
G04 #@! TD*
D21*
G04 #@! TO.C,U37001*
X223343600Y-102771300D03*
X222393600Y-102771300D03*
X221443600Y-102771300D03*
X221443600Y-105046300D03*
X223343600Y-105046300D03*
G04 #@! TD*
D20*
G04 #@! TO.C,R11001*
X134912000Y-107521400D03*
X134912000Y-108541400D03*
G04 #@! TD*
D69*
G04 #@! TO.C,U6002*
X104516273Y-121581597D03*
X104516273Y-122851597D03*
X104516273Y-124121597D03*
X104516273Y-125391597D03*
X109466273Y-125391597D03*
X109466273Y-124121597D03*
X109466273Y-122851597D03*
X109466273Y-121581597D03*
G04 #@! TD*
D18*
G04 #@! TO.C,R26002*
X184508750Y-105978050D03*
X184508750Y-105018050D03*
G04 #@! TD*
D40*
G04 #@! TO.C,C6029*
X111525400Y-94187800D03*
X112204222Y-94866622D03*
G04 #@! TD*
D12*
G04 #@! TO.C,C7012*
X54432273Y-79019301D03*
X54432273Y-79979301D03*
G04 #@! TD*
D33*
G04 #@! TO.C,R9005*
X234231050Y-105316050D03*
X232581050Y-105316050D03*
G04 #@! TD*
D26*
G04 #@! TO.C,R7001*
X65837400Y-114293800D03*
X64817400Y-114293800D03*
G04 #@! TD*
D29*
G04 #@! TO.C,C6025*
X112064222Y-102228978D03*
X111385400Y-102907800D03*
G04 #@! TD*
D53*
G04 #@! TO.C,H2002*
X40715400Y-122443200D03*
G04 #@! TD*
D33*
G04 #@! TO.C,R6012*
X120346200Y-96866400D03*
X118696200Y-96866400D03*
G04 #@! TD*
D12*
G04 #@! TO.C,R23001*
X177384500Y-111073900D03*
X177384500Y-112033900D03*
G04 #@! TD*
D33*
G04 #@! TO.C,R6008*
X120346200Y-107641400D03*
X118696200Y-107641400D03*
G04 #@! TD*
D11*
G04 #@! TO.C,R48001*
X165594600Y-80583100D03*
X163769600Y-80583100D03*
G04 #@! TD*
D70*
G04 #@! TO.C,C6035*
X100670979Y-86132554D03*
X99574963Y-85036538D03*
G04 #@! TD*
D28*
G04 #@! TO.C,C24004*
X171204500Y-99013900D03*
X170244500Y-99013900D03*
G04 #@! TD*
D30*
G04 #@! TO.C,R31002*
X151881600Y-107879600D03*
X152901600Y-107879600D03*
G04 #@! TD*
D16*
G04 #@! TO.C,C7009*
X72277400Y-105543800D03*
X70727400Y-105543800D03*
G04 #@! TD*
D23*
G04 #@! TO.C,R45001*
X198897601Y-113502227D03*
X198897601Y-112482227D03*
G04 #@! TD*
D34*
G04 #@! TO.C,C41004*
X208797000Y-112141100D03*
X209757000Y-112141100D03*
G04 #@! TD*
D20*
G04 #@! TO.C,R21002*
X158802600Y-106095900D03*
X158802600Y-107115900D03*
G04 #@! TD*
D63*
G04 #@! TO.C,U5001*
X165188200Y-106380200D03*
X165188200Y-105730200D03*
X165188200Y-105080200D03*
X163288200Y-105080200D03*
X163288200Y-105730200D03*
X163288200Y-106380200D03*
G04 #@! TD*
D33*
G04 #@! TO.C,R6011*
X120346200Y-98416400D03*
X118696200Y-98416400D03*
G04 #@! TD*
D12*
G04 #@! TO.C,R17004*
X180707200Y-95963800D03*
X180707200Y-96923800D03*
G04 #@! TD*
D34*
G04 #@! TO.C,C15005*
X199732300Y-90163600D03*
X200692300Y-90163600D03*
G04 #@! TD*
D28*
G04 #@! TO.C,C23001*
X176464500Y-94513900D03*
X175504500Y-94513900D03*
G04 #@! TD*
D30*
G04 #@! TO.C,R29002*
X152021600Y-96029601D03*
X153041600Y-96029601D03*
G04 #@! TD*
D18*
G04 #@! TO.C,C29004*
X154567000Y-98961401D03*
X154567000Y-98001401D03*
G04 #@! TD*
G04 #@! TO.C,C9007*
X166417500Y-106688700D03*
X166417500Y-105728700D03*
G04 #@! TD*
D30*
G04 #@! TO.C,R3003*
X236985000Y-126236400D03*
X238005000Y-126236400D03*
G04 #@! TD*
D33*
G04 #@! TO.C,R6016*
X120302800Y-91214200D03*
X118652800Y-91214200D03*
G04 #@! TD*
D71*
G04 #@! TO.C,R11003*
X59957670Y-75937728D03*
X59957670Y-74112728D03*
G04 #@! TD*
D34*
G04 #@! TO.C,C53002*
X133452000Y-78022700D03*
X134412000Y-78022700D03*
G04 #@! TD*
D24*
G04 #@! TO.C,Q43001*
X203279500Y-100271400D03*
X203279500Y-102171400D03*
X205154500Y-101221400D03*
G04 #@! TD*
D41*
G04 #@! TO.C,C10004*
X51201073Y-75779197D03*
X49301073Y-75779197D03*
G04 #@! TD*
D48*
G04 #@! TO.C,D48001*
X163634000Y-78525700D03*
X165734000Y-78525700D03*
G04 #@! TD*
D19*
G04 #@! TO.C,U8001*
X39447046Y-113146597D03*
X39447046Y-114096597D03*
X39447046Y-115046597D03*
X41722046Y-115046597D03*
X41722046Y-114096597D03*
X41722046Y-113146597D03*
G04 #@! TD*
D34*
G04 #@! TO.C,C43004*
X203612600Y-112142000D03*
X204572600Y-112142000D03*
G04 #@! TD*
D63*
G04 #@! TO.C,U13001*
X176125200Y-106295400D03*
X176125200Y-105645400D03*
X176125200Y-104995400D03*
X174225200Y-104995400D03*
X174225200Y-105645400D03*
X174225200Y-106295400D03*
G04 #@! TD*
D18*
G04 #@! TO.C,C4001*
X212342000Y-90269401D03*
X212342000Y-89309401D03*
G04 #@! TD*
D28*
G04 #@! TO.C,C19001*
X232997000Y-84773600D03*
X232037000Y-84773600D03*
G04 #@! TD*
D18*
G04 #@! TO.C,C36002*
X226724600Y-109126200D03*
X226724600Y-108166200D03*
G04 #@! TD*
D51*
G04 #@! TO.C,D5001*
X162834600Y-114403700D03*
X158834600Y-114403700D03*
G04 #@! TD*
D36*
G04 #@! TO.C,D6001*
X86535400Y-127507800D03*
X88110400Y-127507800D03*
G04 #@! TD*
D28*
G04 #@! TO.C,C8002*
X52836273Y-115856597D03*
X51876273Y-115856597D03*
G04 #@! TD*
D24*
G04 #@! TO.C,Q37001*
X219912000Y-99181400D03*
X219912000Y-101081400D03*
X221787000Y-100131400D03*
G04 #@! TD*
D53*
G04 #@! TO.C,H3001*
X251737000Y-122495400D03*
G04 #@! TD*
D18*
G04 #@! TO.C,C31004*
X154427000Y-110811400D03*
X154427000Y-109851400D03*
G04 #@! TD*
D34*
G04 #@! TO.C,C5001*
X157385900Y-98078600D03*
X158345900Y-98078600D03*
G04 #@! TD*
D30*
G04 #@! TO.C,R7004*
X66737400Y-113063800D03*
X67757400Y-113063800D03*
G04 #@! TD*
D18*
G04 #@! TO.C,C21003*
X159817500Y-105209200D03*
X159817500Y-104249200D03*
G04 #@! TD*
D19*
G04 #@! TO.C,IC17002*
X185110950Y-109842450D03*
X185110950Y-110792450D03*
X185110950Y-111742450D03*
X187385950Y-111742450D03*
X187385950Y-109842450D03*
G04 #@! TD*
D28*
G04 #@! TO.C,C13002*
X171157000Y-95971400D03*
X170197000Y-95971400D03*
G04 #@! TD*
D24*
G04 #@! TO.C,Q35001*
X132509500Y-104358900D03*
X132509500Y-106258900D03*
X134384500Y-105308900D03*
G04 #@! TD*
D49*
G04 #@! TO.C,J3006*
X129685600Y-74483600D03*
X129685600Y-69403600D03*
D50*
X132225600Y-74483600D03*
X132225600Y-69403600D03*
X134765600Y-74483600D03*
X134765600Y-69403600D03*
X137305600Y-74483600D03*
X137305600Y-69403600D03*
X139845600Y-74483600D03*
X139845600Y-69403600D03*
X142385600Y-74483600D03*
X142385600Y-69403600D03*
X144925600Y-74483600D03*
X144925600Y-69403600D03*
X147465600Y-74483600D03*
X147465600Y-69403600D03*
X150005600Y-74483600D03*
X150005600Y-69403600D03*
X152545600Y-74483600D03*
X152545600Y-69403600D03*
X155085600Y-74483600D03*
X155085600Y-69403600D03*
X157625600Y-74483600D03*
X157625600Y-69403600D03*
G04 #@! TD*
D12*
G04 #@! TO.C,C39004*
X211947000Y-102401400D03*
X211947000Y-103361400D03*
G04 #@! TD*
D72*
G04 #@! TO.C,D12001*
X56726273Y-106253801D03*
X56726273Y-104678801D03*
G04 #@! TD*
D31*
G04 #@! TO.C,C6007*
X103456578Y-109446622D03*
X104135400Y-108767800D03*
G04 #@! TD*
D24*
G04 #@! TO.C,Q19002*
X229522000Y-76181400D03*
X229522000Y-78081400D03*
X231397000Y-77131400D03*
G04 #@! TD*
D20*
G04 #@! TO.C,R12002*
X82133073Y-63791301D03*
X82133073Y-64811301D03*
G04 #@! TD*
D73*
G04 #@! TO.C,U7001*
X67029900Y-108646300D03*
X67029900Y-109146300D03*
X67029900Y-109646300D03*
X67029900Y-110146300D03*
X67029900Y-110646300D03*
X67029900Y-111146300D03*
D74*
X67717400Y-111833800D03*
X68217400Y-111833800D03*
X68717400Y-111833800D03*
X69217400Y-111833800D03*
X69717400Y-111833800D03*
X70217400Y-111833800D03*
D73*
X70904900Y-111146300D03*
X70904900Y-110646300D03*
X70904900Y-110146300D03*
X70904900Y-109646300D03*
X70904900Y-109146300D03*
X70904900Y-108646300D03*
D74*
X70217400Y-107958800D03*
X69717400Y-107958800D03*
X69217400Y-107958800D03*
X68717400Y-107958800D03*
X68217400Y-107958800D03*
X67717400Y-107958800D03*
D75*
X68967400Y-109896300D03*
G04 #@! TD*
D33*
G04 #@! TO.C,R6003*
X120346200Y-110691400D03*
X118696200Y-110691400D03*
G04 #@! TD*
D12*
G04 #@! TO.C,C29002*
X151071600Y-96039601D03*
X151071600Y-96999601D03*
G04 #@! TD*
G04 #@! TO.C,C43002*
X203040000Y-113187400D03*
X203040000Y-114147400D03*
G04 #@! TD*
D16*
G04 #@! TO.C,C14002*
X76220473Y-73707101D03*
X74670473Y-73707101D03*
G04 #@! TD*
D18*
G04 #@! TO.C,C7004*
X64857400Y-112113800D03*
X64857400Y-111153800D03*
G04 #@! TD*
G04 #@! TO.C,C27003*
X182208750Y-105128550D03*
X182208750Y-104168550D03*
G04 #@! TD*
D28*
G04 #@! TO.C,C37001*
X225578400Y-105491200D03*
X224618400Y-105491200D03*
G04 #@! TD*
D12*
G04 #@! TO.C,C33002*
X137207000Y-96011401D03*
X137207000Y-96971401D03*
G04 #@! TD*
D28*
G04 #@! TO.C,C35001*
X138966600Y-108919600D03*
X138006600Y-108919600D03*
G04 #@! TD*
D12*
G04 #@! TO.C,R9004*
X166447500Y-111158700D03*
X166447500Y-112118700D03*
G04 #@! TD*
D18*
G04 #@! TO.C,C27001*
X180179350Y-107058950D03*
X180179350Y-106098950D03*
G04 #@! TD*
D21*
G04 #@! TO.C,U21001*
X159969900Y-100540800D03*
X159019900Y-100540800D03*
X158069900Y-100540800D03*
X158069900Y-102815800D03*
X159969900Y-102815800D03*
G04 #@! TD*
D26*
G04 #@! TO.C,R39002*
X217394600Y-104551800D03*
X216374600Y-104551800D03*
G04 #@! TD*
D33*
G04 #@! TO.C,R6019*
X120322800Y-86629200D03*
X118672800Y-86629200D03*
G04 #@! TD*
D20*
G04 #@! TO.C,R9001*
X235602850Y-98729550D03*
X235602850Y-99749550D03*
G04 #@! TD*
D12*
G04 #@! TO.C,C45001*
X200955001Y-112463427D03*
X200955001Y-113423427D03*
G04 #@! TD*
D28*
G04 #@! TO.C,C31001*
X152861600Y-108869600D03*
X151901600Y-108869600D03*
G04 #@! TD*
D33*
G04 #@! TO.C,R12006*
X67878073Y-63881301D03*
X66228073Y-63881301D03*
G04 #@! TD*
D52*
G04 #@! TO.C,C6023*
X110439374Y-103675949D03*
X109760552Y-102997127D03*
G04 #@! TD*
D71*
G04 #@! TO.C,R10003*
X47531073Y-75959197D03*
X47531073Y-74134197D03*
G04 #@! TD*
D15*
G04 #@! TO.C,IC28001*
X144090600Y-98019600D03*
X144090600Y-99289600D03*
X144090600Y-100559600D03*
X144090600Y-101829600D03*
X149514600Y-101829600D03*
X149514600Y-100559600D03*
X149514600Y-99289600D03*
X149514600Y-98019600D03*
G04 #@! TD*
D26*
G04 #@! TO.C,R7005*
X73587400Y-114313800D03*
X72567400Y-114313800D03*
G04 #@! TD*
D18*
G04 #@! TO.C,C7005*
X68717400Y-115323800D03*
X68717400Y-114363800D03*
G04 #@! TD*
D19*
G04 #@! TO.C,IC5003*
X158229400Y-109947100D03*
X158229400Y-110897100D03*
X158229400Y-111847100D03*
X160504400Y-111847100D03*
X160504400Y-109947100D03*
G04 #@! TD*
D18*
G04 #@! TO.C,C17007*
X187747050Y-108582650D03*
X187747050Y-107622650D03*
G04 #@! TD*
D20*
G04 #@! TO.C,R27001*
X181219250Y-104110250D03*
X181219250Y-105130250D03*
G04 #@! TD*
D30*
G04 #@! TO.C,R49002*
X168737600Y-82062600D03*
X169757600Y-82062600D03*
G04 #@! TD*
D12*
G04 #@! TO.C,C43001*
X206062600Y-113162000D03*
X206062600Y-114122000D03*
G04 #@! TD*
D18*
G04 #@! TO.C,C24001*
X170754500Y-105124400D03*
X170754500Y-104164400D03*
G04 #@! TD*
D28*
G04 #@! TO.C,C27004*
X182658750Y-99018050D03*
X181698750Y-99018050D03*
G04 #@! TD*
D71*
G04 #@! TO.C,R14003*
X72524473Y-75711801D03*
X72524473Y-73886801D03*
G04 #@! TD*
D12*
G04 #@! TO.C,C7006*
X66116273Y-105236301D03*
X66116273Y-106196301D03*
G04 #@! TD*
D27*
G04 #@! TO.C,D58001*
X159616999Y-80559700D03*
X157516999Y-80559700D03*
G04 #@! TD*
D30*
G04 #@! TO.C,R9003*
X234487850Y-103744550D03*
X235507850Y-103744550D03*
G04 #@! TD*
D18*
G04 #@! TO.C,C45002*
X197883401Y-113454427D03*
X197883401Y-112494427D03*
G04 #@! TD*
D72*
G04 #@! TO.C,D12002*
X77673073Y-65568801D03*
X77673073Y-63993801D03*
G04 #@! TD*
D21*
G04 #@! TO.C,IC10001*
X52141073Y-69984197D03*
X51191073Y-69984197D03*
X50241073Y-69984197D03*
X50241073Y-72259197D03*
X51191073Y-72259197D03*
X52141073Y-72259197D03*
G04 #@! TD*
D20*
G04 #@! TO.C,R7024*
X55712273Y-78999301D03*
X55712273Y-80019301D03*
G04 #@! TD*
D33*
G04 #@! TO.C,R6010*
X120346200Y-99926400D03*
X118696200Y-99926400D03*
G04 #@! TD*
D20*
G04 #@! TO.C,R14001*
X135082400Y-95593201D03*
X135082400Y-96613201D03*
G04 #@! TD*
D24*
G04 #@! TO.C,Q47001*
X193849500Y-101631400D03*
X193849500Y-103531400D03*
X195724500Y-102581400D03*
G04 #@! TD*
G04 #@! TO.C,Q45001*
X199049500Y-101651400D03*
X199049500Y-103551400D03*
X200924500Y-102601400D03*
G04 #@! TD*
D12*
G04 #@! TO.C,R13004*
X169237200Y-95933800D03*
X169237200Y-96893800D03*
G04 #@! TD*
D39*
G04 #@! TO.C,C14004*
X77772073Y-74596101D03*
X79672073Y-74596101D03*
G04 #@! TD*
D10*
G04 #@! TO.C,Q47002*
X195714500Y-107011400D03*
X195714500Y-105111400D03*
X193839500Y-106061400D03*
G04 #@! TD*
D41*
G04 #@! TO.C,C10003*
X57961073Y-67929197D03*
X56061073Y-67929197D03*
G04 #@! TD*
D30*
G04 #@! TO.C,R6025*
X89245400Y-125212800D03*
X90265400Y-125212800D03*
G04 #@! TD*
D28*
G04 #@! TO.C,C19003*
X231930200Y-79546700D03*
X230970200Y-79546700D03*
G04 #@! TD*
D18*
G04 #@! TO.C,C26003*
X183508750Y-105968050D03*
X183508750Y-105008050D03*
G04 #@! TD*
D12*
G04 #@! TO.C,C41001*
X211277600Y-113143900D03*
X211277600Y-114103900D03*
G04 #@! TD*
D28*
G04 #@! TO.C,C5008*
X99956273Y-127596597D03*
X98996273Y-127596597D03*
G04 #@! TD*
G04 #@! TO.C,C37003*
X223975600Y-106558000D03*
X223015600Y-106558000D03*
G04 #@! TD*
D30*
G04 #@! TO.C,R39001*
X216370600Y-103510400D03*
X217390600Y-103510400D03*
G04 #@! TD*
D17*
G04 #@! TO.C,R13002*
X174299400Y-103346100D03*
X175949400Y-103346100D03*
G04 #@! TD*
D76*
G04 #@! TO.C,R6021*
X92314339Y-114272162D03*
X93035587Y-113550914D03*
G04 #@! TD*
D77*
G04 #@! TO.C,Y7001*
X64039873Y-108543701D03*
X64039873Y-109943701D03*
X65139873Y-109943701D03*
X65139873Y-108543701D03*
G04 #@! TD*
D28*
G04 #@! TO.C,C54001*
X138414200Y-77937400D03*
X137454200Y-77937400D03*
G04 #@! TD*
D33*
G04 #@! TO.C,R6020*
X120317800Y-85109200D03*
X118667800Y-85109200D03*
G04 #@! TD*
D18*
G04 #@! TO.C,C15001*
X234536000Y-80472700D03*
X234536000Y-79512700D03*
G04 #@! TD*
D37*
G04 #@! TO.C,C3002*
X213411800Y-80424200D03*
X213411800Y-78874200D03*
G04 #@! TD*
D38*
G04 #@! TO.C,C14005*
X73362673Y-70468301D03*
X73362673Y-72018301D03*
G04 #@! TD*
D34*
G04 #@! TO.C,C15009*
X201884200Y-94636800D03*
X202844200Y-94636800D03*
G04 #@! TD*
D28*
G04 #@! TO.C,C26001*
X187918750Y-94518050D03*
X186958750Y-94518050D03*
G04 #@! TD*
D33*
G04 #@! TO.C,R11004*
X66479473Y-66709501D03*
X64829473Y-66709501D03*
G04 #@! TD*
D51*
G04 #@! TO.C,D13001*
X173771600Y-114318900D03*
X169771600Y-114318900D03*
G04 #@! TD*
D40*
G04 #@! TO.C,C6009*
X107305400Y-105527800D03*
X107984222Y-106206622D03*
G04 #@! TD*
D52*
G04 #@! TO.C,C6034*
X101141793Y-84843368D03*
X100462971Y-84164546D03*
G04 #@! TD*
D67*
G04 #@! TO.C,J15001*
X252867000Y-87491400D03*
D68*
X242617000Y-91441400D03*
X242617000Y-83541400D03*
G04 #@! TD*
D18*
G04 #@! TO.C,C17010*
X183251250Y-108608050D03*
X183251250Y-107648050D03*
G04 #@! TD*
D33*
G04 #@! TO.C,R22002*
X146692001Y-96291400D03*
X145042001Y-96291400D03*
G04 #@! TD*
D18*
G04 #@! TO.C,C4003*
X215342000Y-90289401D03*
X215342000Y-89329401D03*
G04 #@! TD*
D36*
G04 #@! TO.C,D7001*
X63026273Y-103716301D03*
X64601273Y-103716301D03*
G04 #@! TD*
D14*
G04 #@! TO.C,TP7005*
X106285673Y-118836597D03*
G04 #@! TD*
D46*
G04 #@! TO.C,C30001*
X146712000Y-115311400D03*
X148262000Y-115311400D03*
G04 #@! TD*
D39*
G04 #@! TO.C,C14008*
X73327073Y-66112501D03*
X75227073Y-66112501D03*
G04 #@! TD*
D23*
G04 #@! TO.C,R43001*
X204056000Y-114152000D03*
X204056000Y-113132000D03*
G04 #@! TD*
D19*
G04 #@! TO.C,IC13003*
X169166400Y-109862300D03*
X169166400Y-110812300D03*
X169166400Y-111762300D03*
X171441400Y-111762300D03*
X171441400Y-109862300D03*
G04 #@! TD*
D15*
G04 #@! TO.C,IC3003*
X205675400Y-78850200D03*
X205675400Y-80120200D03*
X205675400Y-81390200D03*
X205675400Y-82660200D03*
X211099400Y-82660200D03*
X211099400Y-81390200D03*
X211099400Y-80120200D03*
X211099400Y-78850200D03*
G04 #@! TD*
D17*
G04 #@! TO.C,R5009*
X157977600Y-108409300D03*
X159627600Y-108409300D03*
G04 #@! TD*
D49*
G04 #@! TO.C,J3005*
X163287000Y-74491400D03*
X163287000Y-69411400D03*
D50*
X165827000Y-74491400D03*
X165827000Y-69411400D03*
X168367000Y-74491400D03*
X168367000Y-69411400D03*
X170907000Y-74491400D03*
X170907000Y-69411400D03*
X173447000Y-74491400D03*
X173447000Y-69411400D03*
X175987000Y-74491400D03*
X175987000Y-69411400D03*
X178527000Y-74491400D03*
X178527000Y-69411400D03*
X181067000Y-74491400D03*
X181067000Y-69411400D03*
X183607000Y-74491400D03*
X183607000Y-69411400D03*
X186147000Y-74491400D03*
X186147000Y-69411400D03*
G04 #@! TD*
D49*
G04 #@! TO.C,J3004*
X223365200Y-119088300D03*
X223365200Y-124168300D03*
D50*
X220825200Y-119088300D03*
X220825200Y-124168300D03*
X218285200Y-119088300D03*
X218285200Y-124168300D03*
X215745200Y-119088300D03*
X215745200Y-124168300D03*
X213205200Y-119088300D03*
X213205200Y-124168300D03*
X210665200Y-119088300D03*
X210665200Y-124168300D03*
X208125200Y-119088300D03*
X208125200Y-124168300D03*
X205585200Y-119088300D03*
X205585200Y-124168300D03*
X203045200Y-119088300D03*
X203045200Y-124168300D03*
X200505200Y-119088300D03*
X200505200Y-124168300D03*
X197965200Y-119088300D03*
X197965200Y-124168300D03*
X195425200Y-119088300D03*
X195425200Y-124168300D03*
G04 #@! TD*
D37*
G04 #@! TO.C,C6051*
X111591273Y-125471597D03*
X111591273Y-123921597D03*
G04 #@! TD*
D23*
G04 #@! TO.C,R41001*
X209271000Y-114133900D03*
X209271000Y-113113900D03*
G04 #@! TD*
D28*
G04 #@! TO.C,C17005*
X232988850Y-104025450D03*
X232028850Y-104025450D03*
G04 #@! TD*
D31*
G04 #@! TO.C,C6017*
X108485400Y-94417800D03*
X109164222Y-93738978D03*
G04 #@! TD*
D20*
G04 #@! TO.C,R27002*
X181193850Y-106015250D03*
X181193850Y-107035250D03*
G04 #@! TD*
D28*
G04 #@! TO.C,C4006*
X212297000Y-92301400D03*
X211337000Y-92301400D03*
G04 #@! TD*
D24*
G04 #@! TO.C,Q33001*
X132719500Y-92421400D03*
X132719500Y-94321400D03*
X134594500Y-93371400D03*
G04 #@! TD*
D78*
G04 #@! TO.C,J8001*
X47136273Y-103978801D03*
D79*
X41136273Y-103978801D03*
D80*
X44136273Y-108678801D03*
G04 #@! TD*
D21*
G04 #@! TO.C,U33001*
X139407000Y-98453901D03*
X138457000Y-98453901D03*
X137507000Y-98453901D03*
X137507000Y-100728901D03*
X139407000Y-100728901D03*
G04 #@! TD*
D81*
G04 #@! TO.C,S6001*
X96906273Y-67836301D03*
X102906273Y-67836301D03*
X96906273Y-71586301D03*
X102906273Y-71586301D03*
G04 #@! TD*
D20*
G04 #@! TO.C,R45002*
X199939001Y-112458827D03*
X199939001Y-113478827D03*
G04 #@! TD*
D31*
G04 #@! TO.C,C6028*
X93055552Y-114925949D03*
X93734374Y-114247127D03*
G04 #@! TD*
D20*
G04 #@! TO.C,R15001*
X235611000Y-79477700D03*
X235611000Y-80497700D03*
G04 #@! TD*
D15*
G04 #@! TO.C,IC24001*
X143950600Y-109869600D03*
X143950600Y-111139600D03*
X143950600Y-112409600D03*
X143950600Y-113679600D03*
X149374600Y-113679600D03*
X149374600Y-112409600D03*
X149374600Y-111139600D03*
X149374600Y-109869600D03*
G04 #@! TD*
D30*
G04 #@! TO.C,R15004*
X201655500Y-89122200D03*
X202675500Y-89122200D03*
G04 #@! TD*
D24*
G04 #@! TO.C,Q33002*
X136659500Y-92478900D03*
X136659500Y-94378900D03*
X138534500Y-93428900D03*
G04 #@! TD*
D33*
G04 #@! TO.C,R6004*
X120346200Y-106116400D03*
X118696200Y-106116400D03*
G04 #@! TD*
D30*
G04 #@! TO.C,R50002*
X173797600Y-82101800D03*
X174817600Y-82101800D03*
G04 #@! TD*
D48*
G04 #@! TO.C,D50001*
X174031200Y-78555400D03*
X176131200Y-78555400D03*
G04 #@! TD*
D24*
G04 #@! TO.C,Q31002*
X150369500Y-104301400D03*
X150369500Y-106201400D03*
X152244500Y-105251400D03*
G04 #@! TD*
D33*
G04 #@! TO.C,R6009*
X120346200Y-101491400D03*
X118696200Y-101491400D03*
G04 #@! TD*
D34*
G04 #@! TO.C,C17001*
X179795400Y-98018600D03*
X180755400Y-98018600D03*
G04 #@! TD*
G04 #@! TO.C,C13001*
X168325400Y-97988600D03*
X169285400Y-97988600D03*
G04 #@! TD*
D49*
G04 #@! TO.C,J3002*
X189687000Y-119091400D03*
X189687000Y-124171400D03*
D50*
X187147000Y-119091400D03*
X187147000Y-124171400D03*
X184607000Y-119091400D03*
X184607000Y-124171400D03*
X182067000Y-119091400D03*
X182067000Y-124171400D03*
X179527000Y-119091400D03*
X179527000Y-124171400D03*
X176987000Y-119091400D03*
X176987000Y-124171400D03*
X174447000Y-119091400D03*
X174447000Y-124171400D03*
X171907000Y-119091400D03*
X171907000Y-124171400D03*
X169367000Y-119091400D03*
X169367000Y-124171400D03*
X166827000Y-119091400D03*
X166827000Y-124171400D03*
G04 #@! TD*
D33*
G04 #@! TO.C,R14004*
X74975073Y-67890501D03*
X73325073Y-67890501D03*
G04 #@! TD*
D23*
G04 #@! TO.C,R54001*
X142742000Y-85381400D03*
X142742000Y-84361400D03*
G04 #@! TD*
G04 #@! TO.C,R9002*
X235602850Y-101759550D03*
X235602850Y-100739550D03*
G04 #@! TD*
D31*
G04 #@! TO.C,C6005*
X105155400Y-107747800D03*
X105834222Y-107068978D03*
G04 #@! TD*
D25*
G04 #@! TO.C,R12004*
X79243073Y-63986301D03*
X79243073Y-65636301D03*
G04 #@! TD*
D23*
G04 #@! TO.C,R30001*
X143627000Y-108441400D03*
X143627000Y-107421400D03*
G04 #@! TD*
D28*
G04 #@! TO.C,C6043*
X108349811Y-111918389D03*
X107389811Y-111918389D03*
G04 #@! TD*
D18*
G04 #@! TO.C,C23002*
X177354500Y-106603900D03*
X177354500Y-105643900D03*
G04 #@! TD*
D22*
G04 #@! TO.C,R10001*
X50051073Y-68344197D03*
X50051073Y-66694197D03*
G04 #@! TD*
D11*
G04 #@! TO.C,R52001*
X186160000Y-80587400D03*
X184335000Y-80587400D03*
G04 #@! TD*
D23*
G04 #@! TO.C,R33001*
X136122400Y-96623201D03*
X136122400Y-95603201D03*
G04 #@! TD*
D21*
G04 #@! TO.C,U45001*
X200647601Y-108802227D03*
X199697601Y-108802227D03*
X198747601Y-108802227D03*
X198747601Y-111077227D03*
X200647601Y-111077227D03*
G04 #@! TD*
D71*
G04 #@! TO.C,R4003*
X220341700Y-87975500D03*
X220341700Y-86150500D03*
G04 #@! TD*
D10*
G04 #@! TO.C,Q17002*
X236047000Y-118191400D03*
X236047000Y-116291400D03*
X234172000Y-117241400D03*
G04 #@! TD*
D33*
G04 #@! TO.C,R40001*
X211997000Y-115361400D03*
X210347000Y-115361400D03*
G04 #@! TD*
D18*
G04 #@! TO.C,C19002*
X230050600Y-85733600D03*
X230050600Y-84773600D03*
G04 #@! TD*
D45*
G04 #@! TO.C,R13003*
X176394400Y-113355600D03*
X176394400Y-115180600D03*
G04 #@! TD*
D12*
G04 #@! TO.C,R4007*
X219867000Y-93266400D03*
X219867000Y-94226400D03*
G04 #@! TD*
D48*
G04 #@! TO.C,D52001*
X184199400Y-78530000D03*
X186299400Y-78530000D03*
G04 #@! TD*
D18*
G04 #@! TO.C,C45003*
X201925401Y-112022028D03*
X201925401Y-111062028D03*
G04 #@! TD*
G04 #@! TO.C,C6027*
X98041273Y-65586301D03*
X98041273Y-64626301D03*
G04 #@! TD*
D34*
G04 #@! TO.C,R13005*
X170225000Y-97999200D03*
X171185000Y-97999200D03*
G04 #@! TD*
D21*
G04 #@! TO.C,U35001*
X139236600Y-110382100D03*
X138286600Y-110382100D03*
X137336600Y-110382100D03*
X137336600Y-112657100D03*
X139236600Y-112657100D03*
G04 #@! TD*
D35*
G04 #@! TO.C,IC17001*
X184114850Y-101496050D03*
X185384850Y-101496050D03*
X186654850Y-101496050D03*
X187924850Y-101496050D03*
X187924850Y-96072050D03*
X186654850Y-96072050D03*
X185384850Y-96072050D03*
X184114850Y-96072050D03*
G04 #@! TD*
D23*
G04 #@! TO.C,R17007*
X231033050Y-105018050D03*
X231033050Y-103998050D03*
G04 #@! TD*
D30*
G04 #@! TO.C,R48002*
X163444800Y-82071500D03*
X164464800Y-82071500D03*
G04 #@! TD*
D11*
G04 #@! TO.C,R56002*
X149926000Y-78522200D03*
X148101000Y-78522200D03*
G04 #@! TD*
D12*
G04 #@! TO.C,C15002*
X234536000Y-81497700D03*
X234536000Y-82457700D03*
G04 #@! TD*
D15*
G04 #@! TO.C,IC3001*
X194108600Y-78814600D03*
X194108600Y-80084600D03*
X194108600Y-81354600D03*
X194108600Y-82624600D03*
X199532600Y-82624600D03*
X199532600Y-81354600D03*
X199532600Y-80084600D03*
X199532600Y-78814600D03*
G04 #@! TD*
D28*
G04 #@! TO.C,C43003*
X204262600Y-106942000D03*
X203302600Y-106942000D03*
G04 #@! TD*
D24*
G04 #@! TO.C,Q29002*
X150609500Y-92441400D03*
X150609500Y-94341400D03*
X152484500Y-93391400D03*
G04 #@! TD*
D25*
G04 #@! TO.C,R12003*
X80823073Y-63986301D03*
X80823073Y-65636301D03*
G04 #@! TD*
D45*
G04 #@! TO.C,R5003*
X165457400Y-113440400D03*
X165457400Y-115265400D03*
G04 #@! TD*
D30*
G04 #@! TO.C,R15003*
X234496000Y-84492700D03*
X235516000Y-84492700D03*
G04 #@! TD*
D82*
G04 #@! TO.C,FB7001*
X72848773Y-102976301D03*
X70723773Y-102976301D03*
G04 #@! TD*
D28*
G04 #@! TO.C,C4004*
X208417800Y-96564400D03*
X207457800Y-96564400D03*
G04 #@! TD*
D23*
G04 #@! TO.C,R7019*
X61716273Y-106666301D03*
X61716273Y-105646301D03*
G04 #@! TD*
D12*
G04 #@! TO.C,C19004*
X229937000Y-99831400D03*
X229937000Y-100791400D03*
G04 #@! TD*
D17*
G04 #@! TO.C,R17006*
X184864650Y-108303250D03*
X186514650Y-108303250D03*
G04 #@! TD*
D30*
G04 #@! TO.C,R15006*
X201630100Y-90163600D03*
X202650100Y-90163600D03*
G04 #@! TD*
D36*
G04 #@! TO.C,D6002*
X86487900Y-125197800D03*
X88062900Y-125197800D03*
G04 #@! TD*
D31*
G04 #@! TO.C,C6016*
X109185400Y-95117800D03*
X109864222Y-94438978D03*
G04 #@! TD*
D20*
G04 #@! TO.C,R24001*
X169765000Y-104106100D03*
X169765000Y-105126100D03*
G04 #@! TD*
D12*
G04 #@! TO.C,C7010*
X69553073Y-91088501D03*
X69553073Y-92048501D03*
G04 #@! TD*
D31*
G04 #@! TO.C,C6004*
X105516578Y-108806622D03*
X106195400Y-108127800D03*
G04 #@! TD*
D18*
G04 #@! TO.C,C21001*
X157788100Y-107139600D03*
X157788100Y-106179600D03*
G04 #@! TD*
D33*
G04 #@! TO.C,R42002*
X202882000Y-115371400D03*
X201232000Y-115371400D03*
G04 #@! TD*
D28*
G04 #@! TO.C,C39001*
X217360000Y-105567800D03*
X216400000Y-105567800D03*
G04 #@! TD*
D11*
G04 #@! TO.C,R50001*
X175991800Y-80612800D03*
X174166800Y-80612800D03*
G04 #@! TD*
D18*
G04 #@! TO.C,C13007*
X176292800Y-108578500D03*
X176292800Y-107618500D03*
G04 #@! TD*
D12*
G04 #@! TO.C,C18002*
X230147000Y-111721400D03*
X230147000Y-112681400D03*
G04 #@! TD*
D20*
G04 #@! TO.C,R41002*
X210287000Y-113113900D03*
X210287000Y-114133900D03*
G04 #@! TD*
D30*
G04 #@! TO.C,R6027*
X89130400Y-120622800D03*
X90150400Y-120622800D03*
G04 #@! TD*
D18*
G04 #@! TO.C,C5007*
X165355800Y-108663300D03*
X165355800Y-107703300D03*
G04 #@! TD*
D11*
G04 #@! TO.C,R57002*
X154396000Y-78496800D03*
X152571000Y-78496800D03*
G04 #@! TD*
D30*
G04 #@! TO.C,R52002*
X184000600Y-82104600D03*
X185020600Y-82104600D03*
G04 #@! TD*
D10*
G04 #@! TO.C,Q15001*
X203102000Y-87741400D03*
X203102000Y-85841400D03*
X201227000Y-86791400D03*
G04 #@! TD*
D33*
G04 #@! TO.C,R3004*
X238865000Y-124936400D03*
X237215000Y-124936400D03*
G04 #@! TD*
D26*
G04 #@! TO.C,R58001*
X158397000Y-82051400D03*
X157377000Y-82051400D03*
G04 #@! TD*
D23*
G04 #@! TO.C,R32001*
X129902401Y-96563200D03*
X129902401Y-95543200D03*
G04 #@! TD*
D33*
G04 #@! TO.C,R6005*
X120346200Y-104566400D03*
X118696200Y-104566400D03*
G04 #@! TD*
G04 #@! TO.C,R40002*
X208957100Y-115361500D03*
X207307100Y-115361500D03*
G04 #@! TD*
D28*
G04 #@! TO.C,C17002*
X182627000Y-96001400D03*
X181667000Y-96001400D03*
G04 #@! TD*
D20*
G04 #@! TO.C,R7018*
X69553073Y-92988901D03*
X69553073Y-94008901D03*
G04 #@! TD*
D35*
G04 #@! TO.C,IC36001*
X221517000Y-113562600D03*
X222787000Y-113562600D03*
X224057000Y-113562600D03*
X225327000Y-113562600D03*
X225327000Y-108138600D03*
X224057000Y-108138600D03*
X222787000Y-108138600D03*
X221517000Y-108138600D03*
G04 #@! TD*
D83*
G04 #@! TO.C,T7001*
X67942273Y-92856301D03*
X67942273Y-91586301D03*
X67942273Y-90316301D03*
X67942273Y-89046301D03*
X67942273Y-87776301D03*
X67942273Y-86506301D03*
X67942273Y-85236301D03*
X67942273Y-83966301D03*
X59186273Y-83966301D03*
X59186273Y-85236301D03*
X59186273Y-86506301D03*
X59186273Y-87776301D03*
X59186273Y-89046301D03*
X59186273Y-90316301D03*
X59186273Y-91586301D03*
X59186273Y-92856301D03*
G04 #@! TD*
D28*
G04 #@! TO.C,C9005*
X165527500Y-94598700D03*
X164567500Y-94598700D03*
G04 #@! TD*
D41*
G04 #@! TO.C,C14003*
X76166873Y-75485101D03*
X74266873Y-75485101D03*
G04 #@! TD*
D33*
G04 #@! TO.C,R11002*
X132657000Y-108191400D03*
X131007000Y-108191400D03*
G04 #@! TD*
D12*
G04 #@! TO.C,C11001*
X133912000Y-107561400D03*
X133912000Y-108521400D03*
G04 #@! TD*
D23*
G04 #@! TO.C,R7009*
X72147400Y-111753800D03*
X72147400Y-110733800D03*
G04 #@! TD*
D15*
G04 #@! TO.C,IC3002*
X230025000Y-121966400D03*
X230025000Y-123236400D03*
X230025000Y-124506400D03*
X230025000Y-125776400D03*
X235449000Y-125776400D03*
X235449000Y-124506400D03*
X235449000Y-123236400D03*
X235449000Y-121966400D03*
G04 #@! TD*
D34*
G04 #@! TO.C,C13003*
X170199800Y-96980501D03*
X171159800Y-96980501D03*
G04 #@! TD*
G04 #@! TO.C,C33003*
X137197000Y-102171400D03*
X138157000Y-102171400D03*
G04 #@! TD*
D60*
G04 #@! TO.C,Q24001*
X175239500Y-91163900D03*
X173339500Y-91163900D03*
X174289500Y-93038900D03*
G04 #@! TD*
D12*
G04 #@! TO.C,C41002*
X208255000Y-113169300D03*
X208255000Y-114129300D03*
G04 #@! TD*
D84*
G04 #@! TO.C,C6040*
X82011955Y-95809546D03*
X83107971Y-94713530D03*
G04 #@! TD*
D12*
G04 #@! TO.C,C22001*
X147947000Y-95661400D03*
X147947000Y-96621400D03*
G04 #@! TD*
G04 #@! TO.C,C6050*
X111366273Y-121761597D03*
X111366273Y-122721597D03*
G04 #@! TD*
D22*
G04 #@! TO.C,R7023*
X53202273Y-80324301D03*
X53202273Y-78674301D03*
G04 #@! TD*
D34*
G04 #@! TO.C,C36001*
X221115800Y-106558000D03*
X222075800Y-106558000D03*
G04 #@! TD*
D54*
G04 #@! TO.C,L10001*
X57491073Y-71409197D03*
X54191073Y-71409197D03*
G04 #@! TD*
D11*
G04 #@! TO.C,R58002*
X159460299Y-78527700D03*
X157635299Y-78527700D03*
G04 #@! TD*
D26*
G04 #@! TO.C,R7006*
X71607400Y-114303800D03*
X70587400Y-114303800D03*
G04 #@! TD*
D14*
G04 #@! TO.C,TP7001*
X109085677Y-72678701D03*
G04 #@! TD*
D23*
G04 #@! TO.C,R13007*
X94866273Y-65606301D03*
X94866273Y-64586301D03*
G04 #@! TD*
D27*
G04 #@! TO.C,D57001*
X154552700Y-80528800D03*
X152452700Y-80528800D03*
G04 #@! TD*
D35*
G04 #@! TO.C,IC38001*
X213352000Y-113543400D03*
X214622000Y-113543400D03*
X215892000Y-113543400D03*
X217162000Y-113543400D03*
X217162000Y-108119400D03*
X215892000Y-108119400D03*
X214622000Y-108119400D03*
X213352000Y-108119400D03*
G04 #@! TD*
D40*
G04 #@! TO.C,C6011*
X108725989Y-104098389D03*
X109404811Y-104777211D03*
G04 #@! TD*
D18*
G04 #@! TO.C,C9008*
X161117500Y-106048700D03*
X161117500Y-105088700D03*
G04 #@! TD*
D28*
G04 #@! TO.C,C33001*
X139137000Y-96991401D03*
X138177000Y-96991401D03*
G04 #@! TD*
D21*
G04 #@! TO.C,U31001*
X153131600Y-110332100D03*
X152181600Y-110332100D03*
X151231600Y-110332100D03*
X151231600Y-112607100D03*
X153131600Y-112607100D03*
G04 #@! TD*
M02*
